<?xml version="1.0" encoding="UTF-8"?>
<svg width="40px" height="40px" viewBox="0 0 40 40" version="1.1" xmlns="http://www.w3.org/2000/svg" xmlns:xlink="http://www.w3.org/1999/xlink">
    <!-- Generator: Sketch 51.1 (57501) - http://www.bohemiancoding.com/sketch -->
    <title>Artboard</title>
    <desc>Created with Sketch.</desc>
    <defs>
        <polygon id="path-1" points="0 0.0102 2.9996 0.0102 2.9996 5.9902 0 5.9902"></polygon>
    </defs>
    <g id="Artboard" stroke="none" stroke-width="1" fill="none" fill-rule="evenodd">
        <g id="Group">
            <g id="2">
                <path d="M39.7798,22.99 C38.3298,32.62 30.0298,40 19.9998,40 C9.9798,40 1.6698,32.62 0.2198,22.99 C1.7798,22.88 2.9998,21.59 2.9998,20 C2.9998,18.41 1.7798,17.12 0.2198,17.01 C1.6698,7.38 9.9798,0 19.9998,0 C30.0298,0 38.3298,7.38 39.7798,17.01 C38.2298,17.12 36.9998,18.42 36.9998,20 C36.9998,21.58 38.2298,22.88 39.7798,22.99" id="Fill-1" fill="#FFD478"></path>
                <path d="M39.9996,20.0002 C39.9996,21.0202 39.9196,22.0202 39.7796,22.9902 C38.2296,22.8802 36.9996,21.5802 36.9996,20.0002 C36.9996,18.4202 38.2296,17.1202 39.7796,17.0102 C39.9196,17.9802 39.9996,18.9802 39.9996,20.0002" id="Fill-3" fill="#DBAD4A"></path>
                <g id="Group-7" transform="translate(0.000000, 17.000000)">
                    <mask id="mask-2" fill="white">
                        <use xlink:href="#path-1"></use>
                    </mask>
                    <g id="Clip-6"></g>
                    <path d="M2.9996,3.0002 C2.9996,4.5902 1.7796,5.8802 0.2206,5.9902 C0.0796,5.0202 -0.0004,4.0202 -0.0004,3.0002 C-0.0004,1.9802 0.0796,0.9802 0.2206,0.0102 C1.7796,0.1202 2.9996,1.4102 2.9996,3.0002" id="Fill-5" fill="#DBAD4A" mask="url(#mask-2)"></path>
                </g>
                <path d="M10.0172,31.3703 C10.1962,30.4873 11.2042,29.9543 11.6022,29.2453 C12.0282,28.4873 11.9802,27.3533 12.6152,26.7943 C13.2442,26.2403 14.3772,26.4203 15.1702,26.0613 C15.9222,25.7213 16.5092,24.7413 17.3732,24.5773 C18.1832,24.4223 19.1072,25.1053 19.9862,25.1053 C20.8652,25.1053 21.7882,24.4223 22.5982,24.5763 C23.4622,24.7413 24.0492,25.7213 24.8012,26.0613 C25.5952,26.4203 26.7292,26.2393 27.3592,26.7933 C27.9942,27.3523 27.9462,28.4873 28.3712,29.2443 C28.7702,29.9543 29.7782,30.4873 29.9562,31.3703" id="Stroke-8" stroke="#2F3061" stroke-width="1.5" stroke-linecap="round" stroke-linejoin="round"></path>
                <path d="M8.8736,10.5051 C9.8206,10.9921 10.9646,11.0871 12.0356,10.6711 C13.0286,10.2851 13.7716,9.5331 14.1706,8.6301" id="Stroke-10" stroke="#2F3061" stroke-width="1.5" stroke-linecap="round" stroke-linejoin="round"></path>
                <path d="M14.6412,15.3733 C14.6412,16.9663 13.3502,18.2573 11.7572,18.2573 C10.1642,18.2573 8.8732,16.9663 8.8732,15.3733 C8.8732,13.7803 10.1642,12.4893 11.7572,12.4893 C13.3502,12.4893 14.6412,13.7803 14.6412,15.3733" id="Fill-12" fill="#2F3061"></path>
                <path d="M31.1255,10.5051 C30.1785,10.9921 29.0355,11.0871 27.9645,10.6711 C26.9715,10.2851 26.2285,9.5331 25.8295,8.6301" id="Stroke-14" stroke="#2F3061" stroke-width="1.5" stroke-linecap="round" stroke-linejoin="round"></path>
                <path d="M25.3589,15.3733 C25.3589,16.9663 26.6499,18.2573 28.2429,18.2573 C29.8349,18.2573 31.1259,16.9663 31.1259,15.3733 C31.1259,13.7803 29.8349,12.4893 28.2429,12.4893 C26.6499,12.4893 25.3589,13.7803 25.3589,15.3733" id="Fill-16" fill="#2F3061"></path>
            </g>
        </g>
    </g>
</svg>