<?xml version="1.0" encoding="UTF-8"?>
<svg width="40px" height="40px" viewBox="0 0 40 40" version="1.1" xmlns="http://www.w3.org/2000/svg" xmlns:xlink="http://www.w3.org/1999/xlink">
    <!-- Generator: Sketch 51.1 (57501) - http://www.bohemiancoding.com/sketch -->
    <title>Artboard</title>
    <desc>Created with Sketch.</desc>
    <defs>
        <polygon id="path-1" points="0.2203 0.0002 39.7803 0.0002 39.7803 40 0.2203 40"></polygon>
    </defs>
    <g id="Artboard" stroke="none" stroke-width="1" fill="none" fill-rule="evenodd">
        <g id="Group">
            <g id="4">
                <g id="Group-3">
                    <mask id="mask-2" fill="white">
                        <use xlink:href="#path-1"></use>
                    </mask>
                    <g id="Clip-2"></g>
                    <path d="M39.7803,22.9902 C38.3303,32.6202 30.0303,40.0002 20.0003,40.0002 C9.9803,40.0002 1.6703,32.6202 0.2203,22.9902 C1.7803,22.8802 3.0003,21.5902 3.0003,20.0002 C3.0003,18.4102 1.7803,17.1202 0.2203,17.0102 C1.6703,7.3802 9.9803,0.0002 20.0003,0.0002 C30.0303,0.0002 38.3303,7.3802 39.7803,17.0102 C38.2303,17.1202 37.0003,18.4202 37.0003,20.0002 C37.0003,21.5802 38.2303,22.8802 39.7803,22.9902" id="Fill-1" fill="#FFD478" mask="url(#mask-2)"></path>
                </g>
                <path d="M40,20 C40,21.02 39.92,22.02 39.78,22.99 C38.23,22.88 37,21.58 37,20 C37,18.42 38.23,17.12 39.78,17.01 C39.92,17.98 40,18.98 40,20" id="Fill-4" fill="#DBAD4A"></path>
                <path d="M3,20 C3,21.59 1.78,22.88 0.221,22.99 C0.08,22.02 0,21.02 0,20 C0,18.98 0.08,17.98 0.221,17.01 C1.78,17.12 3,18.41 3,20" id="Fill-6" fill="#DBAD4A"></path>
                <path d="M30.4111,24.6934 C29.4331,29.5334 25.1581,33.1764 20.0311,33.1764 C14.9011,33.1764 10.6261,29.5334 9.6481,24.6934" id="Stroke-8" stroke="#2F3061" stroke-width="1.5" stroke-linecap="round" stroke-linejoin="round"></path>
                <path d="M14.2451,15.1216 C14.2451,15.9796 13.8991,16.7586 13.3371,17.3206 C12.7711,16.7516 11.9891,16.3986 11.1241,16.3986 C10.2601,16.3986 9.4771,16.7516 8.9121,17.3206 C8.3491,16.7586 8.0041,15.9796 8.0041,15.1216 C8.0041,13.3976 9.4011,11.9976 11.1241,11.9976 C12.8481,11.9976 14.2451,13.3976 14.2451,15.1216" id="Fill-10" fill="#2F3061"></path>
                <path d="M7.5156,11.6611 C8.1086,10.6731 9.1056,9.9331 10.3276,9.7031 C11.4606,9.4911 12.5736,9.7581 13.4546,10.3611" id="Stroke-12" stroke="#2F3061" stroke-width="1.5" stroke-linecap="round" stroke-linejoin="round"></path>
                <path d="M32.084,15.1216 C32.084,15.9796 31.737,16.7586 31.176,17.3206 C30.61,16.7516 29.828,16.3986 28.963,16.3986 C28.099,16.3986 27.316,16.7516 26.751,17.3206 C26.188,16.7586 25.843,15.9796 25.843,15.1216 C25.843,13.3976 27.24,11.9976 28.963,11.9976 C30.687,11.9976 32.084,13.3976 32.084,15.1216" id="Fill-14" fill="#2F3061"></path>
                <path d="M32.5703,11.6611 C31.9773,10.6731 30.9803,9.9331 29.7583,9.7031 C28.6263,9.4911 27.5133,9.7581 26.6323,10.3611" id="Stroke-16" stroke="#2F3061" stroke-width="1.5" stroke-linecap="round" stroke-linejoin="round"></path>
            </g>
        </g>
    </g>
</svg>