<?xml version="1.0" encoding="UTF-8"?>
<svg width="40px" height="40px" viewBox="0 0 40 40" version="1.1" xmlns="http://www.w3.org/2000/svg" xmlns:xlink="http://www.w3.org/1999/xlink">
    <!-- Generator: Sketch 51.1 (57501) - http://www.bohemiancoding.com/sketch -->
    <title>Artboard</title>
    <desc>Created with Sketch.</desc>
    <defs>
        <polygon id="path-1" points="0.2203 0.0002 39.7803 0.0002 39.7803 40 0.2203 40"></polygon>
    </defs>
    <g id="Artboard" stroke="none" stroke-width="1" fill="none" fill-rule="evenodd">
        <g id="Group">
            <g id="5">
                <g id="Group-3">
                    <mask id="mask-2" fill="white">
                        <use xlink:href="#path-1"></use>
                    </mask>
                    <g id="Clip-2"></g>
                    <path d="M39.7803,22.9902 C38.3303,32.6202 30.0303,40.0002 20.0003,40.0002 C9.9803,40.0002 1.6703,32.6202 0.2203,22.9902 C1.7803,22.8802 3.0003,21.5902 3.0003,20.0002 C3.0003,18.4102 1.7803,17.1202 0.2203,17.0102 C1.6703,7.3802 9.9803,0.0002 20.0003,0.0002 C30.0303,0.0002 38.3303,7.3802 39.7803,17.0102 C38.2303,17.1202 37.0003,18.4202 37.0003,20.0002 C37.0003,21.5802 38.2303,22.8802 39.7803,22.9902" id="Fill-1" fill="#FFD478" mask="url(#mask-2)"></path>
                </g>
                <path d="M40,20 C40,21.02 39.92,22.02 39.78,22.99 C38.23,22.88 37,21.58 37,20 C37,18.42 38.23,17.12 39.78,17.01 C39.92,17.98 40,18.98 40,20" id="Fill-4" fill="#DBAD4A"></path>
                <path d="M3,20 C3,21.59 1.78,22.88 0.221,22.99 C0.08,22.02 0,21.02 0,20 C0,18.98 0.08,17.98 0.221,17.01 C1.78,17.12 3,18.41 3,20" id="Fill-6" fill="#DBAD4A"></path>
                <path d="M25.8027,13.5063 C25.8027,11.7913 27.1937,10.4013 28.9077,10.4013 C30.6227,10.4013 32.0127,11.7913 32.0127,13.5063" id="Stroke-8" stroke="#2F3061" stroke-width="1.5" stroke-linecap="round" stroke-linejoin="round"></path>
                <path d="M8.0586,13.5063 C8.0586,11.7913 9.4496,10.4013 11.1636,10.4013 C12.8786,10.4013 14.2696,11.7913 14.2696,13.5063" id="Stroke-10" stroke="#2F3061" stroke-width="1.5" stroke-linecap="round" stroke-linejoin="round"></path>
                <path d="M28.8662,30.3804 C26.7192,32.7304 23.6512,34.2184 20.2362,34.2854 C16.6582,34.3544 13.4262,32.7924 11.1792,30.3044 C12.6402,27.7354 16.0402,25.9324 20.0012,25.9324 C24.0022,25.9324 27.4272,27.7694 28.8662,30.3804" id="Fill-12" fill="#E897A3"></path>
                <path d="M28.8662,30.3804 C26.7192,32.7304 23.6512,34.2184 20.2362,34.2854 C16.6582,34.3544 13.4262,32.7924 11.1792,30.3044 C12.6402,27.7354 16.0402,25.9324 20.0012,25.9324 C24.0022,25.9324 27.4272,27.7694 28.8662,30.3804 Z" id="Stroke-14" stroke="#2F3061" stroke-width="1.5" stroke-linecap="round" stroke-linejoin="round"></path>
                <path d="M32.0137,21.1074 L32.0137,22.2754 C32.0137,25.4024 30.8197,28.2454 28.8667,30.3804 C27.4267,27.7694 24.0017,25.9324 20.0007,25.9324 C16.0397,25.9324 12.6407,27.7354 11.1787,30.3044 C9.1997,28.1094 7.9887,25.1944 7.9887,22.0374 L7.9887,21.1074 C7.9887,19.8234 9.0307,18.7814 10.3147,18.7814 L29.6877,18.7814 C30.9717,18.7814 32.0137,19.8234 32.0137,21.1074" id="Fill-16" fill="#DBAD4A"></path>
                <path d="M32.0137,21.1074 L32.0137,22.2754 C32.0137,25.4024 30.8197,28.2454 28.8667,30.3804 C27.4267,27.7694 24.0017,25.9324 20.0007,25.9324 C16.0397,25.9324 12.6407,27.7354 11.1787,30.3044 C9.1997,28.1094 7.9887,25.1944 7.9887,22.0374 L7.9887,21.1074 C7.9887,19.8234 9.0307,18.7814 10.3147,18.7814 L29.6877,18.7814 C30.9717,18.7814 32.0137,19.8234 32.0137,21.1074 Z" id="Stroke-18" stroke="#2F3061" stroke-width="1.5" stroke-linecap="round" stroke-linejoin="round"></path>
                <path d="M27.8213,22.5405 L12.2643,22.5405 C11.6653,22.5405 11.1783,22.0545 11.1783,21.4545 L11.1783,18.7815 L28.9083,18.7815 L28.9083,21.4545 C28.9083,22.0545 28.4223,22.5405 27.8213,22.5405" id="Fill-20" fill="#E2EFF3"></path>
                <path d="M27.8213,22.5405 L12.2643,22.5405 C11.6653,22.5405 11.1783,22.0545 11.1783,21.4545 L11.1783,18.7815 L28.9083,18.7815 L28.9083,21.4545 C28.9083,22.0545 28.4223,22.5405 27.8213,22.5405 Z" id="Stroke-22" stroke="#2F3061" stroke-width="1.5" stroke-linecap="round" stroke-linejoin="round"></path>
            </g>
        </g>
    </g>
</svg>