<?xml version="1.0" encoding="UTF-8"?>
<svg width="135px" height="77px" viewBox="0 0 135 77" version="1.1" xmlns="http://www.w3.org/2000/svg" xmlns:xlink="http://www.w3.org/1999/xlink">
    <!-- Generator: Sketch 52.2 (67145) - http://www.bohemiancoding.com/sketch -->
    <title>Artboard</title>
    <desc>Created with Sketch.</desc>
    <g id="Artboard" stroke="none" stroke-width="1" fill="none" fill-rule="evenodd" opacity="0.400000006">
        <g id="Group-4" transform="translate(2.000000, 19.000000)">
            <g id="eraser" transform="translate(0.000000, 17.000000)">
                <rect id="Rectangle-17" stroke="#2F3061" stroke-width="2" fill="#EDBB82" x="1.93846154" y="0" width="38.7692308" height="47.8346457" rx="1"></rect>
                <polygon id="Rectangle-19" fill-opacity="0.249999985" fill="#343434" points="2.58461538 0.637795276 40.0615385 0.637795276 40.0615385 3.18897638 2.58461538 3.18897638"></polygon>
                <rect id="Rectangle-17" stroke="#2F3061" stroke-width="2" fill="#FF6B6B" x="0" y="12.7559055" width="42" height="68.2440945" rx="1"></rect>
                <polygon id="Rectangle-18" fill="#DFE4E6" points="0.646153846 16.2637795 41.3538462 16.2637795 41.3538462 18.1771654 0.646153846 18.1771654"></polygon>
                <ellipse id="Oval" fill="#343434" cx="21.3230769" cy="46.8779528" rx="12.9230769" ry="25.8307087"></ellipse>
                <text id="Eraser" transform="translate(21.323077, 46.577226) rotate(-90.000000) translate(-21.323077, -46.577226) " font-family="SourceSansPro-Regular, Source Sans Pro" font-size="12" font-weight="normal" fill="#E37F82">
                    <tspan x="1.70307692" y="51.0772259">ERASER</tspan>
                </text>
            </g>
            <g id="marker" transform="translate(49.000000, 0.000000)">
                <path d="M10.2426509,2.23634852 L15.754846,0.389444936 C16.8021896,0.0385243791 17.9357066,0.603086774 18.2866272,1.65043034 C18.3552518,1.85524452 18.3902439,2.06982317 18.3902439,2.28582821 L18.3902439,10.2549725 C18.3902439,11.359542 17.4948134,12.2549725 16.3902439,12.2549725 L10.8780488,12.2549725 C9.77347928,12.2549725 8.87804878,11.359542 8.87804878,10.2549725 L8.87804878,4.1327318 C8.87804878,3.27301271 9.42747245,2.50948036 10.2426509,2.23634852 Z" id="Rectangle-10" stroke="#343434" stroke-width="2" fill="#C5B0B7"></path>
                <path d="M24.7317073,22.9473684 L24.7317073,26.1345029 L2.53658537,26.1345029 L2.53658537,22.9473684 C4.6504065,20.8160271 5.70731707,18.6890758 5.70731707,16.5665145 C5.70731707,15.4439531 5.70731707,14.3213918 5.70731707,13.1988304 C5.70731707,11.5419762 7.05046282,10.1988304 8.70731707,10.1988304 L18.5609756,10.1988304 C20.2178299,10.1988304 21.5609756,11.5419762 21.5609756,13.1988304 C21.5609756,14.3211342 21.5609756,15.443438 21.5609756,16.5657418 C21.5609756,18.6929506 22.6178862,20.8201595 24.7317073,22.9473684 Z" id="Combined-Shape" stroke="#2F3061" stroke-width="2" fill="#7880B5" stroke-linecap="round" stroke-linejoin="round"></path>
                <path d="M2.26829268,26.1345029 L25,26.1345029 C25.5522847,26.1345029 26,26.5822182 26,27.1345029 L26,31.5087719 C26,32.0610567 25.5522847,32.5087719 25,32.5087719 L2.26829268,32.5087719 C1.71600793,32.5087719 1.26829268,32.0610567 1.26829268,31.5087719 L1.26829268,27.1345029 C1.26829268,26.5822182 1.71600793,26.1345029 2.26829268,26.1345029 Z" id="Rectangle-13" stroke="#2F3061" stroke-width="2" fill="#D8D8D8"></path>
                <polygon id="Rectangle-13" stroke="#2F3061" stroke-width="2" fill="#DFE4E6" points="1.26829268 32.5087719 26 32.5087719 22.8292683 109 4.43902439 109"></polygon>
                <rect id="Rectangle-20" fill="#2F3061" transform="translate(11.414634, 48.125731) rotate(-3.000000) translate(-11.414634, -48.125731) " x="10.7804878" y="36.9707602" width="1.26829268" height="22.3099415" rx="0.634146341"></rect>
                <polygon id="Rectangle-19" fill-opacity="0.249999985" fill="#343434" transform="translate(4.439024, 48.763158) rotate(87.000000) translate(-4.439024, -48.763158) " points="-17.7560976 45.8947368 26.6341463 45.8947368 26.6341463 51.6315789 -17.7560976 51.6315789"></polygon>
            </g>
            <g id="scissors" transform="translate(80.000000, 6.000000)">
                <g id="Group-2" transform="translate(36.696673, 39.763346) scale(-1, 1) rotate(-15.000000) translate(-36.696673, -39.763346) translate(28.696673, 1.263346)">
                    <path d="M15.7733861,0 L15.9883721,76.4516129 L1.42108547e-13,76.1901477 L1.42108547e-13,15.7733861 C1.37173069e-13,7.06198548 7.06198548,1.60025832e-15 15.7733861,0 Z" id="Rectangle-14" stroke="#2F3061" stroke-width="2" fill="#1E575F" stroke-linecap="round" stroke-linejoin="round"></path>
                    <path d="M15.1569846,13.3790323 L15.1569846,63.0725806 L15.1569846,63.0725806 C11.6249309,63.0725806 8.76163571,60.2092854 8.76163571,56.6772318 L8.76163571,19.7743811 C8.76163571,16.2423275 11.6249309,13.3790323 15.1569846,13.3790323 Z" id="Rectangle-15" fill="#75ABBC"></path>
                </g>
                <g id="Group-2" transform="translate(18.786289, 39.634252) rotate(-15.000000) translate(-18.786289, -39.634252) translate(10.286289, 1.134252)">
                    <path d="M15.7733861,7.10542736e-15 L15.9883721,76.4516129 L1.63868918e-13,76.1901477 L1.60316205e-13,15.7733861 C1.59249366e-13,7.06198548 7.06198548,8.70568568e-15 15.7733861,7.10542736e-15 Z" id="Rectangle-14" stroke="#2F3061" stroke-width="2" fill="#6BA292" stroke-linecap="round" stroke-linejoin="round"></path>
                    <path d="M15.1569846,13.3790323 L15.1569846,63.0725806 L15.1569846,63.0725806 C11.6249309,63.0725806 8.76163571,60.2092854 8.76163571,56.6772318 L8.76163571,19.7743811 C8.76163571,16.2423275 11.6249309,13.3790323 15.1569846,13.3790323 Z" id="Rectangle-15" fill="#A5D9E4"></path>
                    <polygon id="Rectangle-19" fill-opacity="0.249999985" fill="#343434" points="0.270004631 33.6644571 16.2583767 33.6644571 16.2583767 36.849941 0.270004631 36.849941"></polygon>
                    <polygon id="Rectangle-19" fill-opacity="0.249999985" fill="#343434" points="0.403060543 25.78512 16.3914326 25.78512 16.3914326 32.1560878 0.403060543 32.1560878"></polygon>
                </g>
            </g>
        </g>
    </g>
</svg>