<?xml version="1.0" encoding="UTF-8"?>
<svg width="135px" height="77px" viewBox="0 0 135 77" version="1.1" xmlns="http://www.w3.org/2000/svg" xmlns:xlink="http://www.w3.org/1999/xlink">
    <!-- Generator: Sketch 52.2 (67145) - http://www.bohemiancoding.com/sketch -->
    <title>Artboard</title>
    <desc>Created with Sketch.</desc>
    <g id="Artboard" stroke="none" stroke-width="1" fill="none" fill-rule="evenodd" opacity="0.395380435">
        <g id="Group" transform="translate(5.000000, 2.000000)">
            <g id="stencil" transform="translate(85.000000, 7.000000)">
                <path d="M11.4950489,0 L14.5666667,11.8742763 C13.5595779,12.3021781 12.5424002,12.516129 11.5151335,12.516129 C10.4878668,12.516129 9.46060005,12.3021781 8.43333333,11.8742763 L11.4950489,0 Z" id="Triangle" stroke="#343434" stroke-width="2" fill="#343434" stroke-linecap="round" stroke-linejoin="round"></path>
                <polygon id="Rectangle-5" stroke="#2F3061" stroke-width="2" fill="#1E575F" stroke-linecap="round" stroke-linejoin="round" points="0 43.8064516 23 43.8064516 23 97 0 97"></polygon>
                <path d="M0.766666667,50.0645161 C4.3541809,51.6290323 7.93520417,52.4112903 11.5097365,52.4112903 C15.0842687,52.4112903 18.658801,51.6290323 22.2333333,50.0645161 L22.2333333,52.4112903 C18.6473032,53.9758065 15.0667747,54.7580645 11.4917477,54.7580645 C7.91672068,54.7580645 4.34169367,53.9758065 0.766666667,52.4112903 L0.766666667,50.0645161 Z" id="Rectangle-6" fill="#6BA292"></path>
                <path d="M0.766666667,54.7580645 C4.3541809,56.3225806 7.93520417,57.1048387 11.5097365,57.1048387 C15.0842687,57.1048387 18.658801,56.3225806 22.2333333,54.7580645 L22.2333333,57.1048387 C18.6473032,58.6693548 15.0667747,59.4516129 11.4917477,59.4516129 C7.91672068,59.4516129 4.34169367,58.6693548 0.766666667,57.1048387 L0.766666667,54.7580645 Z" id="Rectangle-6" fill="#6BA292"></path>
                <path d="M0.766666667,59.4516129 C4.3541809,61.016129 7.93520417,61.7983871 11.5097365,61.7983871 C15.0842687,61.7983871 18.658801,61.016129 22.2333333,59.4516129 L22.2333333,61.7983871 C18.6473032,63.3629032 15.0667747,64.1451613 11.4917477,64.1451613 C7.91672068,64.1451613 4.34169367,63.3629032 0.766666667,61.7983871 L0.766666667,59.4516129 Z" id="Rectangle-6" fill="#6BA292"></path>
                <path d="M7.66666667,12.516129 C8.94492702,13.0376344 10.2228657,13.2983871 11.5004826,13.2983871 C12.7780995,13.2983871 14.0557164,13.0376344 15.3333333,12.516129 L23,43.8064516 C19.165072,45.3709677 15.3312071,46.1532258 11.4984053,46.1532258 C7.66560354,46.1532258 3.83280177,45.3709677 0,43.8064516 L7.66666667,12.516129 Z" id="Rectangle-4" stroke="#2F3061" stroke-width="2" fill="#B8B8B8" stroke-linecap="round" stroke-linejoin="round"></path>
            </g>
            <g id="pen" transform="translate(51.000000, 0.000000)">
                <path d="M11.5,0 C13.0352364,5.7212622 14.6456217,10.4292389 16.3311558,14.1239301 C18.0166898,17.8186213 20.2396379,21.5133124 23,25.2080036 L18.6073909,39.1304348 L4.39260913,39.1304348 L0,25.2080036 C2.29705091,22.5288907 4.51965034,18.8349638 6.66779827,14.1262229 C8.81594621,9.41748191 10.4266801,4.70874095 11.5,0 Z" id="Polygon" stroke="#2F3061" stroke-width="2" fill="#DFE4E6" stroke-linecap="round" stroke-linejoin="round"></path>
                <polygon id="Polygon-2" stroke="#2F3061" stroke-width="2" fill="#C5B0B7" stroke-linecap="round" stroke-linejoin="round" points="11.5 23.4782609 13.8 25.826087 11.5 28.173913 9.2 25.826087"></polygon>
                <path d="M11.5,0 L11.5,0 C11.9234183,-7.77806814e-17 12.2666667,0.343248358 12.2666667,0.766666667 L12.2666667,23.4942029 C12.2666667,23.9176212 11.9234183,24.2608696 11.5,24.2608696 L11.5,24.2608696 C11.0765817,24.2608696 10.7333333,23.9176212 10.7333333,23.4942029 L10.7333333,0.766666667 C10.7333333,0.343248358 11.0765817,7.77806814e-17 11.5,0 Z" id="Rectangle-20" fill="#2F3061"></path>
                <polygon id="Rectangle-3" stroke="#2F3061" stroke-width="2" fill="#D8D8D8" stroke-linecap="round" stroke-linejoin="round" points="3.83333333 39.1304348 19.1666667 39.1304348 20.7 50.0869565 2.3 50.0869565"></polygon>
                <path d="M2.3,50.0869565 L20.7,50.0869565 C22.2333333,65.728699 23,81.3773957 23,97.0330468 C23,112.688698 22.2333333,128.344349 20.7,144 L2.3,144 C0.766666667,128.343401 2.05699655e-16,112.689752 0,97.0390528 C0,81.3883541 0.766666667,65.7376553 2.3,50.0869565 Z" id="Rectangle-3" stroke="#2F3061" stroke-width="2" fill="#7880B5" stroke-linecap="round" stroke-linejoin="round"></path>
            </g>
            <g id="pencil" transform="translate(16.000000, 20.000000)">
                <polygon id="Triangle" stroke="#2F3061" stroke-width="2" fill="#EDBB82" stroke-linecap="round" stroke-linejoin="round" points="11.5 0 23 35.1315789 0 35.1315789"></polygon>
                <path d="M23,35.1315789 L23,89 L0,89 L0,35.1315789 L4.3125,30.4473684 L7.90625,34.3508772 L11.5,30.4473684 L15.09375,34.3508772 L18.6875,30.4473684 L23,35.1315789 Z" id="Combined-Shape" stroke="#2F3061" stroke-width="2" fill="#E37F82" stroke-linecap="round" stroke-linejoin="round"></path>
                <path d="M8.24166667,35.1315789 L11.5,31.5949771 L14.7583333,35.1315789 L15.0496704,35.1315789 L15.0496704,89 L7.95800374,89 L7.95800374,35.1315789 L8.24166667,35.1315789 Z" id="Combined-Shape" fill="#FF6B6B"></path>
                <path d="M11.5,4.91841152 L16.2610168,19.361394 C14.7000262,19.8818618 13.1233977,20.1420957 11.5311311,20.1420957 C9.93886457,20.1420957 8.34659801,19.8818618 6.75433146,19.361394 L11.5,4.91841152 Z" id="Triangle" stroke="#343434" stroke-width="2" fill="#343434"></path>
            </g>
            <path d="M4.08278264,64 L119.917399,64 C122.126538,64 123.917399,65.790861 123.917399,68 C123.917399,68.1150616 123.912434,68.2300696 123.902518,68.3447031 L122.259065,87.3447031 C122.080205,89.412512 120.349475,91 118.273945,91 L5.72623604,91 C3.65070608,91 1.91997664,89.412512 1.74111624,87.3447031 L0.0976628441,68.3447031 C-0.0927114144,66.1437822 1.53715866,64.2052545 3.73807955,64.0148802 C3.85271308,64.0049647 3.96772107,64 4.08278264,64 Z" id="Rectangle-7" stroke="#2F3061" stroke-width="2" fill="#1B75BB"></path>
        </g>
    </g>
</svg>