<?xml version="1.0" encoding="UTF-8"?>
<svg width="144px" height="156px" viewBox="0 0 144 156" version="1.1" xmlns="http://www.w3.org/2000/svg" xmlns:xlink="http://www.w3.org/1999/xlink">
    <!-- Generator: Sketch 52.6 (67491) - http://www.bohemiancoding.com/sketch -->
    <title>Custom Preset</title>
    <desc>Created with Sketch.</desc>
    <defs>
        <path d="M0.442,70.564 C0.442,109.224 31.783,140.564 70.443,140.564 C109.103,140.564 140.443,109.224 140.443,70.564 C140.443,31.904 109.103,0.564 70.443,0.564 C31.783,0.564 0.442,31.904 0.442,70.564" id="path-1"></path>
        <path d="M0.442,70.564 C0.442,109.224 31.783,140.564 70.443,140.564 C109.103,140.564 140.443,109.224 140.443,70.564 C140.443,31.904 109.103,0.564 70.443,0.564 C31.783,0.564 0.442,31.904 0.442,70.564" id="path-3"></path>
        <path d="M0.442,70.564 C0.442,109.224 31.783,140.564 70.443,140.564 C109.103,140.564 140.443,109.224 140.443,70.564 C140.443,31.904 109.103,0.564 70.443,0.564 C31.783,0.564 0.442,31.904 0.442,70.564" id="path-5"></path>
        <path d="M0.442,70.564 C0.442,109.224 31.783,140.564 70.443,140.564 C109.103,140.564 140.443,109.224 140.443,70.564 C140.443,31.904 109.103,0.564 70.443,0.564 C31.783,0.564 0.442,31.904 0.442,70.564" id="path-7"></path>
        <path d="M0.442,70.564 C0.442,109.224 31.783,140.564 70.443,140.564 C109.103,140.564 140.443,109.224 140.443,70.564 C140.443,31.904 109.103,0.564 70.443,0.564 C31.783,0.564 0.442,31.904 0.442,70.564" id="path-9"></path>
        <path d="M0.442,70.564 C0.442,109.224 31.783,140.564 70.443,140.564 C109.103,140.564 140.443,109.224 140.443,70.564 C140.443,31.904 109.103,0.564 70.443,0.564 C31.783,0.564 0.442,31.904 0.442,70.564" id="path-11"></path>
        <path d="M0.442,70.564 C0.442,109.224 31.783,140.564 70.443,140.564 C109.103,140.564 140.443,109.224 140.443,70.564 C140.443,31.904 109.103,0.564 70.443,0.564 C31.783,0.564 0.442,31.904 0.442,70.564" id="path-13"></path>
        <path d="M0.442,70.564 C0.442,109.224 31.783,140.564 70.443,140.564 C109.103,140.564 140.443,109.224 140.443,70.564 C140.443,31.904 109.103,0.564 70.443,0.564 C31.783,0.564 0.442,31.904 0.442,70.564" id="path-15"></path>
        <path d="M0.442,70.564 C0.442,109.224 31.783,140.564 70.443,140.564 C109.103,140.564 140.443,109.224 140.443,70.564 C140.443,31.904 109.103,0.564 70.443,0.564 C31.783,0.564 0.442,31.904 0.442,70.564" id="path-17"></path>
        <path d="M0.442,70.564 C0.442,109.224 31.783,140.564 70.443,140.564 C109.103,140.564 140.443,109.224 140.443,70.564 C140.443,31.904 109.103,0.564 70.443,0.564 C31.783,0.564 0.442,31.904 0.442,70.564" id="path-19"></path>
        <path d="M0.442,70.564 C0.442,109.224 31.783,140.564 70.443,140.564 C109.103,140.564 140.443,109.224 140.443,70.564 C140.443,31.904 109.103,0.564 70.443,0.564 C31.783,0.564 0.442,31.904 0.442,70.564" id="path-21"></path>
    </defs>
    <g id="Custom-Preset" stroke="none" stroke-width="1" fill="none" fill-rule="evenodd" opacity="0.16">
        <g id="Page-1" transform="translate(-41.000000, 12.000000)">
            <g id="Group-5" transform="translate(0.000000, 2.561000)">
                <path d="M100.6898,97.1628 C99.5468,92.1078 95.0308,88.3308 89.6268,88.3308 C88.8448,88.3308 88.0818,88.4098 87.3438,88.5598 C86.1858,88.7958 85.0368,88.2578 84.3808,87.2738 C81.4638,82.8998 76.4828,80.0098 70.8348,80.0098 C65.4988,80.0098 60.7578,82.5888 57.7918,86.5618 C57.0858,87.5078 55.8238,87.8808 54.7048,87.5058 C53.5728,87.1258 52.3568,86.9188 51.0998,86.9188 C45.8048,86.9188 41.3768,90.5338 40.1248,95.4328 C39.8678,96.4358 39.0048,97.1628 37.9688,97.1628 L35.8788,97.1628 C34.7538,97.1628 33.8568,96.2248 33.9068,95.1008 C34.1638,89.2798 30.1688,83.9128 24.4118,83.0158 C17.3408,81.9128 11.2428,87.3558 11.2428,94.2188 C11.2428,95.2408 11.3768,96.2218 11.6198,97.1628 L2.4778,97.1628 C1.2968,97.1628 0.3398,98.1198 0.3398,99.2998 C0.3398,100.4798 1.2968,101.4368 2.4778,101.4368 L13.8368,101.4368 L31.3388,101.4368 L40.2248,101.4368 L55.4018,101.4368 L61.9888,101.4368 L78.4168,101.4368 L86.2658,101.4368 L100.8378,101.4368 L111.1168,101.4368 C112.2968,101.4368 113.2538,100.4798 113.2538,99.2998 C113.2538,98.1198 112.2968,97.1628 111.1168,97.1628 L100.6898,97.1628 Z" id="Fill-1" fill="#E7E7E7"></path>
                <path d="M182.4427,70.5637 C182.4427,109.2237 151.1027,140.5637 112.4427,140.5637 C73.7837,140.5637 42.4427,109.2237 42.4427,70.5637 C42.4427,31.9037 73.7837,0.5637 112.4427,0.5637 C151.1027,0.5637 182.4427,31.9037 182.4427,70.5637" id="Fill-3" fill="#9A9A9A"></path>
            </g>
            <g id="Group-39" transform="translate(42.000000, 2.561000)">
                <g id="Group-8">
                    <mask id="mask-2" fill="white">
                        <use xlink:href="#path-1"></use>
                    </mask>
                    <g id="Clip-7"></g>
                    <path d="M27.9818,18.7619 C27.9818,24.5889 23.2588,29.3119 17.4318,29.3119 C11.6058,29.3119 6.8818,24.5889 6.8818,18.7619 C6.8818,12.9359 11.6058,8.2119 17.4318,8.2119 C23.2588,8.2119 27.9818,12.9359 27.9818,18.7619" id="Fill-6" fill="#737373" mask="url(#mask-2)"></path>
                </g>
                <g id="Group-11">
                    <mask id="mask-4" fill="white">
                        <use xlink:href="#path-3"></use>
                    </mask>
                    <g id="Clip-10"></g>
                    <path d="M33.8206,70.5637 C33.8206,75.1337 30.1156,78.8387 25.5456,78.8387 C20.9746,78.8387 17.2696,75.1337 17.2696,70.5637 C17.2696,65.9937 20.9746,62.2887 25.5456,62.2887 C30.1156,62.2887 33.8206,65.9937 33.8206,70.5637" id="Fill-9" fill="#737373" mask="url(#mask-4)"></path>
                </g>
                <g id="Group-14">
                    <mask id="mask-6" fill="white">
                        <use xlink:href="#path-5"></use>
                    </mask>
                    <g id="Clip-13"></g>
                    <path d="M20.7367,82.0295 C20.7367,84.6785 18.5887,86.8275 15.9387,86.8275 C13.2887,86.8275 11.1407,84.6785 11.1407,82.0295 C11.1407,79.3795 13.2887,77.2315 15.9387,77.2315 C18.5887,77.2315 20.7367,79.3795 20.7367,82.0295" id="Fill-12" fill="#737373" mask="url(#mask-6)"></path>
                </g>
                <g id="Group-17">
                    <mask id="mask-8" fill="white">
                        <use xlink:href="#path-7"></use>
                    </mask>
                    <g id="Clip-16"></g>
                    <path d="M108.5247,69.8293 C108.5247,75.4523 103.9667,80.0103 98.3437,80.0103 C92.7217,80.0103 88.1647,75.4523 88.1647,69.8293 C88.1647,64.2063 92.7217,59.6493 98.3437,59.6493 C103.9667,59.6493 108.5247,64.2063 108.5247,69.8293" id="Fill-15" fill="#737373" mask="url(#mask-8)"></path>
                </g>
                <g id="Group-20">
                    <mask id="mask-10" fill="white">
                        <use xlink:href="#path-9"></use>
                    </mask>
                    <g id="Clip-19"></g>
                    <path d="M53.7904,140.5637 C53.7904,149.0887 46.8794,156.0007 38.3544,156.0007 C29.8294,156.0007 22.9184,149.0887 22.9184,140.5637 C22.9184,132.0387 29.8294,125.1277 38.3544,125.1277 C46.8794,125.1277 53.7904,132.0387 53.7904,140.5637" id="Fill-18" fill="#737373" mask="url(#mask-10)"></path>
                </g>
                <g id="Group-23">
                    <mask id="mask-12" fill="white">
                        <use xlink:href="#path-11"></use>
                    </mask>
                    <g id="Clip-22"></g>
                    <path d="M84.4281,119.9958 C84.4281,123.3888 81.6771,126.1398 78.2841,126.1398 C74.8911,126.1398 72.1411,123.3888 72.1411,119.9958 C72.1411,116.6028 74.8911,113.8518 78.2841,113.8518 C81.6771,113.8518 84.4281,116.6028 84.4281,119.9958" id="Fill-21" fill="#737373" mask="url(#mask-12)"></path>
                </g>
                <g id="Group-26">
                    <mask id="mask-14" fill="white">
                        <use xlink:href="#path-13"></use>
                    </mask>
                    <g id="Clip-25"></g>
                    <path d="M72.9828,107.2283 C72.9828,109.7153 70.9668,111.7303 68.4808,111.7303 C65.9938,111.7303 63.9778,109.7153 63.9778,107.2283 C63.9778,104.7413 65.9938,102.7253 68.4808,102.7253 C70.9668,102.7253 72.9828,104.7413 72.9828,107.2283" id="Fill-24" fill="#737373" mask="url(#mask-14)"></path>
                </g>
                <g id="Group-29">
                    <mask id="mask-16" fill="white">
                        <use xlink:href="#path-15"></use>
                    </mask>
                    <g id="Clip-28"></g>
                    <path d="M129.3626,5.8747 C129.3626,14.3997 122.4516,21.3107 113.9256,21.3107 C105.4006,21.3107 98.4906,14.3997 98.4906,5.8747 C98.4906,-2.6503 105.4006,-9.5613 113.9256,-9.5613 C122.4516,-9.5613 129.3626,-2.6503 129.3626,5.8747" id="Fill-27" fill="#737373" mask="url(#mask-16)"></path>
                </g>
                <g id="Group-32">
                    <mask id="mask-18" fill="white">
                        <use xlink:href="#path-17"></use>
                    </mask>
                    <g id="Clip-31"></g>
                    <path d="M119.8871,107.595 L119.8871,107.623 C119.5441,108.071 119.2211,108.253 118.9331,108.449 C118.6461,108.631 118.3401,108.812 118.0531,108.967 C117.4591,109.274 116.8661,109.568 116.2551,109.834 C115.0321,110.366 113.7911,110.856 112.5331,111.304 C109.9801,112.172 107.3551,112.942 104.4421,113.319 C103.7591,113.446 102.8601,113.446 102.0141,113.431 C101.2591,113.362 100.4321,113.305 99.7491,113.165 C99.2101,113.081 98.6701,112.984 98.1491,112.871 C98.2761,113.039 98.3831,113.207 98.5091,113.375 C99.5331,114.817 100.6131,116.315 101.7631,117.574 C101.9081,117.756 102.0331,117.854 102.1581,117.994 C102.2481,118.008 102.1051,118.022 102.2481,118.05 C102.3571,118.134 102.8061,118.148 103.2201,118.134 C104.1361,118.106 105.1981,117.924 106.2581,117.77 C107.3361,117.602 108.4511,117.434 109.6561,117.392 C110.8251,117.35 112.3891,117.462 113.4501,118.386 C113.7731,118.666 113.7551,119.114 113.3781,119.366 C113.0361,119.604 112.5151,119.604 112.1911,119.366 L112.1191,119.324 C111.6331,118.988 110.7891,118.932 109.8351,119.044 C108.8831,119.156 107.8951,119.394 106.8521,119.632 C105.8261,119.87 104.7831,120.15 103.5261,120.318 C102.8781,120.36 102.2131,120.458 101.2781,120.248 C100.8821,120.192 100.3431,119.898 99.9831,119.674 C99.7491,119.492 99.4971,119.296 99.3181,119.128 C97.7721,117.728 96.5481,116.357 95.2721,114.943 C94.1941,113.767 93.1871,112.577 92.1621,111.374 C90.7241,110.982 89.3031,110.576 87.8831,110.198 C82.8661,108.841 77.7601,107.525 73.0321,107.315 C70.8571,107.231 68.1961,107.455 65.6781,107.735 C63.1431,108.014 60.6081,108.407 58.0731,108.868 C55.5371,109.345 53.0201,109.876 50.5391,110.464 L48.7051,110.926 C48.4361,110.996 48.0221,111.108 47.9141,111.136 L46.9791,111.416 L43.0961,112.522 C37.9001,113.963 32.6671,115.279 27.3461,116.483 C22.0051,117.7 16.5941,118.764 10.9661,119.59 C10.8051,119.618 10.6601,119.632 10.4981,119.66 C10.8591,120.192 11.2361,120.723 11.5951,121.241 C12.6381,122.697 13.7171,124.195 14.8501,125.454 C14.9931,125.622 15.1191,125.734 15.2631,125.86 C15.3351,125.874 15.2091,125.902 15.3541,125.916 C15.4431,126 15.9101,126.014 16.3241,126.014 C17.2411,125.986 18.2831,125.804 19.3631,125.637 C20.4421,125.482 21.5561,125.301 22.7611,125.259 C23.9111,125.23 25.4761,125.328 26.5551,126.252 C26.8771,126.546 26.8421,126.98 26.4831,127.246 C26.1411,127.484 25.6191,127.47 25.2781,127.246 L25.2241,127.204 C24.7401,126.868 23.8941,126.812 22.9411,126.924 C21.9881,127.022 20.9811,127.26 19.9561,127.512 C18.9131,127.75 17.8881,128.03 16.6301,128.184 C15.9641,128.24 15.3181,128.338 14.3821,128.114 C13.9691,128.072 13.4301,127.764 13.0871,127.54 C12.8541,127.358 12.6031,127.162 12.4231,126.994 C10.8761,125.608 9.6351,124.223 8.3591,122.823 C7.5861,121.955 6.8301,121.088 6.0751,120.206 C4.8181,120.345 3.5411,120.458 2.2281,120.542 C0.7721,120.681 -14.8609,120.668 -16.4249,120.696 C-17.1979,120.738 -32.0579,120.681 -32.9389,120.626 L-50.9249,117.658 C-55.1849,117.365 -58.3319,114.439 -57.9719,111.122 C-57.5939,107.804 -53.8539,105.355 -49.5939,105.635 C-49.3419,105.649 -33.6939,108.476 -33.4609,108.518 L-32.6699,108.631 L-17.2529,108.841 C-16.7669,108.91 -16.2989,108.994 -15.7069,109.022 C-14.5919,109.064 0.4851,109.204 1.7061,109.177 C4.0801,109.232 6.5971,109.135 9.1141,108.98 C14.1851,108.673 19.3991,108.085 24.5761,107.371 C29.7731,106.643 34.9681,105.775 40.1291,104.809 L43.9951,104.068 L44.9841,103.858 C45.5411,103.746 45.7561,103.718 46.1521,103.648 L48.2381,103.312 C51.0071,102.878 53.7571,102.542 56.5631,102.262 C59.3501,101.982 62.1541,101.786 64.9941,101.702 C67.8531,101.646 70.6221,101.59 73.8231,101.968 C76.8621,102.346 79.6121,103.06 82.2371,103.844 C84.8801,104.641 87.4151,105.523 89.8781,106.447 C92.3411,107.357 94.7501,108.281 97.1601,109.106 C98.3461,109.526 99.5521,109.918 100.7201,110.198 C101.3141,110.38 101.8531,110.436 102.4291,110.562 C102.9321,110.59 103.3811,110.674 104.0291,110.618 C106.4911,110.506 109.0801,110.002 111.5621,109.372 C112.8021,109.051 114.0431,108.7 115.2481,108.295 C115.8411,108.085 116.4351,107.861 116.9911,107.637 C117.2801,107.511 117.5321,107.385 117.7831,107.273 C118.0171,107.147 118.2141,106.993 118.2681,106.993 L119.7961,107.427 C119.8871,107.455 119.9221,107.539 119.8871,107.595" id="Fill-30" fill="#3B3B3B" mask="url(#mask-18)"></path>
                </g>
                <g id="Group-35">
                    <mask id="mask-20" fill="white">
                        <use xlink:href="#path-19"></use>
                    </mask>
                    <g id="Clip-34"></g>
                    <path d="M26.4828,127.2458 C26.1408,127.4838 25.6198,127.4698 25.2778,127.2458 L25.2248,127.2038 C24.7388,126.8678 23.8938,126.8118 22.9398,126.9238 C21.9878,127.0218 20.9808,127.2598 19.9568,127.5118 C18.9138,127.7498 17.8888,128.0298 16.6298,128.1838 C15.9638,128.2398 15.3178,128.3378 14.3818,128.1138 C13.9688,128.0718 13.4298,127.7638 13.0878,127.5398 C12.8538,127.3578 12.6018,127.1618 12.4228,126.9938 C10.8768,125.6078 9.6348,124.2228 8.3588,122.8228 C7.5868,121.9548 6.8308,121.0878 6.0758,120.2058 C4.8178,120.3458 3.5418,120.4578 2.2288,120.5418 C0.7718,120.6818 -14.8612,120.6678 -16.4252,120.6958 C-17.1982,120.7378 -32.0572,120.6818 -32.9392,120.6258 L-50.9242,117.6588 C-55.1852,117.3648 -58.3312,114.4388 -57.9722,111.1218 C-57.9552,110.8978 -57.9002,110.6878 -57.8462,110.4638 C-57.1992,113.0258 -54.4302,115.0548 -50.9242,115.2928 L-32.9392,118.2598 C-32.0572,118.3158 -17.1982,118.3718 -16.4252,118.3298 C-14.8612,118.3018 0.7718,118.3158 2.2288,118.1758 C3.5418,118.0918 4.8178,117.9798 6.0758,117.8398 C6.8308,118.7218 7.5868,119.5898 8.3588,120.4578 C9.6348,121.8568 10.8768,123.2428 12.4228,124.6288 C12.6018,124.7968 12.8538,124.9928 13.0878,125.1748 C13.4298,125.3978 13.9688,125.7058 14.3818,125.7478 C14.7238,125.8318 15.0118,125.8738 15.2818,125.8738 C15.2818,125.8888 15.2458,125.9018 15.3538,125.9158 C15.4428,125.9998 15.9108,126.0148 16.3248,126.0148 C17.2408,125.9858 18.2838,125.8048 19.3628,125.6368 C20.4418,125.4818 21.5568,125.3008 22.7608,125.2588 C23.9118,125.2298 25.4758,125.3288 26.5548,126.2518 C26.8788,126.5458 26.8418,126.9798 26.4828,127.2458" id="Fill-33" fill="#000000" mask="url(#mask-20)"></path>
                </g>
                <g id="Group-38">
                    <mask id="mask-22" fill="white">
                        <use xlink:href="#path-21"></use>
                    </mask>
                    <g id="Clip-37"></g>
                    <path d="M113.3783,119.366 C113.0363,119.604 112.5153,119.604 112.1913,119.366 L112.1193,119.324 C111.6333,118.988 110.7893,118.932 109.8353,119.044 C108.8833,119.156 107.8943,119.394 106.8523,119.632 C105.8263,119.87 104.7843,120.15 103.5253,120.318 C102.8783,120.36 102.2133,120.458 101.2773,120.248 C100.8823,120.192 100.3433,119.898 99.9823,119.674 C99.7493,119.492 99.4973,119.296 99.3183,119.128 C97.7723,117.728 96.5493,116.357 95.2733,114.943 C94.1933,113.767 93.1873,112.577 92.1613,111.374 C90.7243,110.982 89.3033,110.576 87.8833,110.198 C82.8663,108.841 77.7603,107.525 73.0313,107.315 C70.8573,107.231 68.1953,107.455 65.6793,107.735 C63.1433,108.014 60.6073,108.407 58.0723,108.868 C55.5373,109.345 53.0213,109.876 50.5393,110.464 L48.7053,110.926 C48.4363,110.996 48.0223,111.108 47.9143,111.136 L46.9793,111.416 L43.0963,112.522 C37.8993,113.963 32.6673,115.279 27.3463,116.483 C22.3293,117.63 17.2593,118.638 11.9903,119.422 C11.9813,119.419 10.5083,119.663 10.4983,119.66 C10.4933,119.653 9.3153,116.779 13.4683,116.779 C17.3363,116.779 23.6953,114.949 27.3463,114.117 C32.6673,112.913 37.8993,111.598 43.0963,110.156 L46.9793,109.051 L47.9143,108.77 C48.0223,108.742 48.4363,108.631 48.7053,108.56 L50.5393,108.098 C53.0213,107.511 55.5373,106.979 58.0723,106.503 C60.6073,106.041 63.1433,105.649 65.6793,105.369 C68.1953,105.09 70.8573,104.866 73.0313,104.949 C77.7603,105.159 82.8663,106.475 87.8833,107.833 L87.9253,107.844 C90.6003,108.556 92.9013,109.92 94.5093,111.731 C94.7603,112.014 95.0153,112.296 95.2733,112.577 C96.5493,113.991 97.7723,115.363 99.3183,116.762 C99.4973,116.93 99.7493,117.126 99.9823,117.308 C100.3433,117.533 100.8823,117.826 101.2773,117.882 C101.6013,117.952 101.9073,117.994 102.1593,117.994 C102.2483,118.008 102.1053,118.022 102.2483,118.05 C102.3573,118.134 102.8063,118.148 103.2203,118.134 C104.1363,118.106 105.1963,117.924 106.2583,117.77 C107.3373,117.602 108.4523,117.434 109.6563,117.392 C110.8253,117.35 112.3893,117.462 113.4493,118.386 C113.7743,118.666 113.7553,119.114 113.3783,119.366" id="Fill-36" fill="#000000" mask="url(#mask-22)"></path>
                </g>
            </g>
            <g id="Group-116" transform="translate(69.000000, 0.561000)">
                <path d="M143.471,43.9431 C142.328,38.8891 137.812,35.1111 132.408,35.1111 C131.625,35.1111 130.862,35.1901 130.125,35.3401 C128.966,35.5761 127.818,35.0381 127.161,34.0541 C124.245,29.6801 119.264,26.7901 113.615,26.7901 C108.279,26.7901 103.538,29.3691 100.572,33.3421 C99.866,34.2881 98.605,34.6611 97.486,34.2861 C96.353,33.9061 95.138,33.7001 93.88,33.7001 C88.586,33.7001 84.157,37.3151 82.905,42.2141 C82.649,43.2161 81.785,43.9431 80.75,43.9431 L78.659,43.9431 C77.535,43.9431 76.638,43.0051 76.687,41.8811 C76.945,36.0601 72.95,30.6931 67.192,29.7961 C60.121,28.6941 54.023,34.1371 54.023,40.9991 C54.023,42.0211 54.158,43.0021 54.4,43.9431 L45.259,43.9431 C44.078,43.9431 43.121,44.9001 43.121,46.0801 C43.121,47.2611 44.078,48.2181 45.259,48.2181 L56.617,48.2181 L74.12,48.2181 L83.006,48.2181 L98.183,48.2181 L104.77,48.2181 L121.197,48.2181 L129.047,48.2181 L143.618,48.2181 L153.897,48.2181 C155.077,48.2181 156.034,47.2611 156.034,46.0801 C156.034,44.9001 155.077,43.9431 153.897,43.9431 L143.471,43.9431 Z" id="Fill-40" fill="#E7E7E7"></path>
                <path d="M72.349,55.4592 C71.16,58.8092 67.959,61.1892 64.209,61.1892 C59.41,61.1892 55.53,57.3092 55.53,52.5092 C55.53,57.3092 51.639,61.1892 46.839,61.1892 C46.299,61.1892 45.78,61.1392 45.269,61.0392 C45.249,61.0492 45.229,61.0392 45.219,61.0292 C41.2,60.2792 38.16,56.7592 38.16,52.5092 C38.16,56.7392 35.139,60.2492 31.149,61.0292 C30.609,61.1292 30.049,61.1892 29.479,61.1892 C29.12,61.1892 28.769,61.1692 28.419,61.1192 C26.259,60.8592 24.339,59.7992 22.959,58.2492 C23.059,57.0592 23.099,55.8292 23.099,54.5492 C23.099,53.8692 23.099,53.1792 23.089,52.5092 C22.99,45.0092 22.429,38.5092 22.219,33.0792 C22.209,32.9892 22.209,32.8892 22.209,32.7992 C22.069,29.0792 22.109,25.8792 22.609,23.2292 C23.439,18.6992 25.569,15.7392 30.349,14.4992 C32.069,14.0492 34.129,13.8192 36.589,13.8192 C39.169,13.8192 41.7,14.1792 44.149,14.8592 C45.16,15.1392 46.16,15.4692 47.139,15.8692 C50.639,17.2492 53.919,19.2992 56.899,21.8992 C59.219,23.9492 61.349,26.3292 63.249,28.9892 C64.66,30.9692 65.929,33.0992 67.059,35.3692 C69.589,40.4892 71.339,46.2892 72.089,52.5092 C72.2,53.4792 72.299,54.4692 72.349,55.4592" id="Fill-42" fill="#7E7E7E"></path>
                <path d="M72.349,55.4592 C71.16,58.8092 67.959,61.1892 64.209,61.1892 C59.41,61.1892 55.53,57.3092 55.53,52.5092 C55.53,57.3092 51.639,61.1892 46.839,61.1892 C46.299,61.1892 45.78,61.1392 45.269,61.0392 C45.249,61.0492 45.229,61.0392 45.219,61.0292 C41.2,60.2792 38.16,56.7592 38.16,52.5092 C38.16,56.7392 35.139,60.2492 31.149,61.0292 C30.609,61.1292 30.049,61.1892 29.479,61.1892 C29.12,61.1892 28.769,61.1692 28.419,61.1192 C26.259,60.8592 24.339,59.7992 22.959,58.2492 C23.059,57.0592 23.099,55.8292 23.099,54.5492 C23.099,53.8692 23.099,53.1792 23.089,52.5092 C22.99,45.0092 22.429,38.5092 22.219,33.0792 C22.209,32.9892 22.209,32.8892 22.209,32.7992 C22.069,29.0792 22.109,25.8792 22.609,23.2292 C23.439,18.6992 25.569,15.7392 30.349,14.4992 C32.069,14.0492 34.129,13.8192 36.589,13.8192 C39.169,13.8192 41.7,14.1792 44.149,14.8592 C45.16,15.1392 46.16,15.4692 47.139,15.8692 C50.639,17.2492 53.919,19.2992 56.899,21.8992 C59.219,23.9492 61.349,26.3292 63.249,28.9892 C64.66,30.9692 65.929,33.0992 67.059,35.3692 C69.589,40.4892 71.339,46.2892 72.089,52.5092 C72.2,53.4792 72.299,54.4692 72.349,55.4592 Z" id="Stroke-44" stroke="#4D4D4D" stroke-width="2" stroke-linecap="round" stroke-linejoin="round"></path>
                <path d="M72.4662,60.9358 C72.3122,66.5478 71.3742,71.8108 69.8342,76.5978 C69.0922,78.9208 68.2102,81.1468 67.1892,83.2468 C67.1892,83.2468 67.1892,83.2738 67.1752,83.2598 C65.5512,84.7998 63.3542,85.7238 60.9462,85.7238 C55.9072,85.7238 51.8202,81.6368 51.8202,76.5978 C51.8202,81.6368 47.7192,85.7238 42.6672,85.7238 C37.6142,85.7238 33.5412,81.6368 33.5412,76.5978 C33.5412,81.6368 29.4412,85.7238 24.4022,85.7238 C20.6512,85.7238 17.4312,83.4838 16.0172,80.2648 C16.5772,79.1028 17.1792,77.8858 17.7952,76.5978 C20.0762,71.7828 22.3862,65.9328 22.9592,58.2478 C24.5552,60.0538 26.8932,61.1878 29.4822,61.1878 C34.2692,61.1878 38.1592,57.3108 38.1592,52.5098 C38.1592,57.3108 42.0372,61.1878 46.8382,61.1878 C51.6392,61.1878 55.5292,57.3108 55.5292,52.5098 C55.5292,57.3108 59.4062,61.1878 64.2082,61.1878 C67.9582,61.1878 71.1632,58.8078 72.3542,55.4628 C72.4802,57.2548 72.5222,59.0878 72.4662,60.9358" id="Fill-46" fill="#545454"></path>
                <path d="M72.4662,60.9358 C72.3122,66.5478 71.3742,71.8108 69.8342,76.5978 C69.0922,78.9208 68.2102,81.1468 67.1892,83.2468 C67.1892,83.2468 67.1892,83.2738 67.1752,83.2598 C65.5512,84.7998 63.3542,85.7238 60.9462,85.7238 C55.9072,85.7238 51.8202,81.6368 51.8202,76.5978 C51.8202,81.6368 47.7192,85.7238 42.6672,85.7238 C37.6142,85.7238 33.5412,81.6368 33.5412,76.5978 C33.5412,81.6368 29.4412,85.7238 24.4022,85.7238 C20.6512,85.7238 17.4312,83.4838 16.0172,80.2648 C16.5772,79.1028 17.1792,77.8858 17.7952,76.5978 C20.0762,71.7828 22.3862,65.9328 22.9592,58.2478 C24.5552,60.0538 26.8932,61.1878 29.4822,61.1878 C34.2692,61.1878 38.1592,57.3108 38.1592,52.5098 C38.1592,57.3108 42.0372,61.1878 46.8382,61.1878 C51.6392,61.1878 55.5292,57.3108 55.5292,52.5098 C55.5292,57.3108 59.4062,61.1878 64.2082,61.1878 C67.9582,61.1878 71.1632,58.8078 72.3542,55.4628 C72.4802,57.2548 72.5222,59.0878 72.4662,60.9358 Z" id="Stroke-48" stroke="#4D4D4D" stroke-width="2" stroke-linecap="round" stroke-linejoin="round"></path>
                <path d="M67.1751,83.26 C57.1401,104.003 34.8991,113.017 18.5651,99.678 C10.1531,92.806 12.3211,87.739 16.0171,80.265 C17.4311,83.484 20.6511,85.723 24.4021,85.723 C29.4411,85.723 33.5411,81.636 33.5411,76.598 C33.5411,81.636 37.6141,85.723 42.6671,85.723 C47.7191,85.723 51.8211,81.636 51.8211,76.598 C51.8211,81.636 55.9071,85.723 60.9461,85.723 C63.3541,85.723 65.5511,84.8 67.1751,83.26" id="Fill-50" fill="#333333"></path>
                <path d="M67.1751,83.26 C57.1401,104.003 34.8991,113.017 18.5651,99.678 C10.1531,92.806 12.3211,87.739 16.0171,80.265 C17.4311,83.484 20.6511,85.723 24.4021,85.723 C29.4411,85.723 33.5411,81.636 33.5411,76.598 C33.5411,81.636 37.6141,85.723 42.6671,85.723 C47.7191,85.723 51.8211,81.636 51.8211,76.598 C51.8211,81.636 55.9071,85.723 60.9461,85.723 C63.3541,85.723 65.5511,84.8 67.1751,83.26 Z" id="Stroke-52" stroke="#4D4D4D" stroke-width="2" stroke-linecap="round" stroke-linejoin="round"></path>
                <path d="M77.0794,21.7693 C77.0794,28.0493 72.8984,33.3893 67.0584,35.3693 C65.9894,35.7393 64.8694,35.9893 63.7094,36.1193 C63.3984,36.1393 63.0994,36.1693 62.7894,36.1893 C62.7284,36.1993 62.6884,36.1993 62.6294,36.1893 C62.4384,36.1993 62.2284,36.1993 62.0184,36.1993 C60.7284,36.1993 59.4994,36.0493 58.3084,35.7493 C56.0684,35.2093 53.8184,34.6293 51.5094,34.4393 C48.4784,34.1793 45.4294,34.1793 42.4094,34.4393 C40.0994,34.6293 37.8584,35.2093 35.6194,35.7493 C35.2994,35.8293 34.9694,35.8993 34.6394,35.9593 C33.7494,36.1193 32.8394,36.1993 31.9094,36.1993 C28.3694,36.1993 25.1084,35.0293 22.5394,33.0593 C22.4294,32.9793 22.3184,32.8893 22.2094,32.7993 C18.9384,30.1593 16.8584,26.1993 16.8584,21.7693 C16.8584,14.0993 23.0894,7.8293 30.9494,7.3493 C31.2684,7.3393 31.5894,7.3293 31.9094,7.3293 C35.2094,7.3293 38.2894,8.3493 40.7684,10.0993 C40.7894,10.1093 40.8084,10.1193 40.8394,10.1393 C42.1794,10.8393 43.2684,14.0893 44.1484,14.8593 C44.1594,14.8793 44.1794,14.8893 44.1884,14.8993 C44.7894,15.3793 45.4694,15.6793 46.1884,15.8093 C46.2394,15.8193 46.3084,15.8393 46.3794,15.8393 C46.6294,15.8793 46.8894,15.8893 47.1394,15.8693 C47.2394,15.8693 47.3394,15.8593 47.4494,15.8493 C47.5294,15.8493 47.6194,15.8393 47.6994,15.8193 C48.4294,15.6993 49.1394,15.3893 49.7594,14.8993 C50.6394,14.1893 51.7394,10.8393 53.1194,10.1193 C53.1294,10.1193 53.1594,10.1093 53.1694,10.0993 C55.6484,8.3493 58.7194,7.3293 62.0184,7.3293 C62.3494,7.3293 62.6794,7.3393 62.9994,7.3493 C70.8584,7.8393 77.0794,14.1093 77.0794,21.7693" id="Fill-54" fill="#A8A8A8"></path>
                <path d="M77.0794,21.7693 C77.0794,28.0493 72.8984,33.3893 67.0584,35.3693 C65.9894,35.7393 64.8694,35.9893 63.7094,36.1193 C63.3984,36.1393 63.0994,36.1693 62.7894,36.1893 C62.7284,36.1993 62.6884,36.1993 62.6294,36.1893 C62.4384,36.1993 62.2284,36.1993 62.0184,36.1993 C60.7284,36.1993 59.4994,36.0493 58.3084,35.7493 C56.0684,35.2093 53.8184,34.6293 51.5094,34.4393 C48.4784,34.1793 45.4294,34.1793 42.4094,34.4393 C40.0994,34.6293 37.8584,35.2093 35.6194,35.7493 C35.2994,35.8293 34.9694,35.8993 34.6394,35.9593 C33.7494,36.1193 32.8394,36.1993 31.9094,36.1993 C28.3694,36.1993 25.1084,35.0293 22.5394,33.0593 C22.4294,32.9793 22.3184,32.8893 22.2094,32.7993 C18.9384,30.1593 16.8584,26.1993 16.8584,21.7693 C16.8584,14.0993 23.0894,7.8293 30.9494,7.3493 C31.2684,7.3393 31.5894,7.3293 31.9094,7.3293 C35.2094,7.3293 38.2894,8.3493 40.7684,10.0993 C40.7894,10.1093 40.8084,10.1193 40.8394,10.1393 C42.1794,10.8393 43.2684,14.0893 44.1484,14.8593 C44.1594,14.8793 44.1794,14.8893 44.1884,14.8993 C44.7894,15.3793 45.4694,15.6793 46.1884,15.8093 C46.2394,15.8193 46.3084,15.8393 46.3794,15.8393 C46.6294,15.8793 46.8894,15.8893 47.1394,15.8693 C47.2394,15.8693 47.3394,15.8593 47.4494,15.8493 C47.5294,15.8493 47.6194,15.8393 47.6994,15.8193 C48.4294,15.6993 49.1394,15.3893 49.7594,14.8993 C50.6394,14.1893 51.7394,10.8393 53.1194,10.1193 C53.1294,10.1193 53.1594,10.1093 53.1694,10.0993 C55.6484,8.3493 58.7194,7.3293 62.0184,7.3293 C62.3494,7.3293 62.6794,7.3393 62.9994,7.3493 C70.8584,7.8393 77.0794,14.1093 77.0794,21.7693 Z" id="Stroke-56" stroke="#4D4D4D" stroke-width="2" stroke-linecap="round" stroke-linejoin="round"></path>
                <path d="M47.4496,13.2693 C47.0986,13.3193 46.7286,13.3193 46.3796,13.2593 C46.7286,13.2993 47.0986,13.2993 47.4496,13.2693 Z" id="Stroke-58" stroke="#4D4D4D" stroke-width="2" stroke-linecap="round" stroke-linejoin="round"></path>
                <path d="M51.2845,21.5461 C51.2845,23.9301 46.9675,31.2351 46.9675,31.2351 C46.9675,31.2351 42.6495,23.9301 42.6495,21.5461 C42.6495,19.1621 44.5825,17.2291 46.9675,17.2291 C49.3515,17.2291 51.2845,19.1621 51.2845,21.5461" id="Fill-60" fill="#1A1A1A"></path>
                <path d="M51.2845,21.5461 C51.2845,23.9301 46.9675,31.2351 46.9675,31.2351 C46.9675,31.2351 42.6495,23.9301 42.6495,21.5461 C42.6495,19.1621 44.5825,17.2291 46.9675,17.2291 C49.3515,17.2291 51.2845,19.1621 51.2845,21.5461 Z" id="Stroke-62" stroke="#4D4D4D" stroke-width="2" stroke-linecap="round" stroke-linejoin="round"></path>
                <path d="M53.1195,10.1189 C51.7395,10.8389 50.6395,14.1889 49.7595,14.8989 C49.1395,15.3889 48.4295,15.6989 47.6995,15.8189 C47.6195,15.8389 47.5295,15.8489 47.4495,15.8489 C47.3395,15.8589 47.2395,15.8689 47.1395,15.8689 C46.1595,15.4689 45.1595,15.1389 44.1485,14.8589 C43.2685,14.0889 42.1795,10.8389 40.8395,10.1389 C42.1995,10.8489 43.2995,11.6089 44.1885,12.3189 C44.7895,12.7989 45.4695,13.1089 46.1885,13.2289 C46.2395,13.2489 46.3085,13.2589 46.3795,13.2589 C46.7285,13.3189 47.0985,13.3189 47.4495,13.2689 C47.5295,13.2689 47.6195,13.2589 47.6995,13.2489 C48.4295,13.1189 49.1395,12.8089 49.7595,12.3189 C50.6395,11.6089 51.7395,10.8389 53.1195,10.1189" id="Fill-64" fill="#4D4D4D"></path>
                <path d="M53.1195,10.1189 C51.7395,10.8389 50.6395,14.1889 49.7595,14.8989 C49.1395,15.3889 48.4295,15.6989 47.6995,15.8189 C47.6195,15.8389 47.5295,15.8489 47.4495,15.8489 C47.3395,15.8589 47.2395,15.8689 47.1395,15.8689 C46.1595,15.4689 45.1595,15.1389 44.1485,14.8589 C43.2685,14.0889 42.1795,10.8389 40.8395,10.1389 C42.1995,10.8489 43.2995,11.6089 44.1885,12.3189 C44.7895,12.7989 45.4695,13.1089 46.1885,13.2289 C46.2395,13.2489 46.3085,13.2589 46.3795,13.2589 C46.7285,13.3189 47.0985,13.3189 47.4495,13.2689 C47.5295,13.2689 47.6195,13.2589 47.6995,13.2489 C48.4295,13.1189 49.1395,12.8089 49.7595,12.3189 C50.6395,11.6089 51.7395,10.8389 53.1195,10.1189 Z" id="Stroke-66" stroke="#4D4D4D" stroke-width="2" stroke-linecap="round" stroke-linejoin="round"></path>
                <path d="M81.1195,9.3093 C73.6885,7.2793 67.7095,6.8893 62.9995,7.3493 C62.6795,7.3393 62.3485,7.3293 62.0185,7.3293 C58.7195,7.3293 55.6485,8.3493 53.1695,10.0993 C53.1595,10.1093 53.1295,10.1193 53.1195,10.1193 C51.7395,10.8393 50.6395,11.6093 49.7595,12.3193 C49.1395,12.8093 48.4295,13.1193 47.6995,13.2493 C47.6195,13.2593 47.5295,13.2693 47.4495,13.2693 C47.0985,13.3193 46.7285,13.3193 46.3795,13.2593 C46.3085,13.2593 46.2395,13.2493 46.1885,13.2293 C45.4695,13.1093 44.7895,12.7993 44.1885,12.3193 C43.2995,11.6093 42.1995,10.8493 40.8395,10.1393 C40.8085,10.1193 40.7895,10.1093 40.7685,10.0993 C38.2895,8.3493 35.2095,7.3293 31.9095,7.3293 C31.5895,7.3293 31.2685,7.3393 30.9495,7.3493 C26.2285,6.8893 20.2495,7.2793 12.8185,9.3093 C12.8185,9.3093 22.6995,-5.7307 42.5895,3.1393 C45.3585,4.3893 48.5795,4.3893 51.3485,3.1393 C71.2395,-5.7307 81.1195,9.3093 81.1195,9.3093" id="Fill-68" fill="#7E7E7E"></path>
                <path d="M81.1195,9.3093 C73.6885,7.2793 67.7095,6.8893 62.9995,7.3493 C62.6795,7.3393 62.3485,7.3293 62.0185,7.3293 C58.7195,7.3293 55.6485,8.3493 53.1695,10.0993 C53.1595,10.1093 53.1295,10.1193 53.1195,10.1193 C51.7395,10.8393 50.6395,11.6093 49.7595,12.3193 C49.1395,12.8093 48.4295,13.1193 47.6995,13.2493 C47.6195,13.2593 47.5295,13.2693 47.4495,13.2693 C47.0985,13.3193 46.7285,13.3193 46.3795,13.2593 C46.3085,13.2593 46.2395,13.2493 46.1885,13.2293 C45.4695,13.1093 44.7895,12.7993 44.1885,12.3193 C43.2995,11.6093 42.1995,10.8493 40.8395,10.1393 C40.8085,10.1193 40.7895,10.1093 40.7685,10.0993 C38.2895,8.3493 35.2095,7.3293 31.9095,7.3293 C31.5895,7.3293 31.2685,7.3393 30.9495,7.3493 C26.2285,6.8893 20.2495,7.2793 12.8185,9.3093 C12.8185,9.3093 22.6995,-5.7307 42.5895,3.1393 C45.3585,4.3893 48.5795,4.3893 51.3485,3.1393 C71.2395,-5.7307 81.1195,9.3093 81.1195,9.3093 Z" id="Stroke-70" stroke="#4D4D4D" stroke-width="2" stroke-linecap="round" stroke-linejoin="round"></path>
                <path d="M37.0531,21.7619 C37.0531,25.7909 33.7861,29.0569 29.7581,29.0569 C25.7291,29.0569 22.4621,25.7909 22.4621,21.7619 C22.4621,17.7329 25.7291,14.4669 29.7581,14.4669 C33.7861,14.4669 37.0531,17.7329 37.0531,21.7619" id="Fill-72" fill="#FFFFFF"></path>
                <path d="M37.0531,21.7619 C37.0531,25.7909 33.7861,29.0569 29.7581,29.0569 C25.7291,29.0569 22.4621,25.7909 22.4621,21.7619 C22.4621,17.7329 25.7291,14.4669 29.7581,14.4669 C33.7861,14.4669 37.0531,17.7329 37.0531,21.7619 Z" id="Stroke-74" stroke="#4D4D4D" stroke-width="2" stroke-linecap="round" stroke-linejoin="round"></path>
                <path d="M71.4789,21.7619 C71.4789,25.7909 68.2129,29.0569 64.1839,29.0569 C60.1549,29.0569 56.8889,25.7909 56.8889,21.7619 C56.8889,17.7329 60.1549,14.4669 64.1839,14.4669 C68.2129,14.4669 71.4789,17.7329 71.4789,21.7619" id="Fill-76" fill="#FFFFFF"></path>
                <path d="M71.4789,21.7619 C71.4789,25.7909 68.2129,29.0569 64.1839,29.0569 C60.1549,29.0569 56.8889,25.7909 56.8889,21.7619 C56.8889,17.7329 60.1549,14.4669 64.1839,14.4669 C68.2129,14.4669 71.4789,17.7329 71.4789,21.7619 Z" id="Stroke-78" stroke="#4D4D4D" stroke-width="2" stroke-linecap="round" stroke-linejoin="round"></path>
                <path d="M68.0716,21.7619 C68.0716,23.9089 66.3306,25.6489 64.1836,25.6489 C62.0376,25.6489 60.2976,23.9089 60.2976,21.7619 C60.2976,19.6159 62.0376,17.8749 64.1836,17.8749 C66.3306,17.8749 68.0716,19.6159 68.0716,21.7619" id="Fill-80" fill="#4D4D4D"></path>
                <path d="M33.6449,21.7619 C33.6449,23.9089 31.9049,25.6489 29.7579,25.6489 C27.6109,25.6489 25.8709,23.9089 25.8709,21.7619 C25.8709,19.6159 27.6109,17.8749 29.7579,17.8749 C31.9049,17.8749 33.6449,19.6159 33.6449,21.7619" id="Fill-82" fill="#4D4D4D"></path>
                <path d="M45.5101,60.0188 C44.6681,64.0738 40.7001,66.6598 36.6651,65.8218 C32.6301,64.9838 30.0221,61.0328 30.8641,56.9778 C30.0221,61.0328 26.0741,63.6228 22.0391,62.7848 C17.9841,61.9418 15.3951,57.9958 16.2371,53.9398 C15.3951,57.9958 11.4281,60.5808 7.3921,59.7428 C3.3571,58.9048 0.7481,54.9548 1.5901,50.8988 C4.1081,38.7728 15.9911,30.9928 28.1171,33.5108 C40.2431,36.0288 48.0281,47.8928 45.5101,60.0188" id="Fill-84" fill="#A8A8A8"></path>
                <path d="M45.5101,60.0188 C44.6681,64.0738 40.7001,66.6598 36.6651,65.8218 C32.6301,64.9838 30.0221,61.0328 30.8641,56.9778 C30.0221,61.0328 26.0741,63.6228 22.0391,62.7848 C17.9841,61.9418 15.3951,57.9958 16.2371,53.9398 C15.3951,57.9958 11.4281,60.5808 7.3921,59.7428 C3.3571,58.9048 0.7481,54.9548 1.5901,50.8988 C4.1081,38.7728 15.9911,30.9928 28.1171,33.5108 C40.2431,36.0288 48.0281,47.8928 45.5101,60.0188 Z" id="Stroke-86" stroke="#4D4D4D" stroke-width="2" stroke-linecap="round" stroke-linejoin="round"></path>
                <path d="M45.5101,60.0188 C44.6031,64.3888 41.4881,72.9628 37.3231,82.0368 C36.6981,83.3648 36.0701,84.7128 35.3981,86.0728 C33.2441,88.7258 29.7371,90.0918 26.1741,89.3518 C21.0551,88.2898 17.7761,83.3168 18.8391,78.1988 C17.7761,83.3168 12.7671,86.5688 7.6691,85.5098 C4.1061,84.7698 1.4121,82.1168 0.4941,78.8248 C0.4181,77.3108 0.3771,75.8228 0.3331,74.3558 C0.1271,64.3738 0.6831,55.2688 1.5901,50.8988 C0.7481,54.9548 3.3571,58.9048 7.3921,59.7428 C11.4281,60.5808 15.3951,57.9958 16.2371,53.9398 C15.3951,57.9958 17.9841,61.9418 22.0391,62.7848 C26.0741,63.6228 30.0221,61.0328 30.8641,56.9778 C30.0221,61.0328 32.6301,64.9838 36.6651,65.8218 C40.7001,66.6598 44.6681,64.0738 45.5101,60.0188" id="Fill-88" fill="#8D8D8D"></path>
                <path d="M45.5101,60.0188 C44.6031,64.3888 41.4881,72.9628 37.3231,82.0368 C36.6981,83.3648 36.0701,84.7128 35.3981,86.0728 C33.2441,88.7258 29.7371,90.0918 26.1741,89.3518 C21.0551,88.2898 17.7761,83.3168 18.8391,78.1988 C17.7761,83.3168 12.7671,86.5688 7.6691,85.5098 C4.1061,84.7698 1.4121,82.1168 0.4941,78.8248 C0.4181,77.3108 0.3771,75.8228 0.3331,74.3558 C0.1271,64.3738 0.6831,55.2688 1.5901,50.8988 C0.7481,54.9548 3.3571,58.9048 7.3921,59.7428 C11.4281,60.5808 15.3951,57.9958 16.2371,53.9398 C15.3951,57.9958 17.9841,61.9418 22.0391,62.7848 C26.0741,63.6228 30.0221,61.0328 30.8641,56.9778 C30.0221,61.0328 32.6301,64.9838 36.6651,65.8218 C40.7001,66.6598 44.6681,64.0738 45.5101,60.0188 Z" id="Stroke-90" stroke="#4D4D4D" stroke-width="2" stroke-linecap="round" stroke-linejoin="round"></path>
                <path d="M11.3548,114.2439 C4.2278,112.7639 1.2448,95.3879 0.4948,78.8249 C1.4128,82.1169 4.1058,84.7699 7.6688,85.5099 L11.3548,114.2439 Z" id="Fill-92" fill="#4D4D4D"></path>
                <path d="M11.3548,114.2439 C4.2278,112.7639 1.2448,95.3879 0.4948,78.8249 C1.4128,82.1169 4.1058,84.7699 7.6688,85.5099 L11.3548,114.2439 Z" id="Stroke-94" stroke="#4D4D4D" stroke-width="2" stroke-linecap="round" stroke-linejoin="round"></path>
                <path d="M18.8392,78.1985 L11.3552,114.2435 L7.6692,85.5105 C12.7672,86.5685 17.7762,83.3175 18.8392,78.1985" id="Fill-96" fill="#545454"></path>
                <path d="M18.8392,78.1985 L11.3552,114.2435 L7.6692,85.5105 C12.7672,86.5685 17.7762,83.3175 18.8392,78.1985 Z" id="Stroke-98" stroke="#4D4D4D" stroke-width="2" stroke-linecap="round" stroke-linejoin="round"></path>
                <path d="M35.3978,86.0725 C28.1348,100.9715 18.4798,115.7235 11.3548,114.2435 L26.1738,89.3525 C29.7368,90.0925 33.2448,88.7255 35.3978,86.0725" id="Fill-100" fill="#767676"></path>
                <path d="M35.3978,86.0725 C28.1348,100.9715 18.4798,115.7235 11.3548,114.2435 L26.1738,89.3525 C29.7368,90.0925 33.2448,88.7255 35.3978,86.0725 Z" id="Stroke-102" stroke="#4D4D4D" stroke-width="2" stroke-linecap="round" stroke-linejoin="round"></path>
                <path d="M26.1742,89.3523 L11.3552,114.2443 L18.8392,78.1983 C17.7762,83.3173 21.0552,88.2893 26.1742,89.3523" id="Fill-104" fill="#646464"></path>
                <path d="M26.1742,89.3523 L11.3552,114.2443 L18.8392,78.1983 C17.7762,83.3173 21.0552,88.2893 26.1742,89.3523 Z" id="Stroke-106" stroke="#4D4D4D" stroke-width="2" stroke-linecap="round" stroke-linejoin="round"></path>
                <path d="M42.7699,105.3791 C42.7699,107.7631 38.4529,110.8691 38.4529,110.8691 C38.4529,110.8691 34.1349,107.7631 34.1349,105.3791 C34.1349,102.9941 36.0689,101.0621 38.4529,101.0621 C40.8369,101.0621 42.7699,102.9941 42.7699,105.3791" id="Fill-108" fill="#1A1A1A"></path>
                <path d="M42.7699,105.3791 C42.7699,107.7631 38.4529,110.8691 38.4529,110.8691 C38.4529,110.8691 34.1349,107.7631 34.1349,105.3791 C34.1349,102.9941 36.0689,101.0621 38.4529,101.0621 C40.8369,101.0621 42.7699,102.9941 42.7699,105.3791 Z" id="Stroke-110" stroke="#4D4D4D" stroke-width="2" stroke-linecap="round" stroke-linejoin="round"></path>
                <path d="M54.2874,105.3791 C54.2874,107.7631 49.9714,110.8691 49.9714,110.8691 C49.9714,110.8691 45.6534,107.7631 45.6534,105.3791 C45.6534,102.9941 47.5864,101.0621 49.9714,101.0621 C52.3544,101.0621 54.2874,102.9941 54.2874,105.3791" id="Fill-112" fill="#1A1A1A"></path>
                <path d="M54.2874,105.3791 C54.2874,107.7631 49.9714,110.8691 49.9714,110.8691 C49.9714,110.8691 45.6534,107.7631 45.6534,105.3791 C45.6534,102.9941 47.5864,101.0621 49.9714,101.0621 C52.3544,101.0621 54.2874,102.9941 54.2874,105.3791 Z" id="Stroke-114" stroke="#4D4D4D" stroke-width="2" stroke-linecap="round" stroke-linejoin="round"></path>
            </g>
        </g>
    </g>
</svg>