<?xml version="1.0" encoding="UTF-8"?>
<svg width="190px" height="66px" viewBox="0 0 190 66" version="1.1" xmlns="http://www.w3.org/2000/svg" xmlns:xlink="http://www.w3.org/1999/xlink">
    <!-- Generator: Sketch 51 (57462) - http://www.bohemiancoding.com/sketch -->
    <title>Page 1</title>
    <desc>Created with Sketch.</desc>
    <defs>
        <polygon id="path-1" points="0 0.491795642 48.7544633 0.491795642 48.7544633 50.35 0 50.35"></polygon>
    </defs>
    <g id="1.-Nav-+-Homepage-V3-+-V4" stroke="none" stroke-width="1" fill="none" fill-rule="evenodd">
        <g id="1.-NaNo-Homepage-V4" transform="translate(-80.000000, -4460.000000)">
            <rect x="0" y="0" width="1440" height="4764"></rect>
            <g id="footer" transform="translate(0.000000, 4426.000000)">
                <g id="Page-1" transform="translate(80.000000, 35.000000)">
                    <g id="Group-3" transform="translate(0.000000, 14.487500)">
                        <mask id="mask-2" fill="white">
                            <use xlink:href="#path-1"></use>
                        </mask>
                        <g id="Clip-2"></g>
                        <path d="M16.76218,2.59293 C16.50283,2.60053 16.24063,2.61003 15.96703,2.61003 C13.42388,2.61003 11.33293,2.11793 9.88513,1.62678 C9.16218,1.38358 8.59693,1.13848 8.22548,0.96463 C8.04023,0.87343 7.90058,0.79838 7.81318,0.75088 C7.76758,0.72618 7.73718,0.70813 7.71628,0.69578 L7.69823,0.68628 C7.18998,0.38608 6.48888,0.43643 6.06328,0.81643 L0.32433,5.89228 C-0.04902,6.22383 -0.10507,6.70738 0.18183,7.08738 C0.18183,7.08738 0.21603,7.13488 0.29583,7.25078 C0.87058,8.07253 3.27028,11.87633 3.26458,16.60353 C3.27693,18.39428 2.84753,22.14298 2.15878,23.67818 C1.40353,25.44043 0.47823,29.35158 0.46588,32.76778 C0.46588,33.23518 0.48678,33.69593 0.52573,34.13673 C0.82308,37.04563 2.73733,41.48878 6.64848,44.19058 C8.42973,45.40373 9.95068,46.02503 11.33673,46.37653 C12.72468,46.73278 13.89983,46.82588 15.08448,47.06718 C17.11748,47.47188 19.11533,48.01338 20.66098,48.56343 C21.43523,48.83893 22.09073,49.11728 22.56478,49.36428 C23.04073,49.60463 23.32193,49.84688 23.33143,49.87443 C23.55373,50.16988 23.94798,50.35038 24.37643,50.35038 L24.38308,50.35038 C24.80773,50.35038 25.20483,50.16703 25.42618,49.87443 C25.43473,49.84688 25.71498,49.60463 26.18808,49.36428 C27.62733,48.60523 30.63028,47.67043 33.66933,47.06718 C34.85778,46.82588 36.02913,46.73278 37.41803,46.37653 C38.80598,46.02503 40.32883,45.40373 42.10533,44.19058 C46.02028,41.48878 47.93263,37.04563 48.22713,34.13673 C48.26988,33.69593 48.28793,33.23518 48.28793,32.76398 C48.27653,29.34683 47.35313,25.44043 46.60168,23.67818 C45.91008,22.14298 45.48258,18.39428 45.49303,16.60353 C45.49303,13.90268 46.27203,11.50298 47.04913,9.78728 C47.43673,8.93323 47.82908,8.24733 48.11598,7.77803 C48.25943,7.54528 48.37723,7.36953 48.45893,7.25078 C48.54253,7.13488 48.57768,7.08738 48.57388,7.08738 C48.85793,6.70738 48.80473,6.22383 48.42948,5.89228 L42.69433,0.81643 C42.26683,0.43643 41.56383,0.38608 41.05748,0.68628 L41.04133,0.69578 C40.75253,0.86583 37.55293,2.61383 32.78963,2.61003 C32.51318,2.61003 32.25098,2.60053 31.99068,2.59293 L16.76218,2.59293 Z" id="Fill-1" fill="#542F1A" mask="url(#mask-2)"></path>
                    </g>
                    <path d="M31.906985,19.0741 C32.195785,19.0817 32.486485,19.0893 32.789535,19.0893 C36.996135,19.08645 40.105485,17.936 41.574185,17.25865 L46.027785,21.2021 C45.095835,22.66985 43.047635,26.4043 43.038135,31.09065 C43.052385,33.1132 43.408635,36.77355 44.285485,38.8284 C44.903935,40.2325 45.844435,44.15505 45.833035,47.25205 C45.833035,47.67765 45.815935,48.09185 45.781735,48.4766 C45.588885,50.8421 43.715485,55.03065 40.533935,57.1501 C38.941735,58.2236 37.778935,58.68055 36.679785,58.9646 C35.586335,59.24865 34.474835,59.3427 33.085935,59.6182 C30.924685,60.05045 28.817585,60.61855 27.106635,61.2275 C26.254485,61.53435 25.494485,61.8488 24.861785,62.17845 C24.692685,62.2649 24.530235,62.35705 24.379185,62.44825 C24.225285,62.35705 24.061885,62.2649 23.891835,62.17845 C22.013685,61.2047 18.921435,60.27655 15.671485,59.6182 C14.284485,59.3427 13.172985,59.24865 12.074785,58.9646 C10.978485,58.68055 9.818535,58.2236 8.225385,57.1501 C5.040035,55.03065 3.164735,50.8421 2.973785,48.47565 C2.940535,48.09185 2.923435,47.67765 2.923435,47.25585 C2.912035,44.15885 3.849685,40.2325 4.474785,38.8322 C5.349735,36.77355 5.705985,33.1132 5.720235,31.09065 C5.708835,26.4024 3.661585,22.66985 2.728685,21.2021 L7.181335,17.25865 C8.652885,17.936 11.761285,19.08645 15.966935,19.0893 C16.269035,19.0893 16.558785,19.0817 16.846635,19.0741 L31.906985,19.0741 Z" id="Fill-4" fill="#A3DBE6"></path>
                    <path d="M24.07091,22.2813 L24.07091,39.5884 L6.82556,39.5884 C6.65551,39.5884 6.51966,39.7233 6.51966,39.89525 C6.51966,40.0596 6.65551,40.19735 6.82556,40.19735 L24.07091,40.19735 L24.07091,59.38545 C24.07091,59.5574 24.20961,59.6885 24.37871,59.6885 C24.54591,59.6885 24.68461,59.5574 24.68461,59.38545 L24.68461,40.19735 L41.93281,40.19735 C42.10001,40.19735 42.23586,40.0596 42.23586,39.89525 C42.23586,39.7233 42.10001,39.5884 41.93281,39.5884 L24.68461,39.5884 L24.68461,22.28415 L24.07091,22.2813 Z" id="Fill-6" fill="#542F1A"></path>
                    <path d="M14.88631,26.007105 C14.77136,25.917805 14.74856,25.750605 14.84166,25.635655 C15.04116,25.369655 15.13996,25.083705 15.13996,24.799655 C15.13996,24.510855 15.04116,24.221105 14.86256,23.984555 L14.83881,23.961755 C14.56711,23.612155 14.42746,23.202705 14.42936,22.797055 C14.42746,22.386655 14.56711,21.977205 14.84166,21.629505 C14.93001,21.513605 15.09911,21.491755 15.21501,21.583905 C15.32996,21.674155 15.35371,21.842305 15.26251,21.961055 C15.05826,22.216605 14.96326,22.508255 14.96326,22.797055 C14.96326,23.081105 15.05826,23.368005 15.24256,23.608355 L15.26251,23.637805 C15.53421,23.983605 15.67576,24.389255 15.67576,24.799655 C15.67576,25.207205 15.53706,25.610955 15.26251,25.961505 L15.26726,25.961505 C15.21121,26.028005 15.13046,26.065055 15.05161,26.065055 C14.99556,26.065055 14.93571,26.047005 14.88631,26.007105" id="Fill-8" fill="#542F1A"></path>
                    <path d="M13.593455,26.007105 C13.478505,25.919705 13.453805,25.747755 13.547855,25.633755 C13.747355,25.369655 13.844255,25.081805 13.844255,24.799655 C13.844255,24.508955 13.747355,24.223005 13.568755,23.987405 L13.545955,23.961755 C13.273305,23.612155 13.132705,23.202705 13.134605,22.795155 C13.132705,22.386655 13.273305,21.977205 13.547855,21.631405 C13.637155,21.515505 13.806255,21.491755 13.920255,21.583905 C14.036155,21.679855 14.059905,21.839455 13.968705,21.961055 C13.765405,22.220405 13.670405,22.508255 13.670405,22.795155 C13.670405,23.081105 13.765405,23.369905 13.948755,23.603605 L13.968705,23.637805 C14.241355,23.983605 14.384805,24.384505 14.379105,24.799655 C14.384805,25.203405 14.242305,25.615705 13.968705,25.964355 L13.971555,25.964355 C13.917405,26.028005 13.836655,26.065055 13.755905,26.065055 C13.702705,26.065055 13.642855,26.047005 13.593455,26.007105" id="Fill-10" fill="#542F1A"></path>
                    <path d="M12.30345,26.013565 C12.1847,25.919515 12.1619,25.751365 12.25215,25.633565 C12.45355,25.369465 12.5514,25.083515 12.5514,24.795665 C12.5514,24.509715 12.45355,24.220915 12.34525,24.041365 L12.2512,23.961565 C11.98045,23.612915 11.8389,23.201565 11.8408,22.796865 C11.8389,22.391215 11.98045,21.977015 12.25215,21.629315 C12.34525,21.513415 12.51245,21.494415 12.6274,21.583715 C12.7433,21.679665 12.76705,21.842115 12.6768,21.960865 C12.47065,22.216415 12.37755,22.505215 12.37755,22.796865 C12.37755,23.080915 12.47065,23.369715 12.5837,23.558765 L12.6787,23.633815 C12.94945,23.983415 13.08815,24.390015 13.08815,24.795665 C13.08815,25.203215 12.94945,25.616465 12.6787,25.961315 L12.6787,25.964165 C12.62455,26.032565 12.54665,26.064865 12.4659,26.064865 C12.41175,26.064865 12.3519,26.047765 12.30345,26.013565" id="Fill-12" fill="#542F1A"></path>
                    <path d="M40.300615,36.253425 C40.300615,36.460525 40.000415,36.633425 39.628965,36.633425 L28.345815,36.633425 C27.973415,36.633425 27.667515,36.460525 27.667515,36.253425 L27.667515,36.964025 C27.667515,37.175875 27.973415,37.343075 28.345815,37.343075 L39.628965,37.343075 C40.000415,37.343075 40.300615,37.175875 40.300615,36.964025 L40.300615,36.253425 Z" id="Fill-14" fill="#542F1A"></path>
                    <path d="M39.14095,32.37733 C39.14095,32.17023 38.8968,32.00018 38.59185,32.00018 L29.3835,32.00018 C29.07475,32.00018 28.8306,32.17023 28.8306,32.37733 L27.66685,36.01013 C27.66685,36.22198 27.9737,36.39108 28.3461,36.39108 L39.62925,36.39108 C40.0007,36.39108 40.3009,36.22198 40.3009,36.01013 L39.14095,32.37733 Z" id="Fill-16" fill="#542F1A"></path>
                    <polygon id="Fill-18" fill="#FFFFFF" points="38.716585 33.80328 38.891385 34.43503 36.833685 34.43503 36.751985 33.80328"></polygon>
                    <polygon id="Fill-20" fill="#FFFFFF" points="38.41363 32.66499 38.58653 33.30054 37.58238 33.30054 37.46838 32.66499"></polygon>
                    <polygon id="Fill-22" fill="#FFFFFF" points="35.784885 32.66499 35.846635 33.30339 35.158835 33.30339 35.136985 32.66499"></polygon>
                    <polygon id="Fill-24" fill="#FFFFFF" points="35.00142 34.43503 34.23477 34.43503 34.24902 33.79948 34.97007 33.79948"></polygon>
                    <polygon id="Fill-26" fill="#FFFFFF" points="33.975325 32.66499 34.619425 32.66499 34.632725 33.30339 33.947775 33.30339"></polygon>
                    <polygon id="Fill-28" fill="#FFFFFF" points="32.80825 32.662615 33.45805 32.662615 33.42575 33.301015 32.7313 33.301015"></polygon>
                    <polygon id="Fill-30" fill="#FFFFFF" points="33.723005 33.80328 33.699255 34.43503 32.933555 34.43503 32.997205 33.80328"></polygon>
                    <polygon id="Fill-32" fill="#FFFFFF" points="31.65096 32.66499 32.29221 32.66499 32.20861 33.30339 31.52556 33.30339"></polygon>
                    <polygon id="Fill-34" fill="#FFFFFF" points="32.47062 33.799575 32.40032 34.435125 31.63557 34.435125 31.74957 33.799575"></polygon>
                    <polygon id="Fill-36" fill="#FFFFFF" points="30.48797 32.662615 31.12637 32.662615 30.99527 33.301015 30.31317 33.301015"></polygon>
                    <polygon id="Fill-38" fill="#FFFFFF" points="31.22042 33.80328 31.09787 34.43503 30.34072 34.43503 30.50127 33.80328"></polygon>
                    <polygon id="Fill-40" fill="#FFFFFF" points="29.617295 32.66499 29.959295 32.66499 29.781645 33.30339 29.408295 33.30339"></polygon>
                    <polygon id="Fill-42" fill="#FFFFFF" points="29.25829 33.80328 29.96224 33.80328 29.79694 34.43503 29.04644 34.43503"></polygon>
                    <polygon id="Fill-44" fill="#FFFFFF" points="29.117785 35.631365 28.637085 35.631365 28.844185 34.992965 29.299235 34.992965"></polygon>
                    <polygon id="Fill-46" fill="#FFFFFF" points="30.512575 35.631365 29.679425 35.631365 29.853275 34.992965 30.644625 34.992965"></polygon>
                    <polygon id="Fill-48" fill="#FFFFFF" points="31.065095 35.631365 31.187645 34.992965 36.015545 34.992965 36.078245 35.631365"></polygon>
                    <polygon id="Fill-50" fill="#FFFFFF" points="35.531615 34.43503 35.498365 33.79948 36.218465 33.79948 36.294465 34.43503"></polygon>
                    <polygon id="Fill-52" fill="#FFFFFF" points="36.303015 32.66499 36.947115 32.66499 37.058265 33.30054 36.368565 33.30054"></polygon>
                    <polygon id="Fill-54" fill="#FFFFFF" points="36.62725 35.631365 36.55695 34.992965 37.35305 34.992965 37.468 35.631365"></polygon>
                    <polygon id="Fill-56" fill="#FFFFFF" points="38.01748 35.631365 37.89873 34.992965 39.04443 34.992965 39.21923 35.631365"></polygon>
                    <path d="M37.751195,23.78002 L30.224345,23.78002 C29.570745,23.78002 29.041595,24.30632 29.041595,24.95897 L29.041595,30.53547 C29.041595,31.18527 29.568845,31.71537 30.224345,31.71537 L37.751195,31.71537 C38.400045,31.71537 38.927295,31.18527 38.927295,30.53547 L38.930145,30.53547 L38.930145,24.95897 C38.927295,24.30632 38.400045,23.78002 37.751195,23.78002" id="Fill-58" fill="#542F1A"></path>
                    <path d="M38.20444,30.535375 C38.20444,30.780475 37.99734,30.984725 37.75129,30.984725 L30.22444,30.984725 C29.97079,30.984725 29.77034,30.780475 29.77034,30.535375 L29.77034,24.958875 C29.77034,24.709975 29.97079,24.509525 30.22444,24.509525 L37.75129,24.509525 C37.99734,24.509525 38.20444,24.709975 38.20444,24.958875 L38.20444,30.535375 Z" id="Fill-60" fill="#FFFFFF"></path>
                    <path d="M30.67588,25.74728 C30.52673,25.74728 30.40798,25.63328 30.40798,25.48508 C30.40798,25.33403 30.52673,25.21623 30.67588,25.21623 L37.28313,25.21623 C37.43133,25.21623 37.55293,25.33403 37.55293,25.48508 C37.55293,25.63328 37.43133,25.74728 37.28313,25.74728 L30.67588,25.74728 Z" id="Fill-62" fill="#542F1A"></path>
                    <path d="M30.677685,26.887945 C30.526635,26.887945 30.407885,26.769195 30.407885,26.619095 C30.407885,26.469945 30.526635,26.350245 30.677685,26.350245 L35.048635,26.350245 C35.198735,26.350245 35.318435,26.469945 35.318435,26.619095 C35.318435,26.769195 35.198735,26.887945 35.048635,26.887945 L30.677685,26.887945 Z" id="Fill-64" fill="#542F1A"></path>
                    <path d="M30.67588,28.02443 C30.52673,28.02443 30.40798,27.90568 30.40798,27.76128 C30.40798,27.61023 30.52673,27.49243 30.67588,27.49243 L36.30653,27.49243 C36.45188,27.49243 36.56968,27.61023 36.56968,27.76128 C36.56968,27.90568 36.45188,28.02443 36.30653,28.02443 L30.67588,28.02443 Z" id="Fill-66" fill="#542F1A"></path>
                    <path d="M30.67588,29.16785 C30.52673,29.16785 30.40798,29.04815 30.40798,28.899 C30.40798,28.7527 30.52673,28.63205 30.67588,28.63205 L34.07023,28.63205 C34.22033,28.63205 34.33813,28.7527 34.33813,28.899 C34.33813,29.04815 34.22033,29.16785 34.07023,29.16785 L30.67588,29.16785 Z" id="Fill-68" fill="#542F1A"></path>
                    <path d="M30.677685,30.303385 C30.526635,30.303385 30.407885,30.181785 30.407885,30.034535 C30.407885,29.887285 30.526635,29.768535 30.677685,29.768535 L36.125935,29.768535 C36.275085,29.768535 36.392885,29.887285 36.392885,30.034535 C36.392885,30.181785 36.275085,30.303385 36.125935,30.303385 L30.677685,30.303385 Z" id="Fill-70" fill="#542F1A"></path>
                    <path d="M18.029005,31.6597 C18.095505,31.64925 18.165805,31.63975 18.237055,31.63975 C18.884005,31.63975 19.398905,32.1461 19.398905,32.76835 C19.398905,33.39155 18.882105,33.90265 18.237055,33.90265 C18.165805,33.90265 18.095505,33.89315 18.029005,33.8808 L18.029005,31.6597 Z M18.237055,29.80625 C18.167705,29.80625 18.097405,29.811 18.029005,29.8167 L18.029005,28.6349 C17.910255,27.36665 16.025455,26.81185 13.824305,26.7691 C11.624105,26.81185 9.736455,27.36665 9.617705,28.6349 L9.617705,36.4135 C9.736455,37.6827 11.624105,38.2394 13.824305,38.2831 C16.025455,38.2394 17.910255,37.6827 18.029005,36.4135 L18.029005,35.72475 C18.097405,35.7295 18.167705,35.7352 18.237055,35.7352 C19.900505,35.73235 21.255205,34.40995 21.255205,32.76835 C21.255205,31.1296 19.900505,29.81005 18.237055,29.80625 Z" id="Fill-72" fill="#542F1A"></path>
                    <path d="M11.16421,27.79016 C11.82161,27.52131 12.77351,27.34841 13.82421,27.34841 C14.87491,27.34841 15.82396,27.52131 16.48706,27.79016 C17.16346,28.05521 17.47126,28.41716 17.44846,28.63566 C17.45036,28.65656 17.44656,28.68126 17.44181,28.70406 C17.43991,28.71736 17.43706,28.72876 17.43516,28.74016 C17.42851,28.76296 17.41996,28.78576 17.40761,28.80856 C17.40381,28.81711 17.40001,28.82566 17.39621,28.83326 C17.38006,28.86081 17.36201,28.88741 17.34016,28.91876 C17.33636,28.92541 17.33161,28.93016 17.32591,28.93681 C17.30121,28.96531 17.27366,28.99856 17.24136,29.02896 C17.23471,29.03561 17.22996,29.04131 17.22236,29.04796 C17.19101,29.07741 17.15301,29.10971 17.11311,29.13821 C17.10456,29.14581 17.09601,29.15436 17.08746,29.16101 C17.04756,29.19141 17.00196,29.21896 16.95541,29.24841 C16.94306,29.25696 16.93166,29.26456 16.91836,29.27406 C16.86991,29.30256 16.81576,29.33106 16.76161,29.36051 C16.74641,29.36811 16.73311,29.37381 16.71791,29.38236 C16.78916,29.34721 16.85471,29.31301 16.91456,29.27501 C16.36261,28.74966 15.17606,28.59766 13.82421,28.54826 C12.47331,28.60051 11.28771,28.75156 10.73481,29.27501 C10.65311,29.22846 10.58471,29.17716 10.52106,29.12871 C10.50966,29.11921 10.49826,29.10971 10.48686,29.10021 C10.43936,29.06031 10.39756,29.01946 10.36146,28.98051 C10.35291,28.97101 10.34246,28.96056 10.33391,28.95201 C10.29496,28.90546 10.26361,28.86081 10.24081,28.81711 C10.23796,28.81046 10.23701,28.80666 10.23416,28.80191 C10.21611,28.76486 10.20661,28.73161 10.20186,28.69836 C10.19806,28.67746 10.19426,28.65466 10.19616,28.63566 C10.17526,28.41716 10.48496,28.05521 11.16421,27.79016" id="Fill-74" fill="#FFFFFF"></path>
                    <path d="M16.48706,37.261375 C15.82396,37.527375 14.87491,37.706925 13.82421,37.706925 C12.77351,37.706925 11.82161,37.527375 11.16421,37.261375 C10.48496,36.995375 10.17526,36.634375 10.19616,36.413975 L10.19616,29.614825 C10.19711,29.616725 10.19901,29.616725 10.20186,29.618625 C10.28261,29.682275 10.37381,29.741175 10.47071,29.799125 C10.50111,29.815275 10.53246,29.831425 10.56381,29.847575 C10.64076,29.889375 10.71961,29.928325 10.80226,29.965375 C10.83456,29.978675 10.86591,29.995775 10.89821,30.008125 C11.01221,30.056575 11.13096,30.098375 11.25636,30.139225 C11.28106,30.146825 11.30671,30.153475 11.33046,30.160125 C11.43781,30.195275 11.54706,30.223775 11.66106,30.250375 C11.70286,30.261775 11.74466,30.270325 11.78741,30.280775 C11.90236,30.307375 12.02111,30.328275 12.14271,30.350125 C12.17026,30.354875 12.19781,30.362475 12.22726,30.367225 C12.37546,30.391925 12.52936,30.410925 12.68706,30.430875 C12.72601,30.433725 12.76496,30.438475 12.80391,30.443225 C12.92836,30.454625 13.05661,30.466025 13.18581,30.475525 C13.23046,30.478375 13.27606,30.481225 13.32166,30.485025 C13.48696,30.493575 13.65321,30.502125 13.82421,30.506875 C13.99426,30.502125 14.15956,30.493575 14.32486,30.485025 C14.37331,30.481225 14.42081,30.478375 14.46831,30.474575 C14.59181,30.466025 14.71341,30.454625 14.83311,30.443225 C14.87871,30.438475 14.92336,30.433725 14.96801,30.429925 C15.12001,30.410925 15.26916,30.391925 15.41261,30.369125 C15.45536,30.362475 15.49526,30.351075 15.53611,30.344425 C15.64061,30.327325 15.74416,30.307375 15.84486,30.284575 C15.89711,30.272225 15.95031,30.258925 16.00256,30.247525 C16.09756,30.222825 16.19066,30.198125 16.28186,30.169625 C16.31986,30.159175 16.36071,30.147775 16.40061,30.135425 C16.52031,30.096475 16.63241,30.056575 16.74166,30.010975 C16.77966,29.995775 16.81576,29.976775 16.85376,29.960625 C16.93166,29.925475 17.00861,29.888425 17.08081,29.848525 C17.11216,29.832375 17.14446,29.816225 17.17391,29.799125 C17.27176,29.740225 17.36486,29.681325 17.44846,29.615775 L17.44846,36.413975 C17.47126,36.634375 17.16346,36.995375 16.48706,37.261375" id="Fill-76" fill="#FFFFFF"></path>
                    <path d="M18.237245,35.202345 C18.165995,35.202345 18.098545,35.188095 18.029195,35.182395 L18.029195,34.414795 C18.097595,34.422395 18.165995,34.434745 18.237245,34.434745 C19.169195,34.432845 19.927295,33.693745 19.930145,32.768445 C19.927295,31.845045 19.169195,31.107845 18.237245,31.105945 C18.165995,31.105945 18.097595,31.119245 18.029195,31.126845 L18.029195,30.357345 C18.098545,30.351645 18.165995,30.337395 18.237245,30.337395 C19.614745,30.337395 20.720545,31.427045 20.720545,32.768445 C20.720545,34.108895 19.614745,35.202345 18.237245,35.202345" id="Fill-78" fill="#FFFFFF"></path>
                    <path d="M19.972135,44.109925 C20.108935,43.933225 20.163085,43.760325 20.163085,43.608325 C20.148835,43.341375 20.029135,43.213125 19.994935,43.190325 L19.822985,43.013625 C19.803035,42.994625 19.653885,42.843575 19.390735,42.842625 C19.241585,42.842625 19.069635,42.896775 18.893885,43.033575 C18.465435,43.374625 16.966335,44.550725 14.320585,47.198375 C11.671035,49.846025 9.024335,52.665625 8.223485,54.330025 L8.215885,54.365175 C8.218735,54.382275 8.231085,54.401275 8.239635,54.418375 L8.213035,54.461125 L7.963185,54.852525 C7.963185,54.852525 7.947035,54.891475 7.943235,54.936125 C7.943235,54.953225 7.947035,54.983625 7.978385,55.021625 L8.038235,55.049175 L8.156035,55.033975 L8.542685,54.791725 L8.591135,54.755625 C8.629135,54.770825 8.666185,54.787925 8.703235,54.791725 L8.743135,54.783175 C10.339135,53.979475 13.155885,51.332775 15.810185,48.686075 C17.194335,47.300975 18.175685,46.231275 18.846385,45.463675 C18.935685,45.600475 18.968935,45.896875 18.892935,46.021325 C18.017035,47.473875 17.265585,47.900425 17.265585,47.900425 C17.265585,47.900425 17.078435,47.965975 16.979635,47.943175 C16.881785,47.923225 16.833335,48.020125 16.711735,48.147425 C16.591085,48.273775 16.523635,48.522675 16.612935,48.611025 C16.826685,48.815275 18.229835,47.347525 18.229835,47.347525 C19.549385,45.970025 19.590235,44.586825 19.590235,44.586825 L19.972135,44.109925 Z" id="Fill-80" fill="#542F1A"></path>
                    <path d="M8.029875,44.586825 C8.029875,44.586825 8.069775,45.970025 9.389325,47.347525 C9.389325,47.347525 10.793425,48.815275 11.006225,48.611025 C11.096475,48.522675 11.027125,48.273775 10.906475,48.147425 C10.785825,48.020125 10.738325,47.923225 10.640475,47.943175 C10.540725,47.965975 10.354525,47.900425 10.354525,47.900425 C10.354525,47.900425 9.603075,47.473875 8.725275,46.021325 C8.651175,45.896875 8.683475,45.600475 8.772775,45.463675 C9.444425,46.231275 10.424825,47.300975 11.809925,48.686075 C14.462325,51.332775 17.280025,53.979475 18.876975,54.783175 L18.916875,54.791725 C18.952025,54.787925 18.990975,54.770825 19.029925,54.755625 L19.076475,54.791725 L19.464075,55.033975 L19.580925,55.049175 L19.640775,55.021625 C19.672125,54.983625 19.674975,54.953225 19.674975,54.936125 C19.672125,54.891475 19.656925,54.852525 19.656925,54.852525 L19.408025,54.461125 L19.381425,54.418375 C19.388075,54.401275 19.399475,54.383225 19.404225,54.365175 L19.395675,54.330025 C18.594825,52.665625 15.948125,49.846025 13.298575,47.199325 C10.652825,44.550725 9.154675,43.374625 8.724325,43.033575 C8.549525,42.896775 8.376625,42.842625 8.227475,42.842625 C7.965275,42.843575 7.816125,42.994625 7.798075,43.013625 L7.623275,43.190325 C7.590025,43.213125 7.470325,43.341375 7.456075,43.608325 C7.456075,43.760325 7.511175,43.934175 7.647975,44.109925 L8.029875,44.586825 Z" id="Fill-82" fill="#542F1A"></path>
                    <path d="M40.46487,43.490715 C40.41832,43.429915 40.34422,43.401415 40.27012,43.414715 L38.07087,43.828915 C38.65037,42.859915 38.84227,41.818715 38.85272,41.813965 C38.86602,41.748415 38.84607,41.680015 38.79857,41.633465 C38.75392,41.585965 38.68552,41.566965 38.62187,41.577415 L33.49662,42.542615 C33.39497,42.561615 33.32372,42.659465 33.33607,42.761115 C33.33607,42.761115 33.35697,42.932115 33.35697,43.201915 C33.35412,43.433715 33.33322,43.725365 33.28097,44.029365 L28.65067,44.902415 C28.58987,44.910965 28.53667,44.954665 28.51007,45.008815 C28.48157,45.063915 28.48157,45.129465 28.50817,45.183615 C28.51292,45.198815 28.66492,45.496165 29.01927,45.801115 L28.61077,45.876165 C28.53952,45.891365 28.48157,45.940765 28.45972,46.010115 C28.43597,46.079465 28.45117,46.152615 28.50057,46.206765 C28.50627,46.214365 28.66492,46.387265 28.95847,46.601965 L28.42362,46.702665 C28.42077,46.704565 28.41887,46.705515 28.41602,46.705515 C28.38562,46.713115 28.35427,46.727365 28.32957,46.747315 C28.32672,46.750165 28.32482,46.754915 28.32292,46.756815 C28.31627,46.764415 28.31342,46.771065 28.30867,46.776765 C28.28872,46.801465 28.27637,46.830915 28.27067,46.862265 C28.26877,46.866065 28.26307,46.869865 28.26307,46.874615 C28.26307,46.878415 28.26497,46.879365 28.26497,46.882215 C28.26402,46.886965 28.26212,46.892665 28.26212,46.897415 L28.26212,53.907465 C28.26212,53.910315 28.26307,53.910315 28.26307,53.912215 C28.26307,53.943565 28.27542,53.973965 28.29062,54.001515 C28.29442,54.008165 28.29917,54.015765 28.30392,54.023365 C28.32387,54.049965 28.34857,54.072765 28.38277,54.088915 L33.63912,56.380315 L33.75502,56.394565 L38.88027,55.431265 C38.92302,55.422715 38.95817,55.397065 38.98572,55.368565 C38.98952,55.363815 38.99522,55.360015 38.99807,55.356215 C39.02277,55.324865 39.03512,55.288765 39.03797,55.246965 C39.03797,55.242215 39.04177,55.239365 39.04177,55.234615 L39.04177,48.225515 C39.04177,48.190365 39.03132,48.161865 39.01612,48.133365 C39.01422,48.128615 39.01137,48.124815 39.00852,48.120065 C38.98762,48.089665 38.96102,48.063065 38.92587,48.046915 C38.92397,48.046915 38.92302,48.043115 38.92207,48.043115 L35.97897,46.758715 L36.44827,46.679865 L36.44827,46.681765 C39.28782,46.218165 40.47627,43.713965 40.48577,43.695915 C40.51807,43.628465 40.51142,43.549615 40.46487,43.490715" id="Fill-84" fill="#542F1A"></path>
                    <path d="M33.41226,44.994565 C33.44076,44.932815 33.46261,44.868215 33.48731,44.806465 C33.50156,44.767515 33.51771,44.726665 33.53101,44.686765 C33.55381,44.616465 33.57471,44.545215 33.59371,44.475865 C33.60986,44.416015 33.62506,44.355215 33.63836,44.295365 C33.64311,44.276365 33.64976,44.259265 33.65166,44.241215 C33.65261,44.236465 33.65071,44.232665 33.65166,44.229815 C33.73336,43.837465 33.75711,43.467915 33.75426,43.201915 C33.75426,43.083165 33.74951,42.982465 33.74666,42.901715 L38.39216,42.025815 C38.31711,42.301315 38.17841,42.738315 37.95801,43.199065 C37.83926,43.447965 37.69391,43.697815 37.52861,43.930565 L35.14696,44.379915 C35.07286,44.393215 35.01396,44.446415 34.99401,44.516715 C34.99401,44.516715 34.97026,44.593665 34.91611,44.718115 L34.68716,45.166515 C34.65391,45.221615 34.61971,45.278615 34.57981,45.337515 L32.95816,45.698515 C32.96671,45.688065 32.97241,45.679515 32.98001,45.670965 C33.02276,45.623465 33.05791,45.572165 33.09781,45.519915 C33.11586,45.495215 33.13486,45.471465 33.15291,45.447715 L33.41226,44.994565 Z" id="Fill-86" fill="#FFFFFF"></path>
                    <path d="M29.511085,46.491005 C29.336285,46.387455 29.193785,46.283905 29.082635,46.194605 L29.481635,46.121455 C29.850235,46.322855 30.333785,46.478655 30.960785,46.478655 C31.085235,46.478655 31.215385,46.470105 31.350285,46.457755 L31.371185,46.457755 C31.529835,46.438755 31.675185,46.410255 31.813885,46.373205 C31.861385,46.359905 31.909835,46.345655 31.956385,46.332355 C31.978235,46.325705 32.002935,46.319055 32.023835,46.313355 L34.203135,45.828855 C33.785135,46.294355 33.180935,46.749405 32.312635,46.966005 C32.160635,46.993555 32.011485,47.023955 31.849035,47.036305 C31.730285,47.045805 31.617235,47.052455 31.506085,47.052455 C30.660585,47.052455 29.981335,46.773155 29.511085,46.491005" id="Fill-88" fill="#FFFFFF"></path>
                    <path d="M33.18863,44.45316 C33.16678,44.52536 33.14018,44.59471 33.11358,44.66501 C33.10883,44.68306 33.10408,44.69826 33.09743,44.71156 L33.09743,44.71346 C32.94828,45.09536 32.72123,45.44971 32.36213,45.70051 L32.36118,45.70051 C32.25478,45.77556 32.13223,45.83636 32.00113,45.89336 L32.00018,45.89336 C31.95553,45.91046 31.90708,45.92566 31.86053,45.94181 L31.85958,45.94181 C31.69903,45.99501 31.52708,46.04061 31.33043,46.06056 C31.20028,46.07386 31.07773,46.07956 30.96088,46.07956 C30.80033,46.07956 30.65783,46.06341 30.52388,46.04061 C30.42033,46.02636 30.32723,46.00546 30.23603,45.98361 C29.83513,45.87911 29.53018,45.71001 29.31643,45.53616 C29.19008,45.42881 29.09223,45.32526 29.02098,45.23691 L33.18863,44.45316 Z" id="Fill-90" fill="#FFFFFF"></path>
                    <polygon id="Fill-92" fill="#FFFFFF" points="28.65941 48.348255 33.63931 50.518055 33.75521 50.532305 38.64391 49.613655 38.64391 50.381255 33.74096 51.301805 28.65941 49.084505"></polygon>
                    <polygon id="Fill-94" fill="#FFFFFF" points="28.65941 51.864395 33.64026 54.035145 33.75521 54.048445 38.64391 53.128845 38.64391 53.898345 33.74191 54.819845 28.65941 52.603495"></polygon>
                    <polygon id="Fill-96" fill="#FFFFFF" points="33.74153 55.99281 28.65903 53.77646 28.65903 53.03831 33.63988 55.20811 33.75483 55.22141 38.64353 54.30181 38.64448 55.06941"></polygon>
                    <polygon id="Fill-98" fill="#FFFFFF" points="33.74153 53.647545 28.65903 51.431195 28.65903 50.692095 33.63988 52.863795 33.75483 52.876145 38.64353 51.958445 38.64353 52.725095"></polygon>
                    <polygon id="Fill-100" fill="#FFFFFF" points="33.74248 52.473915 28.65903 50.257565 28.65903 49.520365 33.63988 51.692065 33.75483 51.704415 38.64353 50.785765 38.64353 51.551465"></polygon>
                    <polygon id="Fill-102" fill="#FFFFFF" points="38.64372 49.20734 33.74172 50.13074 28.65922 47.91439 28.65922 47.19999 33.64007 49.37169 33.75597 49.38499 38.64277 48.46444"></polygon>
                    <path d="M38.17062,48.147425 L33.74172,48.984375 L29.13232,46.974175 L29.44962,46.912425 C29.95787,47.189825 30.65137,47.447275 31.50637,47.450125 C31.56907,47.450125 31.63652,47.443475 31.70112,47.439675 C31.72392,47.450125 32.15427,47.413075 32.32242,47.376025 L35.26077,46.880125 L38.17062,48.147425 Z" id="Fill-104" fill="#FFFFFF"></path>
                    <path d="M39.23975,44.74728 C38.62795,45.38948 37.69315,46.07918 36.38405,46.28818 L36.3831,46.28818 L33.79625,46.72423 C34.2304,46.41738 34.55245,46.05923 34.7928,45.72768 C34.79565,45.72293 34.79945,45.71723 34.8042,45.71343 C34.9334,45.53198 35.0379,45.36098 35.1196,45.20803 C35.1443,45.16243 35.169,45.11493 35.19085,45.07313 C35.25545,44.94013 35.3039,44.82613 35.33335,44.74918 L35.8283,44.65513 L35.84445,44.65418 L39.919,43.88658 C39.77365,44.11173 39.5504,44.42143 39.23975,44.74728" id="Fill-106" fill="#FFFFFF"></path>
                    <g id="Group-111" transform="translate(9.500000, 0.237500)">
                        <path d="M7.51127,15.933305 C4.71162,14.267005 -1.11283,9.605355 1.30207,0.627855 C1.30207,0.627855 1.43887,-0.059945 2.23592,0.003705 C2.71947,0.041705 2.93607,0.379905 2.91802,0.939455 C2.87052,2.516455 2.41072,8.418805 9.24597,11.720055" id="Fill-108" fill="#FFFFFF"></path>
                        <path d="M7.51127,15.933305 C4.71162,14.267005 -1.11283,9.605355 1.30207,0.627855 C1.30207,0.627855 1.43887,-0.059945 2.23592,0.003705 C2.71947,0.041705 2.93607,0.379905 2.91802,0.939455 C2.87052,2.516455 2.41072,8.418805 9.24597,11.720055" id="Stroke-110" stroke="#542F1A" stroke-width="0.5" stroke-linecap="round" stroke-linejoin="round"></path>
                    </g>
                    <g id="Group-115" transform="translate(29.450000, 0.237500)">
                        <path d="M2.099785,15.91839 C4.907985,14.24259 10.692535,9.58379 8.285235,0.62719 C8.285235,0.62719 8.149385,-0.05966 7.351385,0.00399 C6.868785,0.04199 6.653135,0.38019 6.669285,0.93879 C6.718685,2.51294 7.173735,8.38964 0.392635,11.69659" id="Fill-112" fill="#FFFFFF"></path>
                        <path d="M2.099785,15.91839 C4.907985,14.24259 10.692535,9.58379 8.285235,0.62719 C8.285235,0.62719 8.149385,-0.05966 7.351385,0.00399 C6.868785,0.04199 6.653135,0.38019 6.669285,0.93879 C6.718685,2.51294 7.173735,8.38964 0.392635,11.69659" id="Stroke-114" stroke="#542F1A" stroke-width="0.5" stroke-linecap="round" stroke-linejoin="round"></path>
                    </g>
                    <path d="M24.497175,22.119895 C24.497175,22.119895 31.643075,22.447645 31.862525,18.490895 C32.082925,14.534145 29.884625,11.600545 28.930825,10.429195 C27.978925,9.256895 26.513075,8.157745 24.387925,8.157745 L24.376525,8.157745 C22.251375,8.157745 20.784575,9.256895 19.832675,10.429195 C18.879825,11.600545 16.680575,14.534145 16.900025,18.490895 C17.120425,22.447645 24.267275,22.119895 24.267275,22.119895 L24.497175,22.119895 Z" id="Fill-116" fill="#A3DBE6"></path>
                    <path d="M24.497175,22.119895 C24.497175,22.119895 31.643075,22.447645 31.862525,18.490895 C32.082925,14.534145 29.884625,11.600545 28.930825,10.429195 C27.978925,9.256895 26.513075,8.157745 24.387925,8.157745 L24.376525,8.157745 C22.251375,8.157745 20.784575,9.256895 19.832675,10.429195 C18.879825,11.600545 16.680575,14.534145 16.900025,18.490895 C17.120425,22.447645 24.267275,22.119895 24.267275,22.119895 L24.497175,22.119895 Z" id="Stroke-118" stroke="#542F1A" stroke-width="0.377"></path>
                    <path d="M21.594735,8.99194 C21.850285,9.18004 22.104885,9.47454 22.104885,9.91439 C22.104885,10.79409 21.957635,16.58624 21.884485,17.09829 C21.811335,17.61034 21.811335,18.27059 21.151085,18.19744 C20.621935,18.13854 18.023685,17.89154 17.052785,16.88929" id="Stroke-120" stroke="#542F1A" stroke-width="0.377" stroke-linecap="round" stroke-linejoin="round"></path>
                    <path d="M27.19869,8.971515 C26.93364,9.155815 26.66099,9.458865 26.66099,9.913915 C26.66099,10.794565 26.80444,16.585765 26.88044,17.097815 C26.95264,17.610815 26.95264,18.270115 27.61289,18.196965 C28.16199,18.136165 30.94074,17.873965 31.81379,16.771015" id="Stroke-122" stroke="#542F1A" stroke-width="0.377" stroke-linecap="round" stroke-linejoin="round"></path>
                    <path d="M25.07886,9.89368 C25.07886,10.21573 24.76726,10.47413 24.38156,10.47413 C23.99586,10.47413 23.68426,10.21573 23.68426,9.89368 C23.68426,9.57353 23.99586,9.31228 24.38156,9.31228 C24.76726,9.31228 25.07886,9.57353 25.07886,9.89368 Z" id="Stroke-124" stroke="#FFFFFF" stroke-width="0.377" stroke-linecap="round" stroke-linejoin="round"></path>
                    <path d="M25.07886,14.717495 C25.07886,15.103195 24.76726,15.414795 24.38156,15.414795 C23.99586,15.414795 23.68426,15.103195 23.68426,14.717495 C23.68426,14.330845 23.99586,14.020195 24.38156,14.020195 C24.76726,14.020195 25.07886,14.330845 25.07886,14.717495 Z" id="Stroke-126" stroke="#FFFFFF" stroke-width="0.377" stroke-linecap="round" stroke-linejoin="round"></path>
                    <path d="M24.497175,22.119895 C24.497175,22.119895 31.643075,22.447645 31.862525,18.490895 C32.082925,14.534145 29.884625,11.600545 28.930825,10.429195 C27.978925,9.256895 26.513075,8.157745 24.387925,8.157745 L24.376525,8.157745 C22.251375,8.157745 20.784575,9.256895 19.832675,10.429195 C18.879825,11.600545 16.680575,14.534145 16.900025,18.490895 C17.120425,22.447645 24.267275,22.119895 24.267275,22.119895 L24.497175,22.119895 Z" id="Stroke-128" stroke="#542F1A" stroke-width="0.377" stroke-linecap="round" stroke-linejoin="round"></path>
                    <path d="M25.07886,20.18047 C25.07886,20.56427 24.76726,20.87682 24.38156,20.87682 C23.99586,20.87682 23.68426,20.56427 23.68426,20.18047 C23.68426,19.79572 23.99586,19.48127 24.38156,19.48127 C24.76726,19.48127 25.07886,19.79572 25.07886,20.18047 Z" id="Stroke-130" stroke="#FFFFFF" stroke-width="0.377" stroke-linecap="round" stroke-linejoin="round"></path>
                    <polygon id="Fill-132" fill="#FFFFFF" points="14.298545 47.53933 14.641495 47.19543 15.813795 48.36868 15.470845 48.71163"></polygon>
                    <path d="M8.52663,54.33126 C8.74323,53.91516 9.09663,53.40406 9.54598,52.82836 L10.17678,53.47816 C9.60678,53.93036 9.10708,54.28091 8.70713,54.49276 C8.66628,54.47186 8.60643,54.43956 8.60738,54.44526 L8.60548,54.44241 L8.58363,54.40821 C8.56843,54.40061 8.55608,54.36831 8.52663,54.33126" id="Fill-134" fill="#FFFFFF"></path>
                    <polygon id="Fill-136" fill="#FFFFFF" points="12.14765 48.711535 11.8066 48.368585 12.97795 47.195335 13.32185 47.539235"></polygon>
                    <path d="M19.034675,54.408305 L19.012825,54.442505 L19.010925,54.445355 C19.012825,54.439655 18.952975,54.471955 18.913075,54.492855 C18.513125,54.281005 18.011525,53.930455 17.442475,53.478255 L18.072325,52.828455 C18.524525,53.404155 18.876025,53.914305 19.093575,54.331355 C19.064125,54.368405 19.050825,54.400705 19.034675,54.408305" id="Fill-138" fill="#FFFFFF"></path>
                    <path d="M69.101195,42.321265 L69.101195,35.851765 C69.101195,34.860915 69.080295,34.623415 67.914645,34.623415 L67.095745,34.623415 L67.095745,32.575215 L73.456945,32.575215 L73.456945,34.623415 L72.940145,34.623415 C71.840045,34.623415 71.753595,34.817215 71.753595,35.851765 L71.753595,47.044665 L66.793645,47.044665 L61.165845,36.671615 L61.165845,43.745315 C61.165845,44.779865 61.252295,44.995515 62.352395,44.995515 L62.998395,44.995515 L62.998395,47.044665 L56.615345,47.044665 L56.615345,44.995515 L57.326895,44.995515 C58.427945,44.995515 58.534345,44.779865 58.534345,43.745315 L58.534345,35.851765 C58.534345,34.817215 58.427945,34.623415 57.326895,34.623415 L56.615345,34.623415 L56.615345,32.575215 L63.774545,32.575215 L69.101195,42.321265 Z" id="Fill-140" fill="#542F1A"></path>
                    <path d="M77.704585,44.154955 C77.704585,44.736355 78.157735,45.167655 78.825585,45.167655 C79.623585,45.167655 80.162235,44.629005 80.162235,43.700855 L80.162235,43.637205 L80.141335,42.321455 C78.589035,43.163155 77.704585,43.336055 77.704585,44.154955 M76.885685,47.411555 C74.729185,47.411555 73.521735,46.376055 73.521735,44.542555 C73.521735,42.516205 74.707335,41.912005 77.295135,41.459805 C79.192285,41.135855 80.098585,40.920205 80.098585,39.604455 C80.098585,38.591755 79.365185,37.902055 78.092185,37.902055 C77.661835,37.902055 77.251435,38.031255 76.820135,38.267805 C77.575385,38.483455 77.942085,38.935655 77.942085,39.647205 C77.942085,40.531655 77.208685,41.135855 76.065835,41.135855 C74.707335,41.135855 73.952085,40.467055 73.952085,39.325155 C73.952085,37.621805 75.763735,36.499855 79.149535,36.499855 C81.090385,36.499855 82.491635,36.844705 83.160435,37.296905 C84.216835,38.009405 84.346035,38.850155 84.346035,40.251405 L84.346035,44.176805 C84.346035,44.629005 84.389735,44.822805 84.777335,44.822805 C85.186785,44.822805 85.230485,44.586255 85.230485,44.176805 L85.230485,42.946555 L86.653585,42.946555 L86.653585,44.284155 C86.653585,46.483405 85.748235,47.411555 83.418835,47.411555 C82.146785,47.411555 81.241435,46.957455 80.594485,45.966605 C79.861085,46.892855 78.545335,47.411555 76.885685,47.411555" id="Fill-142" fill="#542F1A"></path>
                    <path d="M100.10378,42.321265 L100.10378,35.851765 C100.10378,34.860915 100.08193,34.623415 98.91723,34.623415 L98.09738,34.623415 L98.09738,32.575215 L104.45858,32.575215 L104.45858,34.623415 L103.94178,34.623415 C102.84263,34.623415 102.75523,34.817215 102.75523,35.851765 L102.75523,47.044665 L97.79623,47.044665 L92.16748,36.671615 L92.16748,43.745315 C92.16748,44.779865 92.25488,44.995515 93.35498,44.995515 L94.00098,44.995515 L94.00098,47.044665 L87.61698,47.044665 L87.61698,44.995515 L88.32948,44.995515 C89.42863,44.995515 89.53598,44.779865 89.53598,43.745315 L89.53598,35.851765 C89.53598,34.817215 89.42863,34.623415 88.32948,34.623415 L87.61698,34.623415 L87.61698,32.575215 L94.77713,32.575215 L100.10378,42.321265 Z" id="Fill-144" fill="#542F1A"></path>
                    <path d="M110.582565,38.483265 C109.332365,38.483265 109.008415,39.561515 109.008415,41.955515 C109.008415,44.348565 109.332365,45.426815 110.625315,45.426815 C111.898315,45.426815 112.200415,44.348565 112.200415,41.955515 C112.200415,39.561515 111.875515,38.483265 110.582565,38.483265 M116.792715,41.955515 C116.792715,45.319465 114.441465,47.411365 110.604415,47.411365 C106.743615,47.411365 104.436065,45.362215 104.436065,41.955515 C104.436065,38.547865 106.743615,36.477815 110.582565,36.477815 C114.441465,36.477815 116.792715,38.591565 116.792715,41.955515" id="Fill-146" fill="#542F1A"></path>
                    <path d="M122.251605,34.623415 C121.625555,34.623415 121.345305,34.752615 121.345305,35.162065 C121.345305,35.399565 121.389005,35.593365 121.431755,35.723515 L123.479955,43.054665 L125.161455,36.219415 C124.946755,34.990115 124.580055,34.645265 123.372605,34.623415 L123.372605,32.575215 L130.509955,32.575215 L130.509955,34.623415 L130.034955,34.623415 C129.280655,34.623415 128.957655,34.709865 128.957655,35.162065 C128.957655,35.355865 129.000405,35.551565 129.043155,35.723515 L130.832955,43.054665 L132.687355,35.700715 C132.752905,35.465115 132.773805,35.291265 132.773805,35.162065 C132.773805,34.688015 132.450805,34.623415 131.567305,34.623415 L131.567305,32.575215 L137.086805,32.575215 L137.086805,34.623415 C136.160555,34.623415 135.750155,35.011015 135.469905,36.025615 L132.450805,47.044665 L127.857555,47.044665 L126.434455,41.156565 L124.967655,47.044665 L120.331655,47.044665 L117.356255,36.413215 C117.010455,35.205765 116.515505,34.645265 115.544605,34.623415 L115.544605,32.575215 L122.251605,32.575215 L122.251605,34.623415 Z" id="Fill-148" fill="#542F1A"></path>
                    <path d="M144.266715,36.49976 C145.840865,36.49976 146.811765,37.51246 146.811765,39.00111 C146.811765,40.31686 145.991915,41.15666 144.805365,41.15666 C143.835415,41.15666 143.123865,40.46696 143.123865,39.58346 C143.123865,38.95741 143.425015,38.50521 144.071965,38.18126 C143.900015,38.13851 143.748965,38.11666 143.597915,38.11666 C142.498765,38.11666 141.743515,39.19491 141.743515,41.13576 L141.743515,44.13301 C141.743515,44.95191 141.915465,45.14761 142.757165,45.14761 L143.447815,45.14761 L143.447815,47.04476 L136.115715,47.04476 L136.115715,45.14761 L136.482415,45.14761 C137.322215,45.14761 137.495115,44.95191 137.495115,44.13301 L137.495115,39.77726 C137.495115,38.95741 137.322215,38.76361 136.482415,38.76361 L136.115715,38.76361 L136.115715,36.86646 L141.635215,36.86646 L141.635215,37.85826 C142.369565,36.95196 143.253065,36.49976 144.266715,36.49976" id="Fill-150" fill="#542F1A"></path>
                    <path d="M150.54099,32.143535 C151.62019,32.143535 152.48184,33.027985 152.48184,34.106235 C152.48184,35.184485 151.62019,36.046135 150.54099,36.046135 C149.44184,36.046135 148.60014,35.206335 148.60014,34.106235 C148.60014,33.005185 149.46274,32.143535 150.54099,32.143535 M153.96954,45.147135 L154.33624,45.147135 L154.33624,47.044285 L147.26349,47.044285 L147.26349,45.147135 L147.69479,45.147135 C148.53554,45.147135 148.70749,44.952385 148.70749,44.132535 L148.70749,39.776785 C148.70749,38.956935 148.53554,38.763135 147.69479,38.763135 L147.26349,38.763135 L147.26349,36.866935 L152.95589,36.866935 L152.95589,44.132535 C152.95589,44.952385 153.12879,45.147135 153.96954,45.147135" id="Fill-152" fill="#542F1A"></path>
                    <path d="M176.743035,34.623415 L176.031485,34.623415 C174.889585,34.623415 174.845885,34.839065 174.845885,35.851765 L174.845885,43.745315 C174.845885,44.758015 174.889585,44.995515 176.031485,44.995515 L176.743035,44.995515 L176.743035,47.044665 L168.807685,47.044665 L168.807685,44.995515 L169.347285,44.995515 C170.532885,44.995515 170.532885,44.716215 170.532885,43.745315 L170.532885,34.946415 L166.824085,47.044665 L163.439235,47.044665 L159.923285,34.968265 L159.923285,43.745315 C159.923285,44.779865 160.009735,44.995515 161.109835,44.995515 L161.649435,44.995515 L161.649435,47.044665 L155.158085,47.044665 L155.158085,44.995515 L155.826885,44.995515 C156.926985,44.995515 157.011535,44.779865 157.011535,43.745315 L157.011535,35.851765 C157.011535,34.817215 156.926985,34.623415 155.826885,34.623415 L155.158085,34.623415 L155.158085,32.575215 L163.265385,32.575215 L165.723985,41.201215 L168.376385,32.575215 L176.743035,32.575215 L176.743035,34.623415 Z" id="Fill-154" fill="#542F1A"></path>
                    <path d="M183.4051,38.483265 C182.1549,38.483265 181.8319,39.561515 181.8319,41.955515 C181.8319,44.348565 182.1549,45.426815 183.44785,45.426815 C184.72085,45.426815 185.02295,44.348565 185.02295,41.955515 C185.02295,39.561515 184.699,38.483265 183.4051,38.483265 M189.61525,41.955515 C189.61525,45.319465 187.26495,47.411365 183.42695,47.411365 C179.56615,47.411365 177.25955,45.362215 177.25955,41.955515 C177.25955,38.547865 179.56615,36.477815 183.4051,36.477815 C187.26495,36.477815 189.61525,38.590615 189.61525,41.955515" id="Fill-156" fill="#542F1A"></path>
                </g>
            </g>
        </g>
    </g>
</svg>