<?xml version="1.0" encoding="UTF-8"?>
<svg width="113px" height="134px" viewBox="0 0 113 134" version="1.1" xmlns="http://www.w3.org/2000/svg" xmlns:xlink="http://www.w3.org/1999/xlink">
    <!-- Generator: Sketch 51.1 (57501) - http://www.bohemiancoding.com/sketch -->
    <title>Page 1</title>
    <desc>Created with Sketch.</desc>
    <defs>
        <polygon id="path-1" points="0.798150192 0.964780488 31.0787132 0.964780488 31.0787132 43.010322 0.798150192 43.010322"></polygon>
    </defs>
    <g id="2.-What-is-NaNoWriMo?,-The-Platform,-Young-Writers-Program,-Programming-&amp;-Impact" stroke="none" stroke-width="1" fill="none" fill-rule="evenodd">
        <g id="2c.-Programming-and-Impact---v3" transform="translate(-1220.000000, -1600.000000)">
            <g id="Sign-Up" transform="translate(734.000000, 1600.000000)">
                <g id="Page-1" transform="translate(488.000000, 0.000000)">
                    <path d="M43.9615555,24.0389691 C73.4869339,18.2193009 102.141382,37.4361304 107.961068,66.9624818 C113.780755,96.4877685 94.5628008,125.142128 65.0374224,130.960731 C35.5109793,136.781464 6.85866036,117.56357 1.03897415,88.0382833 C-4.78071206,58.5119319 14.4361771,29.8586372 43.9615555,24.0389691" id="Fill-1" fill="#2F3061"></path>
                    <path d="M79.0173313,48.1806592 C78.7595914,48.4383745 78.4395644,48.6006397 78.1034286,48.6653336 C77.546066,48.774571 76.943599,48.6154874 76.5108107,48.1891436 L71.8306836,43.5990539 C71.1347858,42.9181765 71.1304902,41.8088341 71.8220923,41.1237145 C72.5083248,40.4354131 73.6359369,40.4343526 74.3286129,41.11523 L79.0076661,45.7063802 C79.7035638,46.3861971 79.7078595,47.4955395 79.0173313,48.1806592 M50.6240588,23.169549 L49.7649258,30.4523923 C49.556586,32.2150376 48.4622653,33.754966 46.8535387,34.547202 L41.5709445,37.145566 C41.1445998,37.3544957 40.6935549,37.5072159 40.2274753,37.5973632 L31.8713327,39.2242573 C30.9993127,39.3939464 30.3893282,40.1755767 30.4440979,41.050536 L30.9026602,48.3355005 L25.620066,49.6505908 C24.7319372,49.8722472 24.1606138,50.7249349 24.3023707,51.6189842 L25.030486,56.2355878 C25.1958691,57.275994 26.2440114,57.938842 27.2685275,57.64931 L30.7662728,56.6651133 C31.6662147,56.4116402 32.4082908,55.7816695 32.7959746,54.9417086 L35.1800687,49.7714943 L42.1648202,48.1541453 C43.6575639,47.8073432 45.0192897,49.0959197 44.7497367,50.588123 C44.1440479,53.9341796 44.1955959,54.2003794 44.2503657,54.474003 C44.4404488,55.4242619 45.3715342,56.0415059 46.3326893,55.8537874 C47.1918223,55.6862194 47.7846241,54.9300424 47.7620719,54.0943237 C47.8028807,53.6743432 48.0595467,52.1991088 48.4064217,50.3219233 C48.5524743,49.5371113 49.5318859,49.2348526 50.0978398,49.803311 L50.6820503,50.3876778 C51.7613361,51.4683851 53.4237585,51.7398877 54.7972974,51.0579497 L57.7344585,49.6018052 C58.5517088,49.1966726 59.126254,48.4288295 59.2766023,47.5379618 L59.5611901,45.860161 C59.7609385,44.6765796 60.56208,43.6764746 61.6821747,43.2108902 L63.6087805,42.4112304 C64.9189584,41.8661042 66.5298328,42.4006248 67.0399431,43.711473 C67.5586446,45.0509562 66.8240859,46.5017978 65.4838384,46.9238994 L60.6694717,47.9950617 C59.69006,48.2124759 59.0553755,49.1500081 59.2261282,50.1267808 L59.3066719,50.5870625 C59.3711069,50.9561362 59.6449555,51.2562738 60.0100871,51.3591478 L63.0728963,52.2192593 C64.2380955,52.5469714 64.8502278,53.8100945 64.3744828,54.9109524 C64.1135212,55.5175909 63.56475,55.9566614 62.910735,56.0839282 L48.2313733,58.9410681 C47.8469113,59.0163676 47.4517101,59.0184888 47.0661741,58.9495526 L33.791495,56.5548154 C32.8088616,56.3777024 31.8111934,56.771169 31.2216133,57.5687077 L21.6809411,70.4884102 C20.9206084,71.5171502 20.7863688,72.8746629 21.3319183,74.0306698 L25.6039573,83.0846429 C26.2622679,84.4824567 27.7700464,85.2895404 29.3154119,85.0731868 L42.5986824,83.2129702 C45.2115207,82.8460176 47.7019326,84.4283683 48.4472305,86.9291612 L51.5776964,97.4244309 C51.8118102,98.2092429 52.1801635,98.938906 52.6763128,99.59433 C54.238861,101.660295 57.855811,106.344774 59.6492512,107.858188 C61.9581712,109.807492 66.5298328,109.012074 67.7895366,107.333213 L76.7524419,96.6162866 C77.4848528,95.6405744 77.8521322,94.4432058 77.789845,93.2288683 L77.3495394,84.5036678 L83.9927855,73.6159921 C84.6392831,72.5554353 83.9927855,71.2477688 82.8512125,71.0070224 L82.7201947,71.1374709 C82.1617582,71.6889604 81.4701561,72.0909114 80.7162669,72.3083256 C80.5820274,72.3465056 80.4477878,72.3793829 80.3124744,72.4058968 C78.739187,72.7113372 77.1218691,72.2075727 76.0092918,71.0398997 L67.5017271,62.142889 C66.8305294,61.4376187 66.8638208,60.3303975 67.5747534,59.6664889 C68.2932034,59.0047015 69.4100763,59.0365182 70.0823479,59.7364857 L78.5899127,68.6377386 C78.8820179,68.9463606 79.3137322,69.0609008 79.7293378,68.9453001 C79.9108297,68.8922722 80.0794345,68.7925799 80.2158219,68.6600103 L88.0274889,62.2160674 C88.8404436,61.5436744 88.8458131,60.3102469 88.0360803,59.6325511 C87.5861094,59.2560535 86.9718292,59.13515 86.4112449,59.312263 L84.6124352,59.8786003 C84.1302468,60.0302599 83.6040278,59.9719293 83.1680178,59.7163351 L76.6890808,55.9227236 C75.8471305,55.4285041 75.5689862,54.3562812 76.0683572,53.5237442 C76.5666544,52.6901465 77.6523837,52.418644 78.4986298,52.9107423 L84.2924081,56.3034634 L87.21883,55.3807791 C87.8223709,55.184576 88.4914208,55.333054 88.9596483,55.7615189 L89.6909853,56.4275486 L92.5400852,55.5144092 C93.9243632,55.0700359 95.4418069,55.5069853 96.3685967,56.6142066 L104.407934,66.224972 C104.991071,66.9217578 105.82443,67.3693127 106.734037,67.4732473 L109,67.7967171 C108.938787,67.4562784 108.890461,67.1169002 108.823878,66.7775221 C103.372679,39.4650037 78.0572502,21.0229821 50.6240588,23.169549" id="Fill-3" fill="#8DE394"></path>
                    <path d="M84.1025134,100.966226 C83.7107094,101.044469 83.2890131,100.989047 82.9121553,100.776053 C82.0591544,100.297901 81.7495545,99.2057606 82.2192922,98.3385681 L85.6942837,91.9269947 C86.1629538,91.0619757 87.236945,90.7446571 88.0888784,91.2228083 C88.9408118,91.703133 89.2504116,92.7931005 88.7806739,93.6613796 L85.3067501,100.072953 C85.0451916,100.555451 84.595738,100.866249 84.1025134,100.966226" id="Fill-5" fill="#8DE394"></path>
                    <path d="M29.5863124,28.8448444 L29.0135137,33.9295509 C28.8999167,34.9336083 29.5150736,35.8543645 30.3853425,35.9854251 C30.5605515,36.0109708 30.7328724,36.0020853 30.8974919,35.9654328 C31.5492309,35.8166013 32.0758206,35.204615 32.1672759,34.4027019 L33,27 C31.8332235,27.5620056 30.7001411,28.1873201 29.5863124,28.8448444" id="Fill-7" fill="#8DE394"></path>
                    <path d="M16,116 L14.7925586,102.330714 C14.6999299,101.258943 14.0951195,100.286993 13.156846,99.7038238 L2,93 C4.65898653,101.933528 9.56176539,109.758509 16,116" id="Fill-9" fill="#8DE394"></path>
                    <path d="M44.9504476,24.1770265 C42.9184783,24.5731232 40.9357417,25.0765423 39,25.6706875 L39.6500959,29.9126846 C39.4565217,31.4140905 40.5284527,32.7860458 42.0457161,32.9774557 C42.3500639,33.0161802 42.6488171,33.0040096 42.9330243,32.9486888 C44.0720908,32.7262993 44.9918478,31.806868 45.1462596,30.6075136 L46,24 C45.6508951,24.0619593 45.3006714,24.1084287 44.9504476,24.1770265" id="Fill-11" fill="#8DE394"></path>
                    <path d="M43.9615555,24.0389691 C73.4869339,18.2193009 102.141382,37.4361304 107.961068,66.9624818 C113.780755,96.4877685 94.5628008,125.142128 65.0374224,130.960731 C35.5109793,136.781464 6.85866036,117.56357 1.03897415,88.0382833 C-4.78071206,58.5119319 14.4361771,29.8586372 43.9615555,24.0389691 Z" id="Stroke-13" stroke="#2F3061" stroke-width="2.167" stroke-linecap="round" stroke-linejoin="round"></path>
                    <path d="M27.5924028,6.72168486 C26.4590522,6.72168486 25.334247,7.00618718 24.3376248,7.54463417 C23.0387045,8.24640657 21.9982865,9.36228791 21.4065086,10.6868043 C20.5060236,12.6129904 20.5882743,14.8616125 21.6180104,16.7193073 C22.4640177,18.2429753 23.8483933,19.3641251 25.5158395,19.8751756 C26.2261865,20.1090998 26.9440109,20.2239544 27.6703808,20.2239544 C28.7983905,20.2239544 29.9210593,19.9394521 30.9176815,19.4010051 C32.5648321,18.5106182 33.7718879,16.9753593 34.2290737,15.1882633 C34.694805,13.504431 34.4833031,11.75 33.6372959,10.2273857 C32.6161052,8.38655031 30.8119306,7.14106236 28.6851623,6.80914298 C28.3219773,6.7511888 27.9555878,6.72168486 27.5924028,6.72168486 M41.589978,41 C40.8764264,41 40.2023979,40.692316 39.7420076,40.1559764 L26.9739202,24.9287799 C22.979954,24.701178 19.3566501,22.4588782 17.4264289,18.9826813 C14.3479023,13.4338323 16.4180565,6.44771966 22.0420823,3.40986707 C23.7490515,2.48681509 25.6760682,2 27.6137667,2 C31.8737125,2 35.7875644,4.28444829 37.8288774,7.96295796 C39.7590986,11.4391549 39.7217119,15.6571652 37.764786,19.0996434 L43.8876569,37.9010321 C44.2882286,39.161272 43.5832225,40.4973792 42.3195525,40.8872528 C42.0888232,40.9610126 41.8410029,41 41.589978,41" id="Fill-15" fill="#2F3061"></path>
                    <g id="Group-19" transform="translate(14.000000, 0.000000)">
                        <mask id="mask-2" fill="white">
                            <use xlink:href="#path-1"></use>
                        </mask>
                        <g id="Clip-18"></g>
                        <path d="M13.61312,19.5250537 C13.0125867,19.5250537 12.4184533,19.4284683 11.8488533,19.2374439 C10.42912,18.7910049 9.28352,17.8455415 8.58378667,16.5588098 C7.73045333,14.9898341 7.66218667,13.0913951 8.40032,11.4805659 C8.90592,10.3269073 9.76672,9.38573659 10.8408533,8.79441951 C11.6664533,8.33939512 12.59872,8.09900488 13.53632,8.09900488 C13.83712,8.09900488 14.1400533,8.1236878 14.43552,8.17198049 C16.2136533,8.45529756 17.71232,9.50915122 18.5592533,11.0641756 C19.2589867,12.3509073 19.4349867,13.8297366 19.0552533,15.2302244 C18.6637867,16.7831024 17.6653867,18.0784195 16.3021867,18.829639 C15.4765867,19.2846634 14.5464533,19.5250537 13.61312,19.5250537 M13.5576533,0.964565854 C11.4285867,0.964565854 9.31338667,1.51080976 7.43925333,2.5432 C4.44938667,4.1894439 2.27552,6.91207805 1.31872,10.2077854 C0.359786667,13.5034927 0.734186667,16.9741268 2.37152,19.9822244 C4.40672,23.7232976 8.15818667,26.1872976 12.33952,26.5993951 L24.76832,41.7182244 C25.4669867,42.5477854 26.46112,43.010322 27.5117867,43.010322 C27.88512,43.010322 28.25312,42.9523707 28.60832,42.8364683 C29.5000533,42.5552976 30.2424533,41.9274927 30.6808533,41.0732488 C31.11392,40.2275902 31.1960533,39.2617366 30.9144533,38.3516878 L24.94432,19.6570537 C26.8504533,15.8902244 26.8077867,11.3829073 24.7725867,7.64183415 C22.5304533,3.52300488 18.2328533,0.964565854 13.5576533,0.964565854 M13.61312,21.8506146 C14.89952,21.8506146 16.20512,21.5340293 17.4125867,20.8686634 C19.4189867,19.7632976 20.7661867,17.9067122 21.28352,15.8430049 C21.8029867,13.9349073 21.6024533,11.8153951 20.58592,9.94807805 C19.3517867,7.67832195 17.1736533,6.25315122 14.8077867,5.87754146 C14.3896533,5.80885854 13.9640533,5.7734439 13.53632,5.7734439 C12.2477867,5.7734439 10.93792,6.0889561 9.73045333,6.75432195 C8.15498667,7.62251707 6.97632,8.96290732 6.30218667,10.5061268 C5.28778667,12.7157854 5.30485333,15.3740293 6.55712,17.6759805 C7.57365333,19.5432976 9.23978667,20.8547122 11.1181867,21.4438829 C11.9181867,21.7121756 12.7608533,21.8506146 13.61312,21.8506146 M13.5576533,3.29012683 C17.2568533,3.29012683 20.8440533,5.26798049 22.7448533,8.75900488 C24.6232533,12.2113951 24.37792,16.2701268 22.43552,19.4005659 L28.70752,39.0471024 C28.9144533,39.710322 28.5549867,40.4164683 27.8968533,40.6235902 C27.7688533,40.6654439 27.6397867,40.684761 27.5117867,40.684761 C27.1405867,40.684761 26.7864533,40.5173463 26.5496533,40.2361756 L13.4776533,24.3350049 C9.80938667,24.2963707 6.27765333,22.3185171 4.39818667,18.8650537 C1.62805333,13.7728585 3.48832,7.37139512 8.54858667,4.58329756 C10.1400533,3.70651707 11.8605867,3.29012683 13.5576533,3.29012683" id="Fill-17" fill="#F2F8FA" mask="url(#mask-2)"></path>
                    </g>
                    <path d="M34.0246766,10.1539576 C35.0422384,12.0123319 35.2429746,14.1216934 34.7229823,16.0217209 C34.2051256,18.0755449 32.8565626,19.9221708 30.847065,21.023311 C28.838635,22.1244511 26.5568622,22.2643632 24.5473645,21.5947077 C22.6670641,21.0094266 20.9992451,19.7032244 19.9816833,17.8459182 C18.7281497,15.5549913 18.7110658,12.909478 19.7254243,10.7104018 C20.4013074,9.17457299 21.5811666,7.83953401 23.1582272,6.97549678 C24.7683879,6.09437105 26.5611332,5.82949932 28.2406974,6.1029153 C30.6089576,6.47779425 32.7892946,7.89507163 34.0246766,10.1539576" id="Fill-20" fill="#E2EFF3"></path>
                </g>
            </g>
        </g>
    </g>
</svg>