<?xml version="1.0" encoding="UTF-8"?>
<svg width="238px" height="125px" viewBox="0 0 238 125" version="1.1" xmlns="http://www.w3.org/2000/svg" xmlns:xlink="http://www.w3.org/1999/xlink">
    <!-- Generator: Sketch 51.1 (57501) - http://www.bohemiancoding.com/sketch -->
    <title>Page 1</title>
    <desc>Created with Sketch.</desc>
    <defs>
        <polygon id="path-1" points="0.3077 0.045 129.3367 0.045 129.3367 24.5307 0.3077 24.5307"></polygon>
        <polygon id="path-3" points="0.9294 0.9288 113.842 0.9288 113.842 22.3558 0.9294 22.3558"></polygon>
        <polygon id="path-5" points="0 0.605 112.9128 0.605 112.9128 22.033 0 22.033"></polygon>
        <path d="M58.924,2.065 L30.841,50.945 L0.413,96.501 L122.634,96.501 L64.133,2.065 C63.555,0.944 62.542,0.383 61.528,0.383 C60.515,0.383 59.502,0.944 58.924,2.065 Z" id="path-7"></path>
        <path d="M58.924,2.065 L30.841,50.945 L0.413,96.501 L122.634,96.501 L64.133,2.065 C63.555,0.944 62.542,0.383 61.528,0.383 C60.515,0.383 59.502,0.944 58.924,2.065" id="path-9"></path>
        <path d="M58.924,2.065 L30.841,50.945 L0.413,96.501 L122.634,96.501 L64.133,2.065 C63.555,0.944 62.542,0.383 61.528,0.383 C60.515,0.383 59.502,0.944 58.924,2.065" id="path-11"></path>
    </defs>
    <g id="2.-What-is-NaNoWriMo?,-The-Platform,-Young-Writers-Program,-Programming-&amp;-Impact" stroke="none" stroke-width="1" fill="none" fill-rule="evenodd">
        <g id="2c.-Programming-and-Impact---v3" transform="translate(-80.000000, -1591.000000)">
            <g id="Published-Authors" transform="translate(80.000000, 1590.000000)">
                <g id="Page-1">
                    <g id="Group-12" transform="translate(0.000000, 0.955000)">
                        <g id="Group-3" transform="translate(88.000000, 0.000000)">
                            <mask id="mask-2" fill="white">
                                <use xlink:href="#path-1"></use>
                            </mask>
                            <g id="Clip-2"></g>
                            <path d="M114.9797,19.6457 C113.6737,13.8697 108.5127,9.5527 102.3377,9.5527 C101.4437,9.5527 100.5717,9.6437 99.7297,9.8147 C98.4057,10.0847 97.0927,9.4697 96.3427,8.3447 C93.0097,3.3467 87.3187,0.0447 80.8627,0.0447 C74.7647,0.0447 69.3487,2.9917 65.9587,7.5317 C65.1517,8.6127 63.7097,9.0397 62.4307,8.6097 C61.1367,8.1757 59.7497,7.9397 58.3117,7.9397 C52.2617,7.9397 47.2007,12.0707 45.7697,17.6687 C45.4767,18.8147 44.4907,19.6457 43.3077,19.6457 L40.9187,19.6457 C39.6337,19.6457 38.6077,18.5737 38.6657,17.2897 C38.9587,10.6377 34.3937,4.5047 27.8147,3.4787 C19.7347,2.2197 12.7657,8.4397 12.7657,16.2817 C12.7657,17.4487 12.9197,18.5707 13.1967,19.6457 L2.7507,19.6457 C1.4017,19.6457 0.3077,20.7387 0.3077,22.0877 C0.3077,23.4367 1.4017,24.5307 2.7507,24.5307 L15.7307,24.5307 L35.7317,24.5307 L45.8847,24.5307 L63.2277,24.5307 L70.7547,24.5307 L89.5267,24.5307 L98.4977,24.5307 L115.1487,24.5307 L126.8947,24.5307 C128.2437,24.5307 129.3367,23.4367 129.3367,22.0877 C129.3367,20.7387 128.2437,19.6457 126.8947,19.6457 L114.9797,19.6457 Z" id="Fill-1" fill="#FFFFFF" mask="url(#mask-2)"></path>
                        </g>
                        <g id="Group-6" transform="translate(124.000000, 49.000000)">
                            <mask id="mask-4" fill="white">
                                <use xlink:href="#path-3"></use>
                            </mask>
                            <g id="Clip-5"></g>
                            <path d="M13.4924,18.0818 C14.6354,13.0268 19.1514,9.2498 24.5554,9.2498 C25.3384,9.2498 26.1004,9.3288 26.8384,9.4788 C27.9964,9.7148 29.1454,9.1768 29.8014,8.1928 C32.7184,3.8188 37.6994,0.9288 43.3474,0.9288 C48.6834,0.9288 53.4244,3.5078 56.3904,7.4808 C57.0964,8.4268 58.3584,8.7998 59.4774,8.4248 C60.6104,8.0448 61.8254,7.8378 63.0824,7.8378 C68.3774,7.8378 72.8054,11.4528 74.0574,16.3518 C74.3144,17.3548 75.1774,18.0818 76.2134,18.0818 L78.3034,18.0818 C79.4284,18.0818 80.3254,17.1438 80.2754,16.0198 C80.0184,10.1988 84.0134,4.8318 89.7704,3.9348 C96.8414,2.8318 102.9394,8.2748 102.9394,15.1378 C102.9394,16.1598 102.8054,17.1408 102.5624,18.0818 L111.7044,18.0818 C112.8854,18.0818 113.8424,19.0388 113.8424,20.2188 C113.8424,21.3998 112.8854,22.3558 111.7044,22.3558 L100.3454,22.3558 L82.8434,22.3558 L73.9574,22.3558 L58.7804,22.3558 L52.1934,22.3558 L35.7654,22.3558 L27.9164,22.3558 L13.3444,22.3558 L3.0654,22.3558 C1.8854,22.3558 0.9294,21.3998 0.9294,20.2188 C0.9294,19.0388 1.8854,18.0818 3.0654,18.0818 L13.4924,18.0818 Z" id="Fill-4" fill="#FFFFFF" mask="url(#mask-4)"></path>
                        </g>
                        <g id="Group-9" transform="translate(0.000000, 31.000000)">
                            <mask id="mask-6" fill="white">
                                <use xlink:href="#path-5"></use>
                            </mask>
                            <g id="Clip-8"></g>
                            <path d="M100.3498,17.758 C99.2068,12.704 94.6908,8.926 89.2868,8.926 C88.5038,8.926 87.7408,9.005 87.0038,9.155 C85.8448,9.391 84.6968,8.853 84.0398,7.869 C81.1228,3.495 76.1428,0.605 70.4938,0.605 C65.1578,0.605 60.4168,3.184 57.4508,7.157 C56.7448,8.103 55.4838,8.476 54.3648,8.101 C53.2318,7.721 52.0168,7.515 50.7588,7.515 C45.4648,7.515 41.0358,11.13 39.7838,16.029 C39.5268,17.031 38.6638,17.758 37.6288,17.758 L35.5378,17.758 C34.4128,17.758 33.5158,16.82 33.5658,15.696 C33.8228,9.875 29.8288,4.508 24.0708,3.611 C16.9998,2.509 10.9018,7.952 10.9018,14.814 C10.9018,15.836 11.0368,16.817 11.2788,17.758 L2.1368,17.758 C0.9568,17.758 -0.0002,18.715 -0.0002,19.895 C-0.0002,21.076 0.9568,22.033 2.1368,22.033 L13.4958,22.033 L30.9988,22.033 L39.8838,22.033 L55.0608,22.033 L61.6478,22.033 L78.0758,22.033 L85.9258,22.033 L100.4968,22.033 L110.7758,22.033 C111.9558,22.033 112.9128,21.076 112.9128,19.895 C112.9128,18.715 111.9558,17.758 110.7758,17.758 L100.3498,17.758 Z" id="Fill-7" fill="#FFFFFF" mask="url(#mask-6)"></path>
                        </g>
                        <path d="M76.841,77.9455 L104.924,29.0655 C106.08,26.8215 108.978,26.8225 110.133,29.0655 L168.634,123.5005 L46.413,123.5005 L76.841,77.9455" id="Fill-10" fill="#A5D9E4"></path>
                    </g>
                    <g id="Group-22" transform="translate(46.000000, 27.955000)">
                        <g id="Group-15">
                            <mask id="mask-8" fill="white">
                                <use xlink:href="#path-7"></use>
                            </mask>
                            <g id="Clip-14"></g>
                            <path d="M78.8606,-4.1985 L78.8606,26.2615 C75.9706,26.2615 75.9706,29.1315 73.0706,29.1315 C70.1806,29.1315 71.0216,30.0995 68.1316,30.0995 C65.2516,30.0995 64.5286,27.6925 61.6376,27.6925 C58.7486,27.6925 58.6316,26.2615 55.7516,26.2615 C51.3236,26.2615 43.3916,35.1455 43.5846,46.0245 C43.7666,56.2765 40.2156,62.5085 37.0866,64.6375 C33.9656,66.7685 31.0016,68.7615 27.5606,67.6415 C24.1216,66.5115 19.6806,58.2015 19.6806,58.2015 L34.9406,31.4515 L39.3106,20.7615 L44.1616,21.4715 L43.9406,-4.1985 L78.8606,-4.1985 Z" id="Fill-13" fill="#E2EFF3" mask="url(#mask-8)"></path>
                        </g>
                        <g id="Group-18">
                            <mask id="mask-10" fill="white">
                                <use xlink:href="#path-9"></use>
                            </mask>
                            <g id="Clip-17"></g>
                            <path d="M61.5237,1.7063 C61.5237,1.7063 56.0567,11.6943 63.6117,16.3053 C71.1677,20.9153 76.4607,31.3953 68.9907,30.2633 C61.5207,29.1313 54.0067,20.0183 46.4527,34.4893 C38.8967,48.9603 47.3487,51.7653 66.1727,48.4413 C84.9987,45.1183 99.0847,61.6383 91.7857,67.2723 C84.4857,72.9073 40.5617,76.6213 33.2617,79.9503 C25.9617,83.2803 13.0287,96.5003 13.0287,96.5003" id="Stroke-16" stroke="#4088B2" stroke-width="2" stroke-linecap="round" stroke-linejoin="round" stroke-dasharray="2,4,2,4,2,4" mask="url(#mask-10)"></path>
                        </g>
                        <g id="Group-21">
                            <mask id="mask-12" fill="white">
                                <use xlink:href="#path-11"></use>
                            </mask>
                            <g id="Clip-20"></g>
                            <path d="M51.7356,49.5925 C55.4216,49.9205 60.2906,49.4805 66.1736,48.4415 C84.9986,45.1185 99.0846,61.6375 91.7856,67.2725 C84.4856,72.9065 40.5616,76.6205 33.2616,79.9505 C25.9626,83.2805 13.0286,96.5005 13.0286,96.5005" id="Stroke-19" stroke="#4088B2" stroke-width="3" stroke-linecap="round" stroke-linejoin="round" mask="url(#mask-12)"></path>
                        </g>
                    </g>
                    <g id="Group-41" transform="translate(46.000000, 8.955000)">
                        <path d="M30.841,69.9455 L58.924,21.0655 C60.08,18.8215 62.978,18.8225 64.133,21.0655 L122.634,115.5005 L0.413,115.5005 L30.841,69.9455" id="Stroke-23" stroke="#2F3061" stroke-width="2" stroke-linecap="round" stroke-linejoin="round"></path>
                        <path d="M78.3303,9.0803 L64.4943,11.1463 C63.9073,11.2343 63.3593,10.8293 63.2713,10.2423 L62.4673,4.8503 L77.4303,2.6143 C77.8263,2.5553 78.1043,2.9963 77.8803,3.3293 L76.1283,5.9233 C75.9903,6.1273 76.0383,6.4043 76.2363,6.5513 L78.5363,8.2533 C78.8663,8.4973 78.7363,9.0193 78.3303,9.0803" id="Fill-25" fill="#CC3E3E"></path>
                        <path d="M72.7932,6.7502 L59.8812,8.6782 L58.9172,2.2232 L70.5572,0.4842 C71.2592,0.3792 71.9142,0.8632 72.0192,1.5662 L72.7932,6.7502 Z" id="Fill-27" fill="#FF6B6B"></path>
                        <path d="M58.9172,2.2229 L61.3972,18.8329" id="Stroke-29" stroke="#2F3061" stroke-width="2" stroke-linecap="round" stroke-linejoin="round"></path>
                        <path d="M78.5364,8.2536 L76.2364,6.5516 C76.0384,6.4046 75.9904,6.1276 76.1284,5.9226 L77.8804,3.3286 C78.1044,2.9966 77.8264,2.5556 77.4304,2.6146 L72.2904,3.3826 L72.0184,1.5666 C71.9144,0.8636 71.2594,0.3786 70.5574,0.4836 L58.9174,2.2226 L59.8814,8.6786 L62.9704,8.2176 L63.2714,10.2416 C63.3594,10.8296 63.9074,11.2346 64.4944,11.1466 L78.3304,9.0806 C78.7364,9.0196 78.8664,8.4976 78.5364,8.2536 Z" id="Stroke-31" stroke="#2F3061" stroke-linecap="round" stroke-linejoin="round"></path>
                        <path d="M45.3459,36.8488 L50.0829,65.4388 C50.1729,65.9848 49.8049,66.4998 49.2599,66.5898 C48.7399,66.6758 48.2449,66.3408 48.1229,65.8368 L41.3549,37.6578 C41.0919,36.5638 41.7659,35.4638 42.8609,35.2008 C43.9539,34.9378 45.0549,35.6118 45.3179,36.7058 C45.3279,36.7518 45.3379,36.8028 45.3459,36.8488" id="Fill-33" fill="#2F3061"></path>
                        <path d="M15.9192,59.7922 L39.5612,55.0002 C40.5652,54.7972 41.2142,53.8182 41.0102,52.8142 L39.1432,43.6002 L13.5732,48.7822 C12.8962,48.9192 12.7042,49.7972 13.2642,50.2052 L17.6292,53.3782 C17.9742,53.6292 18.0602,54.1062 17.8242,54.4612 L15.0982,58.5732 C14.7062,59.1642 15.2252,59.9332 15.9192,59.7922" id="Fill-35" fill="#CC3E3E"></path>
                        <path d="M23.5227,52.757 L45.5857,48.285 L43.3507,37.254 L23.4607,41.284 C22.2597,41.528 21.4837,42.698 21.7267,43.899 L23.5227,52.757 Z" id="Fill-37" fill="#FF6B6B"></path>
                        <path d="M15.0979,58.5735 L17.8249,54.4615 C18.0599,54.1065 17.9739,53.6295 17.6289,53.3785 L13.2639,50.2045 C12.7039,49.7975 12.8949,48.9195 13.5739,48.7825 L22.3569,47.0025 L21.7269,43.8995 C21.4839,42.6985 22.2599,41.5285 23.4599,41.2845 L43.3509,37.2535 L45.5859,48.2855 L40.3089,49.3545 L41.0099,52.8145 C41.2139,53.8185 40.5649,54.7975 39.5609,55.0005 L15.9179,59.7925 C15.2249,59.9325 14.7069,59.1635 15.0979,58.5735 Z" id="Stroke-39" stroke="#2F3061" stroke-width="2" stroke-linecap="round" stroke-linejoin="round"></path>
                    </g>
                </g>
            </g>
        </g>
    </g>
</svg>