<?xml version="1.0" encoding="UTF-8"?>
<svg width="284px" height="117px" viewBox="0 0 284 117" version="1.1" xmlns="http://www.w3.org/2000/svg" xmlns:xlink="http://www.w3.org/1999/xlink">
    <!-- Generator: Sketch 51 (57462) - http://www.bohemiancoding.com/sketch -->
    <title>Logo</title>
    <desc>Created with Sketch.</desc>
    <defs>
        <path d="M0.998973611,0 L257.001026,0 L257.000073,83.8938227 C257.000035,87.2075312 254.313713,89.8937921 251.000004,89.8937544 C250.874838,89.893753 250.749703,89.889835 250.624782,89.882006 L129.37529,82.2831695 C129.125342,82.267505 128.874658,82.267505 128.62471,82.2831695 L7.37521757,89.882006 C4.06799753,90.0892731 1.21894282,87.5762647 1.01167578,84.2690446 C1.00384685,84.1441238 0.999928803,84.0189886 0.99992738,83.8938227 L0.998973611,0 Z" id="path-1"></path>
        <filter x="-8.8%" y="-21.7%" width="117.6%" height="150.1%" filterUnits="objectBoundingBox" id="filter-2">
            <feOffset dx="0" dy="3" in="SourceAlpha" result="shadowOffsetOuter1"></feOffset>
            <feGaussianBlur stdDeviation="7" in="shadowOffsetOuter1" result="shadowBlurOuter1"></feGaussianBlur>
            <feColorMatrix values="0 0 0 0 0.184313725   0 0 0 0 0.188235294   0 0 0 0 0.380392157  0 0 0 0.1 0" type="matrix" in="shadowBlurOuter1"></feColorMatrix>
        </filter>
        <polygon id="path-3" points="0 0.517879623 51.3204877 0.517879623 51.3204877 53 0 53"></polygon>
    </defs>
    <g id="Symbols" stroke="none" stroke-width="1" fill="none" fill-rule="evenodd">
        <g id="Desktop/Nav" transform="translate(-67.000000, -25.000000)">
            <g id="Logo" transform="translate(80.000000, 36.000000)">
                <g id="Background">
                    <use fill="black" fill-opacity="1" filter="url(#filter-2)" xlink:href="#path-1"></use>
                    <use fill="#FFFFFF" fill-rule="evenodd" xlink:href="#path-1"></use>
                </g>
                <g id="Logo-Lockup" transform="translate(29.000000, 7.000000)">
                    <g id="Group-3" transform="translate(0.000000, 15.250000)">
                        <mask id="mask-4" fill="white">
                            <use xlink:href="#path-3"></use>
                        </mask>
                        <g id="Clip-2"></g>
                        <path d="M17.6444,2.7296 C17.3714,2.7376 17.0954,2.7466 16.8074,2.7466 C14.1304,2.7466 11.9294,2.2296 10.4054,1.7116 C9.6444,1.4556 9.0494,1.1976 8.6584,1.0146 C8.4634,0.9186 8.3164,0.8406 8.2244,0.7906 C8.1764,0.7636 8.1444,0.7456 8.1224,0.7316 L8.1034,0.7226 C7.5684,0.4066 6.8304,0.4596 6.3824,0.8596 L0.3414,6.2026 C-0.0516,6.5516 -0.1106,7.0606 0.1904,7.4596 C0.1904,7.4596 0.2274,7.5106 0.3114,7.6326 C0.9164,8.4976 3.4424,12.5016 3.4364,17.4766 C3.4494,19.3626 2.9974,23.3086 2.2724,24.9246 C1.4774,26.7786 0.5034,30.8966 0.4904,34.4926 C0.4904,34.9836 0.5124,35.4686 0.5534,35.9336 C0.8664,38.9946 2.8814,43.6726 6.9984,46.5166 C8.8734,47.7936 10.4744,48.4466 11.9334,48.8176 C13.3944,49.1926 14.6314,49.2906 15.8784,49.5436 C18.0184,49.9706 20.1204,50.5406 21.7484,51.1196 C22.5634,51.4086 23.2534,51.7026 23.7524,51.9626 C24.2534,52.2146 24.5494,52.4696 24.5594,52.4996 C24.7934,52.8106 25.2084,53.0006 25.6594,53.0006 L25.6664,53.0006 C26.1134,53.0006 26.5314,52.8076 26.7644,52.4996 C26.7734,52.4696 27.0684,52.2146 27.5664,51.9626 C29.0814,51.1636 32.2424,50.1796 35.4414,49.5436 C36.6924,49.2906 37.9254,49.1926 39.3874,48.8176 C40.8484,48.4466 42.4514,47.7936 44.3214,46.5166 C48.4424,43.6726 50.4554,38.9946 50.7654,35.9336 C50.8104,35.4686 50.8294,34.9836 50.8294,34.4886 C50.8174,30.8906 49.8454,26.7786 49.0534,24.9246 C48.3264,23.3086 47.8764,19.3626 47.8874,17.4766 C47.8874,14.6346 48.7074,12.1086 49.5254,10.3026 C49.9334,9.4026 50.3464,8.6806 50.6484,8.1876 C50.7994,7.9426 50.9234,7.7576 51.0094,7.6326 C51.0974,7.5106 51.1344,7.4596 51.1304,7.4596 C51.4294,7.0606 51.3734,6.5516 50.9784,6.2026 L44.9414,0.8596 C44.4914,0.4596 43.7514,0.4066 43.2184,0.7226 L43.2014,0.7316 C42.8974,0.9116 39.5294,2.7516 34.5154,2.7466 C34.2244,2.7466 33.9484,2.7376 33.6744,2.7296 L17.6444,2.7296 Z" id="Fill-1" fill="#542F1A" mask="url(#mask-4)"></path>
                    </g>
                    <path d="M33.5863,20.0778 C33.8903,20.0858 34.1963,20.0938 34.5153,20.0938 C38.9433,20.0908 42.2153,18.8798 43.7613,18.1668 L48.4503,22.3188 C47.4693,23.8628 45.3133,27.7938 45.3033,32.7268 C45.3183,34.8558 45.6933,38.7088 46.6163,40.8718 C47.2673,42.3498 48.2573,46.4798 48.2453,49.7388 C48.2453,50.1878 48.2273,50.6228 48.1913,51.0288 C47.9883,53.5178 46.0153,57.9268 42.6673,60.1578 C40.9913,61.2878 39.7673,61.7688 38.6103,62.0678 C37.4593,62.3668 36.2893,62.4658 34.8273,62.7558 C32.5523,63.2108 30.3343,63.8088 28.5333,64.4508 C27.6363,64.7728 26.8363,65.1038 26.1703,65.4508 C25.9923,65.5418 25.8213,65.6388 25.6613,65.7348 C25.5003,65.6388 25.3283,65.5418 25.1493,65.4508 C23.1723,64.4268 19.9173,63.4488 16.4963,62.7558 C15.0363,62.4658 13.8663,62.3668 12.7103,62.0678 C11.5563,61.7688 10.3353,61.2878 8.6583,60.1578 C5.3053,57.9268 3.3313,53.5178 3.1303,51.0268 C3.0953,50.6228 3.0773,50.1878 3.0773,49.7428 C3.0653,46.4838 4.0523,42.3498 4.7103,40.8758 C5.6313,38.7088 6.0063,34.8558 6.0213,32.7268 C6.0093,27.7918 3.8543,23.8628 2.8723,22.3188 L7.5593,18.1668 C9.1083,18.8798 12.3803,20.0908 16.8073,20.0938 C17.1253,20.0938 17.4303,20.0858 17.7333,20.0778 L33.5863,20.0778 Z" id="Fill-4" fill="#A3DBE6"></path>
                    <path d="M25.3378,23.4538 L25.3378,41.6718 L7.1848,41.6718 C7.0058,41.6718 6.8628,41.8138 6.8628,41.9948 C6.8628,42.1688 7.0058,42.3128 7.1848,42.3128 L25.3378,42.3128 L25.3378,62.5108 C25.3378,62.6918 25.4838,62.8298 25.6618,62.8298 C25.8378,62.8298 25.9838,62.6918 25.9838,62.5108 L25.9838,42.3128 L44.1398,42.3128 C44.3158,42.3128 44.4588,42.1688 44.4588,41.9948 C44.4588,41.8138 44.3158,41.6718 44.1398,41.6718 L25.9838,41.6718 L25.9838,23.4568 L25.3378,23.4538 Z" id="Fill-6" fill="#542F1A"></path>
                    <path d="M15.6698,27.3761 C15.5488,27.2821 15.5248,27.1061 15.6228,26.9851 C15.8328,26.7051 15.9368,26.4031 15.9368,26.1051 C15.9368,25.8011 15.8328,25.4951 15.6448,25.2471 L15.6198,25.2231 C15.3338,24.8551 15.1858,24.4231 15.1888,23.9971 C15.1858,23.5651 15.3338,23.1341 15.6228,22.7671 C15.7158,22.6451 15.8938,22.6231 16.0158,22.7191 C16.1368,22.8151 16.1618,22.9921 16.0658,23.1171 C15.8508,23.3861 15.7508,23.6931 15.7508,23.9971 C15.7508,24.2961 15.8508,24.5971 16.0448,24.8511 L16.0658,24.8811 C16.3518,25.2461 16.5008,25.6731 16.5008,26.1051 C16.5008,26.5341 16.3548,26.9591 16.0658,27.3281 L16.0708,27.3281 C16.0118,27.3981 15.9268,27.4371 15.8438,27.4371 C15.7848,27.4371 15.7218,27.4171 15.6698,27.3761" id="Fill-8" fill="#542F1A"></path>
                    <path d="M14.309,27.3761 C14.188,27.2841 14.162,27.1021 14.261,26.9821 C14.471,26.7051 14.573,26.4021 14.573,26.1051 C14.573,25.7991 14.471,25.4981 14.283,25.2501 L14.259,25.2231 C13.972,24.8551 13.824,24.4231 13.826,23.9951 C13.824,23.5651 13.972,23.1341 14.261,22.7701 C14.355,22.6471 14.533,22.6231 14.653,22.7191 C14.775,22.8201 14.8,22.9891 14.704,23.1171 C14.49,23.3901 14.39,23.6931 14.39,23.9951 C14.39,24.2961 14.49,24.6001 14.683,24.8461 L14.704,24.8811 C14.991,25.2461 15.142,25.6681 15.136,26.1051 C15.142,26.5301 14.992,26.9641 14.704,27.3311 L14.707,27.3311 C14.65,27.3981 14.565,27.4371 14.48,27.4371 C14.424,27.4371 14.361,27.4171 14.309,27.3761" id="Fill-10" fill="#542F1A"></path>
                    <path d="M12.951,27.3825 C12.826,27.2845 12.802,27.1065 12.897,26.9825 C13.109,26.7055 13.212,26.4035 13.212,26.1005 C13.212,25.7995 13.109,25.4955 12.995,25.3065 L12.896,25.2235 C12.611,24.8555 12.462,24.4225 12.464,23.9975 C12.462,23.5695 12.611,23.1335 12.897,22.7675 C12.995,22.6455 13.171,22.6255 13.292,22.7195 C13.414,22.8205 13.439,22.9915 13.344,23.1165 C13.127,23.3865 13.029,23.6895 13.029,23.9975 C13.029,24.2965 13.127,24.6005 13.246,24.7985 L13.346,24.8775 C13.631,25.2455 13.777,25.6735 13.777,26.1005 C13.777,26.5295 13.631,26.9645 13.346,27.3285 L13.346,27.3305 C13.289,27.4025 13.207,27.4375 13.122,27.4375 C13.065,27.4375 13.002,27.4185 12.951,27.3825" id="Fill-12" fill="#542F1A"></path>
                    <path d="M42.4218,38.1618 C42.4218,38.3798 42.1058,38.5608 41.7148,38.5608 L29.8378,38.5608 C29.4458,38.5608 29.1238,38.3798 29.1238,38.1618 L29.1238,38.9098 C29.1238,39.1328 29.4458,39.3088 29.8378,39.3088 L41.7148,39.3088 C42.1058,39.3088 42.4218,39.1328 42.4218,38.9098 L42.4218,38.1618 Z" id="Fill-14" fill="#542F1A"></path>
                    <path d="M41.201,34.0817 C41.201,33.8637 40.944,33.6847 40.623,33.6847 L30.93,33.6847 C30.605,33.6847 30.348,33.8637 30.348,34.0817 L29.123,37.9057 C29.123,38.1277 29.446,38.3067 29.838,38.3067 L41.715,38.3067 C42.106,38.3067 42.422,38.1277 42.422,37.9057 L41.201,34.0817 Z" id="Fill-16" fill="#542F1A"></path>
                    <polygon id="Fill-18" fill="#FFFFFF" points="40.7543 35.5822 40.9383 36.2482 38.7723 36.2482 38.6863 35.5822"></polygon>
                    <polygon id="Fill-20" fill="#FFFFFF" points="40.4354 34.3844 40.6174 35.0534 39.5604 35.0534 39.4404 34.3844"></polygon>
                    <polygon id="Fill-22" fill="#FFFFFF" points="37.6683 34.3844 37.7333 35.0564 37.0093 35.0564 36.9863 34.3844"></polygon>
                    <polygon id="Fill-24" fill="#FFFFFF" points="36.8436 36.2477 36.0366 36.2477 36.0516 35.5787 36.8106 35.5787"></polygon>
                    <polygon id="Fill-26" fill="#FFFFFF" points="35.7635 34.3844 36.4415 34.3844 36.4555 35.0564 35.7345 35.0564"></polygon>
                    <polygon id="Fill-28" fill="#FFFFFF" points="34.535 34.382 35.219 34.382 35.185 35.054 34.454 35.054"></polygon>
                    <polygon id="Fill-30" fill="#FFFFFF" points="35.4979 35.5822 35.4729 36.2482 34.6669 36.2482 34.7339 35.5822"></polygon>
                    <polygon id="Fill-32" fill="#FFFFFF" points="33.3168 34.3844 33.9918 34.3844 33.9038 35.0564 33.1848 35.0564"></polygon>
                    <polygon id="Fill-34" fill="#FFFFFF" points="34.1796 35.5783 34.1056 36.2473 33.3006 36.2473 33.4206 35.5783"></polygon>
                    <polygon id="Fill-36" fill="#FFFFFF" points="32.0927 34.382 32.7647 34.382 32.6267 35.054 31.9087 35.054"></polygon>
                    <polygon id="Fill-38" fill="#FFFFFF" points="32.8636 35.5822 32.7346 36.2482 31.9376 36.2482 32.1066 35.5822"></polygon>
                    <polygon id="Fill-40" fill="#FFFFFF" points="31.1761 34.3844 31.5361 34.3844 31.3491 35.0564 30.9561 35.0564"></polygon>
                    <polygon id="Fill-42" fill="#FFFFFF" points="30.7982 35.5822 31.5392 35.5822 31.3652 36.2482 30.5752 36.2482"></polygon>
                    <polygon id="Fill-44" fill="#FFFFFF" points="30.6503 37.507 30.1443 37.507 30.3623 36.835 30.8413 36.835"></polygon>
                    <polygon id="Fill-46" fill="#FFFFFF" points="32.1185 37.507 31.2415 37.507 31.4245 36.835 32.2575 36.835"></polygon>
                    <polygon id="Fill-48" fill="#FFFFFF" points="32.7001 37.507 32.8291 36.835 37.9111 36.835 37.9771 37.507"></polygon>
                    <polygon id="Fill-50" fill="#FFFFFF" points="37.4017 36.2477 37.3667 35.5787 38.1247 35.5787 38.2047 36.2477"></polygon>
                    <polygon id="Fill-52" fill="#FFFFFF" points="38.2137 34.3844 38.8917 34.3844 39.0087 35.0534 38.2827 35.0534"></polygon>
                    <polygon id="Fill-54" fill="#FFFFFF" points="38.5551 37.507 38.4811 36.835 39.3191 36.835 39.4401 37.507"></polygon>
                    <polygon id="Fill-56" fill="#FFFFFF" points="40.0184 37.507 39.8934 36.835 41.0994 36.835 41.2834 37.507"></polygon>
                    <path d="M39.7382,25.0319 L31.8152,25.0319 C31.1272,25.0319 30.5702,25.5859 30.5702,26.2719 L30.5702,32.1429 C30.5702,32.8259 31.1252,33.3849 31.8152,33.3849 L39.7382,33.3849 C40.4212,33.3849 40.9762,32.8259 40.9762,32.1429 L40.9792,32.1429 L40.9792,26.2719 C40.9762,25.5859 40.4212,25.0319 39.7382,25.0319" id="Fill-58" fill="#542F1A"></path>
                    <path d="M40.2152,32.1427 C40.2152,32.3997 39.9972,32.6157 39.7382,32.6157 L31.8152,32.6157 C31.5482,32.6157 31.3372,32.3997 31.3372,32.1427 L31.3372,26.2717 C31.3372,26.0107 31.5482,25.7997 31.8152,25.7997 L39.7382,25.7997 C39.9972,25.7997 40.2152,26.0107 40.2152,26.2717 L40.2152,32.1427 Z" id="Fill-60" fill="#FFFFFF"></path>
                    <path d="M32.2904,27.1022 C32.1334,27.1022 32.0084,26.9822 32.0084,26.8262 C32.0084,26.6682 32.1334,26.5432 32.2904,26.5432 L39.2454,26.5432 C39.4014,26.5432 39.5294,26.6682 39.5294,26.8262 C39.5294,26.9822 39.4014,27.1022 39.2454,27.1022 L32.2904,27.1022 Z" id="Fill-62" fill="#542F1A"></path>
                    <path d="M32.2924,28.3029 C32.1334,28.3029 32.0084,28.1779 32.0084,28.0199 C32.0084,27.8639 32.1334,27.7369 32.2924,27.7369 L36.8934,27.7369 C37.0514,27.7369 37.1774,27.8639 37.1774,28.0199 C37.1774,28.1779 37.0514,28.3029 36.8934,28.3029 L32.2924,28.3029 Z" id="Fill-64" fill="#542F1A"></path>
                    <path d="M32.2904,29.4997 C32.1334,29.4997 32.0084,29.3747 32.0084,29.2217 C32.0084,29.0637 32.1334,28.9387 32.2904,28.9387 L38.2174,28.9387 C38.3704,28.9387 38.4944,29.0637 38.4944,29.2217 C38.4944,29.3747 38.3704,29.4997 38.2174,29.4997 L32.2904,29.4997 Z" id="Fill-66" fill="#542F1A"></path>
                    <path d="M32.2904,30.7028 C32.1334,30.7028 32.0084,30.5768 32.0084,30.4198 C32.0084,30.2658 32.1334,30.1388 32.2904,30.1388 L35.8634,30.1388 C36.0214,30.1388 36.1454,30.2658 36.1454,30.4198 C36.1454,30.5768 36.0214,30.7028 35.8634,30.7028 L32.2904,30.7028 Z" id="Fill-68" fill="#542F1A"></path>
                    <path d="M32.2924,31.8981 C32.1334,31.8981 32.0084,31.7711 32.0084,31.6151 C32.0084,31.4601 32.1334,31.3351 32.2924,31.3351 L38.0274,31.3351 C38.1844,31.3351 38.3084,31.4601 38.3084,31.6151 C38.3084,31.7711 38.1844,31.8981 38.0274,31.8981 L32.2924,31.8981 Z" id="Fill-70" fill="#542F1A"></path>
                    <path d="M18.9779,33.3258 C19.0479,33.3148 19.1219,33.3048 19.1969,33.3048 C19.8779,33.3048 20.4199,33.8388 20.4199,34.4928 C20.4199,35.1498 19.8759,35.6868 19.1969,35.6868 C19.1219,35.6868 19.0479,35.6768 18.9779,35.6648 L18.9779,33.3258 Z M19.1969,31.3748 C19.1239,31.3748 19.0499,31.3798 18.9779,31.3858 L18.9779,30.1418 C18.8529,28.8078 16.8689,28.2228 14.5519,28.1778 C12.2359,28.2228 10.2489,28.8078 10.1239,30.1418 L10.1239,38.3298 C10.2489,39.6658 12.2359,40.2518 14.5519,40.2988 C16.8689,40.2518 18.8529,39.6658 18.9779,38.3298 L18.9779,37.6048 C19.0499,37.6108 19.1239,37.6158 19.1969,37.6158 C20.9479,37.6128 22.3739,36.2218 22.3739,34.4928 C22.3739,32.7678 20.9479,31.3788 19.1969,31.3748 Z" id="Fill-72" fill="#542F1A"></path>
                    <path d="M11.7518,29.2526 C12.4438,28.9696 13.4458,28.7876 14.5518,28.7876 C15.6578,28.7876 16.6568,28.9696 17.3548,29.2526 C18.0668,29.5316 18.3908,29.9126 18.3668,30.1426 C18.3688,30.1656 18.3648,30.1916 18.3598,30.2156 C18.3578,30.2286 18.3548,30.2406 18.3528,30.2526 C18.3458,30.2766 18.3368,30.3006 18.3238,30.3246 C18.3198,30.3336 18.3158,30.3426 18.3118,30.3506 C18.2948,30.3796 18.2758,30.4076 18.2528,30.4406 C18.2478,30.4476 18.2438,30.4536 18.2378,30.4596 C18.2118,30.4906 18.1828,30.5246 18.1488,30.5566 C18.1418,30.5636 18.1368,30.5696 18.1288,30.5766 C18.0958,30.6086 18.0558,30.6416 18.0138,30.6716 C18.0048,30.6806 17.9958,30.6886 17.9868,30.6966 C17.9448,30.7286 17.8968,30.7576 17.8478,30.7876 C17.8348,30.7966 17.8228,30.8056 17.8088,30.8146 C17.7578,30.8446 17.7008,30.8746 17.6438,30.9056 C17.6278,30.9146 17.6138,30.9196 17.5978,30.9286 C17.6728,30.8916 17.7418,30.8556 17.8048,30.8156 C17.2238,30.2636 15.9748,30.1026 14.5518,30.0506 C13.1298,30.1056 11.8818,30.2646 11.2998,30.8156 C11.2138,30.7666 11.1418,30.7136 11.0748,30.6616 C11.0628,30.6526 11.0508,30.6416 11.0388,30.6326 C10.9888,30.5896 10.9448,30.5476 10.9068,30.5056 C10.8978,30.4956 10.8868,30.4846 10.8778,30.4756 C10.8368,30.4266 10.8038,30.3796 10.7798,30.3336 C10.7768,30.3266 10.7758,30.3226 10.7728,30.3176 C10.7538,30.2796 10.7438,30.2436 10.7388,30.2086 C10.7348,30.1866 10.7308,30.1626 10.7328,30.1426 C10.7108,29.9126 11.0368,29.5316 11.7518,29.2526" id="Fill-74" fill="#FFFFFF"></path>
                    <path d="M17.3549,39.2228 C16.6569,39.5028 15.6579,39.6918 14.5519,39.6918 C13.4459,39.6918 12.4439,39.5028 11.7519,39.2228 C11.0369,38.9428 10.7109,38.5628 10.7329,38.3298 L10.7329,31.1728 C10.7339,31.1758 10.7359,31.1758 10.7389,31.1768 C10.8239,31.2448 10.9199,31.3068 11.0219,31.3668 C11.0539,31.3848 11.0869,31.4018 11.1199,31.4188 C11.2009,31.4628 11.2839,31.5038 11.3709,31.5418 C11.4039,31.5568 11.4379,31.5738 11.4719,31.5878 C11.5919,31.6378 11.7169,31.6828 11.8489,31.7248 C11.8749,31.7338 11.9019,31.7398 11.9269,31.7478 C12.0399,31.7838 12.1549,31.8148 12.2749,31.8428 C12.3189,31.8538 12.3629,31.8638 12.4079,31.8738 C12.5289,31.9018 12.6529,31.9248 12.7819,31.9478 C12.8109,31.9528 12.8399,31.9608 12.8709,31.9658 C13.0269,31.9908 13.1889,32.0108 13.3549,32.0328 C13.3959,32.0358 13.4369,32.0398 13.4779,32.0458 C13.6089,32.0578 13.7439,32.0698 13.8799,32.0798 C13.9269,32.0828 13.9749,32.0858 14.0229,32.0898 C14.1969,32.0988 14.3719,32.1078 14.5519,32.1118 C14.7309,32.1078 14.9049,32.0988 15.0789,32.0898 C15.1299,32.0858 15.1799,32.0828 15.2299,32.0788 C15.3599,32.0698 15.4879,32.0578 15.6139,32.0458 C15.6619,32.0398 15.7089,32.0358 15.7559,32.0308 C15.9159,32.0108 16.0729,31.9908 16.2239,31.9678 C16.2689,31.9608 16.3109,31.9488 16.3539,31.9418 C16.4639,31.9238 16.5729,31.9018 16.6789,31.8778 C16.7339,31.8648 16.7899,31.8518 16.8449,31.8398 C16.9449,31.8128 17.0429,31.7878 17.1389,31.7578 C17.1789,31.7468 17.2219,31.7348 17.2639,31.7218 C17.3899,31.6808 17.5079,31.6378 17.6229,31.5898 C17.6629,31.5738 17.7009,31.5548 17.7409,31.5378 C17.8229,31.5008 17.9039,31.4608 17.9799,31.4198 C18.0129,31.4028 18.0469,31.3858 18.0779,31.3668 C18.1809,31.3058 18.2789,31.2438 18.3669,31.1748 L18.3669,38.3298 C18.3909,38.5628 18.0669,38.9428 17.3549,39.2228" id="Fill-76" fill="#FFFFFF"></path>
                    <path d="M19.1971,37.0553 C19.1221,37.0553 19.0511,37.0403 18.9781,37.0343 L18.9781,36.2263 C19.0501,36.2343 19.1221,36.2473 19.1971,36.2473 C20.1771,36.2453 20.9761,35.4673 20.9791,34.4933 C20.9761,33.5213 20.1771,32.7453 19.1971,32.7433 C19.1221,32.7433 19.0501,32.7573 18.9781,32.7653 L18.9781,31.9553 C19.0511,31.9483 19.1221,31.9343 19.1971,31.9343 C20.6471,31.9343 21.8111,33.0813 21.8111,34.4933 C21.8111,35.9043 20.6471,37.0553 19.1971,37.0553" id="Fill-78" fill="#FFFFFF"></path>
                    <path d="M21.0233,46.4318 C21.1673,46.2458 21.2243,46.0638 21.2243,45.9028 C21.2093,45.6228 21.0833,45.4878 21.0473,45.4638 L20.8663,45.2778 C20.8453,45.2578 20.6883,45.0988 20.4113,45.0968 C20.2543,45.0968 20.0733,45.1538 19.8883,45.2988 C19.4373,45.6578 17.8593,46.8948 15.0743,49.6828 C12.2853,52.4698 9.4993,55.4378 8.6553,57.1898 L8.6483,57.2268 C8.6513,57.2448 8.6643,57.2638 8.6733,57.2828 L8.6453,57.3278 L8.3823,57.7398 C8.3823,57.7398 8.3653,57.7808 8.3613,57.8268 C8.3613,57.8458 8.3653,57.8778 8.3983,57.9168 L8.4613,57.9468 L8.5853,57.9308 L8.9923,57.6758 L9.0433,57.6368 C9.0833,57.6528 9.1223,57.6718 9.1613,57.6758 L9.2033,57.6658 C10.8833,56.8208 13.8483,54.0338 16.6423,51.2488 C18.0993,49.7908 19.1323,48.6638 19.8383,47.8568 C19.9323,47.9998 19.9673,48.3118 19.8873,48.4438 C18.9653,49.9728 18.1743,50.4218 18.1743,50.4218 C18.1743,50.4218 17.9773,50.4908 17.8733,50.4668 C17.7703,50.4458 17.7193,50.5478 17.5913,50.6818 C17.4643,50.8148 17.3933,51.0758 17.4873,51.1688 C17.7123,51.3848 19.1893,49.8398 19.1893,49.8398 C20.5783,48.3898 20.6213,46.9338 20.6213,46.9338 L21.0233,46.4318 Z" id="Fill-80" fill="#542F1A"></path>
                    <path d="M8.4525,46.9337 C8.4525,46.9337 8.4945,48.3897 9.8835,49.8397 C9.8835,49.8397 11.3615,51.3847 11.5855,51.1687 C11.6805,51.0757 11.6075,50.8147 11.4805,50.6817 C11.3535,50.5477 11.3035,50.4457 11.2005,50.4667 C11.0955,50.4907 10.8985,50.4217 10.8985,50.4217 C10.8985,50.4217 10.1085,49.9727 9.1845,48.4437 C9.1065,48.3117 9.1405,47.9997 9.2345,47.8567 C9.9415,48.6637 10.9735,49.7907 12.4315,51.2487 C15.2235,54.0337 18.1895,56.8207 19.8705,57.6657 L19.9125,57.6757 C19.9495,57.6717 19.9905,57.6527 20.0315,57.6367 L20.0805,57.6757 L20.4885,57.9307 L20.6115,57.9467 L20.6745,57.9167 C20.7065,57.8777 20.7105,57.8457 20.7105,57.8267 C20.7065,57.7807 20.6915,57.7397 20.6915,57.7397 L20.4295,57.3277 L20.4015,57.2827 C20.4085,57.2637 20.4205,57.2457 20.4255,57.2267 L20.4165,57.1897 C19.5735,55.4377 16.7875,52.4697 13.9985,49.6827 C11.2135,46.8947 9.6365,45.6577 9.1835,45.2987 C8.9995,45.1537 8.8175,45.0967 8.6605,45.0967 C8.3845,45.0987 8.2275,45.2577 8.2085,45.2777 L8.0245,45.4637 C7.9895,45.4877 7.8635,45.6227 7.8485,45.9027 C7.8485,46.0637 7.9065,46.2457 8.0505,46.4317 L8.4525,46.9337 Z" id="Fill-82" fill="#542F1A"></path>
                    <path d="M42.5946,45.7794 C42.5456,45.7164 42.4676,45.6854 42.3896,45.6994 L40.0746,46.1354 C40.6846,45.1154 40.8866,44.0194 40.8976,44.0144 C40.9116,43.9454 40.8906,43.8734 40.8406,43.8244 C40.7936,43.7744 40.7216,43.7544 40.6546,43.7664 L35.2596,44.7824 C35.1526,44.8014 35.0776,44.9044 35.0906,45.0114 C35.0906,45.0114 35.1126,45.1914 35.1126,45.4754 C35.1096,45.7194 35.0876,46.0264 35.0326,46.3464 L30.1586,47.2654 C30.0946,47.2754 30.0386,47.3204 30.0096,47.3774 C29.9796,47.4354 29.9796,47.5054 30.0086,47.5624 C30.0136,47.5774 30.1736,47.8914 30.5466,48.2114 L30.1166,48.2914 C30.0416,48.3064 29.9796,48.3584 29.9576,48.4314 C29.9316,48.5054 29.9486,48.5824 30.0006,48.6394 C30.0066,48.6474 30.1736,48.8284 30.4826,49.0544 L29.9196,49.1604 C29.9166,49.1624 29.9146,49.1634 29.9116,49.1634 C29.8796,49.1714 29.8466,49.1864 29.8206,49.2074 C29.8176,49.2104 29.8156,49.2154 29.8136,49.2174 C29.8066,49.2264 29.8036,49.2324 29.7986,49.2394 C29.7776,49.2644 29.7636,49.2954 29.7586,49.3284 C29.7566,49.3324 29.7506,49.3364 29.7506,49.3414 C29.7506,49.3454 29.7526,49.3464 29.7526,49.3494 C29.7516,49.3544 29.7496,49.3604 29.7496,49.3654 L29.7496,56.7444 C29.7496,56.7474 29.7506,56.7474 29.7506,56.7494 C29.7506,56.7824 29.7636,56.8154 29.7796,56.8444 C29.7836,56.8504 29.7886,56.8584 29.7936,56.8664 C29.8146,56.8944 29.8406,56.9184 29.8766,56.9354 L35.4096,59.3474 L35.5316,59.3624 L40.9266,58.3484 C40.9716,58.3394 41.0086,58.3134 41.0366,58.2824 C41.0416,58.2774 41.0476,58.2734 41.0506,58.2694 C41.0766,58.2364 41.0896,58.1984 41.0926,58.1544 C41.0926,58.1494 41.0966,58.1474 41.0966,58.1414 L41.0966,50.7644 C41.0966,50.7264 41.0856,50.6964 41.0696,50.6674 C41.0676,50.6614 41.0646,50.6574 41.0616,50.6524 C41.0396,50.6204 41.0116,50.5924 40.9746,50.5754 C40.9726,50.5754 40.9716,50.5714 40.9706,50.5714 L37.8726,49.2194 L38.3666,49.1374 L38.3666,49.1384 C41.3556,48.6514 42.6066,46.0144 42.6166,45.9964 C42.6506,45.9244 42.6436,45.8414 42.5946,45.7794" id="Fill-84" fill="#542F1A"></path>
                    <path d="M35.1708,47.3629 C35.2008,47.2979 35.2238,47.2299 35.2498,47.1649 C35.2648,47.1239 35.2818,47.0809 35.2958,47.0389 C35.3198,46.9639 35.3418,46.8899 35.3618,46.8169 C35.3788,46.7529 35.3948,46.6899 35.4088,46.6269 C35.4138,46.6069 35.4208,46.5889 35.4228,46.5699 C35.4238,46.5649 35.4218,46.5609 35.4228,46.5579 C35.5088,46.1449 35.5338,45.7559 35.5308,45.4749 C35.5308,45.3509 35.5258,45.2439 35.5228,45.1589 L40.4128,44.2379 C40.3338,44.5269 40.1878,44.9879 39.9558,45.4729 C39.8308,45.7349 39.6778,45.9969 39.5038,46.2429 L36.9968,46.7159 C36.9188,46.7289 36.8568,46.7859 36.8358,46.8599 C36.8358,46.8599 36.8108,46.9399 36.7538,47.0719 L36.5128,47.5429 C36.4778,47.6019 36.4418,47.6609 36.3998,47.7239 L34.6928,48.1039 C34.7018,48.0929 34.7078,48.0839 34.7148,48.0739 C34.7608,48.0239 34.7978,47.9709 34.8398,47.9149 C34.8588,47.8899 34.8788,47.8649 34.8978,47.8399 L35.1708,47.3629 Z" id="Fill-86" fill="#FFFFFF"></path>
                    <path d="M31.0643,48.9377 C30.8803,48.8287 30.7303,48.7197 30.6123,48.6257 L31.0333,48.5487 C31.4203,48.7617 31.9303,48.9247 32.5903,48.9247 C32.7213,48.9247 32.8583,48.9157 33.0003,48.9037 L33.0223,48.9037 C33.1893,48.8837 33.3423,48.8527 33.4883,48.8147 C33.5383,48.7997 33.5893,48.7857 33.6383,48.7707 C33.6613,48.7637 33.6873,48.7577 33.7093,48.7507 L36.0033,48.2407 C35.5633,48.7307 34.9273,49.2097 34.0133,49.4387 C33.8533,49.4667 33.6963,49.4987 33.5253,49.5117 C33.4003,49.5217 33.2813,49.5287 33.1643,49.5287 C32.2743,49.5287 31.5593,49.2357 31.0643,48.9377" id="Fill-88" fill="#FFFFFF"></path>
                    <path d="M34.9354,46.7931 C34.9124,46.8691 34.8844,46.9411 34.8564,47.0161 C34.8514,47.0351 34.8464,47.0501 34.8394,47.0651 L34.8394,47.0661 C34.6824,47.4691 34.4434,47.8421 34.0654,48.1061 L34.0644,48.1061 C33.9524,48.1851 33.8234,48.2491 33.6854,48.3081 L33.6844,48.3081 C33.6374,48.3271 33.5864,48.3431 33.5374,48.3601 L33.5364,48.3601 C33.3674,48.4161 33.1864,48.4631 32.9794,48.4851 C32.8424,48.4981 32.7134,48.5051 32.5904,48.5051 C32.4214,48.5051 32.2714,48.4871 32.1304,48.4631 C32.0214,48.4491 31.9234,48.4261 31.8274,48.4041 C31.4054,48.2931 31.0844,48.1161 30.8594,47.9321 C30.7264,47.8191 30.6234,47.7101 30.5484,47.6181 L34.9354,46.7931 Z" id="Fill-90" fill="#FFFFFF"></path>
                    <polygon id="Fill-92" fill="#FFFFFF" points="30.1678 50.8927 35.4098 53.1777 35.5318 53.1917 40.6778 52.2247 40.6778 53.0327 35.5168 54.0017 30.1678 51.6687"></polygon>
                    <polygon id="Fill-94" fill="#FFFFFF" points="30.1678 54.5944 35.4108 56.8784 35.5318 56.8934 40.6778 55.9254 40.6778 56.7354 35.5178 57.7044 30.1678 55.3724"></polygon>
                    <polygon id="Fill-96" fill="#FFFFFF" points="35.5175 58.9401 30.1675 56.6071 30.1675 55.8291 35.4105 58.1141 35.5315 58.1281 40.6775 57.1601 40.6785 57.9671"></polygon>
                    <polygon id="Fill-98" fill="#FFFFFF" points="35.5175 56.4709 30.1675 54.1379 30.1675 53.3609 35.4105 55.6459 35.5315 55.6589 40.6775 54.6929 40.6775 55.4999"></polygon>
                    <polygon id="Fill-100" fill="#FFFFFF" points="35.5184 55.2355 30.1674 52.9025 30.1674 52.1265 35.4104 54.4125 35.5314 54.4255 40.6774 53.4585 40.6774 54.2645"></polygon>
                    <polygon id="Fill-102" fill="#FFFFFF" points="40.6776 51.797 35.5176 52.77 30.1676 50.436 30.1676 49.684 35.4106 51.97 35.5326 51.984 40.6766 51.015"></polygon>
                    <path d="M40.1796,50.6818 L35.5176,51.5618 L30.6656,49.4468 L30.9996,49.3818 C31.5346,49.6738 32.2646,49.9448 33.1646,49.9478 C33.2306,49.9478 33.3016,49.9408 33.3696,49.9368 C33.3936,49.9478 33.8466,49.9088 34.0236,49.8688 L37.1166,49.3468 L40.1796,50.6818 Z" id="Fill-104" fill="#FFFFFF"></path>
                    <path d="M41.3051,47.1022 C40.6611,47.7782 39.6771,48.5052 38.2991,48.7242 L38.2981,48.7242 L35.5751,49.1832 C36.0321,48.8612 36.3711,48.4832 36.6241,48.1342 C36.6271,48.1292 36.6311,48.1232 36.6361,48.1202 C36.7721,47.9282 36.8821,47.7482 36.9681,47.5872 C36.9941,47.5392 37.0201,47.4892 37.0431,47.4452 C37.1111,47.3062 37.1621,47.1852 37.1931,47.1052 L37.7141,47.0052 L37.7311,47.0042 L42.0201,46.1962 C41.8671,46.4332 41.6321,46.7602 41.3051,47.1022" id="Fill-106" fill="#FFFFFF"></path>
                    <g id="Group-111" transform="translate(10.000000, 0.250000)">
                        <path d="M7.9066,16.7721 C4.9596,15.0181 -1.1714,10.1111 1.3706,0.6601 C1.3706,0.6601 1.5146,-0.0629 2.3536,0.0041 C2.8626,0.0441 3.0906,0.4001 3.0716,0.9881 C3.0216,2.6481 2.5376,8.8611 9.7326,12.3371" id="Fill-108" fill="#FFFFFF"></path>
                        <path d="M7.9066,16.7721 C4.9596,15.0181 -1.1714,10.1111 1.3706,0.6601 C1.3706,0.6601 1.5146,-0.0629 2.3536,0.0041 C2.8626,0.0441 3.0906,0.4001 3.0716,0.9881 C3.0216,2.6481 2.5376,8.8611 9.7326,12.3371" id="Stroke-110" stroke="#542F1A" stroke-width="0.5" stroke-linecap="round" stroke-linejoin="round"></path>
                    </g>
                    <g id="Group-115" transform="translate(31.000000, 0.250000)">
                        <path d="M2.2098,16.756 C5.1658,14.992 11.2558,10.088 8.7208,0.66 C8.7208,0.66 8.5788,-0.063 7.7378,0.005 C7.2298,0.044 7.0028,0.4 7.0208,0.988 C7.0718,2.645 7.5508,8.831 0.4138,12.312" id="Fill-112" fill="#FFFFFF"></path>
                        <path d="M2.2098,16.756 C5.1658,14.992 11.2558,10.088 8.7208,0.66 C8.7208,0.66 8.5788,-0.063 7.7378,0.005 C7.2298,0.044 7.0028,0.4 7.0208,0.988 C7.0718,2.645 7.5508,8.831 0.4138,12.312" id="Stroke-114" stroke="#542F1A" stroke-width="0.5" stroke-linecap="round" stroke-linejoin="round"></path>
                    </g>
                    <path d="M25.7865,23.2838 C25.7865,23.2838 33.3085,23.6288 33.5395,19.4648 C33.7715,15.2998 31.4575,12.2118 30.4535,10.9778 C29.4515,9.7438 27.9085,8.5868 25.6715,8.5868 L25.6595,8.5868 C23.4225,8.5868 21.8785,9.7438 20.8765,10.9778 C19.8735,12.2118 17.5585,15.2998 17.7895,19.4648 C18.0215,23.6288 25.5445,23.2838 25.5445,23.2838 L25.7865,23.2838 Z" id="Fill-116" fill="#A3DBE6"></path>
                    <path d="M25.7865,23.2838 C25.7865,23.2838 33.3085,23.6288 33.5395,19.4648 C33.7715,15.2998 31.4575,12.2118 30.4535,10.9778 C29.4515,9.7438 27.9085,8.5868 25.6715,8.5868 L25.6595,8.5868 C23.4225,8.5868 21.8785,9.7438 20.8765,10.9778 C19.8735,12.2118 17.5585,15.2998 17.7895,19.4648 C18.0215,23.6288 25.5445,23.2838 25.5445,23.2838 L25.7865,23.2838 Z" id="Stroke-118" stroke="#542F1A" stroke-width="0.377"></path>
                    <path d="M22.7313,9.465 C23.0003,9.663 23.2683,9.974 23.2683,10.436 C23.2683,11.363 23.1133,17.459 23.0363,17.998 C22.9593,18.537 22.9593,19.232 22.2643,19.155 C21.7073,19.094 18.9723,18.834 17.9503,17.778" id="Stroke-120" stroke="#542F1A" stroke-width="0.377" stroke-linecap="round" stroke-linejoin="round"></path>
                    <path d="M28.6302,9.4435 C28.3512,9.6375 28.0642,9.9565 28.0642,10.4355 C28.0642,11.3625 28.2152,17.4585 28.2952,17.9985 C28.3712,18.5375 28.3712,19.2325 29.0662,19.1545 C29.6442,19.0905 32.5692,18.8155 33.4882,17.6535" id="Stroke-122" stroke="#542F1A" stroke-width="0.377" stroke-linecap="round" stroke-linejoin="round"></path>
                    <path d="M26.3988,10.4147 C26.3988,10.7527 26.0708,11.0257 25.6648,11.0257 C25.2588,11.0257 24.9308,10.7527 24.9308,10.4147 C24.9308,10.0777 25.2588,9.8027 25.6648,9.8027 C26.0708,9.8027 26.3988,10.0777 26.3988,10.4147 Z" id="Stroke-124" stroke="#FFFFFF" stroke-width="0.377" stroke-linecap="round" stroke-linejoin="round"></path>
                    <path d="M26.3988,15.4919 C26.3988,15.8979 26.0708,16.2259 25.6648,16.2259 C25.2588,16.2259 24.9308,15.8979 24.9308,15.4919 C24.9308,15.0859 25.2588,14.7579 25.6648,14.7579 C26.0708,14.7579 26.3988,15.0859 26.3988,15.4919 Z" id="Stroke-126" stroke="#FFFFFF" stroke-width="0.377" stroke-linecap="round" stroke-linejoin="round"></path>
                    <path d="M25.7865,23.2838 C25.7865,23.2838 33.3085,23.6288 33.5395,19.4648 C33.7715,15.2998 31.4575,12.2118 30.4535,10.9778 C29.4515,9.7438 27.9085,8.5868 25.6715,8.5868 L25.6595,8.5868 C23.4225,8.5868 21.8785,9.7438 20.8765,10.9778 C19.8735,12.2118 17.5585,15.2998 17.7895,19.4648 C18.0215,23.6288 25.5445,23.2838 25.5445,23.2838 L25.7865,23.2838 Z" id="Stroke-128" stroke="#542F1A" stroke-width="0.377" stroke-linecap="round" stroke-linejoin="round"></path>
                    <path d="M26.3988,21.2428 C26.3988,21.6468 26.0708,21.9758 25.6648,21.9758 C25.2588,21.9758 24.9308,21.6468 24.9308,21.2428 C24.9308,20.8378 25.2588,20.5068 25.6648,20.5068 C26.0708,20.5068 26.3988,20.8378 26.3988,21.2428 Z" id="Stroke-130" stroke="#FFFFFF" stroke-width="0.377" stroke-linecap="round" stroke-linejoin="round"></path>
                    <polygon id="Fill-132" fill="#FFFFFF" points="15.0511 50.0417 15.4121 49.6787 16.6461 50.9147 16.2851 51.2747"></polygon>
                    <path d="M8.975,57.1906 C9.204,56.7526 9.575,56.2146 10.048,55.6086 L10.712,56.2936 C10.113,56.7686 9.586,57.1376 9.165,57.3606 C9.122,57.3396 9.059,57.3046 9.061,57.3106 L9.059,57.3076 L9.036,57.2716 C9.02,57.2636 9.007,57.2296 8.975,57.1906" id="Fill-134" fill="#FFFFFF"></path>
                    <polygon id="Fill-136" fill="#FFFFFF" points="12.787 51.2751 12.428 50.9141 13.661 49.6791 14.023 50.0421"></polygon>
                    <path d="M20.0365,57.2716 L20.0135,57.3076 L20.0115,57.3106 C20.0135,57.3046 19.9505,57.3396 19.9085,57.3606 C19.4875,57.1376 18.9595,56.7686 18.3605,56.2926 L19.0235,55.6086 C19.4995,56.2146 19.8695,56.7526 20.0985,57.1906 C20.0675,57.2296 20.0535,57.2636 20.0365,57.2716" id="Fill-138" fill="#FFFFFF"></path>
                    <path d="M72.7382,44.5485 L72.7382,37.7395 C72.7382,36.6955 72.7162,36.4455 71.4892,36.4455 L70.6272,36.4455 L70.6272,34.2895 L77.3232,34.2895 L77.3232,36.4455 L76.7792,36.4455 C75.6212,36.4455 75.5302,36.6495 75.5302,37.7395 L75.5302,49.5205 L70.3092,49.5205 L64.3852,38.6015 L64.3852,46.0475 C64.3852,47.1375 64.4762,47.3645 65.6342,47.3645 L66.3142,47.3645 L66.3142,49.5205 L59.5952,49.5205 L59.5952,47.3645 L60.3442,47.3645 C61.5032,47.3645 61.6152,47.1375 61.6152,46.0475 L61.6152,37.7395 C61.6152,36.6495 61.5032,36.4455 60.3442,36.4455 L59.5952,36.4455 L59.5952,34.2895 L67.1312,34.2895 L72.7382,44.5485 Z" id="Fill-140" fill="#542F1A"></path>
                    <path d="M81.7943,46.4787 C81.7943,47.0907 82.2713,47.5447 82.9743,47.5447 C83.8143,47.5447 84.3813,46.9787 84.3813,46.0017 L84.3813,45.9337 L84.3593,44.5487 C82.7253,45.4347 81.7943,45.6167 81.7943,46.4787 M80.9323,49.9067 C78.6623,49.9067 77.3903,48.8167 77.3903,46.8867 C77.3903,44.7537 78.6393,44.1177 81.3633,43.6417 C83.3603,43.3017 84.3143,43.0747 84.3143,41.6897 C84.3143,40.6227 83.5423,39.8967 82.2023,39.8967 C81.7493,39.8967 81.3173,40.0327 80.8633,40.2817 C81.6583,40.5087 82.0443,40.9847 82.0443,41.7347 C82.0443,42.6647 81.2723,43.3017 80.0693,43.3017 C78.6393,43.3017 77.8443,42.5967 77.8443,41.3947 C77.8443,39.6017 79.7513,38.4207 83.3153,38.4207 C85.3583,38.4207 86.8333,38.7837 87.5373,39.2597 C88.6493,40.0097 88.7853,40.8957 88.7853,42.3697 L88.7853,46.5017 C88.7853,46.9787 88.8313,47.1817 89.2393,47.1817 C89.6703,47.1817 89.7163,46.9337 89.7163,46.5017 L89.7163,45.2077 L91.2143,45.2077 L91.2143,46.6147 C91.2143,48.9297 90.2613,49.9067 87.8093,49.9067 C86.4703,49.9067 85.5173,49.4297 84.8363,48.3857 C84.0643,49.3607 82.6793,49.9067 80.9323,49.9067" id="Fill-142" fill="#542F1A"></path>
                    <path d="M105.3724,44.5485 L105.3724,37.7395 C105.3724,36.6955 105.3494,36.4455 104.1234,36.4455 L103.2604,36.4455 L103.2604,34.2895 L109.9564,34.2895 L109.9564,36.4455 L109.4124,36.4455 C108.2544,36.4455 108.1644,36.6495 108.1644,37.7395 L108.1644,49.5205 L102.9434,49.5205 L97.0184,38.6015 L97.0184,46.0475 C97.0184,47.1375 97.1104,47.3645 98.2684,47.3645 L98.9484,47.3645 L98.9484,49.5205 L92.2284,49.5205 L92.2284,47.3645 L92.9784,47.3645 C94.1354,47.3645 94.2484,47.1375 94.2484,46.0475 L94.2484,37.7395 C94.2484,36.6495 94.1354,36.4455 92.9784,36.4455 L92.2284,36.4455 L92.2284,34.2895 L99.7654,34.2895 L105.3724,44.5485 Z" id="Fill-144" fill="#542F1A"></path>
                    <path d="M116.4027,40.5089 C115.0857,40.5089 114.7457,41.6429 114.7457,44.1639 C114.7457,46.6829 115.0857,47.8169 116.4477,47.8169 C117.7877,47.8169 118.1057,46.6829 118.1057,44.1639 C118.1057,41.6429 117.7647,40.5089 116.4027,40.5089 M122.9397,44.1639 C122.9397,47.7039 120.4657,49.9059 116.4257,49.9059 C112.3617,49.9059 109.9337,47.7489 109.9337,44.1639 C109.9337,40.5769 112.3617,38.3979 116.4027,38.3979 C120.4657,38.3979 122.9397,40.6229 122.9397,44.1639" id="Fill-146" fill="#542F1A"></path>
                    <path d="M128.6854,36.4455 C128.0274,36.4455 127.7314,36.5815 127.7314,37.0125 C127.7314,37.2635 127.7774,37.4675 127.8234,37.6035 L129.9784,45.3205 L131.7494,38.1255 C131.5224,36.8325 131.1364,36.4685 129.8654,36.4455 L129.8654,34.2895 L137.3794,34.2895 L137.3794,36.4455 L136.8794,36.4455 C136.0844,36.4455 135.7444,36.5365 135.7444,37.0125 C135.7444,37.2165 135.7894,37.4225 135.8354,37.6035 L137.7194,45.3205 L139.6714,37.5805 C139.7394,37.3315 139.7624,37.1495 139.7624,37.0125 C139.7624,36.5135 139.4214,36.4455 138.4914,36.4455 L138.4914,34.2895 L144.3024,34.2895 L144.3024,36.4455 C143.3264,36.4455 142.8944,36.8535 142.6004,37.9215 L139.4214,49.5205 L134.5864,49.5205 L133.0894,43.3225 L131.5454,49.5205 L126.6644,49.5205 L123.5334,38.3295 C123.1694,37.0595 122.6474,36.4685 121.6254,36.4455 L121.6254,34.2895 L128.6854,34.2895 L128.6854,36.4455 Z" id="Fill-148" fill="#542F1A"></path>
                    <path d="M151.8597,38.4206 C153.5167,38.4206 154.5377,39.4866 154.5377,41.0536 C154.5377,42.4386 153.6757,43.3226 152.4267,43.3226 C151.4047,43.3226 150.6567,42.5966 150.6567,41.6666 C150.6567,41.0076 150.9737,40.5316 151.6547,40.1906 C151.4737,40.1456 151.3147,40.1226 151.1557,40.1226 C149.9987,40.1226 149.2037,41.2576 149.2037,43.3006 L149.2037,46.4556 C149.2037,47.3176 149.3857,47.5236 150.2707,47.5236 L150.9977,47.5236 L150.9977,49.5206 L143.2787,49.5206 L143.2787,47.5236 L143.6647,47.5236 C144.5507,47.5236 144.7327,47.3176 144.7327,46.4556 L144.7327,41.8706 C144.7327,41.0076 144.5507,40.8036 143.6647,40.8036 L143.2787,40.8036 L143.2787,38.8066 L149.0897,38.8066 L149.0897,39.8506 C149.8617,38.8966 150.7927,38.4206 151.8597,38.4206" id="Fill-150" fill="#542F1A"></path>
                    <path d="M158.4647,33.8351 C159.5997,33.8351 160.5077,34.7661 160.5077,35.9011 C160.5077,37.0361 159.5997,37.9431 158.4647,37.9431 C157.3067,37.9431 156.4207,37.0591 156.4207,35.9011 C156.4207,34.7431 157.3297,33.8351 158.4647,33.8351 M162.0737,47.5231 L162.4587,47.5231 L162.4587,49.5201 L155.0147,49.5201 L155.0147,47.5231 L155.4687,47.5231 C156.3537,47.5231 156.5347,47.3181 156.5347,46.4561 L156.5347,41.8701 C156.5347,41.0081 156.3537,40.8041 155.4687,40.8041 L155.0147,40.8041 L155.0147,38.8071 L161.0067,38.8071 L161.0067,46.4561 C161.0067,47.3181 161.1887,47.5231 162.0737,47.5231" id="Fill-152" fill="#542F1A"></path>
                    <path d="M186.0448,36.446 L185.2968,36.446 C184.0948,36.446 184.0478,36.673 184.0478,37.739 L184.0478,46.048 C184.0478,47.114 184.0948,47.364 185.2968,47.364 L186.0448,47.364 L186.0448,49.52 L177.6928,49.52 L177.6928,47.364 L178.2608,47.364 C179.5078,47.364 179.5078,47.069 179.5078,46.048 L179.5078,36.786 L175.6038,49.52 L172.0408,49.52 L168.3398,36.809 L168.3398,46.048 C168.3398,47.137 168.4318,47.364 169.5888,47.364 L170.1568,47.364 L170.1568,49.52 L163.3248,49.52 L163.3248,47.364 L164.0278,47.364 C165.1858,47.364 165.2748,47.137 165.2748,46.048 L165.2748,37.739 C165.2748,36.65 165.1858,36.446 164.0278,36.446 L163.3248,36.446 L163.3248,34.29 L171.8588,34.29 L174.4458,43.369 L177.2388,34.29 L186.0448,34.29 L186.0448,36.446 Z" id="Fill-154" fill="#542F1A"></path>
                    <path d="M193.0585,40.5089 C191.7415,40.5089 191.4015,41.6429 191.4015,44.1639 C191.4015,46.6829 191.7415,47.8179 193.1035,47.8179 C194.4435,47.8179 194.7615,46.6829 194.7615,44.1639 C194.7615,41.6429 194.4195,40.5089 193.0585,40.5089 M199.5955,44.1639 C199.5955,47.7039 197.1205,49.9059 193.0805,49.9059 C189.0175,49.9059 186.5885,47.7489 186.5885,44.1639 C186.5885,40.5769 189.0175,38.3979 193.0585,38.3979 C197.1205,38.3979 199.5955,40.6219 199.5955,44.1639" id="Fill-156" fill="#542F1A"></path>
                </g>
            </g>
        </g>
    </g>
</svg>