<?xml version="1.0" encoding="UTF-8"?>
<svg width="68px" height="92px" viewBox="0 0 68 92" version="1.1" xmlns="http://www.w3.org/2000/svg" xmlns:xlink="http://www.w3.org/1999/xlink">
    <!-- Generator: Sketch 51.1 (57501) - http://www.bohemiancoding.com/sketch -->
    <title>NaNo-Shield-Logo</title>
    <desc>Created with Sketch.</desc>
    <defs></defs>
    <g id="2.-What-is-NaNoWriMo?,-The-Platform,-Young-Writers-Program,-Programming-&amp;-Impact" stroke="none" stroke-width="1" fill="none" fill-rule="evenodd">
        <g id="2.-What-Is-NaNoWriMo---v3" transform="translate(-233.000000, -2061.000000)" fill-rule="nonzero">
            <g id="History" transform="translate(0.000000, 1217.000000)">
                <g id="Group-2" transform="translate(80.000000, 202.000000)">
                    <g id="Group-23" transform="translate(78.000000, 52.000000)">
                        <g id="NaNo-Shield-Logo" transform="translate(75.000000, 590.000000)">
                            <path d="M23.4434302,23.7287287 L22.343246,23.7287287 C19.4559774,23.7363309 16.5867809,23.2621795 13.8483815,22.3249029 C13.046149,22.0792367 12.2574397,21.7894306 11.4856909,21.4567475 L10.9085451,21.1427338 L10.7642587,21.1427338 L10.8183661,21.1427338 C10.0904931,20.7156552 9.18145597,20.7889616 8.52781876,21.3274477 L0.447777745,28.4389337 C-0.0607248304,28.854661 -0.149084051,29.6115133 0.249383881,30.1383017 L0.411706133,30.3784298 C3.00216943,34.3443936 4.44062592,38.9817613 4.55994148,43.7517177 C4.54898212,47.1870114 4.02592841,50.6004529 3.00886217,53.8740406 C1.51771071,58.0175102 0.718964579,62.3886992 0.646171609,66.8040151 C0.646171609,67.4689852 0.646171609,68.1339553 0.646171609,68.7619826 C1.44678079,74.5517608 4.53853479,79.7489707 9.19514358,83.1327257 C11.168195,84.5709038 13.3806681,85.6287444 15.7241053,86.254391 C17.6719723,86.7715899 19.3312665,86.9008897 20.9725248,87.2518461 C23.6481798,87.7884049 26.2823075,88.5230311 28.8541719,89.4499418 C29.7677573,89.7706219 30.6594938,90.1532092 31.5234712,90.5951681 C31.9114937,90.7791913 32.2702251,91.0220458 32.5875838,91.3155524 C32.9431697,91.7651085 33.4838815,92.0180655 34.048484,91.9989939 C34.6130865,92.0180655 35.1537983,91.7651085 35.5093843,91.3155524 C35.8228282,91.0169116 36.1823962,90.7734908 36.5734968,90.5951681 C39.9121046,89.0716385 43.4185224,87.9676382 47.0162284,87.3072603 C48.6755226,86.9563039 50.3167809,86.8270041 52.2466121,86.3098051 C54.5958074,85.6846995 56.8142931,84.6269062 58.7936096,83.1881399 C63.4502184,79.8043849 66.5419724,74.6071749 67.3425816,68.8173968 C67.3425816,68.1893695 67.3425816,67.5243994 67.3425816,66.8594293 C67.2853121,62.444179 66.4923669,58.0713559 64.9979269,53.9294548 C63.9733165,50.6576961 63.4500784,47.2430513 63.4468476,43.8071319 C63.4893695,40.4342856 64.2333413,37.109458 65.6291801,34.0542369 C66.0653097,33.0701988 66.5591912,32.1140957 67.1081161,31.1911711 C67.2579554,30.930538 67.4204824,30.6777772 67.5950829,30.433844 L67.7574051,30.1937159 C68.1517703,29.6621238 68.0552871,28.9045545 67.5409755,28.4943479 L59.5511135,21.2350908 C58.8974763,20.6966047 57.9884392,20.6232982 57.2605661,21.0503768 C53.6910096,22.9018318 49.7365482,23.8398522 45.7356862,23.7841429 L23.4434302,23.7841429 L23.4434302,23.7287287 Z" id="Shape" fill="#54301A"></path>
                            <path d="M44.4147051,27.428745 L45.636793,27.428745 C49.8463027,27.4651483 54.0142197,26.5764402 57.8576721,24.8229366 L64.057971,30.4382702 C61.4265211,34.6354006 59.9834773,39.4940278 59.8884946,44.4766043 C59.8985677,48.2220098 60.5055653,51.9407754 61.6856827,55.4870624 C63.0394834,59.327688 63.7621118,63.3704325 63.8243366,67.4517602 C63.8243366,68.0573354 63.8243366,68.6445598 63.8243366,69.2868365 C63.1158082,74.227303 60.4850269,78.6668824 56.5277529,81.6001989 C54.8985008,82.7841829 53.071413,83.6547993 51.1361886,84.1693057 C49.6085787,84.5730225 48.0629969,84.7198286 46.1400056,85.1051947 C43.2988461,85.6265724 40.4995193,86.3626262 37.7651091,87.3072863 C36.6945378,87.6818168 35.6498166,88.1293596 34.6380018,88.646892 L33.9730422,89.0322581 L33.2901107,88.646892 C29.6443994,86.9428444 25.8047011,85.7099367 21.8599944,84.9767393 C19.9370031,84.5913733 18.3914213,84.4445672 16.8638114,84.0408504 C14.928587,83.5263439 13.1014992,82.6557276 11.4722471,81.4717435 C7.52549388,78.5418707 4.89142066,74.1208744 4.15769156,69.1950827 C4.15769156,68.6445598 4.15769156,68.0573354 4.15769156,67.3600064 C4.22436474,63.2775143 4.95311073,59.23452 6.31431728,55.3953086 C7.49443473,51.8490216 8.10143231,48.130256 8.11150538,44.3848505 C8.00818284,39.4036254 6.56580874,34.5472531 3.94202899,30.3465164 L10.1423279,24.7311828 C13.9857803,26.4846864 18.1536973,27.3733944 22.363207,27.3369912 L44.4147051,27.3369912 L44.4147051,27.428745 Z" id="Shape" fill="#A3DCE6"></path>
                            <path d="M33.5637828,31.655914 L33.5637828,55.8905963 L9.28819232,55.8905963 C9.05720964,55.8905963 8.86996118,56.0768317 8.86996118,56.3065647 C8.86499828,56.4199853 8.90686098,56.5304954 8.98583887,56.6124613 C9.06481676,56.6944271 9.17404686,56.7407261 9.28819232,56.7406188 L33.5637828,56.7406188 L33.5637828,83.6519675 C33.5637828,83.8916889 33.7591725,84.0860215 34.0001979,84.0860215 C34.2412233,84.0860215 34.436613,83.8916889 34.436613,83.6519675 L34.436613,56.7406188 L58.7122035,56.7406188 C58.9460993,56.7309175 59.1306379,56.5393973 59.1304346,56.3065647 C59.1304346,56.0768317 58.9431862,55.8905963 58.7122035,55.8905963 L34.436613,55.8905963 L34.436613,31.655914 L33.5637828,31.655914 Z" id="Shape" fill="#54301A"></path>
                            <path d="M21.0277357,37.4135873 C20.9857253,37.3425564 20.9618098,37.2423089 20.9618098,37.1372437 C20.9618098,37.0321785 20.9857253,36.931931 21.0277357,36.8609001 C21.1810262,36.4916059 21.2672328,36.0426502 21.2740965,35.5778761 C21.2751291,35.1258662 21.1919452,34.6868965 21.038447,34.3343297 C20.8162994,33.8328711 20.6951891,33.2051727 20.695684,32.557835 C20.6933932,31.9099332 20.8147134,31.281147 21.038447,30.7813402 C21.1253685,30.6284421 21.2621544,30.6284421 21.3490759,30.7813402 C21.4320466,30.941519 21.4320466,31.1935876 21.3490759,31.3537663 C21.1944633,31.7217357 21.1080988,32.1715137 21.1027151,32.6367903 C21.1073216,33.0869988 21.1898881,33.5227108 21.3383646,33.8803366 C21.5574779,34.3849279 21.6781961,35.0105941 21.6811276,35.6568314 C21.6834184,36.3047332 21.5620982,36.9335193 21.3383646,37.4333261 C21.2911172,37.5275903 21.2258021,37.5842314 21.1562718,37.5912368 C21.1045497,37.5941059 21.0543726,37.558542 21.0170243,37.4925426 L21.0277357,37.4135873 Z" id="Shape" fill="#54301A"></path>
                            <path d="M18.0642189,37.4328324 C18.0217567,37.3615796 17.997584,37.261019 17.997584,37.1556256 C17.997584,37.0502322 18.0217567,36.9496715 18.0642189,36.8784188 C18.219158,36.5079711 18.3062917,36.0576131 18.3132292,35.5913871 C18.3142729,35.1379654 18.2301944,34.6976246 18.0750454,34.3439565 C17.8536037,33.8390537 17.7349648,33.2091207 17.7394227,32.5619127 C17.732302,31.9105312 17.855503,31.276818 18.0858719,30.7798689 C18.1700685,30.6289326 18.3048184,30.6289326 18.389015,30.7798689 C18.472878,30.940548 18.472878,31.1934039 18.389015,31.354083 C18.2252102,31.715539 18.1369574,32.1716813 18.1400046,32.6411146 C18.1414212,33.0877428 18.2253604,33.5203765 18.3781885,33.8687448 C18.5996583,34.3749122 18.7216747,35.0025327 18.7246377,35.6507886 C18.7200216,36.2985063 18.5981904,36.9251737 18.3781885,37.4328324 C18.3362454,37.5302205 18.2727297,37.588302 18.2049639,37.5912363 C18.1526855,37.5941144 18.1019688,37.5584394 18.0642189,37.4922339 L18.0642189,37.4328324 Z" id="Shape" fill="#54301A"></path>
                            <path d="M17.0927225,37.4155911 C17.0106386,37.2567588 17.0106386,37.0068091 17.0927225,36.8479768 C17.249182,36.4866606 17.3350567,36.0384011 17.3364501,35.575738 C17.3345167,35.1727948 17.2799904,34.7766581 17.1774973,34.4209366 L17.0927225,34.3034992 C16.8773878,33.8016753 16.7581414,33.1822107 16.7536232,32.5419377 C16.7581414,31.9016647 16.8773878,31.2822001 17.0927225,30.7803763 C17.1787149,30.6287635 17.3140387,30.6287635 17.4000312,30.7803763 C17.482115,30.9392086 17.482115,31.1891582 17.4000312,31.3479905 C17.2397015,31.7052921 17.153321,32.1561916 17.1563036,32.6202294 C17.157899,33.0257435 17.2163109,33.4235866 17.3258532,33.7750307 L17.4000312,33.8924682 C17.6168025,34.3928179 17.7362303,35.0132246 17.7391304,35.6540296 C17.7346123,36.2943026 17.6153658,36.9137672 17.4000312,37.4155911 C17.3589779,37.5118599 17.2968097,37.5692737 17.2304815,37.5721743 C17.1856102,37.5978057 17.1375937,37.5978057 17.0927225,37.5721743 L17.0927225,37.4155911 Z" id="Shape" fill="#54301A"></path>
                            <path d="M57.1594203,51.4408602 C57.1594203,51.6292883 56.7422424,51.7823861 56.2162354,51.7823861 L40.3816129,51.7823861 C39.8556059,51.7823861 39.4202899,51.6292883 39.4202899,51.4408602 L39.4202899,52.0885817 C39.4202899,52.2770097 39.8556059,52.4301075 40.3816129,52.4301075 L56.2162354,52.4301075 C56.7422424,52.4301075 57.1594203,52.2770097 57.1594203,52.0885817 L57.1594203,51.4408602 Z" id="Shape" fill="#54301A"></path>
                            <path d="M55.5451231,46.116382 C55.5451231,45.7905123 55.2004979,45.5053763 54.7651818,45.5053763 L41.8326665,45.5053763 C41.3973504,45.5053763 41.0527252,45.7905123 41.0527252,46.116382 L39.4202899,51.8394687 C39.4202899,52.1653384 39.8556059,52.4301075 40.3816129,52.4301075 L56.2162354,52.4301075 C56.7422424,52.4301075 57.1594203,52.1653384 57.1594203,51.8394687 L55.5451231,46.116382 Z" id="Shape" fill="#54301A"></path>
                            <polygon id="Shape" fill="#FFFFFF" points="54.8778217 48.4731183 55.1884058 49.4623656 51.3897233 49.4623656 51.2463768 48.4731183"></polygon>
                            <polygon id="Shape" fill="#FFFFFF" points="53.0588039 46.4946237 53.2173913 47.483871 52.3338331 47.483871 52.2318841 46.4946237"></polygon>
                            <polygon id="Shape" fill="#FFFFFF" points="50.171278 46.4946237 50.2608696 47.483871 49.2932806 47.483871 49.2753623 46.4946237"></polygon>
                            <polygon id="Shape" fill="#FFFFFF" points="49.2753623 49.4623656 48.2898551 49.4623656 48.3065586 48.4731183 49.2419553 48.4731183"></polygon>
                            <polygon id="Shape" fill="#FFFFFF" points="47.3415368 46.4946237 48.2712606 46.4946237 48.2898551 47.483871 47.3043478 47.483871"></polygon>
                            <polygon id="Shape" fill="#FFFFFF" points="46.4225782 46.4946237 47.3043478 46.4946237 47.252479 47.483871 46.3188406 47.483871"></polygon>
                            <polygon id="Shape" fill="#FFFFFF" points="47.3043478 48.4731183 47.2720361 49.4623656 46.3188406 49.4623656 46.3996199 48.4731183"></polygon>
                            <polygon id="Shape" fill="#FFFFFF" points="44.5148612 46.4946237 45.3333333 46.4946237 45.2331123 47.483871 44.3478261 47.483871"></polygon>
                            <polygon id="Shape" fill="#FFFFFF" points="45.3333333 48.4731183 45.2563406 49.4623656 44.3478261 49.4623656 44.4710145 48.4731183"></polygon>
                            <polygon id="Shape" fill="#FFFFFF" points="42.5958132 46.4946237 43.3623188 46.4946237 43.2058891 47.483871 42.3768116 47.483871"></polygon>
                            <polygon id="Shape" fill="#FFFFFF" points="43.3623188 48.4731183 43.2318841 49.4623656 42.3768116 49.4623656 42.5652174 48.4731183"></polygon>
                            <polygon id="Shape" fill="#FFFFFF" points="40.7724975 46.4946237 41.3913043 46.4946237 41.0704415 47.483871 40.4057971 47.483871"></polygon>
                            <polygon id="Shape" fill="#FFFFFF" points="40.6417636 48.4731183 41.3913043 48.4731183 41.2108594 49.4623656 40.4057971 49.4623656"></polygon>
                            <polygon id="Shape" fill="#FFFFFF" points="40.1404682 50.4516129 39.4202899 50.4516129 39.7424749 49.4623656 40.4057971 49.4623656"></polygon>
                            <polygon id="Shape" fill="#FFFFFF" points="42.2454106 50.4516129 41.3913043 50.4516129 41.5752657 49.4623656 42.3768116 49.4623656"></polygon>
                            <polygon id="Shape" fill="#FFFFFF" points="43.3623188 50.4516129 43.5396595 49.4623656 50.1721992 49.4623656 50.2608696 50.4516129"></polygon>
                            <polygon id="Shape" fill="#FFFFFF" points="50.2931813 49.4623656 50.2608696 48.4731183 51.1494417 48.4731183 51.2463768 49.4623656"></polygon>
                            <polygon id="Shape" fill="#FFFFFF" points="50.2608696 46.4946237 51.1104448 46.4946237 51.2463768 47.483871 50.3458271 47.483871"></polygon>
                            <polygon id="Shape" fill="#FFFFFF" points="50.3312629 50.4516129 50.2608696 49.4623656 51.1196687 49.4623656 51.2463768 50.4516129"></polygon>
                            <polygon id="Shape" fill="#FFFFFF" points="53.4087519 50.4516129 53.2173913 49.4623656 54.9205009 49.4623656 55.1884058 50.4516129"></polygon>
                            <path d="M52.5616747,33.6344086 L42.0470209,33.6344086 C41.140598,33.6344086 40.4057971,34.3564672 40.4057971,35.2471717 L40.4057971,42.9033659 C40.4057971,43.7940704 41.140598,44.516129 42.0470209,44.516129 L52.5616747,44.516129 C53.4680976,44.516129 54.2028986,43.7940704 54.2028986,42.9033659 L54.2028986,35.2471717 C54.2028986,34.3564672 53.4680976,33.6344086 52.5616747,33.6344086 Z" id="Shape" fill="#54301A"></path>
                            <rect id="Rectangle-path" fill="#FFFFFF" x="41.3913043" y="34.6236559" width="11.826087" height="8.90322581" rx="0.35"></rect>
                            <path d="M42.7337122,36.6014789 C42.6376874,36.6085177 42.5439805,36.5599757 42.4759812,36.4679694 C42.4079818,36.375963 42.3721058,36.2491731 42.377308,36.119247 C42.3724232,35.9872271 42.4078051,35.8582818 42.4751806,35.7625614 C42.5425561,35.666841 42.6360178,35.6127383 42.7337122,35.6129036 L51.8576594,35.6129036 C52.0643378,35.6129036 52.2318838,35.8396013 52.2318838,36.119247 C52.232006,36.2514322 52.1920201,36.3778903 52.1212759,36.4690526 C52.0505316,36.5602149 51.9552317,36.6080883 51.8576594,36.6014789 L42.7337122,36.6014789 Z" id="Shape" fill="#54301A"></path>
                            <path d="M42.7403239,38.5806452 C42.5369081,38.5680628 42.3770352,38.3502547 42.3772662,38.0860217 C42.3722902,37.9570575 42.4083327,37.8310968 42.476966,37.737592 C42.5455992,37.6440872 42.6408057,37.5912367 42.7403239,37.5913982 L48.8941517,37.5913982 C49.1046885,37.5913982 49.2753623,37.8128487 49.2753623,38.0860217 C49.2661663,38.3540969 49.1007596,38.5687133 48.8941517,38.5806452 L42.7403239,38.5806452 Z" id="Shape" fill="#54301A"></path>
                            <path d="M42.7494826,40.5591398 C42.5406808,40.5465574 42.3765747,40.3287493 42.3768119,40.0645161 C42.3765747,39.800283 42.5406808,39.5824748 42.7494826,39.5698925 L50.8737058,39.5698925 C51.0825076,39.5824748 51.2466137,39.800283 51.2463766,40.0645161 C51.2466137,40.3287493 51.0825076,40.5465574 50.8737058,40.5591398 L42.7494826,40.5591398 Z" id="Shape" fill="#54301A"></path>
                            <path d="M42.7662826,41.5483867 C42.6596578,41.5485521 42.5576525,41.4944456 42.4841181,41.3987187 C42.4105836,41.3029917 42.3719674,41.1740376 42.3772987,41.0420086 C42.3772987,40.775661 42.5514527,40.5597437 42.7662826,40.5597437 L47.8814216,40.5597437 C47.9879132,40.5531339 48.0919247,40.6010105 48.1691359,40.6921791 C48.2463471,40.7833476 48.2899881,40.9098143 48.2898548,41.0420086 C48.2898548,41.3216735 48.106993,41.5483867 47.8814216,41.5483867 L42.7662826,41.5483867 Z" id="Shape" fill="#54301A"></path>
                            <path d="M42.7148633,43.5268813 C42.6223154,43.5270467 42.5337773,43.4729402 42.4699511,43.3772133 C42.4061249,43.2814864 42.3726069,43.1525322 42.3772344,43.0205032 C42.3772344,42.7541557 42.528396,42.5382383 42.7148633,42.5382383 L49.906359,42.5382383 C49.9987911,42.5316285 50.0890707,42.5795052 50.1560882,42.6706737 C50.2231057,42.7618422 50.2609851,42.888309 50.2608693,43.0205032 C50.2608693,43.154803 50.2235192,43.2836023 50.1570356,43.3785666 C50.090552,43.4735309 50.0003809,43.5268813 49.906359,43.5268813 L42.7148633,43.5268813 Z" id="Shape" fill="#54301A"></path>
                            <path d="M26.1802142,43.0419774 L25.9560855,43.0419774 L25.9560855,41.3233097 C25.7879889,39.4346638 23.0610893,38.660319 19.8859322,38.5847731 C16.710775,38.5092273 13.9838754,39.4724367 13.7971014,41.3233097 L13.7971014,52.655185 C13.9838754,54.5438308 16.710775,55.3181757 19.8859322,55.3937215 C23.0610893,55.4692673 25.7879889,54.5060579 25.9560855,52.655185 L25.9560855,51.6542026 L26.2736012,51.6542026 C28.6357913,51.6542026 30.5507246,49.7178346 30.5507246,47.3292036 C30.5507246,44.9405725 28.6357913,43.0042045 26.2736012,43.0042045 L26.1802142,43.0419774 Z M25.9560855,45.742741 L26.2736012,45.742741 C27.1813424,45.742741 27.917212,46.4868475 27.917212,47.4047494 C27.917212,48.3226513 27.1813424,49.0667578 26.2736012,49.0667578 L25.9560855,49.0667578 L25.9560855,45.742741 Z" id="Shape" fill="#54301A"></path>
                            <path d="M16.0456281,40.0544892 C17.2108493,39.720289 18.4405778,39.5564785 19.6770613,39.5707509 C20.9135448,39.5564785 22.1432733,39.720289 23.3084945,40.0544892 C24.225167,40.3532688 24.6482466,40.7516416 24.6306182,40.9935107 C24.6400355,41.0166144 24.6400355,41.0415451 24.6306182,41.0646487 L24.6306182,41.1642419 L24.5248483,41.2638351 L24.3838218,41.3634283 L24.1899103,41.4487939 L23.9607422,41.5483871 L24.225167,41.4203387 C22.9554119,40.8119949 21.4844283,40.5338195 20.0119993,40.6235932 C18.5395704,40.5338195 17.0685867,40.8119949 15.7988317,41.4203387 L15.4991503,41.2638351 L14.9174158,41.3776559 C14.8646369,41.3375569 14.8226349,41.2891293 14.7940176,41.2353799 C14.7879265,41.1975989 14.7879265,41.1593401 14.7940176,41.1215591 C14.7058761,40.7516416 15.1289556,40.3532688 16.0456281,40.0544892 Z" id="Shape" fill="#FFFFFF"></path>
                            <path d="M23.3360371,53.7627712 C22.1751712,54.208166 20.950039,54.4264792 19.7181771,54.4074582 C18.4863153,54.4264792 17.2611831,54.208166 16.1003172,53.7627712 C15.187071,53.3645823 14.7655727,52.8336636 14.7831351,52.5113202 L14.7831351,42.5376344 L15.1343837,42.8030937 L15.2748831,42.8030937 L15.5910068,42.9737461 L15.7315062,42.9737461 C15.8854662,43.0483193 16.0438832,43.1116659 16.2056917,43.1633599 L16.3110663,43.1633599 L16.7676894,43.2960896 L16.9257512,43.2960896 L17.4174992,43.4098579 L17.5228738,43.4098579 L18.1551211,43.4098579 L18.313183,43.4098579 L18.8400558,43.4098579 L19.0156801,43.4098579 L19.7006147,43.4098579 L20.3855494,43.4098579 L20.5787361,43.4098579 L21.070484,43.4098579 L21.2636707,43.4098579 L21.8607932,43.4098579 L22.0188551,43.4098579 L22.4403533,43.4098579 L22.6686649,43.4098579 L23.0374759,43.2960896 L23.1955377,43.2960896 L23.6697232,43.1064758 L23.8102226,43.1064758 L24.1263463,42.9358234 L24.2492833,42.9358234 L24.6356567,42.6703641 L24.6356567,52.6440498 C24.6707816,52.8336636 24.2492833,53.3645823 23.3360371,53.7627712 Z" id="Shape" fill="#FFFFFF"></path>
                            <path d="M25.8539413,50.4516129 L25.6231884,50.4516129 L25.6231884,49.3524492 L25.9500884,49.3524492 C26.8363192,49.3524493 27.6552303,48.9020255 28.0983458,48.1708483 C28.5414612,47.4396711 28.5414612,46.5388236 28.0983458,45.8076463 C27.6552303,45.0764691 26.8363192,44.6260453 25.9500884,44.6260454 L25.6231884,44.6260454 L25.6231884,43.5268817 L25.9500884,43.5268817 C27.946669,43.5268817 29.5652174,45.0688337 29.5652174,46.9709279 C29.5652174,48.8730221 27.946669,50.4149741 25.9500884,50.4149741 L25.8539413,50.4516129 Z" id="Shape" fill="#FFFFFF"></path>
                            <path d="M28.2983061,63.1962813 C28.4654709,62.9846414 28.5637798,62.7257272 28.5797056,62.455165 C28.5804319,62.2222587 28.4931759,61.9978936 28.335826,61.8280665 L28.0731864,61.5810277 C27.9101825,61.4143467 27.6855438,61.3247063 27.4541073,61.3339889 C27.1886023,61.342131 26.9324693,61.4352672 26.7224684,61.6000307 C24.394952,63.5159456 22.1776463,65.5652876 20.0814382,67.7379945 C16.1793639,71.6336062 12.4273695,75.7762568 11.2267313,78.2276417 C11.2267313,78.2276417 11.2267313,78.2276417 11.2267313,78.3226566 L10.8515318,78.8927462 C10.8451139,78.9368482 10.8451139,78.981665 10.8515318,79.025767 C10.836929,79.0623337 10.836929,79.1032182 10.8515318,79.1397849 L11.0203716,79.1397849 L11.5831707,78.7787282 L11.7520105,78.7787282 C15.5012727,76.1980275 18.9445413,73.1883831 22.0137153,69.8093198 C24.0210324,67.7760005 25.4467903,66.1987528 26.4223088,65.0585738 C26.5419161,65.3241174 26.5419161,65.6291615 26.4223088,65.8947051 C25.8615168,66.9902448 25.0512512,67.9347719 24.0585523,68.6501378 C23.9226175,68.6805527 23.7817677,68.6805527 23.6458329,68.6501378 C23.5145131,68.6501378 23.4394732,68.7641557 23.2518735,68.9541855 C23.0642738,69.1442153 22.9892339,69.505272 23.1205537,69.6382929 C23.2518735,69.7713138 25.4655502,67.7379945 25.4655502,67.7379945 C26.5664697,66.6615891 27.2629545,65.230418 27.4353473,63.6903589 L28.2983061,63.1962813 Z" id="Shape" fill="#54301A"></path>
                            <path d="M11.726187,63.6920328 C11.8676537,65.2195375 12.5055492,66.6489725 13.5322772,67.7392299 C13.5322772,67.7392299 15.4828546,69.9053353 15.7898899,69.6393224 C16.0969253,69.3733094 15.7898899,69.1452983 15.6454027,68.9552891 C15.5009155,68.7652798 15.410611,68.6322733 15.2841847,68.6512743 C15.1472092,68.6815116 15.0057594,68.6815116 14.8687839,68.6512743 C13.9185451,67.9296677 13.1397149,66.9867462 12.5931103,65.8961401 C12.48675,65.628692 12.48675,65.3275475 12.5931103,65.0600994 C13.5322772,66.2001549 14.9049057,67.7772317 16.8374222,69.8103307 C20.4496026,73.7055204 24.4771838,77.60071 26.7167356,78.7787674 L26.8792837,78.7787674 L27.4030499,79.1397849 L27.5836589,79.1397849 C27.5977176,79.1032222 27.5977176,79.0623421 27.5836589,79.0257794 C27.5943644,78.9821592 27.5943644,78.9363931 27.5836589,78.8927729 L27.2405018,78.3227452 C27.2405018,78.3227452 27.2405018,78.3227452 27.2405018,78.2277405 C26.1207259,75.7766212 22.4182409,71.6344195 18.715756,67.7392299 C16.7073527,65.5562319 14.5720588,63.5065228 12.3221967,61.601931 C12.126825,61.4374439 11.8859922,61.3440979 11.6358825,61.3359181 C11.5321595,61.3273176 11.4278408,61.3402291 11.3288471,61.3739199 L11.0759945,61.620932 C10.9175768,61.7860295 10.8323804,62.0135534 10.8412028,62.2479625 C10.847284,62.5205122 10.9430293,62.7824065 11.1121163,62.9889986 L11.726187,63.6920328 Z" id="Shape" fill="#54301A"></path>
                            <path d="M56.1329673,62.0064385 C56.0726687,61.9200656 55.9689654,61.877501 55.8672493,61.8973758 L52.8557791,62.4790438 C53.3453526,61.5932459 53.7035758,60.6375435 53.918651,59.6434123 C53.9595952,59.5637879 53.9595952,59.468557 53.918651,59.3889325 C53.8419184,59.3434741 53.7473801,59.3434741 53.6706475,59.3889325 L46.5848353,60.7340398 C46.4423556,60.7614578 46.3430023,60.8947742 46.3545464,61.0430509 C46.3683806,61.2488138 46.3683806,61.4553103 46.3545464,61.6610732 C46.3502944,62.051188 46.3147452,62.4402812 46.2482592,62.8244092 L39.9064573,64.0604537 C39.8225886,64.0741864 39.7501703,64.1282297 39.7115975,64.2058707 C39.6583782,64.2819083 39.6583782,64.3843128 39.7115975,64.4603504 C39.8858755,64.7935121 40.1203327,65.0896102 40.4024642,65.3328524 L39.8355992,65.3328524 C39.7394083,65.3570328 39.6643044,65.434098 39.6407394,65.5328008 C39.5892867,65.616019 39.5892867,65.7222395 39.6407394,65.8054577 C39.8279565,66.0146849 40.0357278,66.2035166 40.2607479,66.3689486 L39.5344522,66.4961884 L39.428165,66.4961884 L39.428165,66.6234283 L39.428165,76.4936072 C39.4176648,76.5353363 39.4176648,76.5791181 39.428165,76.6208471 C39.4627589,76.6320105 39.4998583,76.6320105 39.5344522,76.6208471 L46.708837,80.1290323 L46.8682678,80.1290323 L53.95408,78.783925 C54.0005567,78.7962386 54.0493196,78.7962386 54.0957963,78.783925 C54.1053404,78.7359473 54.1053404,78.6864857 54.0957963,78.638508 L54.0957963,68.6592663 C54.1062965,68.6175373 54.1062965,68.5737555 54.0957963,68.5320265 L53.9895091,68.4229637 L49.9505961,66.6052512 L50.5883192,66.4961884 C52.9621542,66.0334081 55.0022611,64.4884521 56.1329673,62.2972725 C56.1875616,62.2084207 56.1875616,62.0952903 56.1329673,62.0064385 Z" id="Shape" fill="#54301A"></path>
                            <path d="M47.0200669,63.2597623 L47.1337793,63.0167893 L47.1337793,62.8432371 C47.1737971,62.7532678 47.2054953,62.6603803 47.2285396,62.5655537 C47.2285396,62.5655537 47.2285396,62.4093567 47.2285396,62.3225806 C47.327216,61.8652483 47.3779852,61.4003331 47.3801561,60.9341634 C47.3801561,60.7779664 47.3801561,60.6391247 47.3801561,60.5349934 L54.2028986,59.3548387 C54.0404573,59.8979682 53.8247916,60.4265561 53.5585284,60.9341634 C53.3829452,61.2804546 53.1736251,61.611544 52.9331104,61.9234107 L49.4269788,62.5308432 C49.3249167,62.5514872 49.2401326,62.6161876 49.1995541,62.7043954 C49.2088683,62.7967601 49.2088683,62.8897142 49.1995541,62.9820789 L48.8584169,63.5721562 L48.7068004,63.8151292 L46.3188406,64.3010753 L46.4894091,64.1101679 L46.4894091,64.0060366 L47.0200669,63.2597623 Z" id="Shape" fill="#FFFFFF"></path>
                            <path d="M40.9763539,65.7737048 C40.7790226,65.6943857 40.5885494,65.608071 40.4057971,65.5151515 L40.9417747,65.4477028 C41.5639552,65.674363 42.2690547,65.7870318 42.9819476,65.7737048 L43.5179252,65.7737048 C43.7168574,65.7640979 43.9137981,65.7415012 44.1057717,65.7062561 L44.2959573,65.7062561 L44.3996949,65.7062561 L47.3043478,65.2903226 C46.6371436,65.7792402 45.7565915,66.1243221 44.7800661,66.2795699 L44.1576405,66.2795699 L43.7081109,66.2795699 C42.7428701,66.2794971 41.7968086,66.104306 40.9763539,65.7737048 Z" id="Shape" fill="#FFFFFF"></path>
                            <path d="M46.3188406,63.311828 L46.2076235,63.5925653 C46.2076235,63.5925653 46.2076235,63.5925653 46.2076235,63.5925653 C46.0033587,64.0997202 45.6358641,64.5420005 45.1510608,64.8641402 C44.9863948,64.9598846 44.8127435,65.0427631 44.6320476,65.1118496 L44.4281496,65.1118496 C44.1838619,65.1958259 43.9284196,65.2513319 43.6681659,65.2769892 L43.1862251,65.2769892 C42.9828152,65.294767 42.7779407,65.294767 42.5745309,65.2769892 L42.1481986,65.2769892 C41.6706668,65.1643664 41.2232145,64.9678552 40.8321294,64.6990006 C40.6764048,64.5851328 40.5336087,64.4579152 40.4057971,64.3191795 L46.3188406,63.311828 Z" id="Shape" fill="#FFFFFF"></path>
                            <polygon id="Shape" fill="#FFFFFF" points="40.4057971 68.2580645 47.2954234 71.1737408 47.4560624 71.191096 54.2028986 69.9588757 54.2028986 70.9828334 47.4382136 72.2150538 40.4057971 69.2473118"></polygon>
                            <polygon id="Shape" fill="#FFFFFF" points="40.4057971 73.2043011 47.2954234 76.1072452 47.4560624 76.1245246 54.2028986 74.8976851 54.2028986 75.9171714 47.4382136 77.1612903 40.4057971 74.1892285"></polygon>
                            <polygon id="Shape" fill="#FFFFFF" points="47.4382136 79.1397849 40.4057971 76.172043 40.4057971 75.1827957 47.2954234 78.098472 47.4560624 78.1158272 54.2028986 76.8662517 54.2028986 77.9075646"></polygon>
                            <polygon id="Shape" fill="#FFFFFF" points="47.4382136 76.172043 40.4057971 73.1999812 40.4057971 72.2150538 47.2954234 75.1179978 47.4560624 75.1352773 54.2028986 73.9084378 54.2028986 74.9279241"></polygon>
                            <polygon id="Shape" fill="#FFFFFF" points="47.4382136 74.1935484 40.4057971 71.2214866 40.4057971 70.2365591 47.2954234 73.1567826 47.4560624 73.1567826 54.2028986 71.9299432 54.2028986 72.9667089"></polygon>
                            <polygon id="Shape" fill="#FFFFFF" points="54.2028986 69.9707262 47.4382136 71.2258065 40.4057971 68.2275591 40.4057971 67.2688172 47.2954234 70.1973379 47.4560624 70.2147696 54.2028986 68.9771209"></polygon>
                            <path d="M53.2173913,69 L46.9490577,70.2365591 L40.4057971,67.2688172 L40.8456802,67.2688172 C41.7460118,67.7765297 42.753613,68.0445256 43.7782339,68.0488007 L44.0531608,68.0488007 C44.3458516,68.0755134 44.6402362,68.0755134 44.932927,68.0488007 L49.0934876,67.3258892 L53.2173913,69 Z" id="Shape" fill="#FFFFFF"></path>
                            <path d="M55.1821684,63.4896189 C54.0911596,64.6428127 52.6352882,65.406752 51.0467804,65.6595808 L47.3043478,66.2795699 C47.8568567,65.8876597 48.3430183,65.413896 48.7451844,64.8754769 C48.9094542,64.6474601 49.0594252,64.409972 49.1942763,64.164313 L49.3065493,63.9637283 C49.3850059,63.816175 49.4537559,63.6639097 49.512383,63.5078539 L50.2234452,63.3802091 L56.173913,62.3225806 C55.8789506,62.7390791 55.5470996,63.1295857 55.1821684,63.4896189 Z" id="Shape" fill="#FFFFFF"></path>
                            <path d="M24.2157858,23.7419355 C16.6268302,19.5473213 13.0153038,10.358883 15.626311,1.88861087 C15.7675392,1.29370131 16.3259806,0.909230004 16.9120536,1.00341291 C17.59064,1.00341291 17.8942181,1.53822001 17.858503,2.34965147 C17.1834986,8.90559037 20.734715,15.1476044 26.6086957,17.729966" id="Shape" fill="#FFFFFF"></path>
                            <path d="M23.8141899,23.7279094 C23.7544645,23.7466108 23.6905932,23.7466108 23.6308679,23.7279094 C15.7248604,19.3704848 11.9655053,9.92075183 14.6664199,1.19435377 C14.8320055,0.408575105 15.5731138,-0.107820506 16.3529827,0.0191766098 C17.1962641,0.0191766098 17.6729014,0.728013625 17.636237,1.73530833 L17.636237,1.99645881 C17.0525559,8.38684305 20.605766,14.4252651 26.4173629,16.9193433 C26.5805549,17.0097846 26.651445,17.2101538 26.5823528,17.3856835 C26.4998304,17.5591036 26.2962667,17.6336714 26.1240477,17.5535659 C20.0349239,14.946799 16.3205696,8.61239955 16.9579455,1.92184439 L16.9579455,1.71665472 C16.9579455,0.783974442 16.5179726,0.746667231 16.3163183,0.728013625 C15.5280335,0.728013625 15.3813759,1.23166098 15.3630437,1.34358261 C12.7752169,9.75588788 16.3910993,18.8564333 23.997512,23.0750332 C24.1248653,23.1573606 24.1856455,23.3137606 24.1480699,23.4624498 C24.1104943,23.6111391 23.9831078,23.7183051 23.8325221,23.7279094 L23.8141899,23.7279094 Z" id="Shape" fill="#54301A"></path>
                            <path d="M43.7627558,23.7419355 C51.3754041,19.5335657 54.991111,10.3520816 52.3682502,1.88971908 C52.2182499,1.29162547 51.6507323,0.9082704 51.0567656,1.00381841 C50.3920406,1.00381841 50.0866264,1.53905006 50.1225575,2.35112567 C50.7962375,8.88092611 47.2587867,15.1022232 41.3913043,17.7067372" id="Shape" fill="#FFFFFF"></path>
                            <path d="M44.22393,23.7418483 C44.1025572,23.7446404 43.9893489,23.6801663 43.9286782,23.5736976 C43.8750915,23.4957491 43.856555,23.3984945 43.8776471,23.3059551 C43.8987393,23.2134157 43.9574934,23.1342199 44.0393976,23.0879286 C51.6691484,18.8582847 55.2850524,9.76052055 52.6755109,1.35911014 C52.5752048,0.938541633 52.1760241,0.663712735 51.7528493,0.723873832 C51.5498637,0.723873832 51.0700796,0.723873832 51.0885329,1.71409514 L51.0885329,1.88224593 C51.7155783,8.57554431 47.9801416,14.9066674 41.8619161,17.5202692 C41.7793932,17.564263 41.6824044,17.5711038 41.5946539,17.5391196 C41.5069034,17.5071353 41.4364763,17.4392731 41.4005852,17.3521184 C41.361623,17.1883177 41.4483902,17.0206049 41.6035708,16.9597666 C47.4326526,14.4466678 50.9799784,8.3976987 50.3688567,2.01302987 L50.3688567,1.73277856 C50.3688567,0.723873832 50.8117344,0.088637523 51.6605831,0.0139038395 C52.4469572,-0.0928909013 53.1836977,0.426017411 53.3582806,1.20964277 C56.0108114,9.89588865 52.2526625,19.2717286 44.3715558,23.6297478 C44.3331165,23.6797907 44.2821423,23.7184982 44.22393,23.7418483 Z" id="Shape" fill="#54301A"></path>
                            <path d="M34.1519925,31.6468922 C34.1519925,31.6468922 44.0404468,32.1042448 44.3444318,26.5062495 C44.427589,22.3167947 42.9802043,18.246269 40.2853376,15.0907297 C38.8014013,13.0712362 36.4784443,11.8795703 34.0089407,11.8709677 C31.5344619,11.8795325 29.206047,13.070605 27.7146624,15.0907297 C25.0197957,18.246269 23.572411,22.3167947 23.6555682,26.5062495 C23.9595532,32.1042448 33.8480075,31.6468922 33.8480075,31.6468922 L34.1519925,31.6468922 Z" id="Shape" fill="#A3DCE6"></path>
                            <path d="M33.6943049,31.5591694 C31.4294889,31.5591694 23.946537,31.1696139 23.6566406,25.9940915 C23.5593611,21.6858823 25.0541269,17.4988595 27.8420205,14.2703274 C29.4172169,12.1361346 31.8787672,10.8817204 34.4915201,10.8817204 C37.104273,10.8817204 39.5658233,12.1361346 41.1410198,14.2703274 C43.9520807,17.521533 45.4485841,21.7465867 45.3263997,26.0868428 C45.0002662,32.0043756 35.1800242,31.6519207 34.6545869,31.6519207 L33.6943049,31.6519207 L33.6943049,31.5591694 Z M34.6545869,30.8542595 C34.7451795,30.8542595 44.3479992,31.2438149 44.6197771,25.9755412 C44.7460803,21.8128404 43.3136136,17.7581236 40.6155825,14.6413326 C39.171476,12.6715975 36.9061572,11.5125211 34.5005794,11.5125211 C32.0950015,11.5125211 29.8296827,12.6715975 28.3855763,14.6413326 C25.6695805,17.7495123 24.2231978,21.8069014 24.3451446,25.9755412 C24.6350411,31.2438149 34.2197422,30.8542595 34.3103349,30.8542595 L34.6545869,30.8542595 Z" id="Shape" fill="#54301A"></path>
                            <path d="M30.0358482,26.7096774 L29.7579994,26.7096774 C27.6006382,26.7034999 25.5002974,26.0146198 23.7564646,24.7412647 C23.6897234,24.6750008 23.6521739,24.5847394 23.6521739,24.4905706 C23.6521739,24.3964018 23.6897234,24.3061404 23.7564646,24.2398765 C23.8193558,24.174041 23.9063392,24.1368115 23.9972669,24.1368115 C24.0881947,24.1368115 24.1751781,24.174041 24.2380693,24.2398765 C24.8122902,24.8341143 26.2571041,25.6140515 29.7950459,26.0968697 L29.8876622,26.0968697 C30.313697,26.0968697 30.4248366,25.9668802 30.5174528,25.0755234 L30.5174528,24.8155444 C30.6100691,24.1284569 30.8323482,15.8462674 30.8323482,14.5463722 C30.8217458,14.1218683 30.5990284,13.7311308 30.239604,13.5064561 C30.1370293,13.4301605 30.0828473,13.3047996 30.0974677,13.1775957 C30.1120882,13.0503918 30.19329,12.9406701 30.3104852,12.8897618 C30.4276804,12.8388534 30.5630642,12.8544926 30.6656389,12.9307882 C31.1968192,13.298782 31.5204043,13.8992679 31.5362319,14.5463722 C31.5362319,15.6234283 31.3324761,24.1284569 31.2213365,24.926964 L31.2213365,25.1498032 C31.18429,25.6883312 31.0546272,26.7096774 30.0358482,26.7096774 Z" id="Shape" fill="#54301A"></path>
                            <path d="M38.9451849,25.7204301 C37.9418309,25.7204301 37.8323741,24.710076 37.7594029,24.0854934 L37.7594029,23.8650525 C37.6499462,23.0935093 37.4492754,14.8453455 37.4492754,13.5961804 C37.4581877,12.9352859 37.7933577,12.3222602 38.3431725,11.9612437 C38.4856012,11.8408758 38.6932994,11.8408758 38.8357281,11.9612437 C38.8902563,12.0355563 38.9114197,12.1294534 38.8940916,12.2201885 C38.8767634,12.3109235 38.8225245,12.390219 38.7445141,12.4388656 C38.3732966,12.6666977 38.1403421,13.0668633 38.1242589,13.50433 C38.1242589,14.8269754 38.3431725,22.9832889 38.4343865,23.6629817 L38.4343865,23.9201627 C38.5438433,24.8019263 38.6533001,24.9856271 39.0546417,24.9305169 C42.7032015,24.5263752 44.1626255,23.6813517 44.6734238,23.0935093 C44.7345655,22.9634617 44.8686929,22.8845229 45.0112234,22.894702 C45.1537539,22.9048812 45.2754749,23.002092 45.3177774,23.1395273 C45.3600799,23.2769626 45.3142937,23.426454 45.202465,23.5160211 C44.3632963,24.5998555 42.3201027,25.3530286 39.1276129,25.6653199 L38.8539709,25.6653199 L38.9451849,25.7204301 Z" id="Shape" fill="#54301A"></path>
                            <path d="M33.5072464,14.8366932 C32.9974259,14.8726149 32.5578157,14.4243464 32.5217391,13.831776 C32.6017872,13.2712076 33.0186794,12.8602151 33.5072464,12.8602151 C33.9958133,12.8602151 34.4127055,13.2712076 34.4927536,13.831776 C34.456677,14.4243464 34.0170668,14.8726149 33.5072464,14.8366932 Z M33.5072464,13.4235284 C33.2507445,13.4235284 33.0347429,13.6119504 33.0347429,13.831776 C33.0347429,14.0516016 33.2507445,14.2400236 33.5072464,14.2400236 C33.7637483,14.2400236 33.9797499,14.0673035 33.9797499,13.831776 C33.9797499,13.5962485 33.7637483,13.4235284 33.5072464,13.4235284 Z" id="Shape" fill="#FFFFFF"></path>
                            <path d="M33.5072464,21.7634409 C32.9629658,21.7634409 32.5217391,21.3205398 32.5217391,20.7741935 C32.5217391,20.2278473 32.9629658,19.7849462 33.5072464,19.7849462 C34.051527,19.7849462 34.4927536,20.2278473 34.4927536,20.7741935 C34.4927536,21.3205398 34.051527,21.7634409 33.5072464,21.7634409 Z M33.5072464,20.2998969 C33.3819307,20.2998969 33.2617476,20.3498673 33.173136,20.4388152 C33.0845244,20.527763 33.0347429,20.6484023 33.0347429,20.7741935 C33.0347429,21.0361404 33.2462899,21.2484902 33.5072464,21.2484902 C33.7682028,21.2484902 33.9797499,21.0361404 33.9797499,20.7741935 C33.9797499,20.5122467 33.7682028,20.2998969 33.5072464,20.2998969 Z" id="Shape" fill="#FFFFFF"></path>
                            <path d="M33.6943049,31.5591694 C31.4294889,31.5591694 23.946537,31.1696139 23.6566406,25.9940915 C23.5593611,21.6858823 25.0541269,17.4988595 27.8420205,14.2703274 C29.4172169,12.1361346 31.8787672,10.8817204 34.4915201,10.8817204 C37.104273,10.8817204 39.5658233,12.1361346 41.1410198,14.2703274 C43.9520807,17.521533 45.4485841,21.7465867 45.3263997,26.0868428 C45.0002662,32.0043756 35.1800242,31.6519207 34.6545869,31.6519207 L33.6943049,31.6519207 L33.6943049,31.5591694 Z M34.6545869,30.8542595 C34.7451795,30.8542595 44.3479992,31.2438149 44.6197771,25.9755412 C44.7460803,21.8128404 43.3136136,17.7581236 40.6155825,14.6413326 C39.171476,12.6715975 36.9061572,11.5125211 34.5005794,11.5125211 C32.0950015,11.5125211 29.8296827,12.6715975 28.3855763,14.6413326 C25.6695805,17.7495123 24.2231978,21.8069014 24.3451446,25.9755412 C24.6350411,31.2438149 34.2197422,30.8542595 34.3103349,30.8542595 L34.6545869,30.8542595 Z" id="Shape" fill="#54301A"></path>
                            <path d="M33.5071688,29.6774194 C33.1073541,29.6773817 32.7471835,29.4348701 32.595473,29.0635524 C32.4437625,28.6922348 32.530581,28.2657058 32.8152356,27.9838846 C33.0998902,27.7020633 33.5259628,27.6208064 33.8937483,27.7781998 C34.2615337,27.9355932 34.4981374,28.3004418 34.4926605,28.7017369 C34.4852764,29.2427762 34.0462121,29.6774701 33.5071688,29.6774194 Z M33.5071688,28.2138956 C33.3094658,28.2083809 33.1281532,28.3236795 33.0486584,28.5054671 C32.9691635,28.6872547 33.0073447,28.8992671 33.1452123,29.0416122 C33.2830799,29.1839574 33.4931313,29.2282393 33.6763983,29.153594 C33.8596652,29.0789487 33.9795885,28.9002671 33.9796648,28.7017369 C33.9797664,28.4375141 33.7702905,28.2212351 33.5071688,28.2138956 Z" id="Shape" fill="#FFFFFF"></path>
                            <rect id="Rectangle-path" fill="#FFFFFF" transform="translate(21.188406, 68.258065) rotate(-45.160000) translate(-21.188406, -68.258065) " x="20.6956522" y="67.2688172" width="1" height="1.97849462"></rect>
                            <path d="M11.826087,75.987997 C12.1815224,75.3576528 12.588388,74.7574817 13.0425725,74.1935484 L13.7971014,74.9757439 C13.2499389,75.4271675 12.6623288,75.8276137 12.0416667,76.172043 L11.9184783,76.172043 L11.826087,75.987997 Z" id="Shape" fill="#FFFFFF"></path>
                            <rect id="Rectangle-path" fill="#FFFFFF" transform="translate(17.739131, 68.752687) rotate(-44.850000) translate(-17.739131, -68.752687) " x="16.753624" y="68.2580638" width="1.97101449" height="1"></rect>
                            <path d="M26.5009058,76.172043 L26.3931159,76.172043 C25.7724538,75.8276137 25.1848437,75.4271675 24.6376812,74.9757439 L25.3922101,74.1935484 C25.8463946,74.7574817 26.2532602,75.3576528 26.6086957,75.987997 C26.6086957,75.987997 26.5317029,76.1567058 26.5009058,76.172043 Z" id="Shape" fill="#FFFFFF"></path>
                        </g>
                    </g>
                </g>
            </g>
        </g>
    </g>
</svg>