<?xml version="1.0" encoding="UTF-8"?>
<svg width="326px" height="276px" viewBox="0 0 326 276" version="1.1" xmlns="http://www.w3.org/2000/svg" xmlns:xlink="http://www.w3.org/1999/xlink">
    <!-- Generator: Sketch 51 (57462) - http://www.bohemiancoding.com/sketch -->
    <title>Illustration</title>
    <desc>Created with Sketch.</desc>
    <defs>
        <filter x="-1.6%" y="-4.9%" width="103.1%" height="111.3%" filterUnits="objectBoundingBox" id="filter-1">
            <feOffset dx="0" dy="3" in="SourceAlpha" result="shadowOffsetOuter1"></feOffset>
            <feGaussianBlur stdDeviation="7" in="shadowOffsetOuter1" result="shadowBlurOuter1"></feGaussianBlur>
            <feComposite in="shadowBlurOuter1" in2="SourceAlpha" operator="out" result="shadowBlurOuter1"></feComposite>
            <feColorMatrix values="0 0 0 0 0.184313725   0 0 0 0 0.188235294   0 0 0 0 0.380392157  0 0 0 0.1 0" type="matrix" in="shadowBlurOuter1" result="shadowMatrixOuter1"></feColorMatrix>
            <feMerge>
                <feMergeNode in="shadowMatrixOuter1"></feMergeNode>
                <feMergeNode in="SourceGraphic"></feMergeNode>
            </feMerge>
        </filter>
        <path d="M34.3449637,0.424339623 L34.3449637,12.8724528 C15.4094811,12.8724528 0.00122006976,28.3620755 0.00122006976,47.3948113 C0.00122006976,66.43 15.4094811,81.9196226 34.3449637,81.9196226 L34.3449637,92.3932075 C34.3449637,104.596038 44.1909267,114.493208 56.3428215,114.493208 L135.293536,114.493208 C147.44543,114.493208 157.291393,104.596038 157.291393,92.3932075 L157.291393,0.424339623 L34.3449637,0.424339623 Z M17.0821967,47.3948113 C17.0821967,37.8177358 24.8284196,30.0422642 34.3449637,30.0422642 L34.3449637,64.7498113 C24.8284196,64.7498113 17.0821967,56.9633019 17.0821967,47.3948113 Z" id="path-2"></path>
        <path d="M34.3449637,0.424339623 L34.3449637,12.8724528 C15.4094811,12.8724528 0.00122006976,28.3620755 0.00122006976,47.3948113 C0.00122006976,66.43 15.4094811,81.9196226 34.3449637,81.9196226 L34.3449637,92.3932075 C34.3449637,104.596038 44.1909267,114.493208 56.3428215,114.493208 L135.293536,114.493208 C147.44543,114.493208 157.291393,104.596038 157.291393,92.3932075 L157.291393,0.424339623 L34.3449637,0.424339623 Z M17.0821967,47.3948113 C17.0821967,37.8177358 24.8284196,30.0422642 34.3449637,30.0422642 L34.3449637,64.7498113 C24.8284196,64.7498113 17.0821967,56.9633019 17.0821967,47.3948113 Z" id="path-4"></path>
        <path d="M11.9683727,59.8574882 C4.61623232,50.9721108 -9.27304181,28.4956014 9.32692166,1.32928066 C9.32692166,1.32928066 10.5896939,-0.808360849 13.1664812,0.349375 C14.7306106,1.0484316 15.051489,2.43428066 14.334088,4.28248821 C12.3221929,9.50088443 3.84514824,28.6942807 22.6964461,47.8214505" id="path-6"></path>
        <path d="M34.3449637,0.424339623 L34.3449637,12.8724528 C15.4094811,12.8724528 0.00122006976,28.3620755 0.00122006976,47.3948113 C0.00122006976,66.43 15.4094811,81.9196226 34.3449637,81.9196226 L34.3449637,92.3932075 C34.3449637,104.596038 44.1909267,114.493208 56.3428215,114.493208 L135.293536,114.493208 C147.44543,114.493208 157.291393,104.596038 157.291393,92.3932075 L157.291393,0.424339623 L34.3449637,0.424339623 Z M17.0821967,47.3948113 C17.0821967,37.8177358 24.8284196,30.0422642 34.3449637,30.0422642 L34.3449637,64.7498113 C24.8284196,64.7498113 17.0821967,56.9633019 17.0821967,47.3948113 Z" id="path-8"></path>
        <path d="M34.3449637,0.424339623 L34.3449637,12.8724528 C15.4094811,12.8724528 0.00122006976,28.3620755 0.00122006976,47.3948113 C0.00122006976,66.43 15.4094811,81.9196226 34.3449637,81.9196226 L34.3449637,92.3932075 C34.3449637,104.596038 44.1909267,114.493208 56.3428215,114.493208 L135.293536,114.493208 C147.44543,114.493208 157.291393,104.596038 157.291393,92.3932075 L157.291393,0.424339623 L34.3449637,0.424339623 Z M17.0821967,47.3948113 C17.0821967,37.8177358 24.8284196,30.0422642 34.3449637,30.0422642 L34.3449637,64.7498113 C24.8284196,64.7498113 17.0821967,56.9633019 17.0821967,47.3948113 Z" id="path-10"></path>
        <path d="M35.2844174,21.8930328 C26.8381638,39.1118523 10.255604,44.6095447 1.62635299,46.3400538 L0.815006599,30.2004312 C27.4393689,27.2447708 32.8552585,6.96354436 34.5548157,1.63354436 C34.7453764,1.03236037 34.9884068,0.533807142 35.2844174,0.147753818 L35.2844174,21.8930328" id="path-12"></path>
        <path d="M34.3449637,0.424339623 L34.3449637,12.8724528 C15.4094811,12.8724528 0.00122006976,28.3620755 0.00122006976,47.3948113 C0.00122006976,66.43 15.4094811,81.9196226 34.3449637,81.9196226 L34.3449637,92.3932075 C34.3449637,104.596038 44.1909267,114.493208 56.3428215,114.493208 L135.293536,114.493208 C147.44543,114.493208 157.291393,104.596038 157.291393,92.3932075 L157.291393,0.424339623 L34.3449637,0.424339623 Z M17.0821967,47.3948113 C17.0821967,37.8177358 24.8284196,30.0422642 34.3449637,30.0422642 L34.3449637,64.7498113 C24.8284196,64.7498113 17.0821967,56.9633019 17.0821967,47.3948113 Z" id="path-14"></path>
        <path d="M34.3449637,0.424339623 L34.3449637,12.8724528 C15.4094811,12.8724528 0.00122006976,28.3620755 0.00122006976,47.3948113 C0.00122006976,66.43 15.4094811,81.9196226 34.3449637,81.9196226 L34.3449637,92.3932075 C34.3449637,104.596038 44.1909267,114.493208 56.3428215,114.493208 L135.293536,114.493208 C147.44543,114.493208 157.291393,104.596038 157.291393,92.3932075 L157.291393,0.424339623 M17.0821967,47.3948113 C17.0821967,37.8177358 24.8284196,30.0422642 34.3449637,30.0422642 L34.3449637,64.7498113 C24.8284196,64.7498113 17.0821967,56.9633019 17.0821967,47.3948113" id="path-16"></path>
        <path d="M34.3449637,0.424339623 L34.3449637,12.8724528 C15.4094811,12.8724528 0.00122006976,28.3620755 0.00122006976,47.3948113 C0.00122006976,66.43 15.4094811,81.9196226 34.3449637,81.9196226 L34.3449637,92.3932075 C34.3449637,104.596038 44.1909267,114.493208 56.3428215,114.493208 L135.293536,114.493208 C147.44543,114.493208 157.291393,104.596038 157.291393,92.3932075 L157.291393,0.424339623 L34.3449637,0.424339623 Z M17.0821967,47.3948113 C17.0821967,37.8177358 24.8284196,30.0422642 34.3449637,30.0422642 L34.3449637,64.7498113 C24.8284196,64.7498113 17.0821967,56.9633019 17.0821967,47.3948113 Z" id="path-18"></path>
        <path d="M34.3449637,0.424339623 L34.3449637,12.8724528 C15.4094811,12.8724528 0.00122006976,28.3620755 0.00122006976,47.3948113 C0.00122006976,66.43 15.4094811,81.9196226 34.3449637,81.9196226 L34.3449637,92.3932075 C34.3449637,104.596038 44.1909267,114.493208 56.3428215,114.493208 L135.293536,114.493208 C147.44543,114.493208 157.291393,104.596038 157.291393,92.3932075 L157.291393,0.424339623 M17.0821967,47.3948113 C17.0821967,37.8177358 24.8284196,30.0422642 34.3449637,30.0422642 L34.3449637,64.7498113 C24.8284196,64.7498113 17.0821967,56.9633019 17.0821967,47.3948113" id="path-20"></path>
        <path d="M34.3449637,0.424339623 L34.3449637,12.8724528 C15.4094811,12.8724528 0.00122006976,28.3620755 0.00122006976,47.3948113 C0.00122006976,66.43 15.4094811,81.9196226 34.3449637,81.9196226 L34.3449637,92.3932075 C34.3449637,104.596038 44.1909267,114.493208 56.3428215,114.493208 L135.293536,114.493208 C147.44543,114.493208 157.291393,104.596038 157.291393,92.3932075 L157.291393,0.424339623 L34.3449637,0.424339623 Z M17.0821967,47.3948113 C17.0821967,37.8177358 24.8284196,30.0422642 34.3449637,30.0422642 L34.3449637,64.7498113 C24.8284196,64.7498113 17.0821967,56.9633019 17.0821967,47.3948113 Z" id="path-22"></path>
        <path d="M34.3449637,0.424339623 L34.3449637,12.8724528 C15.4094811,12.8724528 0.00122006976,28.3620755 0.00122006976,47.3948113 C0.00122006976,66.43 15.4094811,81.9196226 34.3449637,81.9196226 L34.3449637,92.3932075 C34.3449637,104.596038 44.1909267,114.493208 56.3428215,114.493208 L135.293536,114.493208 C147.44543,114.493208 157.291393,104.596038 157.291393,92.3932075 L157.291393,0.424339623 M17.0821967,47.3948113 C17.0821967,37.8177358 24.8284196,30.0422642 34.3449637,30.0422642 L34.3449637,64.7498113 C24.8284196,64.7498113 17.0821967,56.9633019 17.0821967,47.3948113" id="path-24"></path>
        <path d="M34.3449637,0.424339623 L34.3449637,12.8724528 C15.4094811,12.8724528 0.00122006976,28.3620755 0.00122006976,47.3948113 C0.00122006976,66.43 15.4094811,81.9196226 34.3449637,81.9196226 L34.3449637,92.3932075 C34.3449637,104.596038 44.1909267,114.493208 56.3428215,114.493208 L135.293536,114.493208 C147.44543,114.493208 157.291393,104.596038 157.291393,92.3932075 L157.291393,0.424339623 L34.3449637,0.424339623 Z M17.0821967,47.3948113 C17.0821967,37.8177358 24.8284196,30.0422642 34.3449637,30.0422642 L34.3449637,64.7498113 C24.8284196,64.7498113 17.0821967,56.9633019 17.0821967,47.3948113 Z" id="path-26"></path>
        <path d="M34.3449637,0.424339623 L34.3449637,12.8724528 C15.4094811,12.8724528 0.00122006976,28.3620755 0.00122006976,47.3948113 C0.00122006976,66.43 15.4094811,81.9196226 34.3449637,81.9196226 L34.3449637,92.3932075 C34.3449637,104.596038 44.1909267,114.493208 56.3428215,114.493208 L135.293536,114.493208 C147.44543,114.493208 157.291393,104.596038 157.291393,92.3932075 L157.291393,0.424339623 M17.0821967,47.3948113 C17.0821967,37.8177358 24.8284196,30.0422642 34.3449637,30.0422642 L34.3449637,64.7498113 C24.8284196,64.7498113 17.0821967,56.9633019 17.0821967,47.3948113" id="path-28"></path>
        <path d="M34.3449637,0.424339623 L34.3449637,12.8724528 C15.4094811,12.8724528 0.00122006976,28.3620755 0.00122006976,47.3948113 C0.00122006976,66.43 15.4094811,81.9196226 34.3449637,81.9196226 L34.3449637,92.3932075 C34.3449637,104.596038 44.1909267,114.493208 56.3428215,114.493208 L135.293536,114.493208 C147.44543,114.493208 157.291393,104.596038 157.291393,92.3932075 L157.291393,0.424339623 L34.3449637,0.424339623 Z M17.0821967,47.3948113 C17.0821967,37.8177358 24.8284196,30.0422642 34.3449637,30.0422642 L34.3449637,64.7498113 C24.8284196,64.7498113 17.0821967,56.9633019 17.0821967,47.3948113 Z" id="path-30"></path>
        <path d="M34.3449637,0.424339623 L34.3449637,12.8724528 C15.4094811,12.8724528 0.00122006976,28.3620755 0.00122006976,47.3948113 C0.00122006976,66.43 15.4094811,81.9196226 34.3449637,81.9196226 L34.3449637,92.3932075 C34.3449637,104.596038 44.1909267,114.493208 56.3428215,114.493208 L135.293536,114.493208 C147.44543,114.493208 157.291393,104.596038 157.291393,92.3932075 L157.291393,0.424339623 M17.0821967,47.3948113 C17.0821967,37.8177358 24.8284196,30.0422642 34.3449637,30.0422642 L34.3449637,64.7498113 C24.8284196,64.7498113 17.0821967,56.9633019 17.0821967,47.3948113" id="path-32"></path>
        <path d="M34.3449637,0.424339623 L34.3449637,12.8724528 C15.4094811,12.8724528 0.00122006976,28.3620755 0.00122006976,47.3948113 C0.00122006976,66.43 15.4094811,81.9196226 34.3449637,81.9196226 L34.3449637,92.3932075 C34.3449637,104.596038 44.1909267,114.493208 56.3428215,114.493208 L135.293536,114.493208 C147.44543,114.493208 157.291393,104.596038 157.291393,92.3932075 L157.291393,0.424339623 M17.0821967,47.3948113 C17.0821967,37.8177358 24.8284196,30.0422642 34.3449637,30.0422642 L34.3449637,64.7498113 C24.8284196,64.7498113 17.0821967,56.9633019 17.0821967,47.3948113" id="path-34"></path>
        <path d="M34.3449637,0.424339623 L34.3449637,12.8724528 C15.4094811,12.8724528 0.00122006976,28.3620755 0.00122006976,47.3948113 C0.00122006976,66.43 15.4094811,81.9196226 34.3449637,81.9196226 L34.3449637,92.3932075 C34.3449637,104.596038 44.1909267,114.493208 56.3428215,114.493208 L135.293536,114.493208 C147.44543,114.493208 157.291393,104.596038 157.291393,92.3932075 L157.291393,0.424339623 M17.0821967,47.3948113 C17.0821967,37.8177358 24.8284196,30.0422642 34.3449637,30.0422642 L34.3449637,64.7498113 C24.8284196,64.7498113 17.0821967,56.9633019 17.0821967,47.3948113" id="path-36"></path>
        <path d="M34.3449637,0.424339623 L34.3449637,12.8724528 C15.4094811,12.8724528 0.00122006976,28.3620755 0.00122006976,47.3948113 C0.00122006976,66.43 15.4094811,81.9196226 34.3449637,81.9196226 L34.3449637,92.3932075 C34.3449637,104.596038 44.1909267,114.493208 56.3428215,114.493208 L135.293536,114.493208 C147.44543,114.493208 157.291393,104.596038 157.291393,92.3932075 L157.291393,0.424339623 M17.0821967,47.3948113 C17.0821967,37.8177358 24.8284196,30.0422642 34.3449637,30.0422642 L34.3449637,64.7498113 C24.8284196,64.7498113 17.0821967,56.9633019 17.0821967,47.3948113" id="path-38"></path>
        <path d="M34.3449637,0.424339623 L34.3449637,12.8724528 C15.4094811,12.8724528 0.00122006976,28.3620755 0.00122006976,47.3948113 C0.00122006976,66.43 15.4094811,81.9196226 34.3449637,81.9196226 L34.3449637,92.3932075 C34.3449637,104.596038 44.1909267,114.493208 56.3428215,114.493208 L135.293536,114.493208 C147.44543,114.493208 157.291393,104.596038 157.291393,92.3932075 L157.291393,0.424339623 M17.0821967,47.3948113 C17.0821967,37.8177358 24.8284196,30.0422642 34.3449637,30.0422642 L34.3449637,64.7498113 C24.8284196,64.7498113 17.0821967,56.9633019 17.0821967,47.3948113" id="path-40"></path>
        <path d="M34.3449637,0.424339623 L34.3449637,12.8724528 C15.4094811,12.8724528 0.00122006976,28.3620755 0.00122006976,47.3948113 C0.00122006976,66.43 15.4094811,81.9196226 34.3449637,81.9196226 L34.3449637,92.3932075 C34.3449637,104.596038 44.1909267,114.493208 56.3428215,114.493208 L135.293536,114.493208 C147.44543,114.493208 157.291393,104.596038 157.291393,92.3932075 L157.291393,0.424339623 M17.0821967,47.3948113 C17.0821967,37.8177358 24.8284196,30.0422642 34.3449637,30.0422642 L34.3449637,64.7498113 C24.8284196,64.7498113 17.0821967,56.9633019 17.0821967,47.3948113" id="path-42"></path>
        <path d="M34.3449637,0.424339623 L34.3449637,12.8724528 C15.4094811,12.8724528 0.00122006976,28.3620755 0.00122006976,47.3948113 C0.00122006976,66.43 15.4094811,81.9196226 34.3449637,81.9196226 L34.3449637,92.3932075 C34.3449637,104.596038 44.1909267,114.493208 56.3428215,114.493208 L135.293536,114.493208 C147.44543,114.493208 157.291393,104.596038 157.291393,92.3932075 L157.291393,0.424339623 M17.0821967,47.3948113 C17.0821967,37.8177358 24.8284196,30.0422642 34.3449637,30.0422642 L34.3449637,64.7498113 C24.8284196,64.7498113 17.0821967,56.9633019 17.0821967,47.3948113" id="path-44"></path>
        <path d="M34.3449637,0.424339623 L34.3449637,12.8724528 C15.4094811,12.8724528 0.00122006976,28.3620755 0.00122006976,47.3948113 C0.00122006976,66.43 15.4094811,81.9196226 34.3449637,81.9196226 L34.3449637,92.3932075 C34.3449637,104.596038 44.1909267,114.493208 56.3428215,114.493208 L135.293536,114.493208 C147.44543,114.493208 157.291393,104.596038 157.291393,92.3932075 L157.291393,0.424339623 M17.0821967,47.3948113 C17.0821967,37.8177358 24.8284196,30.0422642 34.3449637,30.0422642 L34.3449637,64.7498113 C24.8284196,64.7498113 17.0821967,56.9633019 17.0821967,47.3948113" id="path-46"></path>
        <path d="M34.3449637,0.424339623 L34.3449637,12.8724528 C15.4094811,12.8724528 0.00122006976,28.3620755 0.00122006976,47.3948113 C0.00122006976,66.43 15.4094811,81.9196226 34.3449637,81.9196226 L34.3449637,92.3932075 C34.3449637,104.596038 44.1909267,114.493208 56.3428215,114.493208 L135.293536,114.493208 C147.44543,114.493208 157.291393,104.596038 157.291393,92.3932075 L157.291393,0.424339623 M17.0821967,47.3948113 C17.0821967,37.8177358 24.8284196,30.0422642 34.3449637,30.0422642 L34.3449637,64.7498113 C24.8284196,64.7498113 17.0821967,56.9633019 17.0821967,47.3948113" id="path-48"></path>
        <path d="M34.3449637,0.424339623 L34.3449637,12.8724528 C15.4094811,12.8724528 0.00122006976,28.3620755 0.00122006976,47.3948113 C0.00122006976,66.43 15.4094811,81.9196226 34.3449637,81.9196226 L34.3449637,92.3932075 C34.3449637,104.596038 44.1909267,114.493208 56.3428215,114.493208 L135.293536,114.493208 C147.44543,114.493208 157.291393,104.596038 157.291393,92.3932075 L157.291393,0.424339623 M17.0821967,47.3948113 C17.0821967,37.8177358 24.8284196,30.0422642 34.3449637,30.0422642 L34.3449637,64.7498113 C24.8284196,64.7498113 17.0821967,56.9633019 17.0821967,47.3948113" id="path-50"></path>
        <path d="M6.88119344,0.586226415 C3.21854402,0.586226415 0.250114301,3.57009434 0.250114301,7.25056604 C0.250114301,10.9310377 3.21854402,13.9149057 6.88119344,13.9149057 L133.513454,13.9149057 C137.174883,13.9149057 140.143313,10.9310377 140.143313,7.25056604 C140.143313,3.57009434 137.174883,0.586226415 133.513454,0.586226415" id="path-52"></path>
    </defs>
    <g id="1.-Nav-+-Homepage-V3-+-V4" stroke="none" stroke-width="1" fill="none" fill-rule="evenodd">
        <g id="1.-NaNo-Homepage-V4" transform="translate(-1047.000000, -775.000000)">
            <rect x="0" y="0" width="1440" height="4764"></rect>
            <g id="What-Is---Blue" filter="url(#filter-1)" transform="translate(0.000000, 635.000000)">
                <g id="Illustration" transform="translate(1061.000000, 149.000000)">
                    <circle id="Oval-3-Copy" fill="#75ABBC" cx="253" cy="217" r="45"></circle>
                    <g id="Group" transform="translate(250.000000, 182.000000) rotate(-330.000000) translate(-250.000000, -182.000000) translate(232.000000, 108.000000)">
                        <g id="stencil">
                            <path d="M15.6,0 L20.4,1.77635684e-15 C27.027417,5.58920087e-16 32.4,5.372583 32.4,12 L32.4,132.099174 L3.6,132.099174 L3.6,12 C3.6,5.372583 8.972583,2.99379359e-15 15.6,1.77635684e-15 Z" id="Rectangle-5" stroke="#2F3061" stroke-width="2" fill="#A5D9E4" stroke-linecap="round" stroke-linejoin="round"></path>
                            <rect id="Rectangle-5" stroke="#2F3061" stroke-width="2" fill="#1E575F" stroke-linecap="round" stroke-linejoin="round" x="0" y="15.9008264" width="36" height="132.099174" rx="3"></rect>
                            <rect id="Rectangle-9" fill="#DFE4E6" x="1.2" y="33.0247934" width="33.6" height="4.89256198" rx="2.44628099"></rect>
                        </g>
                        <path d="M17.2,30.5785124 L18.8,30.5785124 C21.009139,30.5785124 22.8,32.3693734 22.8,34.5785124 L22.8,107.901427 C22.8,108.003023 22.7690506,108.102209 22.7112729,108.185777 L18.0171381,114.975207 L13.2896804,108.186232 C13.2312976,108.10239 13.2,108.002676 13.2,107.900509 L13.2,34.5785124 C13.2,32.3693734 14.990861,30.5785124 17.2,30.5785124 Z" id="Rectangle-9" fill-opacity="0.5" fill="#343434"></path>
                        <path d="M12.4,24.4628099 L14,24.4628099 C16.209139,24.4628099 18,26.2536709 18,28.4628099 L18,101.785725 C18,101.887321 17.9690506,101.986506 17.9112729,102.070074 L13.2171381,108.859504 L8.48968041,102.07053 C8.4312976,101.986688 8.4,101.886973 8.4,101.784807 L8.4,28.4628099 C8.4,26.2536709 10.190861,24.4628099 12.4,24.4628099 Z" id="Rectangle-9" fill="#DFE4E6"></path>
                    </g>
                    <ellipse id="Oval-3" fill="#FFFFFF" cx="131" cy="150.5" rx="71" ry="71.5"></ellipse>
                    <path d="M161.19266,146 C161.19266,146 166.365018,141.625581 163.347983,136.78741 C160.330948,131.95147 140.716046,118.591877 138.775629,115.136041 C136.835212,111.680205 125.626697,97.172383 140.930952,81.279997 C156.235208,65.387611 188.567143,48.1128906 175.418211,26 C175.418211,26 188.782049,28.7646687 188.996956,41.6627401 C189.213949,54.5608116 177.78844,66.9973617 168.305435,79.6657872 C161.180141,89.1838282 170.842582,98.6996396 176.09214,102.846643 C179.405454,105.46416 182.036493,109.027015 183.252904,113.238676 C185.660691,121.563896 184.498527,134.771878 161.19266,146 Z" id="Page-1" fill="#DFE4E6"></path>
                    <path d="M206.372707,2.06057393e-13 C206.372707,2.06057393e-13 202.955256,2.91627959 204.948654,6.14172643 C206.942052,9.36568689 219.901898,18.272082 221.183959,20.5759727 C222.466021,22.8798633 229.871647,32.5517446 219.759907,43.1466686 C209.648166,53.7415927 188.285995,65.2580729 196.973682,80 C196.973682,80 188.144003,78.1568875 188.002011,69.5581732 C187.858641,60.959459 195.407638,52.6684256 201.673195,44.2228085 C206.380978,37.8774479 199.996865,31.5335736 196.528407,28.7689049 C194.339253,27.0238936 192.600889,24.6486567 191.797188,21.8408829 C190.206329,16.2907361 190.974188,7.48541489 206.372707,2.06057393e-13 Z" id="Page-1-Copy" fill="#DFE4E6"></path>
                    <circle id="Oval-3" fill="#75ABBC" cx="36.5" cy="112.5" r="36.5"></circle>
                    <g id="Page-1" transform="translate(152.500000, 197.000000) rotate(-352.000000) translate(-152.500000, -197.000000) translate(69.000000, 132.000000)">
                        <path d="M34.3448417,78.879217 C24.8282976,78.879217 17.0820747,71.0914811 17.0820747,61.5254434 C17.0820747,51.9471415 24.8282976,44.1716698 34.3448417,44.1716698 L34.3448417,78.879217 Z M34.3448417,14.5537453 L34.3448417,27.0018585 C15.409359,27.0018585 0.00109806278,42.4914811 0.00109806278,61.5254434 C0.00109806278,80.5594057 15.409359,96.0490283 34.3448417,96.0490283 L34.3448417,106.522613 C34.3448417,118.725443 44.1908047,128.62384 56.3426994,128.62384 L135.293414,128.62384 C147.445308,128.62384 157.292491,118.725443 157.292491,106.522613 L157.292491,14.5537453 L34.3448417,14.5537453 Z" id="Fill-1" fill="#E8A499"></path>
                        <g id="Group-79" transform="translate(0.000000, 14.129528)">
                            <g id="Group-5">
                                <mask id="mask-3" fill="white">
                                    <use xlink:href="#path-2"></use>
                                </mask>
                                <g id="Clip-4"></g>
                                <path d="M18.4839348,0.423971698 L18.4839348,12.8720849 C-0.451547818,12.8720849 -15.8598088,28.3617075 -15.8598088,47.3956698 C-15.8598088,66.4296321 -0.451547818,81.9192547 18.4839348,81.9192547 L18.4839348,92.3928396 C18.4839348,104.59567 28.3298978,114.494066 40.4817926,114.494066 L119.432507,114.494066 C131.584401,114.494066 141.431584,104.59567 141.431584,92.3928396 L141.431584,0.423971698 L18.4839348,0.423971698 Z" id="Fill-3" fill="#ECB4AB" mask="url(#mask-3)"></path>
                            </g>
                            <g id="Group-78" opacity="0.5">
                                <g id="Group-8">
                                    <mask id="mask-5" fill="white">
                                        <use xlink:href="#path-4"></use>
                                    </mask>
                                    <g id="Clip-7"></g>
                                    <path d="M75.2624432,74.3633113 C67.9103028,65.477934 54.0210287,43.0026509 72.6209922,15.8351038 C72.6209922,15.8351038 73.8837644,13.6974623 76.4605517,14.8564245 C78.0246811,15.5542547 78.3455595,16.9413302 77.6281585,18.7895377 C75.6162634,24.0067075 67.1392188,43.2001038 85.9905166,62.3285 L75.2624432,74.3633113 Z" id="Fill-6" fill="#D1CAA1" mask="url(#mask-5)"></path>
                                </g>
                                <g id="Group-11" transform="translate(63.294071, 14.506191)">
                                    <mask id="mask-7" fill="white">
                                        <use xlink:href="#path-6"></use>
                                    </mask>
                                    <g id="Clip-10"></g>
                                    <path d="M22.6929079,47.8181392 L17.990759,53.0990825 C10.9899988,44.2971014 -0.494517887,24.4451203 12.9811526,0.262667453 C13.0445962,0.284742925 13.1068198,0.308044811 13.1641631,0.342384434 C14.7295126,1.04021462 15.0455106,2.43219575 14.3366501,4.28530896 C12.3198748,9.4963467 3.85259066,28.6921958 22.6929079,47.8181392" id="Fill-9" fill="#E2DBBA" mask="url(#mask-7)"></path>
                                </g>
                                <g id="Group-14">
                                    <mask id="mask-9" fill="white">
                                        <use xlink:href="#path-8"></use>
                                    </mask>
                                    <g id="Clip-13"></g>
                                    <path d="M75.2624432,74.3633113 C67.9103028,65.477934 54.0210287,43.0026509 72.6209922,15.8351038 C72.6209922,15.8351038 73.8837644,13.6974623 76.4605517,14.8564245 C78.0246811,15.5542547 78.3455595,16.9413302 77.6281585,18.7895377 C75.6162634,24.0067075 67.1392188,43.2001038 85.9905166,62.3285 L75.2624432,74.3633113 Z" id="Stroke-12" stroke="#2F3061" stroke-width="2" stroke-linecap="round" stroke-linejoin="round" mask="url(#mask-9)"></path>
                                </g>
                                <g id="Group-17">
                                    <mask id="mask-11" fill="white">
                                        <use xlink:href="#path-10"></use>
                                    </mask>
                                    <g id="Clip-16"></g>
                                    <path d="M123.633939,91.5655 C134.909824,89.3039906 159.769965,80.6074811 162.30283,47.7272925 C162.30283,47.7272925 162.65909,45.2671038 159.931014,44.5386132 C158.27904,44.0934245 157.160236,44.9690849 156.561182,46.8589906 C154.862844,52.1889906 149.445735,72.470217 122.822593,75.4258774 L123.633939,91.5655 Z" id="Fill-15" fill="#D1CAA1" mask="url(#mask-11)"></path>
                                </g>
                                <g id="Group-20" transform="translate(122.006976, 45.225324)">
                                    <mask id="mask-13" fill="white">
                                        <use xlink:href="#path-12"></use>
                                    </mask>
                                    <g id="Clip-19"></g>
                                    <path d="M0.821472969,30.2003085 L1.17285306,37.27795 C12.1229791,34.8594595 33.4717598,26.6841764 38.1214456,-0.636672618 C38.0592221,-0.65874809 37.9969985,-0.682049977 37.9298947,-0.690634882 C36.2767002,-1.13704998 35.1591163,-0.254031109 34.5515215,1.63342172 C32.8605048,6.96096889 27.4336345,27.2385161 0.821472969,30.2003085" id="Fill-18" fill="#E2DBBA" mask="url(#mask-13)"></path>
                                </g>
                                <g id="Group-23">
                                    <mask id="mask-15" fill="white">
                                        <use xlink:href="#path-14"></use>
                                    </mask>
                                    <g id="Clip-22"></g>
                                    <path d="M123.633939,91.5655 C134.909824,89.3039906 159.769965,80.6074811 162.30283,47.7272925 C162.30283,47.7272925 162.65909,45.2671038 159.931014,44.5386132 C158.27904,44.0934245 157.160236,44.9690849 156.561182,46.8589906 C154.862844,52.1889906 149.445735,72.470217 122.822593,75.4258774 L123.633939,91.5655 Z" id="Stroke-21" stroke="#2F3061" stroke-width="2" stroke-linecap="round" stroke-linejoin="round" mask="url(#mask-15)"></path>
                                </g>
                                <g id="Group-26">
                                    <mask id="mask-17" fill="white">
                                        <use xlink:href="#path-16"></use>
                                    </mask>
                                    <g id="Clip-25"></g>
                                    <path d="M113.393161,59.644 L100.122463,97.3489057 C96.6477039,96.369 93.1534241,95.1278679 89.8397147,93.6929623 L103.109193,55.9880566 C104.933198,56.1523962 106.72182,56.5338113 108.483601,57.159283 C110.242941,57.7847547 111.871734,58.6199434 113.393161,59.644" id="Fill-24" fill="#E2EFF3" mask="url(#mask-17)"></path>
                                </g>
                                <g id="Group-29">
                                    <mask id="mask-19" fill="white">
                                        <use xlink:href="#path-18"></use>
                                    </mask>
                                    <g id="Clip-28"></g>
                                    <path d="M113.393161,59.644 L100.122463,97.3489057 C96.6477039,96.369 93.1534241,95.1278679 89.8397147,93.6929623 L103.109193,55.9880566 C104.933198,56.1523962 106.72182,56.5338113 108.483601,57.159283 C110.242941,57.7847547 111.871734,58.6199434 113.393161,59.644 Z" id="Stroke-27" stroke="#2F3061" stroke-width="2" stroke-linecap="round" stroke-linejoin="round" mask="url(#mask-19)"></path>
                                </g>
                                <g id="Group-32">
                                    <mask id="mask-21" fill="white">
                                        <use xlink:href="#path-20"></use>
                                    </mask>
                                    <g id="Clip-31"></g>
                                    <path d="M124.795567,104.445189 C122.273683,111.609906 109.45807,111.573113 96.4130845,107.887736 C96.1568699,107.810472 95.896995,107.746698 95.6456606,107.65717 L89.8064068,122.641509 C86.3328682,121.661604 85.3519321,121.313302 82.0382226,119.878396 L86.872139,104.53717 C86.6208046,104.447642 86.3780107,104.332358 86.1315567,104.230566 C73.6819648,98.8515094 63.6956939,90.7780189 66.216358,83.6145283 C67.0667466,81.2009434 68.2270329,78.8266038 69.6349934,76.555283 C70.6391109,82.7425472 79.3833508,89.1640566 89.8405687,93.6919811 C89.9735563,93.7545283 90.1004436,93.7986792 90.2334312,93.8612264 C93.2970263,95.1636792 96.5143503,96.3079245 99.7109331,97.2314151 C99.8549013,97.2682075 99.9793484,97.3135849 100.122097,97.3491509 C111.085643,100.437264 121.901562,100.971981 126.552468,96.7972642 C126.226709,99.4536792 125.643516,102.031604 124.795567,104.445189" id="Fill-30" fill="#E2EFF3" mask="url(#mask-21)"></path>
                                </g>
                                <g id="Group-35">
                                    <mask id="mask-23" fill="white">
                                        <use xlink:href="#path-22"></use>
                                    </mask>
                                    <g id="Clip-34"></g>
                                    <path d="M124.795567,104.445189 C122.273683,111.609906 109.45807,111.573113 96.4130845,107.887736 C96.1568699,107.810472 95.896995,107.746698 95.6456606,107.65717 L89.8064068,122.641509 C86.3328682,121.661604 85.3519321,121.313302 82.0382226,119.878396 L86.872139,104.53717 C86.6208046,104.447642 86.3780107,104.332358 86.1315567,104.230566 C73.6819648,98.8515094 63.6956939,90.7780189 66.216358,83.6145283 C67.0667466,81.2009434 68.2270329,78.8266038 69.6349934,76.555283 C70.6391109,82.7425472 79.3833508,89.1640566 89.8405687,93.6919811 C89.9735563,93.7545283 90.1004436,93.7986792 90.2334312,93.8612264 C93.2970263,95.1636792 96.5143503,96.3079245 99.7109331,97.2314151 C99.8549013,97.2682075 99.9793484,97.3135849 100.122097,97.3491509 C111.085643,100.437264 121.901562,100.971981 126.552468,96.7972642 C126.226709,99.4536792 125.643516,102.031604 124.795567,104.445189 Z" id="Stroke-33" stroke="#2F3061" stroke-width="2" stroke-linecap="round" stroke-linejoin="round" mask="url(#mask-23)"></path>
                                </g>
                                <g id="Group-38">
                                    <mask id="mask-25" fill="white">
                                        <use xlink:href="#path-24"></use>
                                    </mask>
                                    <g id="Clip-37"></g>
                                    <path d="M103.109559,55.9874434 L89.8400807,93.6923491 C79.3840829,89.1644245 70.6398429,82.7416887 69.6345054,76.5556509 C70.2469804,75.5794245 70.8972776,74.6154623 71.5975977,73.6711226 C79.0302626,63.6464057 91.7128878,54.9351792 103.109559,55.9874434" id="Fill-36" fill="#A5D9E4" mask="url(#mask-25)"></path>
                                </g>
                                <g id="Group-41">
                                    <mask id="mask-27" fill="white">
                                        <use xlink:href="#path-26"></use>
                                    </mask>
                                    <g id="Clip-40"></g>
                                    <path d="M103.109559,55.9874434 L89.8400807,93.6923491 C79.3840829,89.1644245 70.6398429,82.7416887 69.6345054,76.5556509 C70.2469804,75.5794245 70.8972776,74.6154623 71.5975977,73.6711226 C79.0302626,63.6464057 91.7128878,54.9351792 103.109559,55.9874434 Z" id="Stroke-39" stroke="#2F3061" stroke-width="2" stroke-linecap="round" stroke-linejoin="round" mask="url(#mask-27)"></path>
                                </g>
                                <g id="Group-44">
                                    <mask id="mask-29" fill="white">
                                        <use xlink:href="#path-28"></use>
                                    </mask>
                                    <g id="Clip-43"></g>
                                    <path d="M126.553078,96.7968962 C121.900952,100.971613 111.085033,100.438123 100.122707,97.348783 L113.393405,59.6438774 C122.91361,66.0298208 127.325382,80.8216132 126.832474,93.3126509 C126.784891,94.4900094 126.687285,95.6501981 126.553078,96.7968962" id="Fill-42" fill="#A5D9E4" mask="url(#mask-29)"></path>
                                </g>
                                <g id="Group-47">
                                    <mask id="mask-31" fill="white">
                                        <use xlink:href="#path-30"></use>
                                    </mask>
                                    <g id="Clip-46"></g>
                                    <path d="M126.553078,96.7968962 C121.900952,100.971613 111.085033,100.438123 100.122707,97.348783 L113.393405,59.6438774 C122.91361,66.0298208 127.325382,80.8216132 126.832474,93.3126509 C126.784891,94.4900094 126.687285,95.6501981 126.553078,96.7968962 Z" id="Stroke-45" stroke="#2F3061" stroke-width="2" stroke-linecap="round" stroke-linejoin="round" mask="url(#mask-31)"></path>
                                </g>
                                <g id="Group-50">
                                    <mask id="mask-33" fill="white">
                                        <use xlink:href="#path-32"></use>
                                    </mask>
                                    <g id="Clip-49"></g>
                                    <path d="M107.477531,66.043066 C107.10907,67.0904245 105.967085,67.6386321 104.925145,67.2670283 C103.884426,66.8966509 103.337834,65.7487264 103.706296,64.7013679 C104.074757,63.6552358 105.216742,63.1058019 106.258681,63.4761792 C107.299401,63.847783 107.845992,64.9957075 107.477531,66.043066" id="Fill-48" fill="#2F3061" mask="url(#mask-33)"></path>
                                </g>
                                <g id="Group-53">
                                    <mask id="mask-35" fill="white">
                                        <use xlink:href="#path-34"></use>
                                    </mask>
                                    <g id="Clip-52"></g>
                                    <path d="M103.587339,77.0963774 C103.218878,78.1437358 102.076892,78.690717 101.034953,78.3203396 C99.9942333,77.9499623 99.447642,76.8020377 99.8161031,75.7546792 C100.184564,74.7085472 101.326549,74.1591132 102.368489,74.5294906 C103.409209,74.8998679 103.9558,76.0490189 103.587339,77.0963774" id="Fill-51" fill="#2F3061" mask="url(#mask-35)"></path>
                                </g>
                                <g id="Group-56">
                                    <mask id="mask-37" fill="white">
                                        <use xlink:href="#path-36"></use>
                                    </mask>
                                    <g id="Clip-55"></g>
                                    <path d="M99.6972683,88.1485849 C99.3288072,89.1959434 98.1868219,89.7441509 97.1448824,89.3737736 C96.1041628,89.0033962 95.5575716,87.8554717 95.9260327,86.8081132 C96.2944937,85.7619811 97.436479,85.2125472 98.4784186,85.5829245 C99.5191381,85.9533019 100.065729,87.1012264 99.6972683,88.1485849" id="Fill-54" fill="#2F3061" mask="url(#mask-37)"></path>
                                </g>
                                <g id="Group-59">
                                    <mask id="mask-39" fill="white">
                                        <use xlink:href="#path-38"></use>
                                    </mask>
                                    <g id="Clip-58"></g>
                                    <path d="M74.6536284,90.4253019 C74.2851673,91.4726604 73.143182,92.0208679 72.1012425,91.6492642 C71.060523,91.2788868 70.5139317,90.1309623 70.8823928,89.0836038 C71.2508538,88.0374717 72.3940592,87.4880377 73.4359988,87.8584151 C74.4767183,88.2300189 75.0220895,89.3779434 74.6536284,90.4253019" id="Fill-57" fill="#2F3061" mask="url(#mask-39)"></path>
                                </g>
                                <g id="Group-62">
                                    <mask id="mask-41" fill="white">
                                        <use xlink:href="#path-40"></use>
                                    </mask>
                                    <g id="Clip-61"></g>
                                    <path d="M87.8194012,98.9383396 C87.44972,99.9856981 86.3077347,100.533906 85.2657952,100.163528 C84.2250757,99.7931509 83.6784844,98.6452264 84.0481655,97.5978679 C84.4166266,96.5517358 85.5586119,96.0023019 86.6005515,96.3726792 C87.641271,96.7430566 88.1878622,97.8909811 87.8194012,98.9383396" id="Fill-60" fill="#2F3061" mask="url(#mask-41)"></path>
                                </g>
                                <g id="Group-65">
                                    <mask id="mask-43" fill="white">
                                        <use xlink:href="#path-42"></use>
                                    </mask>
                                    <g id="Clip-64"></g>
                                    <path d="M102.182672,104.046358 C101.814211,105.093717 100.672226,105.641925 99.6302865,105.271547 C98.589567,104.90117 98.0429757,103.753245 98.4114368,102.705887 C98.7798978,101.659755 99.9218831,101.110321 100.963823,101.480698 C102.004542,101.851075 102.551133,102.999 102.182672,104.046358" id="Fill-63" fill="#2F3061" mask="url(#mask-43)"></path>
                                </g>
                                <g id="Group-68">
                                    <mask id="mask-45" fill="white">
                                        <use xlink:href="#path-44"></use>
                                    </mask>
                                    <g id="Clip-67"></g>
                                    <path d="M117.745638,105.749481 C117.375957,106.79684 116.233972,107.343821 115.192032,106.973443 C114.151313,106.603066 113.604721,105.455142 113.974403,104.407783 C114.342864,103.361651 115.484849,102.812217 116.526789,103.182594 C117.567508,103.552972 118.114099,104.702123 117.745638,105.749481" id="Fill-66" fill="#2F3061" mask="url(#mask-45)"></path>
                                </g>
                                <g id="Group-71">
                                    <mask id="mask-47" fill="white">
                                        <use xlink:href="#path-46"></use>
                                    </mask>
                                    <g id="Clip-70"></g>
                                    <path d="M128.249707,104.032009 C127.881246,105.079368 126.73926,105.627575 125.697321,105.257198 C124.656601,104.886821 124.11001,103.73767 124.478471,102.690311 C124.846932,101.644179 125.990138,101.094745 127.032077,101.466349 C128.072797,101.836726 128.618168,102.984651 128.249707,104.032009" id="Fill-69" fill="#2F3061" mask="url(#mask-47)"></path>
                                </g>
                                <g id="Group-74">
                                    <mask id="mask-49" fill="white">
                                        <use xlink:href="#path-48"></use>
                                    </mask>
                                    <g id="Clip-73"></g>
                                    <path d="M67.5607529,82.4500472 C67.1910717,83.4974057 66.0490864,84.0456132 65.0071468,83.6752358 C63.9664273,83.3036321 63.4198361,82.1557075 63.7882972,81.1083491 C64.1579783,80.062217 65.2999636,79.512783 66.3419032,79.8831604 C67.3826227,80.2547642 67.9292139,81.4026887 67.5607529,82.4500472" id="Fill-72" fill="#2F3061" mask="url(#mask-49)"></path>
                                </g>
                                <g id="Group-77">
                                    <mask id="mask-51" fill="white">
                                        <use xlink:href="#path-50"></use>
                                    </mask>
                                    <g id="Clip-76"></g>
                                    <path d="M83.4359345,69.0324528 C86.3018784,66.6532075 89.5106619,64.7007547 92.7999699,63.5148113" id="Stroke-75" stroke="#D4FAFF" stroke-width="2" stroke-linecap="round" stroke-linejoin="round" mask="url(#mask-51)"></path>
                                </g>
                            </g>
                        </g>
                        <g id="Group-90" transform="translate(0.000000, 0.638962)">
                            <path d="M34.3448417,78.2402547 C24.8282976,78.2402547 17.0820747,70.4525189 17.0820747,60.8864811 C17.0820747,51.3081792 24.8282976,43.5327075 34.3448417,43.5327075 L34.3448417,78.2402547 Z M34.3448417,13.914783 L34.3448417,26.3628962 C15.409359,26.3628962 0.00109806278,41.8525189 0.00109806278,60.8864811 C0.00109806278,79.9204434 15.409359,95.410066 34.3448417,95.410066 L34.3448417,105.883651 C34.3448417,118.086481 44.1908047,127.984877 56.3426994,127.984877 L135.293414,127.984877 C147.445308,127.984877 157.292491,118.086481 157.292491,105.883651 L157.292491,13.914783 L34.3448417,13.914783 Z" id="Stroke-80" stroke="#2F3061" stroke-width="2" stroke-linecap="round" stroke-linejoin="round"></path>
                            <path d="M40.4451905,18.8201981 L70.5089294,18.8201981" id="Stroke-82" stroke="#2F3061" stroke-width="2" stroke-linecap="round" stroke-linejoin="round"></path>
                            <path d="M136.159907,18.8201981 L151.191167,18.8201981" id="Stroke-84" stroke="#2F3061" stroke-width="2" stroke-linecap="round" stroke-linejoin="round"></path>
                            <path d="M143.675781,5.4925 L151.191411,5.4925" id="Stroke-86" stroke="#2F3061" stroke-width="2" stroke-linecap="round" stroke-linejoin="round"></path>
                            <path d="M32.5016823,13.9145377 L159.135163,13.9145377 C162.796592,13.9145377 165.765022,10.9306698 165.765022,7.25019811 C165.765022,3.56972642 162.796592,0.587084906 159.135163,0.587084906 L32.5016823,0.587084906 C28.840253,0.587084906 25.8718232,3.56972642 25.8718232,7.25019811 C25.8718232,10.9306698 28.840253,13.9145377 32.5016823,13.9145377" id="Fill-88" fill="#F5FFD2"></path>
                        </g>
                        <g id="Group-93" transform="translate(25.621465, 0.638962)">
                            <mask id="mask-53" fill="white">
                                <use xlink:href="#path-52"></use>
                            </mask>
                            <g id="Clip-92"></g>
                            <path d="M6.88021738,18.8201981 L133.513698,18.8201981 C137.175127,18.8201981 140.143557,15.8363302 140.143557,12.1558585 C140.143557,8.47538679 137.175127,5.49274528 133.513698,5.49274528 L6.88021738,5.49274528 C3.21878804,5.49274528 0.250358314,8.47538679 0.250358314,12.1558585 C0.250358314,15.8363302 3.21878804,18.8201981 6.88021738,18.8201981" id="Fill-91" fill="#E5F7B0" mask="url(#mask-53)"></path>
                        </g>
                        <g id="Group-102" transform="translate(12.200698, 0.638962)" stroke="#2F3061" stroke-linecap="round" stroke-linejoin="round" stroke-width="2">
                            <path d="M20.3009847,13.9145377 L146.934465,13.9145377 C150.595894,13.9145377 153.564324,10.9306698 153.564324,7.25019811 C153.564324,3.56972642 150.595894,0.587084906 146.934465,0.587084906 L20.3009847,0.587084906 C16.6395554,0.587084906 13.6711257,3.56972642 13.6711257,7.25019811 C13.6711257,10.9306698 16.6395554,13.9145377 20.3009847,13.9145377 Z" id="Stroke-94"></path>
                            <path d="M27.0244231,95.3824717 L27.0244231,105.103038 C27.0244231,114.59917 34.6864612,122.29983 44.1420019,122.29983" id="Stroke-96"></path>
                            <path d="M27.0244231,43.5328302 L27.0244231,60.8853774" id="Stroke-98"></path>
                            <path d="M0.724965451,80.6846226 C6.04934988,86.500283 13.6808862,90.1513208 22.1445101,90.1513208" id="Stroke-100"></path>
                        </g>
                    </g>
                    <g id="pencil" transform="translate(55.000000, 200.000000) rotate(-13.000000) translate(-55.000000, -200.000000) translate(37.000000, 111.000000)">
                        <polygon id="Triangle" stroke="#2F3061" stroke-width="2" fill="#F2C48F" stroke-linecap="round" stroke-linejoin="round" points="18 0 36 54.8630137 0 54.8630137"></polygon>
                        <path d="M36,54.8630137 L36,178 L0,178 L0,54.8630137 L6.75,47.5479452 L12.375,53.6438356 L18,47.5479452 L23.625,53.6438356 L29.25,47.5479452 L36,54.8630137 Z" id="Combined-Shape" stroke="#2F3061" stroke-width="2" fill="#F2C230" stroke-linecap="round" stroke-linejoin="round"></path>
                        <path d="M12.9,54.8630137 L18,49.3401013 L23.1,54.8630137 L23.5560059,54.8630137 L23.1,176.780822 L12,176.780822 L12.4560059,54.8630137 L12.9,54.8630137 Z" id="Combined-Shape" fill="#F28729"></path>
                        <path d="M18.2280029,2.43835616 L25.6800293,24.9931507 C23.2367397,25.8059361 20.7689732,26.2123288 18.2767299,26.2123288 C15.7844866,26.2123288 13.2922433,25.8059361 10.8,24.9931507 L18.2280029,2.43835616 Z" id="Triangle" fill="#2F3061"></path>
                    </g>
                </g>
            </g>
        </g>
    </g>
</svg>