<?xml version="1.0" encoding="UTF-8"?>
<svg width="115px" height="14px" viewBox="0 0 115 14" version="1.1" xmlns="http://www.w3.org/2000/svg" xmlns:xlink="http://www.w3.org/1999/xlink">
    <!-- Generator: Sketch 51.1 (57501) - http://www.bohemiancoding.com/sketch -->
    <title>NaNo-Name</title>
    <desc>Created with Sketch.</desc>
    <defs></defs>
    <g id="Page-1" stroke="none" stroke-width="1" fill="none" fill-rule="evenodd">
        <g id="Mobile-Nav-Default" transform="translate(-18.000000, -14.000000)" fill="#54301A" fill-rule="nonzero">
            <g id="topbar">
                <g id="NaNo-Name" transform="translate(18.000000, 14.000000)">
                    <path d="M10.7943925,8.77692308 L10.7943925,3.23076923 C10.7943925,2.38 10.7943925,2.15384615 9.76892523,2.15384615 L9.05649533,2.15384615 L9.05649533,0.376923077 L14.5616355,0.376923077 L14.5616355,2.15384615 L14.1190654,2.15384615 C13.1583645,2.15384615 13.0935981,2.31538462 13.0935981,3.23076923 L13.0935981,12.9230769 L8.77584112,12.9230769 L3.92915888,3.90923077 L3.92915888,10.0046154 C3.92915888,10.8984615 4.00471963,11.0815385 4.95462617,11.0815385 L5.51593458,11.0815385 L5.51593458,12.8584615 L0,12.8584615 L0,11.0815385 L0.615280374,11.0815385 C1.56518692,11.0815385 1.69471963,10.8984615 1.69471963,10.0046154 L1.69471963,3.23076923 C1.69471963,2.33692308 1.59757009,2.15384615 0.615280374,2.15384615 L0,2.15384615 L0,0.376923077 L6.18518692,0.376923077 L10.7943925,8.77692308 Z" id="Shape"></path>
                    <path d="M17.5300935,13.1707692 C15.6626636,13.1707692 14.6156075,12.2769231 14.6156075,10.6938462 C14.6156075,9.11076923 15.6950467,8.42153846 17.8539252,8.03384615 C19.5162617,7.75384615 20.3042523,7.53846154 20.3042523,6.46153846 C20.3042523,5.58923077 19.6673832,4.98615385 18.5663551,4.98615385 C18.1852493,5.00283976 17.8142932,5.11386717 17.4869159,5.30923077 C18.0674291,5.3969441 18.487187,5.90878565 18.4584112,6.49384615 C18.4584112,7.25846154 17.8323364,7.77538462 16.8392523,7.77538462 C15.6626636,7.77538462 15.015,7.20461538 15.015,6.21384615 C15.015,4.74923077 16.5801869,3.78 19.5054673,3.78 C20.7012284,3.70012978 21.89684,3.93795151 22.9704673,4.46923077 C23.8879907,5.08307692 23.9959346,5.80461538 23.9959346,7.01076923 L23.9959346,10.3815385 C23.9959346,10.7692308 23.9959346,10.9415385 24.3737383,10.9415385 C24.7515421,10.9415385 24.7623364,10.7369231 24.7623364,10.3815385 L24.7623364,9.30461538 L25.9928972,9.30461538 L25.9928972,10.4676923 C25.9928972,12.3738462 25.2157009,13.1707692 23.1971495,13.1707692 C22.2147017,13.2378602 21.2757126,12.7570247 20.7576168,11.9215385 C19.9298001,12.8083535 18.7407923,13.2685655 17.5300935,13.1707692 Z M18.231729,10.36 C18.2368084,10.6069588 18.3440957,10.8408111 18.5281263,11.0060526 C18.712157,11.1712941 18.9565229,11.2531919 19.2032243,11.2323077 C19.5372156,11.2607976 19.8655199,11.1328676 20.0917421,10.8860797 C20.3179643,10.6392919 20.4164286,10.3016562 20.3582243,9.97230769 L20.3582243,8.83076923 C18.9981308,9.50923077 18.231729,9.69230769 18.231729,10.36 Z" id="Shape"></path>
                    <path d="M37.4997196,8.77692308 L37.4997196,3.23076923 C37.4997196,2.38 37.4997196,2.15384615 36.4202804,2.15384615 L35.7078505,2.15384615 L35.7078505,0.376923077 L41.2021963,0.376923077 L41.2021963,2.15384615 L40.7596262,2.15384615 C39.8097196,2.15384615 39.6801869,2.31538462 39.6801869,3.23076923 L39.6801869,12.9230769 L35.3624299,12.9230769 L30.634486,3.90923077 L30.634486,10.0046154 C30.634486,10.8984615 30.7100467,11.0815385 31.6599533,11.0815385 L32.2212617,11.0815385 L32.2212617,12.8584615 L26.6945327,12.8584615 L26.6945327,11.0815385 L27.3098131,11.0815385 C28.270514,11.0815385 28.3892523,10.8984615 28.3892523,10.0046154 L28.3892523,3.23076923 C28.3892523,2.33692308 28.3028972,2.15384615 27.3098131,2.15384615 L26.6945327,2.15384615 L26.6945327,0.376923077 L32.890514,0.376923077 L37.4997196,8.77692308 Z" id="Shape"></path>
                    <path d="M51.921028,8.46461538 C51.921028,11.3615385 49.8916822,13.1707692 46.5238318,13.1707692 C43.1559813,13.1707692 41.1914019,11.4046154 41.1914019,8.46461538 C41.1914019,5.52461538 43.1775701,3.73692308 46.502243,3.73692308 C49.8269159,3.73692308 51.921028,5.56769231 51.921028,8.46461538 Z M46.5238318,5.47076923 C45.4443925,5.47076923 45.1637383,6.39692308 45.1637383,8.46461538 C45.1637383,10.5323077 45.4443925,11.4584615 46.556215,11.4584615 C47.6680374,11.4584615 47.9271028,10.5323077 47.9271028,8.46461538 C47.9271028,6.39692308 47.6788318,5.47076923 46.556215,5.47076923 L46.5238318,5.47076923 Z" id="Shape"></path>
                    <path d="M103.626168,2.15384615 L103.010888,2.15384615 C102.028598,2.15384615 101.931449,2.34769231 101.931449,3.23076923 L101.931449,10.0046154 C101.931449,10.8769231 101.931449,11.0815385 103.010888,11.0815385 L103.626168,11.0815385 L103.626168,12.8476923 L96.771729,12.8476923 L96.771729,11.0815385 L97.2358879,11.0815385 C98.3153271,11.0815385 98.3153271,10.8446154 98.3153271,10.0046154 L98.3153271,2.46615385 L95.0770093,12.9015385 L92.1301402,12.9015385 L89.0861215,2.43384615 L89.0861215,9.97230769 C89.0861215,10.8661538 89.1616822,11.0492308 90.1655607,11.0492308 L90.6297196,11.0492308 L90.6297196,12.8153846 L85.0166355,12.8153846 L85.0166355,11.0815385 L85.5995327,11.0815385 C86.5494393,11.0815385 86.678972,10.8984615 86.678972,10.0046154 L86.678972,3.23076923 C86.678972,2.33692308 86.6034112,2.15384615 85.5995327,2.15384615 L85.0166355,2.15384615 L85.0166355,0.366153846 L92.0329907,0.366153846 L94.1918692,7.80769231 L96.3939252,0.366153846 L103.626168,0.366153846 L103.626168,2.15384615 Z" id="Shape"></path>
                    <path d="M114.755187,8.46461538 C114.755187,11.3615385 112.725841,13.1707692 109.357991,13.1707692 C105.99014,13.1707692 104.025561,11.4046154 104.025561,8.46461538 C104.025561,5.52461538 106.011729,3.73692308 109.336402,3.73692308 C112.661075,3.73692308 114.755187,5.55692308 114.755187,8.46461538 Z M109.357991,5.47076923 C108.278551,5.47076923 107.997897,6.39692308 107.997897,8.46461538 C107.997897,10.5323077 108.278551,11.4584615 109.390374,11.4584615 C110.502196,11.4584615 110.750467,10.5215385 110.750467,8.46461538 C110.750467,6.40769231 110.502196,5.47076923 109.390374,5.47076923 L109.357991,5.47076923 Z" id="Shape"></path>
                    <path d="M56.5086449,2.15384615 C55.9689252,2.15384615 55.7314486,2.26153846 55.7314486,2.61692308 C55.7310925,2.78063243 55.7528778,2.94364129 55.796215,3.10153846 L57.5772897,9.42307692 L59.0237383,3.52153846 C58.8402336,2.44461538 58.5271963,2.16461538 57.4801402,2.15384615 L57.4801402,0.376923077 L63.6869159,0.376923077 L63.6869159,2.15384615 L63.276729,2.15384615 C62.618271,2.15384615 62.3376168,2.22923077 62.3376168,2.61692308 C62.3460855,2.78061864 62.3714056,2.94301134 62.4131776,3.10153846 L63.9675701,9.42307692 L65.5651402,3.08 C65.6093447,2.92933424 65.6347238,2.77379739 65.6407009,2.61692308 C65.6407009,2.20769231 65.3600467,2.15384615 64.5612617,2.15384615 L64.5612617,0.376923077 L69.3323832,0.376923077 L69.3323832,2.15384615 C68.5335981,2.15384615 68.1773832,2.48769231 67.9399065,3.36 L65.3276636,12.8692308 L61.3553271,12.8692308 L60.1247664,7.77538462 L58.8618224,12.8584615 L54.8463084,12.8584615 L52.277243,3.68307692 C51.975,2.63846154 51.5540187,2.15384615 50.7336449,2.15384615 L50.7336449,0.376923077 L56.5302336,0.376923077 L56.5086449,2.15384615 Z" id="Shape"></path>
                    <path d="M75.5607477,3.75846154 C76.1433499,3.72352228 76.7130533,3.93920097 77.1257589,4.35094455 C77.5384645,4.76268813 77.7546471,5.33106351 77.7196262,5.91230769 C77.7693807,6.39543057 77.6084944,6.87657012 77.2779639,7.23312313 C76.9474334,7.58967613 76.4791801,7.78720823 75.9925234,7.77538462 C75.2332623,7.8058029 74.5918763,7.21883525 74.5568692,6.46153846 C74.549052,5.92742698 74.8768683,5.44545542 75.377243,5.25538462 C75.2442736,5.21456409 75.1061632,5.19280801 74.9670561,5.19076923 C74.0171495,5.19076923 73.3586916,6.12769231 73.3586916,7.79692308 L73.3586916,10.3384615 C73.3586916,11.0492308 73.5098131,11.2215385 74.2438318,11.2215385 L74.8375234,11.2215385 L74.8375234,12.8584615 L68.501215,12.8584615 L68.501215,11.2215385 L68.8142523,11.2215385 C69.5374766,11.2215385 69.6885981,11.0492308 69.6885981,10.3384615 L69.6885981,6.58 C69.6885981,5.88 69.5374766,5.70769231 68.8142523,5.70769231 L68.501215,5.70769231 L68.501215,4.07076923 L73.2723364,4.07076923 L73.2723364,4.93230769 C73.8034016,4.19879682 74.6537921,3.76258692 75.5607477,3.75846154 Z" id="Shape"></path>
                    <path d="M83.9371963,11.2215385 L84.2502336,11.2215385 L84.2502336,12.8584615 L78.1406075,12.8584615 L78.1406075,11.2215385 L78.5076168,11.2215385 C79.2416355,11.2215385 79.3819626,11.0492308 79.3819626,10.3384615 L79.3819626,6.58 C79.3819626,5.88 79.2416355,5.70769231 78.5076168,5.70769231 L78.1406075,5.70769231 L78.1406075,4.07076923 L83.1168224,4.07076923 L83.1168224,10.3384615 C83.1168224,11.0492308 83.2031776,11.2215385 83.9371963,11.2215385 Z M80.9579439,-2.27583556e-09 C81.4064252,-9.19525147e-06 81.8363822,0.17846784 82.1524916,0.495861982 C82.468601,0.813256124 82.644744,1.24334254 82.6418692,1.69076923 C82.6447656,2.13721253 82.4682828,2.56620812 82.1518555,2.88189782 C81.8354282,3.19758752 81.4054303,3.37365892 80.9579439,3.37076923 C80.5105269,3.37669129 80.0798497,3.20123929 79.7644692,2.88456403 C79.4490888,2.56788876 79.2760001,2.13709599 79.2848131,1.69076923 C79.2790388,1.2443417 79.4527621,0.814212037 79.7671631,0.496496641 C80.081564,0.178781246 80.5104361,-3.71705192e-05 80.9579439,-2.27583556e-09 Z" id="Shape"></path>
                </g>
            </g>
        </g>
    </g>
</svg>