<?xml version="1.0" encoding="UTF-8"?>
<svg width="131px" height="142px" viewBox="0 0 131 142" version="1.1" xmlns="http://www.w3.org/2000/svg" xmlns:xlink="http://www.w3.org/1999/xlink">
    <!-- Generator: Sketch 51.1 (57501) - http://www.bohemiancoding.com/sketch -->
    <title>Page 1</title>
    <desc>Created with Sketch.</desc>
    <defs>
        <path d="M2.76050293,1.11482349 C-0.675931178,2.3498076 0.0675931178,5.42858959 0.0675931178,5.42858959 C7.1283702,46.8119056 40.2016827,54.988168 55.0086311,56.562272 L54.1921063,36.0134716 C19.5073738,35.315205 10.1795235,10.2296737 7.37305729,3.66890413 C6.60384761,1.86115443 5.49937606,0.865156433 4.06910569,0.865156433 C3.6594914,0.865156433 3.22283986,0.946598628 2.76050293,1.11482349" id="path-1"></path>
        <path d="M6.93198966,0.668776978 C5.00919897,1.73908873 4.75390181,3.54398082 5.88527132,5.81621103 C9.06439276,12.2367386 22.1342636,35.7285372 0.157209302,62.2848921 L15.2909561,76.3936691 C23.6996382,64.218705 38.9301292,33.9652758 11.9667183,1.4758753 C11.9667183,1.4758753 10.9347804,0.0470023981 9.10067183,0.0470023981 C8.46914729,0.0470023981 7.74356589,0.214868106 6.93198966,0.668776978" id="path-3"></path>
    </defs>
    <g id="4.-About-Us,-Bios,-Annual-Report,-Brought-to-You-By,-Sponsorship-Opportunities" stroke="none" stroke-width="1" fill="none" fill-rule="evenodd">
        <g id="4a.-Staff-(About-Us)---V3" transform="translate(-1119.000000, -2314.000000)">
            <g id="banner" transform="translate(0.000000, 2226.000000)">
                <g id="Page-1" transform="translate(1120.000000, 89.000000)">
                    <path d="M54.4186047,103.741007 C39.7704602,102.175395 7.05185779,94.0445702 0.0668072788,52.883182 C0.0668072788,52.883182 -0.667405382,49.8223374 2.7321731,48.5940158 C4.78903844,47.8437437 6.3149704,48.8197614 7.29525798,51.1343177 C10.071625,57.6596931 19.298097,82.6085643 53.610837,83.303064 L54.4186047,103.741007 Z" id="Fill-1" fill="#D1CAA1"></path>
                    <g id="Group-5" transform="translate(0.000000, 47.338129)">
                        <mask id="mask-2" fill="white">
                            <use xlink:href="#path-1"></use>
                        </mask>
                        <g id="Clip-4"></g>
                        <path d="M54.1856173,36.0134716 L54.5479164,45.0241827 C40.143823,43.2124276 11.6614351,35.2951782 2.5093269,1.20160616 C2.58773492,1.16555797 2.6674948,1.13084491 2.75266213,1.11081814 C4.83317829,0.355141375 6.3770051,1.34713401 7.37873511,3.66890413 C10.1743865,10.2283386 19.5130516,35.3071942 54.1856173,36.0134716" id="Fill-3" fill="#E2DBBA" mask="url(#mask-2)"></path>
                    </g>
                    <g id="Group-10">
                        <path d="M54.3869464,103.894906 C39.7471961,102.311597 7.04734296,94.0888633 0.0662952264,52.4621966 C0.0662952264,52.4621966 -0.667496695,49.366753 2.73013366,48.1245468 C4.78582032,47.3657938 6.31087785,48.3528441 7.29060367,50.6935635 C10.0653797,57.2927002 19.2865645,82.5235875 53.5796416,83.2259376 L54.3869464,103.894906 Z" id="Stroke-6" stroke="#2F3061" stroke-width="2" stroke-linecap="round" stroke-linejoin="round"></path>
                        <path d="M114.118812,76.3938034 C122.483238,64.2201823 137.634905,33.9654101 110.81207,1.47466667 C110.81207,1.47466667 108.959546,-1.10509353 105.80384,0.668911271 C103.891169,1.73922302 103.637216,3.54277218 104.762631,5.81634532 C107.92502,12.2382158 120.926102,35.7300144 99.0633797,62.2863693 L114.118812,76.3938034 Z" id="Fill-8" fill="#D1CAA1"></path>
                    </g>
                    <g id="Group-13" transform="translate(98.759690, 0.000000)">
                        <mask id="mask-4" fill="white">
                            <use xlink:href="#path-3"></use>
                        </mask>
                        <g id="Clip-12"></g>
                        <path d="M0.161643411,62.2805947 L6.7953385,68.4701391 C14.7606098,56.4428969 27.2110491,29.8126811 7.16081654,0.535558753 C7.08154005,0.571817746 7.0049509,0.608076739 6.93373643,0.659107914 C5.00691473,1.72941966 4.76236693,3.54102638 5.88298708,5.82131415 C9.0674832,12.2310983 22.125261,35.7282686 0.161643411,62.2805947" id="Fill-11" fill="#E2DBBA" mask="url(#mask-4)"></path>
                    </g>
                    <g id="Group-52" transform="translate(49.379845, 0.000000)">
                        <path d="M65.0068527,76.3938034 C73.4155349,64.2201823 88.6473695,33.9654101 61.682615,1.47466667 C61.682615,1.47466667 59.8202894,-1.10509353 56.6478863,0.668911271 C54.7250956,1.73922302 54.4697984,3.54277218 55.601168,5.81634532 C58.7802894,12.2382158 71.8501602,35.7300144 49.8717623,62.2863693 L65.0068527,76.3938034 Z" id="Stroke-14" stroke="#2F3061" stroke-width="2" stroke-linecap="round" stroke-linejoin="round"></path>
                        <path d="M27.0889096,56.2235971 L48.4263773,102.762686 C44.3416227,104.973141 40.0029147,106.960671 35.6615194,108.608441 L14.3240517,62.0693525 C16.1554729,60.5881055 18.1508217,59.3364988 20.3356279,58.3360192 C22.5204341,57.3355396 24.7697364,56.6439329 27.0889096,56.2235971" id="Fill-16" fill="#E2EFF3"></path>
                        <path d="M27.0889096,56.2235971 L48.4263773,102.762686 C44.3416227,104.973141 40.0029147,106.960671 35.6615194,108.608441 L14.3240517,62.0693525 C16.1554729,60.5881055 18.1508217,59.3364988 20.3356279,58.3360192 C22.5204341,57.3355396 24.7697364,56.6439329 27.0889096,56.2235971 Z" id="Stroke-18" stroke="#2F3061" stroke-width="2" stroke-linecap="round" stroke-linejoin="round"></path>
                        <path d="M77.5604858,87.1936115 C81.6156796,96.036777 69.7349561,107.478504 54.3902532,115.77107 C54.0852403,115.929535 53.7882894,116.102772 53.4752145,116.246465 L61.4324238,135.24752 C57.3476693,137.457976 56.1303049,138.01529 51.7875659,139.664403 L42.5834315,121.234091 C42.2703566,121.377784 41.943845,121.489247 41.6253953,121.616825 C25.3226563,127.818456 8.89495607,129.341333 4.84110594,120.498168 C3.47459432,117.519559 2.43190698,114.29788 1.70901292,110.948624 C8.15190698,115.734811 21.9581085,113.809055 35.6608475,108.609247 C35.8408992,108.546129 35.9954212,108.474954 36.1754729,108.411837 C40.1688579,106.866129 44.1635866,105.037065 47.9419845,103.022676 C48.1059121,102.928671 48.2617778,102.857496 48.4257054,102.763492 C61.3141809,95.784307 71.7894264,86.5906379 72.3685478,78.5881439 C74.4337674,81.3223405 76.1939742,84.2150024 77.5604858,87.1936115" id="Fill-20" fill="#E2EFF3"></path>
                        <path d="M77.5604858,87.1936115 C81.6156796,96.036777 69.7349561,107.478504 54.3902532,115.77107 C54.0852403,115.929535 53.7882894,116.102772 53.4752145,116.246465 L61.4324238,135.24752 C57.3476693,137.457976 56.1303049,138.01529 51.7875659,139.664403 L42.5834315,121.234091 C42.2703566,121.377784 41.943845,121.489247 41.6253953,121.616825 C25.3226563,127.818456 8.89495607,129.341333 4.84110594,120.498168 C3.47459432,117.519559 2.43190698,114.29788 1.70901292,110.948624 C8.15190698,115.734811 21.9581085,113.809055 35.6608475,108.609247 C35.8408992,108.546129 35.9954212,108.474954 36.1754729,108.411837 C40.1688579,106.866129 44.1635866,105.037065 47.9419845,103.022676 C48.1059121,102.928671 48.2617778,102.857496 48.4257054,102.763492 C61.3141809,95.784307 71.7894264,86.5906379 72.3685478,78.5881439 C74.4337674,81.3223405 76.1939742,84.2150024 77.5604858,87.1936115 Z" id="Stroke-22" stroke="#2F3061" stroke-width="2" stroke-linecap="round" stroke-linejoin="round"></path>
                        <path d="M14.3240517,62.0694868 L35.6615194,108.608576 C21.9587804,113.809727 8.15123514,115.735482 1.70834109,110.949295 C1.40467183,109.502964 1.14668734,108.036489 0.953198966,106.539127 C-1.110677,90.6711175 2.85045995,71.3061295 14.3240517,62.0694868" id="Fill-24" fill="#A5D9E4"></path>
                        <path d="M14.3240517,62.0694868 L35.6615194,108.608576 C21.9587804,113.809727 8.15123514,115.735482 1.70834109,110.949295 C1.40467183,109.502964 1.14668734,108.036489 0.953198966,106.539127 C-1.110677,90.6711175 2.85045995,71.3061295 14.3240517,62.0694868 Z" id="Stroke-26" stroke="#2F3061" stroke-width="2" stroke-linecap="round" stroke-linejoin="round"></path>
                        <path d="M72.3681447,78.5884125 C71.7890233,86.5909065 61.3137778,95.7845755 48.426646,102.762417 L27.0891783,56.2233285 C41.5806512,53.5683645 58.84277,63.2132566 69.5209096,75.1370935 C70.5273178,76.2611223 71.4705736,77.4133525 72.3681447,78.5884125" id="Fill-28" fill="#A5D9E4"></path>
                        <path d="M72.3681447,78.5884125 C71.7890233,86.5909065 61.3137778,95.7845755 48.426646,102.762417 L27.0891783,56.2233285 C41.5806512,53.5683645 58.84277,63.2132566 69.5209096,75.1370935 C70.5273178,76.2611223 71.4705736,77.4133525 72.3681447,78.5884125 Z" id="Stroke-30" stroke="#2F3061" stroke-width="2" stroke-linecap="round" stroke-linejoin="round"></path>
                        <path d="M27.3237829,67.4011703 C27.9149974,68.6930647 27.3493127,70.2213141 26.0553592,70.8135444 C24.7627494,71.4044317 23.2336537,70.837717 22.6424393,69.5458225 C22.0498811,68.2525851 22.6169096,66.7256787 23.9095194,66.1334484 C25.2034729,65.5412182 26.7312248,66.1092758 27.3237829,67.4011703" id="Fill-32" fill="#2F3061"></path>
                        <path d="M33.578832,81.0442206 C34.1700465,82.3361151 33.6030181,83.8643645 32.3104083,84.4552518 C31.0177984,85.047482 29.4887028,84.4807674 28.8974884,83.1888729 C28.3049302,81.8956355 28.8719587,80.368729 30.1645685,79.7764988 C31.458522,79.1842686 32.9862739,79.7523261 33.578832,81.0442206" id="Fill-34" fill="#2F3061"></path>
                        <path d="M39.8340155,94.6871367 C40.42523,95.9790312 39.8582016,97.5059376 38.5655917,98.0981679 C37.2729819,98.6903981 35.7438863,98.1236835 35.1526718,96.830446 C34.55877,95.5385516 35.1271421,94.0116451 36.4197519,93.4194149 C37.7137054,92.8271847 39.2414574,93.3952422 39.8340155,94.6871367" id="Fill-36" fill="#2F3061"></path>
                        <path d="M18.7105943,119.203453 C19.3018088,120.495348 18.736124,122.022254 17.4421705,122.614484 C16.1495607,123.206715 14.6218088,122.64 14.0292506,121.346763 C13.4366925,120.054868 14.0037209,118.527962 15.2976744,117.935731 C16.5902842,117.343501 18.1180362,117.911559 18.7105943,119.203453" id="Fill-38" fill="#2F3061"></path>
                        <path d="M38.469385,115.240882 C39.0605995,116.532777 38.4949147,118.059683 37.2009612,118.651914 C35.9083514,119.244144 34.3805995,118.677429 33.7880413,117.384192 C33.1954832,116.092297 33.7625116,114.565391 35.0564651,113.973161 C36.3490749,113.38093 37.8768269,113.948988 38.469385,115.240882" id="Fill-40" fill="#2F3061"></path>
                        <path d="M56.3005478,107.074552 C56.8917623,108.366446 56.3260775,109.893353 55.032124,110.485583 C53.7395142,111.077813 52.2117623,110.511098 51.6192041,109.217861 C51.026646,107.925966 51.5936744,106.39906 52.8876279,105.80683 C54.1802377,105.2146 55.7079897,105.782657 56.3005478,107.074552" id="Fill-42" fill="#2F3061"></path>
                        <path d="M72.2040827,94.7041918 C72.7966408,95.9960863 72.2296124,97.5229928 70.9370026,98.115223 C69.6443928,98.7074532 68.1152972,98.1407386 67.522739,96.8475012 C66.9301809,95.5556067 67.498553,94.0287002 68.7911628,93.43647 C70.0837726,92.8442398 71.6128682,93.4122974 72.2040827,94.7041918" id="Fill-44" fill="#2F3061"></path>
                        <path d="M80.3855504,83.7201343 C80.9767649,85.0120288 80.4110801,86.5389353 79.1171266,87.1311655 C77.8245168,87.7233957 76.2967649,87.1566811 75.7042067,85.8634436 C75.1116486,84.5715492 75.678677,83.0446427 76.9726305,82.4524125 C78.2652403,81.8601823 79.7929922,82.4282398 80.3855504,83.7201343" id="Fill-46" fill="#2F3061"></path>
                        <path d="M5.04426873,118.22446 C5.63682687,119.516355 5.06979845,121.044604 3.77718863,121.636835 C2.48323514,122.227722 0.955483204,121.661007 0.362925065,120.369113 C-0.229633075,119.075875 0.338739018,117.548969 1.63134884,116.956739 C2.92395866,116.364508 4.45305426,116.932566 5.04426873,118.22446" id="Fill-48" fill="#2F3061"></path>
                        <path d="M7.76183979,91.6760288 C8.29258915,86.9234149 9.5180155,82.2527194 11.5012713,78.2199137" id="Stroke-50" stroke="#D4FAFF" stroke-width="2" stroke-linecap="round" stroke-linejoin="round"></path>
                    </g>
                </g>
            </g>
        </g>
    </g>
</svg>