<?xml version="1.0" encoding="UTF-8"?>
<svg width="166px" height="132px" viewBox="0 0 166 132" version="1.1" xmlns="http://www.w3.org/2000/svg" xmlns:xlink="http://www.w3.org/1999/xlink">
    <!-- Generator: Sketch 51.1 (57501) - http://www.bohemiancoding.com/sketch -->
    <title>Group 4</title>
    <desc>Created with Sketch.</desc>
    <defs>
        <polygon id="path-1" points="0 0.2401 47.1668 0.2401 47.1668 111 0 111"></polygon>
        <polygon id="path-3" points="0 0.2401 47.1668 0.2401 47.1668 111 0 111"></polygon>
        <polygon id="path-5" points="0 0.2401 47.1668 0.2401 47.1668 111 0 111"></polygon>
        <polygon id="path-7" points="0 0.2401 47.1668 0.2401 47.1668 111 0 111"></polygon>
    </defs>
    <g id="2.-What-is-NaNoWriMo?,-The-Platform,-Young-Writers-Program,-Programming-&amp;-Impact" stroke="none" stroke-width="1" fill="none" fill-rule="evenodd">
        <g id="2.-What-Is-NaNoWriMo---v3" transform="translate(-82.000000, -2766.000000)">
            <g id="Volunteers" transform="translate(80.000000, 2764.000000)">
                <g id="Group-4">
                    <g id="Page-1" transform="translate(106.645791, 76.507449) rotate(-7.000000) translate(-106.645791, -76.507449) translate(82.645791, 20.507449)">
                        <path d="M44.8301,30.0559 C43.0481,28.2739 40.1591,28.2739 38.3771,30.0559 L35.5071,32.9259 C35.5011,32.9329 35.4921,32.9349 35.4861,32.9419 L35.5131,32.9099 L35.4271,32.9839 C34.5991,33.6949 33.1921,33.1239 33.2991,32.0119 L35.5131,9.0049 C35.7091,6.9639 34.2141,5.1509 32.1741,4.9539 C30.1341,4.7579 28.3201,6.2529 28.1241,8.2939 L26.3331,26.4959 L25.8761,26.4959 L25.8761,5.7119 C25.8761,3.6609 24.2141,1.9999 22.1641,1.9999 C20.1141,1.9999 18.4521,3.6609 18.4521,5.7119 L18.4521,26.4959 L18.1301,26.4959 L16.8801,8.4959 C16.7411,6.4519 14.9721,4.9059 12.9271,5.0429 C10.8821,5.1809 9.3351,6.9509 9.4741,8.9959 L10.6881,26.4959 L10.3511,26.4959 L8.3961,13.0789 C8.1461,11.0449 6.2951,9.5979 4.2611,9.8479 C2.2261,10.0979 0.7781,11.9499 1.0281,13.9839 L3.6061,36.7279 C4.3171,42.5189 5.0081,48.6489 6.0891,52.4739 C6.1661,52.7469 6.2391,53.3209 6.3091,54.1279 L6.1261,54.0829 C6.1841,54.1179 6.2541,54.1429 6.3131,54.1759 C6.9751,61.8939 7.3171,110.7599 7.3171,110.7599 L29.8581,110.7599 L29.8581,54.6409 C29.9061,54.4709 29.9561,54.2999 30.0161,54.1259 C30.0421,54.1109 30.0751,54.0989 30.1021,54.0829 L30.0241,54.1029 C32.5021,46.8939 44.8301,36.5089 44.8301,36.5089 C46.6121,34.7269 46.6121,31.8379 44.8301,30.0559" id="Fill-1" fill="#A5D9E4"></path>
                        <path d="M12.6592,110.76 L7.3182,110.76 C7.3182,110.76 6.9782,61.89 6.3182,54.17 C6.2592,54.14 6.1882,54.111 6.1292,54.08 L6.3182,54.12 C6.2492,53.321 6.1692,52.74 6.0892,52.47 C5.0092,48.64 4.3182,42.51 3.6082,36.72 L1.0282,13.98 C0.7782,11.941 2.2282,10.09 4.2682,9.84 C4.3392,9.83 4.3882,9.821 4.4592,9.83 C3.3292,10.67 2.6792,12.08 2.8582,13.571 L6.6882,38.47 C7.4592,44.81 10.2192,51.52 11.3982,55.72 C11.4882,56.01 11.5792,56.651 11.6482,57.531 L11.4482,57.48 C11.5092,57.51 11.5892,57.55 11.6482,57.58 C12.1592,63.531 12.4992,100.97 12.6592,110.76" id="Fill-3" fill="#96C6D0"></path>
                        <path d="M44.876,36.5051 C44.876,36.5051 32.546,46.8951 30.065,54.1051 L30.146,54.0841 C30.116,54.0951 30.086,54.1141 30.056,54.1241 C29.996,54.3051 29.946,54.4751 29.896,54.6451 L29.896,110.7651 L23.876,110.7651 C23.876,110.7651 25.743,68.7551 26.044,63.3171 C26.346,57.8771 24.802,55.8721 24.802,55.8721 C24.802,55.8721 24.073,55.4131 25.038,54.8841 C25.928,54.3961 28.09,54.0531 29.193,51.8691 C30.853,48.5861 42.426,36.1241 42.426,36.1241 C44.306,34.2551 45.306,31.2151 43.426,29.3341 C43.276,29.1851 43.116,29.0441 42.946,28.9141 C43.646,29.1141 44.315,29.4941 44.876,30.0551 C46.656,31.8341 46.656,34.7251 44.876,36.5051" id="Fill-5" fill="#96C6D0"></path>
                        <path d="M28.9649,8.3079 L26.6939,31.6569 L28.1949,31.9309 L30.6259,7.8829 C30.7489,6.6319 31.5259,5.6079 32.6139,5.0549 C30.7109,5.1439 29.1399,6.4859 28.9649,8.3079" id="Fill-7" fill="#96C6D0"></path>
                        <path d="M19.3975,5.884 L19.3125,30.933 L20.8335,31.067 L21.0115,5.306 C21.0185,4.049 21.6955,2.956 22.7275,2.305 C20.8415,2.571 19.4015,4.054 19.3975,5.884" id="Fill-9" fill="#96C6D0"></path>
                        <path d="M10.3535,9.2287 L11.8955,31.5937 L13.4215,31.6077 L11.9165,8.5257 C11.8255,7.2727 12.4145,6.1297 13.3915,5.3997 C11.5325,5.8127 10.2135,7.4037 10.3535,9.2287" id="Fill-11" fill="#96C6D0"></path>
                        <g id="Group-15" transform="translate(0.000000, 0.760000)">
                            <mask id="mask-2" fill="white">
                                <use xlink:href="#path-1"></use>
                            </mask>
                            <g id="Clip-14"></g>
                            <path d="M11.1348,6.2021 C11.6118,5.6571 12.2718,5.3301 12.9938,5.2811 C14.4938,5.1681 15.7808,6.3121 15.8818,7.8061 L17.4168,29.9311 C15.3878,29.9981 13.5518,30.1881 12.0158,30.4111 L12.0128,30.3631 C12.0108,30.3231 12.0248,30.2861 12.0188,30.2461 L11.9908,30.0561 L10.4718,8.1691 C10.4218,7.4461 10.6578,6.7481 11.1348,6.2021 M22.1638,2.2401 C23.6588,2.2401 24.8758,3.4571 24.8758,4.9521 L24.8758,30.3061 C22.9978,30.0431 21.1728,29.9251 19.4518,29.9071 L19.4518,4.9521 C19.4518,3.4571 20.6688,2.2401 22.1638,2.2401 M45.5368,28.5891 C44.4868,27.5381 43.0888,26.9591 41.6038,26.9591 C40.1178,26.9591 38.7208,27.5381 37.6698,28.5891 L34.7988,31.4591 C34.6448,31.6151 34.4348,31.5191 34.4098,31.5091 C34.2838,31.4491 34.2908,31.3831 34.2938,31.3481 L36.5078,8.3411 C36.7568,5.7551 34.8558,3.4471 32.2698,3.1991 C31.0258,3.0821 29.7928,3.4531 28.8218,4.2541 C27.8508,5.0541 27.2488,6.1841 27.1288,7.4351 L26.8758,10.0071 L26.8758,4.9521 C26.8758,2.3531 24.7628,0.2401 22.1638,0.2401 C19.5658,0.2401 17.4518,2.3531 17.4518,4.9521 L17.4518,6.0471 C16.6578,4.3111 14.8578,3.1501 12.8598,3.2851 C11.6038,3.3701 10.4558,3.9381 9.6278,4.8861 C8.7998,5.8341 8.3908,7.0481 8.4758,8.3061 L8.6038,10.1501 C8.3298,9.7451 8.0098,9.3691 7.6138,9.0591 C6.6208,8.2841 5.3888,7.9391 4.1388,8.0961 C1.5608,8.4121 -0.2802,10.7661 0.0348,13.3361 L2.6138,36.0901 L2.7928,37.5581 C3.4438,42.8921 4.1148,48.4091 5.1268,51.9851 C5.6938,53.9911 6.1498,95.8251 6.3178,110.0121 C6.3238,110.5601 6.7708,111.0001 7.3178,111.0001 L7.3288,111.0001 C7.8818,110.9931 8.3238,110.5401 8.3178,109.9881 C8.2808,106.8851 7.9828,63.1751 7.3868,54.4501 C8.5528,54.8771 9.8638,55.1241 11.1928,55.1241 C11.2408,55.1241 11.2908,55.1241 11.3408,55.1231 C11.6158,55.1191 11.8378,54.8921 11.8338,54.6161 C11.8298,54.3431 11.6078,54.1231 11.3338,54.1231 L11.3268,54.1231 C9.9228,54.1541 8.4978,53.8641 7.3018,53.3501 C7.2238,52.4281 7.1398,51.7571 7.0508,51.4421 C6.0818,48.0141 5.4198,42.5751 4.7788,37.3161 L2.0208,13.1021 C1.8388,11.6181 2.8988,10.2631 4.3828,10.0801 C5.1028,9.9921 5.8118,10.1891 6.3818,10.6351 C6.9528,11.0811 7.3158,11.7231 7.4068,12.4641 L9.9988,30.2521 L10.0318,30.7421 C8.2648,31.0771 7.2068,31.3871 7.1728,31.3961 C6.9088,31.4751 6.7588,31.7551 6.8388,32.0181 C6.9178,32.2841 7.1978,32.4331 7.4608,32.3531 C7.5718,32.3211 18.5528,29.0971 29.7188,32.3551 C29.7648,32.3681 29.8128,32.3751 29.8588,32.3751 C30.0748,32.3751 30.2748,32.2331 30.3388,32.0141 C30.4158,31.7501 30.2638,31.4731 29.9978,31.3941 C28.9368,31.0851 27.8768,30.8331 26.8278,30.6301 C26.8398,30.5811 26.8658,30.5401 26.8708,30.4881 L29.1188,7.6291 C29.1888,6.9081 29.5348,6.2581 30.0938,5.7971 C30.6538,5.3361 31.3528,5.1221 32.0778,5.1891 C33.5668,5.3331 34.6598,6.6601 34.5178,8.1491 L32.3038,31.1561 C32.2278,31.9431 32.6008,32.6631 33.2438,33.1081 C32.3648,33.9641 31.1748,34.9971 29.8748,35.7641 C29.3998,36.0461 29.2418,36.6591 29.5228,37.1351 C29.7098,37.4501 30.0428,37.6261 30.3848,37.6261 C30.5578,37.6261 30.7338,37.5811 30.8928,37.4871 C33.5868,35.8941 35.7798,33.3841 36.2078,32.8771 C36.2098,32.8761 36.2118,32.8751 36.2138,32.8731 L39.0838,30.0031 C40.4298,28.6571 42.7778,28.6571 44.1228,30.0031 C45.5128,31.3921 45.5128,33.6521 44.1858,34.9841 C43.6108,35.4691 31.3678,45.8491 28.9888,53.3201 C27.8258,53.8311 26.4448,54.1241 25.0378,54.1241 C24.9888,54.1241 24.9328,54.1251 24.8948,54.1231 C24.6208,54.1231 24.3988,54.3431 24.3948,54.6161 C24.3908,54.8921 24.6128,55.1191 24.8878,55.1231 C24.9378,55.1241 24.9878,55.1241 25.0358,55.1241 C26.3118,55.1241 27.5688,54.8911 28.7008,54.4971 C28.6338,54.8821 28.5878,55.2591 28.5878,55.6211 L28.5878,110.0001 C28.5878,110.5531 29.0348,111.0001 29.5878,111.0001 C30.1408,111.0001 30.5878,110.5531 30.5878,110.0001 L30.5878,55.6211 C30.5878,50.2331 41.3338,40.0021 45.5368,36.4561 C46.5878,35.4051 47.1668,34.0081 47.1668,32.5221 C47.1668,31.0371 46.5878,29.6391 45.5368,28.5891" id="Fill-13" fill="#2F3061" mask="url(#mask-2)"></path>
                        </g>
                        <path d="M25.585,40.9485 C25.495,40.6855 25.212,40.5505 24.95,40.6365 C22.134,41.5965 18.923,44.5945 18.235,48.4675 C18.187,48.7395 18.368,48.9995 18.64,49.0475 C18.67,49.0525 18.699,49.0545 18.729,49.0545 C18.966,49.0545 19.177,48.8855 19.22,48.6425 C19.833,45.1885 22.796,42.4275 25.273,41.5835 C25.534,41.4935 25.674,41.2095 25.585,40.9485" id="Fill-16" fill="#2F3061"></path>
                        <path d="M10.4649,40.8948 C10.2829,40.8948 10.1089,40.7948 10.0199,40.6238 C9.8939,40.3768 9.9909,40.0758 10.2359,39.9498 C15.4929,37.2548 21.1879,36.8398 21.4269,36.8238 C21.7009,36.7968 21.9409,37.0118 21.9599,37.2888 C21.9789,37.5638 21.7709,37.8018 21.4949,37.8218 C21.4389,37.8258 15.7609,38.2418 10.6939,40.8398 C10.6199,40.8768 10.5419,40.8948 10.4649,40.8948" id="Fill-18" fill="#2F3061"></path>
                    </g>
                    <g id="Page-1-Copy-3" transform="translate(31.000000, 71.000000) rotate(-7.000000) translate(-31.000000, -71.000000) translate(7.000000, 15.000000)">
                        <path d="M44.8301,30.0559 C43.0481,28.2739 40.1591,28.2739 38.3771,30.0559 L35.5071,32.9259 C35.5011,32.9329 35.4921,32.9349 35.4861,32.9419 L35.5131,32.9099 L35.4271,32.9839 C34.5991,33.6949 33.1921,33.1239 33.2991,32.0119 L35.5131,9.0049 C35.7091,6.9639 34.2141,5.1509 32.1741,4.9539 C30.1341,4.7579 28.3201,6.2529 28.1241,8.2939 L26.3331,26.4959 L25.8761,26.4959 L25.8761,5.7119 C25.8761,3.6609 24.2141,1.9999 22.1641,1.9999 C20.1141,1.9999 18.4521,3.6609 18.4521,5.7119 L18.4521,26.4959 L18.1301,26.4959 L16.8801,8.4959 C16.7411,6.4519 14.9721,4.9059 12.9271,5.0429 C10.8821,5.1809 9.3351,6.9509 9.4741,8.9959 L10.6881,26.4959 L10.3511,26.4959 L8.3961,13.0789 C8.1461,11.0449 6.2951,9.5979 4.2611,9.8479 C2.2261,10.0979 0.7781,11.9499 1.0281,13.9839 L3.6061,36.7279 C4.3171,42.5189 5.0081,48.6489 6.0891,52.4739 C6.1661,52.7469 6.2391,53.3209 6.3091,54.1279 L6.1261,54.0829 C6.1841,54.1179 6.2541,54.1429 6.3131,54.1759 C6.9751,61.8939 7.3171,110.7599 7.3171,110.7599 L29.8581,110.7599 L29.8581,54.6409 C29.9061,54.4709 29.9561,54.2999 30.0161,54.1259 C30.0421,54.1109 30.0751,54.0989 30.1021,54.0829 L30.0241,54.1029 C32.5021,46.8939 44.8301,36.5089 44.8301,36.5089 C46.6121,34.7269 46.6121,31.8379 44.8301,30.0559" id="Fill-1" fill="#E37F82"></path>
                        <path d="M12.6592,110.76 L7.3182,110.76 C7.3182,110.76 6.9782,61.89 6.3182,54.17 C6.2592,54.14 6.1882,54.111 6.1292,54.08 L6.3182,54.12 C6.2492,53.321 6.1692,52.74 6.0892,52.47 C5.0092,48.64 4.3182,42.51 3.6082,36.72 L1.0282,13.98 C0.7782,11.941 2.2282,10.09 4.2682,9.84 C4.3392,9.83 4.3882,9.821 4.4592,9.83 C3.3292,10.67 2.6792,12.08 2.8582,13.571 L6.6882,38.47 C7.4592,44.81 10.2192,51.52 11.3982,55.72 C11.4882,56.01 11.5792,56.651 11.6482,57.531 L11.4482,57.48 C11.5092,57.51 11.5892,57.55 11.6482,57.58 C12.1592,63.531 12.4992,100.97 12.6592,110.76" id="Fill-3" fill="#D46165"></path>
                        <path d="M44.876,36.5051 C44.876,36.5051 32.546,46.8951 30.065,54.1051 L30.146,54.0841 C30.116,54.0951 30.086,54.1141 30.056,54.1241 C29.996,54.3051 29.946,54.4751 29.896,54.6451 L29.896,110.7651 L23.876,110.7651 C23.876,110.7651 25.743,68.7551 26.044,63.3171 C26.346,57.8771 24.802,55.8721 24.802,55.8721 C24.802,55.8721 24.073,55.4131 25.038,54.8841 C25.928,54.3961 28.09,54.0531 29.193,51.8691 C30.853,48.5861 42.426,36.1241 42.426,36.1241 C44.306,34.2551 45.306,31.2151 43.426,29.3341 C43.276,29.1851 43.116,29.0441 42.946,28.9141 C43.646,29.1141 44.315,29.4941 44.876,30.0551 C46.656,31.8341 46.656,34.7251 44.876,36.5051" id="Fill-5" fill="#D46165"></path>
                        <path d="M28.9649,8.3079 L26.6939,31.6569 L28.1949,31.9309 L30.6259,7.8829 C30.7489,6.6319 31.5259,5.6079 32.6139,5.0549 C30.7109,5.1439 29.1399,6.4859 28.9649,8.3079" id="Fill-7" fill="#D46165"></path>
                        <path d="M19.3975,5.884 L19.3125,30.933 L20.8335,31.067 L21.0115,5.306 C21.0185,4.049 21.6955,2.956 22.7275,2.305 C20.8415,2.571 19.4015,4.054 19.3975,5.884" id="Fill-9" fill="#D46165"></path>
                        <path d="M10.3535,9.2287 L11.8955,31.5937 L13.4215,31.6077 L11.9165,8.5257 C11.8255,7.2727 12.4145,6.1297 13.3915,5.3997 C11.5325,5.8127 10.2135,7.4037 10.3535,9.2287" id="Fill-11" fill="#D46165"></path>
                        <g id="Group-15" transform="translate(0.000000, 0.760000)">
                            <mask id="mask-4" fill="white">
                                <use xlink:href="#path-3"></use>
                            </mask>
                            <g id="Clip-14"></g>
                            <path d="M11.1348,6.2021 C11.6118,5.6571 12.2718,5.3301 12.9938,5.2811 C14.4938,5.1681 15.7808,6.3121 15.8818,7.8061 L17.4168,29.9311 C15.3878,29.9981 13.5518,30.1881 12.0158,30.4111 L12.0128,30.3631 C12.0108,30.3231 12.0248,30.2861 12.0188,30.2461 L11.9908,30.0561 L10.4718,8.1691 C10.4218,7.4461 10.6578,6.7481 11.1348,6.2021 M22.1638,2.2401 C23.6588,2.2401 24.8758,3.4571 24.8758,4.9521 L24.8758,30.3061 C22.9978,30.0431 21.1728,29.9251 19.4518,29.9071 L19.4518,4.9521 C19.4518,3.4571 20.6688,2.2401 22.1638,2.2401 M45.5368,28.5891 C44.4868,27.5381 43.0888,26.9591 41.6038,26.9591 C40.1178,26.9591 38.7208,27.5381 37.6698,28.5891 L34.7988,31.4591 C34.6448,31.6151 34.4348,31.5191 34.4098,31.5091 C34.2838,31.4491 34.2908,31.3831 34.2938,31.3481 L36.5078,8.3411 C36.7568,5.7551 34.8558,3.4471 32.2698,3.1991 C31.0258,3.0821 29.7928,3.4531 28.8218,4.2541 C27.8508,5.0541 27.2488,6.1841 27.1288,7.4351 L26.8758,10.0071 L26.8758,4.9521 C26.8758,2.3531 24.7628,0.2401 22.1638,0.2401 C19.5658,0.2401 17.4518,2.3531 17.4518,4.9521 L17.4518,6.0471 C16.6578,4.3111 14.8578,3.1501 12.8598,3.2851 C11.6038,3.3701 10.4558,3.9381 9.6278,4.8861 C8.7998,5.8341 8.3908,7.0481 8.4758,8.3061 L8.6038,10.1501 C8.3298,9.7451 8.0098,9.3691 7.6138,9.0591 C6.6208,8.2841 5.3888,7.9391 4.1388,8.0961 C1.5608,8.4121 -0.2802,10.7661 0.0348,13.3361 L2.6138,36.0901 L2.7928,37.5581 C3.4438,42.8921 4.1148,48.4091 5.1268,51.9851 C5.6938,53.9911 6.1498,95.8251 6.3178,110.0121 C6.3238,110.5601 6.7708,111.0001 7.3178,111.0001 L7.3288,111.0001 C7.8818,110.9931 8.3238,110.5401 8.3178,109.9881 C8.2808,106.8851 7.9828,63.1751 7.3868,54.4501 C8.5528,54.8771 9.8638,55.1241 11.1928,55.1241 C11.2408,55.1241 11.2908,55.1241 11.3408,55.1231 C11.6158,55.1191 11.8378,54.8921 11.8338,54.6161 C11.8298,54.3431 11.6078,54.1231 11.3338,54.1231 L11.3268,54.1231 C9.9228,54.1541 8.4978,53.8641 7.3018,53.3501 C7.2238,52.4281 7.1398,51.7571 7.0508,51.4421 C6.0818,48.0141 5.4198,42.5751 4.7788,37.3161 L2.0208,13.1021 C1.8388,11.6181 2.8988,10.2631 4.3828,10.0801 C5.1028,9.9921 5.8118,10.1891 6.3818,10.6351 C6.9528,11.0811 7.3158,11.7231 7.4068,12.4641 L9.9988,30.2521 L10.0318,30.7421 C8.2648,31.0771 7.2068,31.3871 7.1728,31.3961 C6.9088,31.4751 6.7588,31.7551 6.8388,32.0181 C6.9178,32.2841 7.1978,32.4331 7.4608,32.3531 C7.5718,32.3211 18.5528,29.0971 29.7188,32.3551 C29.7648,32.3681 29.8128,32.3751 29.8588,32.3751 C30.0748,32.3751 30.2748,32.2331 30.3388,32.0141 C30.4158,31.7501 30.2638,31.4731 29.9978,31.3941 C28.9368,31.0851 27.8768,30.8331 26.8278,30.6301 C26.8398,30.5811 26.8658,30.5401 26.8708,30.4881 L29.1188,7.6291 C29.1888,6.9081 29.5348,6.2581 30.0938,5.7971 C30.6538,5.3361 31.3528,5.1221 32.0778,5.1891 C33.5668,5.3331 34.6598,6.6601 34.5178,8.1491 L32.3038,31.1561 C32.2278,31.9431 32.6008,32.6631 33.2438,33.1081 C32.3648,33.9641 31.1748,34.9971 29.8748,35.7641 C29.3998,36.0461 29.2418,36.6591 29.5228,37.1351 C29.7098,37.4501 30.0428,37.6261 30.3848,37.6261 C30.5578,37.6261 30.7338,37.5811 30.8928,37.4871 C33.5868,35.8941 35.7798,33.3841 36.2078,32.8771 C36.2098,32.8761 36.2118,32.8751 36.2138,32.8731 L39.0838,30.0031 C40.4298,28.6571 42.7778,28.6571 44.1228,30.0031 C45.5128,31.3921 45.5128,33.6521 44.1858,34.9841 C43.6108,35.4691 31.3678,45.8491 28.9888,53.3201 C27.8258,53.8311 26.4448,54.1241 25.0378,54.1241 C24.9888,54.1241 24.9328,54.1251 24.8948,54.1231 C24.6208,54.1231 24.3988,54.3431 24.3948,54.6161 C24.3908,54.8921 24.6128,55.1191 24.8878,55.1231 C24.9378,55.1241 24.9878,55.1241 25.0358,55.1241 C26.3118,55.1241 27.5688,54.8911 28.7008,54.4971 C28.6338,54.8821 28.5878,55.2591 28.5878,55.6211 L28.5878,110.0001 C28.5878,110.5531 29.0348,111.0001 29.5878,111.0001 C30.1408,111.0001 30.5878,110.5531 30.5878,110.0001 L30.5878,55.6211 C30.5878,50.2331 41.3338,40.0021 45.5368,36.4561 C46.5878,35.4051 47.1668,34.0081 47.1668,32.5221 C47.1668,31.0371 46.5878,29.6391 45.5368,28.5891" id="Fill-13" fill="#2F3061" mask="url(#mask-4)"></path>
                        </g>
                        <path d="M25.585,40.9485 C25.495,40.6855 25.212,40.5505 24.95,40.6365 C22.134,41.5965 18.923,44.5945 18.235,48.4675 C18.187,48.7395 18.368,48.9995 18.64,49.0475 C18.67,49.0525 18.699,49.0545 18.729,49.0545 C18.966,49.0545 19.177,48.8855 19.22,48.6425 C19.833,45.1885 22.796,42.4275 25.273,41.5835 C25.534,41.4935 25.674,41.2095 25.585,40.9485" id="Fill-16" fill="#2F3061"></path>
                        <path d="M10.4649,40.8948 C10.2829,40.8948 10.1089,40.7948 10.0199,40.6238 C9.8939,40.3768 9.9909,40.0758 10.2359,39.9498 C15.4929,37.2548 21.1879,36.8398 21.4269,36.8238 C21.7009,36.7968 21.9409,37.0118 21.9599,37.2888 C21.9789,37.5638 21.7709,37.8018 21.4949,37.8218 C21.4389,37.8258 15.7609,38.2418 10.6939,40.8398 C10.6199,40.8768 10.5419,40.8948 10.4649,40.8948" id="Fill-18" fill="#2F3061"></path>
                    </g>
                    <g id="Page-1-Copy" transform="translate(61.789394, 63.878641) scale(-1, 1) rotate(-5.000000) translate(-61.789394, -63.878641) translate(37.789394, 7.878641)">
                        <path d="M44.8301,30.0559 C43.0481,28.2739 40.1591,28.2739 38.3771,30.0559 L35.5071,32.9259 C35.5011,32.9329 35.4921,32.9349 35.4861,32.9419 L35.5131,32.9099 L35.4271,32.9839 C34.5991,33.6949 33.1921,33.1239 33.2991,32.0119 L35.5131,9.0049 C35.7091,6.9639 34.2141,5.1509 32.1741,4.9539 C30.1341,4.7579 28.3201,6.2529 28.1241,8.2939 L26.3331,26.4959 L25.8761,26.4959 L25.8761,5.7119 C25.8761,3.6609 24.2141,1.9999 22.1641,1.9999 C20.1141,1.9999 18.4521,3.6609 18.4521,5.7119 L18.4521,26.4959 L18.1301,26.4959 L16.8801,8.4959 C16.7411,6.4519 14.9721,4.9059 12.9271,5.0429 C10.8821,5.1809 9.3351,6.9509 9.4741,8.9959 L10.6881,26.4959 L10.3511,26.4959 L8.3961,13.0789 C8.1461,11.0449 6.2951,9.5979 4.2611,9.8479 C2.2261,10.0979 0.7781,11.9499 1.0281,13.9839 L3.6061,36.7279 C4.3171,42.5189 5.0081,48.6489 6.0891,52.4739 C6.1661,52.7469 6.2391,53.3209 6.3091,54.1279 L6.1261,54.0829 C6.1841,54.1179 6.2541,54.1429 6.3131,54.1759 C6.9751,61.8939 7.3171,110.7599 7.3171,110.7599 L29.8581,110.7599 L29.8581,54.6409 C29.9061,54.4709 29.9561,54.2999 30.0161,54.1259 C30.0421,54.1109 30.0751,54.0989 30.1021,54.0829 L30.0241,54.1029 C32.5021,46.8939 44.8301,36.5089 44.8301,36.5089 C46.6121,34.7269 46.6121,31.8379 44.8301,30.0559" id="Fill-1" fill="#EDBB82"></path>
                        <path d="M12.6592,110.76 L7.3182,110.76 C7.3182,110.76 6.9782,61.89 6.3182,54.17 C6.2592,54.14 6.1882,54.111 6.1292,54.08 L6.3182,54.12 C6.2492,53.321 6.1692,52.74 6.0892,52.47 C5.0092,48.64 4.3182,42.51 3.6082,36.72 L1.0282,13.98 C0.7782,11.941 2.2282,10.09 4.2682,9.84 C4.3392,9.83 4.3882,9.821 4.4592,9.83 C3.3292,10.67 2.6792,12.08 2.8582,13.571 L6.6882,38.47 C7.4592,44.81 10.2192,51.52 11.3982,55.72 C11.4882,56.01 11.5792,56.651 11.6482,57.531 L11.4482,57.48 C11.5092,57.51 11.5892,57.55 11.6482,57.58 C12.1592,63.531 12.4992,100.97 12.6592,110.76" id="Fill-3" fill="#D4A774"></path>
                        <path d="M44.876,36.5051 C44.876,36.5051 32.546,46.8951 30.065,54.1051 L30.146,54.0841 C30.116,54.0951 30.086,54.1141 30.056,54.1241 C29.996,54.3051 29.946,54.4751 29.896,54.6451 L29.896,110.7651 L23.876,110.7651 C23.876,110.7651 25.743,68.7551 26.044,63.3171 C26.346,57.8771 24.802,55.8721 24.802,55.8721 C24.802,55.8721 24.073,55.4131 25.038,54.8841 C25.928,54.3961 28.09,54.0531 29.193,51.8691 C30.853,48.5861 42.426,36.1241 42.426,36.1241 C44.306,34.2551 45.306,31.2151 43.426,29.3341 C43.276,29.1851 43.116,29.0441 42.946,28.9141 C43.646,29.1141 44.315,29.4941 44.876,30.0551 C46.656,31.8341 46.656,34.7251 44.876,36.5051" id="Fill-5" fill="#D4A774"></path>
                        <path d="M28.9649,8.3079 L26.6939,31.6569 L28.1949,31.9309 L30.6259,7.8829 C30.7489,6.6319 31.5259,5.6079 32.6139,5.0549 C30.7109,5.1439 29.1399,6.4859 28.9649,8.3079" id="Fill-7" fill="#D4A774"></path>
                        <path d="M19.3975,5.884 L19.3125,30.933 L20.8335,31.067 L21.0115,5.306 C21.0185,4.049 21.6955,2.956 22.7275,2.305 C20.8415,2.571 19.4015,4.054 19.3975,5.884" id="Fill-9" fill="#D4A774"></path>
                        <path d="M10.3535,9.2287 L11.8955,31.5937 L13.4215,31.6077 L11.9165,8.5257 C11.8255,7.2727 12.4145,6.1297 13.3915,5.3997 C11.5325,5.8127 10.2135,7.4037 10.3535,9.2287" id="Fill-11" fill="#D4A774"></path>
                        <g id="Group-15" transform="translate(0.000000, 0.760000)">
                            <mask id="mask-6" fill="white">
                                <use xlink:href="#path-5"></use>
                            </mask>
                            <g id="Clip-14"></g>
                            <path d="M11.1348,6.2021 C11.6118,5.6571 12.2718,5.3301 12.9938,5.2811 C14.4938,5.1681 15.7808,6.3121 15.8818,7.8061 L17.4168,29.9311 C15.3878,29.9981 13.5518,30.1881 12.0158,30.4111 L12.0128,30.3631 C12.0108,30.3231 12.0248,30.2861 12.0188,30.2461 L11.9908,30.0561 L10.4718,8.1691 C10.4218,7.4461 10.6578,6.7481 11.1348,6.2021 M22.1638,2.2401 C23.6588,2.2401 24.8758,3.4571 24.8758,4.9521 L24.8758,30.3061 C22.9978,30.0431 21.1728,29.9251 19.4518,29.9071 L19.4518,4.9521 C19.4518,3.4571 20.6688,2.2401 22.1638,2.2401 M45.5368,28.5891 C44.4868,27.5381 43.0888,26.9591 41.6038,26.9591 C40.1178,26.9591 38.7208,27.5381 37.6698,28.5891 L34.7988,31.4591 C34.6448,31.6151 34.4348,31.5191 34.4098,31.5091 C34.2838,31.4491 34.2908,31.3831 34.2938,31.3481 L36.5078,8.3411 C36.7568,5.7551 34.8558,3.4471 32.2698,3.1991 C31.0258,3.0821 29.7928,3.4531 28.8218,4.2541 C27.8508,5.0541 27.2488,6.1841 27.1288,7.4351 L26.8758,10.0071 L26.8758,4.9521 C26.8758,2.3531 24.7628,0.2401 22.1638,0.2401 C19.5658,0.2401 17.4518,2.3531 17.4518,4.9521 L17.4518,6.0471 C16.6578,4.3111 14.8578,3.1501 12.8598,3.2851 C11.6038,3.3701 10.4558,3.9381 9.6278,4.8861 C8.7998,5.8341 8.3908,7.0481 8.4758,8.3061 L8.6038,10.1501 C8.3298,9.7451 8.0098,9.3691 7.6138,9.0591 C6.6208,8.2841 5.3888,7.9391 4.1388,8.0961 C1.5608,8.4121 -0.2802,10.7661 0.0348,13.3361 L2.6138,36.0901 L2.7928,37.5581 C3.4438,42.8921 4.1148,48.4091 5.1268,51.9851 C5.6938,53.9911 6.1498,95.8251 6.3178,110.0121 C6.3238,110.5601 6.7708,111.0001 7.3178,111.0001 L7.3288,111.0001 C7.8818,110.9931 8.3238,110.5401 8.3178,109.9881 C8.2808,106.8851 7.9828,63.1751 7.3868,54.4501 C8.5528,54.8771 9.8638,55.1241 11.1928,55.1241 C11.2408,55.1241 11.2908,55.1241 11.3408,55.1231 C11.6158,55.1191 11.8378,54.8921 11.8338,54.6161 C11.8298,54.3431 11.6078,54.1231 11.3338,54.1231 L11.3268,54.1231 C9.9228,54.1541 8.4978,53.8641 7.3018,53.3501 C7.2238,52.4281 7.1398,51.7571 7.0508,51.4421 C6.0818,48.0141 5.4198,42.5751 4.7788,37.3161 L2.0208,13.1021 C1.8388,11.6181 2.8988,10.2631 4.3828,10.0801 C5.1028,9.9921 5.8118,10.1891 6.3818,10.6351 C6.9528,11.0811 7.3158,11.7231 7.4068,12.4641 L9.9988,30.2521 L10.0318,30.7421 C8.2648,31.0771 7.2068,31.3871 7.1728,31.3961 C6.9088,31.4751 6.7588,31.7551 6.8388,32.0181 C6.9178,32.2841 7.1978,32.4331 7.4608,32.3531 C7.5718,32.3211 18.5528,29.0971 29.7188,32.3551 C29.7648,32.3681 29.8128,32.3751 29.8588,32.3751 C30.0748,32.3751 30.2748,32.2331 30.3388,32.0141 C30.4158,31.7501 30.2638,31.4731 29.9978,31.3941 C28.9368,31.0851 27.8768,30.8331 26.8278,30.6301 C26.8398,30.5811 26.8658,30.5401 26.8708,30.4881 L29.1188,7.6291 C29.1888,6.9081 29.5348,6.2581 30.0938,5.7971 C30.6538,5.3361 31.3528,5.1221 32.0778,5.1891 C33.5668,5.3331 34.6598,6.6601 34.5178,8.1491 L32.3038,31.1561 C32.2278,31.9431 32.6008,32.6631 33.2438,33.1081 C32.3648,33.9641 31.1748,34.9971 29.8748,35.7641 C29.3998,36.0461 29.2418,36.6591 29.5228,37.1351 C29.7098,37.4501 30.0428,37.6261 30.3848,37.6261 C30.5578,37.6261 30.7338,37.5811 30.8928,37.4871 C33.5868,35.8941 35.7798,33.3841 36.2078,32.8771 C36.2098,32.8761 36.2118,32.8751 36.2138,32.8731 L39.0838,30.0031 C40.4298,28.6571 42.7778,28.6571 44.1228,30.0031 C45.5128,31.3921 45.5128,33.6521 44.1858,34.9841 C43.6108,35.4691 31.3678,45.8491 28.9888,53.3201 C27.8258,53.8311 26.4448,54.1241 25.0378,54.1241 C24.9888,54.1241 24.9328,54.1251 24.8948,54.1231 C24.6208,54.1231 24.3988,54.3431 24.3948,54.6161 C24.3908,54.8921 24.6128,55.1191 24.8878,55.1231 C24.9378,55.1241 24.9878,55.1241 25.0358,55.1241 C26.3118,55.1241 27.5688,54.8911 28.7008,54.4971 C28.6338,54.8821 28.5878,55.2591 28.5878,55.6211 L28.5878,110.0001 C28.5878,110.5531 29.0348,111.0001 29.5878,111.0001 C30.1408,111.0001 30.5878,110.5531 30.5878,110.0001 L30.5878,55.6211 C30.5878,50.2331 41.3338,40.0021 45.5368,36.4561 C46.5878,35.4051 47.1668,34.0081 47.1668,32.5221 C47.1668,31.0371 46.5878,29.6391 45.5368,28.5891" id="Fill-13" fill="#2F3061" mask="url(#mask-6)"></path>
                        </g>
                        <path d="M25.585,40.9485 C25.495,40.6855 25.212,40.5505 24.95,40.6365 C22.134,41.5965 18.923,44.5945 18.235,48.4675 C18.187,48.7395 18.368,48.9995 18.64,49.0475 C18.67,49.0525 18.699,49.0545 18.729,49.0545 C18.966,49.0545 19.177,48.8855 19.22,48.6425 C19.833,45.1885 22.796,42.4275 25.273,41.5835 C25.534,41.4935 25.674,41.2095 25.585,40.9485" id="Fill-16" fill="#2F3061"></path>
                        <path d="M10.4649,40.8948 C10.2829,40.8948 10.1089,40.7948 10.0199,40.6238 C9.8939,40.3768 9.9909,40.0758 10.2359,39.9498 C15.4929,37.2548 21.1879,36.8398 21.4269,36.8238 C21.7009,36.7968 21.9409,37.0118 21.9599,37.2888 C21.9789,37.5638 21.7709,37.8018 21.4949,37.8218 C21.4389,37.8258 15.7609,38.2418 10.6939,40.8398 C10.6199,40.8768 10.5419,40.8948 10.4649,40.8948" id="Fill-18" fill="#2F3061"></path>
                    </g>
                    <g id="Page-1-Copy-2" transform="translate(142.897922, 57.179317) rotate(3.000000) translate(-142.897922, -57.179317) translate(118.897922, 1.179317)">
                        <path d="M44.8301,30.0559 C43.0481,28.2739 40.1591,28.2739 38.3771,30.0559 L35.5071,32.9259 C35.5011,32.9329 35.4921,32.9349 35.4861,32.9419 L35.5131,32.9099 L35.4271,32.9839 C34.5991,33.6949 33.1921,33.1239 33.2991,32.0119 L35.5131,9.0049 C35.7091,6.9639 34.2141,5.1509 32.1741,4.9539 C30.1341,4.7579 28.3201,6.2529 28.1241,8.2939 L26.3331,26.4959 L25.8761,26.4959 L25.8761,5.7119 C25.8761,3.6609 24.2141,1.9999 22.1641,1.9999 C20.1141,1.9999 18.4521,3.6609 18.4521,5.7119 L18.4521,26.4959 L18.1301,26.4959 L16.8801,8.4959 C16.7411,6.4519 14.9721,4.9059 12.9271,5.0429 C10.8821,5.1809 9.3351,6.9509 9.4741,8.9959 L10.6881,26.4959 L10.3511,26.4959 L8.3961,13.0789 C8.1461,11.0449 6.2951,9.5979 4.2611,9.8479 C2.2261,10.0979 0.7781,11.9499 1.0281,13.9839 L3.6061,36.7279 C4.3171,42.5189 5.0081,48.6489 6.0891,52.4739 C6.1661,52.7469 6.2391,53.3209 6.3091,54.1279 L6.1261,54.0829 C6.1841,54.1179 6.2541,54.1429 6.3131,54.1759 C6.9751,61.8939 7.3171,110.7599 7.3171,110.7599 L29.8581,110.7599 L29.8581,54.6409 C29.9061,54.4709 29.9561,54.2999 30.0161,54.1259 C30.0421,54.1109 30.0751,54.0989 30.1021,54.0829 L30.0241,54.1029 C32.5021,46.8939 44.8301,36.5089 44.8301,36.5089 C46.6121,34.7269 46.6121,31.8379 44.8301,30.0559" id="Fill-1" fill="#CEEC97"></path>
                        <path d="M12.6592,110.76 L7.3182,110.76 C7.3182,110.76 6.9782,61.89 6.3182,54.17 C6.2592,54.14 6.1882,54.111 6.1292,54.08 L6.3182,54.12 C6.2492,53.321 6.1692,52.74 6.0892,52.47 C5.0092,48.64 4.3182,42.51 3.6082,36.72 L1.0282,13.98 C0.7782,11.941 2.2282,10.09 4.2682,9.84 C4.3392,9.83 4.3882,9.821 4.4592,9.83 C3.3292,10.67 2.6792,12.08 2.8582,13.571 L6.6882,38.47 C7.4592,44.81 10.2192,51.52 11.3982,55.72 C11.4882,56.01 11.5792,56.651 11.6482,57.531 L11.4482,57.48 C11.5092,57.51 11.5892,57.55 11.6482,57.58 C12.1592,63.531 12.4992,100.97 12.6592,110.76" id="Fill-3" fill="#B4D674"></path>
                        <path d="M44.876,36.5051 C44.876,36.5051 32.546,46.8951 30.065,54.1051 L30.146,54.0841 C30.116,54.0951 30.086,54.1141 30.056,54.1241 C29.996,54.3051 29.946,54.4751 29.896,54.6451 L29.896,110.7651 L23.876,110.7651 C23.876,110.7651 25.743,68.7551 26.044,63.3171 C26.346,57.8771 24.802,55.8721 24.802,55.8721 C24.802,55.8721 24.073,55.4131 25.038,54.8841 C25.928,54.3961 28.09,54.0531 29.193,51.8691 C30.853,48.5861 42.426,36.1241 42.426,36.1241 C44.306,34.2551 45.306,31.2151 43.426,29.3341 C43.276,29.1851 43.116,29.0441 42.946,28.9141 C43.646,29.1141 44.315,29.4941 44.876,30.0551 C46.656,31.8341 46.656,34.7251 44.876,36.5051" id="Fill-5" fill="#B4D674"></path>
                        <path d="M28.9649,8.3079 L26.6939,31.6569 L28.1949,31.9309 L30.6259,7.8829 C30.7489,6.6319 31.5259,5.6079 32.6139,5.0549 C30.7109,5.1439 29.1399,6.4859 28.9649,8.3079" id="Fill-7" fill="#B4D674"></path>
                        <path d="M19.3975,5.884 L19.3125,30.933 L20.8335,31.067 L21.0115,5.306 C21.0185,4.049 21.6955,2.956 22.7275,2.305 C20.8415,2.571 19.4015,4.054 19.3975,5.884" id="Fill-9" fill="#B4D674"></path>
                        <path d="M10.3535,9.2287 L11.8955,31.5937 L13.4215,31.6077 L11.9165,8.5257 C11.8255,7.2727 12.4145,6.1297 13.3915,5.3997 C11.5325,5.8127 10.2135,7.4037 10.3535,9.2287" id="Fill-11" fill="#B4D674"></path>
                        <g id="Group-15" transform="translate(0.000000, 0.760000)">
                            <mask id="mask-8" fill="white">
                                <use xlink:href="#path-7"></use>
                            </mask>
                            <g id="Clip-14"></g>
                            <path d="M11.1348,6.2021 C11.6118,5.6571 12.2718,5.3301 12.9938,5.2811 C14.4938,5.1681 15.7808,6.3121 15.8818,7.8061 L17.4168,29.9311 C15.3878,29.9981 13.5518,30.1881 12.0158,30.4111 L12.0128,30.3631 C12.0108,30.3231 12.0248,30.2861 12.0188,30.2461 L11.9908,30.0561 L10.4718,8.1691 C10.4218,7.4461 10.6578,6.7481 11.1348,6.2021 M22.1638,2.2401 C23.6588,2.2401 24.8758,3.4571 24.8758,4.9521 L24.8758,30.3061 C22.9978,30.0431 21.1728,29.9251 19.4518,29.9071 L19.4518,4.9521 C19.4518,3.4571 20.6688,2.2401 22.1638,2.2401 M45.5368,28.5891 C44.4868,27.5381 43.0888,26.9591 41.6038,26.9591 C40.1178,26.9591 38.7208,27.5381 37.6698,28.5891 L34.7988,31.4591 C34.6448,31.6151 34.4348,31.5191 34.4098,31.5091 C34.2838,31.4491 34.2908,31.3831 34.2938,31.3481 L36.5078,8.3411 C36.7568,5.7551 34.8558,3.4471 32.2698,3.1991 C31.0258,3.0821 29.7928,3.4531 28.8218,4.2541 C27.8508,5.0541 27.2488,6.1841 27.1288,7.4351 L26.8758,10.0071 L26.8758,4.9521 C26.8758,2.3531 24.7628,0.2401 22.1638,0.2401 C19.5658,0.2401 17.4518,2.3531 17.4518,4.9521 L17.4518,6.0471 C16.6578,4.3111 14.8578,3.1501 12.8598,3.2851 C11.6038,3.3701 10.4558,3.9381 9.6278,4.8861 C8.7998,5.8341 8.3908,7.0481 8.4758,8.3061 L8.6038,10.1501 C8.3298,9.7451 8.0098,9.3691 7.6138,9.0591 C6.6208,8.2841 5.3888,7.9391 4.1388,8.0961 C1.5608,8.4121 -0.2802,10.7661 0.0348,13.3361 L2.6138,36.0901 L2.7928,37.5581 C3.4438,42.8921 4.1148,48.4091 5.1268,51.9851 C5.6938,53.9911 6.1498,95.8251 6.3178,110.0121 C6.3238,110.5601 6.7708,111.0001 7.3178,111.0001 L7.3288,111.0001 C7.8818,110.9931 8.3238,110.5401 8.3178,109.9881 C8.2808,106.8851 7.9828,63.1751 7.3868,54.4501 C8.5528,54.8771 9.8638,55.1241 11.1928,55.1241 C11.2408,55.1241 11.2908,55.1241 11.3408,55.1231 C11.6158,55.1191 11.8378,54.8921 11.8338,54.6161 C11.8298,54.3431 11.6078,54.1231 11.3338,54.1231 L11.3268,54.1231 C9.9228,54.1541 8.4978,53.8641 7.3018,53.3501 C7.2238,52.4281 7.1398,51.7571 7.0508,51.4421 C6.0818,48.0141 5.4198,42.5751 4.7788,37.3161 L2.0208,13.1021 C1.8388,11.6181 2.8988,10.2631 4.3828,10.0801 C5.1028,9.9921 5.8118,10.1891 6.3818,10.6351 C6.9528,11.0811 7.3158,11.7231 7.4068,12.4641 L9.9988,30.2521 L10.0318,30.7421 C8.2648,31.0771 7.2068,31.3871 7.1728,31.3961 C6.9088,31.4751 6.7588,31.7551 6.8388,32.0181 C6.9178,32.2841 7.1978,32.4331 7.4608,32.3531 C7.5718,32.3211 18.5528,29.0971 29.7188,32.3551 C29.7648,32.3681 29.8128,32.3751 29.8588,32.3751 C30.0748,32.3751 30.2748,32.2331 30.3388,32.0141 C30.4158,31.7501 30.2638,31.4731 29.9978,31.3941 C28.9368,31.0851 27.8768,30.8331 26.8278,30.6301 C26.8398,30.5811 26.8658,30.5401 26.8708,30.4881 L29.1188,7.6291 C29.1888,6.9081 29.5348,6.2581 30.0938,5.7971 C30.6538,5.3361 31.3528,5.1221 32.0778,5.1891 C33.5668,5.3331 34.6598,6.6601 34.5178,8.1491 L32.3038,31.1561 C32.2278,31.9431 32.6008,32.6631 33.2438,33.1081 C32.3648,33.9641 31.1748,34.9971 29.8748,35.7641 C29.3998,36.0461 29.2418,36.6591 29.5228,37.1351 C29.7098,37.4501 30.0428,37.6261 30.3848,37.6261 C30.5578,37.6261 30.7338,37.5811 30.8928,37.4871 C33.5868,35.8941 35.7798,33.3841 36.2078,32.8771 C36.2098,32.8761 36.2118,32.8751 36.2138,32.8731 L39.0838,30.0031 C40.4298,28.6571 42.7778,28.6571 44.1228,30.0031 C45.5128,31.3921 45.5128,33.6521 44.1858,34.9841 C43.6108,35.4691 31.3678,45.8491 28.9888,53.3201 C27.8258,53.8311 26.4448,54.1241 25.0378,54.1241 C24.9888,54.1241 24.9328,54.1251 24.8948,54.1231 C24.6208,54.1231 24.3988,54.3431 24.3948,54.6161 C24.3908,54.8921 24.6128,55.1191 24.8878,55.1231 C24.9378,55.1241 24.9878,55.1241 25.0358,55.1241 C26.3118,55.1241 27.5688,54.8911 28.7008,54.4971 C28.6338,54.8821 28.5878,55.2591 28.5878,55.6211 L28.5878,110.0001 C28.5878,110.5531 29.0348,111.0001 29.5878,111.0001 C30.1408,111.0001 30.5878,110.5531 30.5878,110.0001 L30.5878,55.6211 C30.5878,50.2331 41.3338,40.0021 45.5368,36.4561 C46.5878,35.4051 47.1668,34.0081 47.1668,32.5221 C47.1668,31.0371 46.5878,29.6391 45.5368,28.5891" id="Fill-13" fill="#2F3061" mask="url(#mask-8)"></path>
                        </g>
                        <path d="M25.585,40.9485 C25.495,40.6855 25.212,40.5505 24.95,40.6365 C22.134,41.5965 18.923,44.5945 18.235,48.4675 C18.187,48.7395 18.368,48.9995 18.64,49.0475 C18.67,49.0525 18.699,49.0545 18.729,49.0545 C18.966,49.0545 19.177,48.8855 19.22,48.6425 C19.833,45.1885 22.796,42.4275 25.273,41.5835 C25.534,41.4935 25.674,41.2095 25.585,40.9485" id="Fill-16" fill="#2F3061"></path>
                        <path d="M10.4649,40.8948 C10.2829,40.8948 10.1089,40.7948 10.0199,40.6238 C9.8939,40.3768 9.9909,40.0758 10.2359,39.9498 C15.4929,37.2548 21.1879,36.8398 21.4269,36.8238 C21.7009,36.7968 21.9409,37.0118 21.9599,37.2888 C21.9789,37.5638 21.7709,37.8018 21.4949,37.8218 C21.4389,37.8258 15.7609,38.2418 10.6939,40.8398 C10.6199,40.8768 10.5419,40.8948 10.4649,40.8948" id="Fill-18" fill="#2F3061"></path>
                    </g>
                </g>
            </g>
        </g>
    </g>
</svg>