<?xml version="1.0" encoding="UTF-8" standalone="no"?>
<svg
   width="64"
   height="64"
   viewBox="0 0 64 64"
   version="1.1"
   id="svg1923"
   sodipodi:docname="basic-logo.svg"
   inkscape:version="1.2.2 (b0a8486541, 2022-12-01)"
   xmlns:inkscape="http://www.inkscape.org/namespaces/inkscape"
   xmlns:sodipodi="http://sodipodi.sourceforge.net/DTD/sodipodi-0.dtd"
   xmlns="http://www.w3.org/2000/svg"
   xmlns:svg="http://www.w3.org/2000/svg">
  <sodipodi:namedview
     id="namedview1925"
     pagecolor="#ffffff"
     bordercolor="#666666"
     borderopacity="1.0"
     inkscape:showpageshadow="2"
     inkscape:pageopacity="0.0"
     inkscape:pagecheckerboard="0"
     inkscape:deskcolor="#d1d1d1"
     showgrid="false"
     inkscape:zoom="5.81"
     inkscape:cx="37.005164"
     inkscape:cy="50"
     inkscape:window-width="1920"
     inkscape:window-height="1056"
     inkscape:window-x="1368"
     inkscape:window-y="0"
     inkscape:window-maximized="1"
     inkscape:current-layer="svg1923" />
  <!-- Generator: Sketch 49.2 (51160) - http://www.bohemiancoding.com/sketch -->
  <desc
     id="desc1765">Created with Sketch.</desc>
  <defs
     id="defs1782">
    <filter
       x="-0.22714247"
       y="-0.17067449"
       width="1.4542849"
       height="1.341349"
       filterUnits="objectBoundingBox"
       id="filter-1">
      <feOffset
         dx="0"
         dy="0"
         in="SourceAlpha"
         result="shadowOffsetOuter1"
         id="feOffset1767" />
      <feGaussianBlur
         stdDeviation="7"
         in="shadowOffsetOuter1"
         result="shadowBlurOuter1"
         id="feGaussianBlur1769" />
      <feComposite
         in="shadowBlurOuter1"
         in2="SourceAlpha"
         operator="out"
         result="shadowBlurOuter1"
         id="feComposite1771" />
      <feColorMatrix
         values="0 0 0 0 0.184313725   0 0 0 0 0.188235294   0 0 0 0 0.380392157  0 0 0 0.1 0"
         type="matrix"
         in="shadowBlurOuter1"
         result="shadowMatrixOuter1"
         id="feColorMatrix1773" />
      <feMerge
         id="feMerge1779">
        <feMergeNode
           in="shadowMatrixOuter1"
           id="feMergeNode1775" />
        <feMergeNode
           in="SourceGraphic"
           id="feMergeNode1777" />
      </feMerge>
    </filter>
  </defs>
  <g
     id="Page-1"
     stroke="none"
     stroke-width="1"
     fill="none"
     fill-rule="evenodd"
     transform="matrix(0.60908303,0,0,0.60908303,7.6946895,3.6875633)">
    <g
       id="Artboard"
       fill-rule="nonzero">
      <g
         id="NaNo-Shield-Logo"
         filter="url(#filter-1)">
        <path
           d="m 25.502392,26.921569 h -1.19665 c -3.140431,0.0081 -6.261205,-0.495254 -9.239713,-1.490197 -0.872574,-0.26078 -1.730439,-0.568417 -2.569857,-0.921568 l -0.627751,-0.333333 h -0.156938 0.05885 C 10.97864,23.723116 9.9898969,23.800933 9.2789474,24.372549 l -8.78851678,7.54902 c -0.55308919,0.441305 -0.64919595,1.244722 -0.21578947,1.803921 l 0.17655502,0.254902 c 2.81760083,4.20997 4.38218433,9.132651 4.51196173,14.196079 -0.01192,3.646649 -0.5808365,7.270103 -1.6870813,10.745098 -1.621899,4.398396 -2.49068089,9.038522 -2.5698565,13.72549 0,0.705882 0,1.411765 0,2.078431 0.8708083,6.145994 4.2336541,11.662962 9.2985649,15.254902 2.146053,1.526662 4.55252,2.649586 7.101435,3.313726 2.11866,0.549019 3.923445,0.686274 5.708613,1.058823 2.910262,0.569571 5.775356,1.349395 8.572727,2.333333 0.99369,0.34041 1.963616,0.746536 2.903349,1.215687 0.422045,0.195345 0.812231,0.453141 1.157416,0.764706 0.386765,0.477215 0.974887,0.745735 1.588996,0.72549 0.614108,0.02025 1.20223,-0.248275 1.588995,-0.72549 0.340927,-0.317015 0.732023,-0.575412 1.157416,-0.764706 3.631344,-1.617265 7.445212,-2.789189 11.358373,-3.490196 1.804785,-0.372549 3.589952,-0.509804 5.688995,-1.058824 2.555178,-0.663565 4.968186,-1.786439 7.121053,-3.313725 5.064911,-3.591941 8.427756,-9.108909 9.298565,-15.254902 0,-0.666667 0,-1.372549 0,-2.078432 -0.06229,-4.686898 -0.924764,-9.328759 -2.550239,-13.72549 -1.114451,-3.473053 -1.683568,-7.097784 -1.687082,-10.745098 0.04625,-3.58036 0.855455,-7.109748 2.373684,-10.352941 0.474371,-1.044581 1.011557,-2.059508 1.608613,-3.039216 0.162977,-0.276668 0.339755,-0.54498 0.529665,-0.803921 l 0.176555,-0.254902 c 0.428944,-0.564299 0.324001,-1.368477 -0.235407,-1.803922 l -8.69043,-7.705882 c -0.71095,-0.571617 -1.699694,-0.649433 -2.491388,-0.196079 -3.882543,1.965366 -8.18374,2.961098 -12.535407,2.901961 h -24.24689 z"
           id="Shape"
           fill="#54301a" />
        <path
           d="m 48.454546,29.941176 h 1.333971 c 4.594894,0.0389 9.144388,-0.91069 13.339713,-2.784313 l 6.767942,6 c -2.872362,4.484646 -4.447517,9.676102 -4.551196,15 0.01099,4.001976 0.673564,7.975488 1.961723,11.764706 1.477742,4.103719 2.266528,8.423403 2.334449,12.784313 0,0.647059 0,1.27451 0,1.960785 -0.773394,5.278902 -3.645027,10.022605 -7.964593,13.156862 -1.778412,1.265091 -3.772771,2.195347 -5.885167,2.745099 -1.667465,0.431372 -3.354546,0.588235 -5.453589,1 -3.101271,0.557093 -6.156879,1.343569 -9.141627,2.352941 -1.168583,0.400186 -2.308949,0.878387 -3.413397,1.431372 l -0.725837,0.411765 -0.745455,-0.411765 c -3.97948,-1.82078 -8.170706,-3.138145 -12.476555,-3.921569 -2.099043,-0.411764 -3.786124,-0.568627 -5.453588,-1 C 16.268943,89.881621 14.274584,88.951365 12.496172,87.686274 8.1880898,84.555697 5.3128645,79.83185 4.5119617,74.568628 c 0,-0.588236 0,-1.215687 0,-1.960785 0.072777,-4.362154 0.8682406,-8.682105 2.354067,-12.784314 C 8.1541871,56.034312 8.8167559,52.0608 8.8277512,48.058824 8.7149694,42.73637 7.1405445,37.547323 4.276555,33.058824 l 6.767943,-6.000001 c 4.195324,1.873624 8.744818,2.823211 13.339712,2.784314 h 24.070336 z"
           id="path1785"
           fill="#a3dce6" />
        <path
           d="M 36.54689,34.803922 V 61.078431 H 10.357895 c -0.249189,0 -0.4511964,0.201911 -0.4511964,0.450981 -0.00535,0.122967 0.039808,0.242779 0.1250114,0.331644 0.0852,0.08886 0.203042,0.13906 0.326185,0.138944 H 36.54689 v 29.176471 c 0,0.259898 0.21079,0.470588 0.470813,0.470588 0.260023,0 0.470814,-0.21069 0.470814,-0.470588 V 62 h 26.188995 c 0.252331,-0.01052 0.451416,-0.218158 0.451196,-0.470588 0,-0.24907 -0.202007,-0.450981 -0.451196,-0.450981 H 37.488517 V 34.803922 Z"
           id="path1787"
           fill="#54301a" />
        <path
           d="m 22.599043,40.45098 c -0.07694,-0.07056 -0.120739,-0.170141 -0.120739,-0.274509 0,-0.104368 0.0438,-0.203951 0.120739,-0.27451 0.280743,-0.366844 0.438626,-0.81282 0.451196,-1.27451 0.0019,-0.44901 -0.150455,-0.885067 -0.431579,-1.235294 -0.406851,-0.498131 -0.628657,-1.121664 -0.627751,-1.764706 -0.0042,-0.643602 0.217996,-1.268216 0.627751,-1.764706 0.159192,-0.151883 0.409708,-0.151883 0.5689,0 0.151956,0.159116 0.151956,0.409512 0,0.568628 -0.283165,0.365527 -0.441336,0.81232 -0.451196,1.274509 0.0084,0.447221 0.159652,0.880042 0.431579,1.235294 0.401293,0.501243 0.622382,1.122757 0.627751,1.764706 0.0042,0.643603 -0.217996,1.268216 -0.627751,1.764706 -0.08653,0.09364 -0.206152,0.149904 -0.333493,0.156863 -0.09473,0.0029 -0.186623,-0.03248 -0.255024,-0.09804 z"
           id="path1789"
           fill="#54301a" />
        <path
           d="m 20.637321,40.45098 c -0.07694,-0.07056 -0.12074,-0.170141 -0.12074,-0.274509 0,-0.104368 0.0438,-0.203951 0.12074,-0.27451 0.280743,-0.366844 0.438625,-0.81282 0.451196,-1.27451 0.0019,-0.44901 -0.150456,-0.885067 -0.431579,-1.235294 -0.401243,-0.499991 -0.616212,-1.123795 -0.608134,-1.764706 -0.0129,-0.645044 0.210332,-1.272592 0.627751,-1.764706 0.152561,-0.149468 0.396722,-0.149468 0.549282,0 0.151956,0.159116 0.151956,0.409512 0,0.568628 -0.296807,0.357939 -0.456717,0.809643 -0.451196,1.274509 0.0026,0.442283 0.154661,0.870708 0.431579,1.215687 0.401294,0.501242 0.622382,1.122757 0.627751,1.764706 -0.0084,0.641415 -0.229117,1.261986 -0.627751,1.764705 -0.076,0.09644 -0.191087,0.153957 -0.313876,0.156863 -0.09473,0.0028 -0.186622,-0.03248 -0.255023,-0.09804 z"
           id="path1791"
           fill="#54301a" />
        <path
           d="m 18.675598,40.470588 c -0.151956,-0.159116 -0.151956,-0.409511 0,-0.568627 0.289643,-0.361961 0.448617,-0.811021 0.451196,-1.27451 -0.0036,-0.403663 -0.10452,-0.800506 -0.294258,-1.156863 l -0.156938,-0.117647 c -0.398634,-0.502719 -0.619387,-1.12329 -0.627751,-1.764706 0.0084,-0.641416 0.229117,-1.261986 0.627751,-1.764706 0.159192,-0.151883 0.409708,-0.151883 0.5689,0 0.151956,0.159116 0.151956,0.409512 0,0.568628 -0.296808,0.357939 -0.456718,0.809644 -0.451197,1.27451 0.003,0.406238 0.111088,0.804791 0.313876,1.156862 l 0.137321,0.117647 c 0.401294,0.501243 0.622382,1.122757 0.627751,1.764706 -0.0084,0.641416 -0.229117,1.261987 -0.627751,1.764706 -0.076,0.09644 -0.191087,0.153957 -0.313876,0.156863 -0.08307,0.02568 -0.171957,0.02568 -0.255024,0 z"
           id="path1793"
           fill="#54301a" />
        <path
           d="m 61.186124,56.019608 c 0,0.313725 -0.451196,0.568627 -1.020095,0.568627 H 43.040191 c -0.568899,0 -1.039713,-0.254902 -1.039713,-0.568627 v 1.078431 c 0,0.313726 0.470814,0.568628 1.039713,0.568628 h 17.125838 c 0.568899,0 1.020095,-0.254902 1.020095,-0.568628 z"
           id="path1795"
           fill="#54301a" />
        <path
           d="m 59.440191,50.137255 c 0,-0.313726 -0.372727,-0.588235 -0.84354,-0.588235 H 44.609569 c -0.470813,0 -0.84354,0.274509 -0.84354,0.588235 l -1.765551,5.509804 c 0,0.313725 0.470814,0.568627 1.039713,0.568627 h 17.125838 c 0.568899,0 1.020095,-0.254902 1.020095,-0.568627 z"
           id="path1797"
           fill="#54301a" />
        <polygon
           id="polygon1799"
           fill="#ffffff"
           points="58.792823,52.294118 59.047847,53.254902 55.928708,53.254902 55.811005,52.294118 " />
        <polygon
           id="polygon1801"
           fill="#ffffff"
           points="58.32201,50.568627 58.596651,51.529412 57.066507,51.529412 56.889952,50.568627 " />
        <polygon
           id="polygon1803"
           fill="#ffffff"
           points="54.339713,50.568627 54.437799,51.529412 53.378469,51.529412 53.358852,50.568627 " />
        <polygon
           id="polygon1805"
           fill="#ffffff"
           points="53.143062,53.254902 51.985646,53.254902 52.005263,52.294118 53.103828,52.294118 " />
        <polygon
           id="polygon1807"
           fill="#ffffff"
           points="51.593301,50.568627 52.574163,50.568627 52.59378,51.529412 51.554067,51.529412 " />
        <polygon
           id="polygon1809"
           fill="#ffffff"
           points="49.808134,50.568627 50.808612,50.568627 50.749761,51.529412 49.690431,51.529412 " />
        <polygon
           id="polygon1811"
           fill="#ffffff"
           points="51.200957,52.294118 51.161723,53.254902 50.004306,53.254902 50.102392,52.294118 " />
        <polygon
           id="polygon1813"
           fill="#ffffff"
           points="48.062201,50.568627 49.023445,50.568627 48.905742,51.529412 47.866029,51.529412 " />
        <polygon
           id="polygon1815"
           fill="#ffffff"
           points="49.298086,52.294118 49.2,53.254902 48.042584,53.254902 48.199522,52.294118 " />
        <polygon
           id="polygon1817"
           fill="#ffffff"
           points="46.296651,50.568627 47.257895,50.568627 47.061723,51.529412 46.02201,51.529412 " />
        <polygon
           id="polygon1819"
           fill="#ffffff"
           points="47.395215,52.294118 47.21866,53.254902 46.061244,53.254902 46.316268,52.294118 " />
        <polygon
           id="polygon1821"
           fill="#ffffff"
           points="44.962679,50.568627 45.492345,50.568627 45.217703,51.529412 44.648804,51.529412 " />
        <polygon
           id="polygon1823"
           fill="#ffffff"
           points="44.433014,52.294118 45.492345,52.294118 45.237321,53.254902 44.099522,53.254902 " />
        <polygon
           id="polygon1825"
           fill="#ffffff"
           points="44.217225,55.058824 43.47177,55.058824 43.805263,54.098039 44.491866,54.098039 " />
        <polygon
           id="polygon1827"
           fill="#ffffff"
           points="46.335885,55.058824 45.060766,55.058824 45.335407,54.098039 46.532057,54.098039 " />
        <polygon
           id="polygon1829"
           fill="#ffffff"
           points="47.159809,55.058824 47.355981,54.098039 54.692823,54.098039 54.790909,55.058824 " />
        <polygon
           id="polygon1831"
           fill="#ffffff"
           points="53.947368,53.254902 53.908134,52.294118 54.987081,52.294118 55.104785,53.254902 " />
        <polygon
           id="polygon1833"
           fill="#ffffff"
           points="55.124402,50.568627 56.105263,50.568627 56.262201,51.529412 55.222488,51.529412 " />
        <polygon
           id="polygon1835"
           fill="#ffffff"
           points="55.614832,55.058824 55.516746,54.098039 56.713397,54.098039 56.889952,55.058824 " />
        <polygon
           id="polygon1837"
           fill="#ffffff"
           points="57.733493,55.058824 57.537321,54.098039 59.283254,54.098039 59.557895,55.058824 " />
        <path
           d="M 57.321531,37.078431 H 45.884689 c -0.985921,0 -1.785167,0.798865 -1.785167,1.784314 v 8.470588 c 0,0.98545 0.799246,1.784314 1.785167,1.784314 h 11.436842 c 0.985921,0 1.785168,-0.798864 1.785168,-1.784314 v -8.470588 c 0,-0.985449 -0.799247,-1.784314 -1.785168,-1.784314 z"
           id="path1839"
           fill="#54301a" />
        <rect
           id="Rectangle-path"
           fill="#ffffff"
           x="45.198086"
           y="38.196079"
           width="12.810048"
           height="9.8235292"
           rx="0.34999999" />
        <path
           d="m 46.571292,40.058824 c -0.105708,0.0057 -0.208865,-0.03375 -0.283721,-0.108572 -0.07486,-0.07482 -0.11435,-0.177928 -0.108624,-0.283585 -0.0054,-0.107361 0.03357,-0.21222 0.107743,-0.290062 0.07417,-0.07784 0.177056,-0.121838 0.284602,-0.121703 h 10.044019 c 0.22752,0 0.411962,0.184353 0.411962,0.411765 1.34e-4,0.107494 -0.04388,0.210332 -0.121762,0.284466 -0.07788,0.07413 -0.182788,0.113065 -0.2902,0.107691 z"
           id="path1842"
           fill="#54301a" />
        <path
           d="m 46.571292,41.803922 c -0.219825,-0.01047 -0.392594,-0.191796 -0.392345,-0.411765 -0.0054,-0.10736 0.03357,-0.21222 0.107743,-0.290061 0.07417,-0.07784 0.177056,-0.121838 0.284602,-0.121704 h 6.650239 c 0.22752,0 0.411962,0.184354 0.411962,0.411765 -0.0099,0.223167 -0.188688,0.401831 -0.411962,0.411765 z"
           id="path1844"
           fill="#54301a" />
        <path
           d="m 46.571292,43.529412 c -0.219825,-0.01047 -0.392594,-0.191796 -0.392345,-0.411765 -2.49e-4,-0.219969 0.17252,-0.40129 0.392345,-0.411765 h 8.55311 c 0.219825,0.01047 0.392594,0.191796 0.392344,0.411765 2.5e-4,0.219969 -0.172519,0.40129 -0.392344,0.411765 z"
           id="path1846"
           fill="#54301a" />
        <path
           d="m 46.571292,45.254902 c -0.107546,1.34e-4 -0.210433,-0.04386 -0.284602,-0.121704 -0.07417,-0.07784 -0.11312,-0.182701 -0.107743,-0.290061 0,-0.216582 0.175659,-0.392157 0.392345,-0.392157 h 5.15933 c 0.107412,-0.0054 0.212322,0.03356 0.2902,0.107691 0.07788,0.07413 0.121896,0.176972 0.121762,0.284466 0,0.227412 -0.184442,0.411765 -0.411962,0.411765 z"
           id="path1848"
           fill="#54301a" />
        <path
           d="m 46.571292,46.980392 c -0.107546,1.35e-4 -0.210433,-0.04386 -0.284602,-0.121703 -0.07417,-0.07784 -0.11312,-0.182701 -0.107743,-0.290062 0,-0.216582 0.175659,-0.392156 0.392345,-0.392156 h 8.356938 c 0.107411,-0.0054 0.212321,0.03356 0.2902,0.10769 0.07788,0.07413 0.121896,0.176972 0.121761,0.284466 0,0.109207 -0.0434,0.213941 -0.12066,0.291162 -0.07726,0.07722 -0.182042,0.120603 -0.291301,0.120603 z"
           id="path1850"
           fill="#54301a" />
        <path
           d="M 27.699521,46.235294 H 27.464115 V 44.45098 c -0.176555,-1.960784 -3.04067,-2.764705 -6.375598,-2.843137 -3.334929,-0.07843 -6.199043,0.921569 -6.395216,2.843137 v 11.764706 c 0.196173,1.960785 3.060287,2.764706 6.395216,2.843138 3.334928,0.07843 6.199043,-0.921569 6.375598,-2.843138 v -1.039215 h 0.333493 c 2.481053,0 4.492344,-2.01033 4.492344,-4.490196 0,-2.479867 -2.011291,-4.490197 -4.492344,-4.490197 z m -0.235406,2.803922 h 0.333493 c 0.953417,0 1.726315,0.772528 1.726315,1.72549 0,0.952962 -0.772898,1.72549 -1.726315,1.72549 h -0.333493 z"
           id="path1852"
           fill="#54301a" />
        <path
           d="m 16.949282,43.156863 c 1.296687,-0.46058 2.665159,-0.686337 4.041149,-0.666667 1.375989,-0.01967 2.744461,0.206087 4.041148,0.666667 1.020096,0.411764 1.490909,0.960784 1.471292,1.294117 0.01048,0.03184 0.01048,0.0662 0,0.09804 v 0.137255 l -0.117703,0.137254 -0.156938,0.137255 -0.21579,0.117647 -0.255024,0.137255 0.294259,-0.17647 c -1.413015,-0.838393 -3.049962,-1.221762 -4.688517,-1.09804 -1.638555,-0.123722 -3.275502,0.259647 -4.688517,1.09804 l -0.333493,-0.215687 -0.647368,0.156863 c -0.05873,-0.05526 -0.105475,-0.122003 -0.137321,-0.196078 -0.0068,-0.05207 -0.0068,-0.104795 0,-0.156863 -0.09809,-0.509804 0.372728,-1.058824 1.392823,-1.470588 z"
           id="path1854"
           fill="#ffffff" />
        <path
           d="m 25.031579,57.54902 c -1.296687,0.460579 -2.665159,0.686336 -4.041148,0.666666 -1.37599,0.01967 -2.744462,-0.206087 -4.041149,-0.666666 -1.020095,-0.411765 -1.490909,-0.960785 -1.471292,-1.294118 V 45.941176 l 0.392345,0.27451 h 0.156938 l 0.35311,0.176471 h 0.156938 c 0.171973,0.07712 0.348924,0.142622 0.529665,0.196078 h 0.117703 l 0.510048,0.137255 h 0.176555 l 0.549282,0.117647 h 0.117703 0.706221 0.176555 0.588516 0.196173 0.765071 0.765072 0.21579 0.549282 0.215789 0.666986 0.176555 0.470813 0.255024 l 0.411962,-0.117647 h 0.176555 l 0.529665,-0.196078 h 0.156938 l 0.35311,-0.176471 h 0.137321 l 0.431579,-0.27451 v 10.313726 c 0.03923,0.196078 -0.431579,0.745098 -1.451675,1.156863 z"
           id="path1856"
           fill="#ffffff" />
        <path
           d="m 27.699521,54.411765 h -0.235406 v -1.176471 h 0.333493 c 0.904104,0 1.739531,-0.482103 2.191583,-1.264706 0.452052,-0.782602 0.452052,-1.746809 0,-2.529412 -0.452052,-0.782602 -1.287479,-1.264706 -2.191583,-1.264705 H 27.464115 V 47 h 0.333493 c 2.036847,0 3.688038,1.650401 3.688038,3.686275 0,2.035873 -1.651191,3.686274 -3.688038,3.686274 z"
           id="path1858"
           fill="#ffffff" />
        <path
           d="m 30.32823,67.941176 c 0.174803,-0.218376 0.277604,-0.485531 0.294258,-0.764705 7.6e-4,-0.24032 -0.09048,-0.471827 -0.255024,-0.647059 L 30.092823,66.27451 c -0.170453,-0.171987 -0.405356,-0.26448 -0.647369,-0.254902 -0.277637,0.0084 -0.545474,0.104502 -0.765071,0.27451 -2.433874,1.976898 -4.752502,4.091469 -6.944498,6.333333 -4.080383,4.019608 -8.003828,8.294118 -9.25933,10.823529 0,0 0,0 0,0.09804 l -0.392345,0.588235 c -0.0067,0.04551 -0.0067,0.09175 0,0.137255 -0.01527,0.03773 -0.01527,0.07992 0,0.117647 h 0.176556 l 0.588516,-0.372549 h 0.176555 c 3.920588,-2.662844 7.5212,-5.768284 10.730622,-9.254902 2.099043,-2.098039 3.589952,-3.72549 4.610048,-4.901961 0.125073,0.273996 0.125073,0.588749 0,0.862745 -0.586418,1.130411 -1.433709,2.105002 -2.47177,2.843138 -0.142147,0.03138 -0.289433,0.03138 -0.431579,0 -0.137321,0 -0.21579,0.117646 -0.411962,0.313725 -0.196172,0.196078 -0.274641,0.568627 -0.13732,0.705882 0.13732,0.137255 2.452153,-1.960784 2.452153,-1.960784 1.151227,-1.110667 1.879538,-2.587392 2.059808,-4.176471 z"
           id="path1860"
           fill="#54301a" />
        <path
           d="m 12.201914,68.666667 c 0.153657,1.576295 0.84652,3.051388 1.961722,4.17647 0,0 2.118661,2.235294 2.452154,1.960785 0.333492,-0.27451 0,-0.509804 -0.156938,-0.705883 -0.156938,-0.196078 -0.255024,-0.333333 -0.392345,-0.313725 -0.148779,0.0312 -0.302417,0.0312 -0.451196,0 -1.032122,-0.744656 -1.878064,-1.717696 -2.47177,-2.843138 -0.115526,-0.27599 -0.115526,-0.586754 0,-0.862745 1.020095,1.176471 2.511004,2.803922 4.610047,4.901961 C 21.677033,79 26.051675,83.019608 28.48421,84.235294 h 0.176556 l 0.568899,0.372549 h 0.196172 c 0.01527,-0.03773 0.01527,-0.07992 0,-0.117647 0.01163,-0.04501 0.01163,-0.09224 0,-0.137255 L 29.05311,83.764706 c 0,0 0,0 0,-0.09804 -1.216268,-2.529412 -5.237799,-6.803922 -9.25933,-10.82353 -2.181469,-2.252726 -4.500763,-4.367906 -6.944498,-6.333333 -0.212207,-0.169741 -0.473792,-0.266069 -0.745454,-0.27451 -0.112661,-0.0089 -0.225969,0.0044 -0.333493,0.03922 l -0.274641,0.254902 c -0.172069,0.170371 -0.264607,0.405162 -0.255024,0.647059 0.0066,0.281255 0.110601,0.551515 0.294258,0.764705 z"
           id="path1862"
           fill="#54301a" />
        <path
           d="m 61.441148,67 c -0.06677,-0.09317 -0.181617,-0.139086 -0.294258,-0.117647 l -3.334928,0.627451 c 0.542158,-0.955519 0.938857,-1.986445 1.177033,-3.058824 0.04534,-0.08589 0.04534,-0.188618 0,-0.274509 -0.08497,-0.04904 -0.189667,-0.04904 -0.274641,0 l -7.84689,1.45098 c -0.157783,0.02958 -0.267808,0.173386 -0.255024,0.333333 0.01532,0.221959 0.01532,0.444709 0,0.666667 -0.0047,0.420821 -0.04408,0.840539 -0.117703,1.254902 l -7.022967,1.333333 c -0.09288,0.01481 -0.173073,0.07311 -0.215789,0.156863 -0.05894,0.08202 -0.05894,0.192487 0,0.27451 0.192997,0.359385 0.452637,0.678788 0.765072,0.941176 h -0.627752 c -0.106522,0.02608 -0.189693,0.109215 -0.215789,0.215687 -0.05698,0.08977 -0.05698,0.204349 0,0.294117 0.207326,0.225696 0.437414,0.42939 0.686603,0.607843 l -0.804306,0.137255 h -0.117704 v 0.137255 10.647059 c -0.01163,0.04501 -0.01163,0.09224 0,0.137255 0.03831,0.01204 0.07939,0.01204 0.117704,0 l 7.944976,3.784314 h 0.176555 l 7.84689,-1.450981 c 0.05147,0.01328 0.105469,0.01328 0.156937,0 0.01057,-0.05175 0.01057,-0.105109 0,-0.156863 V 74.176471 c 0.01163,-0.04501 0.01163,-0.09224 0,-0.137255 l -0.117703,-0.117647 -4.472727,-1.960785 0.70622,-0.117647 c 2.628805,-0.499206 4.888037,-2.165765 6.140191,-4.529411 0.06046,-0.09585 0.06046,-0.217881 0,-0.313726 z"
           id="path1864"
           fill="#54301a" />
        <path
           d="M 50.730143,69.27451 50.847847,69 v -0.196078 c 0.04142,-0.101647 0.07423,-0.206591 0.09809,-0.313726 0,0 0,-0.17647 0,-0.27451 0.10214,-0.516692 0.154691,-1.041951 0.156938,-1.568627 0,-0.176471 0,-0.333333 0,-0.450981 l 7.062201,-1.333333 c -0.168143,0.613625 -0.391378,1.210821 -0.666986,1.784314 -0.181746,0.391238 -0.398412,0.765301 -0.647368,1.117647 l -3.629187,0.686274 c -0.105644,0.02332 -0.193404,0.09642 -0.235407,0.196079 0.0096,0.104353 0.0096,0.209372 0,0.313725 l -0.35311,0.666667 -0.156937,0.27451 -2.471771,0.549019 0.176555,-0.215686 v -0.117647 z"
           id="path1866"
           fill="#ffffff" />
        <path
           d="M 44.805742,71.568628 C 44.581844,71.430275 44.365729,71.279721 44.158373,71.117647 L 44.766507,71 c 0.705942,0.395351 1.505966,0.591873 2.314833,0.568628 h 0.608134 c 0.225713,-0.01676 0.449167,-0.05617 0.666985,-0.117648 h 0.21579 0.117703 l 3.295694,-0.72549 c -0.757027,0.852793 -1.756124,1.4547 -2.864115,1.72549 h -0.70622 -0.510048 c -1.095187,-1.27e-4 -2.168612,-0.305703 -3.099521,-0.882352 z"
           id="path1868"
           fill="#ffffff" />
        <path
           d="m 50.396651,68.45098 -0.117704,0.333334 c 0,0 0,0 0,0 -0.216177,0.60217 -0.605104,1.127311 -1.118181,1.509804 -0.17427,0.113682 -0.358049,0.212087 -0.549283,0.294117 h -0.215789 c -0.258535,0.09971 -0.528875,0.165615 -0.804306,0.196079 H 47.08134 c -0.215273,0.02111 -0.432096,0.02111 -0.647369,0 h -0.451196 c -0.505382,-0.133723 -0.978929,-0.36705 -1.392823,-0.686275 -0.164806,-0.135201 -0.31593,-0.286252 -0.451196,-0.45098 z"
           id="path1870"
           fill="#ffffff" />
        <polygon
           id="polygon1872"
           fill="#ffffff"
           points="43.511005,75.490196 43.511005,74.372549 51.083254,77.666667 51.259809,77.686274 58.67512,76.294118 58.67512,77.45098 51.240191,78.843137 " />
        <polygon
           id="polygon1874"
           fill="#ffffff"
           points="43.511005,80.823529 43.511005,79.705882 51.083254,83 51.259809,83.019608 58.67512,81.627451 58.67512,82.784314 51.240191,84.196078 " />
        <polygon
           id="polygon1876"
           fill="#ffffff"
           points="58.67512,84.568628 51.240191,85.960784 43.511005,82.607843 43.511005,81.490196 51.083254,84.784314 51.259809,84.803922 58.67512,83.392157 " />
        <polygon
           id="polygon1878"
           fill="#ffffff"
           points="58.67512,81 51.240191,82.411765 43.511005,79.039216 43.511005,77.921569 51.083254,81.215686 51.259809,81.235294 58.67512,79.843137 " />
        <polygon
           id="polygon1880"
           fill="#ffffff"
           points="58.67512,79.235294 51.240191,80.627451 43.511005,77.254902 43.511005,76.137255 51.083254,79.45098 51.259809,79.45098 58.67512,78.058824 " />
        <polygon
           id="polygon1882"
           fill="#ffffff"
           points="58.67512,74.54902 58.67512,75.666667 51.240191,77.078431 43.511005,73.705882 43.511005,72.627451 51.083254,75.921569 51.259809,75.941176 " />
        <path
           d="m 57.949282,74.058824 -6.709091,1.274509 -7.003349,-3.058823 h 0.470814 c 0.963638,0.523294 2.042088,0.799515 3.138756,0.803921 h 0.294258 c 0.313271,0.02753 0.628355,0.02753 0.941627,0 l 4.45311,-0.745098 z"
           id="path1884"
           fill="#ffffff" />
        <path
           d="m 59.577512,68.901961 c -1.143778,1.240015 -2.670067,2.061469 -4.335407,2.333333 l -3.923445,0.666667 c 0.579233,-0.421416 1.088909,-0.930849 1.510527,-1.509804 0.172215,-0.245184 0.329439,-0.500552 0.470813,-0.764706 l 0.117703,-0.215686 c 0.08225,-0.158663 0.154327,-0.322392 0.21579,-0.490196 l 0.745454,-0.137255 6.238278,-1.137255 c -0.309229,0.447856 -0.657131,0.867762 -1.039713,1.254902 z"
           id="path1886"
           fill="#ffffff" />
        <path
           d="M 25.835885,25.529412 C 17.499111,21.069537 13.531703,11.300036 16.4,2.2941177 c 0.155145,-0.6325308 0.768615,-1.0413154 1.41244,-0.9411765 0.745455,0 1.078948,0.5686274 1.039713,1.4313725 -0.74152,6.9705261 3.159635,13.6072753 9.61244,16.3529413"
           id="path1888"
           fill="#ffffff" />
        <path
           d="m 25.835885,25.901961 c -0.06391,0.01966 -0.13226,0.01966 -0.196172,0 -8.46019,-4.580332 -12.483062,-14.513472 -9.592823,-23.6862747 0.177192,-0.8259757 0.97025,-1.36878788 1.804785,-1.23529414 0.902392,0 1.41244,0.74509804 1.373205,1.80392154 v 0.2745098 c -0.624595,6.7172886 3.177682,13.0646105 9.396651,15.6862745 0.174631,0.09507 0.25049,0.305687 0.176555,0.490196 -0.08831,0.182292 -0.30614,0.260674 -0.490431,0.176471 C 21.791706,16.671647 17.816989,10.013207 18.499043,2.9803922 V 2.7647059 c 0,-0.9803922 -0.470813,-1.0196079 -0.686603,-1.0392157 -0.843541,0 -1.000478,0.5294118 -1.020096,0.6470588 -2.769224,8.842642 1.100119,18.408732 9.239713,22.843137 0.136281,0.08654 0.201321,0.25094 0.161112,0.407235 -0.04021,0.156296 -0.176526,0.268944 -0.337667,0.27904 z"
           id="path1890"
           fill="#54301a" />
        <path
           d="M 47.905263,25.509804 C 56.217789,21.038853 60.165911,11.28449 57.301914,2.2941177 57.138123,1.658706 56.51843,1.2514314 55.869856,1.3529412 c -0.725837,0 -1.05933,0.5686274 -1.020095,1.4313725 0.735615,6.9372276 -3.127055,13.5467023 -9.533972,16.3137253"
           id="path1892"
           fill="#ffffff" />
        <path
           d="m 47.905263,25.882353 c -0.129029,0.0029 -0.249378,-0.06473 -0.313875,-0.176471 -0.05697,-0.0818 -0.07667,-0.183872 -0.05425,-0.28099 0.02242,-0.09712 0.08488,-0.180232 0.171954,-0.228814 8.111018,-4.438919 11.955006,-13.986824 9.18086,-22.8039211 -0.106633,-0.4413775 -0.530993,-0.7298045 -0.980861,-0.6666667 -0.21579,0 -0.725837,0 -0.70622,1.0392157 v 0.1764706 c 0.666598,7.0244708 -3.304462,13.6688465 -9.808613,16.4117645 -0.08773,0.04617 -0.190835,0.05335 -0.28412,0.01978 -0.09329,-0.03357 -0.168155,-0.104787 -0.20631,-0.196253 -0.04142,-0.171906 0.05082,-0.347917 0.215789,-0.411765 6.196768,-2.637442 9.967852,-8.9857038 9.318182,-15.6862746 V 2.7843137 c 0,-1.0588235 0.470813,-1.7254902 1.373206,-1.80392154 0.835977,-0.11207876 1.619189,0.43250424 1.804784,1.25490194 2.819847,9.1160259 -1.175358,18.9557659 -9.553588,23.5294119 -0.04086,0.05252 -0.09505,0.09314 -0.156938,0.117647 z"
           id="path1894"
           fill="#54301a" />
        <path
           d="m 37.272727,34.568627 c 0,0 10.848326,0.490197 11.181819,-5.509804 0.09123,-4.490309 -1.496653,-8.853148 -4.453111,-12.235294 -1.627981,-2.164517 -4.176428,-3.44176 -6.885646,-3.45098 -2.714676,0.0092 -5.26911,1.285786 -6.905263,3.45098 -2.956457,3.382146 -4.544339,7.744985 -4.45311,12.235294 0.333493,6.000001 11.181818,5.509804 11.181818,5.509804 z"
           id="path1896"
           fill="#a3dce6" />
        <path
           d="m 36.154545,34.941176 c -2.452153,0 -10.554067,-0.411764 -10.867942,-5.882353 -0.105326,-4.553827 1.513081,-8.97956 4.531579,-12.392156 1.705491,-2.255867 4.370651,-3.581798 7.199521,-3.581798 2.82887,0 5.494031,1.325931 7.199522,3.581798 3.043581,3.436562 4.66387,7.902494 4.531579,12.490196 -0.35311,6.254902 -10.985646,5.882353 -11.554546,5.882353 h -1.039713 z m 1.039713,-0.745098 c 0.09809,0 10.495216,0.411765 10.789474,-5.156862 0.136751,-4.400024 -1.414204,-8.685908 -4.335407,-11.980393 -1.563557,-2.082033 -4.016255,-3.30719 -6.620813,-3.30719 -2.604558,0 -5.057256,1.225157 -6.620813,3.30719 -2.940653,3.285383 -4.506675,7.574091 -4.374642,11.980393 0.313876,5.568627 10.691388,5.156862 10.789474,5.156862 z"
           id="path1898"
           fill="#54301a" />
        <path
           d="m 32.270335,28.980392 h -0.294258 c -2.284774,-0.0065 -4.509159,-0.733906 -6.355981,-2.078431 -0.07068,-0.06997 -0.11045,-0.165274 -0.11045,-0.264706 0,-0.09943 0.03977,-0.194739 0.11045,-0.264706 0.0666,-0.06951 0.158726,-0.108826 0.255024,-0.108826 0.0963,0 0.188418,0.03931 0.255023,0.108826 0.608134,0.627451 2.138278,1.45098 5.885168,1.960784 h 0.09809 c 0.451196,0 0.5689,-0.137255 0.666986,-1.078431 v -0.27451 c 0.09809,-0.72549 0.333493,-9.470588 0.333493,-10.843137 -0.01123,-0.44823 -0.2471,-0.860807 -0.627752,-1.098039 -0.108632,-0.08056 -0.166014,-0.212928 -0.15053,-0.347241 0.01548,-0.134314 0.101481,-0.250168 0.225598,-0.303922 0.124116,-0.05375 0.267496,-0.03724 0.376129,0.04332 0.562551,0.388561 0.905247,1.02261 0.922009,1.705882 0,1.137255 -0.215789,10.117647 -0.333493,10.960784 v 0.235294 c -0.03923,0.568628 -0.176555,1.647059 -1.255502,1.647059 z"
           id="path1900"
           fill="#54301a" />
        <path
           d="m 41.765072,28.980392 c -1.078948,0 -1.196651,-1.078431 -1.27512,-1.745098 V 27 c -0.117703,-0.823529 -0.333493,-9.627451 -0.333493,-10.960784 0.0096,-0.705426 0.370006,-1.359757 0.961244,-1.745098 0.15316,-0.128479 0.376506,-0.128479 0.529665,0 0.05864,0.07932 0.0814,0.179543 0.06276,0.276392 -0.01863,0.09685 -0.07696,0.181487 -0.160847,0.233412 -0.399185,0.243183 -0.649691,0.670311 -0.666985,1.137254 0,1.411765 0.235406,10.117647 0.333492,10.843138 v 0.274509 c 0.117704,0.941177 0.235407,1.137255 0.666986,1.078432 3.923445,-0.431373 5.492823,-1.333333 6.042105,-1.960784 0.06575,-0.138811 0.209981,-0.223068 0.36325,-0.212203 0.153269,0.01086 0.28416,0.114626 0.32965,0.261321 0.04549,0.146696 -0.0037,0.30626 -0.124,0.401862 -0.902392,1.156863 -3.099522,1.960784 -6.532536,2.294118 h -0.294258 z"
           id="path1902"
           fill="#54301a" />
        <path
           d="M 37.017703,17.254902 C 36.276874,17.29976 35.638069,16.739979 35.585646,16 c 0.116319,-0.700016 0.722112,-1.213248 1.432057,-1.213248 0.709945,0 1.315738,0.513232 1.432058,1.213248 -0.05242,0.739979 -0.691229,1.29976 -1.432058,1.254902 z m 0,-1.764706 c -0.372727,0 -0.686603,0.235294 -0.686603,0.509804 0,0.27451 0.313876,0.509804 0.686603,0.509804 0.372728,0 0.686603,-0.215686 0.686603,-0.509804 0,-0.294118 -0.313875,-0.509804 -0.686603,-0.509804 z"
           id="path1904"
           fill="#ffffff" />
        <path
           d="m 37.017703,24.764706 c -0.790903,0 -1.432057,-0.640847 -1.432057,-1.431373 0,-0.790525 0.641154,-1.431372 1.432057,-1.431372 0.790904,0 1.432058,0.640847 1.432058,1.431372 0,0.790526 -0.641154,1.431373 -1.432058,1.431373 z m 0,-2.117647 c -0.182098,0 -0.356738,0.0723 -0.485501,0.201005 -0.128763,0.128701 -0.201102,0.303258 -0.201102,0.485269 0,0.379019 0.307403,0.686275 0.686603,0.686275 0.379201,0 0.686603,-0.307256 0.686603,-0.686275 0,-0.379019 -0.307402,-0.686274 -0.686603,-0.686274 z"
           id="path1906"
           fill="#ffffff" />
        <path
           d="m 36.154545,34.941176 c -2.452153,0 -10.554067,-0.411764 -10.867942,-5.882353 -0.105326,-4.553827 1.513081,-8.97956 4.531579,-12.392156 1.705491,-2.255867 4.370651,-3.581798 7.199521,-3.581798 2.82887,0 5.494031,1.325931 7.199522,3.581798 3.043581,3.436562 4.66387,7.902494 4.531579,12.490196 -0.35311,6.254902 -10.985646,5.882353 -11.554546,5.882353 h -1.039713 z m 1.039713,-0.745098 c 0.09809,0 10.495216,0.411765 10.789474,-5.156862 0.136751,-4.400024 -1.414204,-8.685908 -4.335407,-11.980393 -1.563557,-2.082033 -4.016255,-3.30719 -6.620813,-3.30719 -2.604558,0 -5.057256,1.225157 -6.620813,3.30719 -2.940653,3.285383 -4.506675,7.574091 -4.374642,11.980393 0.313876,5.568627 10.691388,5.156862 10.789474,5.156862 z"
           id="path1908"
           fill="#54301a" />
        <path
           d="m 37.017703,33.039216 c -0.580986,-5.5e-5 -1.104365,-0.350957 -1.324821,-0.888236 -0.220457,-0.537278 -0.0943,-1.154445 0.319346,-1.562226 0.413643,-0.407782 1.032786,-0.525357 1.567229,-0.297616 0.534444,0.227741 0.878263,0.755659 0.870304,1.336313 -0.01073,0.782857 -0.648752,1.411838 -1.432058,1.411765 z m 0,-2.117647 c -0.28729,-0.008 -0.550762,0.158851 -0.666279,0.421889 -0.115518,0.263038 -0.06003,0.569809 0.140306,0.775776 0.200341,0.205966 0.505575,0.27004 0.771888,0.162032 0.266312,-0.108008 0.440577,-0.366552 0.440688,-0.653815 1.48e-4,-0.382317 -0.30425,-0.695263 -0.686603,-0.705882 z"
           id="path1910"
           fill="#ffffff" />
        <rect
           id="rect1912"
           fill="#ffffff"
           transform="rotate(-45.16,22.948368,73.666947)"
           x="22.448366"
           y="72.413391"
           width="1"
           height="2.509804" />
        <path
           d="m 12.947368,83.45098 c 0.452813,-0.805865 0.971146,-1.573155 1.549761,-2.294117 l 0.961244,1 c -0.697066,0.577123 -1.445661,1.089075 -2.236363,1.529411 h -0.156938 z"
           id="path1914"
           fill="#ffffff" />
        <rect
           id="rect1916"
           fill="#ffffff"
           transform="rotate(-44.85,19.163211,73.85276)"
           x="17.900583"
           y="73.352707"
           width="2.5110047"
           height="1" />
        <path
           d="m 28.896172,83.568628 h -0.13732 c -0.790703,-0.440337 -1.539298,-0.952289 -2.236364,-1.529412 l 0.961244,-1 c 0.578616,0.720962 1.096948,1.488252 1.549761,2.294117 0,0 -0.09809,0.215687 -0.137321,0.235295 z"
           id="path1918"
           fill="#ffffff" />
      </g>
    </g>
  </g>
</svg>
