<?xml version="1.0" encoding="UTF-8"?>
<svg width="53px" height="46px" viewBox="0 0 53 46" version="1.1" xmlns="http://www.w3.org/2000/svg" xmlns:xlink="http://www.w3.org/1999/xlink">
    <!-- Generator: Sketch 52.6 (67491) - http://www.bohemiancoding.com/sketch -->
    <title>Custom Preset</title>
    <desc>Created with Sketch.</desc>
    <g id="Custom-Preset" stroke="none" stroke-width="1" fill="none" fill-rule="evenodd">
        <g id="Page-1" transform="translate(1.000000, -5.000000)">
            <g id="Group-Copy-3" transform="translate(12.216898, 27.770609) rotate(26.000000) translate(-12.216898, -27.770609) translate(3.716898, 19.270609)" fill="#2F3061">
                <path d="M5.2906,14.1326 L5.6686,15.6476 L14.3236,13.4896 L13.9466,11.9766 C13.6016,10.5896 12.6476,9.5246 11.4386,8.9816 C10.8676,9.7636 10.0266,10.3596 9.0106,10.6116 C7.9936,10.8646 6.9716,10.7346 6.1006,10.3116 C5.2876,11.3596 4.9456,12.7466 5.2906,14.1326" id="Fill-8"></path>
                <path d="M11.021,5.659 C10.601,3.972 8.891,2.945 7.205,3.365 C5.517,3.785 4.49,5.495 4.911,7.182 C5.186,8.29 6.017,9.108 7.033,9.428 C7.563,9.597 8.148,9.621 8.727,9.476 C9.306,9.332 9.806,9.038 10.196,8.639 C10.949,7.886 11.297,6.766 11.021,5.659" id="Fill-10"></path>
                <path d="M13.2632,13.1511 C13.8692,13.0011 14.3812,12.6221 14.7032,12.0861 C15.0262,11.5501 15.1192,10.9211 14.9682,10.3141 L13.2712,3.5011 C13.1192,2.8931 12.7422,2.3811 12.2052,2.0601 C11.6702,1.7371 11.0402,1.6421 10.4342,1.7951 L3.6192,3.4931 C2.3672,3.8051 1.6022,5.0781 1.9142,6.3311 L3.6132,13.1441 C3.9242,14.3961 5.2002,15.1611 6.4502,14.8491 L13.2632,13.1511 Z M2.4762,13.4271 L0.7792,6.6131 C0.3102,4.7351 1.4572,2.8251 3.3362,2.3571 L10.1512,0.6591 C11.0622,0.4311 12.0042,0.5731 12.8082,1.0561 C13.6122,1.5401 14.1802,2.3071 14.4072,3.2171 L16.1052,10.0311 C16.3312,10.9411 16.1912,11.8851 15.7062,12.6891 C15.2242,13.4931 14.4562,14.0601 13.5462,14.2871 L6.7332,15.9851 C6.4492,16.0561 6.1642,16.0891 5.8842,16.0891 C4.3102,16.0891 2.8732,15.0221 2.4762,13.4271 Z" id="Fill-12"></path>
            </g>
            <g id="Group-Copy-2" transform="translate(27.933207, 22.933207) rotate(-3.000000) translate(-27.933207, -22.933207) translate(19.433207, 14.433207)">
                <path d="M5.2906,14.1326 L5.6686,15.6476 L14.3236,13.4896 L13.9466,11.9766 C13.6016,10.5896 12.6476,9.5246 11.4386,8.9816 C10.8676,9.7636 10.0266,10.3596 9.0106,10.6116 C7.9936,10.8646 6.9716,10.7346 6.1006,10.3116 C5.2876,11.3596 4.9456,12.7466 5.2906,14.1326" id="Fill-8" fill="#A5D9E4"></path>
                <path d="M11.021,5.659 C10.601,3.972 8.891,2.945 7.205,3.365 C5.517,3.785 4.49,5.495 4.911,7.182 C5.186,8.29 6.017,9.108 7.033,9.428 C7.563,9.597 8.148,9.621 8.727,9.476 C9.306,9.332 9.806,9.038 10.196,8.639 C10.949,7.886 11.297,6.766 11.021,5.659" id="Fill-10" fill="#A5D9E4"></path>
                <path d="M13.2632,13.1511 C13.8692,13.0011 14.3812,12.6221 14.7032,12.0861 C15.0262,11.5501 15.1192,10.9211 14.9682,10.3141 L13.2712,3.5011 C13.1192,2.8931 12.7422,2.3811 12.2052,2.0601 C11.6702,1.7371 11.0402,1.6421 10.4342,1.7951 L3.6192,3.4931 C2.3672,3.8051 1.6022,5.0781 1.9142,6.3311 L3.6132,13.1441 C3.9242,14.3961 5.2002,15.1611 6.4502,14.8491 L13.2632,13.1511 Z M2.4762,13.4271 L0.7792,6.6131 C0.3102,4.7351 1.4572,2.8251 3.3362,2.3571 L10.1512,0.6591 C11.0622,0.4311 12.0042,0.5731 12.8082,1.0561 C13.6122,1.5401 14.1802,2.3071 14.4072,3.2171 L16.1052,10.0311 C16.3312,10.9411 16.1912,11.8851 15.7062,12.6891 C15.2242,13.4931 14.4562,14.0601 13.5462,14.2871 L6.7332,15.9851 C6.4492,16.0561 6.1642,16.0891 5.8842,16.0891 C4.3102,16.0891 2.8732,15.0221 2.4762,13.4271 Z" id="Fill-12" fill="#2F3061"></path>
            </g>
            <g id="Group-Copy-4" transform="translate(28.933207, 38.933207) rotate(24.000000) translate(-28.933207, -38.933207) translate(20.433207, 30.433207)" fill="#2F3061">
                <path d="M5.2906,14.1326 L5.6686,15.6476 L14.3236,13.4896 L13.9466,11.9766 C13.6016,10.5896 12.6476,9.5246 11.4386,8.9816 C10.8676,9.7636 10.0266,10.3596 9.0106,10.6116 C7.9936,10.8646 6.9716,10.7346 6.1006,10.3116 C5.2876,11.3596 4.9456,12.7466 5.2906,14.1326" id="Fill-8"></path>
                <path d="M11.021,5.659 C10.601,3.972 8.891,2.945 7.205,3.365 C5.517,3.785 4.49,5.495 4.911,7.182 C5.186,8.29 6.017,9.108 7.033,9.428 C7.563,9.597 8.148,9.621 8.727,9.476 C9.306,9.332 9.806,9.038 10.196,8.639 C10.949,7.886 11.297,6.766 11.021,5.659" id="Fill-10"></path>
                <path d="M13.2632,13.1511 C13.8692,13.0011 14.3812,12.6221 14.7032,12.0861 C15.0262,11.5501 15.1192,10.9211 14.9682,10.3141 L13.2712,3.5011 C13.1192,2.8931 12.7422,2.3811 12.2052,2.0601 C11.6702,1.7371 11.0402,1.6421 10.4342,1.7951 L3.6192,3.4931 C2.3672,3.8051 1.6022,5.0781 1.9142,6.3311 L3.6132,13.1441 C3.9242,14.3961 5.2002,15.1611 6.4502,14.8491 L13.2632,13.1511 Z M2.4762,13.4271 L0.7792,6.6131 C0.3102,4.7351 1.4572,2.8251 3.3362,2.3571 L10.1512,0.6591 C11.0622,0.4311 12.0042,0.5731 12.8082,1.0561 C13.6122,1.5401 14.1802,2.3071 14.4072,3.2171 L16.1052,10.0311 C16.3312,10.9411 16.1912,11.8851 15.7062,12.6891 C15.2242,13.4931 14.4562,14.0601 13.5462,14.2871 L6.7332,15.9851 C6.4492,16.0561 6.1642,16.0891 5.8842,16.0891 C4.3102,16.0891 2.8732,15.0221 2.4762,13.4271 Z" id="Fill-12"></path>
            </g>
            <g id="Group-Copy-5" transform="translate(13.352152, 43.358988) rotate(13.000000) translate(-13.352152, -43.358988) translate(4.852152, 34.858988)">
                <path d="M5.2906,14.1326 L5.6686,15.6476 L14.3236,13.4896 L13.9466,11.9766 C13.6016,10.5896 12.6476,9.5246 11.4386,8.9816 C10.8676,9.7636 10.0266,10.3596 9.0106,10.6116 C7.9936,10.8646 6.9716,10.7346 6.1006,10.3116 C5.2876,11.3596 4.9456,12.7466 5.2906,14.1326" id="Fill-8" fill="#A5D9E4"></path>
                <path d="M11.021,5.659 C10.601,3.972 8.891,2.945 7.205,3.365 C5.517,3.785 4.49,5.495 4.911,7.182 C5.186,8.29 6.017,9.108 7.033,9.428 C7.563,9.597 8.148,9.621 8.727,9.476 C9.306,9.332 9.806,9.038 10.196,8.639 C10.949,7.886 11.297,6.766 11.021,5.659" id="Fill-10" fill="#A5D9E4"></path>
                <path d="M13.2632,13.1511 C13.8692,13.0011 14.3812,12.6221 14.7032,12.0861 C15.0262,11.5501 15.1192,10.9211 14.9682,10.3141 L13.2712,3.5011 C13.1192,2.8931 12.7422,2.3811 12.2052,2.0601 C11.6702,1.7371 11.0402,1.6421 10.4342,1.7951 L3.6192,3.4931 C2.3672,3.8051 1.6022,5.0781 1.9142,6.3311 L3.6132,13.1441 C3.9242,14.3961 5.2002,15.1611 6.4502,14.8491 L13.2632,13.1511 Z M2.4762,13.4271 L0.7792,6.6131 C0.3102,4.7351 1.4572,2.8251 3.3362,2.3571 L10.1512,0.6591 C11.0622,0.4311 12.0042,0.5731 12.8082,1.0561 C13.6122,1.5401 14.1802,2.3071 14.4072,3.2171 L16.1052,10.0311 C16.3312,10.9411 16.1912,11.8851 15.7062,12.6891 C15.2242,13.4931 14.4562,14.0601 13.5462,14.2871 L6.7332,15.9851 C6.4492,16.0561 6.1642,16.0891 5.8842,16.0891 C4.3102,16.0891 2.8732,15.0221 2.4762,13.4271 Z" id="Fill-12" fill="#2F3061"></path>
            </g>
            <g id="Group-Copy" transform="translate(44.165629, 27.020121) rotate(6.000000) translate(-44.165629, -27.020121) translate(35.665629, 18.520121)" fill="#2F3061">
                <path d="M5.2906,14.1326 L5.6686,15.6476 L14.3236,13.4896 L13.9466,11.9766 C13.6016,10.5896 12.6476,9.5246 11.4386,8.9816 C10.8676,9.7636 10.0266,10.3596 9.0106,10.6116 C7.9936,10.8646 6.9716,10.7346 6.1006,10.3116 C5.2876,11.3596 4.9456,12.7466 5.2906,14.1326" id="Fill-8"></path>
                <path d="M11.021,5.659 C10.601,3.972 8.891,2.945 7.205,3.365 C5.517,3.785 4.49,5.495 4.911,7.182 C5.186,8.29 6.017,9.108 7.033,9.428 C7.563,9.597 8.148,9.621 8.727,9.476 C9.306,9.332 9.806,9.038 10.196,8.639 C10.949,7.886 11.297,6.766 11.021,5.659" id="Fill-10"></path>
                <path d="M13.2632,13.1511 C13.8692,13.0011 14.3812,12.6221 14.7032,12.0861 C15.0262,11.5501 15.1192,10.9211 14.9682,10.3141 L13.2712,3.5011 C13.1192,2.8931 12.7422,2.3811 12.2052,2.0601 C11.6702,1.7371 11.0402,1.6421 10.4342,1.7951 L3.6192,3.4931 C2.3672,3.8051 1.6022,5.0781 1.9142,6.3311 L3.6132,13.1441 C3.9242,14.3961 5.2002,15.1611 6.4502,14.8491 L13.2632,13.1511 Z M2.4762,13.4271 L0.7792,6.6131 C0.3102,4.7351 1.4572,2.8251 3.3362,2.3571 L10.1512,0.6591 C11.0622,0.4311 12.0042,0.5731 12.8082,1.0561 C13.6122,1.5401 14.1802,2.3071 14.4072,3.2171 L16.1052,10.0311 C16.3312,10.9411 16.1912,11.8851 15.7062,12.6891 C15.2242,13.4931 14.4562,14.0601 13.5462,14.2871 L6.7332,15.9851 C6.4492,16.0561 6.1642,16.0891 5.8842,16.0891 C4.3102,16.0891 2.8732,15.0221 2.4762,13.4271 Z" id="Fill-12"></path>
            </g>
            <g id="Group-Copy-6" transform="translate(43.554948, 43.428971) rotate(15.000000) translate(-43.554948, -43.428971) translate(35.054948, 34.928971)">
                <path d="M5.2906,14.1326 L5.6686,15.6476 L14.3236,13.4896 L13.9466,11.9766 C13.6016,10.5896 12.6476,9.5246 11.4386,8.9816 C10.8676,9.7636 10.0266,10.3596 9.0106,10.6116 C7.9936,10.8646 6.9716,10.7346 6.1006,10.3116 C5.2876,11.3596 4.9456,12.7466 5.2906,14.1326" id="Fill-8" fill="#A5D9E4"></path>
                <path d="M11.021,5.659 C10.601,3.972 8.891,2.945 7.205,3.365 C5.517,3.785 4.49,5.495 4.911,7.182 C5.186,8.29 6.017,9.108 7.033,9.428 C7.563,9.597 8.148,9.621 8.727,9.476 C9.306,9.332 9.806,9.038 10.196,8.639 C10.949,7.886 11.297,6.766 11.021,5.659" id="Fill-10" fill="#A5D9E4"></path>
                <path d="M13.2632,13.1511 C13.8692,13.0011 14.3812,12.6221 14.7032,12.0861 C15.0262,11.5501 15.1192,10.9211 14.9682,10.3141 L13.2712,3.5011 C13.1192,2.8931 12.7422,2.3811 12.2052,2.0601 C11.6702,1.7371 11.0402,1.6421 10.4342,1.7951 L3.6192,3.4931 C2.3672,3.8051 1.6022,5.0781 1.9142,6.3311 L3.6132,13.1441 C3.9242,14.3961 5.2002,15.1611 6.4502,14.8491 L13.2632,13.1511 Z M2.4762,13.4271 L0.7792,6.6131 C0.3102,4.7351 1.4572,2.8251 3.3362,2.3571 L10.1512,0.6591 C11.0622,0.4311 12.0042,0.5731 12.8082,1.0561 C13.6122,1.5401 14.1802,2.3071 14.4072,3.2171 L16.1052,10.0311 C16.3312,10.9411 16.1912,11.8851 15.7062,12.6891 C15.2242,13.4931 14.4562,14.0601 13.5462,14.2871 L6.7332,15.9851 C6.4492,16.0561 6.1642,16.0891 5.8842,16.0891 C4.3102,16.0891 2.8732,15.0221 2.4762,13.4271 Z" id="Fill-12" fill="#2F3061"></path>
            </g>
        </g>
    </g>
</svg>