<?xml version="1.0" encoding="UTF-8" standalone="no"?>
<svg
   xmlns:dc="http://purl.org/dc/elements/1.1/"
   xmlns:cc="http://creativecommons.org/ns#"
   xmlns:rdf="http://www.w3.org/1999/02/22-rdf-syntax-ns#"
   xmlns:svg="http://www.w3.org/2000/svg"
   xmlns="http://www.w3.org/2000/svg"
   xmlns:xlink="http://www.w3.org/1999/xlink"
   xmlns:sodipodi="http://sodipodi.sourceforge.net/DTD/sodipodi-0.dtd"
   xmlns:inkscape="http://www.inkscape.org/namespaces/inkscape"
   version="1.1"
   preserveAspectRatio="xMidYMid meet"
   viewBox="0 0 62 62"
   width="62"
   height="62"
   id="svg26"
   sodipodi:docname="hearts.svg"
   inkscape:version="1.0.1 (3bc2e813f5, 2020-09-07)">
  <metadata
     id="metadata30">
    <rdf:RDF>
      <cc:Work
         rdf:about="">
        <dc:format>image/svg+xml</dc:format>
        <dc:type
           rdf:resource="http://purl.org/dc/dcmitype/StillImage" />
        <dc:title></dc:title>
      </cc:Work>
    </rdf:RDF>
  </metadata>
  <sodipodi:namedview
     pagecolor="#ffffff"
     bordercolor="#666666"
     borderopacity="1"
     objecttolerance="10"
     gridtolerance="10"
     guidetolerance="10"
     inkscape:pageopacity="0"
     inkscape:pageshadow="2"
     inkscape:window-width="1920"
     inkscape:window-height="1058"
     id="namedview28"
     showgrid="false"
     inkscape:zoom="1.3395074"
     inkscape:cx="320"
     inkscape:cy="200.55311"
     inkscape:window-x="1368"
     inkscape:window-y="0"
     inkscape:window-maximized="1"
     inkscape:current-layer="svg26" />
  <defs
     id="defs4">
    <path
       d="m 284.64,108.3 c 32,9.74 50.25,42.85 40.79,73.95 -26.22,86.13 -155.09,93.6 -155.81,95.97 0,0 0,0 0,0 0.72,-2.37 -102.13,-80.39 -75.9,-166.52 9.47,-31.1 43.08,-48.42 75.07,-38.68 31.99,9.74 51.2,39.73 41.73,70.83 9.47,-31.1 42.13,-45.29 74.12,-35.55 z"
       id="cxu8nKSBY" />
    <path
       d="m 460.09,247.2 c 48.82,-19.68 103.89,2.83 123.03,50.28 53,131.39 -97.47,267.89 -96.01,271.5 0,0 0,0 0,0 -1.46,-3.61 -204.52,2.46 -257.51,-128.95 -19.14,-47.44 4.92,-101.87 53.73,-121.55 48.81,-19.69 101.97,-1.94 121.1,45.52 -19.13,-47.45 6.85,-97.11 55.66,-116.8 z"
       id="baCd6AC0M" />
  </defs>
  <g
     id="g12"
     transform="matrix(0.07397897,0,0,0.07397897,9.700568,1.0671634)"
     style="stroke-width:13.5174;stroke-miterlimit:4;stroke-dasharray:none">
    <use
       xlink:href="#cxu8nKSBY"
       opacity="1"
       fill="#a5d9e4"
       fill-opacity="1"
       id="use6"
       x="0"
       y="0"
       width="100%"
       height="100%"
       style="stroke-width:13.5174;stroke-miterlimit:4;stroke-dasharray:none" />
    <g
       id="g10"
       style="stroke-width:13.5174;stroke-miterlimit:4;stroke-dasharray:none">
      <use
         xlink:href="#cxu8nKSBY"
         opacity="1"
         fill-opacity="0"
         stroke="#222158"
         stroke-width="5"
         stroke-opacity="1"
         id="use8"
         x="0"
         y="0"
         width="100%"
         height="100%"
         style="stroke-width:13.5174;stroke-miterlimit:4;stroke-dasharray:none" />
    </g>
  </g>
  <g
     id="g20"
     transform="matrix(0.07397897,0,0,0.07397897,9.700568,1.0671634)"
     style="stroke-width:13.5174;stroke-miterlimit:4;stroke-dasharray:none">
    <use
       xlink:href="#baCd6AC0M"
       opacity="1"
       fill="#e2eff3"
       fill-opacity="1"
       id="use14"
       x="0"
       y="0"
       width="100%"
       height="100%"
       style="stroke-width:13.5174;stroke-miterlimit:4;stroke-dasharray:none" />
    <g
       id="g18"
       style="stroke-width:13.5174;stroke-miterlimit:4;stroke-dasharray:none">
      <use
         xlink:href="#baCd6AC0M"
         opacity="1"
         fill-opacity="0"
         stroke="#222158"
         stroke-width="5"
         stroke-opacity="1"
         id="use16"
         x="0"
         y="0"
         width="100%"
         height="100%"
         style="stroke-width:13.5174;stroke-miterlimit:4;stroke-dasharray:none" />
    </g>
  </g>
</svg>
