<?xml version="1.0" encoding="UTF-8"?>
<svg width="62px" height="62px" viewBox="0 0 62 62" version="1.1" xmlns="http://www.w3.org/2000/svg" xmlns:xlink="http://www.w3.org/1999/xlink">
    <!-- Generator: Sketch 49.3 (51167) - http://www.bohemiancoding.com/sketch -->
    <title>Custom Preset</title>
    <desc>Created with Sketch.</desc>
    <defs></defs>
    <g id="Custom-Preset" stroke="none" stroke-width="1" fill="none" fill-rule="evenodd">
        <g id="Page-1" transform="translate(-4.000000, -1.000000)">
            <g id="Group" transform="translate(26.500000, 28.500000) rotate(-3.000000) translate(-26.500000, -28.500000) translate(2.000000, 8.000000)">
                <path d="M0.4995,18.7761 L0.4995,18.9521 C0.4995,22.9491 1.3315,26.7481 2.8355,30.1891 C3.1505,30.9271 3.5025,31.6411 3.8835,32.3431 C4.2745,33.0631 4.6965,33.7601 5.1415,34.4391 C5.6095,35.1411 6.1015,35.8261 6.6285,36.4821 C7.7705,37.9161 9.0455,39.2331 10.4445,40.4151 C10.6315,40.5731 10.8185,40.7311 11.0065,40.8781 L45.8445,32.1971 C47.4075,31.8051 48.3615,30.2241 47.9695,28.6561 L41.5305,2.8141 C41.1455,1.2461 39.5585,0.2971 37.9895,0.6831 L2.0865,9.6331 C2.0045,9.8491 1.9285,10.0661 1.8575,10.2891 C1.2315,12.2201 0.8105,14.2461 0.6225,16.3351 C0.5465,17.1371 0.5055,17.9511 0.4995,18.7761" id="Fill-4" fill="#E2EFF3"></path>
                <path d="M0.4995,18.7761 L0.4995,18.9521 C0.4995,22.9491 1.3315,26.7481 2.8355,30.1891 C3.1505,30.9271 3.5025,31.6411 3.8835,32.3431 C4.2745,33.0631 4.6965,33.7601 5.1415,34.4391 C5.6095,35.1411 6.1015,35.8261 6.6285,36.4821 C7.7705,37.9161 9.0455,39.2331 10.4445,40.4151 C10.6315,40.5731 10.8185,40.7311 11.0065,40.8781 L45.8445,32.1971 C47.4075,31.8051 48.3615,30.2241 47.9695,28.6561 L41.5305,2.8141 C41.1455,1.2461 39.5585,0.2971 37.9895,0.6831 L2.0865,9.6331 C2.0045,9.8491 1.9285,10.0661 1.8575,10.2891 C1.2315,12.2201 0.8105,14.2461 0.6225,16.3351 C0.5465,17.1371 0.5055,17.9511 0.4995,18.7761 Z" id="Stroke-6" stroke="#2F3061" stroke-linecap="round" stroke-linejoin="round"></path>
                <path d="M29.2906,18.1326 L29.6686,19.6476 L38.3236,17.4896 L37.9466,15.9766 C37.6016,14.5896 36.6476,13.5246 35.4386,12.9816 C34.8676,13.7636 34.0266,14.3596 33.0106,14.6116 C31.9936,14.8646 30.9716,14.7346 30.1006,14.3116 C29.2876,15.3596 28.9456,16.7466 29.2906,18.1326" id="Fill-8" fill="#2F3061"></path>
                <path d="M35.021,9.659 C34.601,7.972 32.891,6.945 31.205,7.365 C29.517,7.785 28.49,9.495 28.911,11.182 C29.186,12.29 30.017,13.108 31.033,13.428 C31.563,13.597 32.148,13.621 32.727,13.476 C33.306,13.332 33.806,13.038 34.196,12.639 C34.949,11.886 35.297,10.766 35.021,9.659" id="Fill-10" fill="#2F3061"></path>
                <path d="M37.2632,17.1511 C37.8692,17.0011 38.3812,16.6221 38.7032,16.0861 C39.0262,15.5501 39.1192,14.9211 38.9682,14.3141 L37.2712,7.5011 C37.1192,6.8931 36.7422,6.3811 36.2052,6.0601 C35.6702,5.7371 35.0402,5.6421 34.4342,5.7951 L27.6192,7.4931 C26.3672,7.8051 25.6022,9.0781 25.9142,10.3311 L27.6132,17.1441 C27.9242,18.3961 29.2002,19.1611 30.4502,18.8491 L37.2632,17.1511 Z M26.4762,17.4271 L24.7792,10.6131 C24.3102,8.7351 25.4572,6.8251 27.3362,6.3571 L34.1512,4.6591 C35.0622,4.4311 36.0042,4.5731 36.8082,5.0561 C37.6122,5.5401 38.1802,6.3071 38.4072,7.2171 L40.1052,14.0311 C40.3312,14.9411 40.1912,15.8851 39.7062,16.6891 C39.2242,17.4931 38.4562,18.0601 37.5462,18.2871 L30.7332,19.9851 C30.4492,20.0561 30.1642,20.0891 29.8842,20.0891 C28.3102,20.0891 26.8732,19.0221 26.4762,17.4271 Z" id="Fill-12" fill="#2F3061"></path>
                <path d="M0.4995,18.7761 L7.2665,17.0901 L6.6985,14.8191 L0.6225,16.3351 C0.5465,17.1371 0.5055,17.9511 0.4995,18.7761" id="Fill-14" fill="#2F3061"></path>
                <polygon id="Fill-16" fill="#2F3061" points="16.7827 19.5467 21.9587 18.2567 21.3927 15.9847 16.2177 17.2757"></polygon>
                <polygon id="Fill-18" fill="#2F3061" points="9.3345 21.4021 14.5115 20.1121 13.9445 17.8401 8.7695 19.1311"></polygon>
                <polygon id="Fill-20" fill="#2F3061" points="9.5357 16.5261 20.8267 13.7131 20.2607 11.4411 8.9697 14.2551"></polygon>
                <polygon id="Fill-22" fill="#A5D9E4" points="28.7701 26.1384 42.1641 22.8014 41.5971 20.5304 28.2041 23.8674"></polygon>
                <polygon id="Fill-24" fill="#A5D9E4" points="10.813 30.6131 24.206 27.2761 23.64 25.0051 10.248 28.3421"></polygon>
                <path d="M2.8355,30.1892 C3.1505,30.9272 3.5025,31.6412 3.8835,32.3432 L8.5425,31.1782 L7.9745,28.9082 L2.8355,30.1892 Z" id="Fill-26" fill="#A5D9E4"></path>
                <path d="M5.1411,34.4392 C5.6101,35.1412 6.1011,35.8262 6.6281,36.4822 L16.2331,34.0872 L15.6711,31.8172 L5.1411,34.4392 Z" id="Fill-28" fill="#A5D9E4"></path>
                <polygon id="Fill-30" fill="#A5D9E4" points="18.5074 33.5222 25.3384 31.8202 24.7724 29.5472 17.9414 31.2502"></polygon>
                <polygon id="Fill-32" fill="#A5D9E4" points="36.4644 29.0476 43.2954 27.3446 42.7304 25.0726 35.8984 26.7756"></polygon>
            </g>
        </g>
    </g>
</svg>