<?xml version="1.0" encoding="UTF-8"?>
<svg width="62px" height="62px" viewBox="0 0 62 62" version="1.1" xmlns="http://www.w3.org/2000/svg" xmlns:xlink="http://www.w3.org/1999/xlink">
    <!-- Generator: Sketch 49.3 (51167) - http://www.bohemiancoding.com/sketch -->
    <title>Custom Preset</title>
    <desc>Created with Sketch.</desc>
    <defs></defs>
    <g id="Custom-Preset" stroke="none" stroke-width="1" fill="none" fill-rule="evenodd">
        <g id="map_pin" transform="translate(12.000000, -1.000000)">
            <path d="M34.2129,22.873 C33.7599,25.726 32.3769,28.14 30.4459,29.894 C27.7469,32.348 25.2109,34.974 22.9159,37.809 L15.1359,47.419 L13.1979,34.13 C12.7189,30.837 11.8379,27.628 10.8899,24.439 C10.2759,22.371 10.2139,20.11 10.8289,17.873 C12.6999,11.059 20.0819,7.247 26.8419,9.925 C31.9729,11.958 35.0799,17.423 34.2129,22.873" id="Fill-4" fill="#A5D9E4"></path>
            <path d="M34.2129,22.873 C33.7599,25.726 32.3769,28.14 30.4459,29.894 C27.7469,32.348 25.2109,34.974 22.9159,37.809 L15.1359,47.419 L13.1979,34.13 C12.7189,30.837 11.8379,27.628 10.8899,24.439 C10.2759,22.371 10.2139,20.11 10.8289,17.873 C12.6999,11.059 20.0819,7.247 26.8419,9.925 C31.9729,11.958 35.0799,17.423 34.2129,22.873 Z" id="Stroke-6" stroke="#2F3061" stroke-linecap="round" stroke-linejoin="round"></path>
            <path d="M28.3877,22.4629 C27.4847,25.7499 24.0877,27.6839 20.8007,26.7799 C17.5127,25.8769 15.5797,22.4809 16.4837,19.1929 C17.3867,15.9049 20.7837,13.9729 24.0707,14.8759 C27.3577,15.7789 29.2897,19.1759 28.3877,22.4629" id="Fill-8" fill="#E2EFF3"></path>
            <path d="M28.3877,22.4629 C27.4847,25.7499 24.0877,27.6839 20.8007,26.7799 C17.5127,25.8769 15.5797,22.4809 16.4837,19.1929 C17.3867,15.9049 20.7837,13.9729 24.0707,14.8759 C27.3577,15.7789 29.2897,19.1759 28.3877,22.4629 Z" id="Stroke-10" stroke="#2F3061" stroke-linecap="round" stroke-linejoin="round"></path>
        </g>
    </g>
</svg>