<?xml version="1.0" encoding="UTF-8"?>
<svg width="62px" height="62px" viewBox="0 0 62 62" version="1.1" xmlns="http://www.w3.org/2000/svg" xmlns:xlink="http://www.w3.org/1999/xlink">
    <!-- Generator: Sketch 49.3 (51167) - http://www.bohemiancoding.com/sketch -->
    <title>Custom Preset</title>
    <desc>Created with Sketch.</desc>
    <defs></defs>
    <g id="Custom-Preset" stroke="none" stroke-width="1" fill="none" fill-rule="evenodd">
        <g id="pencil_flag" transform="translate(6.000000, -1.000000)">
            <g id="Group-6" transform="translate(25.500000, 27.500000) rotate(5.000000) translate(-25.500000, -27.500000) translate(2.000000, 7.000000)">
                <path d="M4.18774041,40.3603 L17.3596106,8.01790215 L16.0550118,7.49044475 L2.95076438,39.6684673 C3.36170259,39.902546 3.77368115,40.1335037 4.18774041,40.3603" id="Fill-4" fill="#A5D9E4"></path>
                <path d="M2.94920385,39.667427 L16.0544916,7.48836405 L14.7509332,6.96298735 L1.72159096,38.9558276 C2.12836778,39.1971888 2.53722529,39.4333482 2.94920385,39.667427" id="Fill-6" fill="#E2EFF3"></path>
                <path d="M1.7199264,38.9552034 L14.7482283,6.96444384 L13.4446698,6.43698643 L0.500636315,38.219676 C0.904292078,38.46936 1.31106889,38.7138422 1.7199264,38.9552034" id="Fill-8" fill="#A5D9E4"></path>
                <path d="M13.4441497,6.43615415 L13.7458511,5.90037395 L16.2010769,2.94369952 C16.3623311,3.09767131 16.5516748,3.22979575 16.7639062,3.33695179 L14.7508291,6.96361156 L13.4441497,6.43615415 Z" id="Fill-10" fill="#A5D9E4"></path>
                <path d="M14.7507251,6.96340349 L16.7648425,3.33778407 C16.8210214,3.36379281 16.8824021,3.39292261 16.9406617,3.41685066 C17.004123,3.44181906 17.0644633,3.46262605 17.1237632,3.48135235 L16.0542835,7.48878019 L14.7507251,6.96340349 Z" id="Fill-12" fill="#E2EFF3"></path>
                <path d="M17.1239713,3.48176849 C17.3518079,3.55251229 17.5765235,3.58788418 17.798118,3.58788418 L17.5151429,7.42157358 L17.3611711,8.01561338 L16.0544916,7.48919633 L17.1239713,3.48176849 Z" id="Fill-14" fill="#A5D9E4"></path>
                <path d="M16.201493,2.94328338 L17.0972343,1.86652123 L17.9014248,1.0862588 L17.9014248,2.19007005 L17.7984302,3.58725997 C17.5757953,3.58725997 17.3510797,3.55292843 17.1242834,3.48218463 C17.0639431,3.46241798 17.0036028,3.44161099 16.9411818,3.41664259 C16.8818819,3.39375489 16.8215416,3.36358474 16.7643223,3.337576 C16.552091,3.22937961 16.3617069,3.09725517 16.201493,2.94328338" id="Fill-16" fill="#2F3061"></path>
                <path d="M4.18774041,40.3603 L17.3606509,8.01582145 L13.4437335,6.43657029 L0.4997,38.2192599 C1.71066729,38.9672715 2.94140123,39.6799112 4.18774041,40.3603 Z" id="Stroke-18" stroke="#2F3061" stroke-linecap="round" stroke-linejoin="round"></path>
                <polygon id="Stroke-20" stroke="#2F3061" stroke-linecap="round" stroke-linejoin="round" points="17.3607549 8.01602952 18.0401034 0.687804787 13.4438376 6.43573801"></polygon>
                <path d="M19.9778592,7.14223963 L17.7983261,6.26314396" id="Stroke-22" stroke="#2F3061" stroke-linecap="round" stroke-linejoin="round"></path>
                <path d="M14.8909643,19.7534652 L13.3502061,19.131336" id="Stroke-24" stroke="#2F3061" stroke-linecap="round" stroke-linejoin="round"></path>
                <path d="M18.7526391,10.1749636 C19.1625369,9.16478388 19.5713945,8.15460413 19.9760906,7.14442437 C20.4837813,5.88247993 20.9956335,4.6205355 21.5033242,3.35859106 C23.792094,5.39871723 26.3721618,6.70331601 29.108282,7.63650987 C31.8485637,8.56450199 34.7344943,9.12733129 37.620425,9.68599919 C36.7028363,11.9591637 35.7862881,14.2302476 34.8686995,16.5034121 C31.9838092,15.9447442 29.0978785,15.3860763 26.3586372,14.4528825 C23.622517,13.5196886 21.0403685,12.2150898 18.7526391,10.1749636" id="Fill-26" fill="#E2EFF3"></path>
                <path d="M18.7526391,10.1749636 C19.1625369,9.16478388 19.5713945,8.15460413 19.9760906,7.14442437 C20.4837813,5.88247993 20.9956335,4.6205355 21.5033242,3.35859106 C23.792094,5.39871723 26.3721618,6.70331601 29.108282,7.63650987 C31.8485637,8.56450199 34.7344943,9.12733129 37.620425,9.68599919 C36.7028363,11.9591637 35.7862881,14.2302476 34.8686995,16.5034121 C31.9838092,15.9447442 29.0978785,15.3860763 26.3586372,14.4528825 C23.622517,13.5196886 21.0403685,12.2150898 18.7526391,10.1749636 Z" id="Stroke-28" stroke="#2F3061" stroke-linecap="round" stroke-linejoin="round"></path>
                <path d="M32.1004324,23.3744031 C31.1838841,25.6465273 30.2662955,27.9186514 29.3497473,30.1907756 C28.8139671,30.08466 28.2771465,29.9847864 27.740326,29.8745093 C27.3814052,29.8048058 27.0214442,29.7299006 26.6614831,29.6560358 C26.4086781,29.6050586 26.1548327,29.5509605 25.9020277,29.4958219 C25.6929173,29.4521272 25.4848474,29.4084325 25.2736563,29.3553747 C24.9854794,29.2929537 24.6910604,29.2263713 24.4008028,29.1556275 C24.1105451,29.0838433 23.8244489,29.0130995 23.5425141,28.9402751 C23.2917898,28.8768137 23.0504286,28.812312 22.8028253,28.7426086 C22.4938414,28.6572999 22.1879785,28.5667894 21.8821156,28.476279 C21.8769139,28.4721176 21.8727525,28.4731579 21.8727525,28.4731579 C21.526316,28.3670423 21.1871619,28.2588459 20.8480078,28.143367 C20.8438464,28.1444074 20.8428061,28.140246 20.8386447,28.140246 C20.4994906,28.0247671 20.1624172,27.9040866 19.8295053,27.7740428 C18.6445467,27.3246117 17.4970408,26.7919525 16.3880278,26.1469356 C15.8335213,25.8233867 15.2883779,25.4748695 14.7598802,25.086819 C14.2365842,24.712293 13.7268127,24.3065566 13.2326465,23.8633675 C13.7861127,22.491146 14.3385385,21.1241262 14.8909643,19.752945 C15.2550867,18.8468003 15.6192092,17.9468976 15.9833317,17.0417932 C16.9009203,14.769669 17.8174686,12.4975448 18.7340168,10.2254206 C21.0186252,12.2655468 23.6038947,13.5691052 26.3389746,14.5033394 C29.0750949,15.4323719 31.9651869,15.9941608 34.8511176,16.5528287 C33.9345693,18.8259933 33.018021,21.1012385 32.1004324,23.3744031" id="Fill-30" fill="#E2EFF3"></path>
                <path d="M32.1004324,23.3744031 C31.1838841,25.6465273 30.2662955,27.9186514 29.3497473,30.1907756 C28.8139671,30.08466 28.2771465,29.9847864 27.740326,29.8745093 C27.3814052,29.8048058 27.0214442,29.7299006 26.6614831,29.6560358 C26.4086781,29.6050586 26.1548327,29.5509605 25.9020277,29.4958219 C25.6929173,29.4521272 25.4848474,29.4084325 25.2736563,29.3553747 C24.9854794,29.2929537 24.6910604,29.2263713 24.4008028,29.1556275 C24.1105451,29.0838433 23.8244489,29.0130995 23.5425141,28.9402751 C23.2917898,28.8768137 23.0504286,28.812312 22.8028253,28.7426086 C22.4938414,28.6572999 22.1879785,28.5667894 21.8821156,28.476279 C21.8769139,28.4721176 21.8727525,28.4731579 21.8727525,28.4731579 C21.526316,28.3670423 21.1871619,28.2588459 20.8480078,28.143367 C20.8438464,28.1444074 20.8428061,28.140246 20.8386447,28.140246 C20.4994906,28.0247671 20.1624172,27.9040866 19.8295053,27.7740428 C18.6445467,27.3246117 17.4970408,26.7919525 16.3880278,26.1469356 C15.8335213,25.8233867 15.2883779,25.4748695 14.7598802,25.086819 C14.2365842,24.712293 13.7268127,24.3065566 13.2326465,23.8633675 C13.7861127,22.491146 14.3385385,21.1241262 14.8909643,19.752945 C15.2550867,18.8468003 15.6192092,17.9468976 15.9833317,17.0417932 C16.9009203,14.769669 17.8174686,12.4975448 18.7340168,10.2254206 C21.0186252,12.2655468 23.6038947,13.5691052 26.3389746,14.5033394 C29.0750949,15.4323719 31.9651869,15.9941608 34.8511176,16.5528287 C33.9345693,18.8259933 33.018021,21.1012385 32.1004324,23.3744031 Z" id="Stroke-32" stroke="#2F3061" stroke-linecap="round" stroke-linejoin="round"></path>
                <path d="M34.8689075,16.5592789 C37.7579592,17.1169065 40.6449302,17.6807761 43.3800101,18.6098086 C42.4634618,20.8819328 41.5469136,23.1582184 40.6303653,25.4303425 C39.7127767,27.7024667 38.7962284,29.9756313 37.8796802,32.2467151 C37.8297434,32.2290292 37.7798066,32.2134239 37.7298698,32.198859 C37.4853875,32.11251 37.2367439,32.0355241 36.9849792,31.9595786 C36.8903074,31.9294084 36.7956356,31.8992383 36.7020041,31.8742699 C36.0528257,31.6766034 35.3984456,31.5018246 34.7409445,31.3353686 C34.4371623,31.2583827 34.1333802,31.1845179 33.8264769,31.1158548 C33.7203612,31.0919267 33.6132052,31.0679987 33.5060492,31.0440706 C33.2605266,30.9878917 33.0160444,30.9317128 32.7715621,30.8807357 C31.6417421,30.6383342 30.5077607,30.4146589 29.3685776,30.1961855 L29.3675372,30.1920241 C30.2840855,27.9157385 31.2016741,25.6477757 32.117182,23.3756515 C33.0347707,21.1035273 33.9513189,18.8324434 34.8689075,16.5592789" id="Fill-34" fill="#E2EFF3"></path>
                <path d="M34.8689075,16.5592789 C37.7579592,17.1169065 40.6449302,17.6807761 43.3800101,18.6098086 C42.4634618,20.8819328 41.5469136,23.1582184 40.6303653,25.4303425 C39.7127767,27.7024667 38.7962284,29.9756313 37.8796802,32.2467151 C37.8297434,32.2290292 37.7798066,32.2134239 37.7298698,32.198859 C37.4853875,32.11251 37.2367439,32.0355241 36.9849792,31.9595786 C36.8903074,31.9294084 36.7956356,31.8992383 36.7020041,31.8742699 C36.0528257,31.6766034 35.3984456,31.5018246 34.7409445,31.3353686 C34.4371623,31.2583827 34.1333802,31.1845179 33.8264769,31.1158548 C33.7203612,31.0919267 33.6132052,31.0679987 33.5060492,31.0440706 C33.2605266,30.9878917 33.0160444,30.9317128 32.7715621,30.8807357 C31.6417421,30.6383342 30.5077607,30.4146589 29.3685776,30.1961855 L29.3675372,30.1920241 C30.2840855,27.9157385 31.2016741,25.6477757 32.117182,23.3756515 C33.0347707,21.1035273 33.9513189,18.8324434 34.8689075,16.5592789 Z" id="Stroke-36" stroke="#2F3061" stroke-linecap="round" stroke-linejoin="round"></path>
                <path d="M29.1083861,7.6359897 C28.1918378,9.90915424 27.2742492,12.1802381 26.3577009,14.4534026 C23.622621,13.5191684 21.0404726,12.2145696 18.7527431,10.1744435 L18.7475414,10.1723628 C19.1574392,9.16114266 19.5621353,8.1509629 19.9720332,7.13974279 C20.4786836,5.87883871 20.9905358,4.61689427 21.4992669,3.35494984 L21.5023879,3.35911124 C23.7921981,5.3992374 26.3722658,6.70383618 29.1083861,7.6359897" id="Fill-38" fill="#A5D9E4"></path>
                <path d="M29.1083861,7.6359897 C28.1918378,9.90915424 27.2742492,12.1802381 26.3577009,14.4534026 C23.622621,13.5191684 21.0404726,12.2145696 18.7527431,10.1744435 L18.7475414,10.1723628 C19.1574392,9.16114266 19.5621353,8.1509629 19.9720332,7.13974279 C20.4786836,5.87883871 20.9905358,4.61689427 21.4992669,3.35494984 L21.5023879,3.35911124 C23.7921981,5.3992374 26.3722658,6.70383618 29.1083861,7.6359897 Z" id="Stroke-40" stroke="#2F3061" stroke-linecap="round" stroke-linejoin="round"></path>
                <path d="M37.6201129,9.68620726 C36.7025242,11.9593718 35.785976,14.2304556 34.8683874,16.5036202 C31.9834971,15.9449523 29.0986068,15.3862844 26.3583251,14.4530905 C27.2748734,12.179926 28.1914217,9.90884214 29.1079699,7.63567759 C31.8482516,8.56471006 34.7352226,9.12753936 37.6201129,9.68620726" id="Fill-42" fill="#E2EFF3"></path>
                <path d="M37.6201129,9.68620726 C36.7025242,11.9593718 35.785976,14.2304556 34.8683874,16.5036202 C31.9834971,15.9449523 29.0986068,15.3862844 26.3583251,14.4530905 C27.2748734,12.179926 28.1914217,9.90884214 29.1079699,7.63567759 C31.8482516,8.56471006 34.7352226,9.12753936 37.6201129,9.68620726 Z" id="Stroke-44" stroke="#2F3061" stroke-linecap="round" stroke-linejoin="round"></path>
                <path d="M46.1492135,11.7425629 C45.2326652,14.0157274 44.3150766,16.2868113 43.3985283,18.5641372 C40.6644888,17.629903 37.7775178,17.0670737 34.8874258,16.5094461 C35.8050144,14.2362816 36.7205223,11.9651978 37.6422723,9.69203322 C40.528203,10.2507011 43.4130932,10.8104094 46.1492135,11.7425629" id="Fill-46" fill="#A5D9E4"></path>
                <path d="M46.1492135,11.7425629 C45.2326652,14.0157274 44.3150766,16.2868113 43.3985283,18.5641372 C40.6644888,17.629903 37.7775178,17.0670737 34.8874258,16.5094461 C35.8050144,14.2362816 36.7205223,11.9651978 37.6422723,9.69203322 C40.528203,10.2507011 43.4130932,10.8104094 46.1492135,11.7425629 Z" id="Stroke-48" stroke="#2F3061" stroke-linecap="round" stroke-linejoin="round"></path>
                <path d="M26.3388706,14.5029233 C25.4223223,16.7760878 24.5047337,19.0471717 23.5881854,21.3203362 C20.8531055,20.386102 18.2667957,19.0815032 15.9832276,17.0413771 L15.9780259,17.038256 C16.8956145,14.7661318 17.8121628,12.4940076 18.7297514,10.2218834 L18.7339128,10.2260448 C21.0185212,12.266171 23.6037907,13.5697294 26.3388706,14.5029233" id="Fill-50" fill="#E2EFF3"></path>
                <path d="M26.3388706,14.5029233 C25.4223223,16.7760878 24.5047337,19.0471717 23.5881854,21.3203362 C20.8531055,20.386102 18.2667957,19.0815032 15.9832276,17.0413771 L15.9780259,17.038256 C16.8956145,14.7661318 17.8121628,12.4940076 18.7297514,10.2218834 L18.7339128,10.2260448 C21.0185212,12.266171 23.6037907,13.5697294 26.3388706,14.5029233 Z" id="Stroke-52" stroke="#2F3061" stroke-linecap="round" stroke-linejoin="round"></path>
                <path d="M34.8505974,16.5531408 C33.9340491,18.8263054 33.0175008,21.1015506 32.0999122,23.3747152 C29.2098202,22.8118859 26.3249299,22.253218 23.5888097,21.3200241 C24.5053579,19.0468596 25.4219062,16.7757757 26.3384545,14.5026112 C29.0745747,15.432684 31.9657071,15.9944729 34.8505974,16.5531408" id="Fill-54" fill="#A5D9E4"></path>
                <path d="M34.8505974,16.5531408 C33.9340491,18.8263054 33.0175008,21.1015506 32.0999122,23.3747152 C29.2098202,22.8118859 26.3249299,22.253218 23.5888097,21.3200241 C24.5053579,19.0468596 25.4219062,16.7757757 26.3384545,14.5026112 C29.0745747,15.432684 31.9657071,15.9944729 34.8505974,16.5531408 Z" id="Stroke-56" stroke="#2F3061" stroke-linecap="round" stroke-linejoin="round"></path>
                <path d="M43.379698,18.6094965 C42.4631497,20.882661 41.5466015,23.1579062 40.6300532,25.4310708 C37.8949733,24.4968366 35.0038409,23.939209 32.1179103,23.3753394 C33.0354989,21.1032152 33.9510068,18.8321313 34.8685954,16.5589668 C37.7586875,17.1165943 40.6446181,17.680464 43.379698,18.6094965" id="Fill-58" fill="#E2EFF3"></path>
                <path d="M43.379698,18.6094965 C42.4631497,20.882661 41.5466015,23.1579062 40.6300532,25.4310708 C37.8949733,24.4968366 35.0038409,23.939209 32.1179103,23.3753394 C33.0354989,21.1032152 33.9510068,18.8321313 34.8685954,16.5589668 C37.7586875,17.1165943 40.6446181,17.680464 43.379698,18.6094965 Z" id="Stroke-60" stroke="#2F3061" stroke-linecap="round" stroke-linejoin="round"></path>
                <path d="M20.8384366,28.1382693 C18.101276,27.2061158 15.5139258,25.9035977 13.2261964,23.8582698 C14.1427446,21.5840649 15.0592929,19.3119407 15.9768815,17.0387762 C18.2635706,19.0851444 20.8519612,20.3887029 23.5891218,21.319816 C22.6715331,23.5929806 21.7549849,25.8651048 20.8384366,28.1382693" id="Fill-62" fill="#A5D9E4"></path>
                <path d="M20.8384366,28.1382693 C18.101276,27.2061158 15.5139258,25.9035977 13.2261964,23.8582698 C14.1427446,21.5840649 15.0592929,19.3119407 15.9768815,17.0387762 C18.2635706,19.0851444 20.8519612,20.3887029 23.5891218,21.319816 C22.6715331,23.5929806 21.7549849,25.8651048 20.8384366,28.1382693 Z" id="Stroke-64" stroke="#2F3061" stroke-linecap="round" stroke-linejoin="round"></path>
                <path d="M32.1004324,23.3744031 C31.1838841,25.6465273 30.2662955,27.9186514 29.3497473,30.1907756 C28.8139671,30.08466 28.2771465,29.9847864 27.740326,29.8745093 C27.3814052,29.8048058 27.0214442,29.7299006 26.6614831,29.6560358 C26.4086781,29.6050586 26.1548327,29.5509605 25.9020277,29.4958219 C25.6929173,29.4521272 25.4848474,29.4084325 25.2736563,29.3553747 C24.9854794,29.2929537 24.6910604,29.2263713 24.4008028,29.1556275 C24.1105451,29.0838433 23.8244489,29.0130995 23.5425141,28.9402751 C23.2917898,28.8768137 23.0504286,28.812312 22.8028253,28.7426086 C22.4938414,28.6572999 22.1879785,28.5667894 21.8821156,28.476279 C21.8769139,28.4721176 21.8727525,28.4731579 21.8727525,28.4731579 C21.526316,28.3670423 21.1871619,28.2588459 20.8480078,28.143367 C20.8438464,28.1444074 20.8428061,28.140246 20.8386447,28.140246 C21.7551929,25.8639604 22.6717412,23.5918362 23.5882895,21.319712 C26.3244097,22.2529059 29.2103404,22.8115738 32.1004324,23.3744031" id="Fill-66" fill="#E2EFF3"></path>
                <path d="M32.1004324,23.3744031 C31.1838841,25.6465273 30.2662955,27.9186514 29.3497473,30.1907756 C28.8139671,30.08466 28.2771465,29.9847864 27.740326,29.8745093 C27.3814052,29.8048058 27.0214442,29.7299006 26.6614831,29.6560358 C26.4086781,29.6050586 26.1548327,29.5509605 25.9020277,29.4958219 C25.6929173,29.4521272 25.4848474,29.4084325 25.2736563,29.3553747 C24.9854794,29.2929537 24.6910604,29.2263713 24.4008028,29.1556275 C24.1105451,29.0838433 23.8244489,29.0130995 23.5425141,28.9402751 C23.2917898,28.8768137 23.0504286,28.812312 22.8028253,28.7426086 C22.4938414,28.6572999 22.1879785,28.5667894 21.8821156,28.476279 C21.8769139,28.4721176 21.8727525,28.4731579 21.8727525,28.4731579 C21.526316,28.3670423 21.1871619,28.2588459 20.8480078,28.143367 C20.8438464,28.1444074 20.8428061,28.140246 20.8386447,28.140246 C21.7551929,25.8639604 22.6717412,23.5918362 23.5882895,21.319712 C26.3244097,22.2529059 29.2103404,22.8115738 32.1004324,23.3744031 Z" id="Stroke-68" stroke="#2F3061" stroke-linecap="round" stroke-linejoin="round"></path>
                <path d="M37.87916,32.2468192 C37.8292232,32.2280929 37.7792864,32.213528 37.7293496,32.1989631 C37.4848674,32.112614 37.2372641,32.0356281 36.9854994,31.9596826 C36.8908276,31.9295124 36.7951154,31.8993423 36.7014839,31.8743739 C36.0523056,31.6767074 35.3979255,31.5019286 34.7404243,31.3354726 C34.4366422,31.2584867 34.13286,31.1846219 33.8259568,31.1159588 C33.7198411,31.0920308 33.612685,31.0681027 33.5065693,31.0441747 C33.2610468,30.9879958 33.0155242,30.9318169 32.7720823,30.8808397 C31.6422623,30.6384382 30.5072406,30.414763 29.3680574,30.1962895 L29.3670171,30.1921281 C30.2835653,27.9158425 31.2011539,25.6478797 32.1177022,23.3757555 C35.0036328,23.9396252 37.8947652,24.4972527 40.6308855,25.4304466 C39.7132969,27.7025708 38.7967486,29.974695 37.87916,32.2468192" id="Fill-70" fill="#A5D9E4"></path>
                <path d="M37.87916,32.2468192 C37.8292232,32.2280929 37.7792864,32.213528 37.7293496,32.1989631 C37.4848674,32.112614 37.2372641,32.0356281 36.9854994,31.9596826 C36.8908276,31.9295124 36.7951154,31.8993423 36.7014839,31.8743739 C36.0523056,31.6767074 35.3979255,31.5019286 34.7404243,31.3354726 C34.4366422,31.2584867 34.13286,31.1846219 33.8259568,31.1159588 C33.7198411,31.0920308 33.612685,31.0681027 33.5065693,31.0441747 C33.2610468,30.9879958 33.0155242,30.9318169 32.7720823,30.8808397 C31.6422623,30.6384382 30.5072406,30.414763 29.3680574,30.1962895 L29.3670171,30.1921281 C30.2835653,27.9158425 31.2011539,25.6478797 32.1177022,23.3757555 C35.0036328,23.9396252 37.8947652,24.4972527 40.6308855,25.4304466 C39.7132969,27.7025708 38.7967486,29.974695 37.87916,32.2468192 Z" id="Stroke-72" stroke="#2F3061" stroke-linecap="round" stroke-linejoin="round"></path>
            </g>
        </g>
    </g>
</svg>