<?xml version="1.0" encoding="UTF-8" standalone="no"?>
<svg
   version="1.0"
   width="64pt"
   height="64pt"
   viewBox="0 0 64 64"
   preserveAspectRatio="xMidYMid"
   id="svg2688"
   sodipodi:docname="question-book.svg"
   inkscape:version="1.2.2 (b0a8486541, 2022-12-01)"
   xmlns:inkscape="http://www.inkscape.org/namespaces/inkscape"
   xmlns:sodipodi="http://sodipodi.sourceforge.net/DTD/sodipodi-0.dtd"
   xmlns="http://www.w3.org/2000/svg"
   xmlns:svg="http://www.w3.org/2000/svg">
  <defs
     id="defs2692" />
  <sodipodi:namedview
     id="namedview2690"
     pagecolor="#ffffff"
     bordercolor="#666666"
     borderopacity="1.0"
     inkscape:showpageshadow="2"
     inkscape:pageopacity="0.0"
     inkscape:pagecheckerboard="0"
     inkscape:deskcolor="#d1d1d1"
     inkscape:document-units="pt"
     showgrid="false"
     inkscape:zoom="1.6955253"
     inkscape:cx="199.93804"
     inkscape:cy="77.557085"
     inkscape:window-width="1920"
     inkscape:window-height="1056"
     inkscape:window-x="1368"
     inkscape:window-y="0"
     inkscape:window-maximized="1"
     inkscape:current-layer="svg2688" />
  <metadata
     id="metadata2676">
Created by potrace 1.10, written by Peter Selinger 2001-2011
</metadata>
  <g
     transform="matrix(0.01474333,0,0,-0.01474333,4.3563594,39.011514)"
     fill="#000000"
     stroke="none"
     id="g2686"
     style="fill:#2f3061;fill-opacity:1">
    <path
       d="m 1550,2391 c -228,-51 -570,-125 -885,-192 -104,-22 -201,-46 -215,-52 -24,-12 -25,-17 -28,-122 l -2,-110 300,-770 c 166,-424 322,-824 347,-890 26,-66 48,-122 50,-124 4,-6 -50,-25 751,265 369,134 677,244 682,244 13,0 13,16 -1,42 l -11,21 -13,-23 C 2515,662 2410,620 1954,453 1647,341 1350,232 1295,211 c -55,-21 -101,-38 -102,-37 -2,1 12,32 30,69 l 32,66 170,60 c 93,32 332,116 530,186 198,70 448,157 556,194 l 196,67 -56,99 c -31,55 -234,421 -451,813 -326,587 -398,712 -415,711 -11,0 -117,-22 -235,-48 z m 248,-3 c 11,-15 80,-138 203,-365 17,-32 44,-81 60,-110 16,-28 39,-71 52,-95 13,-24 44,-79 69,-123 25,-44 62,-111 83,-150 21,-38 81,-146 133,-240 52,-93 130,-235 174,-315 l 79,-145 -22,-17 c -11,-10 -29,-18 -38,-18 -9,0 -21,-4 -27,-10 -5,-5 -18,-11 -29,-13 -11,-1 -24,-5 -30,-8 -5,-4 -23,-10 -40,-14 -37,-10 -34,-9 -69,-24 -16,-6 -99,-36 -185,-66 -86,-29 -221,-77 -301,-105 -80,-28 -163,-58 -185,-65 -22,-7 -85,-30 -140,-50 -55,-20 -104,-38 -110,-39 -5,-2 -19,-6 -30,-10 -27,-11 -49,-17 -53,-17 -1,1 -18,-6 -38,-14 -65,-27 -78,-21 -107,43 -14,31 -38,88 -52,125 -15,37 -29,66 -31,64 -2,-2 17,-55 42,-118 62,-156 67,-171 48,-167 -9,2 -27,30 -41,63 -13,33 -60,148 -103,255 -44,107 -198,488 -344,845 -152,374 -261,654 -256,659 6,5 15,4 24,-3 8,-7 17,-8 20,-3 3,6 23,13 43,16 50,9 391,83 468,101 33,8 76,17 95,19 19,3 71,14 115,25 44,10 105,24 135,30 30,6 64,12 75,15 11,2 41,9 68,15 26,6 62,13 80,16 18,3 46,10 62,14 44,14 91,13 103,-1 z M 856,1225 c 201,-495 369,-907 371,-916 3,-9 -5,-20 -20,-26 -19,-9 -26,-22 -31,-56 -4,-27 -13,-48 -22,-51 -23,-9 -33,1 -27,25 3,12 1,24 -5,28 -5,3 -45,94 -87,201 -42,107 -81,209 -88,225 -6,17 -12,32 -13,35 -1,8 -15,41 -29,75 -23,51 -56,137 -77,200 -11,33 -24,64 -29,70 -5,5 -9,15 -9,23 0,7 -9,32 -19,55 -24,53 -125,311 -123,314 0,2 -6,20 -15,40 -8,21 -20,49 -26,63 -6,14 -11,27 -12,30 -1,3 -7,19 -14,35 -7,17 -20,53 -28,80 -8,28 -19,55 -23,60 -11,15 -57,135 -64,170 -6,28 -5,29 9,11 8,-11 15,-24 15,-29 0,-6 11,-33 24,-61 13,-28 48,-112 77,-186 80,-207 139,-353 149,-372 6,-10 10,-23 10,-29 0,-5 12,-36 26,-67 14,-31 33,-76 41,-101 8,-25 26,-68 38,-95 25,-55 178,-433 205,-506 9,-25 26,-67 38,-94 12,-27 22,-54 22,-62 0,-7 5,-16 10,-19 6,-4 8,-10 5,-15 -3,-4 2,-13 10,-20 12,-10 15,-9 15,4 0,9 -60,166 -134,349 -74,183 -191,474 -261,647 -239,590 -325,810 -325,825 0,20 32,57 42,47 3,-4 172,-412 374,-907 z"
       id="path2678"
       style="fill:#2f3061;fill-opacity:1" />
    <path
       d="m 1330,2142 c -118,-40 -197,-94 -261,-183 -36,-48 -65,-126 -68,-180 -3,-68 16,-79 177,-110 60,-11 64,-11 87,11 14,13 25,30 25,37 0,27 40,92 69,112 19,14 45,21 74,21 39,0 49,-4 70,-31 21,-27 23,-37 16,-75 -9,-49 -22,-71 -91,-160 -27,-34 -48,-67 -48,-73 0,-6 -4,-11 -8,-11 -34,0 -53,-162 -28,-237 26,-77 46,-82 159,-37 113,45 137,65 137,114 0,41 19,85 53,122 164,179 192,360 81,534 -39,61 -78,96 -148,131 -69,35 -213,42 -296,15 z m 284,-41 c 66,-32 118,-87 158,-163 30,-57 33,-71 33,-153 0,-109 -18,-152 -122,-289 -62,-82 -67,-93 -68,-140 v -51 l -110,-47 -110,-47 -15,32 c -8,19 -14,64 -15,112 0,91 9,111 110,240 69,87 92,151 76,206 -33,110 -185,117 -252,11 -16,-25 -32,-62 -35,-81 -9,-50 -10,-50 -47,-41 -17,4 -67,16 -111,25 l -79,17 6,52 c 11,113 97,227 216,290 89,46 127,55 231,53 67,-2 96,-7 134,-26 z"
       id="path2680"
       style="fill:#2f3061;fill-opacity:1" />
    <path
       d="m 1630,1164 c -8,-3 -40,-16 -70,-29 -30,-13 -63,-26 -72,-29 -9,-3 -25,-17 -34,-31 -16,-25 -16,-29 5,-83 12,-31 31,-77 42,-102 11,-25 20,-49 20,-55 0,-5 8,-18 16,-27 28,-31 66,-24 193,34 89,40 97,62 54,162 -15,33 -33,77 -42,96 -27,64 -57,81 -112,64 z m 106,-131 c 27,-65 49,-122 49,-126 0,-7 -201,-97 -217,-97 -5,0 -8,5 -8,11 0,6 -22,63 -49,126 l -50,114 27,10 c 15,5 61,25 102,43 41,19 80,35 86,35 5,1 32,-52 60,-116 z"
       id="path2682"
       style="fill:#2f3061;fill-opacity:1" />
    <path
       d="m 1114,720 c 9,-32 39,-101 43,-97 2,3 -8,29 -22,58 -14,30 -23,47 -21,39 z"
       id="path2684"
       style="fill:#2f3061;fill-opacity:1" />
  </g>
  <path
     style="fill:#a5d9e4;fill-opacity:1;stroke-width:67.5531;stop-color:#000000"
     d="M 22.190597,31.14663 C 21.648825,29.840425 20.989427,28.594222 20.725268,28.377291 20.324262,28.047979 13.062116,10.622725 12.376404,8.3444952 12.17009,7.6590327 12.626173,7.5207605 20.906946,5.7582696 c 4.81168,-1.0241246 9.023866,-1.806539 9.360412,-1.7386985 0.388368,0.078286 2.848645,4.1681034 6.734746,11.1954339 3.367563,6.089649 6.122842,11.168688 6.122842,11.286751 0,0.205908 -19.091728,7.019793 -19.668659,7.019793 -0.154358,0 -0.723918,-1.068713 -1.26569,-2.374919 z m 7.476472,-4.300564 c 0.962074,-0.436701 1.492564,-0.904457 1.487592,-1.311673 -0.01193,-0.977312 -1.308416,-3.610643 -1.886953,-3.832648 -0.284308,-0.1091 -1.260754,0.13067 -2.169881,0.53282 -1.50256,0.664654 -1.635021,0.819244 -1.455821,1.699045 0.386494,1.897532 1.297771,3.606787 1.918746,3.598934 0.336049,-0.0043 1.283892,-0.313165 2.106317,-0.686478 z m -3.183113,-5.706945 c 1.41093,-0.601973 2.215553,-1.353933 2.215553,-2.070543 0,-0.342185 0.373545,-1.069704 0.830099,-1.61671 2.804938,-3.360644 2.600979,-7.424939 -0.47808,-9.5266717 C 27.635237,6.9584522 24.656414,6.8485904 22.964639,7.7007061 21.16097,8.6091813 19.56742,10.34236 19.166356,11.831798 c -0.470878,1.748705 0.04258,2.346706 2.226273,2.59284 1.49696,0.168729 1.593261,0.122429 2.325041,-1.117846 0.626385,-1.061643 0.93619,-1.273916 1.726131,-1.182712 1.442654,0.166566 1.381501,1.105953 -0.233349,3.58452 -1.463394,2.246104 -1.705062,3.339539 -1.093569,4.947888 0.38042,1.000583 0.90323,1.107181 2.367073,0.482633 z"
     id="path2716" />
</svg>
