<?xml version="1.0" encoding="UTF-8" standalone="no"?>
<!-- Uploaded to: SVG Repo, www.svgrepo.com, Generator: SVG Repo Mixer Tools -->

<svg
   fill="#000000"
   height="64"
   width="64"
   version="1.1"
   id="Capa_1"
   viewBox="0 0 7.85536 7.85536"
   xml:space="preserve"
   sodipodi:docname="speechbubbles.svg"
   inkscape:version="1.2.2 (b0a8486541, 2022-12-01)"
   inkscape:export-filename="../../../../speechbubbles.png"
   inkscape:export-xdpi="7.4400001"
   inkscape:export-ydpi="7.4400001"
   xmlns:inkscape="http://www.inkscape.org/namespaces/inkscape"
   xmlns:sodipodi="http://sodipodi.sourceforge.net/DTD/sodipodi-0.dtd"
   xmlns="http://www.w3.org/2000/svg"
   xmlns:svg="http://www.w3.org/2000/svg"><defs
   id="defs845">
	
</defs><sodipodi:namedview
   id="namedview843"
   pagecolor="#ffffff"
   bordercolor="#666666"
   borderopacity="1.0"
   inkscape:showpageshadow="2"
   inkscape:pageopacity="0.0"
   inkscape:pagecheckerboard="0"
   inkscape:deskcolor="#d1d1d1"
   showgrid="false"
   inkscape:zoom="11.62"
   inkscape:cx="47.848537"
   inkscape:cy="31.282272"
   inkscape:window-width="1920"
   inkscape:window-height="1056"
   inkscape:window-x="1368"
   inkscape:window-y="0"
   inkscape:window-maximized="1"
   inkscape:current-layer="Capa_1" />

<g
   inkscape:groupmode="layer"
   id="layer1"
   inkscape:label="Layer 1" /><path
   id="path838"
   d="M 6.8088407,4.6548531 C 6.717725,4.5685257 6.6558501,4.4667644 6.6246105,4.3520331 6.6757933,4.24037 6.7016868,4.1218267 6.7016868,3.999053 V 3.2932324 c 0,-0.3031454 -0.1595453,-0.5689612 -0.3984913,-0.7202317 V 2.1147728 c 0,-0.6546843 -0.532608,-1.18729231 -1.1872923,-1.18729231 H 3.8208527 c -0.6546843,0 -1.1872458,0.53260801 -1.1872458,1.18729231 v 1.0157067 c 0,0.17563 0.038073,0.3450771 0.1132437,0.504204 -0.045511,0.1783728 -0.1396951,0.3360586 -0.280227,0.4691525 l -0.1112447,0.1053873 0.1447623,0.050021 c 0.094463,0.032681 0.1948293,0.049277 0.2983106,0.049277 0.1586156,0 0.3252735,-0.038259 0.4958828,-0.1138015 0.1629389,0.080609 0.344008,0.1230061 0.5265646,0.1230061 h 0.3377322 c 0.1265391,0.3128148 0.4321948,0.5346999 0.7899631,0.5346999 h 0.8997667 c 0.1267716,0 0.2525204,-0.02845 0.3665079,-0.082608 0.1180784,0.050625 0.2336,0.076286 0.3441009,0.076286 0.074984,0 0.1478305,-0.01204 0.2163531,-0.035749 L 6.9200854,4.7602868 Z M 3.3413336,4.0095127 3.2996342,3.9867338 3.2567262,4.0071884 C 3.0621758,4.0999775 2.8767834,4.1373535 2.7073827,4.116992 2.8204869,3.9773434 2.8970984,3.8187278 2.9357761,3.6437021 l 0.00716,-0.032448 -0.015016,-0.029659 C 2.8560499,3.4398077 2.8195572,3.2880723 2.8195572,3.1303865 V 2.1147728 c 0,-0.5521328 0.4492093,-1.0013421 1.0012955,-1.0013421 h 1.2950505 c 0.5521327,0 1.001342,0.4492093 1.001342,1.0013421 V 3.130433 c 0,0.5520862 -0.4492093,1.0012491 -1.001342,1.0012491 H 3.8208527 C 3.6534975,4.1316356 3.4876764,4.0894249 3.3413336,4.0095127 Z m 3.2175899,0.6505005 c -0.095764,0 -0.1988273,-0.02608 -0.306446,-0.077355 l -0.042908,-0.020455 -0.041699,0.022779 c -0.097531,0.053275 -0.2080318,0.0814 -0.3195555,0.0814 H 4.948548 c -0.2525669,0 -0.4722672,-0.1412757 -0.5854644,-0.3487497 h 0.7528196 c 0.6546843,0 1.1872923,-0.5325615 1.1872923,-1.1871993 V 2.8059963 C 6.433779,2.9277937 6.5157366,3.1009599 6.5157366,3.2931859 v 0.7058207 c 0,0.1049689 -0.024313,0.2060793 -0.072288,0.3005885 l -0.015062,0.029659 0.00716,0.032495 c 0.023987,0.1085484 0.068244,0.2083107 0.1320711,0.2981247 -0.00288,4.65e-5 -0.00576,1.395e-4 -0.00869,1.395e-4 z"
   style="fill:#2f3061;fill-opacity:1;stroke-width:0.0464876" /><path
   style="fill:#a5d9e4;fill-opacity:1;stroke:none;stroke-width:16.5232;stroke-opacity:1;stop-color:#000000"
   d="M 30.034423,33.548567 C 29.143857,33.40847 28.13843,33.079583 27.179295,32.614621 l -0.316402,-0.153383 -0.71727,0.308136 c -1.125299,0.483424 -1.898686,0.672197 -2.974366,0.726 -0.532488,0.02664 -0.968159,0.02879 -0.968159,0.0048 0,-0.024 0.179904,-0.310168 0.399787,-0.635928 0.510564,-0.756407 0.932704,-1.677512 1.206924,-2.633491 l 0.216446,-0.754567 -0.30491,-0.71055 c -0.71155,-1.658173 -0.765592,-2.25996 -0.721545,-8.034809 0.03366,-4.412724 0.0444,-4.672526 0.221346,-5.351636 0.797485,-3.060749 3.032216,-5.282023 6.101202,-6.064465 0.748061,-0.190719 0.814111,-0.1925149 7.080406,-0.1925149 6.28242,0 6.330468,0.00132 7.087462,0.1941908 1.609489,0.4100811 2.920228,1.1655771 4.020825,2.3175591 1.063105,1.112738 1.689449,2.254568 2.083087,3.797479 0.186503,0.731018 0.190726,0.861893 0.190726,5.911081 0,4.721431 -0.01363,5.221653 -0.159176,5.842614 -0.766242,3.269082 -3.245987,5.67799 -6.48239,6.297216 -0.527091,0.10085 -1.769063,0.121359 -6.769619,0.11179 -3.368255,-0.0064 -6.220915,-0.02695 -6.339246,-0.04557 z"
   id="path1394"
   transform="scale(0.12274)" /></svg>
