<?xml version="1.0" encoding="UTF-8"?>
<svg width="40px" height="40px" viewBox="0 0 40 40" version="1.1" xmlns="http://www.w3.org/2000/svg" xmlns:xlink="http://www.w3.org/1999/xlink">
    <!-- Generator: Sketch 51.1 (57501) - http://www.bohemiancoding.com/sketch -->
    <title>Artboard</title>
    <desc>Created with Sketch.</desc>
    <defs>
        <polygon id="path-1" points="0.2203 0.0002 39.7803 0.0002 39.7803 40 0.2203 40"></polygon>
    </defs>
    <g id="Artboard" stroke="none" stroke-width="1" fill="none" fill-rule="evenodd">
        <g id="Group">
            <g id="1">
                <g id="Group-3">
                    <mask id="mask-2" fill="white">
                        <use xlink:href="#path-1"></use>
                    </mask>
                    <g id="Clip-2"></g>
                    <path d="M39.7803,22.9902 C39.3603,25.7702 38.3803,28.3602 36.9393,30.6402 C36.2593,31.7192 35.4803,32.7302 34.6103,33.6602 C30.9603,37.5602 25.7593,40.0002 20.0003,40.0002 C14.2403,40.0002 9.0503,37.5602 5.3903,33.6602 C4.5303,32.7402 3.7503,31.7302 3.0703,30.6502 C1.6303,28.3702 0.6403,25.7702 0.2203,22.9902 C1.7803,22.8802 3.0003,21.5902 3.0003,20.0002 C3.0003,18.4102 1.7803,17.1202 0.2203,17.0102 C1.6703,7.3802 9.9803,0.0002 20.0003,0.0002 C30.0303,0.0002 38.3303,7.3802 39.7803,17.0102 C38.2303,17.1202 37.0003,18.4202 37.0003,20.0002 C37.0003,21.5802 38.2303,22.8802 39.7803,22.9902" id="Fill-1" fill="#FFD478" mask="url(#mask-2)"></path>
                </g>
                <path d="M40,20 C40,21.02 39.92,22.02 39.78,22.99 C38.23,22.88 37,21.58 37,20 C37,18.42 38.23,17.12 39.78,17.01 C39.92,17.98 40,18.98 40,20" id="Fill-4" fill="#DBAD4A"></path>
                <path d="M3,20 C3,21.59 1.78,22.88 0.221,22.99 C0.08,22.02 0,21.02 0,20 C0,18.98 0.08,17.98 0.221,17.01 C1.78,17.12 3,18.41 3,20" id="Fill-6" fill="#DBAD4A"></path>
                <path d="M28.1885,20.6763 C28.0205,20.7893 27.8165,20.8533 27.6005,20.8533 L12.4155,20.8533 C12.1725,20.8533 11.9465,20.7693 11.7655,20.6313 C13.8335,18.5863 16.6595,17.3063 19.7805,17.2453 C23.0485,17.1803 26.0245,18.5153 28.1885,20.6763" id="Fill-8" fill="#E2EFF3"></path>
                <path d="M28.1885,20.6763 C28.0205,20.7893 27.8165,20.8533 27.6005,20.8533 L12.4155,20.8533 C12.1725,20.8533 11.9465,20.7693 11.7655,20.6313 C13.8335,18.5863 16.6595,17.3063 19.7805,17.2453 C23.0485,17.1803 26.0245,18.5153 28.1885,20.6763 Z" id="Stroke-10" stroke="#2F3061" stroke-width="1.5" stroke-linecap="round" stroke-linejoin="round"></path>
                <path d="M31.7354,29.2007 L31.7354,30.1087 C31.7354,31.3617 30.7174,32.3797 29.4644,32.3797 L28.4894,32.3797 L11.4874,32.3797 L10.5534,32.3797 C9.3004,32.3797 8.2834,31.3617 8.2834,30.1087 L8.2834,28.9687 C8.2834,25.9157 9.4494,23.1407 11.3554,21.0567 C11.4874,20.9117 11.6234,20.7697 11.7654,20.6307 C11.9464,20.7697 12.1734,20.8537 12.4154,20.8537 L27.6004,20.8537 C27.8164,20.8537 28.0204,20.7887 28.1884,20.6767 C28.3374,20.8247 28.4824,20.9767 28.6214,21.1317 C30.5524,23.2737 31.7354,26.1187 31.7354,29.2007" id="Fill-12" fill="#DBAD4A"></path>
                <path d="M31.7354,29.2007 L31.7354,30.1087 C31.7354,31.3617 30.7174,32.3797 29.4644,32.3797 L28.4894,32.3797 L11.4874,32.3797 L10.5534,32.3797 C9.3004,32.3797 8.2834,31.3617 8.2834,30.1087 L8.2834,28.9687 C8.2834,25.9157 9.4494,23.1407 11.3554,21.0567 C11.4874,20.9117 11.6234,20.7697 11.7654,20.6307 C11.9464,20.7697 12.1734,20.8537 12.4154,20.8537 L27.6004,20.8537 C27.8164,20.8537 28.0204,20.7887 28.1884,20.6767 C28.3374,20.8247 28.4824,20.9767 28.6214,21.1317 C30.5524,23.2737 31.7354,26.1187 31.7354,29.2007 Z" id="Stroke-14" stroke="#2F3061" stroke-width="1.5" stroke-linecap="round" stroke-linejoin="round"></path>
                <path d="M11.1982,32.3794 C11.5322,31.8374 12.4742,31.7624 12.9732,31.3054 C13.4402,30.8774 13.5762,29.9454 14.1642,29.6104 C14.7162,29.2954 15.5942,29.6424 16.2322,29.4254 C16.8362,29.2194 17.3102,28.4024 17.9742,28.2964 C18.6062,28.1954 19.3152,28.4954 19.9862,28.4954 C20.6582,28.4954 21.3672,28.1954 21.9982,28.2964 C22.6632,28.4014 23.1372,29.2184 23.7422,29.4244 C24.3812,29.6414 25.2592,29.2944 25.8112,29.6084 C26.3992,29.9434 26.5352,30.8764 27.0032,31.3044 C27.5012,31.7614 28.4442,31.8374 28.7782,32.3794 L11.1982,32.3794 Z" id="Fill-16" fill="#E897A3"></path>
                <path d="M11.1982,32.3794 C11.5322,31.8374 12.4742,31.7624 12.9732,31.3054 C13.4402,30.8774 13.5762,29.9454 14.1642,29.6104 C14.7162,29.2954 15.5942,29.6424 16.2322,29.4254 C16.8362,29.2194 17.3102,28.4024 17.9742,28.2964 C18.6062,28.1954 19.3152,28.4954 19.9862,28.4954 C20.6582,28.4954 21.3672,28.1954 21.9982,28.2964 C22.6632,28.4014 23.1372,29.2184 23.7422,29.4244 C24.3812,29.6414 25.2592,29.2944 25.8112,29.6084 C26.3992,29.9434 26.5352,30.8764 27.0032,31.3044 C27.5012,31.7614 28.4442,31.8374 28.7782,32.3794 L11.1982,32.3794 Z" id="Stroke-18" stroke="#2F3061" stroke-width="1.5" stroke-linecap="round" stroke-linejoin="round"></path>
                <path d="M36.9395,30.6401 C36.2595,31.7201 35.4805,32.7301 34.6105,33.6601 C34.0705,22.1601 28.2595,18.0301 28.2005,17.9901 C27.8495,17.7401 27.6405,17.3501 27.6405,16.9201 L27.6405,12.5301 L30.2305,12.5301 L30.2305,15.7201 C30.2305,16.0801 30.3705,16.4201 30.6295,16.6701 C32.3605,18.3001 35.9005,22.5601 36.9395,30.6401" id="Fill-20" fill="#A5D9E4"></path>
                <path d="M12.3604,12.5303 L12.3604,16.9203 C12.3604,17.3503 12.1504,17.7403 11.7994,17.9903 C11.7404,18.0303 5.9294,22.1603 5.3904,33.6603 C4.5304,32.7403 3.7504,31.7303 3.0704,30.6503 C4.0994,22.5603 7.6304,18.3103 9.3704,16.6703 C9.6304,16.4203 9.7694,16.0803 9.7694,15.7193 L9.7694,12.5303 L12.3604,12.5303 Z" id="Fill-22" fill="#A5D9E4"></path>
                <path d="M8.3125,9.6016 C9.3085,10.1136 10.5095,10.2126 11.6345,9.7756 C12.6785,9.3706 13.4585,8.5806 13.8775,7.6316" id="Stroke-24" stroke="#2F3061" stroke-width="1.5" stroke-linecap="round" stroke-linejoin="round"></path>
                <path d="M31.6943,9.6016 C30.6983,10.1136 29.4973,10.2126 28.3723,9.7756 C27.3283,9.3706 26.5483,8.5806 26.1293,7.6316" id="Stroke-26" stroke="#2F3061" stroke-width="1.5" stroke-linecap="round" stroke-linejoin="round"></path>
                <path d="M31.7354,12.3618 L26.1294,12.3618" id="Stroke-28" stroke="#2F3061" stroke-width="1.5" stroke-linecap="round" stroke-linejoin="round"></path>
                <path d="M13.8984,12.3618 L8.2924,12.3618" id="Stroke-30" stroke="#2F3061" stroke-width="1.5" stroke-linecap="round" stroke-linejoin="round"></path>
            </g>
        </g>
        <circle id="Oval" fill="#FFFFFF" fill-rule="nonzero" style="mix-blend-mode: color;" cx="20" cy="20" r="20"></circle>
    </g>
</svg>