<?xml version="1.0" encoding="UTF-8"?>
<svg width="188px" height="45px" viewBox="0 0 188 45" version="1.1" xmlns="http://www.w3.org/2000/svg" xmlns:xlink="http://www.w3.org/1999/xlink">
    <!-- Generator: Sketch 51.1 (57501) - http://www.bohemiancoding.com/sketch -->
    <title>Artboard</title>
    <desc>Created with Sketch.</desc>
    <defs></defs>
    <g id="Artboard" stroke="none" stroke-width="1" fill="none" fill-rule="evenodd">
        <g id="nano-name" fill="#54301A" fill-rule="nonzero">
            <path d="M14.0784252,12.0444628 L14.0784252,4.6471775 C14.0784252,3.51374553 14.0544943,3.24252125 12.7411086,3.24252125 L11.8176562,3.24252125 L11.8176562,0.9 L18.9913043,0.9 L18.9913043,3.24252125 L18.4071081,3.24252125 C17.1669229,3.24252125 17.0697915,3.46378316 17.0697915,4.6471775 L17.0697915,17.4446809 L11.4769924,17.4446809 L5.13107289,5.583615 L5.13107289,13.6718084 C5.13107289,14.8552028 5.22820431,15.1021596 6.46838955,15.1021596 L7.19757906,15.1021596 L7.19757906,17.4446809 L0,17.4446809 L0,15.1021596 L0.802389999,15.1021596 C2.04257524,15.1021596 2.16363759,14.8552028 2.16363759,13.6718084 L2.16363759,4.6471775 C2.16363759,3.46378316 2.04257524,3.24252125 0.802389999,3.24252125 L0,3.24252125 L0,0.9 L8.07176185,0.9 L14.0784252,12.0444628 Z" id="Shape"></path>
            <path d="M22.6067945,17.4638298 C20.2300446,17.4638298 18.9,16.2434154 18.9,14.0808233 C18.9,11.6915198 20.2066623,10.978998 23.0579368,10.4446066 C25.1485965,10.0633191 26.1457861,9.80863673 26.1457861,8.25846013 C26.1457861,7.06307229 25.3384063,6.2504441 23.9368391,6.2504441 C23.4623144,6.2504441 23.0111721,6.40354797 22.5352719,6.68178479 C23.3674095,6.93646717 23.7704116,7.46938638 23.7704116,8.30851332 C23.7704116,9.35079729 22.9630319,10.0633191 21.7031344,10.0633191 C20.2066623,10.0633191 19.3745247,9.27424536 19.3745247,7.92722582 C19.3745247,5.91920979 21.3702794,4.59574468 25.1004563,4.59574468 C27.2392561,4.59574468 28.782493,5.00205877 29.5197256,5.53645014 C30.6833427,6.37557707 30.8263878,7.36780786 30.8263878,9.01956298 L30.8263878,13.6494826 C30.8263878,14.1824018 30.874528,14.4120576 31.302288,14.4120576 C31.7534303,14.4120576 31.8015705,14.1338208 31.8015705,13.6494826 L31.8015705,12.1994124 L33.3695652,12.1994124 L33.3695652,13.7760877 C33.3695652,16.3700205 32.3723756,17.4638298 29.8058158,17.4638298 C28.4042486,17.4638298 27.4056836,16.9294384 26.6932088,15.7605493 C25.8844536,16.8528865 24.4347462,17.4638298 22.6067945,17.4638298 Z M23.5090792,13.6229839 C23.5090792,14.309007 24.0083617,14.8183717 24.7442189,14.8183717 C25.6231212,14.8183717 26.2173086,14.1824018 26.2173086,13.0885925 C26.2173086,13.0635659 26.2173086,13.0385393 26.2173086,13.0120406 L26.1939263,11.4603918 C24.4828864,12.4540948 23.5090792,12.6572518 23.5090792,13.6229839 Z" id="Shape"></path>
            <path d="M33.3,5.42193182 C33.3244518,5.42193182 33.3706387,5.42193182 33.3937321,5.42193182 C35.3186357,5.42193182 36.2328631,4.00365439 36.7028819,0.919148936 L39.4713743,0.919148936 L39.4713743,5.42193182 L42.7329789,5.42193182 L42.7329789,7.55147325 L39.4713743,7.55147325 L39.4713743,13.4753673 C39.4713743,13.5972173 39.4713743,13.7204842 39.4713743,13.8168307 C39.4713743,14.7462912 39.7294771,15.1883517 40.2918696,15.1883517 C41.0892714,15.1883517 41.2305488,14.4048278 41.2305488,12.59408 L41.2305488,11.517266 L43.2478261,11.517266 L43.2478261,13.0828969 C43.2478261,16.1418989 42.169228,17.4638298 39.118181,17.4638298 C37.4989254,17.4638298 36.3021433,16.973596 35.5522867,16.018632 C34.8486169,15.1373447 34.8486169,14.1597109 34.8486169,12.8618667 L34.8486169,7.55005639 L33.3,7.55005639 L33.3,5.42193182 Z" id="Shape"></path>
            <path d="M52.71824,15.2384205 L53.1391304,15.2384205 L53.1391304,17.4638298 L45,17.4638298 L45,15.2384205 L45.4970242,15.2384205 C46.4637794,15.2384205 46.6634509,15.0116365 46.6634509,14.0503651 L46.6634509,8.94553077 C46.6634509,7.98572243 46.4652159,7.75747533 45.4970242,7.75747533 L45,7.75747533 L45,5.53206605 L51.5503768,5.53206605 L51.5503768,14.0489019 C51.5518133,15.0116365 51.7500483,15.2384205 52.71824,15.2384205 Z M48.7722126,0 C50.0133366,0 51.0059485,1.03589071 51.0059485,2.2985654 C51.0059485,3.56270321 50.0133366,4.57372084 48.7722126,4.57372084 C47.5066683,4.57372084 46.5384766,3.58903942 46.5384766,2.2985654 C46.5384766,1.01101763 47.5325251,0 48.7722126,0 Z" id="Shape"></path>
            <path d="M67.5652174,11.2173102 C67.5652174,15.1755907 64.9845643,17.6381291 60.7702742,17.6381291 C56.5326856,17.6381291 54,15.2255468 54,11.2173102 C54,7.20760425 56.5326856,4.77004395 60.7469757,4.77004395 C64.9859348,4.77004395 67.5652174,7.25756028 67.5652174,11.2173102 Z M60.7483462,7.13120092 C59.3751043,7.13120092 59.0201446,8.39920245 59.0201446,11.2173102 C59.0201446,14.0339486 59.3751043,15.3019501 60.7949432,15.3019501 C62.1914836,15.3019501 62.5231448,14.0339486 62.5231448,11.2173102 C62.5231448,8.39920245 62.1681851,7.13120092 60.7483462,7.13120092 Z" id="Shape"></path>
            <path d="M85.0915869,15.2753884 L85.5782609,15.2753884 L85.5782609,17.4446809 L77.8997829,17.4446809 L77.8997829,15.2753884 C77.9982429,15.2753884 78.0699781,15.2753884 78.1670316,15.2753884 C79.0166012,15.2753884 79.1882031,15.0300773 79.1882031,14.1172915 L79.1882031,9.92846056 C79.1882031,8.59779006 78.6776173,7.93459415 77.6086224,7.93459415 C76.5157157,7.93459415 75.8124296,8.82028159 75.8124296,10.2992798 L75.8124296,14.1172915 C75.8124296,15.0300773 76.0065366,15.2753884 76.8561062,15.2753884 C76.929248,15.2753884 77.0023897,15.2753884 77.0994432,15.2753884 L77.0994432,17.4446809 L69.3,17.4446809 L69.3,15.2753884 L69.8837275,15.2753884 C70.8303506,15.2753884 71.0258642,15.0543231 71.0258642,14.1172915 L71.0258642,9.14118283 C71.0258642,8.20557742 70.8317572,7.98308589 69.8837275,7.98308589 L69.3,7.98308589 L69.3,5.81379347 L75.6900578,5.81379347 L75.6900578,7.6136929 C76.735141,6.21028479 78.1923499,5.49574468 79.9407192,5.49574468 C83.002827,5.49574468 83.9733619,6.77507098 83.9733619,9.80580497 L83.9733619,14.1158653 C83.9733619,15.0543231 84.1449637,15.2753884 85.0915869,15.2753884 Z" id="Shape"></path>
            <path d="M90.1061237,17.4638298 C87.7289218,17.4638298 86.4,16.2434154 86.4,14.0808233 C86.4,11.6915198 87.705535,10.978998 90.5573518,10.4446066 C92.6497846,10.0633191 93.6457882,9.80863673 93.6457882,8.25846013 C93.6457882,7.06307229 92.8382549,6.2504441 91.4364212,6.2504441 C90.9618063,6.2504441 90.5105781,6.40354797 90.0345875,6.68178479 C90.8655076,6.93646717 91.2699621,7.46938638 91.2699621,8.30851332 C91.2699621,9.35079729 90.4610531,10.0633191 89.200916,10.0633191 C87.7041593,10.0633191 86.8732393,9.27424536 86.8732393,7.92722582 C86.8732393,5.91920979 88.8693734,4.59574468 92.6002596,4.59574468 C94.7394661,4.59574468 96.2843721,5.00205877 97.0203692,5.53645014 C98.1842076,6.37557707 98.3259042,7.36780786 98.3259042,9.01956298 L98.3259042,13.6494826 C98.3259042,14.1824018 98.3740536,14.4120576 98.8018949,14.4120576 C99.253123,14.4120576 99.3012724,14.1338208 99.3012724,13.6494826 L99.3012724,12.1994124 L100.869565,12.1994124 L100.869565,13.7760877 C100.869565,16.3700205 99.8708103,17.4638298 97.3051382,17.4638298 C95.9019288,17.4638298 94.9059252,16.9294384 94.1919393,15.7605493 C93.3857817,16.8528865 91.9357987,17.4638298 90.1061237,17.4638298 Z M91.0099556,13.6229839 C91.0099556,14.309007 91.5079574,14.8183717 92.2439545,14.8183717 C93.1243996,14.8183717 93.7173243,14.1824018 93.7173243,13.0885925 C93.7173243,13.0635659 93.7173243,13.0385393 93.7173243,13.0120406 L93.6939375,11.4603918 C91.983948,12.4540948 91.0099556,12.6572518 91.0099556,13.6229839 Z" id="Shape"></path>
            <path d="M102.245961,3.06960701 L101.7,3.06960701 L101.7,0.9 L108.300382,0.9 L108.300382,14.1146196 C108.300382,15.0509763 108.474228,15.2736465 109.44259,15.2736465 L109.83913,15.2736465 L109.83913,17.4446809 L101.7,17.4446809 L101.7,15.2736465 L102.245961,15.2736465 C103.212887,15.2736465 103.412594,15.0524036 103.412594,14.1146196 L103.412594,4.22720655 C103.412594,3.29084983 103.212887,3.06960701 102.245961,3.06960701 Z" id="Shape"></path>
            <path d="M131.644686,12.0444628 L131.644686,4.6471775 C131.644686,3.51374553 131.619346,3.24252125 130.30727,3.24252125 L129.382342,3.24252125 L129.382342,0.9 L136.556522,0.9 L136.556522,3.24252125 L135.97369,3.24252125 C134.733413,3.24252125 134.636274,3.46378316 134.636274,4.6471775 L134.636274,17.4446809 L129.043061,17.4446809 L122.695263,5.583615 L122.695263,13.6718084 C122.695263,14.8552028 122.793809,15.1021596 124.034086,15.1021596 L124.76333,15.1021596 L124.76333,17.4446809 L117.565217,17.4446809 L117.565217,15.1021596 L118.367667,15.1021596 C119.607944,15.1021596 119.729015,14.8552028 119.729015,13.6718084 L119.729015,4.6471775 C119.729015,3.46378316 119.607944,3.24252125 118.367667,3.24252125 L117.565217,3.24252125 L117.565217,0.9 L125.638985,0.9 L131.644686,12.0444628 Z" id="Shape"></path>
            <path d="M150.121739,11.0430109 C150.121739,15.0012915 147.540825,17.4638298 143.32748,17.4638298 C139.088093,17.4638298 136.556522,15.0512475 136.556522,11.0430109 C136.556522,7.03330499 139.089463,4.59574468 143.304179,4.59574468 C147.540825,4.59574468 150.121739,7.08326102 150.121739,11.0430109 Z M143.302808,6.95690165 C141.929428,6.95690165 141.574432,8.22490319 141.574432,11.0430109 C141.574432,13.8596493 141.929428,15.1276508 143.34941,15.1276508 C144.747462,15.1276508 145.079157,13.8596493 145.079157,11.0430109 C145.079157,8.22490319 144.724161,6.95690165 143.302808,6.95690165 Z" id="Shape"></path>
            <path d="M160.118209,8.5277723 C160.118209,7.99729463 159.718929,7.79360293 158.819102,7.74377906 L158.819102,5.51489362 L164.591304,5.51489362 L164.591304,7.74377906 C164.565264,7.74377906 164.516078,7.74377906 164.491484,7.74377906 C163.493284,7.74377906 162.992737,8.12331971 162.667237,9.08462731 L159.844789,17.4638298 L154.396641,17.4638298 L151.721753,8.93369029 C151.446886,8.02367197 151.270393,7.74377906 150.573099,7.74377906 L150.121739,7.74377906 L150.121739,5.51489362 L157.816562,5.51489362 L157.816562,7.74377906 C157.692149,7.74377906 157.593775,7.74377906 157.467915,7.74377906 C156.769175,7.74377906 156.469715,7.89618149 156.469715,8.42812456 C156.469715,8.5277723 156.494308,8.70508666 156.568088,8.93369029 L158.292515,14.3000141 L160.041536,8.93369029 C160.093616,8.78128787 160.118209,8.65526279 160.118209,8.5277723 Z" id="Shape"></path>
            <path d="M171.153375,17.4638298 C167.078564,17.4638298 164.591304,14.982599 164.591304,11.0305205 C164.591304,7.10337152 167.127998,4.59574468 171.105353,4.59574468 C175.033273,4.59574468 177.204152,6.97725696 177.204152,11.3076792 C177.204152,11.4601899 177.204152,11.5863044 177.204152,11.7388151 L169.543224,11.7388151 C169.543224,11.8150704 169.543224,11.9162553 169.543224,11.9925106 C169.543224,14.0191424 170.396322,15.1072471 171.885005,15.1072471 C173.129341,15.1072471 173.982438,14.3226972 174.252209,12.8533159 L177.252174,12.8533159 C176.691446,15.9709853 174.691469,17.4638298 171.153375,17.4638298 Z M173.079906,9.51274632 C173.079906,9.46142062 173.079906,9.3851653 173.079906,9.33530606 C173.079906,7.71488052 172.421722,6.85260884 171.298853,6.85260884 C170.22542,6.85260884 169.543224,7.76473977 169.543224,9.51274632 L173.079906,9.51274632 Z" id="Shape"></path>
            <path d="M178.703823,3.06960701 L178.156522,3.06960701 L178.156522,0.9 L184.757176,0.9 L184.757176,14.1146196 C184.757176,15.0509763 184.93099,15.2736465 185.899182,15.2736465 L186.295652,15.2736465 L186.295652,17.4446809 L178.156522,17.4446809 L178.156522,15.2736465 L178.703823,15.2736465 C179.670578,15.2736465 179.868813,15.0524036 179.868813,14.1146196 L179.868813,4.22720655 C179.868813,3.29084983 179.670578,3.06960701 178.703823,3.06960701 Z" id="Shape"></path>
            <path d="M7.60186764,24.3855994 C6.89290716,24.3855994 6.57451174,24.5340462 6.57451174,25.0022246 C6.57451174,25.2734255 6.62403991,25.4960957 6.672153,25.6431151 L8.99431696,34.0260769 L10.9004442,26.2097822 C10.6570486,24.8052471 10.2410119,24.4098648 8.87120406,24.3855994 L8.87120406,22.0432803 L16.9626931,22.0432803 L16.9626931,24.3855994 L16.4249586,24.3855994 C15.5702438,24.3855994 15.2023202,24.4840882 15.2023202,25.0022246 C15.2023202,25.2234674 15.2518484,25.447565 15.2999614,25.6431151 L17.3292016,34.0260769 L19.4306114,25.6174224 C19.5041961,25.3476489 19.5282527,25.149244 19.5282527,25.0007972 C19.5282527,24.4583955 19.1617442,24.3841721 18.1598599,24.3841721 L18.1598599,22.0418529 L24.4173913,22.0418529 L24.4173913,24.3841721 C23.3659789,24.3841721 22.9018291,24.8280851 22.5848488,25.987112 L19.1631593,38.5851064 L13.9570403,38.5851064 L12.3438368,31.8536151 L10.6811052,38.5851064 L5.42545803,38.5851064 L2.05329671,26.4295976 C1.66273166,25.0493279 1.09952553,24.4084374 0,24.3827447 L0,22.0404255 L7.60186764,22.0404255 L7.60186764,24.3855994 Z" id="Shape"></path>
            <path d="M31.5681369,26.6361702 C33.2988133,26.6361702 34.3652174,27.7849431 34.3652174,29.4713192 C34.3652174,30.9624604 33.4648814,31.9145838 32.1610411,31.9145838 C31.094637,31.9145838 30.3123329,31.1322298 30.3123329,30.1305903 C30.3123329,29.4218031 30.644469,28.9096654 31.3554051,28.5418317 C31.1660051,28.4937304 30.9999371,28.468265 30.833869,28.468265 C29.6247287,28.468265 28.7957608,29.6906046 28.7957608,31.8905331 L28.7957608,35.2859211 C28.7957608,36.2139938 28.9851607,36.434694 29.9102011,36.434694 L30.6691734,36.434694 L30.6691734,38.5851064 L22.6086957,38.5851064 L22.6086957,36.434694 L23.0108274,36.434694 C23.9358678,36.434694 24.1252677,36.2139938 24.1252677,35.2859211 L24.1252677,30.3498758 C24.1252677,29.4218031 23.9358678,29.2011029 23.0108274,29.2011029 L22.6086957,29.2011029 L22.6086957,27.0506905 L28.6777289,27.0506905 L28.6777289,28.173998 C29.4819925,27.1483079 30.4536966,26.6361702 31.5681369,26.6361702 Z" id="Shape"></path>
            <path d="M42.9878052,36.3803092 L43.4086957,36.3803092 L43.4086957,38.6042553 L35.2695652,38.6042553 L35.2695652,36.3803092 L35.7665894,36.3803092 C36.7333446,36.3803092 36.9330162,36.1520621 36.9330162,35.1922537 L36.9330162,30.0874194 C36.9330162,29.1276111 36.7347811,28.899364 35.7665894,28.899364 L35.2695652,28.899364 L35.2695652,26.6754178 L41.819942,26.6754178 L41.819942,35.1907906 C41.8213785,36.1505989 42.0196136,36.3803092 42.9878052,36.3803092 Z M39.0417778,21.1404255 C40.2829018,21.1404255 41.2755137,22.1763162 41.2755137,23.4404541 C41.2755137,24.7031287 40.2829018,25.7141464 39.0417778,25.7141464 C37.7762335,25.7141464 36.8080419,24.7294649 36.8080419,23.4404541 C36.8080419,22.14998 37.8020903,21.1404255 39.0417778,21.1404255 Z" id="Shape"></path>
            <path d="M44.3130435,28.6727499 L44.3130435,26.5446253 C44.3374953,26.5446253 44.3836821,26.5446253 44.4067756,26.5446253 C46.3316792,26.5446253 47.2459066,25.124931 47.7159254,22.0404255 L50.4844178,22.0404255 L50.4844178,26.5446253 L53.7460224,26.5446253 L53.7460224,28.6727499 L50.4844178,28.6727499 L50.4844178,34.5966439 C50.4844178,34.7184939 50.4844178,34.8417608 50.4844178,34.9381073 C50.4844178,35.8675678 50.7425206,36.3096283 51.304913,36.3096283 C52.1023149,36.3096283 52.2435923,35.5261044 52.2435923,33.7153566 L52.2435923,32.6385426 L54.2608696,32.6385426 L54.2608696,34.2041735 C54.2608696,37.2631755 53.1822715,38.5851064 50.1312244,38.5851064 C48.5119688,38.5851064 47.3151868,38.0948726 46.5653302,37.1399086 C45.8616604,36.2586213 45.8616604,35.2809875 45.8616604,33.9817264 L45.8616604,28.671333 L44.3130435,28.671333 L44.3130435,28.6727499 Z" id="Shape"></path>
            <path d="M62.8834574,36.3803092 L63.3043478,36.3803092 L63.3043478,38.6042553 L55.1652174,38.6042553 L55.1652174,36.3803092 L55.6622416,36.3803092 C56.6289968,36.3803092 56.8286683,36.1520621 56.8286683,35.1922537 L56.8286683,30.0874194 C56.8286683,29.1276111 56.6304332,28.899364 55.6622416,28.899364 L55.1652174,28.899364 L55.1652174,26.6754178 L61.7155942,26.6754178 L61.7155942,35.1907906 C61.7170306,36.1505989 61.9152657,36.3803092 62.8834574,36.3803092 Z M58.93743,21.1404255 C60.178554,21.1404255 61.1711659,22.1763162 61.1711659,23.4404541 C61.1711659,24.7031287 60.178554,25.7141464 58.93743,25.7141464 C57.6718857,25.7141464 56.7051305,24.7294649 56.7051305,23.4404541 C56.7051305,22.14998 57.6977424,21.1404255 58.93743,21.1404255 Z" id="Shape"></path>
            <path d="M80.0001984,36.4169814 L80.4869565,36.4169814 L80.4869565,38.5851064 L72.8085581,38.5851064 L72.8085581,36.4169814 C72.9056284,36.4169814 72.9787828,36.4169814 73.0758531,36.4169814 C73.9269764,36.4169814 74.097201,36.1702145 74.097201,35.2587462 L74.097201,31.0694152 C74.097201,29.7385859 73.586527,29.0753108 72.5173473,29.0753108 C71.4242518,29.0753108 70.7194373,29.961104 70.7194373,31.4402787 L70.7194373,35.2587462 C70.7194373,36.1716409 70.9135778,36.4169814 71.7647011,36.4169814 C71.8378555,36.4169814 71.9110099,36.4169814 72.0080802,36.4169814 L72.0080802,38.5851064 L64.2086957,38.5851064 L64.2086957,36.4169814 L64.7911172,36.4169814 C65.7393108,36.4169814 65.9334513,36.1944633 65.9334513,35.2587462 L65.9334513,30.2820435 C65.9334513,29.3463264 65.7393108,29.1238084 64.7911172,29.1238084 L64.2086957,29.1238084 L64.2086957,26.9556834 L70.5984512,26.9556834 L70.5984512,28.7543713 C71.643715,27.3493692 73.1011757,26.6361702 74.8512541,26.6361702 C77.9138912,26.6361702 78.8845938,27.9156492 78.8845938,30.946745 L78.8845938,35.2573198 C78.883187,36.1930369 79.0534116,36.4169814 80.0001984,36.4169814 Z" id="Shape"></path>
            <path d="M81.2405663,31.4272463 C81.2405663,28.4868127 83.2679405,26.7334219 86.9240403,26.7334219 C88.1978047,26.7334219 89.2572271,27.0552106 90.4367903,27.6229889 C91.2859666,26.9565287 92.0873596,26.6361702 92.9365359,26.6361702 C94.6580974,26.6361702 95.8608696,27.6973578 95.8608696,29.1561332 C95.8608696,30.2173208 95.201461,30.9338369 94.2348745,30.9338369 C93.1495126,30.9338369 92.4423207,30.3160027 92.4423207,29.5508607 C92.4423207,29.0560212 92.6798717,28.6355506 93.1508778,28.2408232 C92.9146921,28.0434594 92.7262897,27.9447776 92.5146782,27.9447776 C92.1365081,27.9447776 91.6887109,28.1664542 91.1712868,28.5869248 C91.8293302,29.3520668 92.1132991,30.3160027 92.1132991,31.5516712 C92.1132991,34.2933109 89.8961572,36.2197525 86.4530341,36.2197525 C85.7444771,36.2197525 85.0140763,36.0967577 84.2604665,35.849338 C83.9764976,35.9980759 83.8126694,36.2440654 83.8126694,36.4428593 C83.8126694,37.0606936 84.3068845,37.0850065 85.3690374,37.0850065 C87.0196067,37.0850065 88.4353556,37.0092074 89.6381277,37.0092074 C92.5843052,37.0092074 93.9522708,37.9245175 93.9522708,40.1970607 C93.9522708,42.8157056 91.6887109,44.1 87.1138079,44.1 C82.6808894,44.1 80.4869565,43.284802 80.4869565,41.3583604 C80.4869565,40.5431623 81.0057459,39.8266462 81.9723324,39.4562317 C81.1231561,38.8140844 80.698568,38.0475123 80.698568,37.1593755 C80.698568,36.0481319 81.3593418,35.1328218 82.5853229,34.6379823 C81.6883635,33.8470972 81.2405663,32.7601665 81.2405663,31.4272463 Z M87.4182554,42.2965532 C89.610823,42.2965532 90.6251928,42.0491334 90.6251928,41.3583604 C90.6251928,40.6904701 89.6599715,40.5174192 87.4428296,40.5174192 C85.1546955,40.5174192 84.0706988,40.6661571 84.0706988,41.3812431 C84.0706988,42.0505636 85.1792697,42.2965532 87.4182554,42.2965532 Z M87.7254333,31.3786204 C87.7254333,29.3778099 87.4660386,28.4381869 86.7342726,28.4381869 C85.8618873,28.4381869 85.6024926,29.4021228 85.6024926,31.574554 C85.6024926,33.5753646 85.9096705,34.4892444 86.7110636,34.4892444 C87.4646734,34.4892444 87.7254333,33.4766827 87.7254333,31.3786204 Z" id="Shape"></path>
            <path d="M128.415979,24.3841721 L127.612376,24.3841721 C126.320114,24.3841721 126.270683,24.6311076 126.270683,25.7887071 L126.270683,34.8125595 C126.270683,35.9715864 126.320114,36.2427872 127.612376,36.2427872 L128.415979,36.2427872 L128.415979,38.5851064 L119.440762,38.5851064 L119.440762,36.2427872 L120.050879,36.2427872 C121.391159,36.2427872 121.391159,35.9216283 121.391159,34.8125595 L121.391159,24.7524343 L117.195193,38.583679 L113.366426,38.583679 L109.389367,24.7766996 L109.389367,34.8111321 C109.389367,35.9944243 109.486816,36.2413599 110.731059,36.2413599 L111.342589,36.2413599 L111.342589,38.583679 L104,38.583679 L104,36.2413599 L104.755585,36.2413599 C105.999828,36.2413599 106.095865,35.9944243 106.095865,34.8111321 L106.095865,25.7872797 C106.095865,24.6039875 105.999828,24.3827447 104.755585,24.3827447 L104,24.3827447 L104,22.0404255 L113.171528,22.0404255 L115.952362,31.9021458 L118.953516,22.0404255 L128.417391,22.0404255 L128.417391,24.3841721 L128.415979,24.3841721 Z" id="Shape"></path>
            <path d="M141.982609,33.0834364 C141.982609,37.041717 139.401695,39.5042553 135.18835,39.5042553 C130.948962,39.5042553 128.417391,37.091673 128.417391,33.0834364 C128.417391,29.0737305 130.950333,26.6361702 135.165049,26.6361702 C139.401695,26.6361702 141.982609,29.1236866 141.982609,33.0834364 Z M135.163678,28.9973272 C133.790297,28.9973272 133.435302,30.2653287 133.435302,33.0834364 C133.435302,35.9000748 133.790297,37.1680764 135.21028,37.1680764 C136.608332,37.1680764 136.940027,35.9000748 136.940027,33.0834364 C136.940027,30.2653287 136.58366,28.9973272 135.163678,28.9973272 Z" id="Shape"></path>
            <path d="M159.582849,36.4169814 L160.069565,36.4169814 L160.069565,38.5851064 L152.39183,38.5851064 L152.39183,36.4169814 C152.488892,36.4169814 152.56204,36.4169814 152.659102,36.4169814 C153.508745,36.4169814 153.678955,36.1702145 153.678955,35.2587462 L153.678955,31.0694152 C153.678955,29.7385859 153.169732,29.0753108 152.100645,29.0753108 C151.007644,29.0753108 150.30289,29.961104 150.30289,31.4402787 L150.30289,35.2587462 C150.30289,36.1716409 150.49842,36.4169814 151.346657,36.4169814 C151.421212,36.4169814 151.492953,36.4169814 151.591422,36.4169814 L151.591422,38.5851064 L143.791304,38.5851064 L143.791304,36.4169814 L144.373676,36.4169814 C145.321787,36.4169814 145.515911,36.1944633 145.515911,35.2587462 L145.515911,30.2820435 C145.515911,29.3463264 145.320381,29.1238084 144.373676,29.1238084 L143.791304,29.1238084 L143.791304,26.9556834 L150.181914,26.9556834 L150.181914,28.7543713 C151.225681,27.3493692 152.684423,26.6361702 154.432943,26.6361702 C157.495316,26.6361702 158.465934,27.9156492 158.465934,30.946745 L158.465934,35.2573198 C158.465934,36.1930369 158.636144,36.4169814 159.582849,36.4169814 Z" id="Shape"></path>
            <path d="M160.069565,28.6727499 L160.069565,26.5446253 C160.094017,26.5446253 160.141562,26.5446253 160.164656,26.5446253 C162.088201,26.5446253 163.003787,25.124931 163.473806,22.0404255 L166.24094,22.0404255 L166.24094,26.5446253 L169.502544,26.5446253 L169.502544,28.6727499 L166.24094,28.6727499 L166.24094,34.5966439 C166.24094,34.7184939 166.24094,34.8417608 166.24094,34.9381073 C166.24094,35.8675678 166.499042,36.3096283 167.062793,36.3096283 C167.860195,36.3096283 168.000114,35.5261044 168.000114,33.7153566 L168.000114,32.6385426 L170.017391,32.6385426 L170.017391,34.2041735 C170.017391,37.2631755 168.937435,38.5851064 165.887746,38.5851064 C164.268491,38.5851064 163.071709,38.0948726 162.320494,37.1399086 C161.616824,36.2586213 161.616824,35.2809875 161.616824,33.9817264 L161.616824,28.671333 L160.069565,28.671333 L160.069565,28.6727499 Z" id="Shape"></path>
            <path d="M186.900736,36.4153122 L187.2,36.4153122 L187.2,38.5851064 L179.545736,38.5851064 L179.545736,36.4153122 C179.643572,36.4153122 179.719827,36.4153122 179.817663,36.4153122 C180.686681,36.4153122 180.837752,36.1683553 180.837752,35.2561853 L180.837752,31.063629 C180.837752,29.731775 180.339937,29.0679893 179.24791,29.0679893 C178.129984,29.0679893 177.383262,29.9544644 177.383262,31.434778 L177.383262,35.2561853 C177.383262,36.1697828 177.581812,36.4153122 178.452269,36.4153122 C178.525647,36.4153122 178.601901,36.4153122 178.699738,36.4153122 L178.699738,38.5851064 L170.921739,38.5851064 L170.921739,36.4153122 L171.343299,36.4153122 C172.313031,36.4153122 172.511582,36.1926228 172.511582,35.2561853 L172.511582,25.3693466 C172.511582,24.4314817 172.311592,24.2102197 171.343299,24.2102197 L170.921739,24.2102197 L170.921739,22.0404255 L177.383262,22.0404255 L177.383262,28.6968403 C178.499749,27.2422217 179.817663,26.6269708 181.633393,26.6269708 C184.76416,26.6269708 185.733892,27.9074349 185.733892,30.9408643 L185.733892,35.2547578 C185.733892,36.1911953 185.931004,36.4153122 186.900736,36.4153122 Z" id="Shape"></path>
        </g>
    </g>
</svg>