
<svg width="191px" height="47px" viewBox="0 0 191 47" version="1.1" xmlns="http://www.w3.org/2000/svg" xmlns:xlink="http://www.w3.org/1999/xlink">
    <!-- Generator: Sketch 49.1 (51147) - http://www.bohemiancoding.com/sketch -->
    <desc>Created with Sketch.</desc>
    <defs>
        <filter x="-14.0%" y="-35.0%" width="122.4%" height="170.0%" filterUnits="objectBoundingBox" id="filter-1">
            <feOffset dx="0" dy="0" in="SourceAlpha" result="shadowOffsetOuter1"></feOffset>
            <feGaussianBlur stdDeviation="7" in="shadowOffsetOuter1" result="shadowBlurOuter1"></feGaussianBlur>
            <feComposite in="shadowBlurOuter1" in2="SourceAlpha" operator="out" result="shadowBlurOuter1"></feComposite>
            <feColorMatrix values="0 0 0 0 0.184313725   0 0 0 0 0.188235294   0 0 0 0 0.380392157  0 0 0 0.1 0" type="matrix" in="shadowBlurOuter1" result="shadowMatrixOuter1"></feColorMatrix>
            <feMerge>
                <feMergeNode in="shadowMatrixOuter1"></feMergeNode>
                <feMergeNode in="SourceGraphic"></feMergeNode>
            </feMerge>
        </filter>
    </defs>
    <g id="Symbols" stroke="none" stroke-width="1" fill="none" fill-rule="evenodd">
        <g id="Nav/Option-3/Hover" transform="translate(-153.000000, -42.000000)" fill="#54301A" fill-rule="nonzero">
            <g id="Logo-Lockup" filter="url(#filter-1)" transform="translate(80.000000, 6.000000)">
                <g id="NaNo-Name" transform="translate(86.000000, 50.000000)">
                    <path d="M15.4205607,13 L15.4205607,5.07692308 C15.4205607,3.86153846 15.4205607,3.53846154 13.9556075,3.53846154 L12.9378505,3.53846154 L12.9378505,1 L20.8023364,1 L20.8023364,3.53846154 L20.1700935,3.53846154 C18.7976636,3.53846154 18.7051402,3.76923077 18.7051402,5.07692308 L18.7051402,18.9230769 L12.5369159,18.9230769 L5.61308411,6.04615385 L5.61308411,14.7538462 C5.61308411,16.0307692 5.72102804,16.2923077 7.07803738,16.2923077 L7.87990654,16.2923077 L7.87990654,18.8307692 L0,18.8307692 L0,16.2923077 L0.878971963,16.2923077 C2.23598131,16.2923077 2.42102804,16.0307692 2.42102804,14.7538462 L2.42102804,5.07692308 C2.42102804,3.8 2.28224299,3.53846154 0.878971963,3.53846154 L0,3.53846154 L0,1 L8.83598131,1 L15.4205607,13 Z" id="Shape"></path>
                    <path d="M25.0429907,18.8153846 C22.3752336,18.8153846 20.8794393,17.5384615 20.8794393,15.2769231 C20.8794393,13.0153846 22.4214953,12.0307692 25.5056075,11.4769231 C27.8803738,11.0769231 29.0060748,10.7692308 29.0060748,9.23076923 C29.0060748,7.98461538 28.0962617,7.12307692 26.5233645,7.12307692 C25.9789275,7.14691395 25.4489903,7.30552452 24.9813084,7.58461538 C25.810613,7.70992015 26.4102672,8.44112235 26.3691589,9.27692308 C26.3691589,10.3692308 25.4747664,11.1076923 24.0560748,11.1076923 C22.3752336,11.1076923 21.45,10.2923077 21.45,8.87692308 C21.45,6.78461538 23.6859813,5.4 27.8649533,5.4 C29.5731834,5.28589968 31.2812,5.62564501 32.8149533,6.38461538 C34.1257009,7.26153846 34.2799065,8.29230769 34.2799065,10.0153846 L34.2799065,14.8307692 C34.2799065,15.3846154 34.2799065,15.6307692 34.8196262,15.6307692 C35.3593458,15.6307692 35.3747664,15.3384615 35.3747664,14.8307692 L35.3747664,13.2923077 L37.1327103,13.2923077 L37.1327103,14.9538462 C37.1327103,17.6769231 36.0224299,18.8153846 33.138785,18.8153846 C31.7352881,18.9112289 30.3938751,18.2243209 29.6537383,17.0307692 C28.471143,18.2976478 26.7725605,18.9550936 25.0429907,18.8153846 Z M26.0453271,14.8 C26.0525835,15.1527983 26.205851,15.486873 26.4687519,15.7229323 C26.7316529,15.9589916 27.080747,16.0759885 27.4331776,16.0461538 C27.9103079,16.0868538 28.3793142,15.9040965 28.7024887,15.5515425 C29.0256632,15.1989885 29.1663265,14.7166517 29.0831776,14.2461538 L29.0831776,12.6153846 C27.1401869,13.5846154 26.0453271,13.8461538 26.0453271,14.8 Z" id="Shape"></path>
                    <path d="M53.571028,12.5384615 L53.571028,4.61538462 C53.571028,3.4 53.571028,3.07692308 52.028972,3.07692308 L51.011215,3.07692308 L51.011215,0.538461538 L58.8602804,0.538461538 L58.8602804,3.07692308 L58.2280374,3.07692308 C56.871028,3.07692308 56.6859813,3.30769231 56.6859813,4.61538462 L56.6859813,18.4615385 L50.517757,18.4615385 L43.7635514,5.58461538 L43.7635514,14.2923077 C43.7635514,15.5692308 43.8714953,15.8307692 45.2285047,15.8307692 L46.0303738,15.8307692 L46.0303738,18.3692308 L38.1350467,18.3692308 L38.1350467,15.8307692 L39.0140187,15.8307692 C40.3864486,15.8307692 40.5560748,15.5692308 40.5560748,14.2923077 L40.5560748,4.61538462 C40.5560748,3.33846154 40.4327103,3.07692308 39.0140187,3.07692308 L38.1350467,3.07692308 L38.1350467,0.538461538 L46.9864486,0.538461538 L53.571028,12.5384615 Z" id="Shape"></path>
                    <path d="M74.1728972,12.0923077 C74.1728972,16.2307692 71.2738318,18.8153846 66.4626168,18.8153846 C61.6514019,18.8153846 58.8448598,16.2923077 58.8448598,12.0923077 C58.8448598,7.89230769 61.682243,5.33846154 66.4317757,5.33846154 C71.1813084,5.33846154 74.1728972,7.95384615 74.1728972,12.0923077 Z M66.4626168,7.81538462 C64.9205607,7.81538462 64.5196262,9.13846154 64.5196262,12.0923077 C64.5196262,15.0461538 64.9205607,16.3692308 66.5088785,16.3692308 C68.0971963,16.3692308 68.4672897,15.0461538 68.4672897,12.0923077 C68.4672897,9.13846154 68.1126168,7.81538462 66.5088785,7.81538462 L66.4626168,7.81538462 Z" id="Shape"></path>
                    <path d="M148.037383,3.07692308 L147.158411,3.07692308 C145.75514,3.07692308 145.616355,3.35384615 145.616355,4.61538462 L145.616355,14.2923077 C145.616355,15.5384615 145.616355,15.8307692 147.158411,15.8307692 L148.037383,15.8307692 L148.037383,18.3538462 L138.245327,18.3538462 L138.245327,15.8307692 L138.908411,15.8307692 C140.450467,15.8307692 140.450467,15.4923077 140.450467,14.2923077 L140.450467,3.52307692 L135.824299,18.4307692 L131.614486,18.4307692 L127.265888,3.47692308 L127.265888,14.2461538 C127.265888,15.5230769 127.373832,15.7846154 128.807944,15.7846154 L129.471028,15.7846154 L129.471028,18.3076923 L121.452336,18.3076923 L121.452336,15.8307692 L122.285047,15.8307692 C123.642056,15.8307692 123.827103,15.5692308 123.827103,14.2923077 L123.827103,4.61538462 C123.827103,3.33846154 123.719159,3.07692308 122.285047,3.07692308 L121.452336,3.07692308 L121.452336,0.523076923 L131.475701,0.523076923 L134.559813,11.1538462 L137.705607,0.523076923 L148.037383,0.523076923 L148.037383,3.07692308 Z" id="Shape"></path>
                    <path d="M163.935981,12.0923077 C163.935981,16.2307692 161.036916,18.8153846 156.225701,18.8153846 C151.414486,18.8153846 148.607944,16.2923077 148.607944,12.0923077 C148.607944,7.89230769 151.445327,5.33846154 156.19486,5.33846154 C160.944393,5.33846154 163.935981,7.93846154 163.935981,12.0923077 Z M156.225701,7.81538462 C154.683645,7.81538462 154.28271,9.13846154 154.28271,12.0923077 C154.28271,15.0461538 154.683645,16.3692308 156.271963,16.3692308 C157.86028,16.3692308 158.214953,15.0307692 158.214953,12.0923077 C158.214953,9.15384615 157.86028,7.81538462 156.271963,7.81538462 L156.225701,7.81538462 Z" id="Shape"></path>
                    <path d="M80.7266355,3.07692308 C79.9556075,3.07692308 79.6163551,3.23076923 79.6163551,3.73846154 C79.6158465,3.97233204 79.6469683,4.20520184 79.7088785,4.43076923 L82.253271,13.4615385 L84.3196262,5.03076923 C84.0574766,3.49230769 83.6102804,3.09230769 82.114486,3.07692308 L82.114486,0.538461538 L90.9813084,0.538461538 L90.9813084,3.07692308 L90.3953271,3.07692308 C89.4546729,3.07692308 89.0537383,3.18461538 89.0537383,3.73846154 C89.0658364,3.97231234 89.102008,4.20430192 89.1616822,4.43076923 L91.382243,13.4615385 L93.664486,4.4 C93.7276353,4.1847632 93.7638911,3.9625677 93.7724299,3.73846154 C93.7724299,3.15384615 93.3714953,3.07692308 92.2303738,3.07692308 L92.2303738,0.538461538 L99.0462617,0.538461538 L99.0462617,3.07692308 C97.9051402,3.07692308 97.3962617,3.55384615 97.0570093,4.8 L93.3252336,18.3846154 L87.6504673,18.3846154 L85.8925234,11.1076923 L84.0883178,18.3692308 L78.3518692,18.3692308 L74.6817757,5.26153846 C74.25,3.76923077 73.6485981,3.07692308 72.4766355,3.07692308 L72.4766355,0.538461538 L80.7574766,0.538461538 L80.7266355,3.07692308 Z" id="Shape"></path>
                    <path d="M107.943925,5.36923077 C108.776214,5.31931754 109.590076,5.62742995 110.179656,6.21563506 C110.769235,6.80384018 111.078067,7.61580501 111.028037,8.44615385 C111.099115,9.13632939 110.869278,9.8236716 110.397091,10.333033 C109.924905,10.8423945 109.255972,11.1245832 108.560748,11.1076923 C107.476089,11.151147 106.559823,10.3126218 106.509813,9.23076923 C106.498646,8.46775283 106.966955,7.77922203 107.681776,7.50769231 C107.491819,7.44937727 107.294519,7.41829716 107.095794,7.41538462 C105.738785,7.41538462 104.798131,8.75384615 104.798131,11.1384615 L104.798131,14.7692308 C104.798131,15.7846154 105.014019,16.0307692 106.062617,16.0307692 L106.910748,16.0307692 L106.910748,18.3692308 L97.8588785,18.3692308 L97.8588785,16.0307692 L98.3060748,16.0307692 C99.3392523,16.0307692 99.5551402,15.7846154 99.5551402,14.7692308 L99.5551402,9.4 C99.5551402,8.4 99.3392523,8.15384615 98.3060748,8.15384615 L97.8588785,8.15384615 L97.8588785,5.81538462 L104.674766,5.81538462 L104.674766,7.04615385 C105.433431,5.99828117 106.648274,5.37512418 107.943925,5.36923077 Z" id="Shape"></path>
                    <path d="M119.91028,16.0307692 L120.357477,16.0307692 L120.357477,18.3692308 L111.629439,18.3692308 L111.629439,16.0307692 L112.153738,16.0307692 C113.202336,16.0307692 113.402804,15.7846154 113.402804,14.7692308 L113.402804,9.4 C113.402804,8.4 113.202336,8.15384615 112.153738,8.15384615 L111.629439,8.15384615 L111.629439,5.81538461 L118.738318,5.81538461 L118.738318,14.7692308 C118.738318,15.7846154 118.861682,16.0307692 119.91028,16.0307692 Z M115.654206,-2.48272977e-09 C116.294893,-1.31353051e-05 116.909117,0.254954057 117.360702,0.708374261 C117.812287,1.16179446 118.06392,1.77620363 118.059813,2.41538461 C118.063951,3.05316076 117.811833,3.66601161 117.359794,4.11699689 C116.907755,4.56798217 116.293472,4.81951274 115.654206,4.81538461 C115.015038,4.82384471 114.399785,4.57319899 113.949242,4.12080575 C113.498698,3.66841252 113.251429,3.05299427 113.264019,2.41538461 C113.25577,1.777631 113.503946,1.16316005 113.95309,0.709280917 C114.402234,0.255401781 115.014909,-5.30999733e-05 115.654206,-2.48272977e-09 Z" id="Shape"></path>
                </g>
            </g>
        </g>
    </g>
</svg>