<?xml version="1.0" encoding="UTF-8"?>
<svg width="461px" height="629px" viewBox="0 0 461 629" version="1.1" xmlns="http://www.w3.org/2000/svg" xmlns:xlink="http://www.w3.org/1999/xlink">
    <!-- Generator: Sketch 52.4 (67378) - http://www.bohemiancoding.com/sketch -->
    <title>scifi</title>
    <desc>Created with Sketch.</desc>
    <defs>
        <path d="M6,0 L455,0 C458.313708,-6.08718376e-16 461,2.6862915 461,6 L461,623 C461,626.313708 458.313708,629 455,629 L6,629 C2.6862915,629 4.05812251e-16,626.313708 0,623 L0,6 C-4.05812251e-16,2.6862915 2.6862915,6.08718376e-16 6,0 Z" id="path-1"></path>
    </defs>
    <g id="Page-1" stroke="none" stroke-width="1" fill="none" fill-rule="evenodd">
        <g id="Cover" transform="translate(-967.000000, -15.000000)">
            <g id="scifi" transform="translate(967.000000, 15.000000)">
                <mask id="mask-2" fill="white">
                    <use xlink:href="#path-1"></use>
                </mask>
                <use id="bg" fill="#2F3061" xlink:href="#path-1"></use>
                <g id="img" mask="url(#mask-2)">
                    <g transform="translate(-437.000000, 0.000000)">
                        <g id="Group-4" stroke="none" stroke-width="1" fill="none" fill-rule="evenodd" transform="translate(333.500000, 570.000000) scale(-1, 1) translate(-333.500000, -570.000000) translate(0.000000, 511.000000)">
                            <path d="M0.5,0.5 L0.5,117.5 L61.2626451,117.5 L14.6609502,0.5 L0.5,0.5 Z" id="Rectangle-6" stroke="#D737DB" fill-rule="nonzero"></path>
                            <path d="M14.7373549,0.5 L61.3390498,117.5 L121.96244,117.5 L28.7590501,0.5 L14.7373549,0.5 Z" id="Rectangle-6" stroke="#D737DB" fill-rule="nonzero"></path>
                            <path d="M29.0375601,0.5 L122.24095,117.5 L182.623469,117.5 L42.8183841,0.5 L29.0375601,0.5 Z" id="Rectangle-6" stroke="#D737DB" fill-rule="nonzero"></path>
                            <path d="M43.3690492,0.5 L182.182608,117.5 L241.278506,117.5 L56.8547773,0.5 L43.3690492,0.5 Z" id="Rectangle-6" stroke="#D737DB" fill-rule="nonzero"></path>
                            <path d="M57.7136814,0.5 L241.145885,117.5 L301.93007,117.5 L73.8792229,0.5 L57.7136814,0.5 Z" id="Rectangle-6" stroke="#D737DB" fill-rule="nonzero"></path>
                            <path d="M75.045923,0.5 L300.122194,117.5 L359.599255,117.5 L90.8958656,0.5 L75.045923,0.5 Z" id="Rectangle-6" stroke="#D737DB" fill-rule="nonzero"></path>
                            <path d="M91.3926234,0.5 L359.104488,117.5 L416.26454,117.5 L106.908608,0.5 L91.3926234,0.5 Z" id="Rectangle-6" stroke="#D737DB" fill-rule="nonzero"></path>
                            <path d="M108.719062,0.5 L416.091943,117.5 L465.993128,117.5 L123.916857,0.5 L108.719062,0.5 Z" id="Rectangle-6" stroke="#D737DB" fill-rule="nonzero"></path>
                            <path d="M124.965654,0.5 L462.084298,117.5 L521.662384,117.5 L139.925096,0.5 L124.965654,0.5 Z" id="Rectangle-6" stroke="#D737DB" fill-rule="nonzero"></path>
                            <path d="M141.23822,0.5 L511.077203,117.5 L553.529656,117.5 L155.927961,0.5 L141.23822,0.5 Z" id="Rectangle-6" stroke="#D737DB" fill-rule="nonzero"></path>
                            <path d="M156.403953,0.5 L546.073444,117.5 L598.280249,117.5 L170.932791,0.5 L156.403953,0.5 Z" id="Rectangle-6" stroke="#D737DB" fill-rule="nonzero"></path>
                            <path d="M171.644861,0.5 L590.06859,117.5 L613.280249,117.5 L185.932791,0.5 L171.644861,0.5 Z" id="Rectangle-6" stroke="#D737DB" fill-rule="nonzero"></path>
                            <path d="M189.644861,0.5 L608.06859,117.5 L631.280249,117.5 L203.932791,0.5 L189.644861,0.5 Z" id="Rectangle-6" stroke="#D737DB" fill-rule="nonzero"></path>
                            <path d="M200.644861,0.5 L619.06859,117.5 L642.280249,117.5 L214.932791,0.5 L200.644861,0.5 Z" id="Rectangle-6" stroke="#D737DB" fill-rule="nonzero"></path>
                            <path d="M221.644861,0.5 L640.06859,117.5 L663.280249,117.5 L235.932791,0.5 L221.644861,0.5 Z" id="Rectangle-6" stroke="#D737DB" fill-rule="nonzero"></path>
                        </g>
                        <g id="Group-5" stroke="none" stroke-width="1" fill="none" fill-rule="evenodd" transform="translate(438.000000, 512.000000)" stroke-linecap="square">
                            <path d="M0,99 L460,99" id="Line-2" stroke="#D737DB" fill-rule="nonzero"></path>
                            <path d="M0,80 L460,80" id="Line-2" stroke="#D737DB" fill-rule="nonzero"></path>
                            <path d="M0,66 L460,66" id="Line-2" stroke="#D737DB" fill-rule="nonzero"></path>
                            <path d="M0,55 L460,55" id="Line-2" stroke="#D737DB" fill-rule="nonzero"></path>
                            <path d="M0,46 L460,46" id="Line-2" stroke="#D737DB" fill-rule="nonzero"></path>
                            <path d="M0,39 L460,39" id="Line-2" stroke="#D737DB" fill-rule="nonzero"></path>
                            <path d="M0,32 L460,32" id="Line-2" stroke="#D737DB" fill-rule="nonzero"></path>
                            <path d="M0,27 L460,27" id="Line-2" stroke="#D737DB" fill-rule="nonzero"></path>
                            <path d="M0,23 L460,23" id="Line-2" stroke="#D737DB" fill-rule="nonzero"></path>
                            <path d="M0,19 L460,19" id="Line-2" stroke="#D737DB" fill-rule="nonzero"></path>
                            <path d="M0,15 L460,15" id="Line-2" stroke="#D737DB" fill-rule="nonzero"></path>
                            <path d="M0,12 L460,12" id="Line-2" stroke="#D737DB" fill-rule="nonzero"></path>
                            <path d="M0,9 L460,9" id="Line-2" stroke="#D737DB" fill-rule="nonzero"></path>
                            <path d="M0,7 L460,7" id="Line-2" stroke="#D737DB" fill-rule="nonzero"></path>
                            <path d="M0,5 L460,5" id="Line-2" stroke="#D737DB" fill-rule="nonzero"></path>
                            <path d="M0,3 L460,3" id="Line-2" stroke="#D737DB" fill-rule="nonzero"></path>
                            <path d="M0,1 L460,1" id="Line-2" stroke="#D737DB" fill-rule="nonzero"></path>
                        </g>
                        <g id="Group-4" stroke="none" stroke-width="1" fill="none" fill-rule="evenodd" transform="translate(666.000000, 511.000000)">
                            <path d="M0.5,0.5 L0.5,117.5 L61.2626451,117.5 L14.6609502,0.5 L0.5,0.5 Z" id="Rectangle-6" stroke="#D737DB" fill-rule="nonzero"></path>
                            <path d="M14.7373549,0.5 L61.3390498,117.5 L121.96244,117.5 L28.7590501,0.5 L14.7373549,0.5 Z" id="Rectangle-6" stroke="#D737DB" fill-rule="nonzero"></path>
                            <path d="M29.0375601,0.5 L122.24095,117.5 L182.623469,117.5 L42.8183841,0.5 L29.0375601,0.5 Z" id="Rectangle-6" stroke="#D737DB" fill-rule="nonzero"></path>
                            <path d="M43.3690492,0.5 L182.182608,117.5 L241.278506,117.5 L56.8547773,0.5 L43.3690492,0.5 Z" id="Rectangle-6" stroke="#D737DB" fill-rule="nonzero"></path>
                            <path d="M57.7136814,0.5 L241.145885,117.5 L301.93007,117.5 L73.8792229,0.5 L57.7136814,0.5 Z" id="Rectangle-6" stroke="#D737DB" fill-rule="nonzero"></path>
                            <path d="M75.045923,0.5 L300.122194,117.5 L359.599255,117.5 L90.8958656,0.5 L75.045923,0.5 Z" id="Rectangle-6" stroke="#D737DB" fill-rule="nonzero"></path>
                            <path d="M91.3926234,0.5 L359.104488,117.5 L416.26454,117.5 L106.908608,0.5 L91.3926234,0.5 Z" id="Rectangle-6" stroke="#D737DB" fill-rule="nonzero"></path>
                            <path d="M108.719062,0.5 L416.091943,117.5 L465.993128,117.5 L123.916857,0.5 L108.719062,0.5 Z" id="Rectangle-6" stroke="#D737DB" fill-rule="nonzero"></path>
                            <path d="M124.965654,0.5 L462.084298,117.5 L521.662384,117.5 L139.925096,0.5 L124.965654,0.5 Z" id="Rectangle-6" stroke="#D737DB" fill-rule="nonzero"></path>
                            <path d="M141.23822,0.5 L511.077203,117.5 L553.529656,117.5 L155.927961,0.5 L141.23822,0.5 Z" id="Rectangle-6" stroke="#D737DB" fill-rule="nonzero"></path>
                            <path d="M156.403953,0.5 L546.073444,117.5 L598.280249,117.5 L170.932791,0.5 L156.403953,0.5 Z" id="Rectangle-6" stroke="#D737DB" fill-rule="nonzero"></path>
                            <path d="M171.644861,0.5 L590.06859,117.5 L613.280249,117.5 L185.932791,0.5 L171.644861,0.5 Z" id="Rectangle-6" stroke="#D737DB" fill-rule="nonzero"></path>
                            <path d="M185.644861,0.5 L604.06859,117.5 L627.280249,117.5 L199.932791,0.5 L185.644861,0.5 Z" id="Rectangle-6" stroke="#D737DB" fill-rule="nonzero"></path>
                            <path d="M202.644861,0.5 L621.06859,117.5 L644.280249,117.5 L216.932791,0.5 L202.644861,0.5 Z" id="Rectangle-6" stroke="#D737DB" fill-rule="nonzero"></path>
                            <path d="M221.644861,0.5 L640.06859,117.5 L663.280249,117.5 L235.932791,0.5 L221.644861,0.5 Z" id="Rectangle-6" stroke="#D737DB" fill-rule="nonzero"></path>
                        </g>
                        <rect id="Rectangle-4" stroke="none" fill="#FFFFFF" fill-rule="nonzero" x="437" y="508" width="461" height="3"></rect>
                        <g id="Group-6" stroke="none" stroke-width="1" fill="none" fill-rule="evenodd" transform="translate(475.000000, 127.000000)">
                            <path d="M84.5,368.5 L53.5,368.5" id="Line-3" stroke="#D737DB" stroke-linecap="square" fill-rule="nonzero"></path>
                            <path d="M84.5,233.5 L62.5,233.5" id="Line-3-Copy-12" stroke="#D737DB" stroke-linecap="square" fill-rule="nonzero"></path>
                            <path d="M84.5,302.5 L8.5,302.5" id="Line-3-Copy-6" stroke="#D737DB" stroke-linecap="square" fill-rule="nonzero"></path>
                            <polyline id="Line-3-Copy-13" stroke="#D737DB" stroke-linecap="square" fill-rule="nonzero" points="84.5 175.5 40.5 175.5 24.5455676 188.25147 9.71205832 188.25147"></polyline>
                            <polyline id="Line-3-Copy-24" stroke="#D737DB" stroke-linecap="square" fill-rule="nonzero" points="84.5 82.5 53.5 82.5 42.8698196 82.5 27.5210139 93.6266566 9.92286139 93.6266566"></polyline>
                            <polyline id="Line-3-Copy-3" stroke="#D737DB" stroke-linecap="square" fill-rule="nonzero" points="84.5 339.5 48.5 339.5 36.0670893 324.124309 8.0611394 324.124309"></polyline>
                            <path d="M84.5,209.5 L9.5,209.5" id="Line-3-Copy-14" stroke="#D737DB" stroke-linecap="square" fill-rule="nonzero"></path>
                            <polyline id="Line-3-Copy-7" stroke="#D737DB" stroke-linecap="square" fill-rule="nonzero" points="84.5 266.5 38.5 266.5 23.0783485 280.249759 7.8566567 280.249759"></polyline>
                            <path d="M84.5,141.5 L62.5,141.5" id="Line-3-Copy-15" stroke="#D737DB" stroke-linecap="square" fill-rule="nonzero"></path>
                            <path d="M84.5,24.5 L10.5,24.5" id="Line-3-Copy-32" stroke="#D737DB" stroke-linecap="square" fill-rule="nonzero"></path>
                            <polyline id="Line-3-Copy" stroke="#D737DB" stroke-linecap="square" fill-rule="nonzero" points="84.5 357.5 41.5 357.5 24.4204986 370.959769 8.84709652 370.959769"></polyline>
                            <path d="M84.5,291.5 L35.5,291.5" id="Line-3-Copy-8" stroke="#D737DB" stroke-linecap="square" fill-rule="nonzero"></path>
                            <path d="M84.5,164.5 L41.5,163.5" id="Line-3-Copy-17" stroke="#D737DB" stroke-linecap="square" fill-rule="nonzero"></path>
                            <path d="M84.5,327.5 L62.5,327.5" id="Line-3-Copy-4" stroke="#D737DB" stroke-linecap="square" fill-rule="nonzero"></path>
                            <path d="M84.5,199.5 L39.5,199.5" id="Line-3-Copy-18" stroke="#D737DB" stroke-linecap="square" fill-rule="nonzero"></path>
                            <path d="M84.5,106.5 L37.5,105.5" id="Line-3-Copy-27" stroke="#D737DB" stroke-linecap="square" fill-rule="nonzero"></path>
                            <path d="M84.5,127.5 L38.5,127.5" id="Line-3-Copy-19" stroke="#D737DB" stroke-linecap="square" fill-rule="nonzero"></path>
                            <path d="M84.5,48.5 L65.5,48.5" id="Line-3-Copy-28" stroke="#D737DB" stroke-linecap="square" fill-rule="nonzero"></path>
                            <path d="M84.5,14.5 L38.5,14.5" id="Line-3-Copy-33" stroke="#D737DB" stroke-linecap="square" fill-rule="nonzero"></path>
                            <path d="M84.5,348.5 L39.5,348.5" id="Line-3-Copy-2" stroke="#D737DB" stroke-linecap="square" fill-rule="nonzero"></path>
                            <path d="M84.5,221.5 L37.5,221.5" id="Line-3-Copy-20" stroke="#D737DB" stroke-linecap="square" fill-rule="nonzero"></path>
                            <path d="M84.5,278.5 L53.5,278.5" id="Line-3-Copy-10" stroke="#D737DB" stroke-linecap="square" fill-rule="nonzero"></path>
                            <polyline id="Line-3-Copy-21" stroke="#D737DB" stroke-linecap="square" fill-rule="nonzero" points="84.5 153.5 53.5 153.5 40.1426525 139.754272 10.1039959 139.754272"></polyline>
                            <polyline id="Line-3-Copy-29" stroke="#D737DB" stroke-linecap="square" fill-rule="nonzero" points="84.5 64.5 53.5 64.5 37.6137964 49.229188 11.2618513 49.229188"></polyline>
                            <path d="M84.5,313.5 L36.5,313.5" id="Line-3-Copy-5" stroke="#D737DB" stroke-linecap="square" fill-rule="nonzero"></path>
                            <path d="M84.5,187.5 L53.5,187.5" id="Line-3-Copy-22" stroke="#D737DB" stroke-linecap="square" fill-rule="nonzero"></path>
                            <path d="M84.5,94.5 L56.5,94.5" id="Line-3-Copy-30" stroke="#D737DB" stroke-linecap="square" fill-rule="nonzero"></path>
                            <polyline id="Line-3-Copy-11" stroke="#D737DB" stroke-linecap="square" fill-rule="nonzero" points="84.5 247.5 49.5 247.5 39.7790079 233.55186 9.05455351 233.55186"></polyline>
                            <path d="M84.5,117.5 L10.5,117.5" id="Line-3-Copy-23" stroke="#D737DB" stroke-linecap="square" fill-rule="nonzero"></path>
                            <path d="M84.5,34.5 L38.5,34.5" id="Line-3-Copy-31" stroke="#D737DB" stroke-linecap="square" fill-rule="nonzero"></path>
                            <path d="M84.5,4.5 L53.5,4.5" id="Line-3-Copy-34" stroke="#D737DB" stroke-linecap="square" fill-rule="nonzero"></path>
                            <circle id="Oval-2" stroke="#D737DB" fill-rule="nonzero" cx="49" cy="4" r="4"></circle>
                            <circle id="Oval-2-Copy" stroke="#D737DB" fill-rule="nonzero" cx="34" cy="14" r="4"></circle>
                            <circle id="Oval-2-Copy-2" stroke="#D737DB" fill-rule="nonzero" cx="6" cy="24" r="4"></circle>
                            <circle id="Oval-2-Copy-3" stroke="#D737DB" fill-rule="nonzero" cx="34" cy="35" r="4"></circle>
                            <circle id="Oval-2-Copy-4" stroke="#D737DB" fill-rule="nonzero" cx="61" cy="49" r="4"></circle>
                            <circle id="Oval-2-Copy-5" stroke="#D737DB" fill-rule="nonzero" cx="52" cy="95" r="4"></circle>
                            <circle id="Oval-2-Copy-8" stroke="#D737DB" fill-rule="nonzero" cx="33" cy="105" r="4"></circle>
                            <circle id="Oval-2-Copy-9" stroke="#D737DB" fill-rule="nonzero" cx="6" cy="117" r="4"></circle>
                            <circle id="Oval-2-Copy-12" stroke="#D737DB" fill-rule="nonzero" cx="6" cy="140" r="4"></circle>
                            <circle id="Oval-2-Copy-13" stroke="#D737DB" fill-rule="nonzero" cx="37" cy="163" r="4"></circle>
                            <circle id="Oval-2-Copy-14" stroke="#D737DB" fill-rule="nonzero" cx="5" cy="188" r="4"></circle>
                            <circle id="Oval-2-Copy-15" stroke="#D737DB" fill-rule="nonzero" cx="49" cy="188" r="4"></circle>
                            <circle id="Oval-2-Copy-16" stroke="#D737DB" fill-rule="nonzero" cx="35" cy="199" r="4"></circle>
                            <circle id="Oval-2-Copy-17" stroke="#D737DB" fill-rule="nonzero" cx="5" cy="209" r="4"></circle>
                            <circle id="Oval-2-Copy-18" stroke="#D737DB" fill-rule="nonzero" cx="33" cy="221" r="4"></circle>
                            <circle id="Oval-2-Copy-19" stroke="#D737DB" fill-rule="nonzero" cx="58" cy="233" r="4"></circle>
                            <circle id="Oval-2-Copy-20" stroke="#D737DB" fill-rule="nonzero" cx="5" cy="234" r="4"></circle>
                            <circle id="Oval-2-Copy-21" stroke="#D737DB" fill-rule="nonzero" cx="4" cy="280" r="4"></circle>
                            <circle id="Oval-2-Copy-22" stroke="#D737DB" fill-rule="nonzero" cx="49" cy="279" r="4"></circle>
                            <circle id="Oval-2-Copy-23" stroke="#D737DB" fill-rule="nonzero" cx="31" cy="291" r="4"></circle>
                            <circle id="Oval-2-Copy-24" stroke="#D737DB" fill-rule="nonzero" cx="4" cy="302" r="4"></circle>
                            <circle id="Oval-2-Copy-29" stroke="#D737DB" fill-rule="nonzero" cx="4" cy="324" r="4"></circle>
                            <circle id="Oval-2-Copy-30" stroke="#D737DB" fill-rule="nonzero" cx="5" cy="371" r="4"></circle>
                            <circle id="Oval-2-Copy-25" stroke="#D737DB" fill-rule="nonzero" cx="32" cy="313" r="4"></circle>
                            <circle id="Oval-2-Copy-26" stroke="#D737DB" fill-rule="nonzero" cx="58" cy="327" r="4"></circle>
                            <circle id="Oval-2-Copy-27" stroke="#D737DB" fill-rule="nonzero" cx="35" cy="348" r="4"></circle>
                            <circle id="Oval-2-Copy-28" stroke="#D737DB" fill-rule="nonzero" cx="49" cy="368" r="4"></circle>
                            <circle id="Oval-2-Copy-10" stroke="#D737DB" fill-rule="nonzero" cx="34" cy="128" r="4"></circle>
                            <circle id="Oval-2-Copy-11" stroke="#D737DB" fill-rule="nonzero" cx="58" cy="141" r="4"></circle>
                            <circle id="Oval-2-Copy-6" stroke="#D737DB" fill-rule="nonzero" cx="6" cy="95" r="4"></circle>
                            <circle id="Oval-2-Copy-7" stroke="#D737DB" fill-rule="nonzero" cx="7" cy="49" r="4"></circle>
                        </g>
                        <g id="Group-6" stroke="none" stroke-width="1" fill="none" fill-rule="evenodd" transform="translate(815.500000, 314.500000) scale(-1, -1) translate(-815.500000, -314.500000) translate(773.000000, 127.000000)">
                            <path d="M84.5,368.5 L53.5,368.5" id="Line-3" stroke="#D737DB" stroke-linecap="square" fill-rule="nonzero"></path>
                            <path d="M84.5,233.5 L62.5,233.5" id="Line-3-Copy-12" stroke="#D737DB" stroke-linecap="square" fill-rule="nonzero"></path>
                            <path d="M84.5,302.5 L8.5,302.5" id="Line-3-Copy-6" stroke="#D737DB" stroke-linecap="square" fill-rule="nonzero"></path>
                            <polyline id="Line-3-Copy-13" stroke="#D737DB" stroke-linecap="square" fill-rule="nonzero" points="84.5 175.5 40.5 175.5 24.5455676 188.25147 9.71205832 188.25147"></polyline>
                            <polyline id="Line-3-Copy-24" stroke="#D737DB" stroke-linecap="square" fill-rule="nonzero" points="84.5 82.5 53.5 82.5 42.8698196 82.5 27.5210139 93.6266566 9.92286139 93.6266566"></polyline>
                            <polyline id="Line-3-Copy-3" stroke="#D737DB" stroke-linecap="square" fill-rule="nonzero" points="84.5 339.5 48.5 339.5 36.0670893 324.124309 8.0611394 324.124309"></polyline>
                            <path d="M84.5,209.5 L9.5,209.5" id="Line-3-Copy-14" stroke="#D737DB" stroke-linecap="square" fill-rule="nonzero"></path>
                            <polyline id="Line-3-Copy-7" stroke="#D737DB" stroke-linecap="square" fill-rule="nonzero" points="84.5 266.5 38.5 266.5 23.0783485 280.249759 7.8566567 280.249759"></polyline>
                            <path d="M84.5,141.5 L62.5,141.5" id="Line-3-Copy-15" stroke="#D737DB" stroke-linecap="square" fill-rule="nonzero"></path>
                            <path d="M84.5,24.5 L10.5,24.5" id="Line-3-Copy-32" stroke="#D737DB" stroke-linecap="square" fill-rule="nonzero"></path>
                            <polyline id="Line-3-Copy" stroke="#D737DB" stroke-linecap="square" fill-rule="nonzero" points="84.5 357.5 41.5 357.5 24.4204986 370.959769 8.84709652 370.959769"></polyline>
                            <path d="M84.5,291.5 L35.5,291.5" id="Line-3-Copy-8" stroke="#D737DB" stroke-linecap="square" fill-rule="nonzero"></path>
                            <path d="M84.5,164.5 L41.5,163.5" id="Line-3-Copy-17" stroke="#D737DB" stroke-linecap="square" fill-rule="nonzero"></path>
                            <path d="M84.5,327.5 L62.5,327.5" id="Line-3-Copy-4" stroke="#D737DB" stroke-linecap="square" fill-rule="nonzero"></path>
                            <path d="M84.5,199.5 L39.5,199.5" id="Line-3-Copy-18" stroke="#D737DB" stroke-linecap="square" fill-rule="nonzero"></path>
                            <path d="M84.5,106.5 L37.5,105.5" id="Line-3-Copy-27" stroke="#D737DB" stroke-linecap="square" fill-rule="nonzero"></path>
                            <path d="M84.5,127.5 L38.5,127.5" id="Line-3-Copy-19" stroke="#D737DB" stroke-linecap="square" fill-rule="nonzero"></path>
                            <path d="M84.5,48.5 L65.5,48.5" id="Line-3-Copy-28" stroke="#D737DB" stroke-linecap="square" fill-rule="nonzero"></path>
                            <path d="M84.5,14.5 L38.5,14.5" id="Line-3-Copy-33" stroke="#D737DB" stroke-linecap="square" fill-rule="nonzero"></path>
                            <path d="M84.5,348.5 L39.5,348.5" id="Line-3-Copy-2" stroke="#D737DB" stroke-linecap="square" fill-rule="nonzero"></path>
                            <path d="M84.5,221.5 L37.5,221.5" id="Line-3-Copy-20" stroke="#D737DB" stroke-linecap="square" fill-rule="nonzero"></path>
                            <path d="M84.5,278.5 L53.5,278.5" id="Line-3-Copy-10" stroke="#D737DB" stroke-linecap="square" fill-rule="nonzero"></path>
                            <polyline id="Line-3-Copy-21" stroke="#D737DB" stroke-linecap="square" fill-rule="nonzero" points="84.5 153.5 53.5 153.5 40.1426525 139.754272 10.1039959 139.754272"></polyline>
                            <polyline id="Line-3-Copy-29" stroke="#D737DB" stroke-linecap="square" fill-rule="nonzero" points="84.5 64.5 53.5 64.5 37.6137964 49.229188 11.2618513 49.229188"></polyline>
                            <path d="M84.5,313.5 L36.5,313.5" id="Line-3-Copy-5" stroke="#D737DB" stroke-linecap="square" fill-rule="nonzero"></path>
                            <path d="M84.5,187.5 L53.5,187.5" id="Line-3-Copy-22" stroke="#D737DB" stroke-linecap="square" fill-rule="nonzero"></path>
                            <path d="M84.5,94.5 L56.5,94.5" id="Line-3-Copy-30" stroke="#D737DB" stroke-linecap="square" fill-rule="nonzero"></path>
                            <polyline id="Line-3-Copy-11" stroke="#D737DB" stroke-linecap="square" fill-rule="nonzero" points="84.5 247.5 49.5 247.5 39.7790079 233.55186 9.05455351 233.55186"></polyline>
                            <path d="M84.5,117.5 L10.5,117.5" id="Line-3-Copy-23" stroke="#D737DB" stroke-linecap="square" fill-rule="nonzero"></path>
                            <path d="M84.5,34.5 L38.5,34.5" id="Line-3-Copy-31" stroke="#D737DB" stroke-linecap="square" fill-rule="nonzero"></path>
                            <path d="M84.5,4.5 L53.5,4.5" id="Line-3-Copy-34" stroke="#D737DB" stroke-linecap="square" fill-rule="nonzero"></path>
                            <circle id="Oval-2" stroke="#D737DB" fill-rule="nonzero" cx="49" cy="4" r="4"></circle>
                            <circle id="Oval-2-Copy" stroke="#D737DB" fill-rule="nonzero" cx="34" cy="14" r="4"></circle>
                            <circle id="Oval-2-Copy-2" stroke="#D737DB" fill-rule="nonzero" cx="6" cy="24" r="4"></circle>
                            <circle id="Oval-2-Copy-3" stroke="#D737DB" fill-rule="nonzero" cx="34" cy="35" r="4"></circle>
                            <circle id="Oval-2-Copy-4" stroke="#D737DB" fill-rule="nonzero" cx="61" cy="49" r="4"></circle>
                            <circle id="Oval-2-Copy-5" stroke="#D737DB" fill-rule="nonzero" cx="52" cy="95" r="4"></circle>
                            <circle id="Oval-2-Copy-8" stroke="#D737DB" fill-rule="nonzero" cx="33" cy="105" r="4"></circle>
                            <circle id="Oval-2-Copy-9" stroke="#D737DB" fill-rule="nonzero" cx="6" cy="117" r="4"></circle>
                            <circle id="Oval-2-Copy-12" stroke="#D737DB" fill-rule="nonzero" cx="6" cy="140" r="4"></circle>
                            <circle id="Oval-2-Copy-13" stroke="#D737DB" fill-rule="nonzero" cx="37" cy="163" r="4"></circle>
                            <circle id="Oval-2-Copy-14" stroke="#D737DB" fill-rule="nonzero" cx="5" cy="188" r="4"></circle>
                            <circle id="Oval-2-Copy-15" stroke="#D737DB" fill-rule="nonzero" cx="49" cy="188" r="4"></circle>
                            <circle id="Oval-2-Copy-16" stroke="#D737DB" fill-rule="nonzero" cx="35" cy="199" r="4"></circle>
                            <circle id="Oval-2-Copy-17" stroke="#D737DB" fill-rule="nonzero" cx="5" cy="209" r="4"></circle>
                            <circle id="Oval-2-Copy-18" stroke="#D737DB" fill-rule="nonzero" cx="33" cy="221" r="4"></circle>
                            <circle id="Oval-2-Copy-19" stroke="#D737DB" fill-rule="nonzero" cx="58" cy="233" r="4"></circle>
                            <circle id="Oval-2-Copy-20" stroke="#D737DB" fill-rule="nonzero" cx="5" cy="234" r="4"></circle>
                            <circle id="Oval-2-Copy-21" stroke="#D737DB" fill-rule="nonzero" cx="4" cy="280" r="4"></circle>
                            <circle id="Oval-2-Copy-22" stroke="#D737DB" fill-rule="nonzero" cx="49" cy="279" r="4"></circle>
                            <circle id="Oval-2-Copy-23" stroke="#D737DB" fill-rule="nonzero" cx="31" cy="291" r="4"></circle>
                            <circle id="Oval-2-Copy-24" stroke="#D737DB" fill-rule="nonzero" cx="4" cy="302" r="4"></circle>
                            <circle id="Oval-2-Copy-29" stroke="#D737DB" fill-rule="nonzero" cx="4" cy="324" r="4"></circle>
                            <circle id="Oval-2-Copy-30" stroke="#D737DB" fill-rule="nonzero" cx="5" cy="371" r="4"></circle>
                            <circle id="Oval-2-Copy-25" stroke="#D737DB" fill-rule="nonzero" cx="32" cy="313" r="4"></circle>
                            <circle id="Oval-2-Copy-26" stroke="#D737DB" fill-rule="nonzero" cx="58" cy="327" r="4"></circle>
                            <circle id="Oval-2-Copy-27" stroke="#D737DB" fill-rule="nonzero" cx="35" cy="348" r="4"></circle>
                            <circle id="Oval-2-Copy-28" stroke="#D737DB" fill-rule="nonzero" cx="49" cy="368" r="4"></circle>
                            <circle id="Oval-2-Copy-10" stroke="#D737DB" fill-rule="nonzero" cx="34" cy="128" r="4"></circle>
                            <circle id="Oval-2-Copy-11" stroke="#D737DB" fill-rule="nonzero" cx="58" cy="141" r="4"></circle>
                            <circle id="Oval-2-Copy-6" stroke="#D737DB" fill-rule="nonzero" cx="6" cy="95" r="4"></circle>
                            <circle id="Oval-2-Copy-7" stroke="#D737DB" fill-rule="nonzero" cx="7" cy="49" r="4"></circle>
                        </g>
                        <g id="Group-7" stroke="none" stroke-width="1" fill="none" fill-rule="evenodd" transform="translate(578.000000, 41.000000)">
                            <polyline id="Line-4" stroke="#D737DB" stroke-linecap="square" fill-rule="nonzero" points="0.5 81.5 0.5 37.5 13.952663 22.5506055 13.952663 8.5257958"></polyline>
                            <path d="M12.5,81.5 L12.5,51.5" id="Line-4" stroke="#D737DB" stroke-linecap="square" fill-rule="nonzero"></path>
                            <path d="M26.5,81.5 L26.5,34.5" id="Line-4" stroke="#D737DB" stroke-linecap="square" fill-rule="nonzero"></path>
                            <path d="M36.5,81.5 L36.5,11.5" id="Line-4" stroke="#D737DB" stroke-linecap="square" fill-rule="nonzero"></path>
                            <path d="M45.5,81.5 L45.5,33.5" id="Line-4" stroke="#D737DB" stroke-linecap="square" fill-rule="nonzero"></path>
                            <path d="M61.5,81.5 L61.5,59.5" id="Line-4" stroke="#D737DB" stroke-linecap="square" fill-rule="nonzero"></path>
                            <polyline id="Line-4" stroke="#D737DB" stroke-linecap="square" fill-rule="nonzero" points="72.5 81.5 72.5 47.5 59.432489 36.4251233 59.432489 7.96739381"></polyline>
                            <path d="M81.5,81.5 L81.5,37.5" id="Line-4" stroke="#D737DB" stroke-linecap="square" fill-rule="nonzero"></path>
                            <polyline id="Line-4" stroke="#D737DB" stroke-linecap="square" fill-rule="nonzero" points="93.5 81.5 93.5 37.5 106.993187 23.2104241 106.993187 7.88308366"></polyline>
                            <path d="M105.5,81.5 L105.5,53.5" id="Line-4" stroke="#D737DB" stroke-linecap="square" fill-rule="nonzero"></path>
                            <path d="M117.5,81.5 L117.5,34.5" id="Line-4" stroke="#D737DB" stroke-linecap="square" fill-rule="nonzero"></path>
                            <path d="M129.5,81.5 L129.5,11.5" id="Line-4" stroke="#D737DB" stroke-linecap="square" fill-rule="nonzero"></path>
                            <path d="M139.5,81.5 L139.5,37.5" id="Line-4" stroke="#D737DB" stroke-linecap="square" fill-rule="nonzero"></path>
                            <path d="M153.5,81.5 L153.5,63.5" id="Line-4" stroke="#D737DB" stroke-linecap="square" fill-rule="nonzero"></path>
                            <polyline id="Line-4" stroke="#D737DB" stroke-linecap="square" fill-rule="nonzero" points="165.5 81.5 165.5 48.5 151.743547 37.6482313 151.743547 8.82027037"></polyline>
                            <polyline id="Line-4" stroke="#D737DB" stroke-linecap="square" fill-rule="nonzero" points="176.5 81.5 176.5 37.5 188.034706 22.6752379 188.034706 8.64309687"></polyline>
                            <circle id="Oval-2-Copy-31" stroke="#D737DB" fill-rule="nonzero" cx="188.5" cy="4.5" r="3.5"></circle>
                            <circle id="Oval-2-Copy-32" stroke="#D737DB" fill-rule="nonzero" cx="152.5" cy="4.5" r="3.5"></circle>
                            <circle id="Oval-2-Copy-33" stroke="#D737DB" fill-rule="nonzero" cx="153.5" cy="59.5" r="3.5"></circle>
                            <circle id="Oval-2-Copy-34" stroke="#D737DB" fill-rule="nonzero" cx="139.5" cy="33.5" r="3.5"></circle>
                            <circle id="Oval-2-Copy-35" stroke="#D737DB" fill-rule="nonzero" cx="129.5" cy="7.5" r="3.5"></circle>
                            <circle id="Oval-2-Copy-36" stroke="#D737DB" fill-rule="nonzero" cx="117.5" cy="30.5" r="3.5"></circle>
                            <circle id="Oval-2-Copy-37" stroke="#D737DB" fill-rule="nonzero" cx="105.5" cy="49.5" r="3.5"></circle>
                            <circle id="Oval-2-Copy-38" stroke="#D737DB" fill-rule="nonzero" cx="107.5" cy="3.5" r="3.5"></circle>
                            <circle id="Oval-2-Copy-39" stroke="#D737DB" fill-rule="nonzero" cx="81.5" cy="33.5" r="3.5"></circle>
                            <circle id="Oval-2-Copy-40" stroke="#D737DB" fill-rule="nonzero" cx="59.5" cy="3.5" r="3.5"></circle>
                            <circle id="Oval-2-Copy-41" stroke="#D737DB" fill-rule="nonzero" cx="61.5" cy="55.5" r="3.5"></circle>
                            <circle id="Oval-2-Copy-42" stroke="#D737DB" fill-rule="nonzero" cx="45.5" cy="29.5" r="3.5"></circle>
                            <circle id="Oval-2-Copy-43" stroke="#D737DB" fill-rule="nonzero" cx="36.5" cy="7.5" r="3.5"></circle>
                            <circle id="Oval-2-Copy-44" stroke="#D737DB" fill-rule="nonzero" cx="26.5" cy="30.5" r="3.5"></circle>
                            <circle id="Oval-2-Copy-45" stroke="#D737DB" fill-rule="nonzero" cx="12.5" cy="47.5" r="3.5"></circle>
                            <circle id="Oval-2-Copy-46" stroke="#D737DB" fill-rule="nonzero" cx="13.5" cy="4.5" r="3.5"></circle>
                        </g>
                        <polyline id="Rectangle-5" stroke="#D737DB" stroke-width="1" fill="none" fill-rule="nonzero" points="560 508 560 123 560 123 773 123 773 508"></polyline>
                        <polyline id="Rectangle-5" stroke="#D737DB" stroke-width="1" fill="none" fill-rule="nonzero" points="580 508 580 143 753 143 753 508"></polyline>
                        <polyline id="Rectangle-5" stroke="#D737DB" stroke-width="1" fill="none" fill-rule="nonzero" points="598 508 598 161 735 161 735 508"></polyline>
                        <polyline id="Rectangle-5" stroke="#D737DB" stroke-width="1" fill="none" fill-rule="nonzero" points="612 508 612 175 721 175 721 508"></polyline>
                        <polyline id="Rectangle-5" stroke="#D737DB" stroke-width="1" fill="none" fill-rule="nonzero" points="626 508 626 189 707 189 707 508"></polyline>
                        <polyline id="Rectangle-5" stroke="#D737DB" stroke-width="1" fill="none" fill-rule="nonzero" points="639 508 639 203 693 203 693 508"></polyline>
                        <polyline id="Rectangle-5" stroke="#D737DB" stroke-width="1" fill="none" fill-rule="nonzero" points="653 508 653 217 679 217 679 508"></polyline>
                        <path d="M666.5,508 L666.5,231" id="Line-6" stroke="#D737DB" stroke-width="1" fill="none" fill-rule="nonzero"></path>
                        <path d="M443,1 C440.238576,1 438,3.23857625 438,6 L438,623 C438,625.761424 440.238576,628 443,628 L892,628 C894.761424,628 897,625.761424 897,623 L897,6 C897,3.23857625 894.761424,1 892,1 L443,1 Z" id="border" stroke="#2F3061" stroke-width="2" fill="none"></path>
                    </g>
                </g>
            </g>
        </g>
    </g>
</svg>