<?xml version="1.0" encoding="UTF-8"?>
<svg width="461px" height="629px" viewBox="0 0 461 629" version="1.1" xmlns="http://www.w3.org/2000/svg" xmlns:xlink="http://www.w3.org/1999/xlink">
    <!-- Generator: Sketch 52.4 (67378) - http://www.bohemiancoding.com/sketch -->
    <title>romance</title>
    <desc>Created with Sketch.</desc>
    <defs>
        <path d="M6,0 L455,0 C458.313708,-6.08718376e-16 461,2.6862915 461,6 L461,623 C461,626.313708 458.313708,629 455,629 L6,629 C2.6862915,629 4.05812251e-16,626.313708 0,623 L0,6 C-4.05812251e-16,2.6862915 2.6862915,6.08718376e-16 6,0 Z" id="path-1"></path>
    </defs>
    <g id="Page-1" stroke="none" stroke-width="1" fill="none" fill-rule="evenodd">
        <g id="Cover" transform="translate(-15.000000, -15.000000)">
            <g id="romance" transform="translate(15.000000, 15.000000)">
                <mask id="mask-2" fill="white">
                    <use xlink:href="#path-1"></use>
                </mask>
                <use id="bg" fill="#BFD7EA" xlink:href="#path-1"></use>
                <g id="img" mask="url(#mask-2)">
                    <g transform="translate(-30.000000, 0.000000)">
                        <path d="M346.959607,141.271022 C344.546492,130.584662 335.007344,122.595626 323.592262,122.595626 C321.938754,122.595626 320.327213,122.761583 318.77023,123.080892 C316.323541,123.578763 313.895738,122.440173 312.51082,120.36046 C306.350033,111.113094 295.830951,105 283.897574,105 C272.627279,105 262.616,110.455568 256.348197,118.854245 C254.856262,120.854129 252.193443,121.644 249.82859,120.849928 C247.436459,120.047453 244.872262,119.610504 242.215738,119.610504 C231.031475,119.610504 221.676984,127.255022 219.030951,137.613669 C218.489574,139.735396 216.666098,141.271022 214.479607,141.271022 L210.064656,141.271022 C207.689311,141.271022 205.794492,139.290043 205.897311,136.914129 C206.440787,124.601813 198.005377,113.253727 185.843279,111.356777 C170.909246,109.024978 158.02741,120.53482 158.02741,135.04659 C158.02741,137.206129 158.312787,139.283741 158.822689,141.271022 L139.515672,141.271022 C137.020721,141.271022 135,143.296115 135,145.79177 C135,148.287424 137.020721,150.312518 139.515672,150.312518 L163.508328,150.312518 L200.475148,150.312518 L219.244984,150.312518 L251.301639,150.312518 L265.21377,150.312518 L299.912262,150.312518 L316.493508,150.312518 L347.270164,150.312518 L368.981902,150.312518 C371.476852,150.312518 373.495475,148.287424 373.495475,145.79177 C373.495475,143.296115 371.476852,141.271022 368.981902,141.271022 L346.959607,141.271022 Z" id="Fill-28" stroke="none" fill="#FFFFFF" fill-rule="evenodd"></path>
                        <path d="M342.393311,248.771741 C343.975475,241.765842 350.226492,236.530849 357.709246,236.530849 C358.792,236.530849 359.847475,236.642187 360.869377,236.848058 C362.472525,237.17577 364.063082,236.430014 364.971672,235.066647 C369.011016,229.003971 375.90623,225 383.724721,225 C391.113049,225 397.676721,228.573324 401.783213,234.079309 C402.761049,235.390158 404.506885,235.906935 406.055475,235.388058 C407.622951,234.860777 409.305836,234.575079 411.045377,234.575079 C418.374951,234.575079 424.508459,239.585295 426.241705,246.372719 C426.596328,247.765496 427.790295,248.771741 429.223475,248.771741 L432.119213,248.771741 C433.674098,248.771741 434.918426,247.471396 434.84918,245.914763 C434.492459,237.845899 440.021639,230.409353 447.993311,229.163626 C457.782164,227.636403 466.225967,235.180086 466.225967,244.692144 C466.225967,246.105928 466.039213,247.467194 465.703475,248.771741 L478.358689,248.771741 C479.991213,248.771741 481.317377,250.097295 481.317377,251.733755 C481.317377,253.368115 479.991213,254.69577 478.358689,254.69577 L462.633574,254.69577 L438.401705,254.69577 L426.101115,254.69577 L405.09023,254.69577 L395.970754,254.69577 L373.228721,254.69577 L362.361311,254.69577 L342.187672,254.69577 L327.958689,254.69577 C326.326164,254.69577 325,253.368115 325,251.733755 C325,250.097295 326.326164,248.771741 327.958689,248.771741 L342.393311,248.771741 Z" id="Fill-25" stroke="none" fill="#FFFFFF" fill-rule="evenodd"></path>
                        <path d="M271.243462,498.583588 C269.009188,488.6865 260.176081,481.29224 249.608414,481.29224 C248.07894,481.29224 246.585573,481.445504 245.145644,481.740465 C242.878152,482.203148 240.632324,481.147652 239.348375,479.221732 C233.646428,470.659197 223.904879,465 212.856273,465 C202.422923,465 193.152204,470.051925 187.350602,477.829344 C185.969888,479.680078 183.503088,480.411696 181.313586,479.677186 C179.099532,478.932555 176.723721,478.529153 174.265587,478.529153 C163.911671,478.529153 155.25043,485.605317 152.799517,495.195877 C152.299803,497.160836 150.612904,498.582142 148.586604,498.582142 L144.497898,498.583588 C142.299731,498.583588 140.544952,496.745867 140.641718,494.546675 C141.144321,483.148758 133.332307,472.642952 122.072839,470.886201 C108.246916,468.728939 96.3201989,479.385117 96.3201989,492.820287 C96.3201989,494.818501 96.5816104,496.741529 97.0567726,498.583588 L79.1796949,498.583588 C76.8717638,498.583588 75,500.45601 75,502.767981 C75,505.078506 76.8717638,506.952374 79.1796949,506.952374 L101.392448,506.952374 L135.621462,506.952374 L152.997381,506.952374 L182.678414,506.952374 L195.559789,506.952374 L227.684514,506.952374 L243.037021,506.952374 L271.532315,506.952374 L291.633556,506.952374 C293.941487,506.952374 295.813251,505.078506 295.813251,502.767981 C295.813251,500.45601 293.941487,498.583588 291.633556,498.583588 L271.243462,498.583588 Z" id="Fill-12" stroke="none" fill="#FFFFFF" fill-rule="evenodd"></path>
                        <g id="sun" stroke="none" stroke-width="1" fill="none" fill-rule="evenodd" transform="translate(0.000000, 15.000000)">
                            <path d="M98.7779602,197.286935 L88.7686464,201.049127 C84.3891135,202.695259 79.4521758,201.64588 76.1208155,198.360748 L68.507074,190.852659 C66.4367415,188.811056 63.6955532,187.5906 60.7930234,187.418143 L50.1188386,186.783922 C45.4483942,186.506422 41.3650979,183.539733 39.6579325,179.183629 L35.7562484,169.227861 C34.6953005,166.520683 32.6875044,164.2908 30.1060563,162.952687 L20.612664,158.031715 C16.4588704,155.878565 13.9352545,151.507534 14.1474685,146.833668 L14.6324784,136.151664 C14.7643625,133.247008 13.8371248,130.393263 12.0231143,128.120867 L5.35200826,119.764025 C2.4330941,116.107524 1.90551471,111.087942 4.00041436,106.904468 L8.78825562,97.3432427 C10.0901679,94.7433493 10.4038164,91.7591828 9.6709023,88.9454205 L6.97557741,78.5976826 C5.79624943,74.0700737 7.35592985,69.269871 10.971288,66.30015 L19.2340994,59.5129264 C21.4809273,57.6673411 22.9812294,55.0687416 23.4561392,52.2001389 L25.2026416,41.6507225 C25.9668163,37.03487 29.3440736,33.2840458 33.8547619,32.0415694 L44.1638283,29.2019202 C46.9670749,28.4297613 49.3946147,26.6660505 50.9952323,24.2386147 L56.8815758,15.3116098 C59.4571205,11.4056366 64.0679962,9.35274249 68.6940757,10.052346 L79.2668658,11.6512725 C82.1418244,12.0860534 85.0768581,11.4621927 87.5264221,9.89564956 L96.5348045,4.1346164 C100.476384,1.61390075 105.523616,1.61390075 109.465195,4.1346164 L118.473578,9.89564956 C120.923142,11.4621927 123.858176,12.0860534 126.733134,11.6512725 L137.305924,10.052346 C141.932004,9.35274249 146.54288,11.4056366 149.118424,15.3116098 L155.004768,24.2386147 C156.605385,26.6660505 159.032925,28.4297613 161.836172,29.2019202 L172.145238,32.0415694 C176.655926,33.2840458 180.033184,37.03487 180.797358,41.6507225 L182.543861,52.2001389 C183.018771,55.0687416 184.519073,57.6673411 186.765901,59.5129264 L195.028712,66.30015 C198.64407,69.269871 200.203751,74.0700737 199.024423,78.5976826 L196.329098,88.9454205 C195.596184,91.7591828 195.909832,94.7433493 197.211744,97.3432427 L201.999586,106.904468 C204.094485,111.087942 203.566906,116.107524 200.647992,119.764025 L193.976886,128.120867 C192.162875,130.393263 191.235637,133.247008 191.367522,136.151664 L191.852531,146.833668 C192.064746,151.507534 189.54113,155.878565 185.387336,158.031715 L175.893944,162.952687 C173.312496,164.2908 171.3047,166.520683 170.243752,169.227861 L166.342067,179.183629 C164.634902,183.539733 160.551606,186.506422 155.881161,186.783922 L145.206977,187.418143 C142.304447,187.5906 139.563259,188.811056 137.492926,190.852659 L129.879185,198.360748 C126.547824,201.64588 121.610886,202.695259 117.231354,201.049127 L107.22204,197.286935 C104.500302,196.263917 101.499698,196.263917 98.7779602,197.286935 Z" id="Star-2" stroke="#2F3061" stroke-width="2" fill="#FFC759" fill-rule="nonzero" stroke-linecap="round" stroke-linejoin="round"></path>
                            <circle id="Oval-6" fill="#FFA733" fill-rule="nonzero" cx="103" cy="103" r="80"></circle>
                        </g>
                        <g id="Group" stroke="none" stroke-width="1" fill="none" fill-rule="evenodd" transform="translate(373.697011, 450.204893) rotate(-15.000000) translate(-373.697011, -450.204893) translate(245.197011, 243.204893)">
                            <path d="M168.983782,257.432985 L169.136089,257.427835 C171.361145,257.522388 173.529134,256.697783 175.134964,255.091953 L182.728458,247.498459 C186.46798,243.758937 186.46798,237.695975 182.728458,233.956453 C178.995906,230.223901 172.946891,230.216215 169.205195,233.93776 L168.5,234.639157 L167.794805,233.93776 C164.053109,230.216215 158.004094,230.223901 154.271542,233.956453 C150.53202,237.695975 150.53202,243.758937 154.271542,247.498459 L161.62483,254.851747 C163.583076,256.809992 166.282908,257.731484 168.983782,257.432985 Z" id="Combined-Shape" stroke="#2F3061" stroke-width="2" fill="#FF6B6B" fill-rule="nonzero"></path>
                            <polyline id="Triangle" stroke="#2F3061" stroke-width="2" stroke-linecap="round" stroke-linejoin="round" fill-rule="nonzero" points="66 301 126 91 126 91 186 301"></polyline>
                            <path d="M97.5624484,228.7727 L97.7146121,228.689409 C98.7277012,228.244281 99.6543062,227.612766 100.4549,226.812173 L107.064556,220.202516 C110.771106,216.495966 110.771106,210.486462 107.064556,206.779912 C103.358007,203.073363 97.3485024,203.073363 93.6419527,206.779912 L92.9222343,207.499631 L92.202516,206.779912 C88.4959663,203.073363 82.4864619,203.073363 78.7799122,206.779912 C75.0733626,210.486462 75.0733626,216.495966 78.7799122,220.202516 L86.2164471,227.639051 C89.2625679,230.685172 94.0219404,231.131346 97.5624484,228.7727 Z" id="Combined-Shape" stroke="#2F3061" stroke-width="2" fill="#FF6B6B" fill-rule="nonzero"></path>
                            <path d="M91.5951121,215.488905 C91.5951121,215.488905 95.5608069,215.01339 97.3664877,218.67861" id="Stroke-1" stroke="#2F3061" stroke-width="2" stroke-linecap="round" stroke-linejoin="round" transform="translate(94.480800, 217.073666) scale(-1, -1) rotate(30.000000) translate(-94.480800, -217.073666) "></path>
                            <path d="M122.334022,224.694014 L122.463898,224.745576 C125.500394,226.204333 129.164742,225.610331 131.585943,223.18913 L228.02031,126.754763 C256.813107,97.9619657 256.813107,51.2796178 228.02031,22.4868205 C200.109945,-5.42354459 155.198429,-6.36858909 126.174809,20.1701356 L125.5,20.7871696 L124.825191,20.1701356 C95.8015706,-6.36858909 50.8900555,-5.42354459 22.9796904,22.4868205 C-5.81310687,51.2796178 -5.81310687,97.9619657 22.9796904,126.754763 L118.70695,222.482023 C119.737795,223.512867 120.976746,224.262233 122.334022,224.694014 Z" id="Combined-Shape" stroke="#2F3061" stroke-width="2" fill="#FF6B6B" fill-rule="nonzero"></path>
                            <path d="M24.4874356,43.090539 C35.5364356,34.8267284 45.9634356,35.0245835 49.1024356,34.8267284" id="Stroke-1" stroke="#2F3061" stroke-width="2" stroke-linecap="round" stroke-linejoin="round" transform="translate(36.794936, 38.958634) rotate(-30.000000) translate(-36.794936, -38.958634) "></path>
                            <path d="M51.5807198,171.84294 L51.6826752,171.769234 L51.7997099,171.723079 C52.9355774,171.275126 53.9725414,170.597751 54.8562141,169.714078 L67.4863219,157.083971 C72.9958634,151.574429 72.9958634,142.641698 67.4863219,137.132156 C61.9767804,131.622615 53.0440488,131.622615 47.5345073,137.132156 L46.809239,137.857424 L46.0839707,137.132156 C40.5744292,131.622615 31.6416976,131.622615 26.1321561,137.132156 C20.6226146,142.641698 20.6226146,151.574429 26.1321561,157.083971 L39.9530249,170.904839 C43.0883922,174.040207 48.0261822,174.412585 51.5807198,171.84294 Z" id="Combined-Shape" stroke="#2F3061" stroke-width="2" fill="#FF6B6B" fill-rule="nonzero"></path>
                            <path d="M29.5787716,148.478643 C29.9037716,149.998643 30.2647716,151.564643 30.6617716,153.167643" id="Stroke-1" stroke="#2F3061" stroke-width="2" stroke-linecap="round" stroke-linejoin="round" transform="translate(30.120272, 150.823143) rotate(-20.000000) translate(-30.120272, -150.823143) "></path>
                            <path d="M36.7191898,156.603569 C37.0441898,158.123569 37.4051898,159.689569 37.8021898,161.292569" id="Stroke-1" stroke="#2F3061" stroke-width="2" stroke-linecap="round" stroke-linejoin="round" transform="translate(37.260690, 158.948069) rotate(-26.000000) translate(-37.260690, -158.948069) "></path>
                            <path d="M224.454624,122.677288 L224.597497,122.561088 L224.772391,122.503408 C226.09475,122.067294 227.301527,121.328416 228.309327,120.320616 L249.863438,98.7665051 C258.045521,90.5844223 258.045521,77.3186449 249.863438,69.1365621 C241.681355,60.9544793 228.415578,60.9544793 220.233495,69.1365621 L219.5,69.870057 L218.766505,69.1365621 C210.584422,60.9544793 197.318645,60.9544793 189.136562,69.1365621 C180.954479,77.3186449 180.954479,90.5844223 189.136562,98.7665051 L212.420811,122.050754 C215.689901,125.319844 220.895801,125.57173 224.454624,122.677288 Z" id="Combined-Shape" stroke="#2F3061" stroke-width="2" fill="#FF6B6B" fill-rule="nonzero"></path>
                            <path d="M203.684772,84.677786 C204.231927,78.4306253 200.729569,74.2530658 193.440556,72.1123908" id="Stroke-1" stroke="#2F3061" stroke-width="2" stroke-linecap="round" stroke-linejoin="round" transform="translate(198.590428, 78.395088) scale(-1, 1) translate(-198.590428, -78.395088) "></path>
                            <path d="M53,330 L198,330 L198,399 C198,407.284271 191.284271,414 183,414 L68,414 C59.7157288,414 53,407.284271 53,399 L53,330 Z" id="Rectangle-2" stroke="#2F3061" stroke-width="2" fill="#986239" fill-rule="nonzero"></path>
                            <rect id="Rectangle-2" stroke="#2F3061" stroke-width="2" fill="#986239" fill-rule="nonzero" x="38" y="301" width="175" height="30" rx="15"></rect>
                        </g>
                        <path d="M36,1 C33.2385763,1 31,3.23857625 31,6 L31,623 C31,625.761424 33.2385763,628 36,628 L485,628 C487.761424,628 490,625.761424 490,623 L490,6 C490,3.23857625 487.761424,1 485,1 L36,1 Z" id="border" stroke="#2F3061" stroke-width="2" fill="none"></path>
                    </g>
                </g>
            </g>
        </g>
    </g>
</svg>