<?xml version="1.0" encoding="UTF-8"?>
<svg width="142px" height="162px" viewBox="0 0 142 162" version="1.1" xmlns="http://www.w3.org/2000/svg" xmlns:xlink="http://www.w3.org/1999/xlink">
    <!-- Generator: Sketch 52.6 (67491) - http://www.bohemiancoding.com/sketch -->
    <title>Custom Preset</title>
    <desc>Created with Sketch.</desc>
    <defs>
        <path d="M0.753,70.487 C0.753,108.163 30.517,138.887 67.815,140.426 C68.746,140.463 69.678,140.482 70.617,140.482 C109.277,140.482 140.617,109.142 140.617,70.482 C140.617,32.622 110.557,1.782 73.004,0.522 C72.257,0.498 71.506,0.487 70.753,0.487 C32.092,0.487 0.753,31.827 0.753,70.487" id="path-1"></path>
        <path d="M0.753,70.487 C0.753,108.163 30.517,138.887 67.815,140.426 C68.746,140.463 69.678,140.482 70.617,140.482 C109.277,140.482 140.617,109.142 140.617,70.482 C140.617,32.622 110.557,1.782 73.004,0.522 C72.257,0.498 71.506,0.487 70.753,0.487 C32.092,0.487 0.753,31.827 0.753,70.487" id="path-3"></path>
        <path d="M0.753,70.487 C0.753,108.163 30.517,138.887 67.815,140.426 C68.746,140.463 69.678,140.482 70.617,140.482 C109.277,140.482 140.617,109.142 140.617,70.482 C140.617,32.622 110.557,1.782 73.004,0.522 C72.257,0.498 71.506,0.487 70.753,0.487 C32.092,0.487 0.753,31.827 0.753,70.487" id="path-5"></path>
        <path d="M0.753,70.487 C0.753,108.163 30.517,138.887 67.815,140.426 C68.746,140.463 69.678,140.482 70.617,140.482 C109.277,140.482 140.617,109.142 140.617,70.482 C140.617,32.622 110.557,1.782 73.004,0.522 C72.257,0.498 71.506,0.487 70.753,0.487 C32.092,0.487 0.753,31.827 0.753,70.487" id="path-7"></path>
        <path d="M0.753,70.487 C0.753,108.163 30.517,138.887 67.815,140.426 C68.746,140.463 69.678,140.482 70.617,140.482 C109.277,140.482 140.617,109.142 140.617,70.482 C140.617,32.622 110.557,1.782 73.004,0.522 C72.257,0.498 71.506,0.487 70.753,0.487 C32.092,0.487 0.753,31.827 0.753,70.487" id="path-9"></path>
        <path d="M0.753,70.487 C0.753,108.163 30.517,138.887 67.815,140.426 C68.746,140.463 69.678,140.482 70.617,140.482 C109.277,140.482 140.617,109.142 140.617,70.482 C140.617,32.622 110.557,1.782 73.004,0.522 C72.257,0.498 71.506,0.487 70.753,0.487 C32.092,0.487 0.753,31.827 0.753,70.487" id="path-11"></path>
        <path d="M0.753,70.487 C0.753,108.163 30.517,138.887 67.815,140.426 C68.746,140.463 69.678,140.482 70.617,140.482 C109.277,140.482 140.617,109.142 140.617,70.482 C140.617,32.622 110.557,1.782 73.004,0.522 C72.257,0.498 71.506,0.487 70.753,0.487 C32.092,0.487 0.753,31.827 0.753,70.487" id="path-13"></path>
        <path d="M0.753,70.487 C0.753,108.163 30.517,138.887 67.815,140.426 C68.746,140.463 69.678,140.482 70.617,140.482 C109.277,140.482 140.617,109.142 140.617,70.482 C140.617,32.622 110.557,1.782 73.004,0.522 C72.257,0.498 71.506,0.487 70.753,0.487 C32.092,0.487 0.753,31.827 0.753,70.487" id="path-15"></path>
        <path d="M0.753,70.487 C0.753,108.163 30.517,138.887 67.815,140.426 C68.746,140.463 69.678,140.482 70.617,140.482 C109.277,140.482 140.617,109.142 140.617,70.482 C140.617,32.622 110.557,1.782 73.004,0.522 C72.257,0.498 71.506,0.487 70.753,0.487 C32.092,0.487 0.753,31.827 0.753,70.487" id="path-17"></path>
        <path d="M0.753,70.487 C0.753,108.163 30.517,138.887 67.815,140.426 C68.746,140.463 69.678,140.482 70.617,140.482 C109.277,140.482 140.617,109.142 140.617,70.482 C140.617,32.622 110.557,1.782 73.004,0.522 C72.257,0.498 71.506,0.487 70.753,0.487 C32.092,0.487 0.753,31.827 0.753,70.487" id="path-19"></path>
        <path d="M0.753,70.487 C0.753,108.163 30.517,138.887 67.815,140.426 C68.746,140.463 69.678,140.482 70.617,140.482 C109.277,140.482 140.617,109.142 140.617,70.482 C140.617,32.622 110.557,1.782 73.004,0.522 C72.257,0.498 71.506,0.487 70.753,0.487 C32.092,0.487 0.753,31.827 0.753,70.487" id="path-21"></path>
        <path d="M0.753,70.487 C0.753,108.163 30.517,138.887 67.815,140.426 C68.746,140.463 69.678,140.482 70.617,140.482 C109.277,140.482 140.617,109.142 140.617,70.482 C140.617,32.622 110.557,1.782 73.004,0.522 C72.257,0.498 71.506,0.487 70.753,0.487 C32.092,0.487 0.753,31.827 0.753,70.487" id="path-23"></path>
        <path d="M0.753,70.487 C0.753,108.163 30.517,138.887 67.815,140.426 C68.746,140.463 69.678,140.482 70.617,140.482 C109.277,140.482 140.617,109.142 140.617,70.482 C140.617,32.622 110.557,1.782 73.004,0.522 C72.257,0.498 71.506,0.487 70.753,0.487 C32.092,0.487 0.753,31.827 0.753,70.487" id="path-25"></path>
        <path d="M0.753,70.487 C0.753,108.163 30.517,138.887 67.815,140.426 C68.746,140.463 69.678,140.482 70.617,140.482 C109.277,140.482 140.617,109.142 140.617,70.482 C140.617,32.622 110.557,1.782 73.004,0.522 C72.257,0.498 71.506,0.487 70.753,0.487 C32.092,0.487 0.753,31.827 0.753,70.487" id="path-27"></path>
        <path d="M0.753,70.487 C0.753,108.163 30.517,138.887 67.815,140.426 C68.746,140.463 69.678,140.482 70.617,140.482 C109.277,140.482 140.617,109.142 140.617,70.482 C140.617,32.622 110.557,1.782 73.004,0.522 C72.257,0.498 71.506,0.487 70.753,0.487 C32.092,0.487 0.753,31.827 0.753,70.487" id="path-29"></path>
        <path d="M0.753,70.487 C0.753,108.163 30.517,138.887 67.815,140.426 C68.746,140.463 69.678,140.482 70.617,140.482 C109.277,140.482 140.617,109.142 140.617,70.482 C140.617,32.622 110.557,1.782 73.004,0.522 C72.257,0.498 71.506,0.487 70.753,0.487 C32.092,0.487 0.753,31.827 0.753,70.487" id="path-31"></path>
        <path d="M0.753,70.487 C0.753,108.163 30.517,138.887 67.815,140.426 C68.746,140.463 69.678,140.482 70.617,140.482 C109.277,140.482 140.617,109.142 140.617,70.482 C140.617,32.622 110.557,1.782 73.004,0.522 C72.257,0.498 71.506,0.487 70.753,0.487 C32.092,0.487 0.753,31.827 0.753,70.487" id="path-33"></path>
        <path d="M0.753,70.487 C0.753,108.163 30.517,138.887 67.815,140.426 C68.746,140.463 69.678,140.482 70.617,140.482 C109.277,140.482 140.617,109.142 140.617,70.482 C140.617,32.622 110.557,1.782 73.004,0.522 C72.257,0.498 71.506,0.487 70.753,0.487 C32.092,0.487 0.753,31.827 0.753,70.487" id="path-35"></path>
        <path d="M0.753,70.487 C0.753,108.163 30.517,138.887 67.815,140.426 C68.746,140.463 69.678,140.482 70.617,140.482 C109.277,140.482 140.617,109.142 140.617,70.482 C140.617,32.622 110.557,1.782 73.004,0.522 C72.257,0.498 71.506,0.487 70.753,0.487 C32.092,0.487 0.753,31.827 0.753,70.487" id="path-37"></path>
        <path d="M0.753,70.487 C0.753,108.163 30.517,138.887 67.815,140.426 C68.746,140.463 69.678,140.482 70.617,140.482 C109.277,140.482 140.617,109.142 140.617,70.482 C140.617,32.622 110.557,1.782 73.004,0.522 C72.257,0.498 71.506,0.487 70.753,0.487 C32.092,0.487 0.753,31.827 0.753,70.487" id="path-39"></path>
        <path d="M0.753,70.487 C0.753,108.163 30.517,138.887 67.815,140.426 C68.746,140.463 69.678,140.482 70.617,140.482 C109.277,140.482 140.617,109.142 140.617,70.482 C140.617,32.622 110.557,1.782 73.004,0.522 C72.257,0.498 71.506,0.487 70.753,0.487 C32.092,0.487 0.753,31.827 0.753,70.487" id="path-41"></path>
        <path d="M0.753,70.487 C0.753,108.163 30.517,138.887 67.815,140.426 C68.746,140.463 69.678,140.482 70.617,140.482 C109.277,140.482 140.617,109.142 140.617,70.482 C140.617,32.622 110.557,1.782 73.004,0.522 C72.257,0.498 71.506,0.487 70.753,0.487 C32.092,0.487 0.753,31.827 0.753,70.487" id="path-43"></path>
        <path d="M0.617,70.482 C0.617,109.142 31.957,140.482 70.617,140.482 C109.277,140.482 140.617,109.142 140.617,70.482 C140.617,31.822 109.277,0.482 70.617,0.482 C31.957,0.482 0.617,31.822 0.617,70.482" id="path-45"></path>
        <path d="M0.617,70.482 C0.617,109.142 31.957,140.482 70.617,140.482 C109.277,140.482 140.617,109.142 140.617,70.482 C140.617,31.822 109.277,0.482 70.617,0.482 C31.957,0.482 0.617,31.822 0.617,70.482" id="path-47"></path>
        <path d="M0.617,70.482 C0.617,109.142 31.957,140.482 70.617,140.482 C109.277,140.482 140.617,109.142 140.617,70.482 C140.617,31.822 109.277,0.482 70.617,0.482 C31.957,0.482 0.617,31.822 0.617,70.482" id="path-49"></path>
        <path d="M0.617,70.482 C0.617,109.142 31.957,140.482 70.617,140.482 C109.277,140.482 140.617,109.142 140.617,70.482 C140.617,31.822 109.277,0.482 70.617,0.482 C31.957,0.482 0.617,31.822 0.617,70.482 Z" id="path-51"></path>
        <path d="M0.617,70.482 C0.617,109.142 31.957,140.482 70.617,140.482 C109.277,140.482 140.617,109.142 140.617,70.482 C140.617,31.822 109.277,0.482 70.617,0.482 C31.957,0.482 0.617,31.822 0.617,70.482 Z" id="path-53"></path>
        <path d="M19.403,0.853 C9.013,0.853 0.592,9.275 0.592,19.663 L0.592,42.1 C0.592,48.212 5.544,53.164 11.655,53.164 L29.566,53.164 C35.675,53.164 40.63,48.212 40.63,42.1 L40.63,19.663 C40.63,9.275 32.207,0.853 21.818,0.853 L19.403,0.853 Z" id="path-55"></path>
        <path d="M0.617,70.482 C0.617,109.142 31.957,140.482 70.617,140.482 C109.277,140.482 140.617,109.142 140.617,70.482 C140.617,31.822 109.277,0.482 70.617,0.482 C31.957,0.482 0.617,31.822 0.617,70.482 Z" id="path-57"></path>
        <path d="M0.617,70.482 C0.617,109.142 31.957,140.482 70.617,140.482 C109.277,140.482 140.617,109.142 140.617,70.482 C140.617,31.822 109.277,0.482 70.617,0.482 C31.957,0.482 0.617,31.822 0.617,70.482 Z" id="path-59"></path>
        <path d="M0.617,70.482 C0.617,109.142 31.957,140.482 70.617,140.482 C109.277,140.482 140.617,109.142 140.617,70.482 C140.617,31.822 109.277,0.482 70.617,0.482 C31.957,0.482 0.617,31.822 0.617,70.482 Z" id="path-61"></path>
        <path d="M0.617,70.482 C0.617,109.142 31.957,140.482 70.617,140.482 C109.277,140.482 140.617,109.142 140.617,70.482 C140.617,31.822 109.277,0.482 70.617,0.482 C31.957,0.482 0.617,31.822 0.617,70.482" id="path-63"></path>
        <path d="M0.371,5.19 L0.371,32.704 C0.371,35.045 2.269,36.943 4.61,36.943 C6.951,36.943 8.849,35.045 8.849,32.704 L8.849,5.19 C8.849,2.85 6.951,0.951 4.61,0.951 C2.269,0.951 0.371,2.85 0.371,5.19 Z" id="path-65"></path>
        <path d="M0.617,70.482 C0.617,109.142 31.957,140.482 70.617,140.482 C109.277,140.482 140.617,109.142 140.617,70.482 C140.617,31.822 109.277,0.482 70.617,0.482 C31.957,0.482 0.617,31.822 0.617,70.482 Z" id="path-67"></path>
        <path d="M0.617,70.482 C0.617,109.142 31.957,140.482 70.617,140.482 C109.277,140.482 140.617,109.142 140.617,70.482 C140.617,31.822 109.277,0.482 70.617,0.482 C31.957,0.482 0.617,31.822 0.617,70.482" id="path-69"></path>
        <path d="M0.617,70.482 C0.617,109.142 31.957,140.482 70.617,140.482 C109.277,140.482 140.617,109.142 140.617,70.482 C140.617,31.822 109.277,0.482 70.617,0.482 C31.957,0.482 0.617,31.822 0.617,70.482 Z" id="path-71"></path>
        <path d="M0.617,70.482 C0.617,109.142 31.957,140.482 70.617,140.482 C109.277,140.482 140.617,109.142 140.617,70.482 C140.617,31.822 109.277,0.482 70.617,0.482 C31.957,0.482 0.617,31.822 0.617,70.482" id="path-73"></path>
        <path d="M0.617,70.482 C0.617,109.142 31.957,140.482 70.617,140.482 C109.277,140.482 140.617,109.142 140.617,70.482 C140.617,31.822 109.277,0.482 70.617,0.482 C31.957,0.482 0.617,31.822 0.617,70.482 Z" id="path-75"></path>
        <path d="M0.617,70.482 C0.617,109.142 31.957,140.482 70.617,140.482 C109.277,140.482 140.617,109.142 140.617,70.482 C140.617,31.822 109.277,0.482 70.617,0.482 C31.957,0.482 0.617,31.822 0.617,70.482" id="path-77"></path>
        <path d="M0.617,70.482 C0.617,109.142 31.957,140.482 70.617,140.482 C109.277,140.482 140.617,109.142 140.617,70.482 C140.617,31.822 109.277,0.482 70.617,0.482 C31.957,0.482 0.617,31.822 0.617,70.482 Z" id="path-79"></path>
        <path d="M0.617,70.482 C0.617,109.142 31.957,140.482 70.617,140.482 C109.277,140.482 140.617,109.142 140.617,70.482 C140.617,31.822 109.277,0.482 70.617,0.482 C31.957,0.482 0.617,31.822 0.617,70.482 Z" id="path-81"></path>
        <path d="M0.617,70.482 C0.617,109.142 31.957,140.482 70.617,140.482 C109.277,140.482 140.617,109.142 140.617,70.482 C140.617,31.822 109.277,0.482 70.617,0.482 C31.957,0.482 0.617,31.822 0.617,70.482 Z" id="path-83"></path>
        <path d="M0.617,70.482 C0.617,109.142 31.957,140.482 70.617,140.482 C109.277,140.482 140.617,109.142 140.617,70.482 C140.617,31.822 109.277,0.482 70.617,0.482 C31.957,0.482 0.617,31.822 0.617,70.482" id="path-85"></path>
        <path d="M0.617,70.482 C0.617,109.142 31.957,140.482 70.617,140.482 C109.277,140.482 140.617,109.142 140.617,70.482 C140.617,31.822 109.277,0.482 70.617,0.482 C31.957,0.482 0.617,31.822 0.617,70.482 Z" id="path-87"></path>
        <path d="M0.617,70.482 C0.617,109.142 31.957,140.482 70.617,140.482 C109.277,140.482 140.617,109.142 140.617,70.482 C140.617,31.822 109.277,0.482 70.617,0.482 C31.957,0.482 0.617,31.822 0.617,70.482 Z" id="path-89"></path>
        <path d="M0.617,70.482 C0.617,109.142 31.957,140.482 70.617,140.482 C109.277,140.482 140.617,109.142 140.617,70.482 C140.617,31.822 109.277,0.482 70.617,0.482 C31.957,0.482 0.617,31.822 0.617,70.482 Z" id="path-91"></path>
        <path d="M0.617,70.482 C0.617,109.142 31.957,140.482 70.617,140.482 C109.277,140.482 140.617,109.142 140.617,70.482 C140.617,31.822 109.277,0.482 70.617,0.482 C31.957,0.482 0.617,31.822 0.617,70.482 Z" id="path-93"></path>
        <path d="M0.617,70.482 C0.617,109.142 31.957,140.482 70.617,140.482 C109.277,140.482 140.617,109.142 140.617,70.482 C140.617,31.822 109.277,0.482 70.617,0.482 C31.957,0.482 0.617,31.822 0.617,70.482 Z" id="path-95"></path>
        <path d="M0.617,70.482 C0.617,109.142 31.957,140.482 70.617,140.482 C109.277,140.482 140.617,109.142 140.617,70.482 C140.617,31.822 109.277,0.482 70.617,0.482 C31.957,0.482 0.617,31.822 0.617,70.482 Z" id="path-97"></path>
        <path d="M0.617,70.482 C0.617,109.142 31.957,140.482 70.617,140.482 C109.277,140.482 140.617,109.142 140.617,70.482 C140.617,31.822 109.277,0.482 70.617,0.482 C31.957,0.482 0.617,31.822 0.617,70.482 Z" id="path-99"></path>
        <path d="M0.617,70.482 C0.617,109.142 31.957,140.482 70.617,140.482 C109.277,140.482 140.617,109.142 140.617,70.482 C140.617,31.822 109.277,0.482 70.617,0.482 C31.957,0.482 0.617,31.822 0.617,70.482 Z" id="path-101"></path>
    </defs>
    <g id="Custom-Preset" stroke="none" stroke-width="1" fill="none" fill-rule="evenodd">
        <g id="Page-1" transform="translate(0.000000, 17.000000)">
            <path d="M140.6168,73.5078 C140.6168,112.1678 109.2768,143.5078 70.6168,143.5078 C31.9568,143.5078 0.6168,112.1678 0.6168,73.5078 C0.6168,34.8478 31.9568,3.5078 70.6168,3.5078 C109.2768,3.5078 140.6168,34.8478 140.6168,73.5078" id="Fill-1" fill="#ECECF0"></path>
            <g id="Group-69" transform="translate(0.000000, 3.026000)">
                <g id="Group-5">
                    <mask id="mask-2" fill="white">
                        <use xlink:href="#path-1"></use>
                    </mask>
                    <g id="Clip-4"></g>
                    <path d="M42.6725,-16.673 L-131.6465,157.646" id="Stroke-3" stroke="#DFDFE8" mask="url(#mask-2)"></path>
                </g>
                <g id="Group-8">
                    <mask id="mask-4" fill="white">
                        <use xlink:href="#path-3"></use>
                    </mask>
                    <g id="Clip-7"></g>
                    <path d="M54.0836,-16.673 L-120.2344,157.646" id="Stroke-6" stroke="#DFDFE8" mask="url(#mask-4)"></path>
                </g>
                <g id="Group-11">
                    <mask id="mask-6" fill="white">
                        <use xlink:href="#path-5"></use>
                    </mask>
                    <g id="Clip-10"></g>
                    <path d="M65.4957,-16.673 L-108.8233,157.646" id="Stroke-9" stroke="#DFDFE8" mask="url(#mask-6)"></path>
                </g>
                <g id="Group-14">
                    <mask id="mask-8" fill="white">
                        <use xlink:href="#path-7"></use>
                    </mask>
                    <g id="Clip-13"></g>
                    <path d="M76.9069,-16.673 L-97.4121,157.646" id="Stroke-12" stroke="#DFDFE8" mask="url(#mask-8)"></path>
                </g>
                <g id="Group-17">
                    <mask id="mask-10" fill="white">
                        <use xlink:href="#path-9"></use>
                    </mask>
                    <g id="Clip-16"></g>
                    <path d="M88.318,-16.673 L-86.001,157.646" id="Stroke-15" stroke="#DFDFE8" mask="url(#mask-10)"></path>
                </g>
                <g id="Group-20">
                    <mask id="mask-12" fill="white">
                        <use xlink:href="#path-11"></use>
                    </mask>
                    <g id="Clip-19"></g>
                    <path d="M99.7291,-16.673 L-74.5899,157.646" id="Stroke-18" stroke="#DFDFE8" mask="url(#mask-12)"></path>
                </g>
                <g id="Group-23">
                    <mask id="mask-14" fill="white">
                        <use xlink:href="#path-13"></use>
                    </mask>
                    <g id="Clip-22"></g>
                    <path d="M111.1403,-16.673 L-63.1787,157.646" id="Stroke-21" stroke="#DFDFE8" mask="url(#mask-14)"></path>
                </g>
                <g id="Group-26">
                    <mask id="mask-16" fill="white">
                        <use xlink:href="#path-15"></use>
                    </mask>
                    <g id="Clip-25"></g>
                    <path d="M122.5514,-16.673 L-51.7666,157.646" id="Stroke-24" stroke="#DFDFE8" mask="url(#mask-16)"></path>
                </g>
                <g id="Group-29">
                    <mask id="mask-18" fill="white">
                        <use xlink:href="#path-17"></use>
                    </mask>
                    <g id="Clip-28"></g>
                    <path d="M133.9635,-16.673 L-40.3555,157.646" id="Stroke-27" stroke="#DFDFE8" mask="url(#mask-18)"></path>
                </g>
                <g id="Group-32">
                    <mask id="mask-20" fill="white">
                        <use xlink:href="#path-19"></use>
                    </mask>
                    <g id="Clip-31"></g>
                    <path d="M145.3746,-16.673 L-28.9444,157.646" id="Stroke-30" stroke="#DFDFE8" mask="url(#mask-20)"></path>
                </g>
                <g id="Group-35">
                    <mask id="mask-22" fill="white">
                        <use xlink:href="#path-21"></use>
                    </mask>
                    <g id="Clip-34"></g>
                    <path d="M156.7858,-16.673 L-17.5332,157.646" id="Stroke-33" stroke="#DFDFE8" mask="url(#mask-22)"></path>
                </g>
                <g id="Group-38">
                    <mask id="mask-24" fill="white">
                        <use xlink:href="#path-23"></use>
                    </mask>
                    <g id="Clip-37"></g>
                    <path d="M168.1969,-16.673 L-6.1221,157.646" id="Stroke-36" stroke="#DFDFE8" mask="url(#mask-24)"></path>
                </g>
                <g id="Group-41">
                    <mask id="mask-26" fill="white">
                        <use xlink:href="#path-25"></use>
                    </mask>
                    <g id="Clip-40"></g>
                    <path d="M179.608,-16.673 L5.289,157.646" id="Stroke-39" stroke="#DFDFE8" mask="url(#mask-26)"></path>
                </g>
                <g id="Group-44">
                    <mask id="mask-28" fill="white">
                        <use xlink:href="#path-27"></use>
                    </mask>
                    <g id="Clip-43"></g>
                    <path d="M191.0201,-16.673 L16.7011,157.646" id="Stroke-42" stroke="#DFDFE8" mask="url(#mask-28)"></path>
                </g>
                <g id="Group-47">
                    <mask id="mask-30" fill="white">
                        <use xlink:href="#path-29"></use>
                    </mask>
                    <g id="Clip-46"></g>
                    <path d="M202.4313,-16.673 L28.1123,157.646" id="Stroke-45" stroke="#DFDFE8" mask="url(#mask-30)"></path>
                </g>
                <g id="Group-50">
                    <mask id="mask-32" fill="white">
                        <use xlink:href="#path-31"></use>
                    </mask>
                    <g id="Clip-49"></g>
                    <path d="M213.8424,-16.673 L39.5234,157.646" id="Stroke-48" stroke="#DFDFE8" mask="url(#mask-32)"></path>
                </g>
                <g id="Group-53">
                    <mask id="mask-34" fill="white">
                        <use xlink:href="#path-33"></use>
                    </mask>
                    <g id="Clip-52"></g>
                    <path d="M225.2535,-16.673 L50.9345,157.646" id="Stroke-51" stroke="#DFDFE8" mask="url(#mask-34)"></path>
                </g>
                <g id="Group-56">
                    <mask id="mask-36" fill="white">
                        <use xlink:href="#path-35"></use>
                    </mask>
                    <g id="Clip-55"></g>
                    <path d="M236.6647,-16.673 L62.3457,157.646" id="Stroke-54" stroke="#DFDFE8" mask="url(#mask-36)"></path>
                </g>
                <g id="Group-59">
                    <mask id="mask-38" fill="white">
                        <use xlink:href="#path-37"></use>
                    </mask>
                    <g id="Clip-58"></g>
                    <path d="M248.0758,-16.673 L73.7568,157.646" id="Stroke-57" stroke="#DFDFE8" mask="url(#mask-38)"></path>
                </g>
                <g id="Group-62">
                    <mask id="mask-40" fill="white">
                        <use xlink:href="#path-39"></use>
                    </mask>
                    <g id="Clip-61"></g>
                    <path d="M259.4879,-16.673 L85.1689,157.646" id="Stroke-60" stroke="#DFDFE8" mask="url(#mask-40)"></path>
                </g>
                <g id="Group-65">
                    <mask id="mask-42" fill="white">
                        <use xlink:href="#path-41"></use>
                    </mask>
                    <g id="Clip-64"></g>
                    <path d="M270.899,-16.673 L96.58,157.646" id="Stroke-63" stroke="#DFDFE8" mask="url(#mask-42)"></path>
                </g>
                <g id="Group-68">
                    <mask id="mask-44" fill="white">
                        <use xlink:href="#path-43"></use>
                    </mask>
                    <g id="Clip-67"></g>
                    <path d="M282.3102,-16.673 L107.9912,157.646" id="Stroke-66" stroke="#DFDFE8" mask="url(#mask-44)"></path>
                </g>
            </g>
            <g id="Group-137" transform="translate(0.000000, 3.026000)">
                <g id="Group-72">
                    <mask id="mask-46" fill="white">
                        <use xlink:href="#path-45"></use>
                    </mask>
                    <g id="Clip-71"></g>
                    <path d="M61.7663,91.368 C61.7663,92.017 61.2403,92.543 60.5913,92.543 L42.0313,92.543 C41.3823,92.543 40.8563,92.017 40.8563,91.368 C40.8563,90.719 41.3823,90.193 42.0313,90.193 C44.7143,90.193 47.0243,87.299 47.5503,84.667 L48.6463,79.183 L53.9763,79.183 L55.0723,84.667 C55.5973,87.299 57.9083,90.193 60.5913,90.193 C61.2403,90.193 61.7663,90.719 61.7663,91.368" id="Fill-70" fill="#2F3061" mask="url(#mask-46)"></path>
                </g>
                <g id="Group-75">
                    <mask id="mask-48" fill="white">
                        <use xlink:href="#path-47"></use>
                    </mask>
                    <g id="Clip-74"></g>
                    <path d="M80.2487,83.3631 L22.3767,83.3631 C19.5457,83.3631 17.2507,81.0681 17.2507,78.2381 L17.2507,41.4111 C17.2507,38.5811 19.5457,36.2861 22.3767,36.2861 L80.2487,36.2861 C83.0787,36.2861 85.3737,38.5811 85.3737,41.4111 L85.3737,78.2381 C85.3737,81.0681 83.0787,83.3631 80.2487,83.3631" id="Fill-73" fill="#2F3061" mask="url(#mask-48)"></path>
                </g>
                <g id="Group-78">
                    <mask id="mask-50" fill="white">
                        <use xlink:href="#path-49"></use>
                    </mask>
                    <g id="Clip-77"></g>
                    <path d="M79.9186,79.8631 L22.7056,79.8631 C21.6256,79.8631 20.7506,78.9881 20.7506,77.9081 L20.7506,41.7411 C20.7506,40.6611 21.6256,39.7861 22.7056,39.7861 L79.9186,39.7861 C80.9986,39.7861 81.8736,40.6611 81.8736,41.7411 L81.8736,77.9081 C81.8736,78.9881 80.9986,79.8631 79.9186,79.8631" id="Fill-76" fill="#E2EFF3" mask="url(#mask-50)"></path>
                </g>
                <g id="Group-81">
                    <mask id="mask-52" fill="white">
                        <use xlink:href="#path-51"></use>
                    </mask>
                    <g id="Clip-80"></g>
                    <path d="M81.8737,42.4207 L20.7507,42.4207 L20.7507,41.6567 C20.7507,40.6237 21.5887,39.7857 22.6217,39.7857 L80.0027,39.7857 C81.0357,39.7857 81.8737,40.6237 81.8737,41.6567 L81.8737,42.4207 Z" id="Fill-79" fill="#B3B3C5" mask="url(#mask-52)"></path>
                </g>
                <mask id="mask-54" fill="white">
                    <use xlink:href="#path-53"></use>
                </mask>
                <g id="Clip-83"></g>
                <polygon id="Fill-82" fill="#E2EFF3" mask="url(#mask-54)" points="24.519 64.219 46.311 64.219 46.311 48.858 24.519 48.858"></polygon>
                <polygon id="Stroke-84" stroke="#B3B3C5" mask="url(#mask-54)" points="24.519 64.219 46.311 64.219 46.311 48.858 24.519 48.858"></polygon>
                <polygon id="Fill-85" fill="#B3B3C5" mask="url(#mask-54)" points="24.519 51.492 46.311 51.492 46.311 48.858 24.519 48.858"></polygon>
                <polygon id="Fill-86" fill="#E2EFF3" mask="url(#mask-54)" points="57.773 71.108 79.565 71.108 79.565 55.747 57.773 55.747"></polygon>
                <polygon id="Stroke-87" stroke="#B3B3C5" mask="url(#mask-54)" points="57.773 71.108 79.565 71.108 79.565 55.747 57.773 55.747"></polygon>
                <polygon id="Fill-88" fill="#B3B3C5" mask="url(#mask-54)" points="57.773 58.381 79.565 58.381 79.565 55.746 57.773 55.746"></polygon>
                <path d="M65.1452,76.0194 L37.4762,76.0194 C36.3382,76.0194 35.4152,75.0964 35.4152,73.9574 L35.4152,44.6584 L67.2072,44.6584 L67.2072,73.9574 C67.2072,75.0964 66.2842,76.0194 65.1452,76.0194" id="Fill-89" fill="#E2EFF3" mask="url(#mask-54)"></path>
                <path d="M65.1452,76.0194 L37.4762,76.0194 C36.3382,76.0194 35.4152,75.0964 35.4152,73.9574 L35.4152,44.6584 L67.2072,44.6584 L67.2072,73.9574 C67.2072,75.0964 66.2842,76.0194 65.1452,76.0194 Z" id="Stroke-90" stroke="#67688C" mask="url(#mask-54)"></path>
                <polygon id="Fill-91" fill="#67688C" mask="url(#mask-54)" points="35.415 47.293 67.207 47.293 67.207 44.658 35.415 44.658"></polygon>
                <polygon id="Fill-92" fill="#FFFFFF" mask="url(#mask-54)" points="40.532 75.48 62.089 75.48 62.089 51.492 40.532 51.492"></polygon>
                <path d="M42.7272,55.7464 L60.2842,55.7464" id="Stroke-93" stroke="#7A7B9A" stroke-dasharray="8,1,4,1,4,1" mask="url(#mask-54)"></path>
                <path d="M42.7272,58.5741 L60.2842,58.5741" id="Stroke-94" stroke="#7A7B9A" stroke-dasharray="6,1,2,1,8,1" mask="url(#mask-54)"></path>
                <path d="M42.7272,61.4012 L60.2842,61.4012" id="Stroke-95" stroke="#7A7B9A" stroke-dasharray="8,1,4,1,4,1" mask="url(#mask-54)"></path>
                <path d="M42.7272,64.2288 L60.2842,64.2288" id="Stroke-96" stroke="#7A7B9A" stroke-dasharray="6,1,2,1,8,1" mask="url(#mask-54)"></path>
                <path d="M42.7272,67.056 L60.2842,67.056" id="Stroke-97" stroke="#7A7B9A" stroke-dasharray="8,1,4,1,4,1" mask="url(#mask-54)"></path>
                <path d="M42.7272,69.8836 L60.2842,69.8836" id="Stroke-98" stroke="#7A7B9A" stroke-dasharray="6,1,2,1,8,1" mask="url(#mask-54)"></path>
                <path d="M42.7272,72.7108 L60.2842,72.7108" id="Stroke-99" stroke="#7A7B9A" stroke-dasharray="8,1,4,1,4,1" mask="url(#mask-54)"></path>
                <path d="M21.0592,90.5428 L-6.3758,90.5428 C-7.4798,90.5428 -8.3758,89.6478 -8.3758,88.5428 C-8.3758,87.4388 -7.4798,86.5428 -6.3758,86.5428 L21.0592,86.5428 C22.1642,86.5428 23.0592,87.4388 23.0592,88.5428 C23.0592,89.6478 22.1642,90.5428 21.0592,90.5428" id="Fill-100" fill="#E2EFF3" mask="url(#mask-54)"></path>
                <path d="M21.0592,90.5428 L-6.3758,90.5428 C-7.4798,90.5428 -8.3758,89.6478 -8.3758,88.5428 C-8.3758,87.4388 -7.4798,86.5428 -6.3758,86.5428 L21.0592,86.5428 C22.1642,86.5428 23.0592,87.4388 23.0592,88.5428 C23.0592,89.6478 22.1642,90.5428 21.0592,90.5428 Z" id="Stroke-101" stroke="#2F3061" stroke-width="2" mask="url(#mask-54)"></path>
                <path d="M33.0836,90.5428 L28.9006,90.5428 L28.9006,88.4518 C28.9006,87.2968 29.8376,86.3608 30.9916,86.3608 C32.1466,86.3608 33.0836,87.2968 33.0836,88.4518 L33.0836,90.5428 Z" id="Fill-102" fill="#E2EFF3" mask="url(#mask-54)"></path>
                <path d="M33.0836,90.5428 L28.9006,90.5428 L28.9006,88.4518 C28.9006,87.2968 29.8376,86.3608 30.9916,86.3608 C32.1466,86.3608 33.0836,87.2968 33.0836,88.4518 L33.0836,90.5428 Z" id="Stroke-103" stroke="#2F3061" stroke-width="2" mask="url(#mask-54)"></path>
                <path d="M143.1764,95.6917 L124.1554,95.6917 L132.8664,145.1117 C133.0064,146.0317 132.3764,146.9017 131.4464,147.0517 C130.5764,147.1917 129.7464,146.6217 129.5364,145.7817 L118.0164,95.6917 L-11.9256,95.6917 L-11.9256,90.5417 L143.1764,90.5417 L143.1764,95.6917 Z" id="Fill-104" fill="#E2EFF3" mask="url(#mask-54)"></path>
                <path d="M143.1764,95.6917 L124.1554,95.6917 L132.8664,145.1117 C133.0064,146.0317 132.3764,146.9017 131.4464,147.0517 C130.5764,147.1917 129.7464,146.6217 129.5364,145.7817 L118.0164,95.6917 L-11.9256,95.6917 L-11.9256,90.5417 L143.1764,90.5417 L143.1764,95.6917 Z" id="Stroke-105" stroke="#2F3061" stroke-width="2" stroke-linecap="round" stroke-linejoin="round" mask="url(#mask-54)"></path>
                <path d="M120.5758,65.7987 C119.7428,68.4457 121.2148,71.2667 123.8618,72.0987 C126.5088,72.9307 129.3298,71.4597 130.1618,68.8127 C130.9938,66.1657 130.4138,60.5107 127.7658,59.6787 C125.1198,58.8467 121.4078,63.1517 120.5758,65.7987" id="Fill-106" fill="#A9FDAC" mask="url(#mask-54)"></path>
                <path d="M120.5758,65.7987 C119.7428,68.4457 121.2148,71.2667 123.8618,72.0987 C126.5088,72.9307 129.3298,71.4597 130.1618,68.8127 C130.9938,66.1657 130.4138,60.5107 127.7658,59.6787 C125.1198,58.8467 121.4078,63.1517 120.5758,65.7987 Z" id="Stroke-107" stroke="#2F3061" stroke-linecap="round" stroke-linejoin="round" mask="url(#mask-54)"></path>
                <polygon id="Fill-108" fill="#A5D9E4" mask="url(#mask-54)" points="125.1334 89.8011 118.1654 89.8011 117.0414 79.2931 126.2574 79.2931"></polygon>
                <polygon id="Stroke-109" stroke="#2F3061" stroke-width="2" stroke-linecap="round" stroke-linejoin="round" mask="url(#mask-54)" points="125.1334 89.8011 118.1654 89.8011 117.0414 79.2931 126.2574 79.2931"></polygon>
                <g id="Group-112" mask="url(#mask-54)">
                    <g transform="translate(114.000000, 79.000000)">
                        <path d="M14.6598,0.2933 L0.6398,0.2933" id="Fill-110" stroke="none" fill="#E2EFF3" fill-rule="evenodd"></path>
                        <path d="M14.6598,0.2933 L0.6398,0.2933" id="Stroke-111" stroke="#2F3061" stroke-width="2" fill="none" stroke-linecap="round" stroke-linejoin="round"></path>
                    </g>
                </g>
                <path d="M123.2272,68.2581 C124.0592,70.9051 122.5872,73.7261 119.9412,74.5581 C117.2932,75.3901 114.4732,73.9191 113.6402,71.2721 C112.8082,68.6251 113.3882,62.9701 116.0362,62.1381 C118.6832,61.3061 122.3942,65.6111 123.2272,68.2581" id="Fill-113" fill="#58C985" mask="url(#mask-54)"></path>
                <path d="M123.2272,68.2581 C124.0592,70.9051 122.5872,73.7261 119.9412,74.5581 C117.2932,75.3901 114.4732,73.9191 113.6402,71.2721 C112.8082,68.6251 113.3882,62.9701 116.0362,62.1381 C118.6832,61.3061 122.3942,65.6111 123.2272,68.2581 Z" id="Stroke-114" stroke="#2F3061" stroke-linecap="round" stroke-linejoin="round" mask="url(#mask-54)"></path>
                <path d="M119.9411,74.5579 C119.9411,74.5579 121.6501,76.0789 121.6501,79.2929" id="Stroke-115" stroke="#2F3061" stroke-linecap="round" stroke-linejoin="round" mask="url(#mask-54)"></path>
                <path d="M123.862,72.0985 C123.862,72.0985 121.65,75.2825 121.751,79.2935" id="Stroke-116" stroke="#2F3061" stroke-linecap="round" stroke-linejoin="round" mask="url(#mask-54)"></path>
                <path d="M114.2916,96.1395 C114.2916,99.5255 111.5466,102.2705 108.1606,102.2705 C104.7736,102.2705 102.0286,99.5255 102.0286,96.1395 C102.0286,92.7525 114.2916,92.7525 114.2916,96.1395" id="Fill-117" fill="#707070" mask="url(#mask-54)"></path>
                <path d="M114.2916,96.1395 C114.2916,99.5255 111.5466,102.2705 108.1606,102.2705 C104.7736,102.2705 102.0286,99.5255 102.0286,96.1395 C102.0286,92.7525 114.2916,92.7525 114.2916,96.1395 Z" id="Stroke-118" stroke="#2F3061" stroke-width="2" stroke-linecap="round" stroke-linejoin="round" mask="url(#mask-54)"></path>
                <g id="Group-121" mask="url(#mask-54)">
                    <g transform="translate(102.000000, 98.000000)">
                        <path d="M5.7887,0.3079 L0.9387,0.3079" id="Fill-119" stroke="none" fill="#A5D9E4" fill-rule="evenodd"></path>
                        <path d="M5.7887,0.3079 L0.9387,0.3079" id="Stroke-120" stroke="#2F3061" stroke-width="2" fill="none" stroke-linecap="round"></path>
                    </g>
                </g>
                <path d="M52.9284,96.1395 C52.9284,99.5255 55.6734,102.2705 59.0604,102.2705 C62.4464,102.2705 65.1914,99.5255 65.1914,96.1395 C65.1914,92.7525 52.9284,92.7525 52.9284,96.1395" id="Fill-122" fill="#707070" mask="url(#mask-54)"></path>
                <path d="M52.9284,96.1395 C52.9284,99.5255 55.6734,102.2705 59.0604,102.2705 C62.4464,102.2705 65.1914,99.5255 65.1914,96.1395 C65.1914,92.7525 52.9284,92.7525 52.9284,96.1395 Z" id="Stroke-123" stroke="#2F3061" stroke-width="2" stroke-linecap="round" stroke-linejoin="round" mask="url(#mask-54)"></path>
                <g id="Group-126" mask="url(#mask-54)">
                    <g transform="translate(59.000000, 98.000000)">
                        <path d="M0.4313,0.3079 L5.2813,0.3079" id="Fill-124" stroke="none" fill="#A5D9E4" fill-rule="evenodd"></path>
                        <path d="M0.4313,0.3079 L5.2813,0.3079" id="Stroke-125" stroke="#2F3061" stroke-width="2" fill="none" stroke-linecap="round"></path>
                    </g>
                </g>
                <g id="Group-129" mask="url(#mask-54)">
                    <g transform="translate(101.000000, 121.000000)">
                        <path d="M0.0348,0.2855 L4.2258,4.4765" id="Fill-127" stroke="none" fill="#A5D9E4" fill-rule="evenodd"></path>
                        <path d="M0.0348,0.2855 L4.2258,4.4765" id="Stroke-128" stroke="#2F3061" stroke-width="3" fill="none" stroke-linecap="round"></path>
                    </g>
                </g>
                <g id="Group-132" mask="url(#mask-54)">
                    <g transform="translate(83.000000, 122.000000)">
                        <path d="M0.61,0.4852 L0.61,23.1232" id="Fill-130" stroke="none" fill="#A5D9E4" fill-rule="evenodd"></path>
                        <path d="M0.61,0.4852 L0.61,23.1232" id="Stroke-131" stroke="#2F3061" stroke-width="2" fill="none" stroke-linecap="round" stroke-linejoin="round"></path>
                    </g>
                </g>
                <g id="Group-135" mask="url(#mask-54)">
                    <g transform="translate(83.000000, 134.000000)">
                        <path d="M0.61,0.306 L0.61,11.123" id="Fill-133" stroke="none" fill="#A5D9E4" fill-rule="evenodd"></path>
                        <path d="M0.61,0.306 L0.61,11.123" id="Stroke-134" stroke="#2F3061" stroke-width="4" fill="none" stroke-linecap="round" stroke-linejoin="round"></path>
                    </g>
                </g>
                <path d="M92.5661,109.1644 L74.6551,109.1644 C68.5451,109.1644 63.5911,104.2114 63.5911,98.1014 L63.5911,75.6644 C63.5911,65.2744 72.0131,56.8524 82.4031,56.8524 L84.8181,56.8524 C95.2071,56.8524 103.6291,65.2744 103.6291,75.6644 L103.6291,98.1014 C103.6291,104.2114 98.6751,109.1644 92.5661,109.1644" id="Fill-136" fill="#707070" mask="url(#mask-54)"></path>
            </g>
            <g id="Group-140" transform="translate(63.000000, 59.026000)">
                <mask id="mask-56" fill="white">
                    <use xlink:href="#path-55"></use>
                </mask>
                <g id="Clip-139"></g>
                <polygon id="Fill-138" fill="#565656" mask="url(#mask-56)" points="-7.754 56.304 20.61 56.304 20.61 -16.452 -7.754 -16.452"></polygon>
            </g>
            <g id="Group-153" transform="translate(0.000000, 3.026000)">
                <g id="Group-143">
                    <mask id="mask-58" fill="white">
                        <use xlink:href="#path-57"></use>
                    </mask>
                    <g id="Clip-142"></g>
                    <path d="M92.5661,109.1644 L74.6551,109.1644 C68.5451,109.1644 63.5911,104.2114 63.5911,98.1014 L63.5911,75.6644 C63.5911,65.2744 72.0131,56.8524 82.4031,56.8524 L84.8181,56.8524 C95.2071,56.8524 103.6291,65.2744 103.6291,75.6644 L103.6291,98.1014 C103.6291,104.2114 98.6751,109.1644 92.5661,109.1644 Z" id="Stroke-141" stroke="#2F3061" stroke-width="2" stroke-linecap="round" stroke-linejoin="round" mask="url(#mask-58)"></path>
                </g>
                <g id="Group-146">
                    <mask id="mask-60" fill="white">
                        <use xlink:href="#path-59"></use>
                    </mask>
                    <g id="Clip-145"></g>
                    <path d="M105.7467,114.0408 C106.9537,114.0408 107.9327,114.9128 107.7707,115.9028 C106.4457,124.0468 96.1347,125.3438 83.6097,125.3438 C71.0857,125.3438 60.7737,124.0468 59.4487,115.9028 C59.2877,114.9128 60.2677,114.0408 61.4737,114.0408 L105.7467,114.0408 Z" id="Fill-144" fill="#707070" mask="url(#mask-60)"></path>
                </g>
                <g id="Group-149">
                    <mask id="mask-62" fill="white">
                        <use xlink:href="#path-61"></use>
                    </mask>
                    <g id="Clip-148"></g>
                    <path d="M105.7467,114.0408 C106.9537,114.0408 107.9327,114.9128 107.7707,115.9028 C106.4457,124.0468 96.1347,125.3438 83.6097,125.3438 C71.0857,125.3438 60.7737,124.0468 59.4487,115.9028 C59.2877,114.9128 60.2677,114.0408 61.4737,114.0408 L105.7467,114.0408 Z" id="Stroke-147" stroke="#2F3061" stroke-width="2" stroke-linecap="round" stroke-linejoin="round" mask="url(#mask-62)"></path>
                </g>
                <g id="Group-152">
                    <mask id="mask-64" fill="white">
                        <use xlink:href="#path-63"></use>
                    </mask>
                    <g id="Clip-151"></g>
                    <path d="M83.61,120.9427 C81.269,120.9427 79.372,119.0457 79.372,116.7037 L79.372,89.1907 C79.372,86.8497 81.269,84.9517 83.61,84.9517 C85.951,84.9517 87.849,86.8497 87.849,89.1907 L87.849,116.7037 C87.849,119.0457 85.951,120.9427 83.61,120.9427" id="Fill-150" fill="#AAAAAA" mask="url(#mask-64)"></path>
                </g>
            </g>
            <g id="Group-156" transform="translate(79.000000, 87.026000)">
                <mask id="mask-66" fill="white">
                    <use xlink:href="#path-65"></use>
                </mask>
                <g id="Clip-155"></g>
                <polygon id="Fill-154" fill="#939393" mask="url(#mask-66)" points="-12.942 41.344 4.61 41.344 4.61 -3.548 -12.942 -3.548"></polygon>
            </g>
            <g id="Group-211" transform="translate(0.000000, 3.026000)">
                <g id="Group-159">
                    <mask id="mask-68" fill="white">
                        <use xlink:href="#path-67"></use>
                    </mask>
                    <g id="Clip-158"></g>
                    <path d="M83.61,120.9427 C81.269,120.9427 79.372,119.0457 79.372,116.7037 L79.372,89.1907 C79.372,86.8497 81.269,84.9517 83.61,84.9517 C85.951,84.9517 87.849,86.8497 87.849,89.1907 L87.849,116.7037 C87.849,119.0457 85.951,120.9427 83.61,120.9427 Z" id="Stroke-157" stroke="#2F3061" stroke-width="2" stroke-linecap="round" stroke-linejoin="round" mask="url(#mask-68)"></path>
                </g>
                <g id="Group-162">
                    <mask id="mask-70" fill="white">
                        <use xlink:href="#path-69"></use>
                    </mask>
                    <g id="Clip-161"></g>
                    <path d="M89.1354,89.1903 L78.0844,89.1903 C76.5054,89.1903 75.2254,87.9103 75.2254,86.3313 C75.2254,84.7523 76.5054,83.4713 78.0844,83.4713 L89.1354,83.4713 C90.7154,83.4713 91.9944,84.7523 91.9944,86.3313 C91.9944,87.9103 90.7154,89.1903 89.1354,89.1903" id="Fill-160" fill="#565656" mask="url(#mask-70)"></path>
                </g>
                <g id="Group-165">
                    <mask id="mask-72" fill="white">
                        <use xlink:href="#path-71"></use>
                    </mask>
                    <g id="Clip-164"></g>
                    <path d="M89.1354,89.1903 L78.0844,89.1903 C76.5054,89.1903 75.2254,87.9103 75.2254,86.3313 C75.2254,84.7523 76.5054,83.4713 78.0844,83.4713 L89.1354,83.4713 C90.7154,83.4713 91.9944,84.7523 91.9944,86.3313 C91.9944,87.9103 90.7154,89.1903 89.1354,89.1903 Z" id="Stroke-163" stroke="#2F3061" stroke-width="2" mask="url(#mask-72)"></path>
                </g>
                <g id="Group-168">
                    <mask id="mask-74" fill="white">
                        <use xlink:href="#path-73"></use>
                    </mask>
                    <g id="Clip-167"></g>
                    <path d="M45.3004,120.4657 L35.6594,119.5907 C35.2884,119.5577 35.0154,119.2297 35.0484,118.8587 L36.2094,106.0547 C36.2474,105.6397 36.6484,105.3587 37.0514,105.4627 L43.1544,107.4247 C43.2114,107.4407 43.2704,107.4467 43.3294,107.4467 L46.5204,106.2667 C46.9194,106.2627 47.2354,106.6047 47.1984,107.0027 L46.0324,119.8547 C45.9994,120.2257 45.6714,120.4997 45.3004,120.4657" id="Fill-166" fill="#E2EFF3" mask="url(#mask-74)"></path>
                </g>
                <g id="Group-171">
                    <mask id="mask-76" fill="white">
                        <use xlink:href="#path-75"></use>
                    </mask>
                    <g id="Clip-170"></g>
                    <path d="M45.3004,120.4657 L35.6594,119.5907 C35.2884,119.5577 35.0154,119.2297 35.0484,118.8587 L36.2094,106.0547 C36.2474,105.6397 36.6484,105.3587 37.0514,105.4627 L43.1544,107.4247 C43.2114,107.4407 43.2704,107.4467 43.3294,107.4467 L46.5204,106.2667 C46.9194,106.2627 47.2354,106.6047 47.1984,107.0027 L46.0324,119.8547 C45.9994,120.2257 45.6714,120.4997 45.3004,120.4657 Z" id="Stroke-169" stroke="#2F3061" mask="url(#mask-76)"></path>
                </g>
                <g id="Group-174">
                    <mask id="mask-78" fill="white">
                        <use xlink:href="#path-77"></use>
                    </mask>
                    <g id="Clip-173"></g>
                    <path d="M41.1891,123.2625 L31.5701,124.3475 C31.2001,124.3895 30.8661,124.1225 30.8241,123.7525 L29.3821,110.9775 C29.3361,110.5635 29.6711,110.2065 30.0871,110.2285 L33.4321,110.3995 C33.4911,110.4025 33.5501,110.3975 33.6091,110.3855 L39.5251,109.1085 C39.9151,109.0245 40.2931,109.2955 40.3371,109.6925 L41.7841,122.5165 C41.8261,122.8875 41.5591,123.2205 41.1891,123.2625" id="Fill-172" fill="#E2EFF3" mask="url(#mask-78)"></path>
                </g>
                <g id="Group-177">
                    <mask id="mask-80" fill="white">
                        <use xlink:href="#path-79"></use>
                    </mask>
                    <g id="Clip-176"></g>
                    <path d="M41.1891,123.2625 L31.5701,124.3475 C31.2001,124.3895 30.8661,124.1225 30.8241,123.7525 L29.3821,110.9775 C29.3361,110.5635 29.6711,110.2065 30.0871,110.2285 L33.4321,110.3995 C33.4911,110.4025 33.5501,110.3975 33.6091,110.3855 L39.5251,109.1085 C39.9151,109.0245 40.2931,109.2955 40.3371,109.6925 L41.7841,122.5165 C41.8261,122.8875 41.5591,123.2205 41.1891,123.2625 Z" id="Stroke-175" stroke="#2F3061" mask="url(#mask-80)"></path>
                </g>
                <g id="Group-180">
                    <mask id="mask-82" fill="white">
                        <use xlink:href="#path-81"></use>
                    </mask>
                    <g id="Clip-179"></g>
                    <path d="M47.6461,147.0726 L28.9341,147.0726 L26.3671,115.2656 C26.2881,114.2846 27.0621,113.4446 28.0461,113.4446 L48.5331,113.4446 C49.5171,113.4446 50.2921,114.2846 50.2131,115.2656 L47.6461,147.0726 Z" id="Fill-178" fill="#FF988A" mask="url(#mask-82)"></path>
                </g>
                <g id="Group-183">
                    <mask id="mask-84" fill="white">
                        <use xlink:href="#path-83"></use>
                    </mask>
                    <g id="Clip-182"></g>
                    <path d="M47.6461,147.0726 L28.9341,147.0726 L26.3671,115.2656 C26.2881,114.2846 27.0621,113.4446 28.0461,113.4446 L48.5331,113.4446 C49.5171,113.4446 50.2921,114.2846 50.2131,115.2656 L47.6461,147.0726 Z" id="Stroke-181" stroke="#2F3061" stroke-width="2" stroke-linecap="round" stroke-linejoin="round" mask="url(#mask-84)"></path>
                </g>
                <g id="Group-186">
                    <mask id="mask-86" fill="white">
                        <use xlink:href="#path-85"></use>
                    </mask>
                    <g id="Clip-185"></g>
                    <path d="M39.9821,119.5242 L31.4771,119.5242 C30.8131,119.5242 30.2741,118.9852 30.2741,118.3202 C30.2741,117.6562 30.8131,117.1172 31.4771,117.1172 L39.9821,117.1172 C40.6471,117.1172 41.1861,117.6562 41.1861,118.3202 C41.1861,118.9852 40.6471,119.5242 39.9821,119.5242" id="Fill-184" fill="#2F3061" mask="url(#mask-86)"></path>
                </g>
                <g id="Group-189">
                    <mask id="mask-88" fill="white">
                        <use xlink:href="#path-87"></use>
                    </mask>
                    <g id="Clip-188"></g>
                    <polygon id="Fill-187" fill="#FFF690" mask="url(#mask-88)" points="17.9918 46.6629 20.0418 55.0589 13.4448 56.6689 11.2068 55.3099 9.5958 48.7129"></polygon>
                </g>
                <g id="Group-192">
                    <mask id="mask-90" fill="white">
                        <use xlink:href="#path-89"></use>
                    </mask>
                    <g id="Clip-191"></g>
                    <polygon id="Stroke-190" stroke="#2F3061" stroke-linecap="round" stroke-linejoin="round" mask="url(#mask-90)" points="17.9918 46.6629 20.0418 55.0589 13.4448 56.6689 11.2068 55.3099 9.5958 48.7129"></polygon>
                </g>
                <g id="Group-195">
                    <mask id="mask-92" fill="white">
                        <use xlink:href="#path-91"></use>
                    </mask>
                    <g id="Clip-194"></g>
                    <polygon id="Fill-193" fill="#2F3061" mask="url(#mask-92)" points="13.0055 54.8704 13.4445 56.6694 11.2065 55.3094"></polygon>
                </g>
                <g id="Group-198">
                    <mask id="mask-94" fill="white">
                        <use xlink:href="#path-93"></use>
                    </mask>
                    <g id="Clip-197"></g>
                    <polygon id="Stroke-196" stroke="#2F3061" stroke-linecap="round" stroke-linejoin="round" mask="url(#mask-94)" points="13.0055 54.8704 13.4445 56.6694 11.2065 55.3094"></polygon>
                </g>
                <g id="Group-201">
                    <mask id="mask-96" fill="white">
                        <use xlink:href="#path-95"></use>
                    </mask>
                    <g id="Clip-200"></g>
                    <polygon id="Fill-199" fill="#FFF690" mask="url(#mask-96)" points="20.0416 61.161 18.6476 69.69 11.9456 68.595 10.4166 66.469 11.5126 59.767"></polygon>
                </g>
                <g id="Group-204">
                    <mask id="mask-98" fill="white">
                        <use xlink:href="#path-97"></use>
                    </mask>
                    <g id="Clip-203"></g>
                    <polygon id="Stroke-202" stroke="#2F3061" stroke-linecap="round" stroke-linejoin="round" mask="url(#mask-98)" points="20.0416 61.161 18.6476 69.69 11.9456 68.595 10.4166 66.469 11.5126 59.767"></polygon>
                </g>
                <g id="Group-207">
                    <mask id="mask-100" fill="white">
                        <use xlink:href="#path-99"></use>
                    </mask>
                    <g id="Clip-206"></g>
                    <polygon id="Fill-205" fill="#2F3061" mask="url(#mask-100)" points="12.2448 66.7679 11.9458 68.5949 10.4168 66.4689"></polygon>
                </g>
                <g id="Group-210">
                    <mask id="mask-102" fill="white">
                        <use xlink:href="#path-101"></use>
                    </mask>
                    <g id="Clip-209"></g>
                    <polygon id="Stroke-208" stroke="#2F3061" stroke-linecap="round" stroke-linejoin="round" mask="url(#mask-102)" points="12.2448 66.7679 11.9458 68.5949 10.4168 66.4689"></polygon>
                </g>
            </g>
            <g id="Group-286" transform="translate(83.000000, 0.026000)">
                <path d="M32.6295,16.9085 C32.6295,25.7455 25.4655,32.9085 16.6295,32.9085 C7.7925,32.9085 0.6295,25.7455 0.6295,16.9085 C0.6295,8.0725 7.7925,0.9085 16.6295,0.9085 C25.4655,0.9085 32.6295,8.0725 32.6295,16.9085" id="Fill-212" fill="#E2EFF3"></path>
                <path d="M32.6295,16.9085 C32.6295,25.7455 25.4655,32.9085 16.6295,32.9085 C7.7925,32.9085 0.6295,25.7455 0.6295,16.9085 C0.6295,8.0725 7.7925,0.9085 16.6295,0.9085 C25.4655,0.9085 32.6295,8.0725 32.6295,16.9085 Z" id="Stroke-214" stroke="#2F3061" stroke-width="2"></path>
                <path d="M17.4528,3.7601 L17.4528,5.5381 C17.1808,5.5141 16.9088,5.5061 16.6298,5.5061 C16.3488,5.5061 16.0778,5.5141 15.8068,5.5381 L15.8068,3.7601 C16.0778,3.7431 16.3568,3.7351 16.6298,3.7351 C16.9088,3.7351 17.1808,3.7431 17.4528,3.7601" id="Fill-216" fill="#B3B3C5"></path>
                <path d="M15.8063,3.7352 L16.6293,3.7352 C16.3573,3.7352 16.0773,3.7432 15.8063,3.7602 L15.8063,3.7352 Z" id="Fill-218" fill="#B3B3C5"></path>
                <path d="M17.4528,3.7352 L17.4528,3.7602 C17.1808,3.7432 16.9088,3.7352 16.6298,3.7352 L17.4528,3.7352 Z" id="Fill-220" fill="#B3B3C5"></path>
                <path d="M23.9157,5.9339 L23.0257,7.4649 C22.5817,7.1609 22.1037,6.8889 21.6097,6.6419 L22.4917,5.1099 C22.5987,5.1599 22.6967,5.2179 22.8047,5.2749 L23.5617,5.7109 C23.6767,5.7769 23.8007,5.8509 23.9157,5.9339" id="Fill-222" fill="#B3B3C5"></path>
                <path d="M22.8043,5.2752 C22.6973,5.2172 22.5983,5.1602 22.4923,5.1102 L22.4993,5.0942 L22.8043,5.2752 Z" id="Fill-224" fill="#B3B3C5"></path>
                <path d="M23.9235,5.9173 L23.9155,5.9343 C23.8005,5.8513 23.6765,5.7773 23.5615,5.7113 L23.9235,5.9173 Z" id="Fill-226" fill="#B3B3C5"></path>
                <path d="M28.4274,11.0467 L26.8884,11.9357 C26.6564,11.4417 26.3774,10.9637 26.0734,10.5117 L27.6044,9.6227 C27.6864,9.7377 27.7604,9.8607 27.8254,9.9767 L28.2624,10.7337 C28.3214,10.8407 28.3774,10.9397 28.4274,11.0467" id="Fill-228" fill="#B3B3C5"></path>
                <path d="M27.6207,9.6141 L27.8257,9.9761 C27.7607,9.8611 27.6857,9.7381 27.6037,9.6221 L27.6207,9.6141 Z" id="Fill-230" fill="#B3B3C5"></path>
                <path d="M28.444,11.0384 L28.427,11.0464 C28.378,10.9394 28.321,10.8404 28.262,10.7334 L28.444,11.0384 Z" id="Fill-232" fill="#B3B3C5"></path>
                <path d="M29.8024,16.9085 C29.8024,17.1805 29.7944,17.4605 29.7784,17.7325 L27.9984,17.7325 C28.0244,17.4605 28.0314,17.1885 28.0314,16.9085 C28.0314,16.6285 28.0244,16.3575 27.9984,16.0855 L29.7784,16.0855 C29.7944,16.3575 29.8024,16.6285 29.8024,16.9085" id="Fill-234" fill="#B3B3C5"></path>
                <path d="M29.8024,16.0853 L29.8024,16.9083 C29.8024,16.6283 29.7944,16.3573 29.7784,16.0853 L29.8024,16.0853 Z" id="Fill-236" fill="#B3B3C5"></path>
                <path d="M29.778,17.7323 C29.795,17.4603 29.802,17.1803 29.802,16.9083 L29.802,17.7323 L29.778,17.7323 Z" id="Fill-238" fill="#B3B3C5"></path>
                <path d="M28.4274,22.7791 C28.3774,22.8861 28.3214,22.9851 28.2624,23.0921 L27.8104,23.8821 C27.7434,23.9891 27.6784,24.0961 27.6044,24.2031 L26.0644,23.3141 C26.3774,22.8621 26.6494,22.3841 26.8884,21.8901 L28.4274,22.7791 Z" id="Fill-240" fill="#B3B3C5"></path>
                <path d="M27.6041,24.2034 C27.6781,24.0964 27.7441,23.9894 27.8101,23.8824 L27.6211,24.2114 L27.6041,24.2034 Z" id="Fill-242" fill="#B3B3C5"></path>
                <path d="M28.444,22.7874 L28.262,23.0924 C28.321,22.9854 28.378,22.8864 28.427,22.7794 L28.444,22.7874 Z" id="Fill-244" fill="#B3B3C5"></path>
                <path d="M23.9157,27.8919 C23.7927,27.9749 23.6607,28.0489 23.5367,28.1309 L22.9107,28.4929 C22.7707,28.5669 22.6227,28.6419 22.4817,28.7069 L21.6027,27.1759 C22.0957,26.9449 22.5737,26.6649 23.0257,26.3519 L23.9157,27.8919 Z" id="Fill-246" fill="#B3B3C5"></path>
                <path d="M22.4821,28.7074 C22.6231,28.6414 22.7711,28.5674 22.9111,28.4934 L22.5001,28.7314 L22.4821,28.7074 Z" id="Fill-248" fill="#B3B3C5"></path>
                <path d="M23.9235,27.9085 L23.5365,28.1305 C23.6605,28.0485 23.7925,27.9745 23.9155,27.8915 L23.9235,27.9085 Z" id="Fill-250" fill="#B3B3C5"></path>
                <path d="M17.4528,28.2874 L17.4528,30.0574 C17.1808,30.0744 16.9088,30.0814 16.6298,30.0814 C16.3568,30.0814 16.0778,30.0744 15.8068,30.0574 L15.8068,28.2874 C16.0778,28.3114 16.3488,28.3204 16.6298,28.3204 C16.9088,28.3204 17.1808,28.3114 17.4528,28.2874" id="Fill-252" fill="#B3B3C5"></path>
                <path d="M11.6481,27.1756 L10.7671,28.7076 C10.6271,28.6416 10.4781,28.5676 10.3381,28.4926 L9.6971,28.1226 C9.5811,28.0486 9.4581,27.9666 9.3421,27.8836 L10.2231,26.3526 C10.6761,26.6656 11.1541,26.9366 11.6481,27.1756" id="Fill-254" fill="#B3B3C5"></path>
                <path d="M9.3424,27.8836 C9.4574,27.9666 9.5804,28.0486 9.6964,28.1226 L9.3254,27.9086 L9.3424,27.8836 Z" id="Fill-256" fill="#B3B3C5"></path>
                <path d="M10.3385,28.493 C10.4785,28.567 10.6265,28.641 10.7675,28.707 L10.7495,28.732 L10.3385,28.493 Z" id="Fill-258" fill="#B3B3C5"></path>
                <path d="M7.1852,23.3143 L5.6542,24.1953 C5.5712,24.0803 5.4892,23.9563 5.4152,23.8413 L5.0442,23.1993 C4.9702,23.0593 4.8972,22.9113 4.8312,22.7713 L6.3622,21.8903 C6.6002,22.3843 6.8722,22.8613 7.1852,23.3143" id="Fill-260" fill="#B3B3C5"></path>
                <path d="M4.8307,22.7708 C4.8967,22.9108 4.9707,23.0588 5.0447,23.1988 L4.8067,22.7878 L4.8307,22.7708 Z" id="Fill-262" fill="#B3B3C5"></path>
                <path d="M5.4157,23.8411 C5.4887,23.9561 5.5707,24.0801 5.6537,24.1951 L5.6297,24.2121 L5.4157,23.8411 Z" id="Fill-264" fill="#B3B3C5"></path>
                <path d="M5.2174,16.9085 C5.2174,17.1885 5.2254,17.4605 5.2504,17.7325 L3.4804,17.7325 C3.4634,17.4605 3.4554,17.1805 3.4554,16.9085 C3.4554,16.6285 3.4634,16.3575 3.4804,16.0855 L5.2504,16.0855 C5.2254,16.3575 5.2174,16.6285 5.2174,16.9085" id="Fill-266" fill="#B3B3C5"></path>
                <path d="M7.1852,10.5116 C6.8722,10.9646 6.5922,11.4416 6.3622,11.9356 L4.8312,11.0546 C4.8972,10.9146 4.9702,10.7666 5.0442,10.6266 L5.4072,10.0006 C5.4892,9.8776 5.5632,9.7456 5.6462,9.6226 L7.1852,10.5116 Z" id="Fill-268" fill="#B3B3C5"></path>
                <path d="M4.8063,11.0384 L5.0443,10.6264 C4.9703,10.7674 4.8973,10.9144 4.8303,11.0554 L4.8063,11.0384 Z" id="Fill-270" fill="#B3B3C5"></path>
                <path d="M5.6295,9.6141 L5.6465,9.6221 C5.5635,9.7461 5.4885,9.8771 5.4065,10.0011 L5.6295,9.6141 Z" id="Fill-272" fill="#B3B3C5"></path>
                <path d="M11.6481,6.6419 C11.1541,6.8889 10.6761,7.1609 10.2231,7.4649 L9.3351,5.9339 C9.4411,5.8599 9.5481,5.7939 9.6551,5.7279 L10.4461,5.2749 C10.5531,5.2179 10.6521,5.1599 10.7581,5.1099 L11.6481,6.6419 Z" id="Fill-274" fill="#B3B3C5"></path>
                <path d="M9.3258,5.9173 L9.6548,5.7283 C9.5488,5.7933 9.4408,5.8593 9.3348,5.9343 L9.3258,5.9173 Z" id="Fill-276" fill="#B3B3C5"></path>
                <path d="M10.7584,5.1102 C10.6524,5.1602 10.5534,5.2172 10.4464,5.2752 L10.7494,5.0942 L10.7584,5.1102 Z" id="Fill-278" fill="#B3B3C5"></path>
                <path d="M18.7633,16.9085 C18.7633,18.0875 17.8083,19.0435 16.6293,19.0435 C15.4503,19.0435 14.4943,18.0875 14.4943,16.9085 C14.4943,15.7295 15.4503,14.7745 16.6293,14.7745 C17.8083,14.7745 18.7633,15.7295 18.7633,16.9085" id="Fill-280" fill="#B3B3C5"></path>
                <path d="M15.2428,16.9085 L16.1298,7.4655 C16.1548,7.1885 16.3998,6.9865 16.6768,7.0125 C16.9208,7.0345 17.1068,7.2295 17.1298,7.4655 L18.0148,16.9085 C18.0878,17.6745 17.5248,18.3535 16.7598,18.4255 C15.9938,18.4965 15.3148,17.9345 15.2428,17.1685 C15.2348,17.0835 15.2358,16.9915 15.2428,16.9085" id="Fill-282" fill="#B3B3C5"></path>
                <path d="M17.609,15.9285 L20.858,20.4305 C21.022,20.6575 20.97,20.9735 20.744,21.1375 C20.562,21.2685 20.323,21.2615 20.151,21.1375 L15.649,17.8885 C15.02,17.4345 14.879,16.5575 15.332,15.9285 C15.786,15.2995 16.664,15.1575 17.293,15.6115 C17.416,15.7005 17.524,15.8115 17.609,15.9285" id="Fill-284" fill="#B3B3C5"></path>
            </g>
        </g>
    </g>
</svg>