<?xml version="1.0" encoding="UTF-8"?>
<svg width="130px" height="139px" viewBox="0 0 130 139" version="1.1" xmlns="http://www.w3.org/2000/svg" xmlns:xlink="http://www.w3.org/1999/xlink">
    <!-- Generator: Sketch 50.2 (55047) - http://www.bohemiancoding.com/sketch -->
    <title>Group 3</title>
    <desc>Created with Sketch.</desc>
    <defs>
        <path d="M101.29,0.39 C101.02,0.39 100.74,0.511 100.56,0.7 C99.519,1.74 98.15,2.31 96.691,2.31 C95.22,2.31 93.849,1.74 92.81,0.7 C92.63,0.511 92.37,0.41 92.111,0.41 L13.839,0.41 C13.29,0.41 12.839,0.86 12.839,1.41 C12.839,1.96 13.29,2.41 13.839,2.41 L16.04,2.41 L16.04,23.14 L13.839,23.14 C13.29,23.14 12.839,23.59 12.839,24.14 C12.839,24.69 13.29,25.14 13.839,25.14 L23.2,25.14 L23.2,45.86 L17.58,45.86 C17.3,45.86 17.04,45.98 16.85,46.18 C16.68,46.35 12.839,50.561 12.839,58.249 C12.839,65.93 16.68,70.14 16.85,70.31 C17.04,70.52 17.3,70.631 17.58,70.631 L20.78,70.631 C20.849,70.65 20.93,70.659 21.01,70.659 L23.2,70.659 L23.2,86.37 C22.469,86.37 21.73,86.36 21.01,86.36 L20.191,86.36 C17.519,86.37 14.43,86.4 11.4,86.48 L10.62,86.51 C9.419,86.551 8.2,86.59 6.98,86.641 L6.98,85.28 L15.06,85.28 C15.34,85.28 15.559,85.06 15.559,84.779 C15.559,84.51 15.34,84.28 15.06,84.28 L6.48,84.28 C6.2,84.28 5.98,84.51 5.98,84.779 L5.98,86.68 C5.071,86.72 4.15,86.77 3.24,86.84 C3.23,86.84 3.209,86.83 3.191,86.84 C3.05,86.84 2.9,86.85 2.759,86.86 L2.139,86.86 C0.959,86.86 0,87.81 0,88.99 C0,90.16 0.959,91.12 2.139,91.12 L2.93,91.12 C4.769,91.25 6.629,91.32 8.46,91.39 L8.49,91.39 C8.59,91.39 8.69,91.4 8.78,91.4 L7.59,91.4 C7.31,91.4 7.05,91.52 6.86,91.72 C6.691,91.9 2.839,96.11 2.839,103.8 C2.839,111.48 6.691,115.68 6.86,115.86 C7.05,116.06 7.31,116.171 7.59,116.171 L21.441,116.171 C20.26,118.079 18.67,121.59 18.67,126.54 C18.67,134.23 22.51,138.43 22.67,138.61 C22.86,138.81 23.13,138.931 23.4,138.931 L28.669,138.931 C28.94,138.931 29.219,138.8 29.4,138.61 C31.54,136.48 35.01,136.48 37.15,138.61 C37.33,138.8 37.589,138.9 37.85,138.9 L116.12,138.9 C116.67,138.9 117.12,138.46 117.12,137.9 C117.12,137.35 116.67,136.9 116.12,136.9 L113.92,136.9 L113.92,116.18 L116.12,116.18 C116.24,116.18 116.349,116.16 116.46,116.11 L116.47,116.11 C116.519,116.3 116.58,116.49 116.639,116.68 L116.96,117.68 C117.91,120.62 118.93,123.749 120,126.81 L120.29,127.62 C121.25,130.329 122.25,133.13 123.33,135.86 L123.34,135.881 L123.82,137.4 C124.13,138.381 125.04,139 126.01,139 C126.24,139 126.47,138.96 126.7,138.89 C127.28,138.699 127.76,138.301 128.04,137.761 C128.32,137.221 128.37,136.601 128.18,136.01 L127.519,133.92 L127.519,133.91 C127.269,132.9 127,131.88 126.72,130.869 L128.759,130.221 C128.89,130.18 128.99,130.091 129.049,129.97 C129.085,129.9 129.103,129.826 129.104,129.75 L129.104,129.743 C129.104,129.692 129.096,129.641 129.08,129.59 L126.9,122.71 C126.809,122.45 126.53,122.31 126.269,122.391 C126,122.471 125.861,122.75 125.941,123.02 L127.98,129.42 L126.46,129.9 C126.1,128.55 125.719,127.21 125.349,125.891 L125.14,125.171 C124.21,121.949 123.21,118.73 122.35,115.96 L122.05,115.03 C121.18,112.329 120.29,109.55 119.35,106.82 C119.139,106.24 118.95,105.66 118.76,105.08 C117.95,102.61 117.11,100.051 114.96,97.91 C114.75,97.7 114.49,97.56 114.2,97.52 C113.82,97.45 113.45,97.54 113.14,97.749 C112.83,97.97 112.62,98.3 112.549,98.67 C112.04,101.671 112.83,104.24 113.6,106.721 C113.78,107.31 113.96,107.891 114.13,108.49 C114.691,110.39 115.28,112.29 115.861,114.181 L103.19,114.181 C103.13,114.171 103.059,114.16 102.99,114.16 L100.8,114.16 L100.8,93.43 L102.99,93.43 C103.07,93.43 103.15,93.42 103.219,93.4 L103.23,93.4 L112.37,93.4 C112.65,93.4 112.91,93.28 113.099,93.079 C113.27,92.91 117.12,88.71 117.12,81.02 C117.12,73.34 113.27,69.119 113.099,68.949 C112.91,68.75 112.65,68.631 112.37,68.631 L110.49,68.631 C110.429,68.62 110.36,68.61 110.29,68.61 L108.1,68.61 L108.1,47.88 L110.29,47.88 C110.32,47.88 110.36,47.88 110.389,47.87 L112.37,47.87 C112.65,47.87 112.91,47.761 113.099,47.56 C113.27,47.381 117.12,43.181 117.12,35.5 C117.12,27.81 113.27,23.6 113.099,23.42 C112.91,23.22 112.65,23.11 112.37,23.11 L108.55,23.11 C109.72,21.18 111.29,17.69 111.29,12.77 C111.29,5.091 107.45,0.881 107.29,0.71 C107.099,0.5 106.83,0.39 106.55,0.39 L101.29,0.39 Z" id="path-1"></path>
        <linearGradient x1="50%" y1="0%" x2="50%" y2="100%" id="linearGradient-3">
            <stop stop-color="#EDBB82" offset="0%"></stop>
            <stop stop-color="#D6A46B" offset="100%"></stop>
        </linearGradient>
    </defs>
    <g id="bookstack" stroke="none" stroke-width="1" fill="none" fill-rule="evenodd">
        <g id="Artboard" transform="translate(0.000000, -1.000000)">
            <g id="Page-1">
                <g id="Group-3" transform="translate(0.000000, 0.610000)">
                    <mask id="mask-2" fill="white">
                        <use xlink:href="#path-1"></use>
                    </mask>
                    <g id="Clip-2"></g>
                    <polygon id="Fill-1" fill="url(#linearGradient-3)" mask="url(#mask-2)" points="0 138.9 129.104 138.9 129.104 0.29 0 0.29"></polygon>
                </g>
            </g>
        </g>
    </g>
</svg>