<?xml version="1.0" encoding="UTF-8"?>
<svg width="130px" height="139px" viewBox="0 0 130 139" version="1.1" xmlns="http://www.w3.org/2000/svg" xmlns:xlink="http://www.w3.org/1999/xlink">
    <!-- Generator: Sketch 50.2 (55047) - http://www.bohemiancoding.com/sketch -->
    <title>Group 51</title>
    <desc>Created with Sketch.</desc>
    <defs>
        <polygon id="path-1" points="0.0001 0.3902 129.104 0.3902 129.104 138.9992 0.0001 138.9992"></polygon>
    </defs>
    <g id="bookstack" stroke="none" stroke-width="1" fill="none" fill-rule="evenodd">
        <g id="Artboard" transform="translate(0.000000, -1.000000)">
            <g id="Page-1">
                <g id="Group-51" transform="translate(0.000000, 0.610000)">
                    <path d="M16.3895,5.859 L92.1865,5.859 C94.7155,8.387 98.8155,8.387 101.3435,5.859 L109.1005,5.859 C109.1005,5.859 107.8685,2.17 106.9305,1.795 C105.9935,1.42 101.4305,1.42 101.4305,1.42 C101.4305,1.42 99.8055,2.92 99.0555,2.982 C98.3055,3.045 95.2175,3.232 93.9805,2.607 C92.7435,1.982 91.1185,1.42 91.1185,1.42 L16.3895,1.42 L16.3895,5.859 Z" id="Fill-4" fill-opacity="0.1" fill="#2F3061"></path>
                    <polygon id="Fill-6" fill-opacity="0.1" fill="#2F3061" points="92.8856 24.3971 23.6046 24.3971 23.6046 28.8361 92.8546 28.8361"></polygon>
                    <polygon id="Fill-8" fill-opacity="0.1" fill="#2F3061" points="107.6063 46.9557 17.0403 46.9557 14.8403 51.3937 107.5753 51.3937"></polygon>
                    <polygon id="Fill-10" fill-opacity="0.1" fill="#2F3061" points="112.9003 24.3971 100.8313 24.3971 100.8313 28.8361 114.7123 28.8361"></polygon>
                    <path d="M93.2196,33.2389 L96.7656,30.5899 L101.1406,33.8589 L101.1406,31.1799 L96.7656,28.2379 L92.3906,31.0489 L92.3906,32.8229 C92.3906,33.2509 92.8776,33.4949 93.2196,33.2389" id="Fill-12" fill-opacity="0.1" fill="#2F3061"></path>
                    <path d="M67.7547,79.2828 L70.2997,76.6328 L72.9187,79.3378 C73.2317,79.5698 73.6747,79.3478 73.6747,78.9588 L73.6747,77.2238 L70.2997,74.2818 L66.9247,77.0918 L66.9247,78.8668 C66.9247,79.2948 67.4117,79.5388 67.7547,79.2828" id="Fill-14" fill-opacity="0.1" fill="#2F3061"></path>
                    <polygon id="Fill-16" fill-opacity="0.1" fill="#2F3061" points="112.9208 69.6949 23.4098 69.6949 23.4098 74.1329 115.1198 74.1329"></polygon>
                    <polygon id="Fill-18" fill-opacity="0.1" fill="#2F3061" points="100.2948 92.7887 7.0398 92.7887 4.8408 97.2267 100.2638 97.2267"></polygon>
                    <polygon id="Fill-20" fill-opacity="0.1" fill="#2F3061" points="113.4042 115.4928 22.8702 115.4928 20.6712 119.9308 113.3732 119.9308"></polygon>
                    <path d="M105.6102,35.4996 C105.6102,35.8596 105.6002,36.2096 105.5802,36.5496 C105.5702,36.8196 105.5502,37.0896 105.5202,37.3506 C105.5102,37.4796 105.5002,37.6196 105.4802,37.7496 C105.4502,38.0606 105.4102,38.3696 105.3502,38.6596 C105.3402,38.7296 105.3302,38.7996 105.3202,38.8696 C105.3102,38.9396 105.3002,38.9996 105.2902,39.0696 C105.2702,39.1406 105.2602,39.1996 105.2402,39.2706 C105.2112,39.4096 105.1902,39.5396 105.1602,39.6696 C105.1312,39.7996 105.1002,39.9306 105.0702,40.0496 C105.0202,40.2706 104.9612,40.4896 104.9002,40.6996 C104.8202,40.9796 104.7402,41.2496 104.6502,41.5096 C104.6102,41.6406 104.5702,41.7596 104.5202,41.8796 C104.2402,42.6596 103.9402,43.3296 103.6402,43.8996 C103.5402,44.0896 103.4502,44.2706 103.3502,44.4306 C103.2602,44.5796 103.1802,44.7296 103.1002,44.8596 C102.9502,45.1006 102.8202,45.2996 102.7002,45.4706 C102.5902,45.6296 102.4902,45.7596 102.4102,45.8696 L99.7702,45.8696 C99.8402,45.7496 99.9212,45.6296 99.9902,45.4896 C100.1312,45.2496 100.2702,44.9896 100.4212,44.7096 C100.4402,44.6806 100.4502,44.6596 100.4612,44.6296 C100.6202,44.3196 100.7802,43.9796 100.9302,43.6196 C101.0102,43.4396 101.0902,43.2496 101.1602,43.0606 C101.2402,42.8596 101.3102,42.6696 101.3902,42.4596 C101.4612,42.2596 101.5402,42.0496 101.6002,41.8296 C101.6712,41.6096 101.7402,41.3906 101.8002,41.1596 C101.8102,41.1496 101.8102,41.1496 101.8102,41.1406 C101.8702,40.9196 101.9212,40.6896 101.9802,40.4496 C102.0402,40.2096 102.0902,39.9706 102.1402,39.7096 C102.1902,39.4596 102.2402,39.2096 102.2802,38.9396 C102.3202,38.6996 102.3502,38.4596 102.3812,38.2206 C102.4302,37.8696 102.4612,37.5096 102.4902,37.1406 C102.5102,36.8996 102.5202,36.6596 102.5302,36.4096 C102.5402,36.1096 102.5502,35.8106 102.5502,35.4996 C102.5502,35.1896 102.5402,34.8906 102.5302,34.5896 C102.5202,34.3396 102.5102,34.1006 102.4902,33.8596 C102.4612,33.4896 102.4302,33.1296 102.3812,32.7796 C102.3502,32.5296 102.3202,32.2896 102.2802,32.0496 C102.2402,31.7896 102.1902,31.5296 102.1402,31.2796 C102.0902,31.0206 102.0402,30.7796 101.9802,30.5396 C101.9212,30.2996 101.8702,30.0696 101.8102,29.8506 C101.8102,29.8396 101.8102,29.8396 101.8002,29.8296 C101.7402,29.6006 101.6712,29.3796 101.6002,29.1596 C101.5402,28.9496 101.4612,28.7396 101.3902,28.5296 C101.3102,28.3196 101.2402,28.1196 101.1602,27.9306 C101.1602,27.9096 101.1502,27.8906 101.1402,27.8796 L101.1402,25.1096 L102.4102,25.1096 C102.4212,25.1196 102.4302,25.1406 102.4502,25.1596 C102.5902,25.3506 102.7902,25.6196 103.0002,25.9596 C103.0802,26.0896 103.1602,26.2206 103.2502,26.3596 C103.5602,26.8796 103.8902,27.5206 104.2002,28.2796 C104.3102,28.5206 104.4102,28.7706 104.5002,29.0296 C104.5602,29.1896 104.6102,29.3506 104.6712,29.5206 C104.7802,29.8396 104.8812,30.1696 104.9702,30.5296 C105.0102,30.6596 105.0402,30.7896 105.0702,30.9306 C105.1312,31.1406 105.1802,31.3596 105.2202,31.5896 C105.2802,31.8796 105.3402,32.1806 105.3812,32.4896 C105.4212,32.6896 105.4402,32.8996 105.4702,33.1196 C105.4802,33.1596 105.4802,33.1996 105.4802,33.2396 C105.5002,33.3696 105.5102,33.4996 105.5202,33.6406 C105.5502,33.8996 105.5702,34.1696 105.5802,34.4396 C105.6002,34.7896 105.6102,35.1406 105.6102,35.4996" id="Fill-22" fill="#E2EFF3"></path>
                    <path d="M100.1405,14.6198 L100.1405,25.7398 C100.0905,25.6498 100.0395,25.5698 99.9905,25.4898 C100.0395,25.5798 100.0905,25.6698 100.1405,25.7608 L100.1405,30.3198 L99.7705,30.0398 L99.7605,30.0298 L97.0705,27.9898 C96.9805,27.9308 96.8695,27.8908 96.7605,27.8908 C96.6605,27.8908 96.5505,27.9308 96.4605,27.9898 L93.3905,30.3198 L93.3905,14.6198 L100.1405,14.6198 Z" id="Fill-24" fill="#E2EFF3"></path>
                    <path d="M99.4003,81.0201 C99.4003,86.7491 97.0003,90.3501 96.2003,91.4001 L93.5603,91.3901 C94.7503,89.4801 96.3403,85.9701 96.3403,81.0201 C96.3403,76.0701 94.7403,72.5601 93.5603,70.6401 L96.2113,70.6401 C97.0203,71.7001 99.4003,75.2701 99.4003,81.0201" id="Fill-26" fill="#E2EFF3"></path>
                    <path d="M110.5106,81.0201 C110.5106,86.7491 108.1196,90.3501 107.3106,91.4001 L104.6706,91.4001 C105.8506,89.4901 107.4496,85.9801 107.4496,81.0201 C107.4496,76.0601 105.8506,72.5491 104.6706,70.6291 L107.3106,70.6291 C108.1196,71.6801 110.5106,75.2491 110.5106,81.0201" id="Fill-28" fill="#E2EFF3"></path>
                    <path d="M14.9706,103.7994 C14.9706,108.7494 16.5706,112.2594 17.7496,114.1694 L15.1106,114.1694 C14.3006,113.1194 11.9096,109.5204 11.9096,103.7994 C11.9096,98.0604 14.3106,94.4594 15.1106,93.4094 L17.7606,93.4094 C16.5796,95.3204 14.9706,98.8294 14.9706,103.7994" id="Fill-30" fill="#E2EFF3"></path>
                    <path d="M26.4706,103.7994 C26.4706,108.7494 28.0706,112.2594 29.2496,114.1694 L28.8696,114.1694 C28.8006,114.1594 28.7406,114.1504 28.6706,114.1504 L26.6006,114.1504 C25.7706,113.0794 23.4096,109.4894 23.4096,103.7994 C23.4096,98.0604 25.8106,94.4594 26.6106,93.4094 L29.2496,93.4094 C28.0706,95.3204 26.4706,98.8394 26.4706,103.7994" id="Fill-32" fill="#E2EFF3"></path>
                    <path d="M127.2499,136.4098 C126.9399,136.8198 126.4999,137.1098 125.9899,137.2298 C125.8109,137.2798 125.6309,137.2998 125.4499,137.2998 C125.2299,137.2998 125.0209,137.2698 124.8199,137.2098 C124.8009,137.1698 124.7899,137.1398 124.7799,137.0998 L124.2709,135.5198 L124.2609,135.4798 C124.1309,135.1698 124.0109,134.8598 123.8909,134.5498 C122.9499,132.1398 122.0799,129.6808 121.2299,127.2898 L120.9399,126.4798 C119.8809,123.4308 118.8599,120.3098 117.9099,117.3798 L117.6009,116.3798 C116.7609,113.7098 115.8909,110.9398 115.0909,108.2098 C114.9499,107.7208 114.8009,107.2298 114.6599,106.7498 L114.8299,106.7598 C114.9209,106.7698 115.0209,106.7698 115.1099,106.7698 C116.0799,106.7698 117.0209,106.4398 117.7799,105.8298 L117.9209,105.7208 C118.0699,106.1998 118.2299,106.6808 118.3999,107.1498 C119.3409,109.8598 120.2299,112.6398 121.1009,115.3298 L121.3999,116.2698 C122.2609,119.0198 123.2609,122.2298 124.1809,125.4498 L124.3809,126.1698 C124.8009,127.6498 125.2209,129.1598 125.6409,130.6698 L125.6409,130.6898 C125.9099,131.6998 126.1809,132.7208 126.4399,133.7298 C126.5209,134.0598 126.6099,134.3798 126.6899,134.7098 L126.7209,134.6998 L127.2299,136.3198 C127.2399,136.3498 127.2499,136.3798 127.2499,136.4098" id="Fill-34" fill="#E2EFF3"></path>
                    <path d="M117.5799,104.6998 L117.1499,105.0498 C116.5109,105.5598 115.7299,105.8298 114.8999,105.7598 L114.3509,105.7298 C113.6599,103.4898 113.1099,101.3398 113.5399,98.8398 C113.5599,98.7298 113.6199,98.6398 113.7109,98.5698 C113.7899,98.5198 113.8699,98.4898 113.9609,98.4898 C113.9799,98.4898 114.0109,98.4998 114.0299,98.4998 C114.1409,98.5198 114.2109,98.5698 114.2499,98.6198 C116.0399,100.4098 116.8409,102.4898 117.5799,104.6998" id="Fill-36" fill="#E2EFF3"></path>
                    <path d="M72.6004,75.9596 L70.6604,73.9806 C70.5704,73.8796 70.4404,73.8296 70.3104,73.8296 C70.1704,73.8296 70.0394,73.8796 69.9504,73.9806 L67.9994,75.9596 L68.3004,70.6496 L68.3004,70.6096 L68.3294,70.1406 L68.3294,70.1096 L68.3904,69.1406 L68.3904,69.1096 L68.4104,68.6496 L68.4204,68.6406 L68.4204,68.6096 L68.8804,60.4706 L68.9004,60.0896 L71.7104,60.0896 L71.7304,60.4306 L72.1904,68.6096 L72.1904,68.6496 L72.2204,69.1096 L72.2204,69.1406 L72.2704,70.1096 L72.2704,70.1406 L72.3004,70.6096 L72.3004,70.6496 L72.6004,75.9596 Z" id="Fill-38" fill="#E2EFF3"></path>
                    <path d="M30.2303,90.4196 L30.2603,90.4996 C29.8203,90.5096 29.3803,90.5096 28.9503,90.5296 C28.1603,90.5496 27.3703,90.5606 26.5703,90.5696 C25.7803,90.5796 24.9903,90.5896 24.2003,90.5896 C23.8603,90.6006 23.5303,90.6006 23.2003,90.6006 C22.5303,90.6006 21.8603,90.6096 21.2003,90.6096 L20.1903,90.6096 C17.5303,90.6006 14.4403,90.5796 11.4303,90.4996 L10.7303,90.4706 C8.7303,90.3996 6.6803,90.3296 4.6403,90.2306 C4.0403,90.1996 3.4403,90.1596 2.8503,90.1196 C2.7903,90.1196 2.7403,90.1096 2.6803,90.1096 C2.1303,90.0696 1.6803,89.6196 1.6403,89.0606 C1.6203,88.7706 1.7203,88.4806 1.9103,88.2496 C2.1103,88.0206 2.3803,87.8906 2.6803,87.8696 C2.7403,87.8696 2.7903,87.8596 2.8503,87.8596 C3.4503,87.8196 4.0403,87.7796 4.6403,87.7496 C5.2503,87.7206 5.8603,87.6906 6.4803,87.6696 C6.5103,87.6696 6.5503,87.6696 6.5803,87.6596 C7.9503,87.6006 9.3103,87.5606 10.6603,87.5096 L11.4303,87.4806 C14.4403,87.3996 17.5303,87.3796 20.1903,87.3596 L21.0103,87.3696 C21.7303,87.3696 22.4703,87.3696 23.2003,87.3796 C23.5303,87.3696 23.8703,87.3796 24.2003,87.3796 C24.7803,87.3796 25.3503,87.3906 25.9303,87.3906 C26.9403,87.4096 27.9403,87.4196 28.9403,87.4496 C29.3803,87.4706 29.8203,87.4706 30.2603,87.4806 L30.2303,87.5606 C29.8703,88.4806 29.8703,89.4996 30.2303,90.4196" id="Fill-40" fill="#E2EFF3"></path>
                    <path d="M37.6707,89.0895 C37.6407,89.1805 37.5797,89.2495 37.4997,89.2895 C37.2497,89.4195 36.9897,89.5395 36.7397,89.6405 C36.5697,89.7095 36.3997,89.7705 36.2307,89.8295 C36.0607,89.8905 35.8807,89.9495 35.7107,89.9895 C35.6007,90.0295 35.4807,90.0605 35.3697,90.0795 C35.0297,90.1695 34.6997,90.2305 34.3597,90.2795 C33.6997,90.3905 33.0297,90.4405 32.3597,90.4595 C32.0207,90.4805 31.6807,90.4895 31.3407,90.4895 L31.1597,90.0495 C30.8997,89.3695 30.8997,88.6105 31.1597,87.9305 L31.3297,87.4895 C31.6807,87.4895 32.0207,87.4995 32.3597,87.5095 C32.6807,87.5205 32.9997,87.5395 33.3197,87.5695 C33.6707,87.5895 34.0107,87.6295 34.3597,87.6905 C34.4897,87.7095 34.6197,87.7305 34.7497,87.7595 C34.8807,87.7795 35.0207,87.8105 35.1497,87.8395 C35.9307,88.0095 36.7107,88.2795 37.4997,88.6905 C37.5607,88.7205 37.6097,88.7705 37.6407,88.8295 C37.6907,88.9095 37.6907,88.9995 37.6707,89.0895" id="Fill-42" fill="#E2EFF3"></path>
                    <path d="M33.3202,125.1901 C33.3202,125.4701 33.5402,125.6901 33.8202,125.6901 L39.7802,125.6901 C40.0502,125.6901 40.2802,125.4701 40.2802,125.1901 C40.2802,124.9191 40.0502,124.6901 39.7802,124.6901 L33.8202,124.6901 C33.5402,124.6901 33.3202,124.9191 33.3202,125.1901" id="Fill-44" fill="#2F3061"></path>
                    <g id="Group-48">
                        <mask id="mask-2" fill="white">
                            <use xlink:href="#path-1"></use>
                        </mask>
                        <g id="Clip-47"></g>
                        <path d="M124.7801,137.1002 L124.2701,135.5202 L124.2601,135.4802 C124.1311,135.1692 124.0101,134.8602 123.8901,134.5492 C122.9501,132.1402 122.0801,129.6802 121.2301,127.2892 L120.9401,126.4802 C119.8811,123.4302 118.8601,120.3102 117.9101,117.3792 L117.6001,116.3792 C116.7601,113.7092 115.8901,110.9402 115.0911,108.2092 C114.9501,107.7202 114.8011,107.2302 114.6601,106.7492 L114.8301,106.7592 C114.9211,106.7702 115.0201,106.7702 115.1101,106.7702 C116.0801,106.7702 117.0201,106.4402 117.7801,105.8292 L117.9211,105.7202 C118.0701,106.2002 118.2301,106.6802 118.4001,107.1502 C119.3411,109.8602 120.2301,112.6402 121.1001,115.3292 L121.4001,116.2702 C122.2601,119.0202 123.2601,122.2302 124.1801,125.4502 L124.3811,126.1692 C124.8011,127.6502 125.2201,129.1602 125.6401,130.6692 L125.6401,130.6902 C125.9101,131.7002 126.1801,132.7202 126.4401,133.7302 C126.5201,134.0602 126.6101,134.3792 126.6901,134.7092 L126.7201,134.7002 L127.2301,136.3202 C127.2401,136.3502 127.2501,136.3792 127.2501,136.4102 C126.9401,136.8202 126.5001,137.1102 125.9901,137.2302 C125.8101,137.2802 125.6311,137.2992 125.4501,137.2992 C125.2301,137.2992 125.0201,137.2702 124.8201,137.2092 C124.8011,137.1692 124.7901,137.1402 124.7801,137.1002 Z M113.5401,98.8392 C113.5601,98.7302 113.6201,98.6402 113.7111,98.5702 C113.7901,98.5202 113.8701,98.4902 113.9611,98.4902 C113.9801,98.4902 114.0101,98.4992 114.0301,98.4992 C114.1401,98.5202 114.2111,98.5702 114.2501,98.6202 C116.0401,100.4102 116.8411,102.4902 117.5801,104.7002 L117.1501,105.0492 C116.5101,105.5602 115.7301,105.8292 114.9001,105.7592 L114.3501,105.7302 C113.6601,103.4902 113.1101,101.3392 113.5401,98.8392 Z M112.9211,118.6292 L99.3901,118.6292 C99.1101,118.6292 98.8901,118.8502 98.8901,119.1292 C98.8901,119.4002 99.1101,119.6292 99.3901,119.6292 L112.9211,119.6292 L112.9211,130.5492 L108.8101,130.5492 C108.5301,130.5492 108.3101,130.7702 108.3101,131.0492 C108.3101,131.3292 108.5301,131.5492 108.8101,131.5492 L112.9211,131.5492 L112.9211,133.2402 L104.7701,133.2402 C104.4901,133.2402 104.2701,133.4702 104.2701,133.7402 C104.2701,134.0202 104.4901,134.2402 104.7701,134.2402 L112.9211,134.2402 L112.9211,136.9002 L38.2501,136.9002 C35.4211,134.3792 31.1201,134.3792 28.2801,136.9302 L23.8701,136.9302 C23.1601,135.9992 21.1901,133.0702 20.7601,128.3902 L53.2401,128.3902 C53.5201,128.3902 53.7401,128.1602 53.7401,127.8902 C53.7401,127.6102 53.5201,127.3902 53.2401,127.3902 L20.6901,127.3902 C20.6801,127.1102 20.6711,126.8292 20.6711,126.5392 C20.6711,126.2492 20.6801,125.9592 20.6901,125.6902 L26.3101,125.6902 C26.5911,125.6902 26.8101,125.4702 26.8101,125.1902 C26.8101,124.9192 26.5911,124.6902 26.3101,124.6902 L20.7601,124.6902 C21.1901,120.0602 23.1401,117.1202 23.8701,116.1692 L26.1401,116.1692 L28.2901,116.1692 C29.6711,117.4002 31.4211,118.0702 33.2701,118.0702 C35.1311,118.0702 36.8811,117.4002 38.2501,116.1802 L112.9211,116.1802 L112.9211,118.6292 Z M20.1901,114.1692 C19.3701,113.1202 16.9701,109.5302 16.9701,103.7992 C16.9701,98.0702 19.3701,94.4592 20.1901,93.4102 L24.1801,93.4102 C23.0001,95.3292 21.4101,98.8392 21.4101,103.7992 C21.4101,108.7402 22.9901,112.2402 24.1711,114.1502 L23.4001,114.1502 C23.3301,114.1502 23.2701,114.1602 23.2001,114.1692 L20.1901,114.1692 Z M15.1101,114.1692 C14.3001,113.1202 11.9101,109.5202 11.9101,103.7992 C11.9101,98.0602 14.3101,94.4592 15.1101,93.4102 L17.7601,93.4102 C16.5801,95.3202 14.9701,98.8292 14.9701,103.7992 C14.9701,108.7492 16.5701,112.2592 17.7501,114.1692 L15.1101,114.1692 Z M8.0501,114.1692 C7.2501,113.1292 4.8411,109.5702 4.8411,103.7992 C4.8411,98.0602 7.2501,94.4502 8.0601,93.4002 L12.6901,93.4002 C11.5101,95.3102 9.9101,98.8292 9.9101,103.7992 C9.9101,108.7492 11.5001,112.2592 12.6901,114.1692 L8.0501,114.1692 Z M4.6401,90.2302 C4.0401,90.2002 3.4401,90.1602 2.8501,90.1202 C2.7901,90.1202 2.7401,90.1102 2.6801,90.1102 C2.1311,90.0702 1.6801,89.6202 1.6401,89.0602 C1.6201,88.7702 1.7201,88.4802 1.9101,88.2492 C2.1101,88.0202 2.3811,87.8902 2.6801,87.8702 C2.7401,87.8702 2.7901,87.8602 2.8501,87.8602 C3.4501,87.8202 4.0401,87.7802 4.6401,87.7492 C5.2501,87.7202 5.8601,87.6902 6.4801,87.6692 C6.5101,87.6692 6.5501,87.6692 6.5801,87.6602 C7.9501,87.6002 9.3101,87.5602 10.6601,87.5092 L11.4301,87.4802 C14.4401,87.4002 17.5301,87.3792 20.1901,87.3602 L21.0101,87.3702 C21.7301,87.3702 22.4701,87.3702 23.2001,87.3792 C23.5301,87.3702 23.8701,87.3792 24.2001,87.3792 C24.7801,87.3792 25.3501,87.3902 25.9301,87.3902 C26.9401,87.4102 27.9401,87.4192 28.9401,87.4502 C29.3811,87.4702 29.8201,87.4702 30.2601,87.4802 L30.2301,87.5602 C29.8701,88.4802 29.8701,89.4992 30.2301,90.4192 L30.2601,90.4992 C29.8201,90.5092 29.3811,90.5092 28.9501,90.5302 C28.1601,90.5492 27.3701,90.5602 26.5701,90.5702 C25.7801,90.5792 24.9901,90.5892 24.2001,90.5892 C23.8601,90.6002 23.5301,90.6002 23.2001,90.6002 C22.5301,90.6002 21.8601,90.6102 21.2001,90.6102 L20.1901,90.6102 C17.5301,90.6002 14.4401,90.5792 11.4301,90.4992 L10.7301,90.4702 C8.7301,90.4002 6.6801,90.3292 4.6401,90.2302 Z M24.2001,82.8602 L32.3601,82.8602 L34.3601,82.8602 L41.7801,82.8602 C42.0501,82.8602 42.2801,82.6402 42.2801,82.3602 C42.2801,82.0892 42.0501,81.8602 41.7801,81.8602 L34.3601,81.8602 L32.3601,81.8602 L24.2001,81.8602 L24.2001,80.1692 L32.3601,80.1692 L34.3601,80.1692 L45.8101,80.1692 C46.0911,80.1692 46.3101,79.9502 46.3101,79.6692 C46.3101,79.3902 46.0911,79.1692 45.8101,79.1692 L34.3601,79.1692 L32.3601,79.1692 L24.2001,79.1692 L24.2001,74.1602 L32.3601,74.1602 L32.8101,74.1602 C33.0911,74.1602 33.3101,73.9402 33.3101,73.6602 C33.3101,73.3792 33.0911,73.1602 32.8101,73.1602 L32.3601,73.1602 L24.2001,73.1602 L24.2001,70.6602 L32.3601,70.6502 L38.3411,70.6502 C38.3701,70.6602 38.4101,70.6602 38.4401,70.6602 L46.9301,70.6602 L67.3011,70.6502 L66.9301,77.2402 C66.9211,77.4402 67.0401,77.6402 67.2301,77.7202 C67.4211,77.8102 67.6401,77.7592 67.7901,77.6102 L70.3101,75.0492 L72.8201,77.6102 C72.9211,77.7092 73.0511,77.7592 73.1801,77.7592 C73.2501,77.7592 73.3201,77.7492 73.3811,77.7202 C73.5701,77.6402 73.6901,77.4402 73.6801,77.2402 L73.3101,70.6502 L84.9801,70.6402 C85.7901,71.7002 88.1801,75.2702 88.1801,81.0202 C88.1801,81.3102 88.1711,81.5892 88.1601,81.8602 L81.8701,81.8602 C81.5911,81.8602 81.3701,82.0892 81.3701,82.3602 C81.3701,82.6402 81.5911,82.8602 81.8701,82.8602 L88.0911,82.8602 C88.0401,83.4502 87.9611,84.0202 87.8501,84.5492 L79.1801,84.5492 C78.9001,84.5492 78.6801,84.7802 78.6801,85.0492 C78.6801,85.3292 78.9001,85.5492 79.1801,85.5492 L87.6501,85.5492 C86.9001,88.6502 85.5511,90.6502 84.9801,91.3902 L48.9301,91.3792 L48.9301,91.3902 L47.9301,91.3902 L46.9301,91.3902 L38.4401,91.3902 L34.3601,91.3792 L34.3601,91.3102 C34.4101,91.2992 34.4611,91.2892 34.5101,91.2802 C34.5601,91.2702 34.6201,91.2592 34.6711,91.2492 C34.8601,91.2202 35.0601,91.1802 35.2501,91.1402 C35.5501,91.0792 35.8501,90.9992 36.1601,90.9102 C36.7601,90.7302 37.3601,90.4992 37.9611,90.1902 C38.1201,90.1002 38.2601,89.9902 38.3701,89.8502 C38.4801,89.7092 38.5701,89.5602 38.6201,89.3902 C38.7301,89.0492 38.7001,88.6902 38.5301,88.3702 C38.4701,88.2492 38.3901,88.1402 38.2901,88.0492 C38.2401,87.9992 38.1901,87.9502 38.1311,87.9102 C38.1101,87.9002 38.1001,87.8902 38.0911,87.8792 C38.0401,87.8502 38.0101,87.8202 37.9611,87.7992 C36.7601,87.1802 35.5501,86.8502 34.3601,86.6692 C33.6901,86.5702 33.0201,86.5302 32.3601,86.4992 C31.7901,86.4802 31.2201,86.4702 30.6501,86.4702 C30.0911,86.4702 29.5401,86.4592 28.9701,86.4402 C27.3811,86.4002 25.7801,86.3902 24.2001,86.3792 L24.2001,82.8602 Z M24.2001,37.3392 L32.3701,37.3392 L34.3701,37.3392 L41.7801,37.3392 C42.0601,37.3392 42.2801,37.1102 42.2801,36.8392 C42.2801,36.5602 42.0601,36.3392 41.7801,36.3392 L34.3701,36.3392 L32.3701,36.3392 L24.2001,36.3392 L24.2001,34.6402 L32.3701,34.6402 L34.3701,34.6402 L45.8201,34.6402 C46.1001,34.6402 46.3201,34.4192 46.3201,34.1402 C46.3201,33.8702 46.1001,33.6402 45.8201,33.6402 L34.3701,33.6402 L32.3701,33.6402 L24.2001,33.6402 L24.2001,25.1402 L32.3701,25.1402 L34.3701,25.1402 L46.9301,25.1402 L48.9301,25.1402 L85.0001,25.1402 C85.8301,26.2092 88.1801,29.7702 88.1801,35.4902 C88.1801,35.7802 88.1711,36.0702 88.1601,36.3392 L81.8811,36.3392 C81.6001,36.3392 81.3811,36.5602 81.3811,36.8392 C81.3811,37.1102 81.6001,37.3392 81.8811,37.3392 L88.0911,37.3392 C88.0401,37.9402 87.9611,38.4992 87.8501,39.0302 L79.1801,39.0302 C78.9101,39.0302 78.6801,39.2492 78.6801,39.5302 C78.6801,39.8102 78.9101,40.0302 79.1801,40.0302 L87.6501,40.0302 C86.9001,43.1292 85.5511,45.1292 84.9901,45.8702 L48.9301,45.8602 L48.9301,45.8702 L48.0301,45.8702 C48.0001,45.8602 47.9701,45.8602 47.9301,45.8602 L46.9301,45.8602 L38.4401,45.8602 L34.3701,45.8602 L32.3701,45.8602 L24.2001,45.8602 L24.2001,37.3392 Z M17.0401,20.4802 L25.1901,20.4802 C25.4701,20.4802 25.6901,20.2492 25.6901,19.9802 C25.6901,19.7002 25.4701,19.4802 25.1901,19.4802 L17.0401,19.4802 L17.0401,17.7802 L21.1501,17.7802 C21.4301,17.7802 21.6501,17.5602 21.6501,17.2802 C21.6501,17.0102 21.4301,16.7802 21.1501,16.7802 L17.0401,16.7802 L17.0401,5.8602 L30.5701,5.8602 C30.8501,5.8602 31.0701,5.6402 31.0701,5.3602 C31.0701,5.0792 30.8501,4.8602 30.5701,4.8602 L17.0401,4.8602 L17.0401,2.4102 L91.7111,2.4102 C93.0801,3.6402 94.8301,4.3102 96.6901,4.3102 C98.5401,4.3102 100.2901,3.6292 101.6801,2.3902 L106.0911,2.3902 C106.8011,3.3102 108.7801,6.2402 109.2111,10.9302 L103.6501,10.9302 C103.3701,10.9302 103.1501,11.1502 103.1501,11.4302 C103.1501,11.7002 103.3701,11.9302 103.6501,11.9302 L109.2701,11.9302 C109.2801,12.2002 109.2901,12.4802 109.2901,12.7702 C109.2901,13.0602 109.2801,13.3502 109.2701,13.6292 C107.6201,13.7002 105.9701,13.7202 104.3201,13.6802 L101.6801,13.6202 C100.8011,13.5792 99.9211,13.4302 99.0401,13.3292 C98.1601,13.2002 97.2801,13.1602 96.3901,13.1902 C95.5101,13.2202 94.6311,13.3792 93.7501,13.4902 C91.9901,13.6802 90.2301,13.6902 88.4701,13.6202 L88.4301,13.6202 C88.1501,13.6292 87.9401,13.8702 87.9501,14.1402 C87.9611,14.4192 88.1901,14.6292 88.4701,14.6202 C89.7801,14.5702 91.0911,14.5602 92.3901,14.6402 L92.3901,22.6102 C92.1601,22.7602 91.9501,22.9302 91.7401,23.1102 L85.5001,23.1102 L85.4501,23.1102 L47.9301,23.1292 L33.3701,23.1292 L21.0101,23.1292 C20.9801,23.1292 20.9401,23.1292 20.9101,23.1402 L17.0401,23.1402 L17.0401,20.4802 Z M111.9001,25.1102 C112.7111,26.1602 115.1201,29.7702 115.1201,35.4992 C115.1201,41.2302 112.7111,44.8292 111.9001,45.8702 L104.8411,45.8702 C105.0001,45.6002 105.1801,45.2892 105.3601,44.9502 C105.4211,44.8392 105.4801,44.7202 105.5401,44.6002 C105.7111,44.2702 105.8701,43.9102 106.0301,43.5302 C106.0801,43.4192 106.1311,43.2992 106.1801,43.1802 C106.2111,43.1202 106.2301,43.0602 106.2501,42.9902 C106.3201,42.8202 106.3811,42.6502 106.4401,42.4802 C106.5911,42.0602 106.7401,41.6102 106.8701,41.1402 C106.9301,40.9192 106.9801,40.6902 107.0401,40.4502 C107.1001,40.2092 107.1501,39.9702 107.2001,39.7092 C107.2501,39.4592 107.3011,39.2092 107.3411,38.9402 C107.3811,38.7002 107.4101,38.4592 107.4401,38.2202 C107.4801,37.8902 107.5201,37.5602 107.5401,37.2202 C107.5511,37.1802 107.5511,37.1402 107.5511,37.1002 C107.5701,36.8702 107.5801,36.6502 107.5911,36.4102 C107.6001,36.1102 107.6101,35.8102 107.6101,35.4992 C107.6101,35.1902 107.6001,34.8902 107.5911,34.5892 C107.5801,34.3502 107.5701,34.1202 107.5511,33.9002 C107.5511,33.8602 107.5511,33.8202 107.5401,33.7892 C107.5301,33.6102 107.5201,33.4502 107.5001,33.2802 C107.4901,33.1102 107.4701,32.9502 107.4401,32.7802 C107.4101,32.5302 107.3811,32.2892 107.3411,32.0492 C107.3011,31.7892 107.2501,31.5302 107.2001,31.2802 C107.1501,31.0302 107.1001,30.7802 107.0401,30.5392 C106.9801,30.2992 106.9301,30.0702 106.8701,29.8502 C106.8201,29.6692 106.7701,29.4992 106.7111,29.3292 C106.6601,29.1602 106.6101,28.9902 106.5511,28.8292 C106.4501,28.4992 106.3301,28.1902 106.2111,27.8902 C106.1401,27.7092 106.0701,27.5302 106.0001,27.3602 C105.9501,27.2492 105.9001,27.1502 105.8501,27.0392 C105.7401,26.7702 105.6101,26.5102 105.4901,26.2802 C105.3701,26.0302 105.2401,25.8102 105.1201,25.6002 C105.0401,25.4402 104.9501,25.2992 104.8601,25.1602 C104.8501,25.1402 104.8411,25.1292 104.8301,25.1102 L106.8411,25.1102 L111.9001,25.1102 Z M107.1001,50.3292 L93.5601,50.3292 C93.2801,50.3292 93.0601,50.5602 93.0601,50.8292 C93.0601,51.1102 93.2801,51.3292 93.5601,51.3292 L107.1001,51.3292 L107.1001,52.2592 L102.9801,52.2592 C102.7111,52.2592 102.4801,52.4802 102.4801,52.7592 C102.4801,53.0302 102.7111,53.2592 102.9801,53.2592 L107.1001,53.2592 L107.1001,62.2592 L102.9801,62.2592 C102.7111,62.2592 102.4801,62.4802 102.4801,62.7592 C102.4801,63.0302 102.7111,63.2592 102.9801,63.2592 L107.1001,63.2592 L107.1001,64.9502 L98.9401,64.9502 C98.6711,64.9502 98.4401,65.1692 98.4401,65.4502 C98.4401,65.7302 98.6711,65.9502 98.9401,65.9502 L107.1001,65.9502 L107.1001,68.6102 L73.1901,68.6102 L72.7201,60.2992 C72.9211,60.2802 73.1201,60.2492 73.3201,60.2202 C75.0801,60.0392 76.8411,60.0202 78.6001,60.0892 L78.6401,60.0892 C78.9211,60.0792 79.1311,59.8502 79.1201,59.5702 C79.1101,59.2892 78.8811,59.0792 78.6001,59.0892 C76.8411,59.1692 75.0801,59.1502 73.3201,58.9592 C72.4401,58.8502 71.5511,58.7002 70.6711,58.6602 C69.7901,58.6292 68.9101,58.6692 68.0301,58.7992 C67.1501,58.9002 66.2701,59.0602 65.3901,59.0892 L62.7501,59.1602 C60.9901,59.1902 59.2301,59.1802 57.4611,59.0892 L57.4211,59.0892 C57.1401,59.1102 56.9301,59.3392 56.9401,59.6202 C56.9501,59.8902 57.1901,60.1102 57.4611,60.0892 C59.2301,60.0092 60.9901,59.9902 62.7501,60.0302 L65.3901,60.0892 C66.2201,60.1292 67.0511,60.2592 67.8811,60.3602 L67.4211,68.6102 L32.4211,68.6102 C31.0501,67.3792 29.3001,66.7092 27.4501,66.7092 C25.5911,66.7092 23.8411,67.3902 22.4501,68.6292 L18.0501,68.6292 C17.3301,67.7092 15.3501,64.7802 14.9211,60.0892 L47.4211,60.0892 C47.6901,60.0892 47.9211,59.8702 47.9211,59.5892 C47.9211,59.3202 47.6901,59.0892 47.4211,59.0892 L14.8601,59.0892 C14.8501,58.8202 14.8411,58.5392 14.8411,58.2492 C14.8411,57.9592 14.8501,57.6692 14.8601,57.4002 L20.4901,57.4002 C20.7601,57.4002 20.9901,57.1802 20.9901,56.9002 C20.9901,56.6202 20.7601,56.4002 20.4901,56.4002 L14.9301,56.4002 C15.3601,51.7302 17.3301,48.7892 18.0501,47.8602 L21.0101,47.8602 L22.4501,47.8602 C23.8201,49.1002 25.5801,49.7802 27.4501,49.7802 C29.3001,49.7802 31.0501,49.1102 32.4211,47.8792 L107.1001,47.8792 L107.1001,50.3292 Z M115.1201,81.0202 C115.1201,86.7492 112.7111,90.3502 111.9001,91.4002 L109.7301,91.4002 C110.9211,89.4902 112.5101,85.9802 112.5101,81.0202 C112.5101,76.0602 110.9101,72.5392 109.7301,70.6292 L111.9001,70.6292 C112.7111,71.6692 115.1201,75.2492 115.1201,81.0202 Z M104.6711,91.4002 C105.8501,89.4902 107.4501,85.9802 107.4501,81.0202 C107.4501,76.0602 105.8501,72.5492 104.6711,70.6292 L107.3101,70.6292 C108.1201,71.6802 110.5101,75.2492 110.5101,81.0202 C110.5101,86.7492 108.1201,90.3502 107.3101,91.4002 L104.6711,91.4002 Z M99.8011,101.9402 L91.6401,101.9402 L89.6401,101.9402 L78.1901,101.9402 C77.9101,101.9402 77.6901,102.1692 77.6901,102.4402 C77.6901,102.7202 77.9101,102.9402 78.1901,102.9402 L89.6401,102.9402 L91.6401,102.9402 L99.8011,102.9402 L99.8011,104.6402 L91.6401,104.6402 L89.6401,104.6402 L82.2201,104.6402 C81.9501,104.6402 81.7201,104.8602 81.7201,105.1402 C81.7201,105.4102 81.9501,105.6402 82.2201,105.6402 L89.6401,105.6402 L91.6401,105.6402 L99.8011,105.6402 L99.8011,114.1602 L91.6401,114.1602 L89.6401,114.1602 L85.5601,114.1602 L77.0601,114.1602 L76.0701,114.1602 C76.0401,114.1602 76.0201,114.1602 75.9901,114.1692 L75.0701,114.1692 L39.0301,114.1802 C39.0301,114.1802 39.0301,114.1692 39.0201,114.1692 C38.4501,113.4302 37.1001,111.4502 36.3501,108.3292 L44.8201,108.3292 C45.1001,108.3292 45.3201,108.1002 45.3201,107.8292 C45.3201,107.5492 45.1001,107.3292 44.8201,107.3292 L36.1401,107.3292 C36.0401,106.7992 35.9611,106.2302 35.9101,105.6402 L42.1311,105.6402 C42.4101,105.6402 42.6311,105.4102 42.6311,105.1402 C42.6311,104.8602 42.4101,104.6402 42.1311,104.6402 L35.8411,104.6402 C35.8301,104.3602 35.8201,104.0792 35.8201,103.7892 C35.8201,98.0602 38.2201,94.4592 39.0301,93.4102 L75.0701,93.4192 L75.9901,93.4192 C76.0201,93.4302 76.0401,93.4302 76.0701,93.4302 L77.0601,93.4302 L85.5601,93.4302 L89.6401,93.4302 L91.6401,93.4302 L99.8011,93.4302 L99.8011,101.9402 Z M29.2501,93.4102 C28.0701,95.3202 26.4701,98.8392 26.4701,103.7992 C26.4701,108.7492 28.0701,112.2592 29.2501,114.1692 L28.8701,114.1692 C28.8001,114.1602 28.7401,114.1502 28.6711,114.1502 L26.6001,114.1502 C25.7701,113.0792 23.4101,109.4902 23.4101,103.7992 C23.4101,98.0602 25.8101,94.4592 26.6101,93.4102 L29.2501,93.4102 Z M98.6201,91.4002 C99.8011,89.4902 101.4001,85.9802 101.4001,81.0202 C101.4001,76.0702 99.8101,72.5602 98.6311,70.6402 L102.2401,70.6292 C103.0511,71.6802 105.4501,75.2892 105.4501,81.0202 C105.4501,86.7492 103.0511,90.3502 102.2401,91.4002 L98.6201,91.4002 Z M36.6001,93.4102 C35.4211,95.3292 33.8201,98.8392 33.8201,103.7892 C33.8201,108.7402 35.4101,112.2492 36.5911,114.1692 L31.6801,114.1692 C30.8701,113.1202 28.4701,109.5302 28.4701,103.7992 C28.4701,98.0702 30.8701,94.4592 31.6801,93.4102 L36.6001,93.4102 Z M93.5601,91.3902 C94.7501,89.4802 96.3411,85.9702 96.3411,81.0202 C96.3411,76.0702 94.7401,72.5602 93.5601,70.6402 L96.2111,70.6402 C97.0201,71.7002 99.4001,75.2702 99.4001,81.0202 C99.4001,86.7492 97.0001,90.3502 96.2001,91.4002 L93.5601,91.3902 Z M90.1801,81.0202 C90.1801,76.0602 88.5801,72.5492 87.4001,70.6402 L91.1311,70.6402 C91.9501,71.7092 94.3411,75.3102 94.3411,81.0202 C94.3411,86.7402 91.9501,90.3292 91.1311,91.3902 L87.4101,91.3902 C88.5911,89.4802 90.1801,85.9702 90.1801,81.0202 Z M93.3901,14.7202 L93.3901,14.6202 L100.1401,14.6202 L100.1401,14.7702 L100.1401,22.0892 L100.1401,22.6692 L100.1401,23.1102 L100.1401,23.8502 L100.1401,24.4802 L100.1401,25.1102 L100.1401,25.7402 C100.0911,25.6502 100.0401,25.5702 99.9901,25.4902 C100.0401,25.5792 100.0911,25.6692 100.1401,25.7602 L100.1401,30.3202 L99.7701,30.0392 L99.7601,30.0302 L97.0701,27.9902 C96.9801,27.9302 96.8701,27.8902 96.7601,27.8902 C96.6601,27.8902 96.5511,27.9302 96.4611,27.9902 L93.3901,30.3202 L93.3901,25.1102 L93.3901,24.3502 L93.3901,23.7302 L93.3901,23.1102 L93.3901,22.5702 L93.3901,22.0102 L93.3901,14.7202 Z M106.1201,23.1102 L102.8811,23.1102 L101.6311,23.1102 C101.4701,22.9702 101.3101,22.8292 101.1401,22.7092 L101.1401,14.6602 C101.3201,14.6402 101.5001,14.6292 101.6801,14.6202 L104.3201,14.5602 C105.9501,14.5202 107.5701,14.5392 109.2001,14.6102 C108.7801,19.2002 106.8701,22.1292 106.1201,23.1102 Z M92.6711,31.7702 C92.7401,31.8102 92.8101,31.8202 92.8901,31.8202 C93.0001,31.8202 93.1001,31.7892 93.1901,31.7202 L96.7601,29.0202 L100.1501,31.5792 C100.1601,31.5892 100.1601,31.6002 100.1601,31.6102 C100.2201,31.8902 100.2801,32.1902 100.3201,32.4992 C100.3601,32.7402 100.3901,32.9702 100.4211,33.2202 C100.4401,33.3602 100.4501,33.5092 100.4611,33.6502 C100.5201,34.2402 100.5511,34.8602 100.5511,35.4992 C100.5511,36.1402 100.5201,36.7592 100.4611,37.3502 C100.4501,37.4902 100.4401,37.6402 100.4211,37.7802 C100.3601,38.2702 100.2901,38.7302 100.2001,39.1802 C100.1601,39.3792 100.1201,39.5792 100.0701,39.7802 C100.0301,39.9802 99.9801,40.1692 99.9301,40.3602 C99.8701,40.5892 99.8101,40.8102 99.7401,41.0302 C99.6711,41.2802 99.5911,41.5302 99.5001,41.7592 C99.4211,41.9992 99.3301,42.2302 99.2401,42.4402 C99.1501,42.6602 99.0601,42.8702 98.9701,43.0702 C98.8901,43.2702 98.8011,43.4592 98.7001,43.6402 C98.6201,43.8202 98.5301,43.9992 98.4301,44.1602 C98.4101,44.1902 98.4001,44.2302 98.3811,44.2592 C98.2701,44.4702 98.1501,44.6692 98.0401,44.8502 C97.8811,45.1102 97.7201,45.3292 97.6001,45.5092 C97.5201,45.6102 97.4611,45.7002 97.4001,45.7802 C97.3701,45.8102 97.3501,45.8392 97.3301,45.8702 L87.4101,45.8702 C88.5911,43.9502 90.1801,40.4402 90.1801,35.4902 C90.1801,30.5602 88.6001,27.0602 87.4211,25.1402 C87.4211,25.1292 87.4101,25.1202 87.4101,25.1102 L92.3101,25.1102 L92.3301,25.1102 L92.3901,25.1102 L92.3901,31.3202 C92.3901,31.5092 92.5001,31.6902 92.6711,31.7702 Z M103.0001,25.9592 C103.0801,26.0792 103.1711,26.2202 103.2501,26.3602 C103.5601,26.8792 103.8901,27.5202 104.2001,28.2802 C104.3101,28.5202 104.4101,28.7702 104.5001,29.0302 C104.5601,29.1902 104.6101,29.3502 104.6711,29.5202 C104.7801,29.8392 104.8811,30.1692 104.9701,30.5302 C105.0101,30.6602 105.0401,30.7892 105.0701,30.9302 C105.1311,31.1402 105.1801,31.3602 105.2201,31.5892 C105.2801,31.8792 105.3411,32.1802 105.3811,32.4902 C105.4211,32.6902 105.4401,32.9002 105.4701,33.1202 C105.4801,33.1602 105.4801,33.2002 105.4801,33.2402 C105.5001,33.3702 105.5101,33.4992 105.5201,33.6402 C105.5511,33.9002 105.5701,34.1692 105.5801,34.4402 C105.6001,34.7802 105.6101,35.1402 105.6101,35.4992 C105.6101,35.8602 105.6001,36.2092 105.5801,36.5492 C105.5701,36.8202 105.5511,37.0892 105.5201,37.3502 C105.5101,37.4802 105.5001,37.6202 105.4801,37.7492 C105.4501,38.0602 105.4101,38.3702 105.3501,38.6602 C105.3411,38.7302 105.3301,38.7992 105.3201,38.8702 C105.3101,38.9402 105.3011,38.9992 105.2901,39.0702 C105.2701,39.1402 105.2601,39.2002 105.2401,39.2702 C105.2111,39.4102 105.1901,39.5392 105.1601,39.6692 C105.1311,39.7992 105.1001,39.9302 105.0701,40.0492 C105.0201,40.2702 104.9611,40.4902 104.9001,40.7002 C104.8201,40.9802 104.7401,41.2492 104.6501,41.5092 C104.6101,41.6402 104.5701,41.7592 104.5201,41.8792 C104.2401,42.6602 103.9401,43.3292 103.6401,43.9002 C103.5401,44.0892 103.4501,44.2702 103.3501,44.4302 C103.2701,44.5792 103.1801,44.7302 103.1001,44.8602 C102.9501,45.1002 102.8201,45.2992 102.7001,45.4702 C102.5911,45.6292 102.4901,45.7592 102.4101,45.8702 L99.7701,45.8702 C99.8411,45.7492 99.9211,45.6292 99.9901,45.4902 C100.1311,45.2492 100.2701,44.9902 100.4211,44.7092 C100.4401,44.6802 100.4501,44.6602 100.4611,44.6292 C100.6201,44.3202 100.7801,43.9802 100.9301,43.6202 C101.0101,43.4402 101.0911,43.2492 101.1601,43.0602 C101.2401,42.8602 101.3101,42.6692 101.3901,42.4592 C101.4611,42.2592 101.5401,42.0492 101.6001,41.8292 C101.6711,41.6102 101.7401,41.3902 101.8011,41.1602 C101.8101,41.1502 101.8101,41.1502 101.8101,41.1402 C101.8701,40.9192 101.9211,40.6902 101.9801,40.4502 C102.0401,40.2092 102.0911,39.9702 102.1401,39.7092 C102.1901,39.4592 102.2401,39.2092 102.2801,38.9402 C102.3201,38.7002 102.3501,38.4592 102.3811,38.2202 C102.4301,37.8702 102.4611,37.5092 102.4901,37.1402 C102.5101,36.9002 102.5201,36.6602 102.5301,36.4102 C102.5401,36.1102 102.5511,35.8102 102.5511,35.4992 C102.5511,35.1902 102.5401,34.8902 102.5301,34.5892 C102.5201,34.3392 102.5101,34.1002 102.4901,33.8602 C102.4611,33.4902 102.4301,33.1292 102.3811,32.7802 C102.3501,32.5302 102.3201,32.2892 102.2801,32.0492 C102.2401,31.7892 102.1901,31.5302 102.1401,31.2802 C102.0911,31.0202 102.0401,30.7802 101.9801,30.5392 C101.9211,30.2992 101.8701,30.0702 101.8101,29.8502 C101.8101,29.8392 101.8101,29.8392 101.8011,29.8292 C101.7401,29.6002 101.6711,29.3792 101.6001,29.1602 C101.5401,28.9502 101.4611,28.7402 101.3901,28.5302 C101.3101,28.3202 101.2401,28.1202 101.1601,27.9302 C101.1601,27.9102 101.1501,27.8902 101.1401,27.8792 L101.1401,27.8702 L101.1401,25.1502 L101.1401,25.1102 L102.4101,25.1102 C102.4211,25.1202 102.4301,25.1402 102.4501,25.1602 C102.5911,25.3502 102.7901,25.6202 103.0001,25.9592 Z M72.3011,70.6502 L72.6001,75.9592 L70.6601,73.9802 C70.5701,73.8792 70.4401,73.8292 70.3101,73.8292 C70.1711,73.8292 70.0401,73.8792 69.9501,73.9802 L68.0001,75.9592 L68.3011,70.6502 L68.3011,70.6402 L68.3011,70.6102 L68.3301,70.1402 L68.3301,70.1102 L68.3901,69.1402 L68.3901,69.1102 L68.4101,68.6502 L68.4211,68.6402 L68.4211,68.6102 L68.8811,60.4702 L68.9001,60.0892 L71.7111,60.0892 L71.7301,60.4302 L72.1901,68.6102 L72.1901,68.6402 L72.1901,68.6502 L72.2201,69.1102 L72.2201,69.1402 L72.2701,70.1102 L72.2701,70.1402 L72.3011,70.6102 L72.3011,70.6402 L72.3011,70.6502 Z M34.7501,87.7592 C34.8811,87.7802 35.0201,87.8102 35.1501,87.8392 C35.9301,88.0092 36.7111,88.2802 37.5001,88.6902 C37.5601,88.7202 37.6101,88.7702 37.6401,88.8292 C37.6901,88.9102 37.6901,88.9992 37.6711,89.0892 C37.6401,89.1802 37.5801,89.2492 37.5001,89.2892 C37.2501,89.4192 36.9901,89.5392 36.7401,89.6402 C36.5701,89.7092 36.4001,89.7702 36.2301,89.8292 C36.0601,89.8902 35.8811,89.9502 35.7111,89.9902 C35.6001,90.0302 35.4801,90.0602 35.3701,90.0792 C35.0301,90.1692 34.7001,90.2302 34.3601,90.2802 C33.7001,90.3902 33.0301,90.4402 32.3601,90.4592 C32.0201,90.4802 31.6801,90.4902 31.3411,90.4902 L31.1601,90.0492 C30.9001,89.3702 30.9001,88.6102 31.1601,87.9302 L31.3301,87.4902 C31.6801,87.4902 32.0201,87.4992 32.3601,87.5092 C32.6801,87.5202 33.0001,87.5392 33.3201,87.5702 C33.6711,87.5892 34.0101,87.6292 34.3601,87.6902 C34.4901,87.7092 34.6201,87.7302 34.7501,87.7592 Z M129.0801,129.5892 L126.9001,122.7092 C126.8101,122.4502 126.5301,122.3102 126.2701,122.3902 C126.0001,122.4702 125.8601,122.7492 125.9401,123.0202 L127.9801,129.4192 L126.4611,129.9002 C126.1001,128.5492 125.7201,127.2092 125.3501,125.8902 L125.1401,125.1692 C124.2111,121.9502 123.2111,118.7302 122.3501,115.9592 L122.0511,115.0302 C121.1801,112.3292 120.2901,109.5492 119.3501,106.8202 C119.1401,106.2402 118.9501,105.6602 118.7601,105.0792 C117.9501,102.6102 117.1101,100.0492 114.9611,97.9102 C114.7501,97.7002 114.4901,97.5602 114.2001,97.5202 C113.8201,97.4502 113.4501,97.5392 113.1401,97.7492 C112.8301,97.9702 112.6201,98.2992 112.5511,98.6692 C112.0401,101.6692 112.8301,104.2402 113.6001,106.7202 C113.7801,107.3102 113.9611,107.8902 114.1311,108.4902 C114.6841,110.3892 115.2721,112.2912 115.8611,114.1802 L103.1901,114.1802 C103.1311,114.1692 103.0601,114.1602 102.9901,114.1602 L100.8011,114.1602 L100.8011,93.4302 L102.9901,93.4302 C103.0701,93.4302 103.1501,93.4192 103.2201,93.4002 L103.2301,93.4002 L107.7801,93.4002 L112.3701,93.4002 C112.6501,93.4002 112.9101,93.2802 113.1001,93.0792 C113.2701,92.9102 117.1201,88.7092 117.1201,81.0202 C117.1201,73.3392 113.2701,69.1202 113.1001,68.9502 C112.9101,68.7492 112.6501,68.6292 112.3701,68.6292 L110.4901,68.6292 C110.4301,68.6202 110.3601,68.6102 110.2901,68.6102 L108.1001,68.6102 L108.1001,47.8792 L110.2901,47.8792 C110.3201,47.8792 110.3601,47.8792 110.3901,47.8702 L112.3701,47.8702 C112.6501,47.8702 112.9101,47.7592 113.1001,47.5602 C113.2701,47.3792 117.1201,43.1802 117.1201,35.4992 C117.1201,27.8102 113.2701,23.6002 113.1001,23.4192 C112.9101,23.2202 112.6501,23.1102 112.3701,23.1102 L108.5511,23.1102 C109.7201,21.1802 111.2901,17.6902 111.2901,12.7702 C111.2901,5.0892 107.4501,0.8792 107.2901,0.7092 C107.1001,0.4992 106.8301,0.3902 106.5511,0.3902 L101.2901,0.3902 C101.0201,0.3902 100.7401,0.5102 100.5601,0.7002 C99.5201,1.7402 98.1501,2.3102 96.6901,2.3102 C95.2201,2.3102 93.8501,1.7402 92.8101,0.7002 C92.6311,0.5102 92.3701,0.4102 92.1101,0.4102 L13.8411,0.4102 C13.2901,0.4102 12.8411,0.8602 12.8411,1.4102 C12.8411,1.9592 13.2901,2.4102 13.8411,2.4102 L16.0401,2.4102 L16.0401,23.1402 L13.8411,23.1402 C13.2901,23.1402 12.8411,23.5892 12.8411,24.1402 C12.8411,24.6902 13.2901,25.1402 13.8411,25.1402 L23.2001,25.1402 L23.2001,45.8602 L22.8501,45.8602 L21.0101,45.8602 L17.5801,45.8602 C17.3001,45.8602 17.0401,45.9802 16.8501,46.1802 C16.6801,46.3502 12.8411,50.5602 12.8411,58.2492 C12.8411,65.9302 16.6801,70.1402 16.8501,70.3102 C17.0401,70.5202 17.3001,70.6292 17.5801,70.6292 L20.7801,70.6292 C20.8501,70.6502 20.9301,70.6602 21.0101,70.6602 L23.2001,70.6602 L23.2001,86.3702 C22.4701,86.3702 21.7301,86.3602 21.0101,86.3602 L20.1901,86.3602 C17.5201,86.3702 14.4301,86.4002 11.4001,86.4802 L10.6201,86.5092 C9.4211,86.5492 8.2001,86.5892 6.9801,86.6402 L6.9801,85.2802 L15.0601,85.2802 C15.3411,85.2802 15.5601,85.0602 15.5601,84.7802 C15.5601,84.5092 15.3411,84.2802 15.0601,84.2802 L6.4801,84.2802 C6.2001,84.2802 5.9801,84.5092 5.9801,84.7802 L5.9801,86.6802 C5.0701,86.7202 4.1501,86.7702 3.2401,86.8392 C3.2301,86.8392 3.2111,86.8292 3.1901,86.8392 C3.0501,86.8392 2.9001,86.8502 2.7601,86.8602 L2.1401,86.8602 C0.9611,86.8602 0.0001,87.8102 0.0001,88.9902 C0.0001,90.1602 0.9611,91.1202 2.1401,91.1202 L2.9301,91.1202 C4.7701,91.2492 6.6311,91.3202 8.4611,91.3902 L8.4901,91.3902 C8.5911,91.3902 8.6901,91.4002 8.7801,91.4002 L7.5911,91.4002 C7.3101,91.4002 7.0501,91.5202 6.8601,91.7202 C6.6901,91.9002 2.8411,96.1102 2.8411,103.7992 C2.8411,111.4802 6.6901,115.6802 6.8601,115.8602 C7.0501,116.0602 7.3101,116.1692 7.5911,116.1692 L14.6401,116.1692 L19.7111,116.1692 L21.4401,116.1692 C20.2601,118.0792 18.6711,121.5892 18.6711,126.5392 C18.6711,134.2302 22.5101,138.4302 22.6711,138.6102 C22.8601,138.8102 23.1311,138.9302 23.4001,138.9302 L28.6711,138.9302 C28.9401,138.9302 29.2201,138.7992 29.4001,138.6102 C31.5401,136.4802 35.0101,136.4802 37.1501,138.6102 C37.3301,138.7992 37.5911,138.9002 37.8501,138.9002 L116.1201,138.9002 C116.6711,138.9002 117.1201,138.4592 117.1201,137.9002 C117.1201,137.3502 116.6711,136.9002 116.1201,136.9002 L113.9211,136.9002 L113.9211,116.1802 L116.1201,116.1802 C116.2401,116.1802 116.3501,116.1602 116.4611,116.1102 L116.4621,116.1092 C116.5211,116.2972 116.5811,116.4922 116.6401,116.6802 L116.9611,117.6802 C117.9101,120.6202 118.9301,123.7492 120.0001,126.8102 L120.2901,127.6202 C121.2501,130.3292 122.2501,133.1292 123.3301,135.8602 L123.3411,135.8792 L123.8201,137.4002 C124.1311,138.3792 125.0401,138.9992 126.0101,138.9992 C126.2401,138.9992 126.4701,138.9592 126.7001,138.8902 C127.2801,138.7002 127.7601,138.2992 128.0401,137.7592 C128.3201,137.2202 128.3701,136.6002 128.1801,136.0092 L127.5201,133.9192 L127.5201,133.9102 C127.2701,132.9002 127.0001,131.8792 126.7201,130.8702 L128.7601,130.2202 C128.8901,130.1802 128.9901,130.0892 129.0501,129.9702 C129.1101,129.8502 129.1201,129.7202 129.0801,129.5892 Z" id="Fill-46" fill="#2F3061" mask="url(#mask-2)"></path>
                    </g>
                    <path d="M33.95,56.4 L27.99,56.4 C27.721,56.4 27.49,56.62 27.49,56.9 C27.49,57.18 27.721,57.4 27.99,57.4 L33.95,57.4 C34.23,57.4 34.45,57.18 34.45,56.9 C34.45,56.62 34.23,56.4 33.95,56.4" id="Fill-49" fill="#2F3061"></path>
                </g>
            </g>
        </g>
    </g>
</svg>