<svg width="155" height="153" viewBox="0 0 155 153" fill="none" xmlns="http://www.w3.org/2000/svg">
<g opacity="0.2">
<path fill-rule="evenodd" clip-rule="evenodd" d="M41.2262 62.1959C33.7093 69.7104 22.3696 71.0878 13.4529 66.3142H3.77384V56.6232C-0.995256 47.7163 0.389609 36.3881 7.89946 28.8796C17.1049 19.6761 32.0277 19.6761 41.2262 28.8726C50.4326 38.0762 50.4326 52.9923 41.2262 62.1959Z" fill="#7CA982"/>
<path fill-rule="evenodd" clip-rule="evenodd" d="M41.2262 62.1959C33.7093 69.7104 22.3696 71.0878 13.4529 66.3142H3.77384V56.6232C-0.995256 47.7163 0.389609 36.3881 7.89946 28.8796C17.1049 19.6761 32.0277 19.6761 41.2262 28.8726C50.4326 38.0762 50.4326 52.9923 41.2262 62.1959Z" stroke="#2F3061" stroke-width="2" stroke-linecap="round" stroke-linejoin="round"/>
<mask id="mask0" mask-type="alpha" maskUnits="userSpaceOnUse" x="0" y="20" width="50" height="51">
<path fill-rule="evenodd" clip-rule="evenodd" d="M0 70.0924H49.1297V20.9771H0V70.0924Z" fill="white"/>
</mask>
<g mask="url(#mask0)">
<path fill-rule="evenodd" clip-rule="evenodd" d="M21.5743 56.1315H26.3894V51.3489H21.5743V56.1315ZM21.9031 44.175L22.0539 44.0252C23.9464 43.9453 25.2923 43.6696 26.0906 43.1981C26.887 42.7276 27.2856 42.0904 27.2856 41.2883V41.2283C27.2856 40.5471 27.0468 40.0207 26.5672 39.6491C26.0906 39.2785 25.4112 39.0937 24.5359 39.0937C23.6986 39.0937 22.9152 39.2626 22.1868 39.6012C21.4604 39.9408 20.747 40.4582 20.0516 41.1554L17.2988 38.1438C18.1751 37.1939 19.2073 36.4228 20.3943 35.8294C21.5793 35.2361 22.9902 34.9395 24.6258 34.9395C25.7009 34.9395 26.6811 35.0723 27.5644 35.342C28.4477 35.6117 29.2081 36.0102 29.8406 36.5376C30.472 37.066 30.9646 37.7133 31.3093 38.4814C31.6581 39.2486 31.8309 40.1296 31.8309 41.1264V41.1854C31.8309 42.1413 31.677 42.9584 31.3703 43.6366C31.0635 44.3138 30.6479 44.8922 30.1223 45.3706C29.5968 45.8491 28.9783 46.2327 28.2648 46.5213C27.5534 46.811 26.7861 47.0348 25.9717 47.1936L25.64 49.0165H22.5915L21.9031 44.175Z" fill="#2F3061"/>
</g>
<path fill-rule="evenodd" clip-rule="evenodd" d="M101.019 53.9724C110.919 63.8702 125.854 65.6851 137.599 59.3962H150.347V46.6327C156.628 34.902 154.804 19.9809 144.914 10.0921C132.788 -2.02919 113.135 -2.02919 101.019 10.0831C88.8925 22.2044 88.8935 41.8511 101.019 53.9724Z" fill="#D4A283"/>
<path fill-rule="evenodd" clip-rule="evenodd" d="M101.019 53.9724C110.919 63.8702 125.854 65.6851 137.599 59.3962H150.347V46.6327C156.628 34.902 154.804 19.9809 144.914 10.0921C132.788 -2.02919 113.135 -2.02919 101.019 10.0831C88.8925 22.2044 88.8935 41.8511 101.019 53.9724Z" stroke="#2F3061" stroke-width="2" stroke-linecap="round" stroke-linejoin="round"/>
<path fill-rule="evenodd" clip-rule="evenodd" d="M129.205 29.0469C129.666 28.5994 129.891 28.047 129.891 27.4157C129.891 26.7835 129.666 26.2311 129.205 25.7836C128.759 25.3371 128.219 25.1133 127.574 25.1133C126.941 25.1133 126.403 25.3371 125.942 25.7836C125.494 26.2311 125.271 26.7835 125.271 27.4157C125.271 28.047 125.494 28.5994 125.942 29.0469C126.403 29.4944 126.941 29.7181 127.574 29.7181C128.219 29.7181 128.759 29.4944 129.205 29.0469ZM116.717 25.7836C116.27 26.2311 116.045 26.7835 116.045 27.4157C116.045 28.047 116.27 28.5994 116.717 29.0469C117.164 29.4944 117.703 29.7181 118.349 29.7181C118.981 29.7181 119.532 29.4944 119.981 29.0469C120.429 28.5994 120.651 28.047 120.651 27.4157C120.651 26.7835 120.429 26.2311 119.981 25.7836C119.532 25.3371 118.981 25.1133 118.349 25.1133C117.703 25.1133 117.164 25.3371 116.717 25.7836ZM116.441 34.3878C116.296 34.6645 116.27 34.9542 116.362 35.2558C116.81 36.7042 117.638 37.8879 118.849 38.7689C120.072 39.6638 121.441 40.1113 122.967 40.1113C124.494 40.1113 125.863 39.6638 127.073 38.7689C128.284 37.8879 129.112 36.7042 129.56 35.2558C129.653 34.9542 129.64 34.6645 129.495 34.3878C129.35 34.0991 129.112 33.9144 128.798 33.8095C128.508 33.7176 128.219 33.7435 127.929 33.8884C127.653 34.0332 127.455 34.257 127.363 34.5726C127.061 35.5325 126.509 36.3096 125.691 36.901C124.889 37.5063 123.968 37.795 122.967 37.795C121.954 37.795 121.046 37.5063 120.231 36.901C119.414 36.3096 118.862 35.5325 118.56 34.5726C118.467 34.257 118.27 34.0332 117.981 33.8884C117.691 33.7435 117.401 33.7176 117.098 33.8095C116.81 33.9144 116.586 34.0991 116.441 34.3878ZM111.427 32.0335C111.427 30.4673 111.729 28.9679 112.347 27.5476C112.953 26.1262 113.781 24.9026 114.809 23.8767C115.834 22.8499 117.059 22.0218 118.481 21.4165C119.901 20.7982 121.401 20.4955 122.967 20.4955C124.521 20.4955 126.021 20.7982 127.442 21.4165C128.864 22.0218 130.101 22.8499 131.127 23.8767C132.154 24.9026 132.969 26.1262 133.589 27.5476C134.193 28.9679 134.496 30.4673 134.496 32.0335C134.496 33.5857 134.193 35.085 133.589 36.5064C132.969 37.9268 132.154 39.1634 131.127 40.1902C130.101 41.2161 128.864 42.0322 127.442 42.6505C126.021 43.2558 124.521 43.5714 122.967 43.5714C121.401 43.5714 119.901 43.2558 118.481 42.6505C117.059 42.0322 115.834 41.2161 114.809 40.1902C113.781 39.1634 112.953 37.9268 112.347 36.5064C111.729 35.085 111.427 33.5857 111.427 32.0335ZM109.111 32.0335C109.111 34.5456 109.729 36.861 110.979 38.9796C112.215 41.0972 113.887 42.7813 116.006 44.0179C118.138 45.2555 120.455 45.8728 122.967 45.8728C125.48 45.8728 127.797 45.2555 129.917 44.0179C132.035 42.7813 133.72 41.0972 134.957 38.9796C136.194 36.861 136.811 34.5456 136.811 32.0335C136.811 29.5203 136.194 27.205 134.957 25.0734C133.72 22.9558 132.035 21.2847 129.917 20.0481C127.797 18.7985 125.48 18.1802 122.967 18.1802C120.455 18.1802 118.138 18.7985 116.006 20.0481C113.887 21.2847 112.215 22.9558 110.979 25.0734C109.729 27.205 109.111 29.5203 109.111 32.0335ZM129.205 29.0469C129.666 28.5994 129.891 28.047 129.891 27.4157C129.891 26.7835 129.666 26.2311 129.205 25.7836C128.759 25.3371 128.219 25.1133 127.574 25.1133C126.941 25.1133 126.403 25.3371 125.942 25.7836C125.494 26.2311 125.271 26.7835 125.271 27.4157C125.271 28.047 125.494 28.5994 125.942 29.0469C126.403 29.4944 126.941 29.7181 127.574 29.7181C128.219 29.7181 128.759 29.4944 129.205 29.0469ZM119.981 29.0469C120.429 28.5994 120.651 28.047 120.651 27.4157C120.651 26.7835 120.429 26.2311 119.981 25.7836C119.532 25.3371 118.981 25.1133 118.349 25.1133C117.703 25.1133 117.164 25.3371 116.717 25.7836C116.27 26.2311 116.045 26.7835 116.045 27.4157C116.045 28.047 116.27 28.5994 116.717 29.0469C117.164 29.4944 117.703 29.7181 118.349 29.7181C118.981 29.7181 119.532 29.4944 119.981 29.0469ZM116.441 34.3878C116.296 34.6645 116.27 34.9542 116.362 35.2558C116.81 36.7042 117.638 37.8879 118.849 38.7689C120.072 39.6638 121.441 40.1113 122.967 40.1113C124.494 40.1113 125.863 39.6638 127.073 38.7689C128.284 37.8879 129.112 36.7042 129.56 35.2558C129.653 34.9542 129.64 34.6645 129.495 34.3878C129.35 34.0991 129.112 33.9144 128.798 33.8095C128.508 33.7176 128.219 33.7435 127.929 33.8884C127.653 34.0332 127.455 34.257 127.363 34.5726C127.061 35.5325 126.509 36.3096 125.691 36.901C124.889 37.5063 123.968 37.795 122.967 37.795C121.954 37.795 121.046 37.5063 120.231 36.901C119.414 36.3096 118.862 35.5325 118.56 34.5726C118.467 34.257 118.27 34.0332 117.981 33.8884C117.691 33.7435 117.401 33.7176 117.098 33.8095C116.81 33.9144 116.586 34.0991 116.441 34.3878ZM125.271 27.4157C125.271 28.047 125.494 28.5994 125.942 29.0469C126.403 29.4944 126.941 29.7181 127.574 29.7181C128.219 29.7181 128.759 29.4944 129.205 29.0469C129.666 28.5994 129.891 28.047 129.891 27.4157C129.891 26.7835 129.666 26.2311 129.205 25.7836C128.759 25.3371 128.219 25.1133 127.574 25.1133C126.941 25.1133 126.403 25.3371 125.942 25.7836C125.494 26.2311 125.271 26.7835 125.271 27.4157ZM116.362 35.2558C116.81 36.7042 117.638 37.8879 118.849 38.7689C120.072 39.6638 121.441 40.1113 122.967 40.1113C124.494 40.1113 125.863 39.6638 127.073 38.7689C128.284 37.8879 129.112 36.7042 129.56 35.2558C129.653 34.9542 129.64 34.6645 129.495 34.3878C129.35 34.0991 129.112 33.9144 128.798 33.8095C128.508 33.7176 128.219 33.7435 127.929 33.8884C127.653 34.0332 127.455 34.257 127.363 34.5726C127.061 35.5325 126.509 36.3096 125.691 36.901C124.889 37.5063 123.968 37.795 122.967 37.795C121.954 37.795 121.046 37.5063 120.231 36.901C119.414 36.3096 118.862 35.5325 118.56 34.5726C118.467 34.257 118.27 34.0332 117.981 33.8884C117.691 33.7435 117.401 33.7176 117.098 33.8095C116.81 33.9144 116.586 34.0991 116.441 34.3878C116.296 34.6645 116.27 34.9542 116.362 35.2558ZM116.045 27.4157C116.045 28.047 116.27 28.5994 116.717 29.0469C117.164 29.4944 117.703 29.7181 118.349 29.7181C118.981 29.7181 119.532 29.4944 119.981 29.0469C120.429 28.5994 120.651 28.047 120.651 27.4157C120.651 26.7835 120.429 26.2311 119.981 25.7836C119.532 25.3371 118.981 25.1133 118.349 25.1133C117.703 25.1133 117.164 25.3371 116.717 25.7836C116.27 26.2311 116.045 26.7835 116.045 27.4157Z" fill="#2F3061"/>
<path fill-rule="evenodd" clip-rule="evenodd" d="M116.045 27.4153C116.045 26.784 116.27 26.2306 116.717 25.7842C117.164 25.3367 117.703 25.1129 118.349 25.1129C118.981 25.1129 119.532 25.3367 119.98 25.7842C120.429 26.2306 120.651 26.784 120.651 27.4153C120.651 28.0466 120.429 28.6 119.98 29.0465C119.532 29.494 118.981 29.7177 118.349 29.7177C117.703 29.7177 117.164 29.494 116.717 29.0465C116.27 28.6 116.045 28.0466 116.045 27.4153ZM116.441 34.3874C116.586 34.0987 116.81 33.9139 117.098 33.809C117.4 33.7172 117.69 33.7431 117.981 33.888C118.27 34.0328 118.467 34.2565 118.56 34.5722C118.862 35.5321 119.414 36.3092 120.23 36.9005C121.046 37.5059 121.954 37.7955 122.968 37.7955C123.968 37.7955 124.889 37.5059 125.691 36.9005C126.509 36.3092 127.06 35.5321 127.363 34.5722C127.455 34.2565 127.653 34.0328 127.929 33.888C128.219 33.7431 128.508 33.7172 128.798 33.809C129.113 33.9139 129.349 34.0987 129.495 34.3874C129.639 34.6641 129.653 34.9538 129.56 35.2564C129.113 36.7038 128.284 37.8874 127.073 38.7694C125.863 39.6634 124.494 40.1109 122.968 40.1109C121.441 40.1109 120.072 39.6634 118.849 38.7694C117.638 37.8874 116.81 36.7038 116.361 35.2564C116.27 34.9538 116.296 34.6641 116.441 34.3874ZM129.89 27.4153C129.89 28.0466 129.666 28.6 129.205 29.0465C128.759 29.494 128.219 29.7177 127.574 29.7177C126.941 29.7177 126.403 29.494 125.942 29.0465C125.494 28.6 125.27 28.0466 125.27 27.4153C125.27 26.784 125.494 26.2306 125.942 25.7842C126.403 25.3367 126.941 25.1129 127.574 25.1129C128.219 25.1129 128.759 25.3367 129.205 25.7842C129.666 26.2306 129.89 26.784 129.89 27.4153ZM111.427 32.0331C111.427 33.5853 111.729 35.0856 112.347 36.506C112.953 37.9264 113.781 39.164 114.809 40.1898C115.834 41.2157 117.059 42.0317 118.481 42.65C119.901 43.2553 121.401 43.571 122.968 43.571C124.52 43.571 126.021 43.2553 127.442 42.65C128.864 42.0317 130.1 41.2157 131.127 40.1898C132.154 39.164 132.968 37.9264 133.589 36.506C134.193 35.0856 134.496 33.5853 134.496 32.0331C134.496 30.4678 134.193 28.9675 133.589 27.5471C132.968 26.1257 132.154 24.9021 131.127 23.8763C130.1 22.8505 128.864 22.0214 127.442 21.4161C126.021 20.7978 124.52 20.4951 122.968 20.4951C121.401 20.4951 119.901 20.7978 118.481 21.4161C117.059 22.0214 115.834 22.8505 114.809 23.8763C113.781 24.9021 112.953 26.1257 112.347 27.5471C111.729 28.9675 111.427 30.4678 111.427 32.0331Z" fill="#E2EFF3"/>
<path fill-rule="evenodd" clip-rule="evenodd" d="M34.912 132.64C35.1408 132.64 35.3416 132.729 35.5115 132.889C35.6814 133.059 35.7613 133.259 35.7613 133.489C35.7613 133.718 35.6814 133.918 35.5115 134.088C35.3416 134.258 35.1408 134.338 34.912 134.338C34.6822 134.338 34.4813 134.258 34.3115 134.088C34.1516 133.918 34.0617 133.718 34.0617 133.489C34.0617 133.259 34.1516 133.059 34.3115 132.889C34.4813 132.729 34.6822 132.64 34.912 132.64ZM50.3693 128.185C50.4593 128.454 50.5092 128.694 50.5092 128.914C50.5092 129.523 50.2694 130.052 49.7988 130.492C49.9597 130.772 50.0396 131.081 50.0396 131.411C50.0396 131.731 49.9597 132.06 49.8088 132.38C49.6499 132.709 49.4401 132.939 49.1803 133.079C49.2193 133.339 49.2403 133.588 49.2403 133.818C49.2403 135.296 48.39 136.036 46.7023 136.036H45.0937C43.9346 136.036 42.4258 135.706 40.5564 135.067C40.5174 135.047 40.3865 135.007 40.1777 134.927C39.9679 134.847 39.807 134.797 39.7081 134.757C39.6082 134.727 39.4483 134.677 39.2385 134.607C39.0386 134.537 38.8688 134.497 38.7389 134.467C38.609 134.427 38.4591 134.407 38.2992 134.378C38.1384 134.348 37.9995 134.338 37.8796 134.338H37.4599V125.857H37.8796C38.0294 125.857 38.1793 125.817 38.3492 125.737C38.529 125.657 38.6989 125.538 38.8787 125.378C39.0676 125.218 39.2385 125.058 39.3973 124.908C39.5572 124.748 39.7271 124.559 39.9279 124.319C40.1177 124.089 40.2676 123.899 40.3775 123.76C40.4874 123.62 40.6273 123.44 40.7972 123.22C40.967 123 41.066 122.861 41.1069 122.821C41.5865 122.221 41.9263 121.822 42.1261 121.612C42.4858 121.232 42.7456 120.753 42.9154 120.164C43.0753 119.574 43.2152 119.025 43.3141 118.496C43.425 117.976 43.5949 117.607 43.8247 117.377C44.674 117.377 45.2335 117.577 45.5233 117.996C45.8021 118.416 45.943 119.055 45.943 119.914C45.943 120.443 45.7331 121.152 45.3025 122.041C44.8828 122.94 44.674 123.65 44.674 124.159H49.3402C49.7798 124.159 50.1695 124.329 50.5192 124.669C50.8589 125.008 51.0388 125.408 51.0388 125.857C51.0388 126.167 50.9389 126.526 50.749 126.926C50.5582 127.335 50.3194 127.545 50.0396 127.555C50.1695 127.705 50.2794 127.915 50.3693 128.185ZM59.2119 110.774C50.0104 101.585 35.0927 101.585 25.8802 110.784C18.3764 118.296 16.9875 129.623 21.7636 138.523L21.7536 148.222H31.4357C40.3584 152.996 51.6891 151.618 59.2119 144.097C68.4154 134.897 68.4154 119.984 59.2119 110.774Z" fill="#ED6A5A"/>
<path d="M34.912 133.527L35.6403 132.842L35.6403 132.842L34.912 133.527ZM34.9961 133.617L35.5071 134.476C35.7678 134.321 35.9441 134.056 35.9864 133.756C36.0286 133.456 35.9323 133.152 35.7244 132.932L34.9961 133.617ZM34.9115 133.527L35.6398 132.842C35.4508 132.641 35.1873 132.527 34.9115 132.527C34.6357 132.527 34.3722 132.641 34.1832 132.842L34.9115 133.527ZM34.8269 133.617L34.0986 132.932C33.8905 133.153 33.7942 133.456 33.8368 133.757C33.8794 134.058 34.0562 134.323 34.3176 134.477L34.8269 133.617ZM34.8432 133.625L34.4526 134.545L34.8432 133.625ZM34.8788 133.636L34.6793 134.616H34.6793L34.8788 133.636ZM34.9441 133.636L35.1431 134.616H35.1431L34.9441 133.636ZM34.9795 133.625L35.3697 134.546L34.9795 133.625ZM35.0388 133.574L34.3533 134.302C34.575 134.511 34.8797 134.607 35.181 134.564C35.4824 134.52 35.7476 134.342 35.9016 134.08L35.0388 133.574ZM34.9481 133.489L34.2626 132.76C34.0619 132.949 33.9481 133.213 33.9481 133.489C33.9481 133.764 34.0619 134.028 34.2626 134.217L34.9481 133.489ZM35.0469 133.558L35.9672 133.949H35.9672L35.0469 133.558ZM35.0581 133.521L36.0381 133.721V133.721L35.0581 133.521ZM35.0581 133.456L34.0782 133.655L35.0581 133.456ZM35.0469 133.419L35.9672 133.028H35.9672L35.0469 133.419ZM35.0388 133.403L35.9016 132.897C35.7476 132.635 35.4824 132.457 35.181 132.413C34.8797 132.37 34.575 132.466 34.3533 132.675L35.0388 133.403ZM35.0185 133.381L35.7257 134.088C35.9157 133.898 36.0212 133.639 36.0184 133.37C36.0157 133.102 35.9049 132.845 35.7112 132.659L35.0185 133.381ZM34.9288 133.47L34.2433 134.198C34.6369 134.569 35.2538 134.56 35.636 134.177L34.9288 133.47ZM35.0055 133.371L34.4447 134.198L34.4447 134.198L35.0055 133.371ZM34.9697 133.352L35.3501 132.427L34.9697 133.352ZM34.853 133.352L34.4722 132.427L34.4722 132.427L34.853 133.352ZM34.8206 133.369L34.2793 132.528C34.0206 132.694 33.853 132.971 33.8248 133.277C33.7967 133.583 33.9111 133.886 34.1351 134.097L34.8206 133.369ZM34.912 133.455L34.2265 134.183L34.912 133.455ZM34.8754 133.489L34.1471 134.174L34.8754 133.489ZM34.8925 133.507L35.5997 134.214C35.9817 133.832 35.9911 133.215 35.6208 132.821L34.8925 133.507ZM34.7911 133.399L35.5194 132.714C35.3065 132.487 35.0005 132.373 34.6914 132.404C34.3822 132.435 34.105 132.608 33.9413 132.872L34.7911 133.399ZM34.7757 133.429L35.7001 133.811L35.7001 133.811L34.7757 133.429ZM34.7757 133.548L35.7001 133.166L35.7001 133.166L34.7757 133.548ZM34.795 133.584L35.6222 133.022L35.6222 133.022L34.795 133.584ZM34.8037 133.595L34.0538 134.257C34.2365 134.464 34.4966 134.586 34.7725 134.595C35.0485 134.604 35.3157 134.498 35.5109 134.302L34.8037 133.595ZM33.6262 132.161L32.941 131.433L33.6262 132.161ZM36.1968 132.161L35.5115 132.889L35.5115 132.889L36.1968 132.161ZM36.2185 132.182L36.9255 131.475L36.9255 131.475L36.2185 132.182ZM36.2185 134.795L36.9255 135.502L36.9255 135.502L36.2185 134.795ZM33.6045 134.795L32.8975 135.502L32.8975 135.502L33.6045 134.795ZM33.5834 134.773L32.8553 135.459L32.8553 135.459L33.5834 134.773ZM33.5834 132.204L34.3115 132.889L33.5834 132.204ZM43.1177 116.67L43.8247 117.377L43.1177 116.67ZM46.3461 117.428L47.174 116.867L47.1689 116.859L46.3461 117.428ZM46.3562 117.443L47.1891 116.889L47.1841 116.882L46.3562 117.443ZM46.2057 122.471L45.3055 122.035C45.3034 122.04 45.3014 122.044 45.2994 122.048L46.2057 122.471ZM45.9148 123.159L44.9777 122.81C44.8633 123.117 44.9066 123.461 45.0935 123.73C45.2804 123.999 45.5872 124.159 45.9148 124.159V123.159ZM51.2159 123.951L51.9178 123.239L51.9126 123.234L51.2159 123.951ZM51.2262 123.961L51.9332 123.254L51.9281 123.249L51.2262 123.961ZM51.6538 127.352L50.7503 126.923L50.7479 126.928L51.6538 127.352ZM51.325 127.889L50.543 127.266C50.3329 127.53 50.2697 127.881 50.375 128.202L51.325 127.889ZM50.9493 130.689L50.1321 130.112C49.963 130.352 49.9077 130.654 49.9809 130.938L50.9493 130.689ZM50.7131 132.807L49.8088 132.38L49.8088 132.38L50.7131 132.807ZM50.7096 132.814L50.2741 133.714C50.5143 133.83 50.7911 133.846 51.0427 133.757C51.2944 133.668 51.5 133.482 51.614 133.241L50.7096 132.814ZM50.7096 132.814L51.1452 131.914C50.9062 131.798 50.6311 131.782 50.3804 131.87C50.1297 131.957 49.9241 132.141 49.8088 132.38L50.7096 132.814ZM50.2313 133.517L49.5065 132.829C49.316 133.029 49.217 133.299 49.233 133.575L50.2313 133.517ZM49.2616 136.235L48.6042 135.481L48.6042 135.481L49.2616 136.235ZM40.2328 136.013L39.9092 136.959L39.9092 136.959L40.2328 136.013ZM40.154 135.982L40.5564 135.067C40.5363 135.058 40.5158 135.05 40.4952 135.042L40.154 135.982ZM40.098 135.962L39.7648 136.905L39.7653 136.905L40.098 135.962ZM40.0966 135.962L40.4298 135.019L40.4293 135.019L40.0966 135.962ZM39.8218 135.861L40.179 134.927L40.1777 134.927L39.8218 135.861ZM39.5722 135.771L39.9013 134.827L39.9013 134.827L39.5722 135.771ZM39.5537 135.765L39.2251 136.709L39.2252 136.709L39.5537 135.765ZM39.3815 135.703L39.7369 134.768C39.7157 134.76 39.6942 134.753 39.6725 134.746L39.3815 135.703ZM38.9223 135.556L38.5991 136.502L38.6062 136.505L38.9223 135.556ZM38.9082 135.551L38.5779 136.495L38.585 136.497L38.9082 135.551ZM38.5141 135.442L38.7389 134.467L38.7388 134.467L38.5141 135.442ZM38.4449 135.423L38.7389 134.467L38.7388 134.467L38.4449 135.423ZM38.3193 135.397L38.4886 134.411L38.3193 135.397ZM38.1161 135.361L38.3003 134.378L38.2992 134.378L38.1161 135.361ZM37.8631 124.857V125.857C37.9646 125.857 38.0656 125.842 38.1626 125.811L37.8631 124.857ZM37.9235 124.832L37.5076 123.923L37.4978 123.928L37.9235 124.832ZM37.9431 124.823L37.5371 123.91L37.5273 123.914L37.9431 124.823ZM38.2145 124.63L37.5593 123.875L37.5502 123.883L38.2145 124.63ZM38.2327 124.614L37.5867 123.851L37.5776 123.859L38.2327 124.614ZM38.7001 124.191L39.386 124.919C39.3939 124.911 39.4017 124.904 39.4093 124.896L38.7001 124.191ZM39.1592 123.679L39.9256 124.322L39.9301 124.316L39.1592 123.679ZM39.5913 123.142L38.8051 122.524V122.524L39.5913 123.142ZM40.006 122.609L40.7972 123.22L40.7972 123.22L40.006 122.609ZM40.16 122.406L39.3618 121.804L39.3617 121.804L40.16 122.406ZM40.2033 122.349L41.0004 122.953L41.0004 122.953L40.2033 122.349ZM40.2835 122.245L41.0651 122.869L41.0651 122.869L40.2835 122.245ZM40.3488 122.167L41.0942 122.834C41.1062 122.821 41.1179 122.807 41.1292 122.793L40.3488 122.167ZM41.401 120.923L42.1252 121.613L42.1272 121.611L41.401 120.923ZM41.9525 119.894L42.9128 120.173C42.9145 120.167 42.9161 120.161 42.9176 120.155L41.9525 119.894ZM42.3311 118.312L41.3481 118.128L41.3481 118.128L42.3311 118.312ZM42.3362 118.287L41.3582 118.078L41.3582 118.078L42.3362 118.287ZM44.2945 118.693L43.3173 118.481C43.3153 118.49 43.3135 118.499 43.3118 118.508L44.2945 118.693ZM44.3665 118.421L44.5618 117.44C44.0639 117.341 43.5708 117.631 43.4148 118.114L44.3665 118.421ZM43.8806 120.425L44.8436 120.695L44.8457 120.687L43.8806 120.425ZM43.8763 120.441L44.8372 120.718L44.8394 120.71L43.8763 120.441ZM42.8519 122.3L43.5769 122.989L43.5778 122.988L42.8519 122.3ZM42.8501 122.302L43.5741 122.992L43.5751 122.991L42.8501 122.302ZM41.8877 123.445L42.6685 124.07L42.6685 124.07L41.8877 123.445ZM41.8428 123.498L41.1069 122.821C41.0896 122.839 41.0731 122.859 41.0573 122.879L41.8428 123.498ZM41.7974 123.557L41.0004 122.953L41.0004 122.953L41.7974 123.557ZM41.761 123.605L42.5592 124.207L42.5593 124.207L41.761 123.605ZM41.5884 123.832L42.3796 124.443L42.3796 124.443L41.5884 123.832ZM41.1637 124.377L40.3775 123.76L41.1637 124.377ZM40.6987 124.956L39.9279 124.319L39.9279 124.319L40.6987 124.956ZM40.6945 124.961L40.0595 125.734C40.4854 126.084 41.1142 126.023 41.4653 125.598L40.6945 124.961ZM40.6944 124.961L41.3294 124.189C40.9056 123.84 40.2802 123.898 39.9279 124.319L40.6944 124.961ZM40.1043 125.615L39.3973 124.908L39.3973 124.908L40.1043 125.615ZM40.0834 125.636L40.7695 126.363L40.7695 126.363L40.0834 125.636ZM39.5337 126.133L38.8867 125.371C38.8815 125.375 38.8764 125.38 38.8714 125.384L39.5337 126.133ZM38.7654 126.647L38.3551 125.735L38.343 125.74L38.7654 126.647ZM38.4599 126.766L38.1613 125.812C37.744 125.942 37.4599 126.329 37.4599 126.766H38.4599ZM38.4599 133.39H37.4599C37.4599 133.874 37.8066 134.289 38.2831 134.375L38.4599 133.39ZM38.4823 133.394L38.6655 132.411L38.6654 132.411L38.4823 133.394ZM38.4835 133.395L38.6677 132.412L38.6666 132.412L38.4835 133.395ZM38.5445 133.405L38.3756 134.391L38.3756 134.391L38.5445 133.405ZM38.9918 133.5L38.72 134.462C38.7352 134.466 38.7505 134.47 38.7658 134.474L38.9918 133.5ZM39.5611 133.661L39.2324 134.605L39.2452 134.61L39.5611 133.661ZM39.9953 133.799L40.2826 132.841L40.2826 132.841L39.9953 133.799ZM40.0826 133.83L39.708 134.757L39.7081 134.757L40.0826 133.83ZM40.2304 133.883L40.5595 132.938L40.5595 132.938L40.2304 133.883ZM40.5336 133.992L40.8897 133.058L40.8895 133.058L40.5336 133.992ZM40.5351 133.993L40.8925 133.059L40.8912 133.059L40.5351 133.993ZM40.7634 134.076L40.4307 135.019L40.431 135.019L40.7634 134.076ZM40.7679 134.078L41.1007 133.135L41.1004 133.135L40.7679 134.078ZM40.8583 134.11L40.5101 135.048L40.5103 135.048L40.8583 134.11ZM40.8605 134.111L40.5125 135.049L40.513 135.049L40.8605 134.111ZM40.9183 134.134L40.5365 135.058C40.5561 135.066 40.5759 135.073 40.5959 135.08L40.9183 134.134ZM47.9467 134.728L47.2892 133.974L47.2892 133.974L47.9467 134.728ZM48.1914 133.227L49.1803 133.079H49.1803L48.1914 133.227ZM48.7063 132.198L48.2323 131.318L48.2323 131.318L48.7063 132.198ZM48.9062 131.949L49.8058 132.386L49.8116 132.374L48.9062 131.949ZM48.932 130.991L49.7988 130.492L49.7988 130.492L48.932 130.991ZM49.1163 129.761L48.4337 129.03L48.4337 129.03L49.1163 129.761ZM49.4207 128.501L50.3693 128.185V128.185L49.4207 128.501ZM49.284 128.21L48.5284 128.865L48.5284 128.865L49.284 128.21ZM49.1227 127.156L50.0396 127.555L49.1227 127.156ZM49.8013 126.584L50.0395 127.555C50.3054 127.49 50.5329 127.319 50.669 127.081L49.8013 126.584ZM49.8426 126.504L48.9362 126.081L48.9362 126.081L49.8426 126.504ZM49.8458 126.497L50.293 125.602C50.0515 125.482 49.7714 125.464 49.5165 125.553C49.2616 125.641 49.0534 125.83 48.9394 126.074L49.8458 126.497ZM49.8458 126.497L49.3986 127.391C49.6389 127.511 49.9175 127.53 50.1715 127.442C50.4256 127.355 50.6337 127.169 50.749 126.926L49.8458 126.497ZM49.8173 125.381L50.5282 124.678C50.5223 124.672 50.5163 124.666 50.5102 124.66L49.8173 125.381ZM44.3963 121.618L43.4933 121.189L43.4902 121.195L44.3963 121.618ZM44.4025 121.606L43.5025 121.17L43.4994 121.176L44.4025 121.606ZM44.6976 118.561L45.5419 118.025C45.5201 117.99 45.4963 117.958 45.4706 117.926L44.6976 118.561ZM59.9186 110.067L60.6257 109.36L60.6252 109.359L59.9186 110.067ZM25.1736 110.077L24.467 109.369L24.4665 109.37L25.1736 110.077ZM59.9193 110.067L60.6266 109.361L60.6264 109.36L59.9193 110.067ZM59.919 144.804L59.212 145.511C59.6025 145.901 60.2354 145.901 60.6259 145.511L59.919 144.804ZM22.6447 138.05L23.5259 137.577L23.5259 137.577L22.6447 138.05ZM26.5874 111.491L25.8808 110.784L25.8799 110.785L26.5874 111.491ZM22.7636 138.524L23.7636 138.525L22.7636 138.524ZM22.7546 147.222L21.7546 147.221C21.7544 147.486 21.8596 147.741 22.0472 147.929C22.2347 148.116 22.4892 148.222 22.7546 148.222V147.222ZM31.9075 147.34L31.4357 148.222H31.4357L31.9075 147.34ZM58.5049 143.389L57.8136 142.667C57.8083 142.672 57.803 142.677 57.7978 142.682L58.5049 143.389ZM58.505 143.389L59.1962 144.112C59.2015 144.107 59.2067 144.102 59.2119 144.097L58.505 143.389ZM58.5053 111.482L59.2126 110.775L59.2119 110.774L58.5053 111.482ZM25.1728 110.077L24.4656 109.37L24.4653 109.371L25.1728 110.077ZM20.7536 148.221L19.7536 148.22L20.7536 148.221ZM21.0461 148.929L20.3387 149.635H20.3387L21.0461 148.929ZM31.1877 149.222L31.6504 148.335C31.5075 148.261 31.3488 148.222 31.1877 148.222V149.222ZM59.9189 144.804L60.6259 145.511C60.8924 145.245 60.9865 144.851 60.8693 144.493C60.7521 144.135 60.4436 143.873 60.0711 143.815L59.9189 144.804ZM34.1837 134.213L34.2678 134.302L35.7244 132.932L35.6403 132.842L34.1837 134.213ZM34.1832 134.212L34.1837 134.213L35.6403 132.842L35.6398 132.842L34.1832 134.212ZM35.5552 134.302L35.6398 134.212L34.1832 132.842L34.0986 132.932L35.5552 134.302ZM35.2339 132.704C35.2694 132.719 35.3036 132.737 35.3362 132.756L34.3176 134.477C34.3574 134.501 34.4024 134.524 34.4526 134.545L35.2339 132.704ZM35.0783 132.656C35.132 132.667 35.1839 132.683 35.2339 132.704L34.4526 134.545C34.5234 134.576 34.5995 134.6 34.6793 134.616L35.0783 132.656ZM34.912 132.639C34.9692 132.639 35.0246 132.645 35.0783 132.656L34.6793 134.616C34.7591 134.632 34.8374 134.639 34.912 134.639V132.639ZM34.7451 132.656C34.7989 132.645 34.8546 132.639 34.912 132.639V134.639C34.9857 134.639 35.0635 134.632 35.1431 134.616L34.7451 132.656ZM34.5893 132.704C34.6393 132.683 34.6913 132.667 34.7451 132.656L35.1431 134.616C35.2227 134.6 35.2988 134.576 35.3697 134.546L34.5893 132.704ZM34.4851 132.757C34.5182 132.738 34.553 132.72 34.5893 132.704L35.3697 134.546C35.421 134.524 35.4668 134.5 35.5071 134.476L34.4851 132.757ZM35.7243 132.846L35.6335 132.76L34.2626 134.217L34.3533 134.302L35.7243 132.846ZM34.1266 133.166C34.1411 133.132 34.1577 133.1 34.1761 133.068L35.9016 134.08C35.9242 134.041 35.9466 133.997 35.9672 133.949L34.1266 133.166ZM34.0782 133.322C34.0892 133.268 34.1054 133.216 34.1266 133.166L35.9672 133.949C35.9975 133.878 36.0217 133.801 36.0381 133.721L34.0782 133.322ZM34.0617 133.489C34.0617 133.431 34.0673 133.376 34.0782 133.322L36.0381 133.721C36.0544 133.641 36.0617 133.562 36.0617 133.489H34.0617ZM34.0782 133.655C34.0673 133.601 34.0617 133.546 34.0617 133.489H36.0617C36.0617 133.415 36.0544 133.336 36.0381 133.256L34.0782 133.655ZM34.1266 133.811C34.1054 133.761 34.0892 133.709 34.0782 133.655L36.0381 133.256C36.0217 133.176 35.9975 133.1 35.9672 133.028L34.1266 133.811ZM34.1761 133.909C34.1577 133.877 34.1411 133.845 34.1266 133.811L35.9672 133.028C35.9466 132.98 35.9242 132.936 35.9016 132.897L34.1761 133.909ZM35.6335 134.217L35.7243 134.131L34.3533 132.675L34.2626 132.76L35.6335 134.217ZM34.3113 132.674L34.2216 132.763L35.636 134.177L35.7257 134.088L34.3113 132.674ZM34.4447 134.198C34.4002 134.168 34.3607 134.135 34.3258 134.102L35.7112 132.659C35.6756 132.625 35.6277 132.584 35.5664 132.543L34.4447 134.198ZM34.5893 134.276C34.5392 134.256 34.4909 134.23 34.4447 134.198L35.5664 132.543C35.5015 132.499 35.429 132.459 35.3501 132.427L34.5893 134.276ZM34.912 134.338C34.8724 134.338 34.8408 134.335 34.82 134.333C34.7953 134.331 34.7706 134.327 34.7458 134.323C34.6964 134.313 34.6435 134.299 34.5893 134.276L35.3501 132.427C35.1865 132.359 35.0327 132.338 34.912 132.338V134.338ZM35.2339 134.276C35.1797 134.299 35.1269 134.313 35.0776 134.323C35.0337 134.331 34.9784 134.338 34.912 134.338V132.338C34.7897 132.338 34.6355 132.36 34.4722 132.427L35.2339 134.276ZM35.3619 134.209C35.3212 134.236 35.2786 134.258 35.2339 134.276L34.4722 132.427C34.402 132.456 34.3375 132.49 34.2793 132.528L35.3619 134.209ZM35.5975 132.726L35.5061 132.64L34.1351 134.097L34.2265 134.183L35.5975 132.726ZM35.6143 132.742L35.5975 132.726L34.2265 134.183L34.2433 134.198L35.6143 132.742ZM34.1471 134.174L34.1642 134.192L35.6208 132.821L35.6037 132.803L34.1471 134.174ZM34.0628 134.084L34.1471 134.174L35.6037 132.803L35.5194 132.714L34.0628 134.084ZM35.7001 133.811C35.6834 133.851 35.6636 133.89 35.6409 133.926L33.9413 132.872C33.9083 132.925 33.8777 132.984 33.8513 133.048L35.7001 133.811ZM35.7613 133.489C35.7613 133.528 35.7589 133.56 35.7568 133.581C35.7544 133.605 35.7509 133.63 35.7463 133.654C35.737 133.704 35.7225 133.756 35.7001 133.811L33.8513 133.048C33.7833 133.212 33.7613 133.367 33.7613 133.489H35.7613ZM35.7001 133.166C35.7225 133.221 35.737 133.273 35.7463 133.323C35.7509 133.347 35.7544 133.372 35.7568 133.396C35.7589 133.417 35.7613 133.449 35.7613 133.489H33.7613C33.7613 133.61 33.7833 133.765 33.8513 133.929L35.7001 133.166ZM35.6222 133.022C35.6536 133.068 35.6795 133.116 35.7001 133.166L33.8513 133.929C33.8841 134.009 33.9238 134.081 33.9678 134.146L35.6222 133.022ZM35.5535 132.934C35.5779 132.961 35.6009 132.991 35.6222 133.022L33.9678 134.146C33.9972 134.189 34.0265 134.226 34.0538 134.257L35.5535 132.934ZM34.1852 132.8L34.0965 132.888L35.5109 134.302L35.5997 134.214L34.1852 132.8ZM34.912 130.639C34.1068 130.639 33.4308 130.972 32.941 131.433L34.3115 132.889C34.4821 132.729 34.6831 132.639 34.912 132.639V130.639ZM36.882 131.433C36.3932 130.973 35.7174 130.639 34.912 130.639V132.639C35.1399 132.639 35.3409 132.729 35.5115 132.889L36.882 131.433ZM36.9255 131.475C36.9112 131.46 36.8967 131.446 36.882 131.433L35.5115 132.889L35.5115 132.889L36.9255 131.475ZM37.7613 133.489C37.7613 132.732 37.4735 132.023 36.9255 131.475L35.5115 132.889C35.6813 133.059 35.7613 133.259 35.7613 133.489H37.7613ZM36.9255 135.502C37.4735 134.954 37.7613 134.245 37.7613 133.489H35.7613C35.7613 133.718 35.6813 133.918 35.5115 134.088L36.9255 135.502ZM34.912 136.338C35.6654 136.338 36.3766 136.051 36.9255 135.502L35.5115 134.088C35.3417 134.258 35.1409 134.338 34.912 134.338V136.338ZM32.8975 135.502C33.4473 136.052 34.1588 136.338 34.912 136.338V134.338C34.6821 134.338 34.4813 134.258 34.3115 134.088L32.8975 135.502ZM32.8553 135.459C32.8691 135.473 32.8832 135.488 32.8975 135.502L34.3115 134.088L34.3115 134.088L32.8553 135.459ZM32.0617 133.489C32.0617 134.296 32.3962 134.971 32.8553 135.459L34.3115 134.088C34.1509 133.917 34.0617 133.717 34.0617 133.489H32.0617ZM32.8553 131.518C32.3962 132.006 32.0617 132.681 32.0617 133.489H34.0617C34.0617 133.26 34.1509 133.06 34.3115 132.889L32.8553 131.518ZM32.941 131.433C32.9116 131.46 32.883 131.489 32.8553 131.518L34.3115 132.889L32.941 131.433ZM43.8247 115.377C43.2944 115.377 42.7858 115.587 42.4107 115.962L43.8247 117.377V115.377ZM47.1689 116.859C46.3034 115.606 44.8684 115.377 43.8247 115.377V117.377C44.6783 117.377 45.235 117.579 45.5233 117.996L47.1689 116.859ZM47.1841 116.882L47.174 116.867L45.5182 117.989L45.5283 118.004L47.1841 116.882ZM47.943 119.914C47.943 118.904 47.7897 117.793 47.1891 116.889L45.5233 117.996C45.8021 118.416 45.943 119.055 45.943 119.914H47.943ZM47.1059 122.906C47.5772 121.932 47.943 120.897 47.943 119.914H45.943C45.943 120.442 45.734 121.149 45.3055 122.035L47.1059 122.906ZM46.8519 123.508C46.9167 123.334 47.0019 123.13 47.1121 122.893L45.2994 122.048C45.1697 122.326 45.0633 122.58 44.9777 122.81L46.8519 123.508ZM49.3402 122.159H45.9148V124.159H49.3402V122.159ZM51.9126 123.234C51.2395 122.58 50.3657 122.159 49.3402 122.159V124.159C49.7791 124.159 50.169 124.328 50.5192 124.669L51.9126 123.234ZM51.9281 123.249L51.9177 123.239L50.514 124.663L50.5243 124.674L51.9281 123.249ZM53.0388 125.857C53.0388 124.814 52.6014 123.922 51.9332 123.254L50.5192 124.669C50.8595 125.009 51.0388 125.408 51.0388 125.857H53.0388ZM52.5573 127.78C52.8164 127.234 53.0388 126.572 53.0388 125.857H51.0388C51.0388 126.166 50.9393 126.525 50.7503 126.923L52.5573 127.78ZM52.107 128.513C52.3048 128.264 52.4521 128.006 52.5597 127.775L50.7479 126.928C50.6913 127.049 50.6223 127.167 50.543 127.266L52.107 128.513ZM52.5092 128.914C52.5092 128.411 52.3989 127.954 52.275 127.577L50.375 128.202C50.4614 128.464 50.5092 128.699 50.5092 128.914H52.5092ZM51.7665 131.265C52.2469 130.584 52.5092 129.784 52.5092 128.914H50.5092C50.5092 129.367 50.3772 129.765 50.1321 130.112L51.7665 131.265ZM52.0396 131.411C52.0396 131.084 51.9999 130.758 51.9177 130.439L49.9809 130.938C50.0197 131.089 50.0396 131.247 50.0396 131.411H52.0396ZM51.6174 133.233C51.877 132.684 52.0396 132.064 52.0396 131.411H50.0396C50.0396 131.73 49.9597 132.06 49.8088 132.38L51.6174 133.233ZM51.614 133.241L51.6174 133.233L49.8088 132.38L49.8053 132.387L51.614 133.241ZM50.2741 133.714L50.2741 133.714L51.1452 131.914L51.1452 131.914L50.2741 133.714ZM50.9561 134.206C51.2316 133.917 51.4461 133.589 51.6105 133.248L49.8088 132.38C49.7221 132.56 49.6203 132.709 49.5065 132.829L50.9561 134.206ZM51.2403 133.818C51.2403 133.698 51.2365 133.579 51.2296 133.46L49.233 133.575C49.2378 133.659 49.2403 133.74 49.2403 133.818H51.2403ZM49.9191 136.988C50.9048 136.128 51.2403 134.942 51.2403 133.818H49.2403C49.2403 134.559 49.0265 135.113 48.6042 135.481L49.9191 136.988ZM46.7023 138.036C47.7935 138.036 48.9859 137.803 49.9191 136.988L48.6042 135.481C48.1811 135.85 47.547 136.036 46.7023 136.036V138.036ZM45.0937 138.036H46.7023V136.036H45.0937V138.036ZM39.9092 136.959C41.8506 137.623 43.6058 138.036 45.0937 138.036V136.036C43.9345 136.036 42.4257 135.706 40.5564 135.067L39.9092 136.959ZM39.7516 136.898C39.8032 136.92 39.8558 136.941 39.9092 136.959L40.5564 135.067L40.5564 135.067L39.7516 136.898ZM39.7653 136.905C39.7942 136.916 39.8064 136.92 39.8128 136.922L40.4952 135.042C40.4785 135.036 40.457 135.029 40.4307 135.019L39.7653 136.905ZM39.7635 136.905L39.7648 136.905L40.4311 135.019L40.4298 135.019L39.7635 136.905ZM39.4646 136.795C39.5937 136.845 39.6986 136.882 39.764 136.905L40.4293 135.019C40.3662 134.997 40.2821 134.967 40.179 134.927L39.4646 136.795ZM39.243 136.716C39.3198 136.742 39.3895 136.767 39.4659 136.796L40.1777 134.927C40.0727 134.887 39.98 134.854 39.9013 134.827L39.243 136.716ZM39.2252 136.709C39.2316 136.712 39.2374 136.714 39.243 136.716L39.9013 134.827C39.895 134.825 39.8885 134.823 39.8822 134.82L39.2252 136.709ZM39.0262 136.638C39.1003 136.666 39.1761 136.692 39.2251 136.709L39.8823 134.82C39.8291 134.802 39.7801 134.785 39.7369 134.768L39.0262 136.638ZM38.6062 136.505C38.8079 136.572 38.9717 136.624 39.0905 136.66L39.6725 134.746C39.5717 134.716 39.4247 134.669 39.2384 134.607L38.6062 136.505ZM38.585 136.497L38.5991 136.502L39.2455 134.61L39.2314 134.605L38.585 136.497ZM38.2893 136.416C38.4073 136.443 38.4876 136.463 38.5779 136.495L39.2385 134.607C39.0384 134.537 38.8682 134.497 38.7389 134.467L38.2893 136.416ZM38.1508 136.379C38.1965 136.393 38.2427 136.405 38.2893 136.416L38.7388 134.467L38.7389 134.467L38.1508 136.379ZM38.15 136.383C38.1582 136.384 38.1651 136.385 38.1714 136.386C38.1776 136.387 38.1825 136.388 38.1865 136.389C38.195 136.39 38.1968 136.391 38.1953 136.39C38.1931 136.39 38.1863 136.389 38.1769 136.386C38.1672 136.384 38.1582 136.381 38.1509 136.379L38.7388 134.467C38.6315 134.434 38.5379 134.42 38.4886 134.411L38.15 136.383ZM37.9319 136.344C38.0351 136.363 38.1036 136.375 38.15 136.383L38.4886 134.411C38.4458 134.404 38.3888 134.394 38.3003 134.378L37.9319 136.344ZM37.8796 136.338C37.8833 136.338 37.8885 136.338 37.8959 136.338C37.9035 136.339 37.9156 136.34 37.933 136.344L38.2992 134.378C38.1384 134.348 37.9995 134.338 37.8796 134.338V136.338ZM37.4599 136.338H37.8796V134.338H37.4599V136.338ZM35.4599 134.338C35.4599 135.442 36.3553 136.338 37.4599 136.338V134.338H35.4599ZM35.4599 125.857V134.338H37.4599V125.857H35.4599ZM37.4599 123.857C36.3553 123.857 35.4599 124.753 35.4599 125.857H37.4599V123.857ZM37.8631 123.857H37.4599V125.857H37.8631V123.857ZM37.4978 123.928C37.5003 123.926 37.5232 123.916 37.5635 123.903L38.1626 125.811C38.2219 125.793 38.2836 125.768 38.3492 125.737L37.4978 123.928ZM37.5273 123.914L37.5076 123.923L38.3394 125.742L38.359 125.733L37.5273 123.914ZM37.5502 123.883C37.5071 123.921 37.4857 123.936 37.483 123.938C37.482 123.939 37.4864 123.936 37.4958 123.93C37.5055 123.925 37.5194 123.917 37.5371 123.91L38.3492 125.737C38.5293 125.657 38.6992 125.537 38.8787 125.378L37.5502 123.883ZM37.5776 123.859L37.5593 123.875L38.8697 125.386L38.8879 125.37L37.5776 123.859ZM38.0142 123.464C37.8612 123.608 37.7274 123.732 37.5867 123.851L38.8787 125.378C39.0633 125.221 39.2305 125.065 39.386 124.919L38.0142 123.464ZM38.3928 123.037C38.2178 123.246 38.0921 123.384 37.9909 123.486L39.4093 124.896C39.565 124.74 39.7307 124.554 39.9256 124.322L38.3928 123.037ZM38.8051 122.524C38.6991 122.658 38.5616 122.832 38.3882 123.042L39.9301 124.316C40.1189 124.088 40.268 123.899 40.3775 123.76L38.8051 122.524ZM39.2148 121.997C39.0466 122.215 38.9103 122.39 38.8051 122.524L40.3775 123.76C40.4874 123.62 40.6273 123.44 40.7972 123.22L39.2148 121.997ZM39.3617 121.804C39.3176 121.863 39.2714 121.924 39.2148 121.997L40.7972 123.22C40.8616 123.137 40.914 123.067 40.9582 123.009L39.3617 121.804ZM39.4062 121.745C39.3916 121.765 39.3766 121.784 39.3618 121.804L40.9582 123.009C40.9733 122.989 40.987 122.971 41.0004 122.953L39.4062 121.745ZM39.502 121.621C39.4672 121.665 39.4324 121.711 39.4062 121.745L41.0004 122.953C41.0258 122.919 41.0474 122.891 41.0651 122.869L39.502 121.621ZM39.6034 121.501C39.5536 121.557 39.5161 121.604 39.502 121.621L41.0651 122.869C41.0748 122.857 41.0836 122.846 41.0942 122.834L39.6034 121.501ZM40.6768 120.234C40.4168 120.507 40.0396 120.954 39.5684 121.542L41.1292 122.793C41.5965 122.21 41.9285 121.819 42.1252 121.613L40.6768 120.234ZM40.9921 119.615C40.8946 119.951 40.7755 120.129 40.6747 120.236L42.1272 121.611C42.4843 121.233 42.743 120.757 42.9128 120.173L40.9921 119.615ZM41.3481 118.128C41.2649 118.574 41.1432 119.057 40.9873 119.632L42.9176 120.155C43.0766 119.569 43.2156 119.023 43.3141 118.496L41.3481 118.128ZM41.3582 118.078C41.3546 118.095 41.3513 118.111 41.3481 118.128L43.3141 118.496L43.3141 118.495L41.3582 118.078ZM42.4107 115.962C41.7878 116.585 41.5049 117.391 41.3582 118.078L43.3141 118.496C43.425 117.976 43.5949 117.606 43.8247 117.377L42.4107 115.962ZM45.2718 118.905C45.2888 118.826 45.305 118.769 45.3181 118.728L43.4148 118.114C43.3796 118.223 43.3468 118.345 43.3173 118.481L45.2718 118.905ZM44.8457 120.687C45.0073 120.091 45.1634 119.484 45.2773 118.878L43.3118 118.508C43.213 119.034 43.074 119.579 42.9154 120.164L44.8457 120.687ZM44.8394 120.71L44.8436 120.695L42.9175 120.156L42.9133 120.171L44.8394 120.71ZM43.5778 122.988C44.196 122.335 44.5955 121.556 44.8372 120.718L42.9154 120.164C42.7455 120.753 42.4857 121.232 42.1261 121.612L43.5778 122.988ZM43.5751 122.991L43.5769 122.989L42.127 121.611L42.1251 121.613L43.5751 122.991ZM42.6685 124.07C43.1449 123.475 43.4385 123.134 43.5741 122.992L42.1261 121.612C41.9262 121.822 41.5864 122.221 41.1069 122.821L42.6685 124.07ZM42.5787 124.175C42.6098 124.141 42.6398 124.106 42.6685 124.07L41.1069 122.821L41.1069 122.821L42.5787 124.175ZM42.5945 124.161C42.6158 124.133 42.6252 124.121 42.6283 124.117L41.0573 122.879C41.0419 122.898 41.023 122.923 41.0004 122.953L42.5945 124.161ZM42.5593 124.207C42.5729 124.189 42.5845 124.174 42.5945 124.161L41.0004 122.953C40.9889 122.968 40.9761 122.985 40.9628 123.003L42.5593 124.207ZM42.3796 124.443C42.4519 124.35 42.5143 124.267 42.5592 124.207L40.9628 123.003C40.9178 123.062 40.8616 123.137 40.7972 123.22L42.3796 124.443ZM41.95 124.995C42.0645 124.85 42.208 124.665 42.3796 124.443L40.7972 123.22C40.6273 123.44 40.4874 123.62 40.3775 123.76L41.95 124.995ZM41.4696 125.593C41.6749 125.344 41.8365 125.14 41.95 124.995L40.3775 123.76C40.2676 123.899 40.1177 124.089 39.9279 124.319L41.4696 125.593ZM41.4653 125.598L41.4696 125.593L39.9279 124.319L39.9236 124.324L41.4653 125.598ZM40.0595 125.734L40.0595 125.734L41.3294 124.189L41.3294 124.189L40.0595 125.734ZM40.8113 126.323C41.0283 126.106 41.2397 125.867 41.461 125.603L39.9279 124.319C39.7271 124.559 39.5572 124.748 39.3973 124.908L40.8113 126.323ZM40.7695 126.363C40.7837 126.35 40.7976 126.336 40.8113 126.323L39.3973 124.908L39.3973 124.908L40.7695 126.363ZM40.1807 126.896C40.41 126.701 40.6113 126.512 40.7695 126.363L39.3973 124.908C39.2408 125.056 39.0725 125.213 38.8867 125.371L40.1807 126.896ZM39.1756 127.559C39.5951 127.37 39.93 127.118 40.196 126.883L38.8714 125.384C38.6963 125.539 38.5304 125.656 38.3552 125.735L39.1756 127.559ZM38.7585 127.72C38.9144 127.672 39.0577 127.614 39.1878 127.553L38.343 125.74C38.2798 125.77 38.2196 125.793 38.1613 125.812L38.7585 127.72ZM39.4599 133.39V126.766H37.4599V133.39H39.4599ZM38.6654 132.411C38.6559 132.41 38.6464 132.408 38.6367 132.406L38.2831 134.375C38.2883 134.376 38.2937 134.376 38.2993 134.378L38.6654 132.411ZM38.6666 132.412L38.6655 132.411L38.2992 134.378L38.3003 134.378L38.6666 132.412ZM38.7135 132.42C38.6848 132.415 38.6731 132.413 38.6677 132.412L38.2992 134.378C38.3237 134.382 38.3537 134.387 38.3756 134.391L38.7135 132.42ZM39.2636 132.537C39.047 132.476 38.8115 132.437 38.7135 132.42L38.3756 134.391C38.4892 134.41 38.6214 134.434 38.72 134.462L39.2636 132.537ZM39.8897 132.716C39.6051 132.617 39.3647 132.559 39.2178 132.525L38.7658 134.474C38.8893 134.502 39.0486 134.541 39.2325 134.605L39.8897 132.716ZM40.2826 132.841C40.2048 132.818 40.0665 132.775 39.8769 132.712L39.2452 134.61C39.4517 134.678 39.6092 134.727 39.7081 134.757L40.2826 132.841ZM40.4571 132.903C40.3999 132.88 40.3417 132.859 40.2826 132.841L39.7081 134.757L39.708 134.757L40.4571 132.903ZM40.5595 132.938C40.5139 132.923 40.4856 132.913 40.4665 132.906C40.4455 132.898 40.4474 132.899 40.4571 132.903L39.7081 134.757C39.758 134.777 39.8249 134.8 39.9013 134.827L40.5595 132.938ZM40.8895 133.058C40.7561 133.007 40.6405 132.967 40.5595 132.938L39.9013 134.827C39.98 134.854 40.0727 134.887 40.1777 134.927L40.8895 133.058ZM40.8912 133.059L40.8897 133.058L40.1774 134.927L40.1789 134.927L40.8912 133.059ZM41.0962 133.133C41.0341 133.111 40.9704 133.089 40.8925 133.059L40.1777 134.927C40.2821 134.967 40.3671 134.997 40.4307 135.019L41.0962 133.133ZM41.1004 133.135L41.0959 133.133L40.431 135.019L40.4355 135.021L41.1004 133.135ZM41.2064 133.173C41.1684 133.159 41.1269 133.144 41.1007 133.135L40.4352 135.021C40.4651 135.031 40.4904 135.04 40.5101 135.048L41.2064 133.173ZM41.2084 133.174L41.2062 133.173L40.5103 135.048L40.5125 135.049L41.2084 133.174ZM41.3 133.209C41.2561 133.191 41.2213 133.178 41.208 133.173L40.513 135.049C40.5176 135.05 40.5205 135.052 40.5242 135.053C40.5279 135.054 40.5321 135.056 40.5365 135.058L41.3 133.209ZM45.0937 134.036C44.2696 134.036 43.0192 133.793 41.2406 133.187L40.5959 135.08C42.4465 135.71 43.9423 136.036 45.0937 136.036V134.036ZM46.7023 134.036H45.0937V136.036H46.7023V134.036ZM47.2892 133.974C47.374 133.9 47.296 134.036 46.7023 134.036V136.036C47.5481 136.036 48.1816 135.85 48.6042 135.481L47.2892 133.974ZM47.2403 133.818C47.2403 134.003 47.2144 134.07 47.2144 134.07C47.2149 134.069 47.2208 134.054 47.2359 134.033C47.2513 134.011 47.2699 133.991 47.2892 133.974L48.6041 135.481C49.0244 135.115 49.2403 134.563 49.2403 133.818H47.2403ZM47.2024 133.376C47.2297 133.557 47.2403 133.706 47.2403 133.818H49.2403C49.2403 133.588 49.2193 133.339 49.1803 133.079L47.2024 133.376ZM48.2323 131.318C47.4893 131.718 47.0772 132.541 47.2024 133.376L49.1803 133.079L49.1803 133.079L48.2323 131.318ZM48.0068 131.512C47.9971 131.532 48.0074 131.505 48.0498 131.458C48.0714 131.434 48.0992 131.408 48.1336 131.382C48.169 131.355 48.2033 131.334 48.2323 131.318L49.1803 133.079C49.4358 132.941 49.6458 132.715 49.8057 132.386L48.0068 131.512ZM48.0396 131.411C48.0396 131.398 48.0422 131.436 48.0009 131.524L49.8116 132.374C49.9608 132.056 50.0396 131.728 50.0396 131.411H48.0396ZM48.0651 131.489C48.0573 131.475 48.0495 131.458 48.0444 131.438C48.0394 131.419 48.0396 131.408 48.0396 131.411H50.0396C50.0396 131.081 49.9595 130.771 49.7988 130.492L48.0651 131.489ZM48.4337 129.03C47.7544 129.665 47.6017 130.683 48.0651 131.489L49.7988 130.492L49.7988 130.492L48.4337 129.03ZM48.5092 128.914C48.5092 128.933 48.5076 128.942 48.5071 128.944C48.5069 128.945 48.5068 128.946 48.5069 128.945C48.507 128.945 48.507 128.945 48.5069 128.945C48.5068 128.945 48.5041 128.952 48.4945 128.965C48.4844 128.978 48.466 129 48.4337 129.03L49.7988 130.492C50.2703 130.052 50.5092 129.522 50.5092 128.914H48.5092ZM48.472 128.817C48.4969 128.892 48.5069 128.935 48.5104 128.953C48.514 128.971 48.5092 128.955 48.5092 128.914H50.5092C50.5092 128.694 50.4591 128.454 50.3693 128.185L48.472 128.817ZM48.5284 128.865C48.5115 128.846 48.4986 128.829 48.4898 128.817C48.4805 128.805 48.473 128.794 48.4674 128.786C48.456 128.768 48.4499 128.757 48.4479 128.753C48.4439 128.746 48.4541 128.764 48.472 128.817L50.3693 128.185C50.2795 127.915 50.1696 127.705 50.0396 127.555L48.5284 128.865ZM48.2057 126.757C47.8984 127.463 48.0239 128.283 48.5284 128.865L50.0396 127.555L48.2057 126.757ZM49.5631 125.613C48.9645 125.76 48.4579 126.178 48.2057 126.757L50.0396 127.555L50.0395 127.555L49.5631 125.613ZM48.9362 126.081C48.9318 126.091 48.9307 126.092 48.9336 126.087L50.669 127.081C50.6961 127.034 50.7228 126.982 50.749 126.926L48.9362 126.081ZM48.9394 126.074L48.9362 126.081L50.749 126.926L50.7522 126.919L48.9394 126.074ZM50.293 125.602L50.293 125.602L49.3986 127.391L49.3986 127.391L50.293 125.602ZM49.0388 125.857C49.0388 125.799 49.0477 125.787 49.0356 125.831C49.0247 125.872 48.9988 125.949 48.9426 126.068L50.749 126.926C50.9388 126.527 51.0388 126.167 51.0388 125.857H49.0388ZM49.1063 126.084C49.1236 126.101 49.0996 126.082 49.0745 126.024C49.0472 125.961 49.0388 125.899 49.0388 125.857H51.0388C51.0388 125.416 50.8652 125.018 50.5282 124.678L49.1063 126.084ZM49.3402 126.159C49.3261 126.159 49.3005 126.158 49.2678 126.152C49.2344 126.146 49.2018 126.136 49.1721 126.123C49.1126 126.098 49.0963 126.075 49.1243 126.102L50.5102 124.66C50.1596 124.323 49.7718 124.159 49.3402 124.159V126.159ZM44.674 126.159H49.3402V124.159H44.674V126.159ZM42.674 124.159C42.674 125.264 43.5694 126.159 44.674 126.159V124.159H42.674ZM43.4902 121.195C43.0396 122.161 42.674 123.198 42.674 124.159H44.674C44.674 123.649 44.8831 122.94 45.3025 122.041L43.4902 121.195ZM43.4994 121.176L43.4933 121.189L45.2994 122.048L45.3056 122.035L43.4994 121.176ZM43.943 119.914C43.943 119.987 43.8913 120.367 43.5026 121.17L45.3025 122.041C45.7328 121.153 45.943 120.444 45.943 119.914H43.943ZM43.8534 119.097C43.8293 119.059 43.8554 119.084 43.8858 119.227C43.9149 119.363 43.943 119.584 43.943 119.914H45.943C45.943 119.07 45.8069 118.442 45.5419 118.025L43.8534 119.097ZM44.1711 119.402C44.2692 119.421 44.1019 119.411 43.9246 119.195L45.4706 117.926C45.2646 117.675 44.9518 117.518 44.5618 117.44L44.1711 119.402ZM60.6252 109.359C50.6423 99.3891 34.4597 99.3903 24.467 109.369L25.8802 110.784C35.0927 101.585 50.0105 101.585 59.2119 110.774L60.6252 109.359ZM60.6264 109.36L60.6257 109.36L59.2115 110.774L59.2121 110.774L60.6264 109.36ZM60.6259 145.511C70.6112 135.53 70.61 119.351 60.6266 109.361L59.2119 110.774C68.4153 119.984 68.4154 134.897 59.212 144.096L60.6259 145.511ZM60.6259 144.096L25.8805 109.369L24.4667 110.784L59.212 145.511L60.6259 144.096ZM23.5259 137.577C19.1571 129.436 20.4288 119.071 27.2949 112.198L25.8799 110.785C18.3764 118.296 16.9875 129.623 21.7636 138.523L23.5259 137.577ZM23.7636 138.525C23.7639 138.194 23.6823 137.869 23.5259 137.577L21.7636 138.523L21.7636 138.523L23.7636 138.525ZM23.7546 147.223L23.7636 138.525L21.7636 138.523L21.7546 147.221L23.7546 147.223ZM31.4357 146.222H22.7546V148.222H31.4357V146.222ZM32.3793 146.458C32.089 146.303 31.7649 146.222 31.4357 146.222V148.222H31.4357L32.3793 146.458ZM57.7978 142.682C50.9148 149.564 40.546 150.829 32.3793 146.458L31.4357 148.222C40.3584 152.996 51.6891 151.618 59.2119 144.097L57.7978 142.682ZM57.8137 142.667L57.8136 142.667L59.1961 144.112L59.1962 144.112L57.8137 142.667ZM57.7979 112.189C66.2207 120.618 66.2194 134.264 57.798 142.682L59.2119 144.097C68.4151 134.897 68.4154 119.985 59.2126 110.775L57.7979 112.189ZM27.294 112.199C35.7262 103.779 49.3788 103.78 57.7986 112.189L59.2119 110.774C50.0106 101.585 35.0933 101.585 25.8808 110.784L27.294 112.199ZM24.4665 109.37L24.4656 109.37L25.8799 110.785L25.8807 110.784L24.4665 109.37ZM24.4665 109.37L24.4656 109.37L25.8799 110.785L25.8807 110.784L24.4665 109.37ZM24.4653 109.371C16.3893 117.455 14.8428 129.612 19.8773 139.234L21.6494 138.307C17.0102 129.441 18.4369 118.235 25.8802 110.784L24.4653 109.371ZM24.1844 109.926L19.7749 138.619L21.7517 138.923L26.1612 110.229L24.1844 109.926ZM19.7633 138.77L19.7536 148.22L21.7536 148.222L21.7633 138.772L19.7633 138.77ZM19.7536 148.22C19.7531 148.751 19.9635 149.26 20.3387 149.635L21.7536 148.222H21.7536L19.7536 148.22ZM20.3387 149.635C20.7138 150.011 21.2228 150.222 21.7536 150.222V148.222L20.3387 149.635ZM21.7536 150.222H31.1877V148.222H21.7536V150.222ZM30.7251 150.108C40.367 155.14 52.5284 153.607 60.6259 145.511L59.2118 144.097C51.7493 151.558 40.5396 152.974 31.6504 148.335L30.7251 150.108ZM60.0711 143.815L20.9156 137.783L20.6111 139.759L59.7666 145.792L60.0711 143.815Z" fill="#2F3061"/>
<path fill-rule="evenodd" clip-rule="evenodd" d="M50.7486 126.926C50.5588 127.336 50.3189 127.545 50.0392 127.555C50.1691 127.705 50.279 127.915 50.3689 128.185C50.4588 128.454 50.5098 128.694 50.5098 128.914C50.5098 129.523 50.27 130.052 49.7994 130.492C49.9592 130.772 50.0392 131.081 50.0392 131.411C50.0392 131.731 49.9592 132.06 49.8094 132.38C49.6495 132.709 49.4397 132.939 49.1809 133.079C49.2198 133.339 49.2398 133.588 49.2398 133.818C49.2398 135.297 48.3905 136.036 46.7019 136.036H45.0942C43.9352 136.036 42.4254 135.706 40.5569 135.067C40.518 135.047 40.3871 135.007 40.1773 134.927C39.9674 134.847 39.8076 134.797 39.7076 134.757C39.6087 134.727 39.4479 134.677 39.238 134.607C39.0382 134.537 38.8683 134.497 38.7384 134.467C38.6095 134.428 38.4587 134.408 38.2988 134.378C38.1389 134.348 37.999 134.338 37.8791 134.338H37.4595V125.857H37.8791C38.03 125.857 38.1789 125.817 38.3498 125.737C38.5296 125.657 38.6985 125.538 38.8783 125.378C39.0682 125.218 39.238 125.058 39.3979 124.908C39.5578 124.748 39.7276 124.559 39.9275 124.319C40.1173 124.089 40.2682 123.899 40.3771 123.76C40.487 123.62 40.6269 123.44 40.7967 123.22C40.9666 123 41.0665 122.861 41.1075 122.821C41.5861 122.221 41.9258 121.822 42.1257 121.612C42.4854 121.232 42.7452 120.753 42.915 120.164C43.0749 119.574 43.2148 119.025 43.3147 118.496C43.4246 117.976 43.5955 117.607 43.8243 117.377C44.6736 117.377 45.2331 117.577 45.5239 117.996C45.8026 118.416 45.9425 119.055 45.9425 119.914C45.9425 120.443 45.7327 121.153 45.3031 122.042C44.8834 122.941 44.6736 123.65 44.6736 124.159H49.3407C49.7794 124.159 50.1691 124.329 50.5198 124.669C50.8585 125.008 51.0384 125.408 51.0384 125.857C51.0384 126.167 50.9384 126.526 50.7486 126.926ZM35.5111 134.088C35.3412 134.258 35.1414 134.338 34.9115 134.338C34.6817 134.338 34.4819 134.258 34.312 134.088C34.1522 133.918 34.0622 133.718 34.0622 133.489C34.0622 133.259 34.1522 133.059 34.312 132.889C34.4819 132.729 34.6817 132.64 34.9115 132.64C35.1414 132.64 35.3412 132.729 35.5111 132.889C35.6809 133.059 35.7608 133.259 35.7608 133.489C35.7608 133.718 35.6809 133.918 35.5111 134.088ZM52.0775 128.005C52.5182 127.345 52.727 126.626 52.727 125.837C52.727 124.928 52.3973 124.139 51.7178 123.47C51.0484 122.801 50.26 122.461 49.3408 122.461H47.0017C47.4323 121.592 47.6412 120.743 47.6412 119.914C47.6412 118.885 47.4813 118.066 47.1716 117.457C46.8618 116.847 46.4122 116.398 45.8227 116.108C45.2331 115.819 44.5637 115.679 43.8243 115.679C43.3747 115.679 42.975 115.839 42.6253 116.168C42.2456 116.538 41.9758 117.017 41.806 117.597C41.6361 118.186 41.5062 118.735 41.4063 119.275C41.3064 119.814 41.1465 120.184 40.9377 120.403C40.497 120.873 40.0284 121.442 39.5188 122.101C38.6186 123.26 38.0201 123.949 37.6993 124.159H34.0623C33.5927 124.159 33.194 124.319 32.8643 124.659C32.5345 124.988 32.3647 125.388 32.3647 125.857V134.338C32.3647 134.807 32.5345 135.207 32.8643 135.536C33.194 135.866 33.5927 136.036 34.0623 136.036H37.8792C38.079 136.036 38.6895 136.205 39.7077 136.565C40.7968 136.945 41.756 137.234 42.5853 137.434C43.4046 137.634 44.244 137.734 45.0943 137.734H46.8019C48.0508 137.734 49.05 137.374 49.8094 136.665C50.5688 135.956 50.9485 134.987 50.9385 133.758C51.468 133.069 51.7378 132.29 51.7378 131.391C51.7378 131.201 51.7178 131.011 51.6978 130.822C52.0276 130.232 52.1974 129.593 52.1974 128.914C52.1974 128.594 52.1575 128.294 52.0775 128.005Z" fill="#2F3061"/>
<path fill-rule="evenodd" clip-rule="evenodd" d="M35.7609 133.488C35.7609 133.718 35.681 133.918 35.5111 134.088C35.3413 134.257 35.1414 134.337 34.9116 134.337C34.6818 134.337 34.482 134.257 34.3121 134.088C34.1522 133.918 34.0623 133.718 34.0623 133.488C34.0623 133.258 34.1522 133.059 34.3121 132.889C34.482 132.729 34.6818 132.639 34.9116 132.639C35.1414 132.639 35.3413 132.729 35.5111 132.889C35.681 133.059 35.7609 133.258 35.7609 133.488Z" fill="#E2EFF3"/>
<path fill-rule="evenodd" clip-rule="evenodd" d="M50.0392 127.555C50.1691 127.705 50.279 127.915 50.3689 128.184C50.4588 128.454 50.5098 128.694 50.5098 128.913C50.5098 129.523 50.269 130.052 49.7994 130.492C49.9592 130.771 50.0392 131.081 50.0392 131.411C50.0392 131.73 49.9592 132.06 49.8094 132.379C49.6495 132.709 49.4397 132.939 49.1809 133.079C49.2198 133.338 49.2398 133.588 49.2398 133.818C49.2398 135.296 48.3905 136.035 46.7019 136.035H45.0942C43.9352 136.035 42.4254 135.706 40.5569 135.066C40.518 135.046 40.3871 135.007 40.1772 134.927C39.9674 134.847 39.8075 134.797 39.7076 134.757C39.6087 134.727 39.4478 134.677 39.238 134.607C39.0382 134.537 38.8683 134.497 38.7384 134.467C38.6095 134.427 38.4587 134.407 38.2988 134.377C38.1389 134.347 37.999 134.337 37.8791 134.337H37.4595V125.857H37.8791C38.029 125.857 38.1789 125.817 38.3497 125.737C38.5286 125.657 38.6985 125.537 38.8783 125.377C39.0682 125.218 39.238 125.058 39.3979 124.908C39.5578 124.748 39.7276 124.558 39.9275 124.319C40.1173 124.089 40.2682 123.899 40.3771 123.759C40.487 123.619 40.6269 123.44 40.7967 123.22C40.9666 123 41.0665 122.86 41.1075 122.82C41.5861 122.221 41.9258 121.821 42.1256 121.612C42.4854 121.232 42.7451 120.753 42.915 120.163C43.0749 119.574 43.2148 119.025 43.3147 118.495C43.4246 117.976 43.5954 117.606 43.8243 117.376C44.6736 117.376 45.2331 117.576 45.5229 117.996C45.8026 118.415 45.9425 119.055 45.9425 119.914C45.9425 120.443 45.7327 121.152 45.303 122.041C44.8834 122.94 44.6736 123.649 44.6736 124.159H49.3407C49.7794 124.159 50.1691 124.329 50.5188 124.668C50.8585 125.008 51.0383 125.407 51.0383 125.857C51.0383 126.167 50.9384 126.526 50.7486 126.926C50.5587 127.335 50.3189 127.545 50.0392 127.555Z" fill="#E2EFF3"/>
<path fill-rule="evenodd" clip-rule="evenodd" d="M47.404 48.8829C34.4186 61.8652 32.0376 81.448 40.2888 96.8455V113.562H57.0341C72.4245 121.797 92.0014 119.406 104.975 106.437C120.879 90.5377 120.879 64.7689 104.988 48.8829C89.0838 32.9839 63.308 32.9849 47.404 48.8829Z" fill="#E2EFF3"/>
<path fill-rule="evenodd" clip-rule="evenodd" d="M47.404 48.8829C34.4186 61.8652 32.0376 81.448 40.2888 96.8455V113.562H57.0341C72.4245 121.797 92.0014 119.406 104.975 106.437C120.879 90.5377 120.879 64.7689 104.988 48.8829C89.0838 32.9839 63.308 32.9849 47.404 48.8829Z" stroke="#2F3061" stroke-width="2" stroke-linecap="round" stroke-linejoin="round"/>
<path fill-rule="evenodd" clip-rule="evenodd" d="M60.0791 80.1288L76.2089 96.1896L92.3007 80.1019C94.0702 78.3339 95.0444 75.9875 95.0444 73.4884C95.0444 70.9892 94.0782 68.6428 92.3097 66.8838C90.5501 65.1238 88.203 64.1489 85.7121 64.1489C83.2121 64.1489 80.8561 65.1238 79.0875 66.8928L77.0472 68.9315C76.5696 69.41 75.8012 69.41 75.3236 68.9315L73.3012 66.9108C71.5327 65.1418 69.1766 64.1679 66.6857 64.1679C64.1947 64.1679 61.8486 65.1418 60.0791 66.9008C58.3095 68.6698 57.3443 71.0152 57.3443 73.5153C57.3353 76.0145 58.3095 78.3598 60.0791 80.1288Z" fill="#2F3061"/>
<path fill-rule="evenodd" clip-rule="evenodd" d="M103.825 128.121C111.342 135.636 122.683 137.013 131.598 132.24H141.278V122.549C146.048 113.642 144.663 102.313 137.152 94.8049C127.946 85.6013 113.024 85.6013 103.825 94.7979C94.6188 104.002 94.6188 118.918 103.825 128.121Z" fill="#BDA0BC"/>
<path fill-rule="evenodd" clip-rule="evenodd" d="M103.825 128.121C111.342 135.636 122.683 137.013 131.598 132.24H141.278V122.549C146.048 113.642 144.663 102.313 137.152 94.8049C127.946 85.6013 113.024 85.6013 103.825 94.7979C94.6188 104.002 94.6188 118.918 103.825 128.121Z" stroke="#2F3061" stroke-width="2" stroke-linecap="round" stroke-linejoin="round"/>
<path fill-rule="evenodd" clip-rule="evenodd" d="M127.193 121.923C127.176 121.923 127.159 121.92 127.139 121.912L120.838 119.547C120.724 119.504 120.605 119.483 120.486 119.483C120.367 119.483 120.248 119.504 120.136 119.547L113.834 121.912C113.815 121.914 113.8 121.915 113.785 121.915C113.726 121.915 113.696 121.899 113.673 121.874C113.635 121.835 113.633 121.794 113.634 121.768L113.937 115.045C113.948 114.803 113.871 114.566 113.72 114.377L109.521 109.118C109.489 109.076 109.48 109.03 109.497 108.979C109.514 108.929 109.547 108.896 109.598 108.882L116.088 107.094C116.321 107.03 116.523 106.883 116.656 106.682L120.363 101.064C120.392 101.02 120.433 100.998 120.486 100.998C120.539 100.998 120.58 101.02 120.609 101.064L124.316 106.682C124.45 106.883 124.652 107.03 124.885 107.094L131.374 108.882C131.424 108.896 131.459 108.929 131.475 108.98C131.492 109.03 131.483 109.076 131.45 109.118L127.253 114.377C127.101 114.566 127.024 114.803 127.035 115.045L127.339 121.768C127.34 121.794 127.339 121.835 127.3 121.874C127.271 121.904 127.231 121.923 127.193 121.923Z" fill="#E2EFF3"/>
<path fill-rule="evenodd" clip-rule="evenodd" d="M120.485 99.9985C120.121 99.9985 119.756 100.17 119.529 100.514L115.821 106.131L109.333 107.92C108.539 108.137 108.227 109.096 108.741 109.74L112.939 115L112.636 121.722C112.605 122.4 113.153 122.922 113.78 122.922C113.913 122.922 114.05 122.898 114.185 122.848L120.486 120.481L126.788 122.848C126.923 122.899 127.06 122.922 127.193 122.922C127.818 122.922 128.368 122.4 128.336 121.722L128.033 115L132.232 109.74C132.745 109.096 132.433 108.137 131.64 107.92L125.151 106.131L121.444 100.514C121.217 100.17 120.851 99.9985 120.485 99.9985ZM120.485 102.69L123.483 107.23C123.749 107.635 124.152 107.928 124.619 108.056L129.865 109.502L126.471 113.754C126.169 114.132 126.014 114.607 126.037 115.089L126.283 120.523L121.189 118.611C120.963 118.526 120.724 118.484 120.486 118.484C120.249 118.484 120.01 118.526 119.784 118.611L114.689 120.523L114.935 115.089C114.958 114.607 114.803 114.132 114.502 113.754L111.108 109.502L116.353 108.056C116.819 107.928 117.223 107.635 117.49 107.23L120.485 102.69ZM121.197 101.614H121.202H121.197Z" fill="#2F3061"/>
</g>
</svg>
