<?xml version="1.0" encoding="UTF-8"?>
<svg width="142px" height="142px" viewBox="0 0 142 142" version="1.1" xmlns="http://www.w3.org/2000/svg" xmlns:xlink="http://www.w3.org/1999/xlink">
    <!-- Generator: Sketch 52.6 (67491) - http://www.bohemiancoding.com/sketch -->
    <title>Artboard</title>
    <desc>Created with Sketch.</desc>
    <defs>
        <circle id="path-1" cx="103.5" cy="103" r="103"></circle>
        <path d="M3.12179534,0.766424961 C-0.431121299,1.72269831 0.0187444043,5.00813008 0.0187444043,5.00813008 C3.12179534,48.9088112 35.4030677,60.6653483 50.0543757,63.7503845 L51.2046006,42.21314 C16.597318,38.1085475 9.66870457,11.0076906 7.48924155,3.88310262 C6.8519318,1.78422325 5.74430791,0.618765107 4.15444162,0.618765107 C3.83067464,0.620522962 3.4864592,0.667985058 3.12179534,0.766424961" id="path-3"></path>
        <path d="M13.1307785,0.791866075 C11.0749582,1.71091397 10.6452299,3.56131058 11.5734431,6.03026334 C14.1861912,13.003078 25.1941118,38.6643712 0.352377221,64.0708616 L14.3546447,80.1954953 C24.0527534,68.3849391 42.4055904,38.4798588 18.1620376,2.12035595 C18.1620376,2.12035595 17.1392842,0.340249806 15.043929,0.340249806 C14.4835632,0.340249806 13.8458464,0.468529913 13.1307785,0.791866075" id="path-5"></path>
    </defs>
    <g id="Artboard" stroke="none" stroke-width="1" fill="none" fill-rule="evenodd">
        <g id="helmet" transform="translate(-35.000000, -65.000000)">
            <g id="Mask" transform="translate(36.000000, 66.000000)" fill="#E2EFF3">
                <circle id="path-1" cx="70" cy="70" r="70"></circle>
            </g>
            <g id="Group-51-Clipped" transform="translate(0.500000, 0.000000)">
                <mask id="mask-2" fill="white">
                    <use xlink:href="#path-1"></use>
                </mask>
                <g id="path-1"></g>
                <g id="Group-51" mask="url(#mask-2)">
                    <g transform="translate(9.500000, 44.000000)" id="Group">
                        <g transform="translate(84.919967, 90.526367) rotate(18.000000) translate(-84.919967, -90.526367) translate(19.419967, 17.526367)">
                            <path d="M50.6416415,103.11067 C35.8864168,100.004559 3.37618475,88.1677106 0.251124971,43.9671344 C0.251124971,43.9671344 -0.201931472,40.6592591 3.37618475,39.6964532 C5.54364797,39.1088585 7.0006363,40.2911274 7.77460772,42.8344216 C9.96952891,50.0076792 16.9455684,77.293668 51.8000244,81.4280696 L50.6416415,103.11067 Z" id="Fill-1" fill="#D1CAA1"></path>
                            <g id="Group-5" transform="translate(1.861515, 39.055254)">
                                <g id="Fill-3-Clipped">
                                    <mask id="mask-4" fill="white">
                                        <use xlink:href="#path-3"></use>
                                    </mask>
                                    <g id="path-3"></g>
                                    <path d="M51.1982956,42.2145462 L50.6990129,51.6595035 C36.47201,48.3652823 8.75414804,37.3259503 2.86329297,0.832871897 C2.94679077,0.802988355 3.02688049,0.773104812 3.11378638,0.760799824 C5.26768884,0.17543397 6.71612007,1.36022852 7.49486487,3.8845089 C9.66410367,11.0055812 16.6012373,38.1011645 51.1982956,42.2145462" id="Fill-3" fill="#E2DBBA" mask="url(#mask-4)"></path>
                                </g>
                            </g>
                            <g id="Group-10" transform="translate(0.931892, 1.196850)">
                                <path d="M50.1124066,102.192634 C35.4443121,99.1281938 3.12605445,87.450145 0.0194482759,43.8425508 C0.0194482759,43.8425508 -0.43093285,40.5790531 3.12605445,39.6291639 C5.2807187,39.0494522 6.72910345,40.2158602 7.49850454,42.7250341 C9.6804646,49.8020575 16.6153103,76.7219854 51.2639492,80.8009211 L50.1124066,102.192634 Z" id="Stroke-6" stroke="#2F3061" stroke-width="2" stroke-linecap="round" stroke-linejoin="round"></path>
                                <path d="M113.193913,79.6755469 C122.819103,67.9398761 141.033949,38.2244105 116.972679,2.09544715 C116.972679,2.09544715 115.341753,-0.747235772 111.979249,0.773634516 C109.940592,1.69034738 109.514094,3.52726534 110.435328,5.98056356 C113.026726,12.9109128 123.95188,38.4077531 99.2969256,63.6548983 L113.193913,79.6755469 Z" id="Fill-8" fill="#D1CAA1"></path>
                            </g>
                            <g id="Group-13" transform="translate(99.770376, 0.038764)">
                                <g id="Fill-11-Clipped">
                                    <mask id="mask-6" fill="white">
                                        <use xlink:href="#path-5"></use>
                                    </mask>
                                    <g id="path-5"></g>
                                    <path d="M0.356502613,64.0675228 L6.49302299,71.1405013 C15.728744,59.4388953 30.9119049,33.0219795 13.3755517,0.676062526 C13.291325,0.704178714 13.2105361,0.734052163 13.1349039,0.779740968 C11.0756458,1.70406065 10.6527931,3.5579718 11.5724117,6.03395358 C14.1885977,12.9997392 25.1844859,38.6627897 0.356502613,64.0675228" id="Fill-11" fill="#E2DBBA" mask="url(#mask-6)"></path>
                                </g>
                            </g>
                            <g id="Group-50" transform="translate(44.415474, 0.062037)">
                                <path d="M69.4131297,80.1039542 C79.0297417,68.3061899 97.2283531,38.4334996 73.1885277,2.11337768 C73.1885277,2.11337768 71.5590557,-0.744345898 68.199548,0.784571323 C66.162708,1.70613452 65.7365908,3.55277162 66.6570039,6.01905026 C69.2460917,12.986068 80.1615089,38.6178123 55.5285284,63.9985403 L69.4131297,80.1039542 Z" id="Stroke-14" stroke="#2F3061" stroke-width="2" stroke-linecap="round" stroke-linejoin="round"></path>
                                <path d="M33.1832855,55.486105 L50.2279718,105.817498 C45.9088483,107.709775 41.3545081,109.345769 36.8308484,110.630691 L19.7861623,60.2975425 C21.7701637,58.9424058 23.8939316,57.8382853 26.1881463,57.0150222 C28.4789522,56.1917591 30.8089607,55.6949926 33.1832855,55.486105" id="Fill-16" fill="#E2EFF3"></path>
                                <path d="M33.1832855,55.486105 L50.2279718,105.817498 C45.9088483,107.709775 41.3545081,109.345769 36.8308484,110.630691 L19.7861623,60.2975425 C21.7701637,58.9424058 23.8939316,57.8382853 26.1881463,57.0150222 C28.4789522,56.1917591 30.8089607,55.6949926 33.1832855,55.486105 Z" id="Stroke-18" stroke="#2F3061" stroke-width="2" stroke-linecap="round" stroke-linejoin="round"></path>
                                <path d="M81.0166407,92.5276792 C84.2551311,102.090872 71.2159461,112.789782 54.9911093,119.884941 C54.6689648,120.020103 54.3519336,120.17282 54.0246757,120.288673 L60.2255324,140.76493 C55.9064089,142.657206 54.6280576,143.11711 50.1026934,144.402033 L42.5928045,124.396212 C42.2655466,124.513821 41.9263574,124.598078 41.593986,124.698134 C24.6021384,129.532391 7.93073072,129.504305 4.69224033,119.941112 C3.60138042,116.718274 2.85993656,113.277772 2.44915963,109.735458 C8.47616068,115.32803 22.5482537,114.680303 36.8299962,110.630691 C37.0157832,110.583296 37.1794123,110.523614 37.3651993,110.47622 C41.5292162,109.265022 45.7222089,107.758925 49.7157789,106.040429 C49.8879303,105.957927 50.0532638,105.9 50.228824,105.817498 C63.8560507,99.8440133 75.2674681,91.3393016 76.6105893,83.0996489 C78.4292573,86.1346637 79.9257808,89.3065965 81.0166407,92.5276792" id="Fill-20" fill="#E2EFF3"></path>
                                <path d="M81.0166407,92.5276792 C84.2551311,102.090872 71.2159461,112.789782 54.9911093,119.884941 C54.6689648,120.020103 54.3519336,120.17282 54.0246757,120.288673 L60.2255324,140.76493 C55.9064089,142.657206 54.6280576,143.11711 50.1026934,144.402033 L42.5928045,124.396212 C42.2655466,124.513821 41.9263574,124.598078 41.593986,124.698134 C24.6021384,129.532391 7.93073072,129.504305 4.69224033,119.941112 C3.60138042,116.718274 2.85993656,113.277772 2.44915963,109.735458 C8.47616068,115.32803 22.5482537,114.680303 36.8299962,110.630691 C37.0157832,110.583296 37.1794123,110.523614 37.3651993,110.47622 C41.5292162,109.265022 45.7222089,107.758925 49.7157789,106.040429 C49.8879303,105.957927 50.0532638,105.9 50.228824,105.817498 C63.8560507,99.8440133 75.2674681,91.3393016 76.6105893,83.0996489 C78.4292573,86.1346637 79.9257808,89.3065965 81.0166407,92.5276792 Z" id="Stroke-22" stroke="#2F3061" stroke-width="2" stroke-linecap="round" stroke-linejoin="round"></path>
                                <path d="M19.7854804,60.2978936 L36.8301667,110.631042 C22.548424,114.680654 8.47633112,115.328381 2.44933008,109.735809 C2.28058769,108.206892 2.16127487,106.660421 2.10673189,105.091131 C1.53914383,88.4380451 7.36331311,68.7499446 19.7854804,60.2978936" id="Fill-24" fill="#A5D9E4"></path>
                                <path d="M19.7854804,60.2978936 L36.8301667,110.631042 C22.548424,114.680654 8.47633112,115.328381 2.44933008,109.735809 C2.28058769,108.206892 2.16127487,106.660421 2.10673189,105.091131 C1.53914383,88.4380451 7.36331311,68.7499446 19.7854804,60.2978936 Z" id="Stroke-26" stroke="#2F3061" stroke-width="2" stroke-linecap="round" stroke-linejoin="round"></path>
                                <path d="M76.6105893,83.0994733 C75.2674681,91.3391259 63.8560507,99.8455931 50.2271196,105.817323 L33.1824333,55.4859293 C48.0147192,54.1501016 64.464546,65.8372782 74.07434,79.2429508 C74.9794129,80.5068089 75.8197159,81.7934866 76.6105893,83.0994733" id="Fill-28" fill="#A5D9E4"></path>
                                <path d="M76.6105893,83.0994733 C75.2674681,91.3391259 63.8560507,99.8455931 50.2271196,105.817323 L33.1824333,55.4859293 C48.0147192,54.1501016 64.464546,65.8372782 74.07434,79.2429508 C74.9794129,80.5068089 75.8197159,81.7934866 76.6105893,83.0994733 Z" id="Stroke-30" stroke="#2F3061" stroke-width="2" stroke-linecap="round" stroke-linejoin="round"></path>
                                <path d="M32.3559365,67.0963969 C32.8297788,68.4936622 32.1121975,70.0208241 30.7571449,70.5088137 C29.400388,70.9968034 27.9175002,70.2577975 27.4419535,68.8605322 C26.9698157,67.4632668 27.6856926,65.936105 29.044154,65.4481153 C30.400911,64.961881 31.8837987,65.6991316 32.3559365,67.0963969" id="Fill-32" fill="#2F3061"></path>
                                <path d="M37.3529272,81.8507113 C37.825065,83.2479766 37.1091881,84.7768939 35.7541356,85.2631282 C34.3973786,85.7511178 32.9127864,85.0138673 32.4389441,83.6148466 C31.9668063,82.2175812 32.6826832,80.6904194 34.0394402,80.2041851 C35.3979016,79.7161954 36.8807894,80.453446 37.3529272,81.8507113" id="Fill-34" fill="#2F3061"></path>
                                <path d="M42.3497474,96.6059035 C42.8218852,98.0031688 42.1060083,99.5320862 40.7509559,100.01832 C39.3941988,100.50631 37.9096067,99.7673042 37.4357643,98.3700389 C36.9636265,96.9727734 37.6795034,95.4456115 39.0362603,94.9593772 C40.3930174,94.4713876 41.8776095,95.2086381 42.3497474,96.6059035" id="Fill-36" fill="#2F3061"></path>
                                <path d="M18.768424,119.955155 C19.2422663,121.352421 18.5246851,122.879582 17.1696325,123.367572 C15.8128754,123.855562 14.3299876,123.116556 13.8544409,121.71929 C13.3823031,120.322025 14.09818,118.794863 15.4566414,118.306874 C16.8133985,117.820639 18.2962861,118.55789 18.768424,119.955155" id="Fill-38" fill="#2F3061"></path>
                                <path d="M39.0239882,117.779915 C39.496126,119.17718 38.7802491,120.706098 37.4251967,121.192332 C36.0684396,121.680322 34.5838475,120.941316 34.1100051,119.54405 C33.6378673,118.146785 34.3537442,116.619623 35.7105011,116.131633 C37.0672582,115.645399 38.5518503,116.38265 39.0239882,117.779915" id="Fill-40" fill="#2F3061"></path>
                                <path d="M57.7382014,111.057594 C58.2120437,112.45486 57.4944625,113.983777 56.1394099,114.470011 C54.7826528,114.958001 53.2997651,114.22075 52.8259229,112.821729 C52.3520807,111.424464 53.0696619,109.897302 54.4264189,109.411068 C55.783176,108.923078 57.2660635,109.660329 57.7382014,111.057594" id="Fill-42" fill="#2F3061"></path>
                                <path d="M74.9144726,99.7899483 C75.3866105,101.187214 74.6707336,102.714375 73.315681,103.202365 C71.9589241,103.690355 70.4743318,102.951349 70.0004896,101.554084 C69.5283518,100.156818 70.2442287,98.6296563 71.6009856,98.1416667 C72.9594471,97.6554324 74.4423348,98.3926829 74.9144726,99.7899483" id="Fill-44" fill="#2F3061"></path>
                                <path d="M5.11273274,117.603326 C5.58657503,119.000591 4.86899373,120.529508 3.51394118,121.015743 C2.15718415,121.503732 0.674296447,120.766482 0.198749707,119.367461 C-0.2733881,117.970196 0.444193184,116.443034 1.80095021,115.9568 C3.15770723,115.46881 4.64059493,116.206061 5.11273274,117.603326" id="Fill-46" fill="#2F3061"></path>
                                <path d="M84.9835919,91.5664173 C85.4574341,92.9636826 84.7398528,94.4925999 83.3848003,94.9788341 C82.0280433,95.4668238 80.5451556,94.7295732 80.0696089,93.3305525 C79.597471,91.9332872 80.3150523,90.4061254 81.6718094,89.9198911 C83.0285663,89.4319014 84.5114541,90.169152 84.9835919,91.5664173" id="Fill-46" fill="#2F3061"></path>
                                <path d="M10.369314,90.3480506 C11.3544968,85.4734201 13.031694,80.7515058 15.4111322,76.7633316" id="Stroke-48" stroke="#D4FAFF" stroke-width="2" stroke-linecap="round" stroke-linejoin="round"></path>
                            </g>
                        </g>
                    </g>
                </g>
            </g>
        </g>
    </g>
</svg>