<?xml version="1.0" encoding="UTF-8"?>
<svg width="250px" height="190px" viewBox="0 0 250 190" version="1.1" xmlns="http://www.w3.org/2000/svg" xmlns:xlink="http://www.w3.org/1999/xlink">
    <!-- Generator: Sketch 49.3 (51167) - http://www.bohemiancoding.com/sketch -->
    <title>Artboard</title>
    <desc>Created with Sketch.</desc>
    <defs>
        <path d="M28.15,0.346 L28.15,10.496 C12.63,10.496 0.001,23.126 0.001,38.645 C0.001,54.166 12.63,66.796 28.15,66.796 L28.15,75.336 C28.15,85.286 36.22,93.356 46.18,93.356 L110.89,93.356 C120.85,93.356 128.92,85.286 128.92,75.336 L128.92,0.346 L28.15,0.346 Z M14.001,38.645 C14.001,30.836 20.35,24.496 28.15,24.496 L28.15,52.796 C20.35,52.796 14.001,46.447 14.001,38.645 Z" id="path-1"></path>
        <path d="M28.15,0.346 L28.15,10.496 C12.63,10.496 0.001,23.126 0.001,38.645 C0.001,54.166 12.63,66.796 28.15,66.796 L28.15,75.336 C28.15,85.286 36.22,93.356 46.18,93.356 L110.89,93.356 C120.85,93.356 128.92,85.286 128.92,75.336 L128.92,0.346 L28.15,0.346 Z M14.001,38.645 C14.001,30.836 20.35,24.496 28.15,24.496 L28.15,52.796 C20.35,52.796 14.001,46.447 14.001,38.645 Z" id="path-3"></path>
        <path d="M10.687,49.635 C4.661,42.39 -6.723,24.063 8.522,1.912 C8.522,1.912 9.557,0.169 11.669,1.113 C12.951,1.683 13.214,2.813 12.626,4.32 C10.977,8.575 4.029,24.225 19.48,39.821" id="path-5"></path>
        <path d="M28.15,0.346 L28.15,10.496 C12.63,10.496 0.001,23.126 0.001,38.645 C0.001,54.166 12.63,66.796 28.15,66.796 L28.15,75.336 C28.15,85.286 36.22,93.356 46.18,93.356 L110.89,93.356 C120.85,93.356 128.92,85.286 128.92,75.336 L128.92,0.346 L28.15,0.346 Z M14.001,38.645 C14.001,30.836 20.35,24.496 28.15,24.496 L28.15,52.796 C20.35,52.796 14.001,46.447 14.001,38.645 Z" id="path-7"></path>
        <path d="M28.15,0.346 L28.15,10.496 C12.63,10.496 0.001,23.126 0.001,38.645 C0.001,54.166 12.63,66.796 28.15,66.796 L28.15,75.336 C28.15,85.286 36.22,93.356 46.18,93.356 L110.89,93.356 C120.85,93.356 128.92,85.286 128.92,75.336 L128.92,0.346 L28.15,0.346 Z M14.001,38.645 C14.001,30.836 20.35,24.496 28.15,24.496 L28.15,52.796 C20.35,52.796 14.001,46.447 14.001,38.645 Z" id="path-9"></path>
        <path d="M28.92,18.7272752 C21.9972372,32.7672357 8.40575216,37.2499695 1.333,38.661 L0.668,25.501 C22.49,23.091 26.929,6.554 28.322,2.208 C28.4781884,1.71780382 28.6773822,1.31129119 28.92,0.996509248 L28.92,18.7272752" id="path-11"></path>
        <path d="M28.15,0.346 L28.15,10.496 C12.63,10.496 0.001,23.126 0.001,38.645 C0.001,54.166 12.63,66.796 28.15,66.796 L28.15,75.336 C28.15,85.286 36.22,93.356 46.18,93.356 L110.89,93.356 C120.85,93.356 128.92,85.286 128.92,75.336 L128.92,0.346 L28.15,0.346 Z M14.001,38.645 C14.001,30.836 20.35,24.496 28.15,24.496 L28.15,52.796 C20.35,52.796 14.001,46.447 14.001,38.645 Z" id="path-13"></path>
        <path d="M28.15,0.346 L28.15,10.496 C12.63,10.496 0.001,23.126 0.001,38.645 C0.001,54.166 12.63,66.796 28.15,66.796 L28.15,75.336 C28.15,85.286 36.22,93.356 46.18,93.356 L110.89,93.356 C120.85,93.356 128.92,85.286 128.92,75.336 L128.92,0.346 M14.001,38.645 C14.001,30.836 20.35,24.496 28.15,24.496 L28.15,52.796 C20.35,52.796 14.001,46.447 14.001,38.645" id="path-15"></path>
        <path d="M28.15,0.346 L28.15,10.496 C12.63,10.496 0.001,23.126 0.001,38.645 C0.001,54.166 12.63,66.796 28.15,66.796 L28.15,75.336 C28.15,85.286 36.22,93.356 46.18,93.356 L110.89,93.356 C120.85,93.356 128.92,85.286 128.92,75.336 L128.92,0.346 L28.15,0.346 Z M14.001,38.645 C14.001,30.836 20.35,24.496 28.15,24.496 L28.15,52.796 C20.35,52.796 14.001,46.447 14.001,38.645 Z" id="path-17"></path>
        <path d="M28.15,0.346 L28.15,10.496 C12.63,10.496 0.001,23.126 0.001,38.645 C0.001,54.166 12.63,66.796 28.15,66.796 L28.15,75.336 C28.15,85.286 36.22,93.356 46.18,93.356 L110.89,93.356 C120.85,93.356 128.92,85.286 128.92,75.336 L128.92,0.346 M14.001,38.645 C14.001,30.836 20.35,24.496 28.15,24.496 L28.15,52.796 C20.35,52.796 14.001,46.447 14.001,38.645" id="path-19"></path>
        <path d="M28.15,0.346 L28.15,10.496 C12.63,10.496 0.001,23.126 0.001,38.645 C0.001,54.166 12.63,66.796 28.15,66.796 L28.15,75.336 C28.15,85.286 36.22,93.356 46.18,93.356 L110.89,93.356 C120.85,93.356 128.92,85.286 128.92,75.336 L128.92,0.346 L28.15,0.346 Z M14.001,38.645 C14.001,30.836 20.35,24.496 28.15,24.496 L28.15,52.796 C20.35,52.796 14.001,46.447 14.001,38.645 Z" id="path-21"></path>
        <path d="M28.15,0.346 L28.15,10.496 C12.63,10.496 0.001,23.126 0.001,38.645 C0.001,54.166 12.63,66.796 28.15,66.796 L28.15,75.336 C28.15,85.286 36.22,93.356 46.18,93.356 L110.89,93.356 C120.85,93.356 128.92,85.286 128.92,75.336 L128.92,0.346 M14.001,38.645 C14.001,30.836 20.35,24.496 28.15,24.496 L28.15,52.796 C20.35,52.796 14.001,46.447 14.001,38.645" id="path-23"></path>
        <path d="M28.15,0.346 L28.15,10.496 C12.63,10.496 0.001,23.126 0.001,38.645 C0.001,54.166 12.63,66.796 28.15,66.796 L28.15,75.336 C28.15,85.286 36.22,93.356 46.18,93.356 L110.89,93.356 C120.85,93.356 128.92,85.286 128.92,75.336 L128.92,0.346 L28.15,0.346 Z M14.001,38.645 C14.001,30.836 20.35,24.496 28.15,24.496 L28.15,52.796 C20.35,52.796 14.001,46.447 14.001,38.645 Z" id="path-25"></path>
        <path d="M28.15,0.346 L28.15,10.496 C12.63,10.496 0.001,23.126 0.001,38.645 C0.001,54.166 12.63,66.796 28.15,66.796 L28.15,75.336 C28.15,85.286 36.22,93.356 46.18,93.356 L110.89,93.356 C120.85,93.356 128.92,85.286 128.92,75.336 L128.92,0.346 M14.001,38.645 C14.001,30.836 20.35,24.496 28.15,24.496 L28.15,52.796 C20.35,52.796 14.001,46.447 14.001,38.645" id="path-27"></path>
        <path d="M28.15,0.346 L28.15,10.496 C12.63,10.496 0.001,23.126 0.001,38.645 C0.001,54.166 12.63,66.796 28.15,66.796 L28.15,75.336 C28.15,85.286 36.22,93.356 46.18,93.356 L110.89,93.356 C120.85,93.356 128.92,85.286 128.92,75.336 L128.92,0.346 L28.15,0.346 Z M14.001,38.645 C14.001,30.836 20.35,24.496 28.15,24.496 L28.15,52.796 C20.35,52.796 14.001,46.447 14.001,38.645 Z" id="path-29"></path>
        <path d="M28.15,0.346 L28.15,10.496 C12.63,10.496 0.001,23.126 0.001,38.645 C0.001,54.166 12.63,66.796 28.15,66.796 L28.15,75.336 C28.15,85.286 36.22,93.356 46.18,93.356 L110.89,93.356 C120.85,93.356 128.92,85.286 128.92,75.336 L128.92,0.346 M14.001,38.645 C14.001,30.836 20.35,24.496 28.15,24.496 L28.15,52.796 C20.35,52.796 14.001,46.447 14.001,38.645" id="path-31"></path>
        <path d="M28.15,0.346 L28.15,10.496 C12.63,10.496 0.001,23.126 0.001,38.645 C0.001,54.166 12.63,66.796 28.15,66.796 L28.15,75.336 C28.15,85.286 36.22,93.356 46.18,93.356 L110.89,93.356 C120.85,93.356 128.92,85.286 128.92,75.336 L128.92,0.346 M14.001,38.645 C14.001,30.836 20.35,24.496 28.15,24.496 L28.15,52.796 C20.35,52.796 14.001,46.447 14.001,38.645" id="path-33"></path>
        <path d="M28.15,0.346 L28.15,10.496 C12.63,10.496 0.001,23.126 0.001,38.645 C0.001,54.166 12.63,66.796 28.15,66.796 L28.15,75.336 C28.15,85.286 36.22,93.356 46.18,93.356 L110.89,93.356 C120.85,93.356 128.92,85.286 128.92,75.336 L128.92,0.346 M14.001,38.645 C14.001,30.836 20.35,24.496 28.15,24.496 L28.15,52.796 C20.35,52.796 14.001,46.447 14.001,38.645" id="path-35"></path>
        <path d="M28.15,0.346 L28.15,10.496 C12.63,10.496 0.001,23.126 0.001,38.645 C0.001,54.166 12.63,66.796 28.15,66.796 L28.15,75.336 C28.15,85.286 36.22,93.356 46.18,93.356 L110.89,93.356 C120.85,93.356 128.92,85.286 128.92,75.336 L128.92,0.346 M14.001,38.645 C14.001,30.836 20.35,24.496 28.15,24.496 L28.15,52.796 C20.35,52.796 14.001,46.447 14.001,38.645" id="path-37"></path>
        <path d="M28.15,0.346 L28.15,10.496 C12.63,10.496 0.001,23.126 0.001,38.645 C0.001,54.166 12.63,66.796 28.15,66.796 L28.15,75.336 C28.15,85.286 36.22,93.356 46.18,93.356 L110.89,93.356 C120.85,93.356 128.92,85.286 128.92,75.336 L128.92,0.346 M14.001,38.645 C14.001,30.836 20.35,24.496 28.15,24.496 L28.15,52.796 C20.35,52.796 14.001,46.447 14.001,38.645" id="path-39"></path>
        <path d="M28.15,0.346 L28.15,10.496 C12.63,10.496 0.001,23.126 0.001,38.645 C0.001,54.166 12.63,66.796 28.15,66.796 L28.15,75.336 C28.15,85.286 36.22,93.356 46.18,93.356 L110.89,93.356 C120.85,93.356 128.92,85.286 128.92,75.336 L128.92,0.346 M14.001,38.645 C14.001,30.836 20.35,24.496 28.15,24.496 L28.15,52.796 C20.35,52.796 14.001,46.447 14.001,38.645" id="path-41"></path>
        <path d="M28.15,0.346 L28.15,10.496 C12.63,10.496 0.001,23.126 0.001,38.645 C0.001,54.166 12.63,66.796 28.15,66.796 L28.15,75.336 C28.15,85.286 36.22,93.356 46.18,93.356 L110.89,93.356 C120.85,93.356 128.92,85.286 128.92,75.336 L128.92,0.346 M14.001,38.645 C14.001,30.836 20.35,24.496 28.15,24.496 L28.15,52.796 C20.35,52.796 14.001,46.447 14.001,38.645" id="path-43"></path>
        <path d="M28.15,0.346 L28.15,10.496 C12.63,10.496 0.001,23.126 0.001,38.645 C0.001,54.166 12.63,66.796 28.15,66.796 L28.15,75.336 C28.15,85.286 36.22,93.356 46.18,93.356 L110.89,93.356 C120.85,93.356 128.92,85.286 128.92,75.336 L128.92,0.346 M14.001,38.645 C14.001,30.836 20.35,24.496 28.15,24.496 L28.15,52.796 C20.35,52.796 14.001,46.447 14.001,38.645" id="path-45"></path>
        <path d="M28.15,0.346 L28.15,10.496 C12.63,10.496 0.001,23.126 0.001,38.645 C0.001,54.166 12.63,66.796 28.15,66.796 L28.15,75.336 C28.15,85.286 36.22,93.356 46.18,93.356 L110.89,93.356 C120.85,93.356 128.92,85.286 128.92,75.336 L128.92,0.346 M14.001,38.645 C14.001,30.836 20.35,24.496 28.15,24.496 L28.15,52.796 C20.35,52.796 14.001,46.447 14.001,38.645" id="path-47"></path>
        <path d="M28.15,0.346 L28.15,10.496 C12.63,10.496 0.001,23.126 0.001,38.645 C0.001,54.166 12.63,66.796 28.15,66.796 L28.15,75.336 C28.15,85.286 36.22,93.356 46.18,93.356 L110.89,93.356 C120.85,93.356 128.92,85.286 128.92,75.336 L128.92,0.346 M14.001,38.645 C14.001,30.836 20.35,24.496 28.15,24.496 L28.15,52.796 C20.35,52.796 14.001,46.447 14.001,38.645" id="path-49"></path>
        <path d="M5.64,0.478 C2.638,0.478 0.205,2.911 0.205,5.912 C0.205,8.913 2.638,11.346 5.64,11.346 L109.431,11.346 C112.432,11.346 114.865,8.913 114.865,5.912 C114.865,2.911 112.432,0.478 109.431,0.478" id="path-51"></path>
    </defs>
    <g id="Artboard" stroke="none" stroke-width="1" fill="none" fill-rule="evenodd">
        <g id="Illustration">
            <circle id="Oval-3-Copy" fill="#A5D9E4" cx="207" cy="128" r="37"></circle>
            <g id="Group" transform="translate(205.240381, 98.894537) rotate(-330.000000) translate(-205.240381, -98.894537) translate(190.240381, 38.394537)">
                <g id="stencil">
                    <path d="M15,0 L15,0 C21.627417,-1.21743675e-15 27,5.372583 27,12 L27,108 L3,108 L3,12 C3,5.372583 8.372583,1.21743675e-15 15,0 Z" id="Rectangle-5" stroke="#2F3061" stroke-width="2" fill="#A5D9E4" stroke-linecap="round" stroke-linejoin="round"></path>
                    <rect id="Rectangle-5" stroke="#2F3061" stroke-width="2" fill="#1E575F" stroke-linecap="round" stroke-linejoin="round" x="0" y="13" width="30" height="108" rx="3"></rect>
                    <rect id="Rectangle-9" fill="#DFE4E6" x="1" y="27" width="28" height="4" rx="2"></rect>
                </g>
                <path d="M15,25 L15,25 C17.209139,25 19,26.790861 19,29 L19,88.1857818 C19,88.2889073 18.9681128,88.3895103 18.9087074,88.4738066 L15.0142818,94 L11.0922645,88.4742542 C11.0322431,88.3896898 11,88.2885553 11,88.1848552 L11,29 C11,26.790861 12.790861,25 15,25 Z" id="Rectangle-9" fill-opacity="0.5" fill="#343434"></path>
                <path d="M11,20 L11,20 C13.209139,20 15,21.790861 15,24 L15,83.1857818 C15,83.2889073 14.9681128,83.3895103 14.9087074,83.4738066 L11.0142818,89 L7.09226454,83.4742542 C7.03224313,83.3896898 7,83.2885553 7,83.1848552 L7,24 C7,21.790861 8.790861,20 11,20 Z" id="Rectangle-9" fill="#DFE4E6"></path>
            </g>
            <circle id="Oval-3" fill="#F2F8FA" cx="107.5" cy="73.5" r="58.5"></circle>
            <path d="M137.512135,65.6515 C137.512135,65.6515 139.991135,63.6895 138.545135,61.5195 C137.099135,59.3505 127.698135,53.3585 126.768135,51.8085 C125.838135,50.2585 120.466135,43.7515 127.801135,36.6235 C135.136135,29.4955 150.632135,21.7475 144.330135,11.8295 C144.330135,11.8295 150.735135,13.0695 150.838135,18.8545 C150.942135,24.6395 145.466135,30.2175 140.921135,35.8995 C137.506135,40.1685 142.137135,44.4365 144.653135,46.2965 C146.241135,47.4705 147.502135,49.0685 148.085135,50.9575 C149.239135,54.6915 148.682135,60.6155 137.512135,65.6515 Z" id="Page-1" fill="#DFE4E6"></path>
            <path d="M160.037881,36 C160.037881,36 161.696014,34.6876742 160.728825,33.2362231 C159.761637,31.7854409 153.473577,27.7775631 152.851526,26.7408123 C152.229476,25.7040615 148.636298,21.3517149 153.54247,16.5839991 C158.448643,11.8162833 168.813475,6.63386719 164.598247,0 C164.598247,0 168.882369,0.829400617 168.951262,4.69882204 C169.020825,8.56824347 165.358085,12.2992085 162.318064,16.0997362 C160.033868,18.9551485 163.131412,21.8098919 164.814292,23.0539928 C165.87646,23.8392479 166.719907,24.9081045 167.109859,26.1716027 C167.881737,28.6691687 167.509176,32.6315633 160.037881,36 Z" id="Page-1-Copy" fill="#DFE4E6" transform="translate(159.976119, 18.000000) rotate(-180.000000) translate(-159.976119, -18.000000) "></path>
            <circle id="Oval-3" fill="#A5D9E4" cx="30" cy="42" r="30"></circle>
            <g id="Page-1" transform="translate(124.000000, 111.000000) rotate(-352.000000) translate(-124.000000, -111.000000) translate(56.000000, 58.000000)">
                <path d="M28.1499,64.3169 C20.3499,64.3169 14.0009,57.9669 14.0009,50.1669 C14.0009,42.3569 20.3499,36.0169 28.1499,36.0169 L28.1499,64.3169 Z M28.1499,11.8669 L28.1499,22.0169 C12.6299,22.0169 0.0009,34.6469 0.0009,50.1669 C0.0009,65.6869 12.6299,78.3169 28.1499,78.3169 L28.1499,86.8569 C28.1499,96.8069 36.2199,104.8779 46.1799,104.8779 L110.8899,104.8779 C120.8499,104.8779 128.9209,96.8069 128.9209,86.8569 L128.9209,11.8669 L28.1499,11.8669 Z" id="Fill-1" fill="#E8A499"></path>
                <g id="Group-79" transform="translate(0.000000, 11.521000)">
                    <g id="Group-5">
                        <mask id="mask-2" fill="white">
                            <use xlink:href="#path-1"></use>
                        </mask>
                        <g id="Clip-4"></g>
                        <path d="M15.1499,0.3457 L15.1499,10.4957 C-0.3701,10.4957 -12.9991,23.1257 -12.9991,38.6457 C-12.9991,54.1657 -0.3701,66.7957 15.1499,66.7957 L15.1499,75.3357 C15.1499,85.2857 23.2199,93.3567 33.1799,93.3567 L97.8899,93.3567 C107.8499,93.3567 115.9209,85.2857 115.9209,75.3357 L115.9209,0.3457 L15.1499,0.3457 Z" id="Fill-3" fill="#ECB4AB" mask="url(#mask-2)"></path>
                    </g>
                    <g id="Group-78" opacity="0.5">
                        <g id="Group-8">
                            <mask id="mask-4" fill="white">
                                <use xlink:href="#path-3"></use>
                            </mask>
                            <g id="Clip-7"></g>
                            <path d="M61.687,60.6347 C55.661,53.3897 44.277,35.0637 59.522,12.9117 C59.522,12.9117 60.557,11.1687 62.669,12.1137 C63.951,12.6827 64.214,13.8137 63.626,15.3207 C61.977,19.5747 55.029,35.2247 70.48,50.8217 L61.687,60.6347 Z" id="Fill-6" fill="#D1CAA1" mask="url(#mask-4)"></path>
                        </g>
                        <g id="Group-11" transform="translate(51.000000, 11.000000)">
                            <mask id="mask-6" fill="white">
                                <use xlink:href="#path-5"></use>
                            </mask>
                            <g id="Clip-10"></g>
                            <path d="M19.4771,39.8183 L15.6231,44.1243 C9.8851,36.9473 0.4721,20.7603 11.5171,1.0423 C11.5691,1.0603 11.6201,1.0793 11.6671,1.1073 C12.9501,1.6763 13.2091,2.8113 12.6281,4.3223 C10.9751,8.5713 4.0351,24.2233 19.4771,39.8183" id="Fill-9" fill="#E2DBBA" mask="url(#mask-6)"></path>
                        </g>
                        <g id="Group-14">
                            <mask id="mask-8" fill="white">
                                <use xlink:href="#path-7"></use>
                            </mask>
                            <g id="Clip-13"></g>
                            <path d="M61.687,60.6347 C55.661,53.3897 44.277,35.0637 59.522,12.9117 C59.522,12.9117 60.557,11.1687 62.669,12.1137 C63.951,12.6827 64.214,13.8137 63.626,15.3207 C61.977,19.5747 55.029,35.2247 70.48,50.8217 L61.687,60.6347 Z" id="Stroke-12" stroke="#2F3061" stroke-width="2" stroke-linecap="round" stroke-linejoin="round" mask="url(#mask-8)"></path>
                        </g>
                        <g id="Group-17">
                            <mask id="mask-10" fill="white">
                                <use xlink:href="#path-9"></use>
                            </mask>
                            <g id="Clip-16"></g>
                            <path d="M101.3335,74.6611 C110.5755,72.8171 130.9515,65.7261 133.0275,38.9161 C133.0275,38.9161 133.3195,36.9101 131.0835,36.3161 C129.7295,35.9531 128.8125,36.6671 128.3215,38.2081 C126.9295,42.5541 122.4895,59.0911 100.6685,61.5011 L101.3335,74.6611 Z" id="Fill-15" fill="#D1CAA1" mask="url(#mask-10)"></path>
                        </g>
                        <g id="Group-20" transform="translate(100.000000, 36.000000)">
                            <mask id="mask-12" fill="white">
                                <use xlink:href="#path-11"></use>
                            </mask>
                            <g id="Clip-19"></g>
                            <path d="M0.6733,25.5009 L0.9613,31.2719 C9.9363,29.2999 27.4343,22.6339 31.2453,0.3569 C31.1943,0.3389 31.1433,0.3199 31.0883,0.3129 C29.7333,-0.0511 28.8173,0.6689 28.3193,2.2079 C26.9333,6.5519 22.4853,23.0859 0.6733,25.5009" id="Fill-18" fill="#E2DBBA" mask="url(#mask-12)"></path>
                        </g>
                        <g id="Group-23">
                            <mask id="mask-14" fill="white">
                                <use xlink:href="#path-13"></use>
                            </mask>
                            <g id="Clip-22"></g>
                            <path d="M101.3335,74.6611 C110.5755,72.8171 130.9515,65.7261 133.0275,38.9161 C133.0275,38.9161 133.3195,36.9101 131.0835,36.3161 C129.7295,35.9531 128.8125,36.6671 128.3215,38.2081 C126.9295,42.5541 122.4895,59.0911 100.6685,61.5011 L101.3335,74.6611 Z" id="Stroke-21" stroke="#2F3061" stroke-width="2" stroke-linecap="round" stroke-linejoin="round" mask="url(#mask-14)"></path>
                        </g>
                        <g id="Group-26">
                            <mask id="mask-16" fill="white">
                                <use xlink:href="#path-15"></use>
                            </mask>
                            <g id="Clip-25"></g>
                            <path d="M92.9399,48.6328 L82.0629,79.3768 C79.2149,78.5778 76.3509,77.5658 73.6349,76.3958 L84.5109,45.6518 C86.0059,45.7858 87.4719,46.0968 88.9159,46.6068 C90.3579,47.1168 91.6929,47.7978 92.9399,48.6328" id="Fill-24" fill="#E2EFF3" mask="url(#mask-16)"></path>
                        </g>
                        <g id="Group-29">
                            <mask id="mask-18" fill="white">
                                <use xlink:href="#path-17"></use>
                            </mask>
                            <g id="Clip-28"></g>
                            <path d="M92.9399,48.6328 L82.0629,79.3768 C79.2149,78.5778 76.3509,77.5658 73.6349,76.3958 L84.5109,45.6518 C86.0059,45.7858 87.4719,46.0968 88.9159,46.6068 C90.3579,47.1168 91.6929,47.7978 92.9399,48.6328 Z" id="Stroke-27" stroke="#2F3061" stroke-width="2" stroke-linecap="round" stroke-linejoin="round" mask="url(#mask-18)"></path>
                        </g>
                        <g id="Group-32">
                            <mask id="mask-20" fill="white">
                                <use xlink:href="#path-19"></use>
                            </mask>
                            <g id="Clip-31"></g>
                            <path d="M102.2856,85.163 C100.2186,91.005 89.7146,90.975 79.0226,87.97 C78.8126,87.907 78.5996,87.855 78.3936,87.782 L73.6076,100 C70.7606,99.201 69.9566,98.917 67.2406,97.747 L71.2026,85.238 C70.9966,85.165 70.7976,85.071 70.5956,84.988 C60.3916,80.602 52.2066,74.019 54.2726,68.178 C54.9696,66.21 55.9206,64.274 57.0746,62.422 C57.8976,67.467 65.0646,72.703 73.6356,76.395 C73.7446,76.446 73.8486,76.482 73.9576,76.533 C76.4686,77.595 79.1056,78.528 81.7256,79.281 C81.8436,79.311 81.9456,79.348 82.0626,79.377 C91.0486,81.895 99.9136,82.331 103.7256,78.927 C103.4586,81.093 102.9806,83.195 102.2856,85.163" id="Fill-30" fill="#E2EFF3" mask="url(#mask-20)"></path>
                        </g>
                        <g id="Group-35">
                            <mask id="mask-22" fill="white">
                                <use xlink:href="#path-21"></use>
                            </mask>
                            <g id="Clip-34"></g>
                            <path d="M102.2856,85.163 C100.2186,91.005 89.7146,90.975 79.0226,87.97 C78.8126,87.907 78.5996,87.855 78.3936,87.782 L73.6076,100 C70.7606,99.201 69.9566,98.917 67.2406,97.747 L71.2026,85.238 C70.9966,85.165 70.7976,85.071 70.5956,84.988 C60.3916,80.602 52.2066,74.019 54.2726,68.178 C54.9696,66.21 55.9206,64.274 57.0746,62.422 C57.8976,67.467 65.0646,72.703 73.6356,76.395 C73.7446,76.446 73.8486,76.482 73.9576,76.533 C76.4686,77.595 79.1056,78.528 81.7256,79.281 C81.8436,79.311 81.9456,79.348 82.0626,79.377 C91.0486,81.895 99.9136,82.331 103.7256,78.927 C103.4586,81.093 102.9806,83.195 102.2856,85.163 Z" id="Stroke-33" stroke="#2F3061" stroke-width="2" stroke-linecap="round" stroke-linejoin="round" mask="url(#mask-22)"></path>
                        </g>
                        <g id="Group-38">
                            <mask id="mask-24" fill="white">
                                <use xlink:href="#path-23"></use>
                            </mask>
                            <g id="Clip-37"></g>
                            <path d="M84.5112,45.6513 L73.6352,76.3953 C65.0652,72.7033 57.8982,67.4663 57.0742,62.4223 C57.5762,61.6263 58.1092,60.8403 58.6832,60.0703 C64.7752,51.8963 75.1702,44.7933 84.5112,45.6513" id="Fill-36" fill="#A5D9E4" mask="url(#mask-24)"></path>
                        </g>
                        <g id="Group-41">
                            <mask id="mask-26" fill="white">
                                <use xlink:href="#path-25"></use>
                            </mask>
                            <g id="Clip-40"></g>
                            <path d="M84.5112,45.6513 L73.6352,76.3953 C65.0652,72.7033 57.8982,67.4663 57.0742,62.4223 C57.5762,61.6263 58.1092,60.8403 58.6832,60.0703 C64.7752,51.8963 75.1702,44.7933 84.5112,45.6513 Z" id="Stroke-39" stroke="#2F3061" stroke-width="2" stroke-linecap="round" stroke-linejoin="round" mask="url(#mask-26)"></path>
                        </g>
                        <g id="Group-44">
                            <mask id="mask-28" fill="white">
                                <use xlink:href="#path-27"></use>
                            </mask>
                            <g id="Clip-43"></g>
                            <path d="M103.7261,78.9267 C99.9131,82.3307 91.0481,81.8957 82.0631,79.3767 L92.9401,48.6327 C100.7431,53.8397 104.3591,65.9007 103.9551,76.0857 C103.9161,77.0457 103.8361,77.9917 103.7261,78.9267" id="Fill-42" fill="#A5D9E4" mask="url(#mask-28)"></path>
                        </g>
                        <g id="Group-47">
                            <mask id="mask-30" fill="white">
                                <use xlink:href="#path-29"></use>
                            </mask>
                            <g id="Clip-46"></g>
                            <path d="M103.7261,78.9267 C99.9131,82.3307 91.0481,81.8957 82.0631,79.3767 L92.9401,48.6327 C100.7431,53.8397 104.3591,65.9007 103.9551,76.0857 C103.9161,77.0457 103.8361,77.9917 103.7261,78.9267 Z" id="Stroke-45" stroke="#2F3061" stroke-width="2" stroke-linecap="round" stroke-linejoin="round" mask="url(#mask-30)"></path>
                        </g>
                        <g id="Group-50">
                            <mask id="mask-32" fill="white">
                                <use xlink:href="#path-31"></use>
                            </mask>
                            <g id="Clip-49"></g>
                            <path d="M88.0913,53.8505 C87.7893,54.7045 86.8533,55.1515 85.9993,54.8485 C85.1463,54.5465 84.6983,53.6105 85.0003,52.7565 C85.3023,51.9035 86.2383,51.4555 87.0923,51.7575 C87.9453,52.0605 88.3933,52.9965 88.0913,53.8505" id="Fill-48" fill="#2F3061" mask="url(#mask-32)"></path>
                        </g>
                        <g id="Group-53">
                            <mask id="mask-34" fill="white">
                                <use xlink:href="#path-33"></use>
                            </mask>
                            <g id="Clip-52"></g>
                            <path d="M84.9028,62.8632 C84.6008,63.7172 83.6648,64.1632 82.8108,63.8612 C81.9578,63.5592 81.5098,62.6232 81.8118,61.7692 C82.1138,60.9162 83.0498,60.4682 83.9038,60.7702 C84.7568,61.0722 85.2048,62.0092 84.9028,62.8632" id="Fill-51" fill="#2F3061" mask="url(#mask-34)"></path>
                        </g>
                        <g id="Group-56">
                            <mask id="mask-36" fill="white">
                                <use xlink:href="#path-35"></use>
                            </mask>
                            <g id="Clip-55"></g>
                            <path d="M81.7144,71.875 C81.4124,72.729 80.4764,73.176 79.6224,72.874 C78.7694,72.572 78.3214,71.636 78.6234,70.782 C78.9254,69.929 79.8614,69.481 80.7154,69.783 C81.5684,70.085 82.0164,71.021 81.7144,71.875" id="Fill-54" fill="#2F3061" mask="url(#mask-36)"></path>
                        </g>
                        <g id="Group-59">
                            <mask id="mask-38" fill="white">
                                <use xlink:href="#path-37"></use>
                            </mask>
                            <g id="Clip-58"></g>
                            <path d="M61.188,73.7314 C60.886,74.5854 59.95,75.0324 59.096,74.7294 C58.243,74.4274 57.795,73.4914 58.097,72.6374 C58.399,71.7844 59.336,71.3364 60.19,71.6384 C61.043,71.9414 61.49,72.8774 61.188,73.7314" id="Fill-57" fill="#2F3061" mask="url(#mask-38)"></path>
                        </g>
                        <g id="Group-62">
                            <mask id="mask-40" fill="white">
                                <use xlink:href="#path-39"></use>
                            </mask>
                            <g id="Clip-61"></g>
                            <path d="M71.979,80.6728 C71.676,81.5268 70.74,81.9738 69.886,81.6718 C69.033,81.3698 68.585,80.4338 68.888,79.5798 C69.19,78.7268 70.126,78.2788 70.98,78.5808 C71.833,78.8828 72.281,79.8188 71.979,80.6728" id="Fill-60" fill="#2F3061" mask="url(#mask-40)"></path>
                        </g>
                        <g id="Group-65">
                            <mask id="mask-42" fill="white">
                                <use xlink:href="#path-41"></use>
                            </mask>
                            <g id="Clip-64"></g>
                            <path d="M83.7515,84.8378 C83.4495,85.6918 82.5135,86.1388 81.6595,85.8368 C80.8065,85.5348 80.3585,84.5988 80.6605,83.7448 C80.9625,82.8918 81.8985,82.4438 82.7525,82.7458 C83.6055,83.0478 84.0535,83.9838 83.7515,84.8378" id="Fill-63" fill="#2F3061" mask="url(#mask-42)"></path>
                        </g>
                        <g id="Group-68">
                            <mask id="mask-44" fill="white">
                                <use xlink:href="#path-43"></use>
                            </mask>
                            <g id="Clip-67"></g>
                            <path d="M96.5073,86.2265 C96.2043,87.0805 95.2683,87.5265 94.4143,87.2245 C93.5613,86.9225 93.1133,85.9865 93.4163,85.1325 C93.7183,84.2795 94.6543,83.8315 95.5083,84.1335 C96.3613,84.4355 96.8093,85.3725 96.5073,86.2265" id="Fill-66" fill="#2F3061" mask="url(#mask-44)"></path>
                        </g>
                        <g id="Group-71">
                            <mask id="mask-46" fill="white">
                                <use xlink:href="#path-45"></use>
                            </mask>
                            <g id="Clip-70"></g>
                            <path d="M105.1167,84.8261 C104.8147,85.6801 103.8787,86.1271 103.0247,85.8251 C102.1717,85.5231 101.7237,84.5861 102.0257,83.7321 C102.3277,82.8791 103.2647,82.4311 104.1187,82.7341 C104.9717,83.0361 105.4187,83.9721 105.1167,84.8261" id="Fill-69" fill="#2F3061" mask="url(#mask-46)"></path>
                        </g>
                        <g id="Group-74">
                            <mask id="mask-48" fill="white">
                                <use xlink:href="#path-47"></use>
                            </mask>
                            <g id="Clip-73"></g>
                            <path d="M55.3745,67.2285 C55.0715,68.0825 54.1355,68.5295 53.2815,68.2275 C52.4285,67.9245 51.9805,66.9885 52.2825,66.1345 C52.5855,65.2815 53.5215,64.8335 54.3755,65.1355 C55.2285,65.4385 55.6765,66.3745 55.3745,67.2285" id="Fill-72" fill="#2F3061" mask="url(#mask-48)"></path>
                        </g>
                        <g id="Group-77">
                            <mask id="mask-50" fill="white">
                                <use xlink:href="#path-49"></use>
                            </mask>
                            <g id="Clip-76"></g>
                            <path d="M68.3862,56.288 C70.7352,54.348 73.3652,52.756 76.0612,51.789" id="Stroke-75" stroke="#D4FAFF" stroke-width="2" stroke-linecap="round" stroke-linejoin="round" mask="url(#mask-50)"></path>
                        </g>
                    </g>
                </g>
                <g id="Group-90" transform="translate(0.000000, 0.521000)">
                    <path d="M28.1499,63.7959 C20.3499,63.7959 14.0009,57.4459 14.0009,49.6459 C14.0009,41.8359 20.3499,35.4959 28.1499,35.4959 L28.1499,63.7959 Z M28.1499,11.3459 L28.1499,21.4959 C12.6299,21.4959 0.0009,34.1259 0.0009,49.6459 C0.0009,65.1659 12.6299,77.7959 28.1499,77.7959 L28.1499,86.3359 C28.1499,96.2859 36.2199,104.3569 46.1799,104.3569 L110.8899,104.3569 C120.8499,104.3569 128.9209,96.2859 128.9209,86.3359 L128.9209,11.3459 L28.1499,11.3459 Z" id="Stroke-80" stroke="#2F3061" stroke-width="2" stroke-linecap="round" stroke-linejoin="round"></path>
                    <path d="M33.1499,15.3457 L57.7909,15.3457" id="Stroke-82" stroke="#2F3061" stroke-width="2" stroke-linecap="round" stroke-linejoin="round"></path>
                    <path d="M111.6001,15.3457 L123.9201,15.3457" id="Stroke-84" stroke="#2F3061" stroke-width="2" stroke-linecap="round" stroke-linejoin="round"></path>
                    <path d="M117.7603,4.4785 L123.9203,4.4785" id="Stroke-86" stroke="#2F3061" stroke-width="2" stroke-linecap="round" stroke-linejoin="round"></path>
                    <path d="M26.6392,11.3457 L130.4312,11.3457 C133.4322,11.3457 135.8652,8.9127 135.8652,5.9117 C135.8652,2.9107 133.4322,0.4787 130.4312,0.4787 L26.6392,0.4787 C23.6382,0.4787 21.2052,2.9107 21.2052,5.9117 C21.2052,8.9127 23.6382,11.3457 26.6392,11.3457" id="Fill-88" fill="#F5FFD2"></path>
                </g>
                <g id="Group-93" transform="translate(21.000000, 0.521000)">
                    <mask id="mask-52" fill="white">
                        <use xlink:href="#path-51"></use>
                    </mask>
                    <g id="Clip-92"></g>
                    <path d="M5.6392,15.3457 L109.4312,15.3457 C112.4322,15.3457 114.8652,12.9127 114.8652,9.9117 C114.8652,6.9107 112.4322,4.4787 109.4312,4.4787 L5.6392,4.4787 C2.6382,4.4787 0.2052,6.9107 0.2052,9.9117 C0.2052,12.9127 2.6382,15.3457 5.6392,15.3457" id="Fill-91" fill="#E5F7B0" mask="url(#mask-52)"></path>
                </g>
                <g id="Group-102" transform="translate(10.000000, 0.521000)" stroke="#2F3061" stroke-linecap="round" stroke-linejoin="round" stroke-width="2">
                    <path d="M16.6392,11.3457 L120.4312,11.3457 C123.4322,11.3457 125.8652,8.9127 125.8652,5.9117 C125.8652,2.9107 123.4322,0.4787 120.4312,0.4787 L16.6392,0.4787 C13.6382,0.4787 11.2052,2.9107 11.2052,5.9117 C11.2052,8.9127 13.6382,11.3457 16.6392,11.3457 Z" id="Stroke-94"></path>
                    <path d="M22.1499,77.7734 L22.1499,85.6994 C22.1499,93.4424 28.4299,99.7214 36.1799,99.7214" id="Stroke-96"></path>
                    <path d="M22.1499,35.496 L22.1499,49.645" id="Stroke-98"></path>
                    <path d="M0.5942,65.789 C4.9582,70.531 11.2132,73.508 18.1502,73.508" id="Stroke-100"></path>
                </g>
            </g>
            <g id="pencil" transform="translate(46.036978, 113.503281) rotate(-13.000000) translate(-46.036978, -113.503281) translate(31.036978, 40.503281)">
                <polygon id="Triangle" stroke="#2F3061" stroke-width="2" fill="#F2C48F" stroke-linecap="round" stroke-linejoin="round" points="15 0 30 45 0 45"></polygon>
                <path d="M30,45 L30,146 L0,146 L0,45 L5.625,39 L10.3125,44 L15,39 L19.6875,44 L24.375,39 L30,45 Z" id="Combined-Shape" stroke="#2F3061" stroke-width="2" fill="#F2C230" stroke-linecap="round" stroke-linejoin="round"></path>
                <path d="M10.75,45 L15,40.4699707 L19.25,45 L19.6300049,45 L19.25,145 L10,145 L10.3800049,45 L10.75,45 Z" id="Combined-Shape" fill="#F28729"></path>
                <path d="M15.1900024,2 L21.4000244,20.5 C19.3639497,21.1666667 17.3074777,21.5 15.2306083,21.5 C13.1537388,21.5 11.0768694,21.1666667 9,20.5 L15.1900024,2 Z" id="Triangle" fill="#2F3061"></path>
            </g>
        </g>
    </g>
</svg>