<svg width="57" height="80" viewBox="0 0 57 80" fill="none" xmlns="http://www.w3.org/2000/svg">
<mask id="mask0" style="mask-type:alpha" maskUnits="userSpaceOnUse" x="0" y="0" width="56" height="78">
<path fill-rule="evenodd" clip-rule="evenodd" d="M0.000183105 0.608643H55.5657V77.8506H0.000183105V0.608643Z" fill="white"/>
</mask>
<g mask="url(#mask0)">
<path fill-rule="evenodd" clip-rule="evenodd" d="M54.2292 35.412C53.7135 37.1735 52.5268 40.4046 50.4817 41.6815C48.9809 42.6189 47.2463 40.8768 48.2099 39.3983C49.2878 37.7447 50.0909 35.9355 50.3336 34.036C51.1473 27.6957 47.7174 21.8576 46.2826 19.7407C46.0952 19.463 45.6652 19.5797 45.642 19.9104C45.037 28.1467 37.2795 34.4393 36.1553 30.1257C34.9864 25.6353 37.8185 19.1146 34.31 11.0022C31.3477 4.15249 24.7395 0.905399 22.7515 0.610048C22.6051 0.590594 22.5248 0.778062 22.6462 0.866491C24.1541 1.97538 26.847 7.60828 23.9007 12.5974C20.6154 18.1596 17.057 20.296 13.8894 30.1858C13.5146 31.3549 12.0192 31.705 11.1626 30.819L11.1537 30.8084C9.68496 29.2821 10.6236 26.5815 11.2607 25.2002C11.3981 24.8996 11.0733 24.5972 10.7771 24.7493C8.58389 25.8688 3.32124 29.4342 4.30631 37.4759C4.37056 37.9817 4.44908 38.461 4.54366 38.9137C1.68302 42.9372 0.000183105 47.8432 0.000183105 53.1383C-0.00160145 66.7829 11.134 77.8311 24.8983 77.8506C38.5983 77.87 49.7268 66.9367 49.866 53.3983C51.0991 52.6184 52.334 51.3574 53.4137 49.3642C56.5063 43.65 55.5427 37.8632 54.9074 35.4226C54.8164 35.0795 54.3292 35.0724 54.2292 35.412Z" fill="#FF6B6B"/>
</g>
<path fill-rule="evenodd" clip-rule="evenodd" d="M46.3329 35.3428C46.0885 37.2422 45.2872 39.0532 44.2093 40.7051C43.2474 42.1801 44.9749 43.9257 46.4757 42.9901C47.1538 42.5692 47.7356 41.9325 48.2299 41.2056C47.8819 40.7104 47.7981 40.0313 48.2103 39.3999C49.2882 37.7445 50.0894 35.9353 50.3339 34.0358C51.1477 27.6955 47.716 21.8592 46.283 19.7405C46.0956 19.4628 45.6655 19.5795 45.6405 19.9102C45.512 21.67 45.0552 23.3377 44.4092 24.8339C45.6941 27.6177 46.8415 31.3812 46.3329 35.3428Z" fill="#EA4242"/>
<path fill-rule="evenodd" clip-rule="evenodd" d="M30.4478 11.5207C32.575 18.3969 30.985 26.9409 32.1539 31.4313C32.6946 33.5093 34.7736 33.1273 36.8508 31.2527C36.535 31.028 36.294 30.6584 36.1549 30.1261C34.986 25.6339 37.8181 19.115 34.3096 11.0025C31.349 4.15286 24.7391 0.905763 22.7528 0.610412C22.6047 0.589189 22.5262 0.778426 22.6458 0.866855C23.5024 1.49647 28.3224 4.64452 30.4478 11.5207Z" fill="#EA4242"/>
<mask id="mask1" style="mask-type:alpha" maskUnits="userSpaceOnUse" x="21" y="35" width="35" height="43">
<path fill-rule="evenodd" clip-rule="evenodd" d="M21.6062 35.162H55.5657V77.8504H21.6062V35.162Z" fill="white"/>
</mask>
<g mask="url(#mask1)">
<path fill-rule="evenodd" clip-rule="evenodd" d="M43.2064 53.3982C43.0797 65.8118 33.718 76.0288 21.6062 77.6311C22.1291 77.7001 22.6609 77.7531 23.1962 77.7903C23.248 77.7938 23.2997 77.7974 23.3497 77.8009C23.5585 77.8133 23.7655 77.8239 23.9761 77.831C24.0385 77.8327 24.101 77.8345 24.1617 77.838C24.4187 77.8451 24.6739 77.8504 24.9326 77.8504H24.9344H24.938C25.1807 77.8504 25.4234 77.8451 25.6678 77.838C25.7428 77.8363 25.8177 77.8327 25.8927 77.831C26.0658 77.8257 26.2353 77.8168 26.4049 77.808C26.4887 77.8027 26.5708 77.7974 26.6547 77.7921C26.826 77.7797 26.9991 77.7655 27.174 77.7514C27.2418 77.7461 27.3114 77.739 27.381 77.7337C27.6219 77.7089 27.8611 77.6824 28.102 77.6541C28.102 77.6541 28.1038 77.6523 28.1055 77.6523C28.3429 77.6223 28.5785 77.5887 28.814 77.5515C28.8783 77.5409 28.9443 77.5321 29.0103 77.5215C29.1852 77.4914 29.3565 77.4613 29.5296 77.4313L29.7438 77.3888C29.924 77.3552 30.1025 77.3181 30.2809 77.2792C30.3362 77.2668 30.3898 77.2562 30.4469 77.2438C30.6807 77.1907 30.9162 77.1359 31.15 77.0776C41.8306 74.361 49.7468 64.8037 49.8646 53.3982C51.0978 52.6182 52.3327 51.3572 53.4123 49.3641C56.5067 43.6498 55.5431 37.8631 54.9078 35.4224C54.8168 35.0793 54.3278 35.074 54.2296 35.4136C53.7157 37.1698 52.5343 40.385 50.5035 41.6673C50.5035 41.6673 51.1352 47.7016 43.2064 53.3982Z" fill="#EA4242"/>
</g>
<path fill-rule="evenodd" clip-rule="evenodd" d="M25.1761 33.2651C36.4117 33.2651 45.5201 42.2919 45.5201 53.4268C45.5201 64.5635 36.4117 73.5921 25.1761 73.5921C13.9388 73.5921 4.83221 64.5635 4.83221 53.4268C4.83221 42.2919 13.9388 33.2651 25.1761 33.2651Z" fill="#FFB125"/>
<path fill-rule="evenodd" clip-rule="evenodd" d="M25.1761 33.2651C25.0102 33.2651 24.8442 33.2687 24.6818 33.2722C24.6461 33.2722 24.6122 33.274 24.5765 33.2757C24.4355 33.2793 24.2946 33.2846 24.1554 33.2917C24.1357 33.2917 24.1179 33.2934 24.1 33.2952C23.3095 33.3341 22.5296 33.4208 21.7641 33.5499C31.2168 35.2919 38.5853 43.56 38.5853 53.4286C38.5853 63.3927 31.2918 71.6679 21.7087 73.2985C22.112 73.3675 22.5207 73.424 22.9312 73.4683C22.9544 73.47 22.9793 73.4736 23.0008 73.4771C23.1025 73.4877 23.206 73.4966 23.3077 73.5072C23.3666 73.5125 23.4273 73.5178 23.4879 73.5231C23.5754 73.5302 23.6628 73.5372 23.7503 73.5408L23.9858 73.5567C24.0626 73.5602 24.1393 73.5655 24.216 73.5691L24.5087 73.5797C24.5694 73.5815 24.6301 73.585 24.6925 73.5868C24.8496 73.5903 25.0102 73.5921 25.1708 73.5921H25.1761C29.3895 73.5921 33.3048 72.3222 36.5509 70.1487C36.6865 70.0585 36.8204 69.9647 36.9542 69.871C37.8839 69.2149 38.7566 68.4844 39.5632 67.6868C39.6774 67.5718 39.7899 67.4569 39.9023 67.3402C40.9123 66.2896 41.81 65.1312 42.5755 63.8844C42.7451 63.6067 42.9093 63.3255 43.0645 63.039C43.5356 62.183 43.9443 61.2881 44.2869 60.3614C45.0846 58.2002 45.5201 55.8639 45.5201 53.4286C45.5201 42.2919 36.4117 33.2651 25.1761 33.2651Z" fill="#FF901D"/>
</svg>
