<?xml version="1.0" encoding="UTF-8"?>
<svg width="16px" height="16px" viewBox="0 0 16 16" version="1.1" xmlns="http://www.w3.org/2000/svg" xmlns:xlink="http://www.w3.org/1999/xlink">
    <!-- Generator: Sketch 52.6 (67491) - http://www.bohemiancoding.com/sketch -->
    <title>Artboard</title>
    <desc>Created with Sketch.</desc>
    <defs>
        <polygon id="path-1" points="0 0 6.167 0 6.167 9.9994 0 9.9994"></polygon>
        <polygon id="path-3" points="0.833 0 7 0 7 9.9994 0.833 9.9994"></polygon>
    </defs>
    <g id="Artboard" stroke="none" stroke-width="1" fill="none" fill-rule="evenodd">
        <g id="Page-1">
            <g id="Group-3">
                <mask id="mask-2" fill="white">
                    <use xlink:href="#path-1"></use>
                </mask>
                <g id="Clip-2"></g>
                <path d="M6.167,7.4754 C5.66,8.2724 5.296,9.1574 5.116,9.9994 C2.086,8.6514 0,5.8304 0,2.5664 C0,1.8144 0.11,1.0874 0.316,0.3984 C0.386,0.1634 0.616,-0.0006 0.881,-0.0006 C1.218,-0.0006 1.478,0.2534 1.465,0.5594 C1.459,0.6574 1.457,0.7564 1.457,0.8574 C1.457,3.8004 3.389,6.3364 6.167,7.4754" id="Fill-1" fill="#2F3061" mask="url(#mask-2)"></path>
            </g>
            <g id="Group-6" transform="translate(9.000000, 0.000000)">
                <mask id="mask-4" fill="white">
                    <use xlink:href="#path-3"></use>
                </mask>
                <g id="Clip-5"></g>
                <path d="M0.833,7.4754 C1.34,8.2724 1.704,9.1574 1.884,9.9994 C4.914,8.6514 7,5.8304 7,2.5664 C7,1.8144 6.89,1.0874 6.684,0.3984 C6.614,0.1634 6.384,-0.0006 6.119,-0.0006 C5.782,-0.0006 5.522,0.2534 5.535,0.5594 C5.541,0.6574 5.543,0.7564 5.543,0.8574 C5.543,3.8004 3.611,6.3364 0.833,7.4754" id="Fill-4" fill="#2F3061" mask="url(#mask-4)"></path>
            </g>
            <path d="M8.001,15.4998 C5.876,15.4998 3.589,14.6308 3.589,12.7218 C3.589,12.4028 3.626,12.0548 3.697,11.6848 C3.86,10.8678 4.197,9.9988 4.647,9.2378 C5.567,7.6818 6.821,6.7518 8.001,6.7518 C9.181,6.7518 10.435,7.6818 11.355,9.2378 C11.805,9.9978 12.142,10.8668 12.305,11.6848 C12.376,12.0538 12.413,12.4028 12.413,12.7218 C12.413,14.6308 10.126,15.4998 8.001,15.4998" id="Fill-7" fill="#A5D9E4"></path>
            <path d="M8.001,6.2518 C6.479,6.2518 5.118,7.4588 4.217,8.9828 C3.73,9.8058 3.38,10.7188 3.207,11.5888 C3.131,11.9788 3.089,12.3608 3.089,12.7218 C3.089,14.9068 5.545,15.9998 8.001,15.9998 C10.457,15.9998 12.913,14.9068 12.913,12.7218 C12.913,12.3608 12.871,11.9788 12.795,11.5868 C12.622,10.7188 12.272,9.8058 11.785,8.9828 C10.884,7.4588 9.523,6.2518 8.001,6.2518 M8.001,7.2518 C9.002,7.2518 10.095,8.0888 10.924,9.4918 C11.346,10.2048 11.662,11.0188 11.814,11.7778 C11.879,12.1178 11.913,12.4358 11.913,12.7218 C11.913,14.2178 9.945,14.9998 8.001,14.9998 C6.057,14.9998 4.089,14.2178 4.089,12.7218 C4.089,12.4358 4.123,12.1188 4.188,11.7838 C4.34,11.0198 4.656,10.2048 5.078,9.4918 C5.907,8.0888 7,7.2518 8.001,7.2518" id="Fill-9" fill="#2F3061"></path>
        </g>
    </g>
</svg>