<svg width="114" height="147" viewBox="0 0 114 147" fill="none" xmlns="http://www.w3.org/2000/svg">
<path fill-rule="evenodd" clip-rule="evenodd" d="M60.095 133.365H90.23V46.137H60.095V133.365Z" fill="#A5D9E4"/>
<path fill-rule="evenodd" clip-rule="evenodd" d="M74.9811 52.3599V22.6119C74.9811 19.8719 72.7591 17.6509 70.0191 17.6509C67.2791 17.6509 65.0571 19.8719 65.0571 22.6119V52.3599" fill="#A5D9E4"/>
<path fill-rule="evenodd" clip-rule="evenodd" d="M74.9811 53.6967C74.2421 53.6967 73.6441 53.0987 73.6441 52.3597V22.6127C73.6441 20.6137 72.0191 18.9877 70.0201 18.9877C68.0211 18.9877 66.3941 20.6137 66.3941 22.6127V52.3597C66.3941 53.0987 65.7961 53.6967 65.0581 53.6967C64.3191 53.6967 63.7211 53.0987 63.7211 52.3597V22.6127C63.7211 19.1387 66.5461 16.3137 70.0201 16.3137C73.4931 16.3137 76.3181 19.1387 76.3181 22.6127V52.3597C76.3181 53.0987 75.7201 53.6967 74.9811 53.6967Z" fill="#2F3061"/>
<path fill-rule="evenodd" clip-rule="evenodd" d="M84.905 52.3599V18.3519C84.905 15.6119 82.683 13.3899 79.943 13.3899C77.203 13.3899 74.981 15.6119 74.981 18.3519V52.3599" fill="#A5D9E4"/>
<path fill-rule="evenodd" clip-rule="evenodd" d="M84.9059 53.6967C84.1669 53.6967 83.5689 53.0987 83.5689 52.3597V18.3527C83.5689 16.3537 81.9419 14.7267 79.9429 14.7267C77.9439 14.7267 76.3179 16.3537 76.3179 18.3527V52.3597C76.3179 53.0987 75.7199 53.6967 74.9809 53.6967C74.2419 53.6967 73.6439 53.0987 73.6439 52.3597V18.3527C73.6439 14.8787 76.4689 12.0537 79.9429 12.0537C83.4179 12.0537 86.2419 14.8787 86.2419 18.3527V52.3597C86.2419 53.0987 85.6439 53.6967 84.9059 53.6967Z" fill="#2F3061"/>
<path fill-rule="evenodd" clip-rule="evenodd" d="M84.9049 52.3599V22.6119C84.9049 19.8719 87.1269 17.6509 89.8669 17.6509C92.6069 17.6509 94.8289 19.8719 94.8289 22.6119V53.5119C94.8289 55.0519 96.6909 55.8229 97.7799 54.7339L101.618 50.8969C104 48.5139 107.862 48.5139 110.245 50.8969C112.627 53.2789 112.627 57.1409 110.245 59.5239C110.245 59.5239 89.8669 76.6839 89.8669 86.0899V126.69" fill="#A5D9E4"/>
<path fill-rule="evenodd" clip-rule="evenodd" d="M89.8678 128.027C89.1288 128.027 88.5308 127.429 88.5308 126.69V86.089C88.5308 76.175 108.531 59.218 109.383 58.501C111.157 56.72 111.157 53.699 109.299 51.842C107.442 49.985 104.419 49.985 102.562 51.842L98.7248 55.679C97.8468 56.56 96.5338 56.821 95.3848 56.344C94.2348 55.868 93.4918 54.757 93.4918 53.511V22.612C93.4918 20.614 91.8668 18.987 89.8678 18.987C87.8688 18.987 86.2418 20.614 86.2418 22.612V52.36C86.2418 53.099 85.6438 53.697 84.9058 53.697C84.1668 53.697 83.5688 53.099 83.5688 52.36V22.612C83.5688 19.139 86.3938 16.314 89.8678 16.314C93.3408 16.314 96.1658 19.139 96.1658 22.612V53.511C96.1658 53.728 96.2978 53.829 96.4078 53.875C96.5178 53.919 96.6808 53.944 96.8338 53.788L100.673 49.951C103.57 47.05 108.291 47.05 111.189 49.951C114.089 52.851 114.089 57.569 111.189 60.468C105.57 65.209 91.2048 78.887 91.2048 86.089V126.69C91.2048 127.429 90.6068 128.027 89.8678 128.027Z" fill="#2F3061"/>
<path fill-rule="evenodd" clip-rule="evenodd" d="M60.0953 126.69C60.0953 126.69 59.5333 84.6909 58.4523 80.8659C57.0083 75.7519 55.1333 67.6159 55.1333 59.8149V26.8719C55.1333 24.1319 57.3553 21.9109 60.0953 21.9109C62.8363 21.9109 65.0573 24.1319 65.0573 26.8719V52.3599" fill="#A5D9E4"/>
<path fill-rule="evenodd" clip-rule="evenodd" d="M60.0944 128.027C59.3734 128.027 58.7804 127.454 58.7584 126.728C58.6044 121.281 58.0164 84.235 57.1674 81.229C55.6294 75.789 53.7964 67.658 53.7964 59.816V26.873C53.7964 23.399 56.6214 20.573 60.0954 20.573C63.5694 20.573 66.3944 23.399 66.3944 26.873V52.36C66.3944 53.099 65.7964 53.697 65.0584 53.697C64.3194 53.697 63.7214 53.099 63.7214 52.36V26.873C63.7214 24.874 62.0944 23.247 60.0954 23.247C58.0964 23.247 56.4704 24.874 56.4704 26.873V59.816C56.4704 67.351 58.2484 75.225 59.7394 80.503C60.8534 84.442 61.4084 125.839 61.4324 126.652C61.4524 127.39 60.8704 128.006 60.1334 128.027H60.0944Z" fill="#2F3061"/>
<path fill-rule="evenodd" clip-rule="evenodd" d="M97.7876 54.7109C97.7876 54.7109 94.7086 58.4629 90.9316 60.6959L97.7876 54.7109Z" fill="#A5D9E4"/>
<path fill-rule="evenodd" clip-rule="evenodd" d="M90.9332 62.0328C90.4762 62.0328 90.0312 61.7978 89.7802 61.3758C89.4062 60.7408 89.6162 59.9198 90.2512 59.5438C93.7842 57.4568 96.7252 53.8988 96.7542 53.8628C97.2232 53.2948 98.0642 53.2088 98.6362 53.6778C99.2072 54.1458 99.2892 54.9898 98.8222 55.5598C98.6902 55.7208 95.5462 59.5208 91.6122 61.8468C91.3992 61.9728 91.1632 62.0328 90.9332 62.0328Z" fill="#2F3061"/>
<path fill-rule="evenodd" clip-rule="evenodd" d="M60.0953 55.1329C60.0953 55.1329 74.9263 50.6679 90.2303 55.1329H60.0953Z" fill="#A5D9E4"/>
<path fill-rule="evenodd" clip-rule="evenodd" d="M60.0953 56.4697C59.5213 56.4697 58.9903 56.0957 58.8153 55.5177C58.6023 54.8117 59.0023 54.0667 59.7103 53.8517C60.3313 53.6667 75.1003 49.3247 90.6043 53.8497C91.3133 54.0557 91.7193 54.7987 91.5123 55.5077C91.3053 56.2157 90.5663 56.6237 89.8553 56.4157C75.1043 52.1137 60.6253 56.3687 60.4813 56.4137C60.3533 56.4517 60.2223 56.4697 60.0953 56.4697Z" fill="#2F3061"/>
<path fill-rule="evenodd" clip-rule="evenodd" d="M73.7018 81.0768C74.2718 76.2328 80.1138 70.1058 83.2538 67.4138L73.7018 81.0768Z" fill="#A5D9E4"/>
<path fill-rule="evenodd" clip-rule="evenodd" d="M73.7027 82.4142C73.6507 82.4142 73.5987 82.4122 73.5447 82.4052C72.8117 82.3192 72.2877 81.6542 72.3737 80.9202C72.9887 75.7032 78.9547 69.3372 82.3847 66.3982C82.9447 65.9212 83.7897 65.9812 84.2697 66.5442C84.7497 67.1042 84.6847 67.9492 84.1237 68.4302C81.2057 70.9312 75.5487 76.8252 75.0287 81.2342C74.9497 81.9142 74.3717 82.4142 73.7027 82.4142Z" fill="#2F3061"/>
<path fill-rule="evenodd" clip-rule="evenodd" d="M1.33655 55.9058C0.796545 55.9058 0.307545 55.5808 0.100545 55.0768C-0.113455 54.5558 0.0225453 53.9548 0.440545 53.5768L16.6115 38.9768L0.440545 24.3778C0.0215453 23.9988 -0.114455 23.3958 0.102545 22.8738C0.316545 22.3518 0.827545 22.0108 1.40455 22.0498L23.1625 23.1608L22.0515 1.40477C22.0235 0.841768 22.3505 0.322768 22.8695 0.103768C23.3895 -0.112232 23.9895 0.0157681 24.3715 0.431768L43.5215 21.2598C44.0215 21.8028 43.9835 22.6488 43.4405 23.1488C42.8985 23.6488 42.0535 23.6148 41.5525 23.0698L24.9105 4.96977L25.9095 24.5048C25.9275 24.8818 25.7865 25.2498 25.5195 25.5168C25.2525 25.7848 24.8805 25.9298 24.5055 25.9078L5.02255 24.9128L19.5015 37.9848C19.7825 38.2388 19.9425 38.5988 19.9425 38.9768C19.9425 39.3558 19.7825 39.7158 19.5015 39.9688L4.99855 53.0638L27.3175 52.0468C28.0615 52.0008 28.6825 52.5828 28.7145 53.3208C28.7485 54.0588 28.1785 54.6838 27.4405 54.7178L1.39855 55.9048C1.37755 55.9058 1.35755 55.9058 1.33655 55.9058Z" fill="#2F3061"/>
<mask id="mask0" style="mask-type:alpha" maskUnits="userSpaceOnUse" x="0" y="0" width="114" height="147">
<path fill-rule="evenodd" clip-rule="evenodd" d="M0 146.721H113.364V0H0V146.721Z" fill="white"/>
</mask>
<g mask="url(#mask0)">
<path fill-rule="evenodd" clip-rule="evenodd" d="M41.29 146.721H71.425V61.5859H41.29V146.721Z" fill="#E2EFF3"/>
<path fill-rule="evenodd" clip-rule="evenodd" d="M56.3571 67.8091V38.0611C56.3571 35.3211 58.5791 33.0991 61.3191 33.0991C64.0591 33.0991 66.2811 35.3211 66.2811 38.0611V67.8091" fill="#E2EFF3"/>
<path fill-rule="evenodd" clip-rule="evenodd" d="M66.2809 69.1459C65.5419 69.1459 64.9439 68.5479 64.9439 67.8099V38.0609C64.9439 36.0619 63.3169 34.4369 61.3189 34.4369C59.3199 34.4369 57.6929 36.0619 57.6929 38.0609V67.8099C57.6929 68.5479 57.0949 69.1459 56.3559 69.1459C55.6179 69.1459 55.0199 68.5479 55.0199 67.8099V38.0609C55.0199 34.5879 57.8439 31.7629 61.3189 31.7629C64.7929 31.7629 67.6179 34.5879 67.6179 38.0609V67.8099C67.6179 68.5479 67.0199 69.1459 66.2809 69.1459Z" fill="#2F3061"/>
<path fill-rule="evenodd" clip-rule="evenodd" d="M46.4332 67.8091V33.8011C46.4332 31.0601 48.6552 28.8391 51.3952 28.8391C54.1352 28.8391 56.3572 31.0601 56.3572 33.8011V67.8091" fill="#E2EFF3"/>
<path fill-rule="evenodd" clip-rule="evenodd" d="M56.3561 69.1459C55.6181 69.1459 55.0201 68.5479 55.0201 67.8099V33.8009C55.0201 31.8019 53.3941 30.1769 51.3951 30.1769C49.3971 30.1769 47.7701 31.8019 47.7701 33.8009V67.8099C47.7701 68.5479 47.1721 69.1459 46.4331 69.1459C45.6941 69.1459 45.0961 68.5479 45.0961 67.8099V33.8009C45.0961 30.3279 47.9211 27.5029 51.3951 27.5029C54.8681 27.5029 57.6931 30.3279 57.6931 33.8009V67.8099C57.6931 68.5479 57.0951 69.1459 56.3561 69.1459Z" fill="#2F3061"/>
<path fill-rule="evenodd" clip-rule="evenodd" d="M41.4713 141.44V101.539C41.4713 92.1331 21.0943 74.9721 21.0943 74.9721C18.7113 72.5901 18.7113 68.7281 21.0943 66.3461C23.4763 63.9631 27.3383 63.9631 29.7213 66.3461L33.5583 70.1831C34.6473 71.2721 36.5093 70.5011 36.5093 68.9611V38.0611C36.5093 35.3211 38.7313 33.0991 41.4713 33.0991C44.2113 33.0991 46.4333 35.3211 46.4333 38.0611V67.8091" fill="#E2EFF3"/>
<path fill-rule="evenodd" clip-rule="evenodd" d="M41.4713 142.777C40.7323 142.777 40.1343 142.179 40.1343 141.44V101.538C40.1343 94.3365 25.7683 80.6585 20.2333 75.9955C18.7443 74.5135 17.9703 72.6455 17.9703 70.6595C17.9703 68.6725 18.7443 66.8045 20.1493 65.4015C21.5533 63.9965 23.4213 63.2215 25.4083 63.2215C27.3943 63.2215 29.2623 63.9965 30.6663 65.4015L34.5033 69.2374C34.6563 69.3904 34.8203 69.3665 34.9313 69.3225C35.0413 69.2775 35.1733 69.1765 35.1733 68.9615V38.0605C35.1733 34.5885 37.9983 31.7625 41.4713 31.7625C44.9453 31.7625 47.7703 34.5885 47.7703 38.0605V67.8095C47.7703 68.5485 47.1723 69.1465 46.4333 69.1465C45.6943 69.1465 45.0963 68.5485 45.0963 67.8095V38.0605C45.0963 36.0625 43.4693 34.4365 41.4713 34.4365C39.4723 34.4365 37.8473 36.0625 37.8473 38.0605V68.9615C37.8473 70.2055 37.1043 71.3164 35.9533 71.7924C34.8053 72.2695 33.4923 72.0065 32.6133 71.1285L28.7763 67.2915C26.9773 65.4905 23.8383 65.4935 22.0393 67.2915C21.1403 68.1904 20.6443 69.3865 20.6443 70.6595C20.6443 71.9305 21.1403 73.1285 22.0393 74.0275C22.8073 74.6674 42.8083 91.6245 42.8083 101.538V141.44C42.8083 142.179 42.2093 142.777 41.4713 142.777Z" fill="#2F3061"/>
<path fill-rule="evenodd" clip-rule="evenodd" d="M66.2809 67.8091V42.3211C66.2809 39.5811 68.5029 37.3591 71.2429 37.3591C73.9829 37.3591 76.2049 39.5811 76.2049 42.3211V75.2641C76.2049 83.0651 74.3309 91.2021 72.8849 96.3151C71.8039 100.141 71.2429 141.44 71.2429 141.44" fill="#E2EFF3"/>
<path fill-rule="evenodd" clip-rule="evenodd" d="M71.2448 142.777C71.2138 142.777 71.1808 142.776 71.1488 142.773C70.4128 142.721 69.8578 142.083 69.9108 141.346C69.9328 141.017 70.4938 99.8634 71.5988 95.9524C73.0908 90.6764 74.8678 82.8044 74.8678 75.2634V42.3214C74.8678 40.3234 73.2418 38.6964 71.2428 38.6964C69.2448 38.6964 67.6178 40.3234 67.6178 42.3214V67.8094C67.6178 68.5484 67.0198 69.1464 66.2808 69.1464C65.5418 69.1464 64.9438 68.5484 64.9438 67.8094V42.3214C64.9438 38.8474 67.7688 36.0234 71.2428 36.0234C74.7158 36.0234 77.5408 38.8474 77.5408 42.3214V75.2634C77.5408 83.1114 75.7098 91.2404 74.1718 96.6784C73.1408 100.329 72.5828 141.457 72.5758 141.534C72.5268 142.239 71.9398 142.777 71.2448 142.777Z" fill="#2F3061"/>
<path fill-rule="evenodd" clip-rule="evenodd" d="M42.3551 70.5821C42.3551 71.1701 41.8781 71.6471 41.2901 71.6471C40.7021 71.6471 40.2251 71.1701 40.2251 70.5821C40.2251 69.9941 40.7021 69.5171 41.2901 69.5171C41.8781 69.5171 42.3551 69.9941 42.3551 70.5821Z" fill="#2F3061"/>
<path fill-rule="evenodd" clip-rule="evenodd" d="M52.4606 70.5821C52.4606 71.1701 51.9826 71.6471 51.3956 71.6471C50.8076 71.6471 50.3296 71.1701 50.3296 70.5821C50.3296 69.9941 50.8076 69.5171 51.3956 69.5171C51.9826 69.5171 52.4606 69.9941 52.4606 70.5821Z" fill="#2F3061"/>
<path fill-rule="evenodd" clip-rule="evenodd" d="M62.2936 70.5821C62.2936 71.1701 61.8156 71.6471 61.2286 71.6471C60.6406 71.6471 60.1626 71.1701 60.1626 70.5821C60.1626 69.9941 60.6406 69.5171 61.2286 69.5171C61.8156 69.5171 62.2936 69.9941 62.2936 70.5821Z" fill="#2F3061"/>
<path fill-rule="evenodd" clip-rule="evenodd" d="M72.3981 70.5821C72.3981 71.1701 71.9211 71.6471 71.3341 71.6471C70.7451 71.6471 70.2681 71.1701 70.2681 70.5821C70.2681 69.9941 70.7451 69.5171 71.3341 69.5171C71.9211 69.5171 72.3981 69.9941 72.3981 70.5821Z" fill="#2F3061"/>
</g>
</svg>
