<?xml version="1.0" encoding="UTF-8" standalone="no"?>
<svg
   width="16"
   height="16"
   viewBox="0 0 16 16"
   version="1.1"
   id="svg30"
   sodipodi:docname="now-what-pen.svg"
   inkscape:version="1.1.1 (3bf5ae0d25, 2021-09-20, custom)"
   xmlns:inkscape="http://www.inkscape.org/namespaces/inkscape"
   xmlns:sodipodi="http://sodipodi.sourceforge.net/DTD/sodipodi-0.dtd"
   xmlns="http://www.w3.org/2000/svg"
   xmlns:svg="http://www.w3.org/2000/svg">
  <defs
     id="defs34" />
  <sodipodi:namedview
     id="namedview32"
     pagecolor="#ffffff"
     bordercolor="#666666"
     borderopacity="1.0"
     inkscape:pageshadow="2"
     inkscape:pageopacity="0.0"
     inkscape:pagecheckerboard="0"
     showgrid="false"
     inkscape:zoom="9.7501424"
     inkscape:cx="-1.17947"
     inkscape:cy="29.896999"
     inkscape:window-width="1920"
     inkscape:window-height="1058"
     inkscape:window-x="1368"
     inkscape:window-y="0"
     inkscape:window-maximized="1"
     inkscape:current-layer="svg30"
     fit-margin-top="0"
     fit-margin-left="0"
     fit-margin-right="0"
     fit-margin-bottom="0" />
  <g
     id="g28"
     transform="matrix(0.26666603,0,0,0.26758881,-2.1735444e-5,-2.1842833e-4)">
    <g
       id="g6">
      <path
         d="M 0.737,59.056 A 0.568,0.568 0 0 1 0.649,58.365 l 6.575,-11.2 a 0.606,0.606 0 0 1 0.085,-0.111 l 31.284,-31.81 a 1.431,1.431 0 0 1 -0.1,-0.414 2.85,2.85 0 0 1 0.862,-2 l 0.192,-0.225 c 1.638,-1.915 2.787,-3.187 3.8,-3.4 0.713,-0.151 4.263,-2.439 7.2,-5.482 L 53.388,0.775 A 0.57,0.57 0 0 1 53.63,0.626 C 53.765,0.584 55,0.264 56.841,1.8 c 0.213,0.177 0.43,0.376 0.644,0.59 2.191,2.2 1.809,3.694 1.758,3.857 a 0.552,0.552 0 0 1 -0.047,0.109 c -0.008,0.016 -1.07,2.073 0.207,6.062 a 0.572,0.572 0 0 1 -0.089,0.518 105.958,105.958 0 0 1 -8.367,9.617 c -8.634,8.546 -10.4,9.621 -11.271,8.891 v 0 A 0.917,0.917 0 0 1 39.598,31.37 c -0.347,-0.382 -0.667,-1.181 0.551,-3.714 a 1.841,1.841 0 0 1 1.384,-1.042 2.72,2.72 0 0 0 1.139,-0.64 133.685,133.685 0 0 0 13.334,-13.353 11.846,11.846 0 0 1 -0.7,-2.457 24.535,24.535 0 0 0 -4.652,6.347 c -0.216,1.015 -1.488,2.162 -3.4,3.8 l -0.228,0.194 c -1.146,0.979 -1.952,0.953 -2.421,0.764 L 12.745,52.5 a 0.543,0.543 0 0 1 -0.112,0.085 l -11.2,6.559 A 0.57,0.57 0 0 1 0.78,59.091 0.438,0.438 0 0 1 0.737,59.056 Z"
         fill="#e3665a"
         id="path2" />
      <path
         d="m 56.476,2.237 c 0.193,0.161 0.4,0.345 0.606,0.555 2.01,2.017 1.618,3.285 1.618,3.285 0,0 -1.222,2.191 0.161,6.513 a 104.408,104.408 0 0 1 -8.313,9.557 c -4.231,4.187 -9.716,9.515 -10.505,8.858 l -0.021,-0.02 c -0.471,-0.517 0.164,-2.089 0.643,-3.084 a 1.274,1.274 0 0 1 0.953,-0.723 3.236,3.236 0 0 0 1.409,-0.758 133.379,133.379 0 0 0 13.646,-13.7 10.717,10.717 0 0 1 -0.924,-3.808 c -2.951,2.835 -5.453,6.532 -5.655,7.481 -0.202,0.949 -1.928,2.38 -3.444,3.675 -1.211,1.034 -1.842,0.715 -2.046,0.545 a 0.489,0.489 0 0 1 -0.075,-0.076 l -32.184,31.557 -11.2,6.56 6.575,-11.2 31.6,-32.136 -0.008,-0.006 c -0.08,-0.067 -0.742,-0.688 0.48,-2.115 1.3,-1.514 2.731,-3.239 3.68,-3.439 0.949,-0.2 4.65,-2.7 7.489,-5.644 L 53.8,1.171 c 0,0 1.018,-0.315 2.677,1.066 m 0.73,-0.876 C 55.174,-0.331 53.731,0 53.462,0.081 a 1.143,1.143 0 0 0 -0.484,0.3 l -2.839,2.945 a 27.014,27.014 0 0 1 -6.911,5.322 c -1.188,0.25 -2.347,1.523 -4.112,3.588 l -0.191,0.223 a 3.374,3.374 0 0 0 -1,2.423 c 0.006,0.07 0.015,0.137 0.026,0.2 L 6.9,46.658 A 1.184,1.184 0 0 0 6.729,46.88 L 0.157,58.076 a 1.141,1.141 0 0 0 0.177,1.384 c 0.025,0.025 0.051,0.048 0.077,0.071 a 1.143,1.143 0 0 0 1.306,0.107 l 11.205,-6.559 a 1.222,1.222 0 0 0 0.222,-0.17 L 40.205,26.372 a 7.605,7.605 0 0 0 -0.57,1.036 c -1.055,2.193 -1.2,3.533 -0.459,4.344 a 1.382,1.382 0 0 0 0.135,0.13 c 0.992,0.825 2.214,0.234 5.448,-2.636 1.992,-1.767 4.344,-4.067 6.589,-6.288 a 104.414,104.414 0 0 0 8.42,-9.678 1.14,1.14 0 0 0 0.178,-1.037 C 58.758,8.532 59.694,6.634 59.704,6.615 a 0.948,0.948 0 0 0 0.083,-0.2 C 59.887,6.094 60.265,4.37 57.887,1.987 57.66,1.759 57.43,1.549 57.204,1.361 Z"
         fill="#ffffff"
         id="path4" />
    </g>
    <g
       id="g26">
      <g
         id="g14">
        <polygon
           points="1.066,58.697 1.096,58.728 1.141,58.654 "
           fill="#e3665a"
           id="polygon8" />
        <path
           d="m 57.021,2.729 c 0.022,0.021 0.039,0.042 0.06,0.063 0.021,0.021 0.042,0.039 0.064,0.061 z"
           fill="#e3665a"
           id="path10" />
        <path
           d="m 58.7,6.077 c 0,0 0.4,-1.268 -1.617,-3.285 C 55.066,0.775 53.8,1.171 53.8,1.171 l -2.84,2.947 c -2.839,2.947 -6.54,5.444 -7.489,5.644 -0.949,0.2 -2.383,1.925 -3.68,3.439 -1.297,1.514 -0.472,2.121 -0.472,2.121 l -31.603,32.136 -6.575,11.2 11.2,-6.56 32.186,-31.561 c 0,0 0.606,0.825 2.121,-0.469 1.515,-1.294 3.243,-2.727 3.444,-3.675 0.201,-0.948 2.7,-4.646 5.655,-7.481 a 10.717,10.717 0 0 0 0.924,3.808 133.379,133.379 0 0 1 -13.646,13.7 3.241,3.241 0 0 1 -1.409,0.758 1.27,1.27 0 0 0 -0.953,0.723 c -0.479,1 -1.114,2.567 -0.643,3.084 0.707,0.778 6.255,-4.611 10.526,-8.838 A 104.408,104.408 0 0 0 58.859,12.59 C 57.476,8.268 58.7,6.077 58.7,6.077 Z"
           fill="#e3665a"
           id="path12" />
      </g>
      <g
         id="g24">
        <path
           d="m 42.8,17.62 a 14.511,14.511 0 0 0 -3.462,-2.574 l -0.253,-0.139 a 0.739,0.739 0 0 0 0.235,0.415 l -0.546,0.556 0.053,0.029 a 13.643,13.643 0 0 1 3.249,2.4 13.148,13.148 0 0 1 1.884,2.706 l 0.028,0.052 0.54,-0.528 a 0.743,0.743 0 0 0 0.445,0.241 L 44.85,20.553 A 14.129,14.129 0 0 0 42.8,17.62 Z"
           fill="#ffffff"
           id="path16" />
        <path
           d="m 44.5,9.291 a 4.38,4.38 0 0 1 -1.028,0.471 1.376,1.376 0 0 0 -0.271,0.095 l 0.252,0.09 a 10.935,10.935 0 0 1 6.45,6.485 l 0.086,0.235 A 1.543,1.543 0 0 0 50.094,16.393 4.265,4.265 0 0 1 50.558,15.38 11.743,11.743 0 0 0 47.97,11.655 12.305,12.305 0 0 0 44.5,9.291 Z"
           fill="#ffffff"
           id="path18" />
        <path
           d="M 6.021,54.378 A 5.055,5.055 0 0 1 4.761,52.724 L 4.7,52.6 4.1,53.607 a 6.028,6.028 0 0 0 1.267,1.529 c 0.047,0.04 0.1,0.081 0.147,0.121 a 6.768,6.768 0 0 0 0.655,0.45 L 7.152,55.132 7.039,55.07 A 5.951,5.951 0 0 1 6.021,54.378 Z"
           fill="#ffffff"
           id="path20" />
        <path
           d="M 9.933,50.116 A 11.3,11.3 0 0 1 8.009,47.262 L 7.975,47.194 7.716,47.458 7.325,48.123 a 11.486,11.486 0 0 0 1.9,2.7 11.225,11.225 0 0 0 0.967,0.861 10.875,10.875 0 0 0 1.325,0.9 L 12.342,52.1 12.473,51.972 12.399,51.934 A 9.932,9.932 0 0 1 9.933,50.116 Z"
           fill="#ffffff"
           id="path22" />
      </g>
    </g>
  </g>
</svg>
