<svg width="25" height="25" viewBox="0 0 25 25" fill="none" xmlns="http://www.w3.org/2000/svg">
<path fill-rule="evenodd" clip-rule="evenodd" d="M0.499512 24.4992H13.8355L12.4991 21.0543L7.17576 4.14307L0.499512 24.4992Z" fill="#1B75BB"/>
<path fill-rule="evenodd" clip-rule="evenodd" d="M13.8354 24.4999H0.49939L7.17564 4.1438L12.4989 21.055L13.8354 24.4999Z" stroke="#2F3061" stroke-linejoin="round"/>
<path fill-rule="evenodd" clip-rule="evenodd" d="M7.17505 4.1438L12.4998 21.055L13.8363 24.4999H24.4994L17.8246 4.1438H7.17505Z" fill="#1B75BB"/>
<path fill-rule="evenodd" clip-rule="evenodd" d="M24.499 24.4999H13.8359L12.4995 21.055L7.17468 4.1438H17.8258L24.499 24.4999Z" stroke="#2F3061" stroke-linejoin="round"/>
<path fill-rule="evenodd" clip-rule="evenodd" d="M7.17504 4.1435L6.02759 0.499756L7.17504 4.1435Z" fill="#1B75BB"/>
<path d="M6.02805 0.499756L7.1755 4.1435" stroke="#2F3061" stroke-linecap="round" stroke-linejoin="round"/>
<path fill-rule="evenodd" clip-rule="evenodd" d="M7.1683 4.1435L8.31426 0.499756L7.1683 4.1435Z" fill="#1B75BB"/>
<path d="M8.31457 0.499756L7.16711 4.1435" stroke="#2F3061" stroke-linecap="round" stroke-linejoin="round"/>
<path fill-rule="evenodd" clip-rule="evenodd" d="M17.8302 4.1435L16.6827 0.499756L17.8302 4.1435Z" fill="#1B75BB"/>
<path d="M16.6829 0.499756L17.8304 4.1435" stroke="#2F3061" stroke-linecap="round" stroke-linejoin="round"/>
<path fill-rule="evenodd" clip-rule="evenodd" d="M17.8221 4.1435L18.9695 0.499756L17.8221 4.1435Z" fill="#1B75BB"/>
<path d="M18.9694 0.499756L17.822 4.1435" stroke="#2F3061" stroke-linecap="round" stroke-linejoin="round"/>
<path fill-rule="evenodd" clip-rule="evenodd" d="M3.91492 24.4991H10.4202L9.7692 22.8189L7.17129 14.5669L3.91492 24.4991Z" fill="#2F3061"/>
</svg>
