<?xml version="1.0" encoding="UTF-8"?>
<svg width="62px" height="62px" viewBox="0 0 62 62" version="1.1" xmlns="http://www.w3.org/2000/svg" xmlns:xlink="http://www.w3.org/1999/xlink">
    <!-- Generator: Sketch 49.3 (51167) - http://www.bohemiancoding.com/sketch -->
    <title>Custom Preset</title>
    <desc>Created with Sketch.</desc>
    <defs></defs>
    <g id="Custom-Preset" stroke="none" stroke-width="1" fill="none" fill-rule="evenodd">
        <g id="Page-1" transform="translate(11.000000, 0.000000)">
            <path d="M0.5,31.4258 L39.856,31.4258" id="Stroke-4" stroke="#FFFFFF"></path>
            <path d="M0.5,13.6992 L39.856,13.6992" id="Stroke-6" stroke="#FFFFFF"></path>
            <path d="M0.5,19.6084 L39.856,19.6084" id="Stroke-8" stroke="#FFFFFF"></path>
            <path d="M0.5,25.5176 L39.856,25.5176" id="Stroke-10" stroke="#FFFFFF"></path>
            <path d="M5.6494,37.335 L2.6494,37.335 L2.6494,22.625 C2.6494,21.797 3.3214,21.125 4.1494,21.125 C4.9784,21.125 5.6494,21.797 5.6494,22.625 L5.6494,37.335 Z" id="Fill-12" fill="#2F3061"></path>
            <path d="M12.9141,37.335 L9.9141,37.335 L9.9141,15.127 C9.9141,14.299 10.5861,13.627 11.4141,13.627 C12.2421,13.627 12.9141,14.299 12.9141,15.127 L12.9141,37.335 Z" id="Fill-14" fill="#2F3061"></path>
            <path d="M20.1778,37.335 L17.1778,37.335 L17.1778,19.063 C17.1778,18.234 17.8498,17.563 18.6778,17.563 C19.5068,17.563 20.1778,18.234 20.1778,19.063 L20.1778,37.335 Z" id="Fill-16" fill="#2F3061"></path>
            <path d="M27.4424,37.335 L24.4424,37.335 L24.4424,25.981 C24.4424,25.152 25.1134,24.481 25.9424,24.481 C26.7704,24.481 27.4424,25.152 27.4424,25.981 L27.4424,37.335 Z" id="Fill-18" fill="#2F3061"></path>
            <path d="M34.7061,37.335 L31.7061,37.335 L31.7061,22.625 C31.7061,21.797 32.3781,21.125 33.2061,21.125 C34.0351,21.125 34.7061,21.797 34.7061,22.625 L34.7061,37.335 Z" id="Fill-20" fill="#2F3061"></path>
            <path d="M8.6494,37.335 L5.6494,37.335 L5.6494,27.449 C5.6494,26.62 6.3214,25.949 7.1494,25.949 C7.9784,25.949 8.6494,26.62 8.6494,27.449 L8.6494,37.335 Z" id="Fill-22" fill="#A5D9E4"></path>
            <path d="M15.9141,37.335 L12.9141,37.335 L12.9141,22.625 C12.9141,21.797 13.5861,21.125 14.4141,21.125 C15.2421,21.125 15.9141,21.797 15.9141,22.625 L15.9141,37.335 Z" id="Fill-24" fill="#A5D9E4"></path>
            <path d="M23.1778,37.335 L20.1778,37.335 L20.1778,15.199 C20.1778,14.371 20.8498,13.699 21.6778,13.699 C22.5068,13.699 23.1778,14.371 23.1778,15.199 L23.1778,37.335 Z" id="Fill-26" fill="#A5D9E4"></path>
            <path d="M30.4424,37.335 L27.4424,37.335 L27.4424,20.532 C27.4424,19.704 28.1134,19.032 28.9424,19.032 C29.7704,19.032 30.4424,19.704 30.4424,20.532 L30.4424,37.335 Z" id="Fill-28" fill="#A5D9E4"></path>
            <path d="M37.7061,37.335 L34.7061,37.335 L34.7061,25.981 C34.7061,25.152 35.3781,24.481 36.2061,24.481 C37.0351,24.481 37.7061,25.152 37.7061,25.981 L37.7061,37.335 Z" id="Fill-30" fill="#A5D9E4"></path>
            <path d="M0.5,37.335 L39.856,37.335" id="Stroke-32" stroke="#2F3061" stroke-linecap="round"></path>
        </g>
    </g>
</svg>