<?xml version="1.0" encoding="UTF-8"?>
<svg width="62px" height="62px" viewBox="0 0 62 62" version="1.1" xmlns="http://www.w3.org/2000/svg" xmlns:xlink="http://www.w3.org/1999/xlink">
    <!-- Generator: Sketch 49.3 (51167) - http://www.bohemiancoding.com/sketch -->
    <title>Custom Preset</title>
    <desc>Created with Sketch.</desc>
    <defs></defs>
    <g id="Custom-Preset" stroke="none" stroke-width="1" fill="none" fill-rule="evenodd">
        <g id="Page-1" transform="translate(12.000000, -1.000000)">
            <polygon id="Fill-4" fill="#A5D9E4" points="23.2960628 24.9207973 20.1180328 44.4260345 30.2005254 46.0681207 33.3775148 26.5628836"></polygon>
            <g id="Group-9" transform="translate(24.350203, 15.548731)">
                <path d="M3.58688657,12.2642405 L5.20816055,2.31286492 C5.35696811,1.39504486 4.73572257,0.531336646 3.81894312,0.381488473 C2.90216367,0.2316403 2.03741484,0.853926462 1.88756667,1.77070591 L0.267333303,11.723122" id="Fill-6" fill="#A5D9E4"></path>
                <path d="M3.58688657,12.2642405 L5.20816055,2.31286492 C5.35696811,1.39504486 4.73572257,0.531336646 3.81894312,0.381488473 C2.90216367,0.2316403 2.03741484,0.853926462 1.88756667,1.77070591 L0.267333303,11.723122" id="Stroke-8" stroke="#2F3061" stroke-linecap="round" stroke-linejoin="round"></path>
            </g>
            <g id="Group-13" transform="translate(27.472040, 14.508118)">
                <path d="M3.78512322,13.8464915 L5.63845374,2.46739585 C5.78830192,1.55165702 5.16601576,0.686908186 4.24923631,0.538100626 C3.33141625,0.388252453 2.46770803,1.01053862 2.31890047,1.92731806 L0.465569948,13.3043325" id="Fill-10" fill="#A5D9E4"></path>
                <path d="M3.78512322,13.8464915 L5.63845374,2.46739585 C5.78830192,1.55165702 5.16601576,0.686908186 4.24923631,0.538100626 C3.33141625,0.388252453 2.46770803,1.01053862 2.31890047,1.92731806 L0.465569948,13.3043325" id="Stroke-12" stroke="#2F3061" stroke-linecap="round" stroke-linejoin="round"></path>
            </g>
            <g id="Group-17" transform="translate(29.553265, 16.589343)">
                <path d="M1.7038986,11.7652668 L3.32621319,1.81285071 C3.47502075,0.896071261 4.33872897,0.272744487 5.25550841,0.422592659 C6.17332847,0.57140022 6.79561463,1.43614905 6.64576646,2.3529285 L4.96205574,12.6914118 C4.87776615,13.2065149 5.45842782,13.5655261 5.88299764,13.2606267 L7.37523569,12.1856742 C8.30242126,11.5196823 9.59486175,11.729886 10.2618942,12.656031 C10.9289267,13.5832166 10.718723,14.8746164 9.79153748,15.5426895 C9.79153748,15.5426895 2.03897576,20.1734143 1.52595389,23.3202259 L0.525925462,29.4598386" id="Fill-14" fill="#A5D9E4"></path>
                <path d="M1.7038986,11.7652668 L3.32621319,1.81285071 C3.47502075,0.896071261 4.33872897,0.272744487 5.25550841,0.422592659 C6.17332847,0.57140022 6.79561463,1.43614905 6.64576646,2.3529285 L4.96205574,12.6914118 C4.87776615,13.2065149 5.45842782,13.5655261 5.88299764,13.2606267 L7.37523569,12.1856742 C8.30242126,11.5196823 9.59486175,11.729886 10.2618942,12.656031 C10.9289267,13.5832166 10.718723,14.8746164 9.79153748,15.5426895 C9.79153748,15.5426895 2.03897576,20.1734143 1.52595389,23.3202259 L0.525925462,29.4598386" id="Stroke-16" stroke="#2F3061" stroke-linecap="round" stroke-linejoin="round"></path>
            </g>
            <g id="Group-21" transform="translate(19.147141, 16.589343)">
                <path d="M0.97120347,27.8367956 C0.97120347,27.8367956 1.85988638,21.1997702 1.70691637,19.8605022 C1.50191575,18.070649 1.31876798,15.2464272 1.7433378,12.6376121 L3.53943465,1.61544655 C3.68824221,0.698667105 4.55195043,0.0753403313 5.46872988,0.225188504 C6.38550932,0.373996065 7.0088361,1.23874489 6.85898792,2.15552434 L5.46977049,10.6833422" id="Fill-18" fill="#A5D9E4"></path>
                <path d="M0.97120347,27.8367956 C0.97120347,27.8367956 1.85988638,21.1997702 1.70691637,19.8605022 C1.50191575,18.070649 1.31876798,15.2464272 1.7433378,12.6376121 L3.53943465,1.61544655 C3.68824221,0.698667105 4.55195043,0.0753403313 5.46872988,0.225188504 C6.38550932,0.373996065 7.0088361,1.23874489 6.85898792,2.15552434 L5.46977049,10.6833422" id="Stroke-20" stroke="#2F3061" stroke-linecap="round" stroke-linejoin="round"></path>
            </g>
            <g id="Group-25" transform="translate(32.675102, 29.076691)">
                <path d="M2.76480285,0.766723151 C2.76480285,0.766723151 1.52959604,1.85416302 0.143500438,2.3942408" id="Fill-22" fill="#A5D9E4"></path>
                <path d="M2.76480285,0.766723151 C2.76480285,0.766723151 1.52959604,1.85416302 0.143500438,2.3942408" id="Stroke-24" stroke="#2F3061" stroke-linecap="round" stroke-linejoin="round"></path>
            </g>
            <g id="Group-29" transform="translate(22.268978, 26.995466)">
                <path d="M0.537268136,0.934365794 C0.537268136,0.934365794 5.74241091,0.248602281 10.6187202,2.57645202" id="Fill-26" fill="#A5D9E4"></path>
                <path d="M0.537268136,0.934365794 C0.537268136,0.934365794 5.74241091,0.248602281 10.6187202,2.57645202" id="Stroke-28" stroke="#2F3061" stroke-linecap="round" stroke-linejoin="round"></path>
            </g>
            <g id="Group-33" transform="translate(25.390815, 33.239140)">
                <path d="M0.553501688,4.11208361 C1.00824927,2.52306861 3.29655574,0.791489724 4.4932599,0.0609798814" id="Fill-30" fill="#A5D9E4"></path>
                <path d="M0.553501688,4.11208361 C1.00824927,2.52306861 3.29655574,0.791489724 4.4932599,0.0609798814" id="Stroke-32" stroke="#2F3061" stroke-linecap="round" stroke-linejoin="round"></path>
            </g>
            <polyline id="Stroke-34" stroke="#2F3061" stroke-linecap="round" stroke-linejoin="round" points="11.9549495 25.560982 3.17738465 24.5391007 9.80608507 20.2632247 4.87670455 14.1059217 12.5855605 15.7698608 13.4555124 7.93092825 18.728295 15.9426024"></polyline>
            <polygon id="Fill-36" fill="#E2EFF3" points="16.1621451 29.0638912 13.6292947 44.6137609 23.7117874 46.2558472 26.2435971 30.7059774"></polygon>
            <g id="Group-41" transform="translate(20.187754, 19.711180)">
                <path d="M0.676502063,12.2561237 L2.29777604,2.30370753 C2.4465836,1.38692809 3.31133243,0.764641926 4.22811188,0.914490099 C5.14489133,1.06329766 5.76717749,1.92700588 5.61732931,2.84378532 L3.99605533,12.7972421" id="Fill-38" fill="#E2EFF3"></path>
                <path d="M0.676502063,12.2561237 L2.29777604,2.30370753 C2.4465836,1.38692809 3.31133243,0.764641926 4.22811188,0.914490099 C5.14489133,1.06329766 5.76717749,1.92700588 5.61732931,2.84378532 L3.99605533,12.7972421" id="Stroke-40" stroke="#2F3061" stroke-linecap="round" stroke-linejoin="round"></path>
            </g>
            <g id="Group-45" transform="translate(17.065917, 17.629955)">
                <path d="M0.478265418,13.7967502 L2.33055533,2.41765458 C2.4804035,1.50191575 3.34515233,0.879629586 4.26193178,1.02843715 C5.17871123,1.17828532 5.80099739,2.04199354 5.65218983,2.9598136 L3.79781869,14.3378686" id="Fill-42" fill="#E2EFF3"></path>
                <path d="M0.478265418,13.7967502 L2.33055533,2.41765458 C2.4804035,1.50191575 3.34515233,0.879629586 4.26193178,1.02843715 C5.17871123,1.17828532 5.80099739,2.04199354 5.65218983,2.9598136 L3.79781869,14.3378686" id="Stroke-44" stroke="#2F3061" stroke-linecap="round" stroke-linejoin="round"></path>
            </g>
            <g id="Group-49" transform="translate(7.700406, 18.670568)">
                <path d="M5.98924415,25.9538076 L6.34513357,23.770603 C6.85815543,20.6237913 0.975574041,13.7713593 0.975574041,13.7713593 C0.30854155,12.8441737 0.518745237,11.5527738 1.44593081,10.8857413 C2.37207576,10.2187088 3.66451625,10.4289125 4.33154874,11.3560981 L5.40650126,12.8483361 C5.71140067,13.2718654 6.37635193,13.1157735 6.46064153,12.6006704 L8.14435225,2.2621871 C8.29420042,1.34644827 9.15790864,0.723121495 10.0746881,0.871929055 C10.9925081,1.02177723 11.6137537,1.88652606 11.4649461,2.8033055 L9.84367215,12.7557216" id="Fill-46" fill="#E2EFF3"></path>
                <path d="M5.98924415,25.9538076 L6.34513357,23.770603 C6.85815543,20.6237913 0.975574041,13.7713593 0.975574041,13.7713593 C0.30854155,12.8441737 0.518745237,11.5527738 1.44593081,10.8857413 C2.37207576,10.2187088 3.66451625,10.4289125 4.33154874,11.3560981 L5.40650126,12.8483361 C5.71140067,13.2718654 6.37635193,13.1157735 6.46064153,12.6006704 L8.14435225,2.2621871 C8.29420042,1.34644827 9.15790864,0.723121495 10.0746881,0.871929055 C10.9925081,1.02177723 11.6137537,1.88652606 11.4649461,2.8033055 L9.84367215,12.7557216" id="Stroke-48" stroke="#2F3061" stroke-linecap="round" stroke-linejoin="round"></path>
            </g>
            <g id="Group-53" transform="translate(23.309591, 21.792405)">
                <path d="M0.874634647,10.7154971 L2.26385208,2.18871987 C2.41370025,1.27194043 3.27740847,0.648613653 4.19418792,0.798461826 C5.11096736,0.947269387 5.73325353,1.81201822 5.58340535,2.72879766 L3.78938973,13.7509633 C3.36377929,16.3608189 2.29298923,18.9800401 1.53126102,20.6127608 C0.961005469,21.8344397 0.340800532,24.4547015 0.340800532,24.4547015" id="Fill-50" fill="#E2EFF3"></path>
                <path d="M0.874634647,10.7154971 L2.26385208,2.18871987 C2.41370025,1.27194043 3.27740847,0.648613653 4.19418792,0.798461826 C5.11096736,0.947269387 5.73325353,1.81201822 5.58340535,2.72879766 L3.78938973,13.7509633 C3.36377929,16.3608189 2.29298923,18.9800401 1.53126102,20.6127608 C0.961005469,21.8344397 0.340800532,24.4547015 0.340800532,24.4547015" id="Stroke-52" stroke="#2F3061" stroke-linecap="round" stroke-linejoin="round"></path>
            </g>
            <path d="M16.0280101,32.1319285 C15.9967918,32.3286042 15.8105222,32.4618026 15.614887,32.4305842 C15.4171707,32.3983252 15.2829317,32.2120556 15.3151907,32.0164205 C15.3484903,31.8187042 15.5326787,31.6855058 15.730395,31.7177648 C15.9260301,31.7500237 16.0602691,31.9352527 16.0280101,32.1319285" id="Fill-54" fill="#2F3061"></path>
            <path d="M19.4089595,32.6827246 C19.3777412,32.8794003 19.1914716,33.0125987 18.9947958,32.9803397 C18.7981201,32.9491213 18.6638811,32.7628517 18.6961401,32.5672166 C18.7294397,32.3695003 18.9136281,32.2363019 19.1113444,32.2685609 C19.3069795,32.3008198 19.4412185,32.4860488 19.4089595,32.6827246" id="Fill-56" fill="#2F3061"></path>
            <path d="M22.6994797,33.2182237 C22.6672207,33.4148994 22.4809511,33.5480978 22.285316,33.5168794 C22.0875997,33.4846204 21.9544013,33.2993914 21.9856197,33.1027157 C22.0189193,32.9049993 22.2031076,32.771801 22.400824,32.80406 C22.5974997,32.8363189 22.7306981,33.0225885 22.6994797,33.2182237" id="Fill-58" fill="#2F3061"></path>
            <path d="M26.0805332,33.7690197 C26.0482742,33.9656955 25.8620046,34.0988939 25.6663695,34.0676755 C25.4686531,34.0354165 25.3354548,33.8501875 25.3666731,33.6535118 C25.3999727,33.4557954 25.5841611,33.3225971 25.7818774,33.354856 C25.9785532,33.387115 26.1117515,33.572344 26.0805332,33.7690197" id="Fill-60" fill="#2F3061"></path>
        </g>
    </g>
</svg>