<?xml version="1.0" encoding="UTF-8"?>
<svg width="62px" height="62px" viewBox="0 0 62 62" version="1.1" xmlns="http://www.w3.org/2000/svg" xmlns:xlink="http://www.w3.org/1999/xlink">
    <!-- Generator: Sketch 49.3 (51167) - http://www.bohemiancoding.com/sketch -->
    <title>Custom Preset</title>
    <desc>Created with Sketch.</desc>
    <defs></defs>
    <g id="Custom-Preset" stroke="none" stroke-width="1" fill="none" fill-rule="evenodd">
        <g id="earth" transform="translate(9.000000, 0.000000)">
            <path d="M27.2601,11.5072 C37.8991,15.0842 43.6241,26.6092 40.0471,37.2472 C36.4701,47.8872 24.9461,53.6112 14.3071,50.0352 C3.6671,46.4582 -2.0569,34.9342 1.5191,24.2942 C5.0961,13.6552 16.6201,7.9302 27.2601,11.5072" id="Fill-3" fill="#A5D9E4"></path>
            <path d="M33.93,25.7348 C33.8,25.7708 33.666,25.7648 33.547,25.7248 C33.348,25.6578 33.184,25.4958 33.124,25.2778 L32.474,22.9268 C32.376,22.5788 32.581,22.2168 32.93,22.1208 C33.279,22.0228 33.641,22.2288 33.737,22.5778 L34.387,24.9278 C34.484,25.2768 34.28,25.6388 33.93,25.7348 M29.458,12.3948 L27.829,14.6058 C27.436,15.1408 26.798,15.4408 26.134,15.4028 L23.955,15.2788 C23.781,15.2688 23.607,15.2358 23.441,15.1798 L20.455,14.1758 C20.144,14.0718 19.803,14.2138 19.658,14.5078 L18.452,16.9618 L16.512,16.4198 C16.186,16.3288 15.843,16.5018 15.723,16.8178 L15.1,18.4528 C14.959,18.8208 15.173,19.2288 15.556,19.3228 L16.862,19.6438 C17.198,19.7268 17.553,19.6578 17.833,19.4558 L19.559,18.2128 L22.102,18.9668 C22.646,19.1288 22.844,19.7978 22.48,20.2328 C21.664,21.2108 21.631,21.3058 21.598,21.4048 C21.483,21.7488 21.667,22.1198 22.01,22.2358 C22.318,22.3388 22.648,22.2008 22.796,21.9248 C22.887,21.7968 23.243,21.3638 23.703,20.8168 C23.896,20.5888 24.267,20.6708 24.343,20.9588 L24.422,21.2558 C24.568,21.8048 25.051,22.1978 25.619,22.2288 L26.832,22.2938 C27.17,22.3118 27.497,22.1678 27.711,21.9058 L28.114,21.4128 C28.398,21.0638 28.841,20.8848 29.287,20.9398 L30.054,21.0328 C30.576,21.0958 30.994,21.5648 30.914,22.0848 C30.832,22.6158 30.326,22.9528 29.818,22.8438 L28.074,22.3088 C27.718,22.2008 27.341,22.3888 27.214,22.7378 L27.155,22.9018 C27.107,23.0348 27.139,23.1818 27.237,23.2818 L28.061,24.1238 C28.374,24.4438 28.335,24.9668 27.979,25.2378 C27.783,25.3868 27.525,25.4288 27.291,25.3508 L22.046,23.5878 C21.909,23.5418 21.782,23.4698 21.671,23.3768 L17.853,20.1638 C17.571,19.9248 17.177,19.8708 16.84,20.0218 L11.377,22.4718 C10.942,22.6678 10.647,23.0848 10.607,23.5598 L10.297,27.2878 C10.249,27.8628 10.583,28.4018 11.119,28.6148 L15.731,30.4458 C16.638,30.8058 17.143,31.7768 16.918,32.7268 L15.975,36.7138 C15.904,37.0118 15.886,37.3168 15.924,37.6208 C16.042,38.5798 16.334,40.7648 16.628,41.5868 C17.008,42.6438 18.623,43.2228 19.34,42.9088 L24.207,41.0678 C24.624,40.8848 24.965,40.5628 25.17,40.1568 L26.65,37.2388 L30.804,34.9178 C31.209,34.6908 31.244,34.1478 30.922,33.8598 L30.856,33.8788 C30.575,33.9548 30.278,33.9598 29.995,33.8908 C29.946,33.8798 29.896,33.8658 29.847,33.8488 C29.285,33.6598 28.86,33.1998 28.719,32.6158 L27.64,28.1628 C27.555,27.8098 27.772,27.4568 28.123,27.3708 C28.477,27.2878 28.829,27.5028 28.915,27.8538 L29.994,32.3068 C30.031,32.4618 30.148,32.5788 30.303,32.6168 C30.371,32.6328 30.444,32.6308 30.512,32.6138 L34.217,31.9508 C34.603,31.8808 34.833,31.4808 34.7,31.1128 C34.625,30.9078 34.451,30.7558 34.238,30.7098 L33.555,30.5648 C33.371,30.5258 33.213,30.4098 33.12,30.2468 L31.744,27.8248 C31.567,27.5098 31.676,27.1108 31.992,26.9308 C32.306,26.7518 32.705,26.8628 32.885,27.1768 L34.116,29.3428 L35.227,29.5798 C35.457,29.6278 35.644,29.7978 35.715,30.0228 L35.826,30.3738 L36.91,30.5988 C37.438,30.7088 37.844,31.1298 37.936,31.6598 L38.732,36.2578 C38.789,36.5918 38.974,36.8898 39.247,37.0908 L39.915,37.6118 C39.958,37.4898 40.006,37.3708 40.047,37.2478 C43.369,27.3678 38.666,16.7288 29.458,12.3948" id="Fill-5" fill="#2F3061"></path>
            <path d="M25.7513,43.767 C25.6093,43.72 25.4833,43.624 25.4003,43.488 C25.2123,43.178 25.3103,42.775 25.6193,42.586 L27.9033,41.193 C28.2113,41.004 28.6153,41.102 28.8043,41.412 C28.9923,41.72 28.8953,42.124 28.5863,42.313 L26.3023,43.705 C26.1303,43.811 25.9283,43.827 25.7513,43.767" id="Fill-7" fill="#2F3061"></path>
            <path d="M21.7103,10.4692 L20.6033,11.9312 C20.3853,12.2202 20.4413,12.6312 20.7303,12.8502 C20.7883,12.8942 20.8523,12.9262 20.9173,12.9482 C21.1773,13.0352 21.4743,12.9532 21.6483,12.7232 L23.2603,10.5952 C22.7423,10.5312 22.2263,10.4932 21.7103,10.4692" id="Fill-9" fill="#2F3061"></path>
            <path d="M1.1575,36.0502 L3.3385,31.3462 C3.5095,30.9782 3.5005,30.5492 3.3125,30.1892 L1.0395,25.9722 C0.2055,29.3842 0.2905,32.8382 1.1575,36.0502" id="Fill-11" fill="#2F3061"></path>
            <path d="M27.2601,11.5072 C26.5631,11.2732 25.8631,11.0802 25.1601,10.9252 L24.6061,12.3612 C24.2791,12.7952 24.3641,13.4112 24.7981,13.7382 C24.8851,13.8042 24.9791,13.8532 25.0761,13.8852 C25.4671,14.0172 25.9141,13.8922 26.1751,13.5452 L27.6141,11.6362 C27.4961,11.5942 27.3801,11.5472 27.2601,11.5072" id="Fill-13" fill="#2F3061"></path>
            <path d="M27.1136,11.9408 C16.7306,8.4508 5.4446,14.0568 1.9536,24.4408 C-1.5364,34.8238 4.0696,46.1108 14.4526,49.6008 C24.8356,53.0918 36.1226,47.4848 39.6136,37.1018 C43.1036,26.7188 37.4966,15.4318 27.1136,11.9408 M14.1606,50.4688 C3.2996,46.8178 -2.5664,35.0098 1.0856,24.1488 C4.7366,13.2868 16.5446,7.4208 27.4056,11.0728 C38.2676,14.7248 44.1336,26.5318 40.4816,37.3938 C36.8306,48.2548 25.0226,54.1218 14.1606,50.4688" id="Fill-15" fill="#2F3061"></path>
        </g>
    </g>
</svg>