<?xml version="1.0" encoding="UTF-8"?>
<svg width="62px" height="62px" viewBox="0 0 62 62" version="1.1" xmlns="http://www.w3.org/2000/svg" xmlns:xlink="http://www.w3.org/1999/xlink">
    <!-- Generator: Sketch 49.3 (51167) - http://www.bohemiancoding.com/sketch -->
    <title>Custom Preset</title>
    <desc>Created with Sketch.</desc>
    <defs></defs>
    <g id="Custom-Preset" stroke="none" stroke-width="1" fill="none" fill-rule="evenodd">
        <g id="pompom" transform="translate(12.000000, -1.000000)">
            <path d="M18.8663,5.3291 C18.8663,5.8821 18.4183,6.3291 17.8663,6.3291 C17.3133,6.3291 16.8663,5.8821 16.8663,5.3291 C16.8663,4.7761 17.3133,4.3291 17.8663,4.3291 C18.4183,4.3291 18.8663,4.7761 18.8663,5.3291" id="Fill-4" fill="#A5D9E4"></path>
            <path d="M36.0704,8.9795 C36.6134,9.0825 36.9704,9.6045 36.8684,10.1475 C36.7654,10.6895 36.2434,11.0465 35.7004,10.9445 C35.1574,10.8425 34.8004,10.3195 34.9024,9.7775 C35.0054,9.2345 35.5274,8.8765 36.0704,8.9795" id="Fill-6" fill="#A5D9E4"></path>
            <path d="M45.8058,38.8692 C46.3478,38.9722 46.7048,39.4942 46.6028,40.0372 C46.5008,40.5802 45.9778,40.9372 45.4358,40.8352 C44.8928,40.7322 44.5348,40.2102 44.6378,39.6672 C44.7408,39.1242 45.2628,38.7672 45.8058,38.8692" id="Fill-8" fill="#A5D9E4"></path>
            <path d="M41.2745,30.8194 C41.8175,30.9224 42.1745,31.4444 42.0725,31.9874 C41.9695,32.5304 41.4475,32.8864 40.9045,32.7854 C40.3615,32.6824 40.0045,32.1594 40.1065,31.6174 C40.2095,31.0744 40.7315,30.7164 41.2745,30.8194" id="Fill-10" fill="#A5D9E4"></path>
            <path d="M5.9728,35.709 C6.5158,35.812 6.8728,36.334 6.7708,36.877 C6.6688,37.42 6.1458,37.776 5.6028,37.675 C5.0608,37.572 4.7028,37.049 4.8058,36.507 C4.9078,35.964 5.4308,35.606 5.9728,35.709" id="Fill-12" fill="#A5D9E4"></path>
            <path d="M4.1427,12.0313 C4.6847,12.1343 5.0417,12.6563 4.9397,13.1993 C4.8377,13.7423 4.3147,14.0983 3.7727,13.9973 C3.2297,13.8943 2.8717,13.3723 2.9747,12.8293 C3.0777,12.2863 3.5997,11.9283 4.1427,12.0313" id="Fill-14" fill="#A5D9E4"></path>
            <path d="M31.9191,39.5791 C32.4621,39.6811 32.8181,40.2041 32.7171,40.7471 C32.6141,41.2891 32.0911,41.6461 31.5491,41.5441 C31.0061,41.4421 30.6481,40.9191 30.7511,40.3771 C30.8541,39.8341 31.3761,39.4761 31.9191,39.5791" id="Fill-16" fill="#A5D9E4"></path>
            <path d="M43.8048,19.1885 C44.3478,19.2905 44.7048,19.8135 44.6028,20.3565 C44.4998,20.8985 43.9778,21.2555 43.4348,21.1535 C42.8918,21.0515 42.5348,20.5285 42.6368,19.9855 C42.7398,19.4435 43.2628,19.0855 43.8048,19.1885" id="Fill-18" fill="#A5D9E4"></path>
            <path d="M19.8976,25.4209 L18.4896,30.6069 C18.2386,31.5329 17.2846,32.0799 16.3586,31.8279 C15.4326,31.5769 14.8856,30.6229 15.1366,29.6969 C15.2276,29.3649 15.4066,29.0829 15.6436,28.8669 L19.6176,25.2499 C19.6876,25.1869 19.7946,25.1919 19.8586,25.2619 C19.8996,25.3059 19.9116,25.3669 19.8976,25.4209" id="Fill-20" fill="#2F3061"></path>
            <path d="M20.1778,32.8838 C19.8368,32.6898 19.4418,32.6868 19.1088,32.8348 L18.9068,32.7198 L19.0648,32.4428 C19.3888,31.8738 19.1898,31.1498 18.6198,30.8258 C18.1168,30.5388 17.4928,30.6628 17.1318,31.0898 L17.2898,30.8188 C17.6148,30.2498 17.4148,29.5258 16.8458,29.2018 C16.2778,28.8778 15.5528,29.0768 15.2298,29.6458 L14.7998,30.3828 L14.7848,30.3738 L14.9438,30.0978 C15.2668,29.5288 15.0688,28.8048 14.4988,28.4808 C13.9298,28.1558 13.2058,28.3558 12.8818,28.9248 L12.6478,29.3378 C12.2518,29.0108 11.4148,29.0128 11.4148,29.0128 C10.6118,28.9728 10.2078,29.5138 9.8858,30.3958 C9.8858,30.3958 8.8048,34.1258 9.3408,36.1968 C9.3468,36.2218 9.3488,36.2448 9.3548,36.2698 L9.3588,36.7168 L6.2228,43.7548 L5.7878,44.6218 L10.8688,47.5138 L11.1138,47.6518 C11.1138,47.6518 14.9118,41.0458 15.5888,40.3788 C16.4928,39.4878 18.4298,38.3528 19.3518,36.7338 L20.6218,34.4998 C20.9458,33.9308 20.7468,33.2068 20.1778,32.8838" id="Fill-22" fill="#E2EFF3"></path>
            <path d="M21.0841,33.5039 C20.9751,33.1059 20.7161,32.7739 20.3561,32.5689 C20.0841,32.4139 19.7831,32.3529 19.4901,32.3719 C19.5961,32.0759 19.6111,31.7559 19.5261,31.4459 C19.4171,31.0479 19.1581,30.7159 18.8001,30.5119 C18.4921,30.3369 18.1431,30.2799 17.7981,30.3339 C17.8101,30.1639 17.7981,29.9919 17.7521,29.8219 C17.6431,29.4239 17.3841,29.0919 17.0241,28.8879 C16.4831,28.5789 15.8341,28.6389 15.3581,28.9799 C15.2321,28.6369 14.9991,28.3489 14.6781,28.1659 C13.9361,27.7439 12.9901,28.0049 12.5671,28.7449 L12.5101,28.8479 C12.0451,28.6549 11.5031,28.6429 11.4331,28.6509 C10.3161,28.5969 9.8321,29.4869 9.5391,30.2949 C9.4931,30.4509 8.4361,34.1459 8.9901,36.2879 C9.1671,36.9699 8.8961,37.5939 8.7081,37.9259 L5.5021,44.4839 C5.4141,44.6639 5.4881,44.8799 5.6681,44.9679 C5.7191,44.9929 5.7731,45.0049 5.8261,45.0049 C5.9601,45.0049 6.0891,44.9299 6.1521,44.8019 L9.3481,38.2639 C9.5791,37.8569 9.9321,37.0349 9.6901,36.1069 C9.1861,34.1559 10.2241,30.5319 10.2261,30.5199 C10.5851,29.5349 10.9371,29.3509 11.4161,29.3749 L11.4191,29.3749 C11.5821,29.3749 11.8961,29.4039 12.1471,29.4849 L10.3361,32.6679 C10.2371,32.8409 10.2981,33.0629 10.4721,33.1609 C10.5281,33.1929 10.5901,33.2079 10.6501,33.2079 C10.7761,33.2079 10.8981,33.1429 10.9651,33.0249 L13.1961,29.1039 C13.4211,28.7089 13.9251,28.5699 14.3201,28.7949 C14.5121,28.9029 14.6481,29.0809 14.7071,29.2929 C14.7661,29.5049 14.7371,29.7269 14.6291,29.9179 L13.7351,31.4869 C13.7211,31.5129 13.7171,31.5409 13.7091,31.5679 C13.7041,31.5859 13.6931,31.6039 13.6911,31.6219 C13.6881,31.6489 13.6941,31.6739 13.6961,31.6989 C13.6981,31.7199 13.6951,31.7399 13.7011,31.7599 C13.7071,31.7809 13.7201,31.7989 13.7301,31.8189 C13.7401,31.8409 13.7471,31.8649 13.7621,31.8849 C13.7741,31.9009 13.7941,31.9119 13.8091,31.9269 C13.8281,31.9439 13.8441,31.9649 13.8681,31.9789 C13.8681,31.9799 13.8691,31.9799 13.8701,31.9799 L13.8711,31.9809 C13.8911,31.9919 13.9121,31.9939 13.9331,32.0009 C13.9571,32.0099 13.9801,32.0229 14.0061,32.0249 C14.0191,32.0259 14.0311,32.0229 14.0441,32.0229 C14.0781,32.0239 14.1121,32.0249 14.1451,32.0149 C14.1491,32.0139 14.1521,32.0109 14.1571,32.0089 C14.1961,31.9969 14.2351,31.9799 14.2691,31.9539 C14.2821,31.9429 14.2911,31.9279 14.3041,31.9149 C14.3241,31.8939 14.3471,31.8749 14.3621,31.8489 L14.3641,31.8459 L14.3711,31.8339 L15.5441,29.8249 C15.7681,29.4299 16.2721,29.2919 16.6671,29.5169 C16.8581,29.6249 16.9961,29.8019 17.0541,30.0149 C17.1121,30.2269 17.0841,30.4479 16.9781,30.6369 L16.8221,30.9019 C16.7751,30.9629 16.7281,31.0239 16.6891,31.0909 L15.7961,32.6599 C15.7821,32.6849 15.7791,32.7109 15.7721,32.7359 C15.7661,32.7559 15.7551,32.7749 15.7521,32.7949 C15.7491,32.8209 15.7551,32.8469 15.7571,32.8729 C15.7591,32.8939 15.7571,32.9129 15.7621,32.9329 C15.7681,32.9549 15.7811,32.9749 15.7921,32.9959 C15.8021,33.0169 15.8091,33.0389 15.8221,33.0579 C15.8361,33.0749 15.8551,33.0869 15.8721,33.1019 C15.8911,33.1189 15.9061,33.1389 15.9291,33.1509 C15.9291,33.1519 15.9301,33.1519 15.9311,33.1519 C15.9311,33.1529 15.9321,33.1529 15.9321,33.1529 C15.9341,33.1539 15.9361,33.1539 15.9381,33.1549 C15.9751,33.1759 16.0131,33.1879 16.0531,33.1929 C16.0631,33.1949 16.0721,33.1959 16.0821,33.1969 C16.0911,33.1979 16.1011,33.2009 16.1101,33.2009 C16.1431,33.2009 16.1741,33.1959 16.2051,33.1879 L16.2071,33.1879 C16.2461,33.1759 16.2831,33.1569 16.3161,33.1329 C16.3241,33.1279 16.3321,33.1219 16.3391,33.1159 C16.3711,33.0899 16.4001,33.0599 16.4231,33.0219 L16.4251,33.0189 L16.4271,33.0149 L17.4271,31.3019 C17.5311,31.1879 17.6641,31.1039 17.8151,31.0619 C18.0271,31.0029 18.2491,31.0309 18.4411,31.1409 C18.6331,31.2489 18.7711,31.4259 18.8281,31.6389 C18.8871,31.8509 18.8581,32.0719 18.7501,32.2639 L17.8571,33.8329 C17.8321,33.8769 17.8171,33.9229 17.8121,33.9699 C17.7961,34.1089 17.8621,34.2519 17.9921,34.3259 C17.9931,34.3269 17.9931,34.3269 17.9941,34.3269 C18.0321,34.3489 18.0731,34.3599 18.1141,34.3659 C18.1241,34.3679 18.1331,34.3689 18.1431,34.3699 C18.1511,34.3709 18.1611,34.3739 18.1711,34.3739 C18.2031,34.3739 18.2351,34.3689 18.2671,34.3599 L18.2691,34.3599 C18.3081,34.3489 18.3441,34.3299 18.3771,34.3069 C18.3861,34.3009 18.3941,34.2949 18.4011,34.2879 C18.4341,34.2609 18.4641,34.2299 18.4851,34.1909 L18.8751,33.5069 C19.1001,33.1109 19.6051,32.9739 19.9991,33.1979 C20.1901,33.3069 20.3281,33.4829 20.3861,33.6949 C20.4441,33.9079 20.4161,34.1299 20.3081,34.3209 L19.0361,36.5539 C18.4341,37.6139 17.3241,38.4909 16.4331,39.1959 C16.0191,39.5239 15.6271,39.8329 15.3351,40.1209 C14.6441,40.8029 11.1911,46.7909 10.8001,47.4719 C10.7001,47.6449 10.7601,47.8649 10.9341,47.9649 C10.9901,47.9979 11.0521,48.0139 11.1131,48.0139 C11.2381,48.0139 11.3601,47.9479 11.4281,47.8319 C12.9441,45.1929 15.3721,41.1009 15.8431,40.6369 C16.1071,40.3759 16.4831,40.0789 16.8811,39.7639 C17.8221,39.0209 18.9921,38.0949 19.6651,36.9119 L20.9361,34.6789 C21.1411,34.3199 21.1921,33.9019 21.0841,33.5039" id="Fill-24" fill="#2F3061"></path>
            <path d="M21.0841,33.5039 C20.9751,33.1059 20.7161,32.7739 20.3561,32.5689 C20.0841,32.4139 19.7831,32.3529 19.4901,32.3719 C19.5961,32.0759 19.6111,31.7559 19.5261,31.4459 C19.4171,31.0479 19.1581,30.7159 18.8001,30.5119 C18.4921,30.3369 18.1431,30.2799 17.7981,30.3339 C17.8101,30.1639 17.7981,29.9919 17.7521,29.8219 C17.6431,29.4239 17.3841,29.0919 17.0241,28.8879 C16.4831,28.5789 15.8341,28.6389 15.3581,28.9799 C15.2321,28.6369 14.9991,28.3489 14.6781,28.1659 C13.9361,27.7439 12.9901,28.0049 12.5671,28.7449 L12.5101,28.8479 C12.0451,28.6549 11.5031,28.6429 11.4331,28.6509 C10.3161,28.5969 9.8321,29.4869 9.5391,30.2949 C9.4931,30.4509 8.4361,34.1459 8.9901,36.2879 C9.1671,36.9699 8.8961,37.5939 8.7081,37.9259 L5.5021,44.4839 C5.4141,44.6639 5.4881,44.8799 5.6681,44.9679 C5.7191,44.9929 5.7731,45.0049 5.8261,45.0049 C5.9601,45.0049 6.0891,44.9299 6.1521,44.8019 L9.3481,38.2639 C9.5791,37.8569 9.9321,37.0349 9.6901,36.1069 C9.1861,34.1559 10.2241,30.5319 10.2261,30.5199 C10.5851,29.5349 10.9371,29.3509 11.4161,29.3749 L11.4191,29.3749 C11.5821,29.3749 11.8961,29.4039 12.1471,29.4849 L10.3361,32.6679 C10.2371,32.8409 10.2981,33.0629 10.4721,33.1609 C10.5281,33.1929 10.5901,33.2079 10.6501,33.2079 C10.7761,33.2079 10.8981,33.1429 10.9651,33.0249 L13.1961,29.1039 C13.4211,28.7089 13.9251,28.5699 14.3201,28.7949 C14.5121,28.9029 14.6481,29.0809 14.7071,29.2929 C14.7661,29.5049 14.7371,29.7269 14.6291,29.9179 L13.7351,31.4869 C13.7211,31.5129 13.7171,31.5409 13.7091,31.5679 C13.7041,31.5859 13.6931,31.6039 13.6911,31.6219 C13.6881,31.6489 13.6941,31.6739 13.6961,31.6989 C13.6981,31.7199 13.6951,31.7399 13.7011,31.7599 C13.7071,31.7809 13.7201,31.7989 13.7301,31.8189 C13.7401,31.8409 13.7471,31.8649 13.7621,31.8849 C13.7741,31.9009 13.7941,31.9119 13.8091,31.9269 C13.8281,31.9439 13.8441,31.9649 13.8681,31.9789 C13.8681,31.9799 13.8691,31.9799 13.8701,31.9799 L13.8711,31.9809 C13.8911,31.9919 13.9121,31.9939 13.9331,32.0009 C13.9571,32.0099 13.9801,32.0229 14.0061,32.0249 C14.0191,32.0259 14.0311,32.0229 14.0441,32.0229 C14.0781,32.0239 14.1121,32.0249 14.1451,32.0149 C14.1491,32.0139 14.1521,32.0109 14.1571,32.0089 C14.1961,31.9969 14.2351,31.9799 14.2691,31.9539 C14.2821,31.9429 14.2911,31.9279 14.3041,31.9149 C14.3241,31.8939 14.3471,31.8749 14.3621,31.8489 L14.3641,31.8459 L14.3711,31.8339 L15.5441,29.8249 C15.7681,29.4299 16.2721,29.2919 16.6671,29.5169 C16.8581,29.6249 16.9961,29.8019 17.0541,30.0149 C17.1121,30.2269 17.0841,30.4479 16.9781,30.6369 L16.8221,30.9019 C16.7751,30.9629 16.7281,31.0239 16.6891,31.0909 L15.7961,32.6599 C15.7821,32.6849 15.7791,32.7109 15.7721,32.7359 C15.7661,32.7559 15.7551,32.7749 15.7521,32.7949 C15.7491,32.8209 15.7551,32.8469 15.7571,32.8729 C15.7591,32.8939 15.7571,32.9129 15.7621,32.9329 C15.7681,32.9549 15.7811,32.9749 15.7921,32.9959 C15.8021,33.0169 15.8091,33.0389 15.8221,33.0579 C15.8361,33.0749 15.8551,33.0869 15.8721,33.1019 C15.8911,33.1189 15.9061,33.1389 15.9291,33.1509 C15.9291,33.1519 15.9301,33.1519 15.9311,33.1519 C15.9311,33.1529 15.9321,33.1529 15.9321,33.1529 C15.9341,33.1539 15.9361,33.1539 15.9381,33.1549 C15.9751,33.1759 16.0131,33.1879 16.0531,33.1929 C16.0631,33.1949 16.0721,33.1959 16.0821,33.1969 C16.0911,33.1979 16.1011,33.2009 16.1101,33.2009 C16.1431,33.2009 16.1741,33.1959 16.2051,33.1879 L16.2071,33.1879 C16.2461,33.1759 16.2831,33.1569 16.3161,33.1329 C16.3241,33.1279 16.3321,33.1219 16.3391,33.1159 C16.3711,33.0899 16.4001,33.0599 16.4231,33.0219 L16.4251,33.0189 L16.4271,33.0149 L17.4271,31.3019 C17.5311,31.1879 17.6641,31.1039 17.8151,31.0619 C18.0271,31.0029 18.2491,31.0309 18.4411,31.1409 C18.6331,31.2489 18.7711,31.4259 18.8281,31.6389 C18.8871,31.8509 18.8581,32.0719 18.7501,32.2639 L17.8571,33.8329 C17.8321,33.8769 17.8171,33.9229 17.8121,33.9699 C17.7961,34.1089 17.8621,34.2519 17.9921,34.3259 C17.9931,34.3269 17.9931,34.3269 17.9941,34.3269 C18.0321,34.3489 18.0731,34.3599 18.1141,34.3659 C18.1241,34.3679 18.1331,34.3689 18.1431,34.3699 C18.1511,34.3709 18.1611,34.3739 18.1711,34.3739 C18.2031,34.3739 18.2351,34.3689 18.2671,34.3599 L18.2691,34.3599 C18.3081,34.3489 18.3441,34.3299 18.3771,34.3069 C18.3861,34.3009 18.3941,34.2949 18.4011,34.2879 C18.4341,34.2609 18.4641,34.2299 18.4851,34.1909 L18.8751,33.5069 C19.1001,33.1109 19.6051,32.9739 19.9991,33.1979 C20.1901,33.3069 20.3281,33.4829 20.3861,33.6949 C20.4441,33.9079 20.4161,34.1299 20.3081,34.3209 L19.0361,36.5539 C18.4341,37.6139 17.3241,38.4909 16.4331,39.1959 C16.0191,39.5239 15.6271,39.8329 15.3351,40.1209 C14.6441,40.8029 11.1911,46.7909 10.8001,47.4719 C10.7001,47.6449 10.7601,47.8649 10.9341,47.9649 C10.9901,47.9979 11.0521,48.0139 11.1131,48.0139 C11.2381,48.0139 11.3601,47.9479 11.4281,47.8319 C12.9441,45.1929 15.3721,41.1009 15.8431,40.6369 C16.1071,40.3759 16.4831,40.0789 16.8811,39.7639 C17.8221,39.0209 18.9921,38.0949 19.6651,36.9119 L20.9361,34.6789 C21.1411,34.3199 21.1921,33.9019 21.0841,33.5039 Z" id="Stroke-26" stroke="#2F3061" stroke-width="0.25"></path>
            <path d="M19.3566,25.2862 C19.9576,26.3252 20.4026,27.5222 20.6806,28.6972 C20.9586,29.8822 21.1126,31.0752 21.0796,32.2552 C21.0406,33.4322 20.9226,34.5852 20.6026,35.6932 C20.4906,36.2502 20.2586,36.7892 20.0846,37.3232 C19.8856,37.8542 19.6216,38.3692 19.4016,38.8822 L19.3156,39.0822 C19.2736,39.1812 19.2396,39.2832 19.2106,39.3892 C20.8696,39.7242 22.5026,40.1342 24.1426,40.5182 C24.1476,40.4922 24.1546,40.4672 24.1586,40.4402 C24.2666,39.7132 24.4076,39.0052 24.4726,38.2802 C24.5136,37.5502 24.5996,36.8382 24.5586,36.1092 C24.5696,34.6672 24.3356,33.2332 24.0026,31.8652 C23.6656,30.4932 23.1216,29.1922 22.4666,27.9872 C21.7986,26.7792 21.0256,25.6832 20.0346,24.7042 C19.8946,24.5662 19.6736,24.5322 19.4966,24.6362 C19.2826,24.7602 19.2106,25.0322 19.3336,25.2462 L19.3566,25.2862 Z" id="Fill-28" fill="#A5D9E4"></path>
            <path d="M24.2462,36.459 C24.2402,37.026 24.1652,37.601 24.1332,38.157 L24.1202,38.374 C24.1132,38.515 24.1222,38.658 24.1402,38.803 C25.7852,38.436 27.4582,38.206 29.1082,37.864 C28.9772,37.192 28.8712,36.526 28.6992,35.87 C28.4892,35.168 28.3282,34.47 28.0422,33.798 C27.5632,32.438 26.8552,31.169 26.0782,29.995 C25.2952,28.819 24.3422,27.78 23.3172,26.869 C22.2792,25.959 21.1802,25.191 19.9152,24.606 C19.7372,24.524 19.5182,24.567 19.3862,24.725 C19.2262,24.913 19.2512,25.195 19.4402,25.355 L19.4752,25.385 C20.3932,26.157 21.2182,27.133 21.8792,28.143 C22.5412,29.163 23.0932,30.233 23.4612,31.355 C23.8242,32.475 24.1052,33.599 24.1812,34.75 C24.2632,35.312 24.2282,35.897 24.2462,36.459" id="Fill-30" fill="#2F3061"></path>
            <path d="M28.381,33.752 C28.598,34.276 28.754,34.834 28.943,35.358 L29.017,35.564 C29.048,35.649 29.086,35.734 29.128,35.817 C30.5,34.841 31.852,33.836 33.175,32.793 C32.874,32.341 32.576,31.891 32.245,31.463 C31.777,30.9 31.355,30.32 30.827,29.815 C29.854,28.753 28.704,27.862 27.529,27.089 C26.347,26.315 25.063,25.733 23.763,25.297 C22.45,24.867 21.138,24.593 19.745,24.552 C19.549,24.546 19.364,24.671 19.305,24.868 C19.233,25.104 19.365,25.354 19.602,25.426 L19.646,25.439 C20.793,25.79 21.935,26.363 22.94,27.033 C23.949,27.711 24.876,28.48 25.654,29.366 C26.429,30.254 27.129,31.177 27.65,32.207 C27.946,32.69 28.144,33.243 28.381,33.752" id="Fill-32" fill="#A5D9E4"></path>
            <path d="M31.9874,31.2539 C32.0684,31.3479 32.1564,31.4369 32.2484,31.5229 C33.5264,29.5689 34.9284,27.6959 36.0524,25.6449 C35.4614,25.3299 34.8844,25.0099 34.2794,24.7399 C33.5664,24.4489 32.8914,24.1279 32.1554,23.9209 C30.7334,23.4259 29.2374,23.1749 27.7864,23.0499 C26.3274,22.9269 24.8784,23.0319 23.4974,23.2779 C22.1084,23.5339 20.8024,23.9349 19.5494,24.5729 C19.3914,24.6539 19.2904,24.8229 19.3054,25.0109 C19.3264,25.2579 19.5434,25.4419 19.7904,25.4219 L19.8414,25.4179 C21.0494,25.3189 22.3244,25.4309 23.5004,25.6849 C24.6834,25.9429 25.8104,26.3169 26.8374,26.8519 C27.8594,27.3909 28.8124,27.9829 29.6394,28.7339 C30.0714,29.0659 30.4424,29.5009 30.8274,29.8749 C31.2014,30.2729 31.5344,30.7239 31.8794,31.1259 L31.9874,31.2539 Z" id="Fill-34" fill="#2F3061"></path>
            <path d="M32.2452,18.3018 C31.6552,18.3698 31.0732,18.4338 30.4962,18.5178 C29.8592,18.6438 29.2392,18.7338 28.6182,18.8988 C27.9972,19.0608 27.3882,19.2128 26.7872,19.4348 C26.1872,19.6238 25.6012,19.8818 25.0282,20.1288 C23.8892,20.6618 22.8122,21.2968 21.8492,22.0538 C20.8862,22.8218 20.0402,23.6518 19.3612,24.6988 C19.2722,24.8378 19.2632,25.0218 19.3522,25.1728 C19.4792,25.3858 19.7562,25.4558 19.9692,25.3288 L20.0292,25.2918 C20.8922,24.7778 21.9272,24.4208 22.9172,24.2098 C23.9192,23.9968 24.9312,23.9258 25.9192,23.9458 C26.4192,23.9738 26.9032,23.9908 27.3942,24.0708 C27.8782,24.1178 28.3642,24.2288 28.8372,24.3248 C29.3092,24.4188 29.7852,24.5808 30.2442,24.6998 C30.7082,24.8538 31.1672,25.0268 31.6152,25.1838 L31.6522,25.1978 C32.0092,25.3208 32.3892,25.3858 32.7802,25.3888 C32.5552,23.0308 32.4212,20.6648 32.2452,18.3018" id="Fill-36" fill="#A5D9E4"></path>
            <path d="M26.465,13.1104 C26.414,13.0904 26.368,13.0664 26.324,13.0404 C25.584,13.9454 24.868,14.8544 24.204,15.7964 C23.526,16.7324 22.902,17.7064 22.306,18.6774 C21.715,19.6564 21.168,20.6534 20.664,21.6634 C20.161,22.6774 19.704,23.6884 19.315,24.7624 C19.258,24.9194 19.29,25.1014 19.412,25.2304 C19.584,25.4134 19.873,25.4214 20.056,25.2484 L20.076,25.2284 C20.839,24.5074 21.68,23.8234 22.526,23.1874 C23.375,22.5504 24.245,21.9524 25.132,21.3934 C26.025,20.8404 26.916,20.3104 27.835,19.8364 C28.744,19.3494 29.675,18.9174 30.6,18.5054 C31.087,18.2854 31.549,17.9454 31.91,17.5034 C32.18,17.1734 32.377,16.8104 32.511,16.4314 C30.591,15.1534 28.634,13.9364 26.465,13.1104" id="Fill-38" fill="#2F3061"></path>
            <path d="M24.9405,9.7647 C23.0105,11.1857 21.0095,12.4957 18.9135,13.6607 C19.0295,13.9117 19.1455,14.1657 19.2455,14.4247 C19.3965,14.8637 19.5885,15.3127 19.6995,15.7707 C19.9865,16.6917 20.1295,17.6477 20.2255,18.6407 C20.3115,19.6347 20.2715,20.6517 20.1365,21.6807 C20.0005,22.7017 19.7405,23.7637 19.3475,24.7147 L19.3275,24.7647 C19.2635,24.9187 19.2885,25.1017 19.4055,25.2357 C19.5705,25.4227 19.8555,25.4407 20.0435,25.2767 C20.9525,24.4767 21.6925,23.5777 22.3695,22.5777 C23.0345,21.5797 23.6255,20.4967 24.0815,19.3387 C24.5285,18.1837 24.9175,16.9607 25.1295,15.6997 C25.2695,15.0657 25.3195,14.4307 25.3995,13.7807 C25.4615,13.1327 25.4675,12.4877 25.4955,11.8257 C25.5155,11.3067 25.4235,10.7587 25.2035,10.2507 C25.1275,10.0787 25.0385,9.9187 24.9405,9.7647" id="Fill-40" fill="#A5D9E4"></path>
            <path d="M20.5929,18.3233 C20.4109,17.1843 20.1099,16.0843 19.7809,14.9813 L19.2209,13.3613 L18.5829,11.7723 C18.5359,11.6563 18.4779,11.5423 18.4119,11.4293 C17.5579,11.9193 16.8059,12.5423 16.0199,13.1423 C15.4579,13.5713 14.8629,13.9513 14.2699,14.3353 C14.2769,14.3443 14.2809,14.3553 14.2889,14.3643 L14.3309,14.4133 L15.2989,15.5513 L16.2089,16.7303 C16.7749,17.5383 17.3349,18.3673 17.7889,19.2413 C18.2639,20.1113 18.6589,21.0203 18.9359,21.9673 C19.0729,22.4393 19.1839,22.9223 19.2479,23.4083 C19.3199,23.8843 19.3289,24.4173 19.2809,24.8273 L19.2729,24.9113 C19.2519,25.0893 19.3419,25.2693 19.5109,25.3563 C19.7289,25.4693 19.9969,25.3833 20.1099,25.1643 C20.2719,24.8483 20.3499,24.6023 20.4469,24.3143 C20.5299,24.0363 20.5999,23.7553 20.6539,23.4713 C20.7649,22.9053 20.8219,22.3313 20.8449,21.7563 C20.8919,20.6043 20.7909,19.4513 20.5929,18.3233" id="Fill-42" fill="#2F3061"></path>
            <path d="M20.1017,24.0664 C20.0627,23.7794 20.0117,23.4934 19.9447,23.2124 C19.8127,22.6504 19.6307,22.1034 19.4147,21.5694 C18.9857,20.5004 18.4197,19.4904 17.7777,18.5434 C17.1457,17.5784 16.4177,16.6984 15.6667,15.8274 L14.4917,14.5804 L13.2577,13.3914 C13.2417,13.3754 13.2197,13.3624 13.2027,13.3454 C12.5887,14.1284 11.9497,14.8894 11.3667,15.6944 C10.9607,16.2534 10.6077,16.8434 10.2547,17.4364 C10.3047,17.4634 10.3527,17.4924 10.4047,17.5164 L10.4627,17.5444 L11.8117,18.1844 L13.1267,18.8874 C13.9727,19.3914 14.8247,19.9184 15.5967,20.5294 C16.3857,21.1284 17.1207,21.7954 17.7607,22.5454 C18.0807,22.9194 18.3777,23.3144 18.6357,23.7314 C18.8967,24.1354 19.1237,24.6184 19.2487,25.0114 L19.2747,25.0914 C19.3297,25.2624 19.4857,25.3904 19.6737,25.4004 C19.9197,25.4134 20.1287,25.2244 20.1417,24.9794 C20.1617,24.6254 20.1307,24.3684 20.1017,24.0664" id="Fill-44" fill="#A5D9E4"></path>
            <path d="M20.1026,24.8116 C19.9856,24.4766 19.8596,24.2496 19.7166,23.9816 C19.5726,23.7306 19.4166,23.4856 19.2486,23.2516 C18.9126,22.7826 18.5356,22.3446 18.1326,21.9336 C17.3286,21.1086 16.4216,20.3886 15.4666,19.7566 C14.5156,19.1056 13.5086,18.5686 12.4826,18.0486 L10.9196,17.3416 L9.3286,16.7116 C9.2006,16.6626 9.0636,16.6226 8.9226,16.5916 C8.7386,17.6286 8.4366,18.6326 8.2556,19.6746 C8.1466,20.3066 8.0806,20.9466 8.0216,21.5876 C8.0996,21.5996 8.1776,21.6086 8.2576,21.6126 L8.3226,21.6166 L9.8136,21.6956 L11.2966,21.8446 C12.2716,21.9906 13.2586,22.1526 14.2066,22.4236 C15.1636,22.6776 16.0966,23.0156 16.9736,23.4646 C17.4126,23.6896 17.8366,23.9416 18.2346,24.2296 C18.6296,24.5046 19.0236,24.8636 19.2896,25.1796 L19.3426,25.2456 C19.4576,25.3816 19.6506,25.4406 19.8306,25.3776 C20.0616,25.2966 20.1836,25.0426 20.1026,24.8116" id="Fill-46" fill="#2F3061"></path>
            <path d="M19.9825,24.6534 C19.5245,24.1764 19.0735,23.8574 18.5645,23.5494 C18.0625,23.2464 17.5355,22.9904 16.9935,22.7674 C15.9085,22.3214 14.7685,22.0144 13.6195,21.8094 C12.4625,21.5854 11.3035,21.4894 10.1295,21.4194 C9.5515,21.4074 8.9655,21.3904 8.3785,21.3894 L6.6315,21.4444 C6.3245,21.4554 6.0065,21.5124 5.7005,21.6174 C5.9595,22.8424 6.0565,24.0914 6.3065,25.3224 C6.4695,26.1294 6.6735,26.9274 6.8825,27.7244 C7.2855,27.7054 7.6905,27.6084 8.0775,27.4244 L8.1155,27.4064 L9.4545,26.7714 L10.8205,26.2004 C11.7385,25.8664 12.6805,25.5404 13.6345,25.3294 C14.5925,25.0964 15.5685,24.9504 16.5505,24.9284 C17.0425,24.9184 17.5355,24.9374 18.0225,25.0014 C18.5025,25.0554 19.0185,25.1864 19.4085,25.3384 L19.5035,25.3744 C19.6585,25.4344 19.8415,25.4044 19.9705,25.2804 C20.1465,25.1114 20.1525,24.8304 19.9825,24.6534" id="Fill-48" fill="#A5D9E4"></path>
            <path d="M19.8087,24.5635 C18.9417,24.1535 18.0807,23.9115 17.1617,23.7315 C16.2477,23.5565 15.3077,23.4755 14.3517,23.4635 C13.4037,23.4725 12.4317,23.5335 11.4747,23.6915 C10.9877,23.7525 10.5227,23.8715 10.0367,23.9665 C9.5607,24.0785 9.0907,24.2125 8.6107,24.3425 L8.5607,24.3565 C8.2067,24.4535 7.8697,24.6165 7.5597,24.8365 C8.8747,26.4955 10.2187,28.1295 11.5147,29.8025 C11.5587,29.7635 11.6037,29.7265 11.6467,29.6845 C11.9027,29.4305 12.1607,29.1595 12.4297,28.9055 C12.7047,28.6685 12.9777,28.3965 13.2727,28.1755 C13.8527,27.6985 14.4797,27.2855 15.1437,26.8925 C15.8107,26.5215 16.5197,26.1905 17.2667,25.9345 C18.0057,25.6805 18.8217,25.4885 19.5827,25.4275 L19.6517,25.4225 C19.8067,25.4095 19.9517,25.3165 20.0237,25.1655 C20.1297,24.9395 20.0347,24.6695 19.8087,24.5635" id="Fill-50" fill="#2F3061"></path>
            <path d="M19.3566,25.2862 C20.0386,26.2642 20.5816,27.4252 20.9616,28.5852 C21.3426,29.7562 21.6066,30.9602 21.6796,32.1752 C21.7476,33.3872 21.7346,34.6012 21.5066,35.7882 C21.4406,36.3862 21.2526,36.9662 21.1216,37.5492 C20.9956,38.0112 20.8276,38.4632 20.6696,38.9142 C20.7196,38.9322 20.7696,38.9572 20.8196,38.9912 C21.4966,39.4442 22.2836,39.6232 23.0536,39.8522 C23.1886,39.2522 23.3406,38.6602 23.4366,38.0552 C23.5186,37.3722 23.6496,36.7022 23.6546,36.0142 C23.7586,34.6512 23.6276,33.2782 23.4016,31.9452 C23.1706,30.6082 22.7366,29.3182 22.1846,28.0992 C21.6206,26.8762 20.9456,25.7452 20.0346,24.7042 C19.8866,24.5372 19.6316,24.5022 19.4446,24.6332 C19.2426,24.7732 19.1926,25.0512 19.3336,25.2532 L19.3566,25.2862 Z" id="Fill-52" fill="#2F3061"></path>
            <path d="M25.5343,34.3692 L25.6853,35.2082 C25.7513,35.7012 25.7903,36.1982 25.8383,36.6912 C25.8433,36.6912 25.8483,36.6882 25.8533,36.6882 C26.6463,36.6402 27.6263,36.6112 28.3423,36.2332 C28.2353,35.7272 28.1343,35.2232 28.0063,34.7232 L27.7263,33.7982 C27.6373,33.4892 27.5393,33.1832 27.4113,32.8852 L27.0533,31.9872 C26.9293,31.6912 26.7693,31.4072 26.6303,31.1182 C26.3613,30.5332 25.9933,29.9972 25.6613,29.4502 C24.9333,28.3892 24.0823,27.4192 23.1143,26.5882 C22.1383,25.7582 21.0973,25.0602 19.8583,24.5802 C19.6513,24.4992 19.4113,24.5852 19.3043,24.7872 C19.1883,25.0042 19.2723,25.2732 19.4893,25.3892 L19.5323,25.4112 C20.5043,25.9272 21.4343,26.7002 22.2063,27.5382 C22.9853,28.3852 23.6383,29.3352 24.1713,30.3432 C24.4063,30.8642 24.6763,31.3632 24.8493,31.9092 C24.9423,32.1792 25.0543,32.4382 25.1323,32.7132 L25.3523,33.5372 C25.4353,33.8072 25.4893,34.0872 25.5343,34.3692" id="Fill-54" fill="#A5D9E4"></path>
            <path d="M28.6124,32.5244 C28.8744,32.3434 29.1674,32.1974 29.3854,32.0714 C29.7084,31.8844 30.0354,31.7084 30.3604,31.5264 C30.4814,31.4584 30.6034,31.3914 30.7214,31.3194 C30.7374,31.3094 30.7644,31.2914 30.7924,31.2704 L30.0824,30.2694 C29.7054,29.8174 29.3434,29.3584 28.9534,28.9214 L28.3394,28.2884 L28.0324,27.9734 L27.6994,27.6804 L27.0334,27.1004 L26.3194,26.5744 C25.3514,25.8984 24.3004,25.3304 23.1744,24.9624 C22.6094,24.7854 22.0374,24.6354 21.4474,24.5674 C20.8504,24.4954 20.2874,24.4634 19.6374,24.5524 C19.4204,24.5824 19.2524,24.7694 19.2534,24.9954 C19.2534,25.2414 19.4534,25.4394 19.6994,25.4384 L19.7544,25.4384 C20.2074,25.4364 20.7544,25.5224 21.2414,25.6524 C21.7424,25.7754 22.2254,25.9714 22.6924,26.1874 C23.6274,26.6284 24.4724,27.2404 25.2364,27.9334 L25.7984,28.4664 L26.3134,29.0504 L26.5714,29.3394 L26.8054,29.6534 L27.2724,30.2774 C27.5674,30.7074 27.8374,31.1584 28.1174,31.5944 L28.6124,32.5244 Z" id="Fill-56" fill="#2F3061"></path>
            <path d="M31.5089,28.0196 C31.7959,27.5756 32.1999,27.1416 32.3969,26.6466 C32.4049,26.6266 32.4149,26.6106 32.4249,26.5926 C31.5079,26.0986 30.5759,25.6406 29.5979,25.3046 C28.5289,24.9026 27.4159,24.6316 26.3039,24.4386 C25.1919,24.2436 24.0649,24.1666 22.9469,24.1796 C21.8219,24.1966 20.7309,24.2946 19.6059,24.5576 C19.3909,24.6086 19.2399,24.8106 19.2629,25.0366 C19.2869,25.2816 19.5059,25.4606 19.7509,25.4366 L19.7849,25.4326 C20.7829,25.3336 21.8579,25.3706 22.8819,25.4936 C23.9129,25.6176 24.9319,25.8226 25.9119,26.1306 C26.8919,26.4376 27.8469,26.8066 28.7409,27.2876 C29.5489,27.6856 30.2959,28.1856 31.0189,28.7056 C31.1899,28.4816 31.3569,28.2556 31.5089,28.0196" id="Fill-58" fill="#E2EFF3"></path>
            <path d="M31.1124,22.1055 C31.1184,22.0855 31.1304,22.0735 31.1364,22.0545 L29.8394,21.7705 C29.3024,21.6905 28.7684,21.6135 28.2324,21.5515 C27.1474,21.4835 26.0574,21.4425 24.9694,21.6245 C23.8874,21.7845 22.8144,22.0875 21.8394,22.6005 C21.3554,22.8625 20.8844,23.1495 20.4664,23.5085 C20.0404,23.8695 19.6684,24.2345 19.3264,24.7445 C19.2054,24.9235 19.2314,25.1705 19.3964,25.3215 C19.5784,25.4865 19.8594,25.4725 20.0244,25.2915 L20.0644,25.2475 C20.3354,24.9495 20.7294,24.6365 21.1174,24.4015 C21.5084,24.1495 21.9394,23.9645 22.3734,23.8025 C23.2484,23.4895 24.1814,23.3625 25.1114,23.3555 C26.0424,23.3275 26.9804,23.4995 27.8984,23.6845 C28.3574,23.8055 28.8134,23.9385 29.2664,24.0705 L30.4034,24.4915 C30.5644,23.6735 30.8824,22.9125 31.1124,22.1055" id="Fill-60" fill="#2F3061"></path>
            <path d="M28.4156206,16.7521617 C27.5076206,17.1501617 26.6186206,17.5871617 25.8146206,18.1561617 C25.3526206,18.4411617 24.9436206,18.7981617 24.5156206,19.1241617 C24.1166206,19.4871617 23.7046206,19.8321617 23.3416206,20.2271617 C22.5926206,20.9921617 21.9176206,21.8201617 21.3326206,22.7051617 C20.7446206,23.5941617 20.2386206,24.5031617 19.8286206,25.5181617 C19.7436206,25.7311617 19.8326206,25.9781617 20.0406206,26.0831617 C20.2616206,26.1941617 20.5286206,26.1061617 20.6406206,25.8871617 L20.6546206,25.8581617 C21.0866206,25.0041617 21.6506206,24.1511617 22.2636206,23.3811617 C22.8766206,22.6021617 23.5666206,21.8881617 24.3076206,21.2471617 C24.6676206,20.9141617 25.0706206,20.6341617 25.4546206,20.3361617 C25.8666206,20.0771617 26.2566206,19.7861617 26.6896206,19.5681617 C27.5086206,19.0831617 28.3996206,18.7531617 29.2866206,18.4511617 C29.0276206,17.8671617 28.7626206,17.2891617 28.4156206,16.7521617" id="Fill-62" fill="#E2EFF3" transform="translate(24.541624, 21.441676) rotate(8.000000) translate(-24.541624, -21.441676) "></path>
            <path d="M21.0802,13.7071 C20.3832,13.8301 19.6862,13.9621 18.9942,14.1141 C19.1972,14.8941 19.3822,15.6841 19.5022,16.4851 C19.6622,17.4031 19.7382,18.3351 19.7852,19.2701 C19.8272,20.2071 19.8012,21.1471 19.7242,22.0841 C19.6432,23.0151 19.5042,23.9721 19.2752,24.8451 L19.2672,24.8751 C19.2112,25.0921 19.3252,25.3201 19.5392,25.4031 C19.7682,25.4911 20.0272,25.3771 20.1162,25.1461 C20.4872,24.1831 20.7262,23.2371 20.9232,22.2571 C21.1132,21.2811 21.2502,20.2921 21.3162,19.2961 C21.3762,18.3011 21.4042,17.2971 21.3422,16.2961 C21.3072,15.4301 21.2052,14.5681 21.0802,13.7071" id="Fill-64" fill="#E2EFF3"></path>
            <path d="M20.2198,18.6582 C19.9598,17.5992 19.6308,16.5372 19.1388,15.5502 C18.9248,15.0372 18.6268,14.5742 18.3618,14.0862 C18.1858,13.7892 17.9918,13.5032 17.7958,13.2182 C17.3708,13.4872 16.9268,13.7242 16.5108,14.0122 C16.2338,14.2032 15.9668,14.4102 15.7028,14.6222 C15.9438,14.8872 16.1888,15.1522 16.4108,15.4322 C16.6898,15.8152 17.0088,16.1792 17.2478,16.5922 C17.7918,17.3822 18.1958,18.2542 18.5538,19.1492 C18.9028,20.0512 19.1258,21.0022 19.2578,21.9702 C19.3868,22.9292 19.4048,23.9542 19.2648,24.8782 L19.2578,24.9202 C19.2248,25.1372 19.3558,25.3492 19.5728,25.4142 C19.8078,25.4842 20.0558,25.3492 20.1258,25.1132 C20.4478,24.0332 20.5598,22.9832 20.5718,21.8952 C20.5738,20.8152 20.4708,19.7232 20.2198,18.6582" id="Fill-66" fill="#A5D9E4"></path>
            <path d="M20.086,22.1075 C19.88,21.1365 19.495,20.2045 18.995,19.3385 L18.594,18.7075 C18.459,18.4955 18.296,18.3095 18.146,18.1095 C17.852,17.7005 17.497,17.3585 17.158,16.9905 C16.812,16.6335 16.429,16.3255 16.061,15.9885 L15.297,15.4145 C15.01,15.8655 14.708,16.3145 14.385,16.7255 C14.181,16.9845 13.931,17.1855 13.679,17.3825 L14.69,17.9225 C15.034,18.1555 15.406,18.3665 15.739,18.6185 C16.063,18.8785 16.414,19.1205 16.702,19.4175 C16.85,19.5625 17.016,19.6965 17.151,19.8525 L17.564,20.3215 C18.083,20.9675 18.523,21.6865 18.821,22.4705 C18.899,22.6665 18.97,22.8645 19.021,23.0685 C19.085,23.2695 19.123,23.4755 19.166,23.6835 C19.238,24.0885 19.277,24.5415 19.257,24.9095 L19.254,24.9665 C19.241,25.1825 19.389,25.3805 19.607,25.4265 C19.848,25.4765 20.083,25.3225 20.134,25.0825 C20.349,24.0515 20.286,23.0875 20.086,22.1075" id="Fill-68" fill="#2F3061"></path>
            <path d="M20.1036,24.8135 C19.6646,23.7755 19.0846,22.8925 18.4026,22.0445 C17.7186,21.2095 16.9456,20.4315 16.0746,19.7685 C15.2016,19.1155 14.2726,18.5035 13.2646,18.0545 C12.7736,17.7945 12.2496,17.6265 11.7346,17.4175 C11.3436,17.2765 10.9456,17.1635 10.5456,17.0465 C10.5456,17.0485 10.5456,17.0495 10.5446,17.0515 C10.3056,17.8615 10.1606,18.6895 10.0186,19.5195 C10.3746,19.5725 10.7326,19.6215 11.0836,19.6965 C11.5416,19.8155 12.0206,19.8945 12.4656,20.0605 C13.3876,20.3255 14.2536,20.7425 15.0996,21.2065 C15.9416,21.6795 16.7186,22.2725 17.4356,22.9365 C18.1446,23.5965 18.8086,24.3765 19.2886,25.1775 L19.3096,25.2145 C19.4216,25.4035 19.6586,25.4855 19.8666,25.3975 C20.0926,25.3015 20.1996,25.0405 20.1036,24.8135" id="Fill-70" fill="#E2EFF3"></path>
            <path d="M19.9894,24.6592 C19.4404,24.1672 18.8884,23.7612 18.2904,23.3822 C17.9974,23.1872 17.6854,23.0242 17.3824,22.8442 L16.4324,22.3722 C15.1464,21.7802 13.7514,21.3872 12.3134,21.2202 C10.8814,21.0542 9.3924,21.0892 7.9654,21.4222 C7.2344,21.5372 6.5524,21.8012 5.8524,22.0272 C5.4954,22.1282 5.1804,22.3102 4.8444,22.4552 L3.9574,22.8682 C4.3654,23.6262 4.8974,24.3022 5.3854,25.0082 L5.9694,24.6602 C6.2404,24.5102 6.4964,24.3142 6.7844,24.2062 C7.3504,23.9602 7.9084,23.6652 8.5084,23.5112 C9.6824,23.0992 10.9334,22.9412 12.1914,22.9532 C13.4504,22.9662 14.7254,23.1802 15.9484,23.5952 C17.1654,24.0022 18.3744,24.5992 19.4024,25.3322 L19.4324,25.3532 C19.6144,25.4842 19.8704,25.4592 20.0224,25.2882 C20.1874,25.1052 20.1724,24.8232 19.9894,24.6592" id="Fill-72" fill="#E2EFF3"></path>
            <path d="M19.8917,24.5948 C18.8617,24.0728 17.8037,23.7928 16.6767,23.6898 C15.5597,23.5948 14.3987,23.6848 13.2957,24.0208 C13.0157,24.0928 12.7547,24.2128 12.4817,24.3098 C12.3477,24.3618 12.2097,24.4088 12.0777,24.4668 L11.6947,24.6638 C11.4417,24.7998 11.1747,24.9228 10.9317,25.0748 L10.2187,25.5598 C9.9717,25.7148 9.7537,25.8998 9.5407,26.0878 L8.8907,26.6518 C8.5217,27.0158 8.1757,27.4008 7.8207,27.7828 C8.4147,28.4058 9.1277,28.8918 9.8877,29.2938 C10.1307,28.9528 10.3687,28.6028 10.6237,28.2678 L11.0917,27.7388 C11.2457,27.5578 11.4027,27.3788 11.5817,27.2338 L12.1047,26.7608 C12.2847,26.6108 12.4817,26.4898 12.6697,26.3498 L12.9567,26.1458 C13.0567,26.0858 13.1607,26.0338 13.2627,25.9788 C13.4697,25.8738 13.6687,25.7408 13.8857,25.6558 C14.7377,25.2608 15.6777,25.0548 16.6397,25.0038 C17.5927,24.9538 18.6167,25.0918 19.4987,25.3968 L19.5457,25.4128 C19.7527,25.4848 19.9867,25.3948 20.0877,25.1938 C20.1997,24.9738 20.1117,24.7058 19.8917,24.5948" id="Fill-74" fill="#A5D9E4"></path>
            <path d="M21.6534,12.2159 C21.7614,13.1619 21.8404,14.1229 21.7884,15.0919 C21.7514,16.1909 21.6334,17.2979 21.4194,18.3939 C21.2124,19.4899 20.9334,20.5799 20.5814,21.6509 C20.2284,22.7139 19.8044,23.7819 19.3114,24.7679 L19.2994,24.7899 C19.1994,24.9929 19.2674,25.2439 19.4644,25.3669 C19.6744,25.4969 19.9484,25.4339 20.0794,25.2239 C20.7154,24.2029 21.2374,23.1659 21.7134,22.0829 C22.1824,21.0039 22.5814,19.8889 22.9074,18.7479 C23.2434,17.6089 23.4794,16.4339 23.6314,15.2399 C23.7934,14.1299 23.8024,12.9969 23.7714,11.8599 C23.0744,12.0279 22.3674,12.1419 21.6534,12.2159" id="Fill-76" fill="#2F3061"></path>
            <path d="M24.9405,8.7647 C24.7285,8.7647 24.5215,8.8317 24.3475,8.9597 C22.8335,10.0747 21.2935,11.0987 19.7565,12.0147 L19.5115,11.4007 C19.4475,11.2427 19.3675,11.0817 19.2735,10.9217 C19.0875,10.6057 18.7535,10.4297 18.4115,10.4297 C18.2425,10.4297 18.0725,10.4717 17.9155,10.5617 C17.1585,10.9947 16.4895,11.5137 15.8415,12.0157 L15.4125,12.3477 C15.0795,12.6027 14.7325,12.8387 14.3715,13.0767 L13.9525,12.6717 C13.9255,12.6457 13.8675,12.5967 13.8365,12.5737 C13.6565,12.4117 13.4345,12.3327 13.1965,12.3327 C13.1645,12.3327 13.1305,12.3337 13.0975,12.3367 C12.8225,12.3627 12.5855,12.5117 12.4155,12.7297 C12.2175,12.9817 12.0175,13.2307 11.8185,13.4797 C11.3985,14.0037 10.9645,14.5447 10.5565,15.1077 C10.3655,15.3707 10.1845,15.6437 10.0165,15.9097 L9.6975,15.7827 C9.5155,15.7117 9.3285,15.6567 9.1325,15.6147 C9.0625,15.5997 8.9925,15.5917 8.9225,15.5917 C8.7255,15.5917 8.5315,15.6507 8.3655,15.7617 C8.1395,15.9127 7.9865,16.1497 7.9385,16.4167 C7.8525,16.8967 7.7405,17.3687 7.6225,17.8687 C7.4985,18.3967 7.3685,18.9427 7.2715,19.5037 C7.2165,19.8137 7.1735,20.1257 7.1375,20.4277 L6.6005,20.4447 C6.1795,20.4597 5.7695,20.5357 5.3755,20.6717 C5.0335,20.7887 4.7925,21.0777 4.7215,21.4117 C4.6315,21.4537 4.5425,21.4967 4.4505,21.5357 L3.5355,21.9617 C3.2855,22.0777 3.0945,22.2917 3.0075,22.5537 C2.9205,22.8147 2.9465,23.1007 3.0765,23.3427 C3.4065,23.9537 3.7965,24.5007 4.1755,25.0297 C4.3045,25.2107 4.4355,25.3927 4.5615,25.5767 C4.7545,25.8567 5.0665,26.0077 5.3855,26.0077 C5.4005,26.0077 5.4155,26.0077 5.4295,26.0067 C5.5845,26.7037 5.7585,27.3817 5.9165,27.9787 C6.0315,28.4197 6.4305,28.7247 6.8825,28.7247 C6.8985,28.7247 6.9155,28.7237 6.9315,28.7237 C7.0585,28.7167 7.1855,28.7047 7.3105,28.6877 C7.8855,29.2437 8.5785,29.7317 9.4185,30.1777 C9.5675,30.2567 9.7275,30.2937 9.8865,30.2937 C10.0975,30.2937 10.3065,30.2277 10.4785,30.1007 C10.5605,30.2047 10.6425,30.3097 10.7245,30.4147 C10.8945,30.6337 11.1465,30.7727 11.4225,30.7977 C11.4535,30.8007 11.4845,30.8027 11.5145,30.8027 C11.7585,30.8027 11.9955,30.7127 12.1795,30.5497 C12.2575,30.4817 12.3055,30.4387 12.3515,30.3927 L12.6375,30.1057 C12.7945,29.9477 12.9535,29.7857 13.1165,29.6317 C13.1835,29.5757 13.2875,29.4817 13.3915,29.3877 C13.5595,29.2357 13.7175,29.0917 13.8715,28.9777 C14.3895,28.5517 14.9435,28.1717 15.6525,27.7527 C16.2945,27.3967 16.9535,27.0987 17.5905,26.8807 C18.0205,26.7337 18.4555,26.6177 18.8765,26.5367 C19.2245,27.2747 19.5085,28.0897 19.7085,28.9287 C19.9875,30.1197 20.1085,31.2007 20.0795,32.2267 C20.0365,33.5167 19.8975,34.5327 19.6415,35.4157 C19.6345,35.4427 19.6285,35.4687 19.6225,35.4947 C19.5585,35.8097 19.4405,36.1397 19.3155,36.4897 C19.2525,36.6647 19.1905,36.8387 19.1325,37.0127 C19.0375,37.2687 18.9005,37.5657 18.7555,37.8797 C18.6625,38.0827 18.5685,38.2857 18.4825,38.4897 L18.3965,38.6867 C18.3365,38.8317 18.2875,38.9747 18.2465,39.1207 C18.1715,39.3887 18.2115,39.6747 18.3575,39.9107 C18.5025,40.1487 18.7395,40.3137 19.0115,40.3687 C20.2285,40.6157 21.4595,40.9087 22.6495,41.1927 C23.0715,41.2927 23.4925,41.3937 23.9155,41.4927 C23.9905,41.5097 24.0665,41.5187 24.1425,41.5187 C24.3365,41.5187 24.5275,41.4617 24.6925,41.3537 C24.9215,41.2027 25.0795,40.9637 25.1275,40.6937 C25.1345,40.6607 25.1415,40.6247 25.1475,40.5867 C25.1795,40.3717 25.2145,40.1587 25.2505,39.9447 C25.2695,39.8247 25.2895,39.7037 25.3075,39.5847 C25.8895,39.4707 26.4785,39.3677 27.0525,39.2657 C27.7925,39.1347 28.5565,38.9997 29.3115,38.8437 C29.8475,38.7327 30.1955,38.2107 30.0905,37.6737 L29.9965,37.1707 C29.9555,36.9547 29.9155,36.7367 29.8715,36.5157 C31.2775,35.5117 32.5625,34.5487 33.7945,33.5777 C34.2035,33.2547 34.2955,32.6717 34.0065,32.2387 L33.9775,32.1947 C33.8185,31.9537 33.6555,31.7097 33.4855,31.4667 C33.7485,31.0757 34.0135,30.6857 34.2795,30.2957 C35.1885,28.9647 36.1285,27.5877 36.9295,26.1247 C37.0575,25.8907 37.0865,25.6147 37.0105,25.3587 C36.9345,25.1027 36.7585,24.8877 36.5225,24.7627 L36.2355,24.6087 C35.7395,24.3427 35.2255,24.0677 34.6855,23.8277 C34.4885,23.7447 34.3205,23.6747 34.1545,23.6037 C33.9765,23.5287 33.7965,23.4527 33.6135,23.3777 C33.5355,22.3867 33.4655,21.3957 33.3975,20.4037 C33.3465,19.6787 33.2965,18.9527 33.2425,18.2277 C33.2275,18.0217 33.1485,17.8277 33.0195,17.6687 C33.1955,17.3867 33.3395,17.0847 33.4535,16.7647 C33.6065,16.3327 33.4465,15.8527 33.0645,15.5987 C30.8635,14.1337 28.9595,12.9907 26.8215,12.1757 C26.7145,12.1117 26.6025,12.0697 26.4885,12.0487 L26.4945,11.8677 C26.5215,11.1727 26.3915,10.4777 26.1205,9.8527 C26.0335,9.6517 25.9225,9.4477 25.7855,9.2297 C25.6365,8.9947 25.3985,8.8327 25.1255,8.7827 C25.0645,8.7707 25.0025,8.7647 24.9405,8.7647 M24.9405,9.7647 C25.0385,9.9187 25.1275,10.0787 25.2035,10.2507 C25.4235,10.7587 25.5155,11.3067 25.4955,11.8257 C25.4675,12.4877 25.4615,13.1327 25.3985,13.7807 C25.3785,13.9447 25.3605,14.1087 25.3415,14.2717 C25.6645,13.8587 25.9905,13.4487 26.3245,13.0397 C26.3675,13.0667 26.4145,13.0907 26.4645,13.1107 C28.6325,13.9367 30.5905,15.1537 32.5105,16.4317 C32.3775,16.8107 32.1795,17.1737 31.9105,17.5027 C31.5485,17.9457 31.0875,18.2847 30.6015,18.5037 C31.1445,18.4267 31.6915,18.3657 32.2455,18.3017 C32.3885,20.2307 32.5065,22.1597 32.6675,24.0847 C33.2115,24.2787 33.7345,24.5177 34.2795,24.7407 C34.8845,25.0097 35.4615,25.3297 36.0525,25.6447 C34.9345,27.6867 33.5415,29.5507 32.2675,31.4937 C32.5895,31.9117 32.8805,32.3507 33.1745,32.7927 C31.8515,33.8357 30.5005,34.8407 29.1275,35.8177 C29.0865,35.7347 29.0475,35.6497 29.0165,35.5637 L28.9435,35.3587 C28.7535,34.8337 28.5975,34.2767 28.3805,33.7517 C28.1435,33.2437 27.9465,32.6907 27.6495,32.2067 C27.1285,31.1767 26.4285,30.2537 25.6545,29.3667 C25.6155,29.3207 25.5705,29.2797 25.5295,29.2347 C25.7185,29.4827 25.9045,29.7347 26.0785,29.9947 C26.8555,31.1687 27.5635,32.4387 28.0435,33.7977 C28.3285,34.4697 28.4895,35.1687 28.6995,35.8697 C28.8715,36.5267 28.9785,37.1927 29.1095,37.8647 C27.5515,38.1877 25.9755,38.4117 24.4195,38.7447 C24.3475,39.3097 24.2445,39.8687 24.1585,40.4407 C24.1545,40.4667 24.1475,40.4927 24.1425,40.5187 C22.5025,40.1337 20.8695,39.7247 19.2105,39.3887 C19.2395,39.2837 19.2735,39.1807 19.3155,39.0817 L19.4015,38.8817 C19.6215,38.3687 19.8855,37.8547 20.0845,37.3237 C20.2575,36.7887 20.4905,36.2497 20.6025,35.6937 C20.9225,34.5847 21.0395,33.4327 21.0795,32.2547 C21.1125,31.0757 20.9585,29.8817 20.6815,28.6977 C20.4165,27.5797 19.9965,26.4467 19.4395,25.4457 C18.7195,25.5167 17.9605,25.6967 17.2665,25.9347 C16.5195,26.1907 15.8105,26.5217 15.1435,26.8927 C14.4795,27.2847 13.8525,27.6987 13.2725,28.1757 C12.9775,28.3967 12.7055,28.6687 12.4295,28.9057 C12.1605,29.1597 11.9025,29.4307 11.6465,29.6847 C11.6035,29.7267 11.5585,29.7637 11.5145,29.8027 C11.1705,29.3587 10.8185,28.9207 10.4685,28.4817 C10.2715,28.7497 10.0805,29.0247 9.8865,29.2937 C9.1275,28.8917 8.4155,28.4057 7.8205,27.7827 C7.9505,27.6417 8.0805,27.5017 8.2105,27.3617 L8.1155,27.4077 L8.0775,27.4247 C7.6905,27.6087 7.2855,27.7047 6.8825,27.7247 C6.6735,26.9277 6.4695,26.1287 6.3065,25.3217 C6.2535,25.0627 6.2115,24.8027 6.1685,24.5417 C6.1025,24.5827 6.0375,24.6227 5.9695,24.6607 L5.3845,25.0077 C4.8975,24.3017 4.3655,23.6257 3.9575,22.8687 L4.8445,22.4547 C5.1575,22.3217 5.4525,22.1557 5.7795,22.0517 C5.7535,21.9077 5.7305,21.7617 5.7005,21.6177 C6.0065,21.5127 6.3245,21.4547 6.6315,21.4447 L8.0415,21.4007 C8.0945,20.8227 8.1575,20.2447 8.2555,19.6747 C8.4375,18.6327 8.7385,17.6277 8.9225,16.5917 C9.0625,16.6217 9.1995,16.6617 9.3285,16.7117 L10.4295,17.1487 C10.7265,16.6537 11.0275,16.1617 11.3665,15.6947 C11.9495,14.8897 12.5895,14.1277 13.2025,13.3457 C13.2195,13.3627 13.2415,13.3747 13.2575,13.3917 L14.3885,14.4817 L14.3315,14.4127 L14.2895,14.3647 C14.2815,14.3547 14.2775,14.3447 14.2695,14.3347 C14.8615,13.9507 15.4585,13.5717 16.0195,13.1427 C16.8045,12.5417 17.5565,11.9187 18.4125,11.4297 C18.4775,11.5417 18.5365,11.6567 18.5835,11.7727 L19.2205,13.3617 L19.2545,13.4617 C21.2265,12.3467 23.1175,11.1077 24.9405,9.7647" id="Fill-78" fill="#2F3061"></path>
            <path d="M31.4581,12.6045 C30.4581,12.0375 29.4271,11.5265 28.3421,11.1135" id="Stroke-80" stroke="#2F3061" stroke-linecap="round" stroke-linejoin="round"></path>
            <path d="M36.1944,32.793 C35.9004,32.351 35.6084,31.912 35.2874,31.493 C35.7874,30.73 36.3054,29.98 36.8184,29.226" id="Stroke-82" stroke="#2F3061" stroke-linecap="round" stroke-linejoin="round"></path>
            <path d="M5.9728,16.7266 C5.8388,17.2896 5.7028,17.8526 5.6038,18.4266" id="Stroke-84" stroke="#2F3061" stroke-linecap="round" stroke-linejoin="round"></path>
            <path d="M14.131,10.9473 C14.184,10.9473 15.937,9.6733 16.273,9.3893" id="Stroke-86" stroke="#2F3061" stroke-linecap="round" stroke-linejoin="round"></path>
        </g>
    </g>
</svg>