<?xml version="1.0" encoding="UTF-8"?>
<svg width="62px" height="62px" viewBox="0 0 62 62" version="1.1" xmlns="http://www.w3.org/2000/svg" xmlns:xlink="http://www.w3.org/1999/xlink">
    <!-- Generator: Sketch 49.3 (51167) - http://www.bohemiancoding.com/sketch -->
    <title>Custom Preset</title>
    <desc>Created with Sketch.</desc>
    <defs></defs>
    <g id="Custom-Preset" stroke="none" stroke-width="1" fill="none" fill-rule="evenodd">
        <g id="present" transform="translate(10.000000, -1.000000)">
            <path d="M25.8112,20.6133 L15.1732,16.6753 C13.5862,16.0883 12.7762,14.3253 13.3642,12.7383 C14.1842,10.5213 17.1012,10.0293 18.6032,11.8553 L25.8112,20.6133 Z" id="Stroke-4" stroke="#2F3061"></path>
            <path d="M25.8112,20.6133 L36.4482,24.5513 C38.0352,25.1383 39.7972,24.3283 40.3852,22.7413 C41.2072,20.5243 39.3132,18.2523 36.9842,18.6593 L25.8112,20.6133 Z" id="Stroke-6" stroke="#2F3061"></path>
            <path d="M28.3874,21.5674 C27.8554,23.0044 26.2584,23.7394 24.8214,23.2074 C23.3834,22.6744 22.6494,21.0784 23.1814,19.6394 C23.7134,18.2024 25.3104,17.4684 26.7474,18.0014 C28.1864,18.5334 28.9194,20.1304 28.3874,21.5674" id="Fill-8" fill="#2F3061"></path>
            <path d="M38.3083,34.0693 L31.4653,52.5553 C30.9503,53.9473 29.4043,54.6583 28.0113,54.1423 L2.2553,44.6083 C0.8633,44.0923 0.1533,42.5473 0.6673,41.1543 L7.5113,22.6683 L38.3083,34.0693 Z" id="Fill-10" fill="#A5D9E4"></path>
            <path d="M38.3083,34.0693 L31.4653,52.5553 C30.9503,53.9473 29.4043,54.6583 28.0113,54.1423 L2.2553,44.6083 C0.8633,44.0923 0.1533,42.5473 0.6673,41.1543 L7.5113,22.6683 L38.3083,34.0693 Z" id="Stroke-12" stroke="#2F3061" stroke-linecap="round" stroke-linejoin="round"></path>
            <path d="M42.7731,29.0947 L41.3331,32.9867 C40.9361,34.0557 39.7491,34.6027 38.6781,34.2057 L7.1411,22.5317 C6.0711,22.1357 5.5251,20.9477 5.9211,19.8777 L7.3621,15.9867 C7.7571,14.9157 8.9461,14.3697 10.0151,14.7667 L41.5531,26.4417 C42.6231,26.8367 43.1691,28.0257 42.7731,29.0947" id="Fill-14" fill="#A5D9E4"></path>
            <path d="M42.7731,29.0947 L41.3331,32.9867 C40.9361,34.0557 39.7491,34.6027 38.6781,34.2057 L7.1411,22.5317 C6.0711,22.1357 5.5251,20.9477 5.9211,19.8777 L7.3621,15.9867 C7.7571,14.9157 8.9461,14.3697 10.0151,14.7667 L41.5531,26.4417 C42.6231,26.8367 43.1691,28.0257 42.7731,29.0947 Z" id="Stroke-16" stroke="#2F3061" stroke-linecap="round" stroke-linejoin="round"></path>
            <polygon id="Fill-18" fill="#2F3061" points="26.7926 29.8057 19.0266 26.9317 21.9016 19.1667 29.6666 22.0407"></polygon>
            <polygon id="Fill-20" fill="#2F3061" points="17.737 50.3389 12.53 48.4119 20.306 27.4049 25.513 29.3319"></polygon>
            <polygon id="Fill-22" fill="#E2EFF3" points="10.8483 34.0283 9.9623 32.1003 11.8903 31.2153 12.7763 33.1413"></polygon>
            <polygon id="Fill-24" fill="#E2EFF3" points="8.7087 29.9844 7.8227 28.0564 9.7497 27.1714 10.6367 29.0984"></polygon>
            <polygon id="Fill-26" fill="#E2EFF3" points="15.1061 32.3525 14.2201 30.4245 16.1471 29.5395 17.0341 31.4665"></polygon>
            <polygon id="Fill-28" fill="#E2EFF3" points="6.5915 35.7031 5.7055 33.7751 7.6325 32.8901 8.5195 34.8171"></polygon>
            <polygon id="Fill-30" fill="#E2EFF3" points="12.9889 38.0713 12.1029 36.1443 14.0299 35.2583 14.9169 37.1853"></polygon>
            <polygon id="Fill-32" fill="#E2EFF3" points="8.7321 39.7471 7.8451 37.8191 9.7731 36.9341 10.6591 38.8611"></polygon>
            <polygon id="Fill-34" fill="#E2EFF3" points="4.4743 41.4229 3.5883 39.4949 5.5163 38.6099 6.4023 40.5359"></polygon>
            <polygon id="Fill-36" fill="#E2EFF3" points="10.8717 43.791 9.9857 41.863 11.9137 40.978 12.7997 42.904"></polygon>
            <polygon id="Fill-38" fill="#E2EFF3" points="28.3854 40.5195 27.4994 38.5925 29.4274 37.7065 30.3134 39.6335"></polygon>
            <polygon id="Fill-40" fill="#E2EFF3" points="26.2458 36.4766 25.3588 34.5486 27.2868 33.6636 28.1728 35.5896"></polygon>
            <polygon id="Fill-42" fill="#E2EFF3" points="32.6432 38.8447 31.7562 36.9167 33.6842 36.0317 34.5702 37.9577"></polygon>
            <polygon id="Fill-44" fill="#E2EFF3" points="24.1286 42.1953 23.2416 40.2673 25.1696 39.3823 26.0556 41.3093"></polygon>
            <polygon id="Fill-46" fill="#E2EFF3" points="30.526 44.5635 29.639 42.6355 31.567 41.7505 32.453 43.6775"></polygon>
            <polygon id="Fill-48" fill="#E2EFF3" points="26.2682 46.2393 25.3822 44.3113 27.3102 43.4263 28.1962 45.3523"></polygon>
            <polygon id="Fill-50" fill="#E2EFF3" points="22.0114 47.9141 21.1244 45.9871 23.0524 45.1011 23.9384 47.0281"></polygon>
            <polygon id="Fill-52" fill="#E2EFF3" points="28.4089 50.2823 27.5219 48.3553 29.4499 47.4693 30.3359 49.3963"></polygon>
        </g>
    </g>
</svg>