<?xml version="1.0" encoding="UTF-8"?>
<svg width="62px" height="62px" viewBox="0 0 62 62" version="1.1" xmlns="http://www.w3.org/2000/svg" xmlns:xlink="http://www.w3.org/1999/xlink">
    <!-- Generator: Sketch 49.3 (51167) - http://www.bohemiancoding.com/sketch -->
    <title>Custom Preset</title>
    <desc>Created with Sketch.</desc>
    <defs></defs>
    <g id="Custom-Preset" stroke="none" stroke-width="1" fill="none" fill-rule="evenodd">
        <g id="smiley_paper" transform="translate(8.000000, 0.000000)">
            <polygon id="Fill-4" fill="#E2EFF3" points="16.6958 17.032 19.1488 39.479 36.7878 37.552 41.0718 32.217 39.1428 14.578"></polygon>
            <path d="M19.2788,39.3182 L36.7118,37.4122 L40.9198,32.1722 L39.0128,14.7392 L16.8568,17.1622 L19.2788,39.3182 Z M36.8178,37.6942 C36.8138,37.6952 36.8088,37.6962 36.8038,37.6972 L19.1658,39.6252 C19.1268,39.6302 19.0888,39.6182 19.0578,39.5932 C19.0278,39.5692 19.0078,39.5342 19.0038,39.4952 L16.5498,17.0472 C16.5418,16.9672 16.6028,16.8942 16.6788,16.8862 L39.1278,14.4322 C39.1658,14.4282 39.2048,14.4392 39.2348,14.4642 C39.2648,14.4882 39.2848,14.5232 39.2888,14.5622 L41.2158,32.2012 C41.2208,32.2392 41.2098,32.2782 41.1848,32.3082 L36.9018,37.6422 C36.8808,37.6702 36.8508,37.6872 36.8178,37.6942 Z" id="Fill-6" fill="#A5D9E4"></path>
            <path d="M19.2788,39.3182 L36.7118,37.4122 L40.9198,32.1722 L39.0128,14.7392 L16.8568,17.1622 L19.2788,39.3182 Z M36.8178,37.6942 C36.8138,37.6952 36.8088,37.6962 36.8038,37.6972 L19.1658,39.6252 C19.1268,39.6302 19.0888,39.6182 19.0578,39.5932 C19.0278,39.5692 19.0078,39.5342 19.0038,39.4952 L16.5498,17.0472 C16.5418,16.9672 16.6028,16.8942 16.6788,16.8862 L39.1278,14.4322 C39.1658,14.4282 39.2048,14.4392 39.2348,14.4642 C39.2648,14.4882 39.2848,14.5232 39.2888,14.5622 L41.2158,32.2012 C41.2208,32.2392 41.2098,32.2782 41.1848,32.3082 L36.9018,37.6422 C36.8808,37.6702 36.8508,37.6872 36.8178,37.6942 Z" id="Stroke-8" stroke="#2F3061" stroke-linecap="round" stroke-linejoin="round"></path>
            <polygon id="Fill-10" fill="#2F3061" points="36.2622 32.742 36.7872 37.552 41.0722 32.217"></polygon>
            <path d="M36.4233,32.8719 L36.8953,37.1839 L40.7353,32.3999 L36.4233,32.8719 Z M36.8183,37.6939 C36.7953,37.6989 36.7713,37.6989 36.7463,37.6919 C36.6903,37.6759 36.6493,37.6259 36.6423,37.5669 L36.1163,32.7579 C36.1123,32.7199 36.1233,32.6809 36.1483,32.6499 C36.1723,32.6199 36.2073,32.6009 36.2463,32.5969 L41.0553,32.0709 C41.1133,32.0639 41.1713,32.0949 41.1993,32.1459 C41.2283,32.1979 41.2223,32.2619 41.1853,32.3089 L36.9023,37.6429 C36.8803,37.6699 36.8513,37.6869 36.8183,37.6939 Z" id="Fill-12" fill="#2F3061"></path>
            <polygon id="Fill-14" fill="#A5D9E4" points="3.6831 9.032 0.6941 38.798 24.0831 41.146 31.1001 35.41 33.4491 12.02"></polygon>
            <path d="M0.9067,38.6248 L24.0227,40.9448 L30.9157,35.3108 L33.2367,12.1938 L3.8567,9.2438 L0.9067,38.6248 Z M24.0837,41.3408 C24.0767,41.3408 24.0697,41.3408 24.0637,41.3398 L0.6747,38.9908 C0.6237,38.9858 0.5767,38.9608 0.5437,38.9208 C0.5107,38.8808 0.4957,38.8298 0.5017,38.7778 L3.4907,9.0128 C3.5007,8.9058 3.5997,8.8278 3.7027,8.8388 L33.4687,11.8278 C33.5197,11.8328 33.5667,11.8578 33.5987,11.8978 C33.6317,11.9378 33.6467,11.9888 33.6417,12.0398 L31.2937,35.4298 C31.2887,35.4798 31.2627,35.5268 31.2227,35.5608 L24.2057,41.2968 C24.1717,41.3248 24.1277,41.3408 24.0837,41.3408 Z" id="Fill-16" fill="#A5D9E4"></path>
            <path d="M0.9067,38.6248 L24.0227,40.9448 L30.9157,35.3108 L33.2367,12.1938 L3.8567,9.2438 L0.9067,38.6248 Z M24.0837,41.3408 C24.0767,41.3408 24.0697,41.3408 24.0637,41.3398 L0.6747,38.9908 C0.6237,38.9858 0.5767,38.9608 0.5437,38.9208 C0.5107,38.8808 0.4957,38.8298 0.5017,38.7778 L3.4907,9.0128 C3.5007,8.9058 3.5997,8.8278 3.7027,8.8388 L33.4687,11.8278 C33.5197,11.8328 33.5667,11.8578 33.5987,11.8978 C33.6317,11.9378 33.6467,11.9888 33.6417,12.0398 L31.2937,35.4298 C31.2887,35.4798 31.2627,35.5268 31.2227,35.5608 L24.2057,41.2968 C24.1717,41.3248 24.1277,41.3408 24.0837,41.3408 Z" id="Stroke-18" stroke="#2F3061" stroke-linecap="round" stroke-linejoin="round"></path>
            <polygon id="Fill-20" fill="#2F3061" points="24.7231 34.7693 24.0831 41.1463 31.1001 35.4103"></polygon>
            <path d="M24.897,34.9822 L24.323,40.7002 L30.615,35.5562 L24.897,34.9822 Z M24.084,41.3402 C24.051,41.3402 24.02,41.3332 23.992,41.3172 C23.922,41.2802 23.882,41.2052 23.89,41.1282 L24.531,34.7502 C24.536,34.6992 24.561,34.6522 24.601,34.6202 C24.641,34.5862 24.691,34.5722 24.743,34.5772 L31.12,35.2172 C31.198,35.2242 31.264,35.2792 31.286,35.3542 C31.309,35.4292 31.284,35.5102 31.223,35.5602 L24.206,41.2962 C24.17,41.3262 24.127,41.3402 24.084,41.3402 Z" id="Fill-22" fill="#2F3061"></path>
            <path d="M14.9878,24.2176 C14.8298,24.4996 15.3908,24.5436 15.2468,24.6646 C14.6438,25.1816 13.9458,24.8596 13.7238,24.2516 C12.2718,22.5846 12.2468,19.4736 14.5998,18.5046 C15.4478,18.3026 16.1018,19.1836 16.1798,19.9126 C16.1138,20.7656 15.6338,21.4256 15.0158,22.1016 C14.4598,22.7016 15.7598,23.5796 14.9878,24.2176 M19.2748,25.2746 C18.4268,25.4766 18.0548,24.7496 17.9408,24.1536 C17.5018,22.5626 17.4988,20.8746 18.1798,19.3456 C18.3728,18.9586 19.1098,18.4256 19.5108,18.7526 C21.2758,19.8816 19.7998,22.3126 19.9118,24.3066 C19.9558,24.7656 19.7138,25.1476 19.2748,25.2746" id="Fill-24" fill="#2F3061"></path>
            <path d="M24.3999,30.0145 C22.2859,31.7005 19.8379,32.5005 17.2929,33.1605 C15.9259,33.5095 14.6139,33.4895 13.3509,32.8535 C10.9259,31.6195 9.2609,29.2395 7.8839,26.6125 C7.5379,25.9135 7.7119,25.3915 8.0159,24.9075 C8.1709,24.6505 8.8279,24.8355 9.0829,24.9905 C10.7889,26.8375 11.7449,29.7015 14.3439,30.4115 C17.1779,31.1955 20.3009,29.6425 22.4679,27.6135 C23.2799,26.8455 24.4309,27.9005 24.6159,28.9595 C24.6919,29.3685 24.5529,29.7585 24.3999,30.0145" id="Fill-26" fill="#2F3061"></path>
            <path d="M21.9849,7.3611 L18.5109,13.7631 C18.4389,13.8961 18.2719,13.9461 18.1389,13.8741 C18.0259,13.8121 17.9729,13.6821 18.0059,13.5621 L19.8579,6.5181 C20.0199,5.9031 20.6499,5.5351 21.2649,5.6971 C21.8809,5.8591 22.2489,6.4891 22.0869,7.1041 C22.0629,7.1941 22.0269,7.2831 21.9849,7.3611" id="Fill-28" fill="#2F3061"></path>
            <path d="M23.4292,7.1795 C23.2402,8.5495 21.9762,9.5055 20.6062,9.3155 C19.6342,9.1805 18.8682,8.5125 18.5752,7.6455 C18.9522,8.0725 19.4822,8.3645 20.0862,8.4485 C21.4642,8.6385 22.7292,7.6755 22.9182,6.3055 C22.9742,5.9075 22.9352,5.5115 22.8062,5.1505 C23.2852,5.6855 23.5352,6.4135 23.4292,7.1795" id="Fill-30" fill="#2F3061"></path>
            <path d="M22.9185,6.3055 C22.7295,7.6755 21.4645,8.6385 20.0865,8.4485 C19.4815,8.3645 18.9525,8.0725 18.5755,7.6455 C18.4525,7.2925 18.4055,6.8965 18.4625,6.4915 C18.6515,5.1205 19.9165,4.1575 21.2945,4.3485 C21.8985,4.4325 22.4275,4.7315 22.8065,5.1505 C22.9355,5.5115 22.9745,5.9075 22.9185,6.3055" id="Fill-32" fill="#A5D9E4"></path>
        </g>
    </g>
</svg>