<?xml version="1.0" encoding="UTF-8"?>
<svg width="62px" height="62px" viewBox="0 0 62 62" version="1.1" xmlns="http://www.w3.org/2000/svg" xmlns:xlink="http://www.w3.org/1999/xlink">
    <!-- Generator: Sketch 49.3 (51167) - http://www.bohemiancoding.com/sketch -->
    <title>Custom Preset</title>
    <desc>Created with Sketch.</desc>
    <defs>
        <path d="M15.538,3.183 C14.755,2.894 13.934,2.679 13.069,2.57 C6.937,1.79 1.335,6.13 0.556,12.263 C-0.222,18.394 4.118,23.997 10.25,24.775 C11.971,24.994 13.646,24.797 15.188,24.282 C16.553,25.166 18.125,25.775 19.847,25.994 C22.767,26.364 25.562,25.565 27.777,23.972 C28.678,24.446 29.673,24.778 30.742,24.914 C35.535,25.522 39.914,22.13 40.522,17.337 C41.131,12.544 37.739,8.165 32.945,7.557 C31.889,7.422 30.855,7.492 29.874,7.719 C29.068,4.259 26.195,1.496 22.464,1.023 C22.091,0.975 21.721,0.952 21.355,0.952 C19.153,0.952 17.102,1.786 15.538,3.183 Z" id="path-1"></path>
        <path d="M15.538,3.183 C14.755,2.894 13.934,2.679 13.069,2.57 C6.937,1.79 1.335,6.13 0.556,12.263 C-0.222,18.394 4.118,23.997 10.25,24.775 C11.971,24.994 13.646,24.797 15.188,24.282 C16.553,25.166 18.125,25.775 19.847,25.994 C22.767,26.364 25.562,25.565 27.777,23.972 C28.678,24.446 29.673,24.778 30.742,24.914 C35.535,25.522 39.914,22.13 40.522,17.337 C41.131,12.544 37.739,8.165 32.945,7.557 C31.889,7.422 30.855,7.492 29.874,7.719 C29.068,4.259 26.195,1.496 22.464,1.023 C22.091,0.975 21.721,0.952 21.355,0.952 C19.153,0.952 17.102,1.786 15.538,3.183 Z" id="path-3"></path>
        <path d="M15.538,3.183 C14.755,2.894 13.934,2.679 13.069,2.57 C6.937,1.79 1.335,6.13 0.556,12.263 C-0.222,18.394 4.118,23.997 10.25,24.775 C11.971,24.994 13.646,24.797 15.188,24.282 C16.553,25.166 18.125,25.775 19.847,25.994 C22.767,26.364 25.562,25.565 27.777,23.972 C28.678,24.446 29.673,24.778 30.742,24.914 C35.535,25.522 39.914,22.13 40.522,17.337 C41.131,12.544 37.739,8.165 32.945,7.557 C31.889,7.422 30.855,7.492 29.874,7.719 C29.068,4.259 26.195,1.496 22.464,1.023 C22.091,0.975 21.721,0.952 21.355,0.952 C19.153,0.952 17.102,1.786 15.538,3.183 Z" id="path-5"></path>
        <path d="M15.538,3.183 C14.755,2.894 13.934,2.679 13.069,2.57 C6.937,1.79 1.335,6.13 0.556,12.263 C-0.222,18.394 4.118,23.997 10.25,24.775 C11.971,24.994 13.646,24.797 15.188,24.282 C16.553,25.166 18.125,25.775 19.847,25.994 C22.767,26.364 25.562,25.565 27.777,23.972 C28.678,24.446 29.673,24.778 30.742,24.914 C35.535,25.522 39.914,22.13 40.522,17.337 C41.131,12.544 37.739,8.165 32.945,7.557 C31.889,7.422 30.855,7.492 29.874,7.719 C29.068,4.259 26.195,1.496 22.464,1.023 C22.091,0.975 21.721,0.952 21.355,0.952 C19.153,0.952 17.102,1.786 15.538,3.183 Z" id="path-7"></path>
        <path d="M15.538,3.183 C14.755,2.894 13.934,2.679 13.069,2.57 C6.937,1.79 1.335,6.13 0.556,12.263 C-0.222,18.394 4.118,23.997 10.25,24.775 C11.971,24.994 13.646,24.797 15.188,24.282 C16.553,25.166 18.125,25.775 19.847,25.994 C22.767,26.364 25.562,25.565 27.777,23.972 C28.678,24.446 29.673,24.778 30.742,24.914 C35.535,25.522 39.914,22.13 40.522,17.337 C41.131,12.544 37.739,8.165 32.945,7.557 C31.889,7.422 30.855,7.492 29.874,7.719 C29.068,4.259 26.195,1.496 22.464,1.023 C22.091,0.975 21.721,0.952 21.355,0.952 C19.153,0.952 17.102,1.786 15.538,3.183" id="path-9"></path>
        <path d="M15.538,3.183 C14.755,2.894 13.934,2.679 13.069,2.57 C6.937,1.79 1.335,6.13 0.556,12.263 C-0.222,18.394 4.118,23.997 10.25,24.775 C11.971,24.994 13.646,24.797 15.188,24.282 C16.553,25.166 18.125,25.775 19.847,25.994 C22.767,26.364 25.562,25.565 27.777,23.972 C28.678,24.446 29.673,24.778 30.742,24.914 C35.535,25.522 39.914,22.13 40.522,17.337 C41.131,12.544 37.739,8.165 32.945,7.557 C31.889,7.422 30.855,7.492 29.874,7.719 C29.068,4.259 26.195,1.496 22.464,1.023 C22.091,0.975 21.721,0.952 21.355,0.952 C19.153,0.952 17.102,1.786 15.538,3.183" id="path-11"></path>
        <path d="M15.538,3.183 C14.755,2.894 13.934,2.679 13.069,2.57 C6.937,1.79 1.335,6.13 0.556,12.263 C-0.222,18.394 4.118,23.997 10.25,24.775 C11.971,24.994 13.646,24.797 15.188,24.282 C16.553,25.166 18.125,25.775 19.847,25.994 C22.767,26.364 25.562,25.565 27.777,23.972 C28.678,24.446 29.673,24.778 30.742,24.914 C35.535,25.522 39.914,22.13 40.522,17.337 C41.131,12.544 37.739,8.165 32.945,7.557 C31.889,7.422 30.855,7.492 29.874,7.719 C29.068,4.259 26.195,1.496 22.464,1.023 C22.091,0.975 21.721,0.952 21.355,0.952 C19.153,0.952 17.102,1.786 15.538,3.183" id="path-13"></path>
        <path d="M15.538,3.183 C14.755,2.894 13.934,2.679 13.069,2.57 C6.937,1.79 1.335,6.13 0.556,12.263 C-0.222,18.394 4.118,23.997 10.25,24.775 C11.971,24.994 13.646,24.797 15.188,24.282 C16.553,25.166 18.125,25.775 19.847,25.994 C22.767,26.364 25.562,25.565 27.777,23.972 C28.678,24.446 29.673,24.778 30.742,24.914 C35.535,25.522 39.914,22.13 40.522,17.337 C41.131,12.544 37.739,8.165 32.945,7.557 C31.889,7.422 30.855,7.492 29.874,7.719 C29.068,4.259 26.195,1.496 22.464,1.023 C22.091,0.975 21.721,0.952 21.355,0.952 C19.153,0.952 17.102,1.786 15.538,3.183" id="path-15"></path>
        <path d="M15.538,3.183 C14.755,2.894 13.934,2.679 13.069,2.57 C6.937,1.79 1.335,6.13 0.556,12.263 C-0.222,18.394 4.118,23.997 10.25,24.775 C11.971,24.994 13.646,24.797 15.188,24.282 C16.553,25.166 18.125,25.775 19.847,25.994 C22.767,26.364 25.562,25.565 27.777,23.972 C28.678,24.446 29.673,24.778 30.742,24.914 C35.535,25.522 39.914,22.13 40.522,17.337 C41.131,12.544 37.739,8.165 32.945,7.557 C31.889,7.422 30.855,7.492 29.874,7.719 C29.068,4.259 26.195,1.496 22.464,1.023 C22.091,0.975 21.721,0.952 21.355,0.952 C19.153,0.952 17.102,1.786 15.538,3.183" id="path-17"></path>
        <path d="M15.538,3.183 C14.755,2.894 13.934,2.679 13.069,2.57 C6.937,1.79 1.335,6.13 0.556,12.263 C-0.222,18.394 4.118,23.997 10.25,24.775 C11.971,24.994 13.646,24.797 15.188,24.282 C16.553,25.166 18.125,25.775 19.847,25.994 C22.767,26.364 25.562,25.565 27.777,23.972 C28.678,24.446 29.673,24.778 30.742,24.914 C35.535,25.522 39.914,22.13 40.522,17.337 C41.131,12.544 37.739,8.165 32.945,7.557 C31.889,7.422 30.855,7.492 29.874,7.719 C29.068,4.259 26.195,1.496 22.464,1.023 C22.091,0.975 21.721,0.952 21.355,0.952 C19.153,0.952 17.102,1.786 15.538,3.183" id="path-19"></path>
        <path d="M15.538,3.183 C14.755,2.894 13.934,2.679 13.069,2.57 C6.937,1.79 1.335,6.13 0.556,12.263 C-0.222,18.394 4.118,23.997 10.25,24.775 C11.971,24.994 13.646,24.797 15.188,24.282 C16.553,25.166 18.125,25.775 19.847,25.994 C22.767,26.364 25.562,25.565 27.777,23.972 C28.678,24.446 29.673,24.778 30.742,24.914 C35.535,25.522 39.914,22.13 40.522,17.337 C41.131,12.544 37.739,8.165 32.945,7.557 C31.889,7.422 30.855,7.492 29.874,7.719 C29.068,4.259 26.195,1.496 22.464,1.023 C22.091,0.975 21.721,0.952 21.355,0.952 C19.153,0.952 17.102,1.786 15.538,3.183" id="path-21"></path>
        <path d="M15.538,3.183 C14.755,2.894 13.934,2.679 13.069,2.57 C6.937,1.79 1.335,6.13 0.556,12.263 C-0.222,18.394 4.118,23.997 10.25,24.775 C11.971,24.994 13.646,24.797 15.188,24.282 C16.553,25.166 18.125,25.775 19.847,25.994 C22.767,26.364 25.562,25.565 27.777,23.972 C28.678,24.446 29.673,24.778 30.742,24.914 C35.535,25.522 39.914,22.13 40.522,17.337 C41.131,12.544 37.739,8.165 32.945,7.557 C31.889,7.422 30.855,7.492 29.874,7.719 C29.068,4.259 26.195,1.496 22.464,1.023 C22.091,0.975 21.721,0.952 21.355,0.952 C19.153,0.952 17.102,1.786 15.538,3.183" id="path-23"></path>
        <path d="M15.538,3.183 C14.755,2.894 13.934,2.679 13.069,2.57 C6.937,1.79 1.335,6.13 0.556,12.263 C-0.222,18.394 4.118,23.997 10.25,24.775 C11.971,24.994 13.646,24.797 15.188,24.282 C16.553,25.166 18.125,25.775 19.847,25.994 C22.767,26.364 25.562,25.565 27.777,23.972 C28.678,24.446 29.673,24.778 30.742,24.914 C35.535,25.522 39.914,22.13 40.522,17.337 C41.131,12.544 37.739,8.165 32.945,7.557 C31.889,7.422 30.855,7.492 29.874,7.719 C29.068,4.259 26.195,1.496 22.464,1.023 C22.091,0.975 21.721,0.952 21.355,0.952 C19.153,0.952 17.102,1.786 15.538,3.183" id="path-25"></path>
        <path d="M15.538,3.183 C14.755,2.894 13.934,2.679 13.069,2.57 C6.937,1.79 1.335,6.13 0.556,12.263 C-0.222,18.394 4.118,23.997 10.25,24.775 C11.971,24.994 13.646,24.797 15.188,24.282 C16.553,25.166 18.125,25.775 19.847,25.994 C22.767,26.364 25.562,25.565 27.777,23.972 C28.678,24.446 29.673,24.778 30.742,24.914 C35.535,25.522 39.914,22.13 40.522,17.337 C41.131,12.544 37.739,8.165 32.945,7.557 C31.889,7.422 30.855,7.492 29.874,7.719 C29.068,4.259 26.195,1.496 22.464,1.023 C22.091,0.975 21.721,0.952 21.355,0.952 C19.153,0.952 17.102,1.786 15.538,3.183" id="path-27"></path>
        <path d="M15.538,3.183 C14.755,2.894 13.934,2.679 13.069,2.57 C6.937,1.79 1.335,6.13 0.556,12.263 C-0.222,18.394 4.118,23.997 10.25,24.775 C11.971,24.994 13.646,24.797 15.188,24.282 C16.553,25.166 18.125,25.775 19.847,25.994 C22.767,26.364 25.562,25.565 27.777,23.972 C28.678,24.446 29.673,24.778 30.742,24.914 C35.535,25.522 39.914,22.13 40.522,17.337 C41.131,12.544 37.739,8.165 32.945,7.557 C31.889,7.422 30.855,7.492 29.874,7.719 C29.068,4.259 26.195,1.496 22.464,1.023 C22.091,0.975 21.721,0.952 21.355,0.952 C19.153,0.952 17.102,1.786 15.538,3.183" id="path-29"></path>
    </defs>
    <g id="Custom-Preset" stroke="none" stroke-width="1" fill="none" fill-rule="evenodd">
        <g id="thought_bubble" transform="translate(12.000000, 0.000000)">
            <g id="Group-14">
                <path d="M17.1608,36.1826 C16.9398,37.9146 15.3578,39.1406 13.6268,38.9206 C11.8938,38.7006 10.6688,37.1186 10.8888,35.3856 C11.1078,33.6546 12.6898,32.4286 14.4228,32.6486 C16.1548,32.8686 17.3808,34.4506 17.1608,36.1826" id="Fill-4" fill="#A5D9E4"></path>
                <path d="M17.1608,36.1826 C16.9398,37.9146 15.3578,39.1406 13.6268,38.9206 C11.8938,38.7006 10.6688,37.1186 10.8888,35.3856 C11.1078,33.6546 12.6898,32.4286 14.4228,32.6486 C16.1548,32.8686 17.3808,34.4506 17.1608,36.1826 Z" id="Stroke-6" stroke="#2F3061" stroke-linecap="round" stroke-linejoin="round"></path>
                <path d="M7.9684,40.5967 C7.8454,41.5677 6.9584,42.2547 5.9874,42.1317 C5.0154,42.0087 4.3284,41.1207 4.4514,40.1497 C4.5744,39.1787 5.4624,38.4917 6.4334,38.6147 C7.4054,38.7387 8.0924,39.6247 7.9684,40.5967" id="Fill-8" fill="#A5D9E4"></path>
                <path d="M7.9684,40.5967 C7.8454,41.5677 6.9584,42.2547 5.9874,42.1317 C5.0154,42.0087 4.3284,41.1207 4.4514,40.1497 C4.5744,39.1787 5.4624,38.4917 6.4334,38.6147 C7.4054,38.7387 8.0924,39.6247 7.9684,40.5967 Z" id="Stroke-10" stroke="#2F3061" stroke-linecap="round" stroke-linejoin="round"></path>
                <path d="M34.945,12.5566 C33.888,12.4216 32.855,12.4926 31.875,12.7196 C31.068,9.2586 28.195,6.4956 24.464,6.0226 C21.848,5.6906 19.362,6.5546 17.539,8.1826 C16.756,7.8936 15.933,7.6786 15.069,7.5696 C8.937,6.7896 3.335,11.1296 2.556,17.2626 C1.778,23.3946 6.118,28.9966 12.25,29.7756 C13.97,29.9936 15.645,29.7966 17.188,29.2826 C18.553,30.1656 20.125,30.7756 21.846,30.9936 C24.767,31.3646 27.561,30.5646 29.777,28.9716 C30.678,29.4466 31.673,29.7786 32.742,29.9136 C37.535,30.5226 41.914,27.1296 42.522,22.3366 C43.131,17.5436 39.739,13.1646 34.945,12.5566" id="Fill-12" fill="#A5D9E4"></path>
            </g>
            <g id="Group-68" transform="translate(2.000000, 5.000000)">
                <g id="Group-17">
                    <mask id="mask-2" fill="white">
                        <use xlink:href="#path-1"></use>
                    </mask>
                    <g id="Clip-16"></g>
                    <polygon id="Fill-15" fill="#E2EFF3" mask="url(#mask-2)" points="24.6051 6.0869 28.5701 21.7759 14.5441 25.3199 9.7051 6.1709 20.2701 3.5009"></polygon>
                </g>
                <g id="Group-20">
                    <mask id="mask-4" fill="white">
                        <use xlink:href="#path-3"></use>
                    </mask>
                    <g id="Clip-19"></g>
                    <polygon id="Stroke-18" stroke="#2F3061" stroke-linecap="round" stroke-linejoin="round" mask="url(#mask-4)" points="24.6051 6.0869 28.5701 21.7759 14.5441 25.3199 9.7051 6.1709 20.2701 3.5009"></polygon>
                </g>
                <g id="Group-23">
                    <mask id="mask-6" fill="white">
                        <use xlink:href="#path-5"></use>
                    </mask>
                    <g id="Clip-22"></g>
                    <polygon id="Fill-21" fill="#2F3061" mask="url(#mask-6)" points="24.6051 6.0869 21.1451 6.9609 20.2701 3.5009"></polygon>
                </g>
                <g id="Group-26">
                    <mask id="mask-8" fill="white">
                        <use xlink:href="#path-7"></use>
                    </mask>
                    <g id="Clip-25"></g>
                    <polygon id="Stroke-24" stroke="#2F3061" stroke-linecap="round" stroke-linejoin="round" mask="url(#mask-8)" points="24.6051 6.0869 21.1451 6.9609 20.2701 3.5009"></polygon>
                </g>
                <g id="Group-30">
                    <mask id="mask-10" fill="white">
                        <use xlink:href="#path-9"></use>
                    </mask>
                    <g id="Clip-28"></g>
                    <path d="M12.2858,7.957 L18.5428,6.376" id="Fill-27" fill="#2F3061" mask="url(#mask-10)"></path>
                    <path d="M12.2858,7.957 L18.5428,6.376" id="Stroke-29" stroke="#2F3061" stroke-linecap="round" stroke-linejoin="round" mask="url(#mask-10)"></path>
                </g>
                <g id="Group-34">
                    <mask id="mask-12" fill="white">
                        <use xlink:href="#path-11"></use>
                    </mask>
                    <g id="Clip-32"></g>
                    <path d="M12.7702,9.8721 L19.0262,8.2911" id="Fill-31" fill="#2F3061" mask="url(#mask-12)"></path>
                    <path d="M12.7702,9.8721 L19.0262,8.2911" id="Stroke-33" stroke="#2F3061" stroke-linecap="round" stroke-linejoin="round" mask="url(#mask-12)"></path>
                </g>
                <g id="Group-38">
                    <mask id="mask-14" fill="white">
                        <use xlink:href="#path-13"></use>
                    </mask>
                    <g id="Clip-36"></g>
                    <path d="M13.2536,11.7871 L23.2776,9.2531" id="Fill-35" fill="#2F3061" mask="url(#mask-14)"></path>
                    <path d="M13.2536,11.7871 L23.2776,9.2531" id="Stroke-37" stroke="#2F3061" stroke-linecap="round" stroke-linejoin="round" mask="url(#mask-14)"></path>
                </g>
                <g id="Group-42">
                    <mask id="mask-16" fill="white">
                        <use xlink:href="#path-15"></use>
                    </mask>
                    <g id="Clip-40"></g>
                    <path d="M13.738,13.7021 L23.762,11.1681" id="Fill-39" fill="#2F3061" mask="url(#mask-16)"></path>
                    <path d="M13.738,13.7021 L23.762,11.1681" id="Stroke-41" stroke="#2F3061" stroke-linecap="round" stroke-linejoin="round" mask="url(#mask-16)"></path>
                </g>
                <g id="Group-46">
                    <mask id="mask-18" fill="white">
                        <use xlink:href="#path-17"></use>
                    </mask>
                    <g id="Clip-44"></g>
                    <path d="M14.2214,15.6162 L24.2464,13.0832" id="Fill-43" fill="#2F3061" mask="url(#mask-18)"></path>
                    <path d="M14.2214,15.6162 L24.2464,13.0832" id="Stroke-45" stroke="#2F3061" stroke-linecap="round" stroke-linejoin="round" mask="url(#mask-18)"></path>
                </g>
                <g id="Group-50">
                    <mask id="mask-20" fill="white">
                        <use xlink:href="#path-19"></use>
                    </mask>
                    <g id="Clip-48"></g>
                    <path d="M14.7057,17.5312 L24.7297,14.9982" id="Fill-47" fill="#2F3061" mask="url(#mask-20)"></path>
                    <path d="M14.7057,17.5312 L24.7297,14.9982" id="Stroke-49" stroke="#2F3061" stroke-linecap="round" stroke-linejoin="round" mask="url(#mask-20)"></path>
                </g>
                <g id="Group-54">
                    <mask id="mask-22" fill="white">
                        <use xlink:href="#path-21"></use>
                    </mask>
                    <g id="Clip-52"></g>
                    <path d="M15.1901,19.4463 L19.0451,18.4723" id="Fill-51" fill="#2F3061" mask="url(#mask-22)"></path>
                    <path d="M15.1901,19.4463 L19.0451,18.4723" id="Stroke-53" stroke="#2F3061" stroke-linecap="round" stroke-linejoin="round" mask="url(#mask-22)"></path>
                </g>
                <g id="Group-57">
                    <mask id="mask-24" fill="white">
                        <use xlink:href="#path-23"></use>
                    </mask>
                    <g id="Clip-56"></g>
                    <path d="M21.9694,19.7822 L20.1534,18.1922" id="Fill-55" fill="#2F3061" mask="url(#mask-24)"></path>
                </g>
                <g id="Group-60">
                    <mask id="mask-26" fill="white">
                        <use xlink:href="#path-25"></use>
                    </mask>
                    <g id="Clip-59"></g>
                    <path d="M21.3678,20.4697 L20.1528,18.1927 L22.5718,19.0947 C23.0208,19.1767 23.2268,19.6487 23.0328,20.1487 C22.8378,20.6487 22.3138,20.9877 21.8648,20.9057 C21.6158,20.8607 21.4408,20.6927 21.3678,20.4697" id="Fill-58" fill="#2F3061" mask="url(#mask-26)"></path>
                </g>
                <g id="Group-64">
                    <mask id="mask-28" fill="white">
                        <use xlink:href="#path-27"></use>
                    </mask>
                    <g id="Clip-62"></g>
                    <path d="M22.2516,20.0293 L29.7986,26.6363" id="Fill-61" fill="#2F3061" mask="url(#mask-28)"></path>
                    <path d="M22.2516,20.0293 L29.7986,26.6363" id="Stroke-63" stroke="#2F3061" stroke-width="2" stroke-linecap="round" stroke-linejoin="round" mask="url(#mask-28)"></path>
                </g>
                <g id="Group-67">
                    <mask id="mask-30" fill="white">
                        <use xlink:href="#path-29"></use>
                    </mask>
                    <g id="Clip-66"></g>
                    <path d="M22.2516,20.0293 L29.7986,26.6363" id="Stroke-65" stroke="#E2EFF3" stroke-width="0.75" stroke-linecap="round" stroke-linejoin="round" mask="url(#mask-30)"></path>
                </g>
            </g>
            <path d="M34.945,12.5566 C33.888,12.4216 32.855,12.4926 31.875,12.7196 C31.068,9.2586 28.195,6.4956 24.464,6.0226 C21.848,5.6906 19.362,6.5546 17.539,8.1826 C16.756,7.8936 15.933,7.6786 15.069,7.5696 C8.937,6.7896 3.335,11.1296 2.556,17.2626 C1.778,23.3946 6.118,28.9966 12.25,29.7756 C13.97,29.9936 15.645,29.7966 17.188,29.2826 C18.553,30.1656 20.125,30.7756 21.846,30.9936 C24.767,31.3646 27.561,30.5646 29.777,28.9716 C30.678,29.4466 31.673,29.7786 32.742,29.9136 C37.535,30.5226 41.914,27.1296 42.522,22.3366 C43.131,17.5436 39.739,13.1646 34.945,12.5566 Z" id="Stroke-69" stroke="#2F3061" stroke-linecap="round" stroke-linejoin="round"></path>
        </g>
    </g>
</svg>