<?xml version="1.0" encoding="UTF-8"?>
<svg width="112px" height="112px" viewBox="0 0 112 112" version="1.1" xmlns="http://www.w3.org/2000/svg" xmlns:xlink="http://www.w3.org/1999/xlink">
    <!-- Generator: Sketch 50.2 (55047) - http://www.bohemiancoding.com/sketch -->
    <title>Artboard</title>
    <desc>Created with Sketch.</desc>
    <defs></defs>
    <g id="Artboard" stroke="none" stroke-width="1" fill="none" fill-rule="evenodd" opacity="0.35">
        <g id="Page-1" transform="translate(60.000000, 58.000000) rotate(-15.000000) translate(-60.000000, -58.000000) translate(7.000000, 4.000000)">
            <path d="M52.0561,52.3457 C52.0561,60.5727 45.3871,67.2417 37.1601,67.2417 C28.9341,67.2417 22.2651,60.5727 22.2651,52.3457 C22.2651,44.1187 28.9341,37.4497 37.1601,37.4497 C45.3871,37.4497 52.0561,44.1187 52.0561,52.3457 Z" id="Stroke-1" stroke="#979797" stroke-width="4" stroke-linecap="round" stroke-linejoin="round"></path>
            <g id="Group-6" transform="translate(0.000000, 0.848000)">
                <path d="M6.3012,43.3141 C5.6622,45.0071 4.8852,45.9931 4.0382,45.9931 C1.8042,45.9931 0.0002,39.0251 0.0002,30.4491 C0.0002,21.8581 1.8042,14.9051 4.0382,14.9051 C4.8852,14.9051 5.6622,15.8911 6.3152,17.5841 L69.9192,0.4441 C66.0882,2.4701 63.1322,15.1271 63.1322,30.4491 C63.1322,45.7571 66.0882,58.4141 69.9192,60.4541 L6.3012,43.3141" id="Fill-3" fill="#B8B8B8"></path>
                <path d="M6.3012,43.3141 C5.6622,45.0071 4.8852,45.9931 4.0382,45.9931 C1.8042,45.9931 0.0002,39.0251 0.0002,30.4491 C0.0002,21.8581 1.8042,14.9051 4.0382,14.9051 C4.8852,14.9051 5.6622,15.8911 6.3152,17.5841 L69.9192,0.4441 C66.0882,2.4701 63.1322,15.1271 63.1322,30.4491 C63.1322,45.7571 66.0882,58.4141 69.9192,60.4541 L6.3012,43.3141" id="Stroke-5" stroke="#979797" stroke-width="2" stroke-linecap="round" stroke-linejoin="round"></path>
            </g>
            <path d="M78.8705,31.2969 C78.8705,48.0209 75.3465,61.5929 71.0015,61.5929 L69.9195,61.3019 C66.0885,59.2619 63.1325,46.6049 63.1325,31.2969 C63.1325,15.9749 66.0885,3.3179 69.9195,1.2919 L71.0015,1.0009 C75.3465,1.0009 78.8705,14.5599 78.8705,31.2969" id="Fill-7" fill="#979797"></path>
            <path d="M78.8705,31.2969 C78.8705,48.0209 75.3465,61.5929 71.0015,61.5929 L69.9195,61.3019 C66.0885,59.2619 63.1325,46.6049 63.1325,31.2969 C63.1325,15.9749 66.0885,3.3179 69.9195,1.2919 L71.0015,1.0009 C75.3465,1.0009 78.8705,14.5599 78.8705,31.2969 Z" id="Stroke-9" stroke="#979797" stroke-width="2" stroke-linecap="round" stroke-linejoin="round"></path>
            <path d="M74.0053,31.2969 C74.0053,33.6009 72.1313,35.4609 69.8413,35.4609 L64.0123,35.4609 C64.0123,35.4609 63.9493,34.4319 63.9493,31.2969 C63.9493,28.1619 64.0123,27.1329 64.0123,27.1329 L69.8413,27.1329 C72.1313,27.1329 74.0053,29.0069 74.0053,31.2969" id="Fill-11" fill="#F2F8FA"></path>
            <g id="Group-16" transform="translate(16.000000, 21.848000)">
                <path d="M10.0238,0.3605 L0.4848,1.6455" id="Fill-13" fill="#A5D9E4"></path>
                <path d="M10.0238,0.3605 L0.4848,1.6455" id="Stroke-15" stroke="#979797" stroke-width="2" stroke-linecap="round" stroke-linejoin="round"></path>
            </g>
            <g id="Group-20" transform="translate(44.000000, 16.848000)">
                <path d="M20.0512,0.237 L0.9852,2.806" id="Fill-17" fill="#E2EFF3"></path>
                <path d="M20.0512,0.237 L0.9852,2.806" id="Stroke-19" stroke="#979797" stroke-width="2" stroke-linecap="round" stroke-linejoin="round"></path>
            </g>
            <g id="Group-24" transform="translate(21.000000, 30.848000)">
                <path d="M33.518,0.4489 L0.254,0.4489" id="Fill-21" fill="#E2EFF3"></path>
                <path d="M33.518,0.4489 L0.254,0.4489" id="Stroke-23" stroke="#979797" stroke-width="2" stroke-linecap="round" stroke-linejoin="round"></path>
            </g>
            <g id="Group-28" transform="translate(16.000000, 38.848000)">
                <path d="M21.8861,3.1364 L0.4851,0.2534" id="Fill-25" fill="#E2EFF3"></path>
                <path d="M21.8861,3.1364 L0.4851,0.2534" id="Stroke-27" stroke="#979797" stroke-width="2" stroke-linecap="round" stroke-linejoin="round"></path>
            </g>
            <g id="Group-32" transform="translate(54.000000, 43.848000)">
                <path d="M10.0512,1.6608 L0.5182,0.3768" id="Fill-29" fill="#E2EFF3"></path>
                <path d="M10.0512,1.6608 L0.5182,0.3768" id="Stroke-31" stroke="#979797" stroke-width="2" stroke-linecap="round" stroke-linejoin="round"></path>
            </g>
            <g id="Group-36" transform="translate(4.000000, 21.848000)">
                <path d="M0.6654,9.4489 C0.6654,6.0539 0.9474,2.9159 1.4264,0.3609" id="Fill-33" fill="#E2EFF3"></path>
                <path d="M0.6654,9.4489 C0.6654,6.0539 0.9474,2.9159 1.4264,0.3609" id="Stroke-35" stroke="#979797" stroke-width="2" stroke-linecap="round" stroke-linejoin="round"></path>
            </g>
            <g id="Group-40" transform="translate(5.000000, 37.848000)">
                <path d="M1.4213,6.2756 C0.8303,4.7136 0.3533,2.5626 0.0453,0.0436" id="Fill-37" fill="#E2EFF3"></path>
                <path d="M1.4213,6.2756 C0.8303,4.7136 0.3533,2.5626 0.0453,0.0436" id="Stroke-39" stroke="#979797" stroke-width="2" stroke-linecap="round" stroke-linejoin="round"></path>
            </g>
            <g id="Group-44" transform="translate(86.000000, 10.848000)">
                <path d="M19.4613,0.5021 L0.8413,3.0111" id="Fill-41" fill="#E2EFF3"></path>
                <path d="M19.4613,0.5021 L0.8413,3.0111" id="Stroke-43" stroke="#B8B8B8" stroke-width="2" stroke-linecap="round" stroke-linejoin="round"></path>
            </g>
            <g id="Group-48" transform="translate(86.000000, 30.848000)">
                <path d="M19.4613,0.4294 L0.8413,0.4294" id="Fill-45" fill="#E2EFF3"></path>
                <path d="M19.4613,0.4294 L0.8413,0.4294" id="Stroke-47" stroke="#B8B8B8" stroke-width="2" stroke-linecap="round" stroke-linejoin="round"></path>
            </g>
            <g id="Group-52" transform="translate(86.000000, 47.848000)">
                <path d="M19.4613,3.3561 L0.8413,0.8481" id="Fill-49" fill="#E2EFF3"></path>
                <path d="M19.4613,3.3561 L0.8413,0.8481" id="Stroke-51" stroke="#B8B8B8" stroke-width="2" stroke-linecap="round" stroke-linejoin="round"></path>
            </g>
            <polygon id="Fill-53" fill="#B8B8B8" points="45.8607 60.2852 44.2417 107.8502 27.7217 107.8502 26.4297 83.4452 24.8057 83.4452 24.8057 81.3242 23.9837 81.3242 23.9837 67.7132 26.4297 67.7132 26.4297 60.2852"></polygon>
            <g id="Group-58" transform="translate(36.000000, 55.848000)">
                <path d="M0.6049,8.6384 L0.6049,3.5364 C0.6049,1.6854 2.1049,0.1864 3.9559,0.1864 C5.8049,0.1864 7.3049,1.6854 7.3049,3.5364 L7.3049,8.6384" id="Fill-55" fill="#B8B8B8"></path>
                <path d="M0.6049,8.6384 L0.6049,3.5364 C0.6049,1.6854 2.1049,0.1864 3.9559,0.1864 C5.8049,0.1864 7.3049,1.6854 7.3049,3.5364 L7.3049,8.6384" id="Stroke-57" stroke="#979797" stroke-width="2" stroke-linecap="round" stroke-linejoin="round"></path>
            </g>
            <g id="Group-62" transform="translate(29.000000, 55.848000)">
                <path d="M0.9047,8.6384 L0.9047,3.5364 C0.9047,1.6854 2.4047,0.1864 4.2557,0.1864 C6.1047,0.1864 7.6047,1.6854 7.6047,3.5364 L7.6047,8.6384" id="Fill-59" fill="#B8B8B8"></path>
                <path d="M0.9047,8.6384 L0.9047,3.5364 C0.9047,1.6854 2.4047,0.1864 4.2557,0.1864 C6.1047,0.1864 7.6047,1.6854 7.6047,3.5364 L7.6047,8.6384" id="Stroke-61" stroke="#979797" stroke-width="2" stroke-linecap="round" stroke-linejoin="round"></path>
            </g>
            <g id="Group-66" transform="translate(18.000000, 59.848000)">
                <path d="M9.8461,48.0002 L8.5551,27.4122 C8.5551,25.9362 8.1731,23.8942 6.6711,22.3472 C2.4591,18.0102 0.8081,6.8202 0.8081,6.8202 C0.3661,4.2062 0.6001,2.3132 2.6301,1.2892 C3.3921,0.9042 4.4171,0.7792 5.2041,0.8792" id="Fill-63" fill="#B8B8B8"></path>
                <path d="M9.8461,48.0002 L8.5551,27.4122 C8.5551,25.9362 8.1731,23.8942 6.6711,22.3472 C2.4591,18.0102 0.8081,6.8202 0.8081,6.8202 C0.3661,4.2062 0.6001,2.3132 2.6301,1.2892 C3.3921,0.9042 4.4171,0.7792 5.2041,0.8792" id="Stroke-65" stroke="#979797" stroke-width="2" stroke-linecap="round" stroke-linejoin="round"></path>
            </g>
            <g id="Group-70" transform="translate(23.000000, 55.848000)">
                <path d="M0.2055,16.2878 L0.2045,9.4158 L0.2045,3.5368 C0.2045,1.6858 1.7045,0.1858 3.5555,0.1858 C5.4045,0.1858 6.9045,1.6858 6.9045,3.5368 L6.9045,8.6388" id="Fill-67" fill="#B8B8B8"></path>
                <path d="M0.2055,16.2878 L0.2045,9.4158 L0.2045,3.5368 C0.2045,1.6858 1.7045,0.1858 3.5555,0.1858 C5.4045,0.1858 6.9045,1.6858 6.9045,3.5368 L6.9045,8.6388" id="Stroke-69" stroke="#979797" stroke-width="2" stroke-linecap="round" stroke-linejoin="round"></path>
            </g>
            <g id="Group-74" transform="translate(43.000000, 58.848000)">
                <path d="M0.3051,5.6384 L0.3051,3.4124 C0.3051,1.5624 1.8051,0.0624 3.6561,0.0624 C5.5051,0.0624 7.0051,1.5624 7.0051,3.4124 L7.0051,10.6724 C7.0051,15.9384 3.8361,21.4324 2.8611,24.8844 C2.1311,27.4674 2.0351,49.0004 2.0351,49.0004" id="Fill-71" fill="#B8B8B8"></path>
                <path d="M0.3051,5.6384 L0.3051,3.4124 C0.3051,1.5624 1.8051,0.0624 3.6561,0.0624 C5.5051,0.0624 7.0051,1.5624 7.0051,3.4124 L7.0051,10.6724 C7.0051,15.9384 3.8361,21.4324 2.8611,24.8844 C2.1311,27.4674 2.0351,49.0004 2.0351,49.0004" id="Stroke-73" stroke="#979797" stroke-width="2" stroke-linecap="round" stroke-linejoin="round"></path>
            </g>
            <path d="M27.1518,65.4561 C27.1518,65.8531 26.8298,66.1751 26.4318,66.1751 C26.0358,66.1751 25.7138,65.8531 25.7138,65.4561 C25.7138,65.0591 26.0358,64.7371 26.4318,64.7371 C26.8298,64.7371 27.1518,65.0591 27.1518,65.4561" id="Fill-75" fill="#F2F8FA"></path>
            <path d="M33.974,65.4561 C33.974,65.8531 33.652,66.1751 33.255,66.1751 C32.858,66.1751 32.536,65.8531 32.536,65.4561 C32.536,65.0591 32.858,64.7371 33.255,64.7371 C33.652,64.7371 33.974,65.0591 33.974,65.4561" id="Fill-77" fill="#F2F8FA"></path>
            <path d="M40.6127,65.4561 C40.6127,65.8531 40.2917,66.1751 39.8937,66.1751 C39.4967,66.1751 39.1757,65.8531 39.1757,65.4561 C39.1757,65.0591 39.4967,64.7371 39.8937,64.7371 C40.2917,64.7371 40.6127,65.0591 40.6127,65.4561" id="Fill-79" fill="#F2F8FA"></path>
            <path d="M47.4359,65.4561 C47.4359,65.8531 47.1139,66.1751 46.7159,66.1751 C46.3199,66.1751 45.9979,65.8531 45.9979,65.4561 C45.9979,65.0591 46.3199,64.7371 46.7159,64.7371 C47.1139,64.7371 47.4359,65.0591 47.4359,65.4561" id="Fill-81" fill="#F2F8FA"></path>
            <g id="Group-86" transform="translate(33.000000, 85.848000)">
                <path d="M4.4652,0.8947 C3.4332,0.9687 2.2752,1.0107 0.9742,1.0107" id="Fill-83" fill="#E2EFF3"></path>
                <path d="M4.4652,0.8947 C3.4332,0.9687 2.2752,1.0107 0.9742,1.0107" id="Stroke-85" stroke="#979797" stroke-width="2" stroke-linecap="round" stroke-linejoin="round"></path>
            </g>
            <g id="Group-90" transform="translate(42.000000, 82.848000)">
                <path d="M3.8607,0.8844 C3.8607,0.8844 3.5827,2.2764 0.0527,3.2024" id="Fill-87" fill="#E2EFF3"></path>
                <path d="M3.8607,0.8844 C3.8607,0.8844 3.5827,2.2764 0.0527,3.2024" id="Stroke-89" stroke="#979797" stroke-width="2" stroke-linecap="round" stroke-linejoin="round"></path>
            </g>
            <g id="Group-94" transform="translate(41.000000, 90.848000)">
                <path d="M4.2113,0.1051 C4.2113,0.1051 3.9333,1.4971 0.4023,2.4231" id="Fill-91" fill="#E2EFF3"></path>
                <path d="M4.2113,0.1051 C4.2113,0.1051 3.9333,1.4971 0.4023,2.4231" id="Stroke-93" stroke="#979797" stroke-width="2" stroke-linecap="round" stroke-linejoin="round"></path>
            </g>
        </g>
    </g>
</svg>