<?xml version="1.0" encoding="UTF-8"?>
<svg width="140px" height="140px" viewBox="0 0 140 140" version="1.1" xmlns="http://www.w3.org/2000/svg" xmlns:xlink="http://www.w3.org/1999/xlink">
    <!-- Generator: Sketch 50.2 (55047) - http://www.bohemiancoding.com/sketch -->
    <title>Page 1</title>
    <desc>Created with Sketch.</desc>
    <defs>
        <polygon id="path-1" points="0.0001 0.0001 140 0.0001 140 140 0.0001 140"></polygon>
    </defs>
    <g id="smileys" stroke="none" stroke-width="1" fill="none" fill-rule="evenodd">
        <g id="Artboard">
            <g id="Page-1">
                <g id="Group-3">
                    <mask id="mask-2" fill="white">
                        <use xlink:href="#path-1"></use>
                    </mask>
                    <g id="Clip-2"></g>
                    <path d="M140.0001,70.0001 C140.0001,108.6601 108.6601,140.0001 70.0001,140.0001 C31.3401,140.0001 0.0001,108.6601 0.0001,70.0001 C0.0001,31.3401 31.3401,0.0001 70.0001,0.0001 C108.6601,0.0001 140.0001,31.3401 140.0001,70.0001" id="Fill-1" fill="#FFD478" mask="url(#mask-2)"></path>
                </g>
                <path d="M77.4396,127.86 C75.2596,128.32 73.0096,128.58 70.7106,128.62 C68.0006,128.67 65.3596,128.42 62.8096,127.88" id="Stroke-4" stroke="#2F3061" stroke-width="4" stroke-linecap="round" stroke-linejoin="round"></path>
                <path d="M101.2696,83.295 C98.3306,97.845 85.4796,108.795 70.0696,108.795 C54.6496,108.795 41.7996,97.845 38.8596,83.295" id="Stroke-6" stroke="#2F3061" stroke-width="4" stroke-linecap="round" stroke-linejoin="round"></path>
                <path d="M52.6769,54.524 C52.6769,57.104 51.6379,59.444 49.9479,61.134 C48.2469,59.424 45.8979,58.364 43.2969,58.364 C40.6979,58.364 38.3469,59.424 36.6479,61.134 C34.9569,59.444 33.9169,57.104 33.9169,54.524 C33.9169,49.344 38.1169,45.134 43.2969,45.134 C48.4779,45.134 52.6769,49.344 52.6769,54.524" id="Fill-8" fill="#2F3061"></path>
                <path d="M32.4503,44.1232 C34.2323,41.1522 37.2293,38.9282 40.9023,38.2392 C44.3083,37.6012 47.6513,38.4032 50.3033,40.2162" id="Stroke-10" stroke="#2F3061" stroke-width="4" stroke-linecap="round" stroke-linejoin="round"></path>
                <path d="M106.297,54.524 C106.297,57.104 105.257,59.444 103.568,61.134 C101.867,59.424 99.517,58.364 96.917,58.364 C94.318,58.364 91.968,59.424 90.267,61.134 C88.577,59.444 87.537,57.104 87.537,54.524 C87.537,49.344 91.737,45.134 96.917,45.134 C102.097,45.134 106.297,49.344 106.297,54.524" id="Fill-12" fill="#2F3061"></path>
                <path d="M107.7608,44.1232 C105.9788,41.1522 102.9818,38.9282 99.3088,38.2392 C95.9028,37.6012 92.5598,38.4032 89.9088,40.2162" id="Stroke-14" stroke="#2F3061" stroke-width="4" stroke-linecap="round" stroke-linejoin="round"></path>
                <path d="M130.0001,68.4498 C130.0001,71.5718 127.4691,74.1018 124.3481,74.1018 C121.2261,74.1018 118.6951,71.5718 118.6951,68.4498 C118.6951,65.3278 121.2261,62.7978 124.3481,62.7978 C127.4691,62.7978 130.0001,65.3278 130.0001,68.4498" id="Fill-16" fill="#DBAD4A"></path>
                <path d="M21.3048,68.4498 C21.3048,71.5718 18.7748,74.1018 15.6528,74.1018 C12.5308,74.1018 9.9998,71.5718 9.9998,68.4498 C9.9998,65.3278 12.5308,62.7978 15.6528,62.7978 C18.7748,62.7978 21.3048,65.3278 21.3048,68.4498" id="Fill-18" fill="#DBAD4A"></path>
                <path d="M59.5597,8.2501 C62.9507,7.6801 66.4397,7.3801 69.9997,7.3801 C73.5597,7.3801 77.0497,7.6801 80.4397,8.2501" id="Stroke-20" stroke="#DBAD4A" stroke-width="4" stroke-linecap="round" stroke-linejoin="round"></path>
            </g>
        </g>
    </g>
</svg>