<?xml version="1.0" encoding="UTF-8"?>
<svg width="140px" height="140px" viewBox="0 0 140 140" version="1.1" xmlns="http://www.w3.org/2000/svg" xmlns:xlink="http://www.w3.org/1999/xlink">
    <!-- Generator: Sketch 50.2 (55047) - http://www.bohemiancoding.com/sketch -->
    <title>Page 1</title>
    <desc>Created with Sketch.</desc>
    <defs>
        <polygon id="path-1" points="0.0001 0.0001 140 0.0001 140 140 0.0001 140"></polygon>
    </defs>
    <g id="smileys" stroke="none" stroke-width="1" fill="none" fill-rule="evenodd">
        <g id="Artboard">
            <g id="Page-1">
                <g id="Group-3">
                    <mask id="mask-2" fill="white">
                        <use xlink:href="#path-1"></use>
                    </mask>
                    <g id="Clip-2"></g>
                    <path d="M140.0001,70.0001 C140.0001,108.6601 108.6601,140.0001 70.0001,140.0001 C31.3401,140.0001 0.0001,108.6601 0.0001,70.0001 C0.0001,31.3401 31.3401,0.0001 70.0001,0.0001 C108.6601,0.0001 140.0001,31.3401 140.0001,70.0001" id="Fill-1" fill="#FFD478" mask="url(#mask-2)"></path>
                </g>
                <path d="M77.4396,127.86 C75.2596,128.32 73.0096,128.58 70.7106,128.62 C68.0006,128.67 65.3596,128.42 62.8096,127.88" id="Stroke-4" stroke="#2F3061" stroke-width="4" stroke-linecap="round" stroke-linejoin="round"></path>
                <path d="M38.8595,98.4689 L101.2695,98.4689" id="Stroke-6" stroke="#2F3061" stroke-width="4" stroke-linecap="round" stroke-linejoin="round"></path>
                <path d="M52.672,53.9044 C52.672,59.0844 48.473,63.2844 43.292,63.2844 C38.111,63.2844 33.912,59.0844 33.912,53.9044 C33.912,48.7234 38.111,44.5244 43.292,44.5244 C48.473,44.5244 52.672,48.7234 52.672,53.9044" id="Fill-8" fill="#2F3061"></path>
                <path d="M106.297,53.9044 C106.297,59.0844 102.098,63.2844 96.917,63.2844 C91.736,63.2844 87.537,59.0844 87.537,53.9044 C87.537,48.7234 91.736,44.5244 96.917,44.5244 C102.098,44.5244 106.297,48.7234 106.297,53.9044" id="Fill-10" fill="#2F3061"></path>
                <path d="M130.0001,68.4498 C130.0001,71.5718 127.4691,74.1018 124.3481,74.1018 C121.2261,74.1018 118.6951,71.5718 118.6951,68.4498 C118.6951,65.3278 121.2261,62.7978 124.3481,62.7978 C127.4691,62.7978 130.0001,65.3278 130.0001,68.4498" id="Fill-12" fill="#DBAD4A"></path>
                <path d="M21.3048,68.4498 C21.3048,71.5718 18.7748,74.1018 15.6528,74.1018 C12.5308,74.1018 9.9998,71.5718 9.9998,68.4498 C9.9998,65.3278 12.5308,62.7978 15.6528,62.7978 C18.7748,62.7978 21.3048,65.3278 21.3048,68.4498" id="Fill-14" fill="#DBAD4A"></path>
                <path d="M59.5597,8.2501 C62.9507,7.6801 66.4397,7.3801 69.9997,7.3801 C73.5597,7.3801 77.0497,7.6801 80.4397,8.2501" id="Stroke-16" stroke="#DBAD4A" stroke-width="4" stroke-linecap="round" stroke-linejoin="round"></path>
            </g>
        </g>
    </g>
</svg>