<?xml version="1.0" encoding="UTF-8"?>
<svg width="140px" height="140px" viewBox="0 0 140 140" version="1.1" xmlns="http://www.w3.org/2000/svg" xmlns:xlink="http://www.w3.org/1999/xlink">
    <!-- Generator: Sketch 50.2 (55047) - http://www.bohemiancoding.com/sketch -->
    <title>Page 1</title>
    <desc>Created with Sketch.</desc>
    <defs>
        <polygon id="path-1" points="0 0.0001 139.9998 0.0001 139.9998 140 0 140"></polygon>
    </defs>
    <g id="smileys" stroke="none" stroke-width="1" fill="none" fill-rule="evenodd">
        <g id="Artboard">
            <g id="Page-1">
                <g id="Group-3">
                    <mask id="mask-2" fill="white">
                        <use xlink:href="#path-1"></use>
                    </mask>
                    <g id="Clip-2"></g>
                    <path d="M139.9998,70.0001 C139.9998,108.6601 108.6598,140.0001 69.9998,140.0001 C31.3398,140.0001 -0.0002,108.6601 -0.0002,70.0001 C-0.0002,31.3401 31.3398,0.0001 69.9998,0.0001 C108.6598,0.0001 139.9998,31.3401 139.9998,70.0001" id="Fill-1" fill="#FFD478" mask="url(#mask-2)"></path>
                </g>
                <path d="M62.8103,128.6261 C64.9903,128.1661 67.2403,127.9061 69.5393,127.8661 C72.2493,127.8161 74.8903,128.0661 77.4403,128.6061" id="Stroke-4" stroke="#2F3061" stroke-width="4" stroke-linecap="round" stroke-linejoin="round"></path>
                <path d="M37.6365,107.548 C38.2165,104.675 41.4945,102.943 42.7915,100.634 C44.1745,98.172 44.0205,94.482 46.0845,92.663 C48.1305,90.861 51.8175,91.449 54.3985,90.28 C56.8445,89.173 58.7525,85.987 61.5625,85.451 C64.1985,84.947 67.2015,87.17 70.0605,87.17 C72.9185,87.17 75.9225,84.947 78.5585,85.45 C81.3695,85.986 83.2795,89.172 85.7265,90.279 C88.3085,91.447 91.9955,90.86 94.0425,92.662 C96.1085,94.481 95.9535,98.171 97.3375,100.633 C98.6345,102.942 101.9125,104.675 102.4935,107.548" id="Stroke-6" stroke="#2F3061" stroke-width="4" stroke-linecap="round" stroke-linejoin="round"></path>
                <path d="M33.9168,39.6793 C36.9988,41.2623 40.7178,41.5713 44.2008,40.2183 C47.4328,38.9643 49.8488,36.5193 51.1448,33.5793" id="Stroke-8" stroke="#2F3061" stroke-width="4" stroke-linecap="round" stroke-linejoin="round"></path>
                <path d="M52.6775,55.5143 C52.6775,60.6943 48.4775,64.8943 43.2975,64.8943 C38.1165,64.8943 33.9165,60.6943 33.9165,55.5143 C33.9165,50.3333 38.1165,46.1343 43.2975,46.1343 C48.4775,46.1343 52.6775,50.3333 52.6775,55.5143" id="Fill-10" fill="#2F3061"></path>
                <path d="M106.2967,39.6793 C103.2157,41.2623 99.4967,41.5713 96.0137,40.2183 C92.7817,38.9643 90.3657,36.5193 89.0697,33.5793" id="Stroke-12" stroke="#2F3061" stroke-width="4" stroke-linecap="round" stroke-linejoin="round"></path>
                <path d="M87.5369,55.5143 C87.5369,60.6943 91.7369,64.8943 96.9169,64.8943 C102.0979,64.8943 106.2969,60.6943 106.2969,55.5143 C106.2969,50.3333 102.0979,46.1343 96.9169,46.1343 C91.7369,46.1343 87.5369,50.3333 87.5369,55.5143" id="Fill-14" fill="#2F3061"></path>
                <path d="M129.9998,68.4498 C129.9998,71.5718 127.4698,74.1018 124.3478,74.1018 C121.2268,74.1018 118.6948,71.5718 118.6948,68.4498 C118.6948,65.3278 121.2268,62.7978 124.3478,62.7978 C127.4698,62.7978 129.9998,65.3278 129.9998,68.4498" id="Fill-16" fill="#DBAD4A"></path>
                <path d="M59.5603,8.2501 C62.9503,7.6801 66.4403,7.3801 69.9993,7.3801 C73.5603,7.3801 77.0493,7.6801 80.4403,8.2501" id="Stroke-18" stroke="#DBAD4A" stroke-width="4" stroke-linecap="round" stroke-linejoin="round"></path>
                <path d="M21.3045,68.4498 C21.3045,71.5718 18.7745,74.1018 15.6525,74.1018 C12.5315,74.1018 9.9995,71.5718 9.9995,68.4498 C9.9995,65.3278 12.5315,62.7978 15.6525,62.7978 C18.7745,62.7978 21.3045,65.3278 21.3045,68.4498" id="Fill-20" fill="#DBAD4A"></path>
            </g>
        </g>
    </g>
</svg>