<?xml version="1.0" encoding="UTF-8" standalone="no"?>
<svg
   xmlns:dc="http://purl.org/dc/elements/1.1/"
   xmlns:cc="http://creativecommons.org/ns#"
   xmlns:rdf="http://www.w3.org/1999/02/22-rdf-syntax-ns#"
   xmlns:svg="http://www.w3.org/2000/svg"
   xmlns="http://www.w3.org/2000/svg"
   xmlns:sodipodi="http://sodipodi.sourceforge.net/DTD/sodipodi-0.dtd"
   xmlns:inkscape="http://www.inkscape.org/namespaces/inkscape"
   width="68"
   height="68"
   viewBox="0 0 68 68"
   version="1.1"
   id="svg28"
   sodipodi:docname="2.svg"
   inkscape:version="0.92.4 5da689c313, 2019-01-14">
  <metadata
     id="metadata34">
    <rdf:RDF>
      <cc:Work
         rdf:about="">
        <dc:format>image/svg+xml</dc:format>
        <dc:type
           rdf:resource="http://purl.org/dc/dcmitype/StillImage" />
        <dc:title>Artboard</dc:title>
      </cc:Work>
    </rdf:RDF>
  </metadata>
  <defs
     id="defs32" />
  <sodipodi:namedview
     pagecolor="#ffffff"
     bordercolor="#666666"
     borderopacity="1"
     objecttolerance="10"
     gridtolerance="10"
     guidetolerance="10"
     inkscape:pageopacity="0"
     inkscape:pageshadow="2"
     inkscape:window-width="793"
     inkscape:window-height="480"
     id="namedview30"
     showgrid="false"
     inkscape:zoom="6.0811121"
     inkscape:cx="15.088985"
     inkscape:cy="21.5"
     inkscape:window-x="0"
     inkscape:window-y="0"
     inkscape:window-maximized="0"
     inkscape:current-layer="svg28" />
  <!-- Generator: Sketch 52.6 (67491) - http://www.bohemiancoding.com/sketch -->
  <title
     id="title2">Artboard</title>
  <desc
     id="desc4">Created with Sketch.</desc>
  <g
     id="Artboard"
     style="fill:none;fill-rule:evenodd;stroke:none;stroke-width:1"
     transform="translate(0.30125,25.540215)">
    <g
       id="Page-1-Copy-2">
      <path
         d="m 49.8662,35.4235 c 0,0 -1.396,-1.669 -2.905,-1.622 0,0 0.395,-0.084 0.745,-0.445 0,0 -0.312,-0.63 -2.965,-0.995 0,0 0.549,-0.275 0.617,-0.48 0,0 -1.624,-0.686 -2.859,-0.228 0,0 0,-0.297 0.32,-0.526 0,0 -2.996,0.218 -4.391,1.918 0,0 2.929,2.337 6.956,2.93 0,0 -2.951,0.779 -7.321,-1.941 0,0 -0.455,3.775 2.885,4.962 0,0 -0.275,-0.48 -0.252,-1.052 0,0 1.67,1.509 3.111,1.188 0,0 -0.389,-0.389 -0.503,-0.686 0,0 2.012,0.456 4.345,-0.071 0,0 -0.458,-0.137 -0.755,-0.64 0,0 1.875,-0.161 2.972,-2.312"
         id="Fill-1"
         inkscape:connector-curvature="0"
         style="fill:#dc9fff" />
      <path
         d="m 49.8662,35.4235 c 0,0 -1.396,-1.669 -2.905,-1.622 0,0 0.395,-0.084 0.745,-0.445 0,0 -0.312,-0.63 -2.965,-0.995 0,0 0.549,-0.275 0.617,-0.48 0,0 -1.624,-0.686 -2.859,-0.228 0,0 0,-0.297 0.32,-0.526 0,0 -2.996,0.218 -4.391,1.918 0,0 2.929,2.337 6.956,2.93 0,0 -2.951,0.779 -7.321,-1.941 0,0 -0.455,3.775 2.885,4.962 0,0 -0.275,-0.48 -0.252,-1.052 0,0 1.67,1.509 3.111,1.188 0,0 -0.389,-0.389 -0.503,-0.686 0,0 2.012,0.456 4.345,-0.071 0,0 -0.458,-0.137 -0.755,-0.64 0,0 1.875,-0.161 2.972,-2.312 z"
         id="Stroke-3"
         inkscape:connector-curvature="0"
         style="stroke:#9d33db;stroke-width:0.5;stroke-linejoin:round" />
      <path
         d="m 45.6338,40.1388 c 0,0 -0.73,-2.232 -2.263,-2.791 0,0 0.43,0.076 0.926,-0.147 0,0 -0.06,-0.757 -2.574,-2.185 0,0 0.66,-0.056 0.811,-0.235 0,0 -1.354,-1.337 -2.776,-1.373 0,0 0.119,-0.298 0.532,-0.399 0,0 -3.092,-0.982 -5.17,0.163 0,0 2,3.517 5.799,5.724 0,0 -3.269,-0.401 -6.561,-4.878 0,0 -1.969,3.602 0.904,6.131 0,0 -0.083,-0.592 0.168,-1.156 0,0 1.07,2.182 2.643,2.437 0,0 -0.234,-0.545 -0.229,-0.89 0,0 1.835,1.265 4.385,1.67 0,0 -0.404,-0.321 -0.5,-0.944 0,0 1.944,0.59 3.905,-1.127"
         id="Fill-5"
         inkscape:connector-curvature="0"
         style="fill:#dc9fff" />
      <path
         d="m 45.6338,40.1388 c 0,0 -0.73,-2.232 -2.263,-2.791 0,0 0.43,0.076 0.926,-0.147 0,0 -0.06,-0.757 -2.574,-2.185 0,0 0.66,-0.056 0.811,-0.235 0,0 -1.354,-1.337 -2.776,-1.373 0,0 0.119,-0.298 0.532,-0.399 0,0 -3.092,-0.982 -5.17,0.163 0,0 2,3.517 5.799,5.724 0,0 -3.269,-0.401 -6.561,-4.878 0,0 -1.969,3.602 0.904,6.131 0,0 -0.083,-0.592 0.168,-1.156 0,0 1.07,2.182 2.643,2.437 0,0 -0.234,-0.545 -0.229,-0.89 0,0 1.835,1.265 4.385,1.67 0,0 -0.404,-0.321 -0.5,-0.944 0,0 1.944,0.59 3.905,-1.127 z"
         id="Stroke-7"
         inkscape:connector-curvature="0"
         style="stroke:#9d33db;stroke-width:0.5;stroke-linejoin:round" />
      <path
         d="m 17.5313,35.4235 c 0,0 1.396,-1.669 2.906,-1.622 0,0 -0.396,-0.084 -0.745,-0.445 0,0 0.312,-0.63 2.965,-0.995 0,0 -0.549,-0.275 -0.617,-0.48 0,0 1.624,-0.686 2.858,-0.228 0,0 0.001,-0.297 -0.319,-0.526 0,0 2.996,0.218 4.39,1.918 0,0 -2.929,2.337 -6.955,2.93 0,0 2.951,0.779 7.321,-1.941 0,0 0.455,3.775 -2.885,4.962 0,0 0.274,-0.48 0.252,-1.052 0,0 -1.671,1.509 -3.111,1.188 0,0 0.388,-0.389 0.503,-0.686 0,0 -2.013,0.456 -4.345,-0.071 0,0 0.457,-0.137 0.755,-0.64 0,0 -1.876,-0.161 -2.973,-2.312"
         id="Fill-9"
         inkscape:connector-curvature="0"
         style="fill:#dc9fff" />
      <path
         d="m 17.5313,35.4235 c 0,0 1.396,-1.669 2.906,-1.622 0,0 -0.396,-0.084 -0.745,-0.445 0,0 0.312,-0.63 2.965,-0.995 0,0 -0.549,-0.275 -0.617,-0.48 0,0 1.624,-0.686 2.858,-0.228 0,0 0.001,-0.297 -0.319,-0.526 0,0 2.996,0.218 4.39,1.918 0,0 -2.929,2.337 -6.955,2.93 0,0 2.951,0.779 7.321,-1.941 0,0 0.455,3.775 -2.885,4.962 0,0 0.274,-0.48 0.252,-1.052 0,0 -1.671,1.509 -3.111,1.188 0,0 0.388,-0.389 0.503,-0.686 0,0 -2.013,0.456 -4.345,-0.071 0,0 0.457,-0.137 0.755,-0.64 0,0 -1.876,-0.161 -2.973,-2.312 z"
         id="Stroke-11"
         inkscape:connector-curvature="0"
         style="stroke:#9d33db;stroke-width:0.5;stroke-linejoin:round" />
      <path
         d="m 21.7637,40.1388 c 0,0 0.731,-2.232 2.264,-2.791 0,0 -0.431,0.076 -0.926,-0.147 0,0 0.059,-0.757 2.574,-2.185 0,0 -0.66,-0.056 -0.811,-0.235 0,0 1.353,-1.337 2.775,-1.373 0,0 -0.119,-0.298 -0.531,-0.399 0,0 3.091,-0.982 5.17,0.163 0,0 -2,3.517 -5.799,5.724 0,0 3.269,-0.401 6.561,-4.878 0,0 1.969,3.602 -0.904,6.131 0,0 0.083,-0.592 -0.169,-1.156 0,0 -1.07,2.182 -2.643,2.437 0,0 0.234,-0.545 0.23,-0.89 0,0 -1.836,1.265 -4.386,1.67 0,0 0.405,-0.321 0.501,-0.944 0,0 -1.945,0.59 -3.906,-1.127"
         id="Fill-13"
         inkscape:connector-curvature="0"
         style="fill:#dc9fff" />
      <path
         d="m 21.7637,40.1388 c 0,0 0.731,-2.232 2.264,-2.791 0,0 -0.431,0.076 -0.926,-0.147 0,0 0.059,-0.757 2.574,-2.185 0,0 -0.66,-0.056 -0.811,-0.235 0,0 1.353,-1.337 2.775,-1.373 0,0 -0.119,-0.298 -0.531,-0.399 0,0 3.091,-0.982 5.17,0.163 0,0 -2,3.517 -5.799,5.724 0,0 3.269,-0.401 6.561,-4.878 0,0 1.969,3.602 -0.904,6.131 0,0 0.083,-0.592 -0.169,-1.156 0,0 -1.07,2.182 -2.643,2.437 0,0 0.234,-0.545 0.23,-0.89 0,0 -1.836,1.265 -4.386,1.67 0,0 0.405,-0.321 0.501,-0.944 0,0 -1.945,0.59 -3.906,-1.127 z"
         id="Stroke-15"
         inkscape:connector-curvature="0"
         style="stroke:#9d33db;stroke-width:0.5;stroke-linejoin:round" />
      <path
         d="m 40.999,29.1965 c 0.221,-0.412 1.062,-0.834 1.635,-1.088 0.291,-0.129 0.62,0.049 0.678,0.361 0.112,0.615 0.224,1.55 0.006,1.96 -0.12,0.224 -0.418,0.447 -0.755,0.646 0.39,-0.027 0.764,-0.005 0.986,0.112 0.411,0.216 0.837,1.057 1.087,1.631 0.126,0.291 -0.049,0.622 -0.362,0.677 -0.616,0.108 -1.551,0.226 -1.963,0.008 -0.412,-0.217 -0.835,-1.058 -1.087,-1.631 -0.059,-0.133 0.367,-0.4 0.422,-0.518 -0.111,-0.066 -0.616,-0.054 -0.64,-0.198 -0.111,-0.616 -0.227,-1.551 -0.007,-1.96"
         id="Fill-17"
         inkscape:connector-curvature="0"
         style="fill:#ba37f8" />
      <path
         d="m 40.999,29.1965 c 0.221,-0.412 1.062,-0.834 1.635,-1.088 0.291,-0.129 0.62,0.049 0.678,0.361 0.112,0.615 0.224,1.55 0.006,1.96 -0.12,0.224 -0.418,0.447 -0.755,0.646 0.39,-0.027 0.764,-0.005 0.986,0.112 0.411,0.216 0.837,1.057 1.087,1.631 0.126,0.291 -0.049,0.622 -0.362,0.677 -0.616,0.108 -1.551,0.226 -1.963,0.008 -0.412,-0.217 -0.835,-1.058 -1.087,-1.631 -0.059,-0.133 0.367,-0.4 0.422,-0.518 -0.111,-0.066 -0.616,-0.054 -0.64,-0.198 -0.111,-0.616 -0.227,-1.551 -0.007,-1.96 z"
         id="Stroke-19"
         inkscape:connector-curvature="0"
         style="stroke:#9d33db;stroke-width:0.5" />
      <path
         d="m 44.835,27.861 c 0.167,-0.437 0.947,-0.964 1.482,-1.29 0.272,-0.165 0.622,-0.03 0.718,0.271 0.191,0.596 0.423,1.509 0.259,1.943 -0.089,0.238 -0.355,0.497 -0.665,0.738 0.383,-0.077 0.757,-0.103 0.992,-0.016 0.435,0.161 0.966,0.941 1.287,1.478 0.163,0.272 0.032,0.623 -0.27,0.718 -0.597,0.186 -1.509,0.424 -1.948,0.261 -0.434,-0.163 -0.963,-0.942 -1.287,-1.478 -0.076,-0.125 0.313,-0.444 0.353,-0.568 -0.119,-0.052 -0.617,0.025 -0.661,-0.114 -0.189,-0.596 -0.425,-1.509 -0.26,-1.943"
         id="Fill-21"
         inkscape:connector-curvature="0"
         style="fill:#ba37f8" />
      <path
         d="m 44.835,27.861 c 0.167,-0.437 0.947,-0.964 1.482,-1.29 0.272,-0.165 0.622,-0.03 0.718,0.271 0.191,0.596 0.423,1.509 0.259,1.943 -0.089,0.238 -0.355,0.497 -0.665,0.738 0.383,-0.077 0.757,-0.103 0.992,-0.016 0.435,0.161 0.966,0.941 1.287,1.478 0.163,0.272 0.032,0.623 -0.27,0.718 -0.597,0.186 -1.509,0.424 -1.948,0.261 -0.434,-0.163 -0.963,-0.942 -1.287,-1.478 -0.076,-0.125 0.313,-0.444 0.353,-0.568 -0.119,-0.052 -0.617,0.025 -0.661,-0.114 -0.189,-0.596 -0.425,-1.509 -0.26,-1.943 z"
         id="Stroke-23"
         inkscape:connector-curvature="0"
         style="stroke:#9d33db;stroke-width:0.5" />
      <path
         d="m 26.3994,29.1965 c -0.221,-0.412 -1.063,-0.834 -1.636,-1.088 -0.29,-0.129 -0.62,0.049 -0.677,0.361 -0.112,0.615 -0.225,1.55 -0.006,1.96 0.119,0.224 0.417,0.447 0.755,0.646 -0.39,-0.027 -0.764,-0.005 -0.986,0.112 -0.411,0.216 -0.837,1.057 -1.087,1.631 -0.127,0.291 0.048,0.622 0.362,0.677 0.616,0.108 1.55,0.226 1.963,0.008 0.411,-0.217 0.835,-1.058 1.087,-1.631 0.059,-0.133 -0.367,-0.4 -0.422,-0.518 0.111,-0.066 0.615,-0.054 0.64,-0.198 0.111,-0.616 0.227,-1.551 0.007,-1.96"
         id="Fill-57"
         inkscape:connector-curvature="0"
         style="fill:#ba37f8" />
      <path
         d="m 26.3994,29.1965 c -0.221,-0.412 -1.063,-0.834 -1.636,-1.088 -0.29,-0.129 -0.62,0.049 -0.677,0.361 -0.112,0.615 -0.225,1.55 -0.006,1.96 0.119,0.224 0.417,0.447 0.755,0.646 -0.39,-0.027 -0.764,-0.005 -0.986,0.112 -0.411,0.216 -0.837,1.057 -1.087,1.631 -0.127,0.291 0.048,0.622 0.362,0.677 0.616,0.108 1.55,0.226 1.963,0.008 0.411,-0.217 0.835,-1.058 1.087,-1.631 0.059,-0.133 -0.367,-0.4 -0.422,-0.518 0.111,-0.066 0.615,-0.054 0.64,-0.198 0.111,-0.616 0.227,-1.551 0.007,-1.96 z"
         id="Stroke-59"
         inkscape:connector-curvature="0"
         style="stroke:#9d33db;stroke-width:0.5" />
      <path
         d="m 22.5625,27.861 c -0.166,-0.437 -0.947,-0.964 -1.481,-1.29 -0.272,-0.165 -0.622,-0.03 -0.718,0.271 -0.192,0.596 -0.423,1.509 -0.26,1.943 0.09,0.238 0.356,0.497 0.665,0.738 -0.383,-0.077 -0.756,-0.103 -0.991,-0.016 -0.436,0.161 -0.966,0.941 -1.288,1.478 -0.163,0.272 -0.032,0.623 0.271,0.718 0.597,0.186 1.509,0.424 1.947,0.261 0.434,-0.163 0.963,-0.942 1.288,-1.478 0.075,-0.125 -0.314,-0.444 -0.354,-0.568 0.12,-0.052 0.618,0.025 0.662,-0.114 0.188,-0.596 0.424,-1.509 0.259,-1.943"
         id="Fill-61"
         inkscape:connector-curvature="0"
         style="fill:#ba37f8" />
      <path
         d="m 22.5625,27.861 c -0.166,-0.437 -0.947,-0.964 -1.481,-1.29 -0.272,-0.165 -0.622,-0.03 -0.718,0.271 -0.192,0.596 -0.423,1.509 -0.26,1.943 0.09,0.238 0.356,0.497 0.665,0.738 -0.383,-0.077 -0.756,-0.103 -0.991,-0.016 -0.436,0.161 -0.966,0.941 -1.288,1.478 -0.163,0.272 -0.032,0.623 0.271,0.718 0.597,0.186 1.509,0.424 1.947,0.261 0.434,-0.163 0.963,-0.942 1.288,-1.478 0.075,-0.125 -0.314,-0.444 -0.354,-0.568 0.12,-0.052 0.618,0.025 0.662,-0.114 0.188,-0.596 0.424,-1.509 0.259,-1.943 z"
         id="Stroke-63"
         inkscape:connector-curvature="0"
         style="stroke:#9d33db;stroke-width:0.5" />
      <path
         d="m 20.681641,29.413574 c 4.722005,2.114584 8.937662,3.171875 12.646972,3.171875 3.70931,0 8.244629,-1.057291 13.605957,-3.171875"
         id="Path-2"
         inkscape:connector-curvature="0"
         style="fill-rule:nonzero;stroke:#9d33db;stroke-width:0.5" />
      <polygon
         id="Fill-99"
         points="36.6754,37.5297 34.9604,37.0797 33.6994,38.3267 32.4384,37.0797 30.7224,37.5297 30.2554,35.8187 28.5454,35.3517 28.9954,33.6367 27.7484,32.3757 28.9954,31.1147 28.5454,29.3987 30.2554,28.9327 30.7224,27.2217 32.4384,27.6707 33.6994,26.4247 34.9604,27.6707 36.6754,27.2217 37.1414,28.9327 38.8534,29.3987 38.4034,31.1147 39.6504,32.3757 38.4034,33.6367 38.8534,35.3517 37.1414,35.8187 "
         style="fill:#ffe680" />
      <polygon
         id="Stroke-101"
         points="36.6754,37.5297 34.9604,37.0797 33.6994,38.3267 32.4384,37.0797 30.7224,37.5297 30.2554,35.8187 28.5454,35.3517 28.9954,33.6367 27.7484,32.3757 28.9954,31.1147 28.5454,29.3987 30.2554,28.9327 30.7224,27.2217 32.4384,27.6707 33.6994,26.4247 34.9604,27.6707 36.6754,27.2217 37.1414,28.9327 38.8534,29.3987 38.4034,31.1147 39.6504,32.3757 38.4034,33.6367 38.8534,35.3517 37.1414,35.8187 "
         style="stroke:#ffd633;stroke-width:0.5" />
      <polygon
         id="Fill-103"
         points="35.0876,34.7807 34.2876,34.5707 33.6996,35.1527 33.1106,34.5707 32.3096,34.7807 32.0926,33.9817 31.2936,33.7647 31.5036,32.9637 30.9216,32.3757 31.5036,31.7867 31.2936,30.9867 32.0926,30.7687 32.3106,29.9707 33.1106,30.1807 33.6996,29.5987 34.2876,30.1807 35.0876,29.9707 35.3056,30.7697 36.1046,30.9867 35.8946,31.7877 36.4756,32.3757 35.8946,32.9637 36.1036,33.7647 35.3056,33.9817 "
         style="fill:#ffd633" />
    </g>
  </g>
</svg>
