<?xml version="1.0" encoding="UTF-8"?>
<svg width="68px" height="43px" viewBox="0 0 68 43" version="1.1" xmlns="http://www.w3.org/2000/svg" xmlns:xlink="http://www.w3.org/1999/xlink">
    <!-- Generator: Sketch 52.6 (67491) - http://www.bohemiancoding.com/sketch -->
    <title>Artboard</title>
    <desc>Created with Sketch.</desc>
    <g id="Artboard" stroke="none" stroke-width="1" fill="none" fill-rule="evenodd">
        <g id="Page-1-Copy-2">
            <path d="M49.8662,35.4235 C49.8662,35.4235 48.4702,33.7545 46.9612,33.8015 C46.9612,33.8015 47.3562,33.7175 47.7062,33.3565 C47.7062,33.3565 47.3942,32.7265 44.7412,32.3615 C44.7412,32.3615 45.2902,32.0865 45.3582,31.8815 C45.3582,31.8815 43.7342,31.1955 42.4992,31.6535 C42.4992,31.6535 42.4992,31.3565 42.8192,31.1275 C42.8192,31.1275 39.8232,31.3455 38.4282,33.0455 C38.4282,33.0455 41.3572,35.3825 45.3842,35.9755 C45.3842,35.9755 42.4332,36.7545 38.0632,34.0345 C38.0632,34.0345 37.6082,37.8095 40.9482,38.9965 C40.9482,38.9965 40.6732,38.5165 40.6962,37.9445 C40.6962,37.9445 42.3662,39.4535 43.8072,39.1325 C43.8072,39.1325 43.4182,38.7435 43.3042,38.4465 C43.3042,38.4465 45.3162,38.9025 47.6492,38.3755 C47.6492,38.3755 47.1912,38.2385 46.8942,37.7355 C46.8942,37.7355 48.7692,37.5745 49.8662,35.4235" id="Fill-1" fill="#DC9FFF"></path>
            <path d="M49.8662,35.4235 C49.8662,35.4235 48.4702,33.7545 46.9612,33.8015 C46.9612,33.8015 47.3562,33.7175 47.7062,33.3565 C47.7062,33.3565 47.3942,32.7265 44.7412,32.3615 C44.7412,32.3615 45.2902,32.0865 45.3582,31.8815 C45.3582,31.8815 43.7342,31.1955 42.4992,31.6535 C42.4992,31.6535 42.4992,31.3565 42.8192,31.1275 C42.8192,31.1275 39.8232,31.3455 38.4282,33.0455 C38.4282,33.0455 41.3572,35.3825 45.3842,35.9755 C45.3842,35.9755 42.4332,36.7545 38.0632,34.0345 C38.0632,34.0345 37.6082,37.8095 40.9482,38.9965 C40.9482,38.9965 40.6732,38.5165 40.6962,37.9445 C40.6962,37.9445 42.3662,39.4535 43.8072,39.1325 C43.8072,39.1325 43.4182,38.7435 43.3042,38.4465 C43.3042,38.4465 45.3162,38.9025 47.6492,38.3755 C47.6492,38.3755 47.1912,38.2385 46.8942,37.7355 C46.8942,37.7355 48.7692,37.5745 49.8662,35.4235 Z" id="Stroke-3" stroke="#9D33DB" stroke-width="0.5" stroke-linejoin="round"></path>
            <path d="M45.6338,40.1388 C45.6338,40.1388 44.9038,37.9068 43.3708,37.3478 C43.3708,37.3478 43.8008,37.4238 44.2968,37.2008 C44.2968,37.2008 44.2368,36.4438 41.7228,35.0158 C41.7228,35.0158 42.3828,34.9598 42.5338,34.7808 C42.5338,34.7808 41.1798,33.4438 39.7578,33.4078 C39.7578,33.4078 39.8768,33.1098 40.2898,33.0088 C40.2898,33.0088 37.1978,32.0268 35.1198,33.1718 C35.1198,33.1718 37.1198,36.6888 40.9188,38.8958 C40.9188,38.8958 37.6498,38.4948 34.3578,34.0178 C34.3578,34.0178 32.3888,37.6198 35.2618,40.1488 C35.2618,40.1488 35.1788,39.5568 35.4298,38.9928 C35.4298,38.9928 36.4998,41.1748 38.0728,41.4298 C38.0728,41.4298 37.8388,40.8848 37.8438,40.5398 C37.8438,40.5398 39.6788,41.8048 42.2288,42.2098 C42.2288,42.2098 41.8248,41.8888 41.7288,41.2658 C41.7288,41.2658 43.6728,41.8558 45.6338,40.1388" id="Fill-5" fill="#DC9FFF"></path>
            <path d="M45.6338,40.1388 C45.6338,40.1388 44.9038,37.9068 43.3708,37.3478 C43.3708,37.3478 43.8008,37.4238 44.2968,37.2008 C44.2968,37.2008 44.2368,36.4438 41.7228,35.0158 C41.7228,35.0158 42.3828,34.9598 42.5338,34.7808 C42.5338,34.7808 41.1798,33.4438 39.7578,33.4078 C39.7578,33.4078 39.8768,33.1098 40.2898,33.0088 C40.2898,33.0088 37.1978,32.0268 35.1198,33.1718 C35.1198,33.1718 37.1198,36.6888 40.9188,38.8958 C40.9188,38.8958 37.6498,38.4948 34.3578,34.0178 C34.3578,34.0178 32.3888,37.6198 35.2618,40.1488 C35.2618,40.1488 35.1788,39.5568 35.4298,38.9928 C35.4298,38.9928 36.4998,41.1748 38.0728,41.4298 C38.0728,41.4298 37.8388,40.8848 37.8438,40.5398 C37.8438,40.5398 39.6788,41.8048 42.2288,42.2098 C42.2288,42.2098 41.8248,41.8888 41.7288,41.2658 C41.7288,41.2658 43.6728,41.8558 45.6338,40.1388 Z" id="Stroke-7" stroke="#9D33DB" stroke-width="0.5" stroke-linejoin="round"></path>
            <path d="M17.5313,35.4235 C17.5313,35.4235 18.9273,33.7545 20.4373,33.8015 C20.4373,33.8015 20.0413,33.7175 19.6923,33.3565 C19.6923,33.3565 20.0043,32.7265 22.6573,32.3615 C22.6573,32.3615 22.1083,32.0865 22.0403,31.8815 C22.0403,31.8815 23.6643,31.1955 24.8983,31.6535 C24.8983,31.6535 24.8993,31.3565 24.5793,31.1275 C24.5793,31.1275 27.5753,31.3455 28.9693,33.0455 C28.9693,33.0455 26.0403,35.3825 22.0143,35.9755 C22.0143,35.9755 24.9653,36.7545 29.3353,34.0345 C29.3353,34.0345 29.7903,37.8095 26.4503,38.9965 C26.4503,38.9965 26.7243,38.5165 26.7023,37.9445 C26.7023,37.9445 25.0313,39.4535 23.5913,39.1325 C23.5913,39.1325 23.9793,38.7435 24.0943,38.4465 C24.0943,38.4465 22.0813,38.9025 19.7493,38.3755 C19.7493,38.3755 20.2063,38.2385 20.5043,37.7355 C20.5043,37.7355 18.6283,37.5745 17.5313,35.4235" id="Fill-9" fill="#DC9FFF"></path>
            <path d="M17.5313,35.4235 C17.5313,35.4235 18.9273,33.7545 20.4373,33.8015 C20.4373,33.8015 20.0413,33.7175 19.6923,33.3565 C19.6923,33.3565 20.0043,32.7265 22.6573,32.3615 C22.6573,32.3615 22.1083,32.0865 22.0403,31.8815 C22.0403,31.8815 23.6643,31.1955 24.8983,31.6535 C24.8983,31.6535 24.8993,31.3565 24.5793,31.1275 C24.5793,31.1275 27.5753,31.3455 28.9693,33.0455 C28.9693,33.0455 26.0403,35.3825 22.0143,35.9755 C22.0143,35.9755 24.9653,36.7545 29.3353,34.0345 C29.3353,34.0345 29.7903,37.8095 26.4503,38.9965 C26.4503,38.9965 26.7243,38.5165 26.7023,37.9445 C26.7023,37.9445 25.0313,39.4535 23.5913,39.1325 C23.5913,39.1325 23.9793,38.7435 24.0943,38.4465 C24.0943,38.4465 22.0813,38.9025 19.7493,38.3755 C19.7493,38.3755 20.2063,38.2385 20.5043,37.7355 C20.5043,37.7355 18.6283,37.5745 17.5313,35.4235 Z" id="Stroke-11" stroke="#9D33DB" stroke-width="0.5" stroke-linejoin="round"></path>
            <path d="M21.7637,40.1388 C21.7637,40.1388 22.4947,37.9068 24.0277,37.3478 C24.0277,37.3478 23.5967,37.4238 23.1017,37.2008 C23.1017,37.2008 23.1607,36.4438 25.6757,35.0158 C25.6757,35.0158 25.0157,34.9598 24.8647,34.7808 C24.8647,34.7808 26.2177,33.4438 27.6397,33.4078 C27.6397,33.4078 27.5207,33.1098 27.1087,33.0088 C27.1087,33.0088 30.1997,32.0268 32.2787,33.1718 C32.2787,33.1718 30.2787,36.6888 26.4797,38.8958 C26.4797,38.8958 29.7487,38.4948 33.0407,34.0178 C33.0407,34.0178 35.0097,37.6198 32.1367,40.1488 C32.1367,40.1488 32.2197,39.5568 31.9677,38.9928 C31.9677,38.9928 30.8977,41.1748 29.3247,41.4298 C29.3247,41.4298 29.5587,40.8848 29.5547,40.5398 C29.5547,40.5398 27.7187,41.8048 25.1687,42.2098 C25.1687,42.2098 25.5737,41.8888 25.6697,41.2658 C25.6697,41.2658 23.7247,41.8558 21.7637,40.1388" id="Fill-13" fill="#DC9FFF"></path>
            <path d="M21.7637,40.1388 C21.7637,40.1388 22.4947,37.9068 24.0277,37.3478 C24.0277,37.3478 23.5967,37.4238 23.1017,37.2008 C23.1017,37.2008 23.1607,36.4438 25.6757,35.0158 C25.6757,35.0158 25.0157,34.9598 24.8647,34.7808 C24.8647,34.7808 26.2177,33.4438 27.6397,33.4078 C27.6397,33.4078 27.5207,33.1098 27.1087,33.0088 C27.1087,33.0088 30.1997,32.0268 32.2787,33.1718 C32.2787,33.1718 30.2787,36.6888 26.4797,38.8958 C26.4797,38.8958 29.7487,38.4948 33.0407,34.0178 C33.0407,34.0178 35.0097,37.6198 32.1367,40.1488 C32.1367,40.1488 32.2197,39.5568 31.9677,38.9928 C31.9677,38.9928 30.8977,41.1748 29.3247,41.4298 C29.3247,41.4298 29.5587,40.8848 29.5547,40.5398 C29.5547,40.5398 27.7187,41.8048 25.1687,42.2098 C25.1687,42.2098 25.5737,41.8888 25.6697,41.2658 C25.6697,41.2658 23.7247,41.8558 21.7637,40.1388 Z" id="Stroke-15" stroke="#9D33DB" stroke-width="0.5" stroke-linejoin="round"></path>
            <path d="M40.999,29.1965 C41.22,28.7845 42.061,28.3625 42.634,28.1085 C42.925,27.9795 43.254,28.1575 43.312,28.4695 C43.424,29.0845 43.536,30.0195 43.318,30.4295 C43.198,30.6535 42.9,30.8765 42.563,31.0755 C42.953,31.0485 43.327,31.0705 43.549,31.1875 C43.96,31.4035 44.386,32.2445 44.636,32.8185 C44.762,33.1095 44.587,33.4405 44.274,33.4955 C43.658,33.6035 42.723,33.7215 42.311,33.5035 C41.899,33.2865 41.476,32.4455 41.224,31.8725 C41.165,31.7395 41.591,31.4725 41.646,31.3545 C41.535,31.2885 41.03,31.3005 41.006,31.1565 C40.895,30.5405 40.779,29.6055 40.999,29.1965" id="Fill-17" fill="#BA37F8"></path>
            <path d="M40.999,29.1965 C41.22,28.7845 42.061,28.3625 42.634,28.1085 C42.925,27.9795 43.254,28.1575 43.312,28.4695 C43.424,29.0845 43.536,30.0195 43.318,30.4295 C43.198,30.6535 42.9,30.8765 42.563,31.0755 C42.953,31.0485 43.327,31.0705 43.549,31.1875 C43.96,31.4035 44.386,32.2445 44.636,32.8185 C44.762,33.1095 44.587,33.4405 44.274,33.4955 C43.658,33.6035 42.723,33.7215 42.311,33.5035 C41.899,33.2865 41.476,32.4455 41.224,31.8725 C41.165,31.7395 41.591,31.4725 41.646,31.3545 C41.535,31.2885 41.03,31.3005 41.006,31.1565 C40.895,30.5405 40.779,29.6055 40.999,29.1965 Z" id="Stroke-19" stroke="#9D33DB" stroke-width="0.5"></path>
            <path d="M44.835,27.861 C45.002,27.424 45.782,26.897 46.317,26.571 C46.589,26.406 46.939,26.541 47.035,26.842 C47.226,27.438 47.458,28.351 47.294,28.785 C47.205,29.023 46.939,29.282 46.629,29.523 C47.012,29.446 47.386,29.42 47.621,29.507 C48.056,29.668 48.587,30.448 48.908,30.985 C49.071,31.257 48.94,31.608 48.638,31.703 C48.041,31.889 47.129,32.127 46.69,31.964 C46.256,31.801 45.727,31.022 45.403,30.486 C45.327,30.361 45.716,30.042 45.756,29.918 C45.637,29.866 45.139,29.943 45.095,29.804 C44.906,29.208 44.67,28.295 44.835,27.861" id="Fill-21" fill="#BA37F8"></path>
            <path d="M44.835,27.861 C45.002,27.424 45.782,26.897 46.317,26.571 C46.589,26.406 46.939,26.541 47.035,26.842 C47.226,27.438 47.458,28.351 47.294,28.785 C47.205,29.023 46.939,29.282 46.629,29.523 C47.012,29.446 47.386,29.42 47.621,29.507 C48.056,29.668 48.587,30.448 48.908,30.985 C49.071,31.257 48.94,31.608 48.638,31.703 C48.041,31.889 47.129,32.127 46.69,31.964 C46.256,31.801 45.727,31.022 45.403,30.486 C45.327,30.361 45.716,30.042 45.756,29.918 C45.637,29.866 45.139,29.943 45.095,29.804 C44.906,29.208 44.67,28.295 44.835,27.861 Z" id="Stroke-23" stroke="#9D33DB" stroke-width="0.5"></path>
            <path d="M48.3994,26.0182 C48.5074,25.5632 49.2124,24.9392 49.7014,24.5472 C49.9484,24.3482 50.3124,24.4352 50.4484,24.7222 C50.7144,25.2882 51.0634,26.1632 50.9574,26.6152 C50.8994,26.8622 50.6694,27.1542 50.3934,27.4332 C50.7634,27.3072 51.1304,27.2322 51.3754,27.2882 C51.8274,27.3912 52.4554,28.0962 52.8434,28.5862 C53.0414,28.8342 52.9574,29.2002 52.6694,29.3332 C52.1004,29.5962 51.2274,29.9502 50.7724,29.8452 C50.3194,29.7402 49.6934,29.0362 49.3024,28.5472 C49.2114,28.4342 49.5554,28.0662 49.5794,27.9382 C49.4544,27.9022 48.9694,28.0432 48.9094,27.9112 C48.6444,27.3442 48.2924,26.4702 48.3994,26.0182" id="Fill-25" fill="#BA37F8"></path>
            <path d="M48.3994,26.0182 C48.5074,25.5632 49.2124,24.9392 49.7014,24.5472 C49.9484,24.3482 50.3124,24.4352 50.4484,24.7222 C50.7144,25.2882 51.0634,26.1632 50.9574,26.6152 C50.8994,26.8622 50.6694,27.1542 50.3934,27.4332 C50.7634,27.3072 51.1304,27.2322 51.3754,27.2882 C51.8274,27.3912 52.4554,28.0962 52.8434,28.5862 C53.0414,28.8342 52.9574,29.2002 52.6694,29.3332 C52.1004,29.5962 51.2274,29.9502 50.7724,29.8452 C50.3194,29.7402 49.6934,29.0362 49.3024,28.5472 C49.2114,28.4342 49.5554,28.0662 49.5794,27.9382 C49.4544,27.9022 48.9694,28.0432 48.9094,27.9112 C48.6444,27.3442 48.2924,26.4702 48.3994,26.0182 Z" id="Stroke-27" stroke="#9D33DB" stroke-width="0.5"></path>
            <path d="M51.6367,23.7302 C51.6807,23.2652 52.2917,22.5482 52.7207,22.0912 C52.9377,21.8602 53.3107,21.8962 53.4847,22.1612 C53.8267,22.6842 54.2947,23.5012 54.2537,23.9642 C54.2307,24.2162 54.0427,24.5382 53.8097,24.8532 C54.1577,24.6762 54.5107,24.5512 54.7607,24.5722 C55.2237,24.6112 55.9437,25.2202 56.3967,25.6522 C56.6257,25.8702 56.5947,26.2442 56.3267,26.4162 C55.8017,26.7552 54.9867,27.2282 54.5217,27.1882 C54.0587,27.1472 53.3407,26.5382 52.8857,26.1082 C52.7797,26.0082 53.0687,25.5962 53.0737,25.4662 C52.9457,25.4482 52.4857,25.6552 52.4067,25.5332 C52.0657,25.0082 51.5937,24.1922 51.6367,23.7302" id="Fill-29" fill="#BA37F8"></path>
            <path d="M51.6367,23.7302 C51.6807,23.2652 52.2917,22.5482 52.7207,22.0912 C52.9377,21.8602 53.3107,21.8962 53.4847,22.1612 C53.8267,22.6842 54.2947,23.5012 54.2537,23.9642 C54.2307,24.2162 54.0427,24.5382 53.8097,24.8532 C54.1577,24.6762 54.5107,24.5512 54.7607,24.5722 C55.2237,24.6112 55.9437,25.2202 56.3967,25.6522 C56.6257,25.8702 56.5947,26.2442 56.3267,26.4162 C55.8017,26.7552 54.9867,27.2282 54.5217,27.1882 C54.0587,27.1472 53.3407,26.5382 52.8857,26.1082 C52.7797,26.0082 53.0687,25.5962 53.0737,25.4662 C52.9457,25.4482 52.4857,25.6552 52.4067,25.5332 C52.0657,25.0082 51.5937,24.1922 51.6367,23.7302 Z" id="Stroke-31" stroke="#9D33DB" stroke-width="0.5"></path>
            <path d="M54.5186,21.0285 C54.4956,20.5625 54.9976,19.7645 55.3566,19.2525 C55.5396,18.9915 55.9136,18.9735 56.1226,19.2115 C56.5376,19.6805 57.1176,20.4225 57.1416,20.8855 C57.1556,21.1395 57.0156,21.4845 56.8296,21.8295 C57.1496,21.6045 57.4806,21.4305 57.7306,21.4155 C58.1946,21.3875 58.9946,21.8885 59.5036,22.2505 C59.7626,22.4345 59.7846,22.8085 59.5446,23.0165 C59.0736,23.4275 58.3336,24.0125 57.8676,24.0385 C57.4046,24.0655 56.6056,23.5635 56.0936,23.2035 C55.9746,23.1205 56.2026,22.6715 56.1886,22.5415 C56.0586,22.5425 55.6326,22.8135 55.5376,22.7035 C55.1246,22.2325 54.5416,21.4925 54.5186,21.0285" id="Fill-33" fill="#BA37F8"></path>
            <path d="M54.5186,21.0285 C54.4956,20.5625 54.9976,19.7645 55.3566,19.2525 C55.5396,18.9915 55.9136,18.9735 56.1226,19.2115 C56.5376,19.6805 57.1176,20.4225 57.1416,20.8855 C57.1556,21.1395 57.0156,21.4845 56.8296,21.8295 C57.1496,21.6045 57.4806,21.4305 57.7306,21.4155 C58.1946,21.3875 58.9946,21.8885 59.5036,22.2505 C59.7626,22.4345 59.7846,22.8085 59.5446,23.0165 C59.0736,23.4275 58.3336,24.0125 57.8676,24.0385 C57.4046,24.0655 56.6056,23.5635 56.0936,23.2035 C55.9746,23.1205 56.2026,22.6715 56.1886,22.5415 C56.0586,22.5425 55.6326,22.8135 55.5376,22.7035 C55.1246,22.2325 54.5416,21.4925 54.5186,21.0285 Z" id="Stroke-35" stroke="#9D33DB" stroke-width="0.5"></path>
            <path d="M57.0049,17.9469 C56.9149,17.4879 57.2999,16.6279 57.5819,16.0689 C57.7249,15.7849 58.0929,15.7139 58.3339,15.9199 C58.8119,16.3249 59.4899,16.9769 59.5809,17.4319 C59.6299,17.6809 59.5409,18.0429 59.4059,18.4099 C59.6909,18.1419 59.9939,17.9229 60.2389,17.8729 C60.6929,17.7799 61.5569,18.1609 62.1129,18.4469 C62.3959,18.5919 62.4699,18.9589 62.2629,19.1989 C61.8549,19.6739 61.2049,20.3569 60.7479,20.4499 C60.2929,20.5419 59.4319,20.1589 58.8729,19.8749 C58.7439,19.8099 58.9039,19.3329 58.8729,19.2069 C58.7439,19.2259 58.3609,19.5539 58.2509,19.4599 C57.7759,19.0519 57.0939,18.4019 57.0049,17.9469" id="Fill-37" fill="#BA37F8"></path>
            <path d="M57.0049,17.9469 C56.9149,17.4879 57.2999,16.6279 57.5819,16.0689 C57.7249,15.7849 58.0929,15.7139 58.3339,15.9199 C58.8119,16.3249 59.4899,16.9769 59.5809,17.4319 C59.6299,17.6809 59.5409,18.0429 59.4059,18.4099 C59.6909,18.1419 59.9939,17.9229 60.2389,17.8729 C60.6929,17.7799 61.5569,18.1609 62.1129,18.4469 C62.3959,18.5919 62.4699,18.9589 62.2629,19.1989 C61.8549,19.6739 61.2049,20.3569 60.7479,20.4499 C60.2929,20.5419 59.4319,20.1589 58.8729,19.8749 C58.7439,19.8099 58.9039,19.3329 58.8729,19.2069 C58.7439,19.2259 58.3609,19.5539 58.2509,19.4599 C57.7759,19.0519 57.0939,18.4019 57.0049,17.9469 Z" id="Stroke-39" stroke="#9D33DB" stroke-width="0.5"></path>
            <path d="M26.3994,29.1965 C26.1784,28.7845 25.3364,28.3625 24.7634,28.1085 C24.4734,27.9795 24.1434,28.1575 24.0864,28.4695 C23.9744,29.0845 23.8614,30.0195 24.0804,30.4295 C24.1994,30.6535 24.4974,30.8765 24.8354,31.0755 C24.4454,31.0485 24.0714,31.0705 23.8494,31.1875 C23.4384,31.4035 23.0124,32.2445 22.7624,32.8185 C22.6354,33.1095 22.8104,33.4405 23.1244,33.4955 C23.7404,33.6035 24.6744,33.7215 25.0874,33.5035 C25.4984,33.2865 25.9224,32.4455 26.1744,31.8725 C26.2334,31.7395 25.8074,31.4725 25.7524,31.3545 C25.8634,31.2885 26.3674,31.3005 26.3924,31.1565 C26.5034,30.5405 26.6194,29.6055 26.3994,29.1965" id="Fill-57" fill="#BA37F8"></path>
            <path d="M26.3994,29.1965 C26.1784,28.7845 25.3364,28.3625 24.7634,28.1085 C24.4734,27.9795 24.1434,28.1575 24.0864,28.4695 C23.9744,29.0845 23.8614,30.0195 24.0804,30.4295 C24.1994,30.6535 24.4974,30.8765 24.8354,31.0755 C24.4454,31.0485 24.0714,31.0705 23.8494,31.1875 C23.4384,31.4035 23.0124,32.2445 22.7624,32.8185 C22.6354,33.1095 22.8104,33.4405 23.1244,33.4955 C23.7404,33.6035 24.6744,33.7215 25.0874,33.5035 C25.4984,33.2865 25.9224,32.4455 26.1744,31.8725 C26.2334,31.7395 25.8074,31.4725 25.7524,31.3545 C25.8634,31.2885 26.3674,31.3005 26.3924,31.1565 C26.5034,30.5405 26.6194,29.6055 26.3994,29.1965 Z" id="Stroke-59" stroke="#9D33DB" stroke-width="0.5"></path>
            <path d="M22.5625,27.861 C22.3965,27.424 21.6155,26.897 21.0815,26.571 C20.8095,26.406 20.4595,26.541 20.3635,26.842 C20.1715,27.438 19.9405,28.351 20.1035,28.785 C20.1935,29.023 20.4595,29.282 20.7685,29.523 C20.3855,29.446 20.0125,29.42 19.7775,29.507 C19.3415,29.668 18.8115,30.448 18.4895,30.985 C18.3265,31.257 18.4575,31.608 18.7605,31.703 C19.3575,31.889 20.2695,32.127 20.7075,31.964 C21.1415,31.801 21.6705,31.022 21.9955,30.486 C22.0705,30.361 21.6815,30.042 21.6415,29.918 C21.7615,29.866 22.2595,29.943 22.3035,29.804 C22.4915,29.208 22.7275,28.295 22.5625,27.861" id="Fill-61" fill="#BA37F8"></path>
            <path d="M22.5625,27.861 C22.3965,27.424 21.6155,26.897 21.0815,26.571 C20.8095,26.406 20.4595,26.541 20.3635,26.842 C20.1715,27.438 19.9405,28.351 20.1035,28.785 C20.1935,29.023 20.4595,29.282 20.7685,29.523 C20.3855,29.446 20.0125,29.42 19.7775,29.507 C19.3415,29.668 18.8115,30.448 18.4895,30.985 C18.3265,31.257 18.4575,31.608 18.7605,31.703 C19.3575,31.889 20.2695,32.127 20.7075,31.964 C21.1415,31.801 21.6705,31.022 21.9955,30.486 C22.0705,30.361 21.6815,30.042 21.6415,29.918 C21.7615,29.866 22.2595,29.943 22.3035,29.804 C22.4915,29.208 22.7275,28.295 22.5625,27.861 Z" id="Stroke-63" stroke="#9D33DB" stroke-width="0.5"></path>
            <path d="M18.999,26.0182 C18.891,25.5632 18.186,24.9392 17.697,24.5472 C17.45,24.3482 17.085,24.4352 16.95,24.7222 C16.684,25.2882 16.335,26.1632 16.44,26.6152 C16.499,26.8622 16.729,27.1542 17.004,27.4332 C16.635,27.3072 16.268,27.2322 16.023,27.2882 C15.571,27.3912 14.943,28.0962 14.555,28.5862 C14.357,28.8342 14.441,29.2002 14.729,29.3332 C15.298,29.5962 16.171,29.9502 16.626,29.8452 C17.078,29.7402 17.704,29.0362 18.095,28.5472 C18.186,28.4342 17.843,28.0662 17.818,27.9382 C17.943,27.9022 18.428,28.0432 18.489,27.9112 C18.754,27.3442 19.106,26.4702 18.999,26.0182" id="Fill-65" fill="#BA37F8"></path>
            <path d="M18.999,26.0182 C18.891,25.5632 18.186,24.9392 17.697,24.5472 C17.45,24.3482 17.085,24.4352 16.95,24.7222 C16.684,25.2882 16.335,26.1632 16.44,26.6152 C16.499,26.8622 16.729,27.1542 17.004,27.4332 C16.635,27.3072 16.268,27.2322 16.023,27.2882 C15.571,27.3912 14.943,28.0962 14.555,28.5862 C14.357,28.8342 14.441,29.2002 14.729,29.3332 C15.298,29.5962 16.171,29.9502 16.626,29.8452 C17.078,29.7402 17.704,29.0362 18.095,28.5472 C18.186,28.4342 17.843,28.0662 17.818,27.9382 C17.943,27.9022 18.428,28.0432 18.489,27.9112 C18.754,27.3442 19.106,26.4702 18.999,26.0182 Z" id="Stroke-67" stroke="#9D33DB" stroke-width="0.5"></path>
            <path d="M15.7608,23.7302 C15.7178,23.2652 15.1068,22.5482 14.6778,22.0912 C14.4608,21.8602 14.0878,21.8962 13.9138,22.1612 C13.5708,22.6842 13.1028,23.5012 13.1448,23.9642 C13.1668,24.2162 13.3558,24.5382 13.5888,24.8532 C13.2398,24.6762 12.8868,24.5512 12.6378,24.5722 C12.1748,24.6112 11.4548,25.2202 11.0008,25.6522 C10.7718,25.8702 10.8038,26.2442 11.0708,26.4162 C11.5958,26.7552 12.4108,27.2282 12.8768,27.1882 C13.3388,27.1472 14.0578,26.5382 14.5128,26.1082 C14.6188,26.0082 14.3298,25.5962 14.3238,25.4662 C14.4528,25.4482 14.9128,25.6552 14.9918,25.5332 C15.3328,25.0082 15.8048,24.1922 15.7608,23.7302" id="Fill-69" fill="#BA37F8"></path>
            <path d="M15.7608,23.7302 C15.7178,23.2652 15.1068,22.5482 14.6778,22.0912 C14.4608,21.8602 14.0878,21.8962 13.9138,22.1612 C13.5708,22.6842 13.1028,23.5012 13.1448,23.9642 C13.1668,24.2162 13.3558,24.5382 13.5888,24.8532 C13.2398,24.6762 12.8868,24.5512 12.6378,24.5722 C12.1748,24.6112 11.4548,25.2202 11.0008,25.6522 C10.7718,25.8702 10.8038,26.2442 11.0708,26.4162 C11.5958,26.7552 12.4108,27.2282 12.8768,27.1882 C13.3388,27.1472 14.0578,26.5382 14.5128,26.1082 C14.6188,26.0082 14.3298,25.5962 14.3238,25.4662 C14.4528,25.4482 14.9128,25.6552 14.9918,25.5332 C15.3328,25.0082 15.8048,24.1922 15.7608,23.7302 Z" id="Stroke-71" stroke="#9D33DB" stroke-width="0.5"></path>
            <path d="M12.8789,21.0285 C12.9019,20.5625 12.3999,19.7645 12.0409,19.2525 C11.8589,18.9915 11.4839,18.9735 11.2749,19.2115 C10.8599,19.6805 10.2809,20.4225 10.2559,20.8855 C10.2429,21.1395 10.3829,21.4845 10.5679,21.8295 C10.2489,21.6045 9.9179,21.4305 9.6669,21.4155 C9.2039,21.3875 8.4039,21.8885 7.8939,22.2505 C7.6359,22.4345 7.6139,22.8085 7.8539,23.0165 C8.3249,23.4275 9.0649,24.0125 9.5309,24.0385 C9.9939,24.0655 10.7919,23.5635 11.3049,23.2035 C11.4229,23.1205 11.1959,22.6715 11.2089,22.5415 C11.3389,22.5425 11.7649,22.8135 11.8599,22.7035 C12.2739,22.2325 12.8569,21.4925 12.8789,21.0285" id="Fill-73" fill="#BA37F8"></path>
            <path d="M12.8789,21.0285 C12.9019,20.5625 12.3999,19.7645 12.0409,19.2525 C11.8589,18.9915 11.4839,18.9735 11.2749,19.2115 C10.8599,19.6805 10.2809,20.4225 10.2559,20.8855 C10.2429,21.1395 10.3829,21.4845 10.5679,21.8295 C10.2489,21.6045 9.9179,21.4305 9.6669,21.4155 C9.2039,21.3875 8.4039,21.8885 7.8939,22.2505 C7.6359,22.4345 7.6139,22.8085 7.8539,23.0165 C8.3249,23.4275 9.0649,24.0125 9.5309,24.0385 C9.9939,24.0655 10.7919,23.5635 11.3049,23.2035 C11.4229,23.1205 11.1959,22.6715 11.2089,22.5415 C11.3389,22.5425 11.7649,22.8135 11.8599,22.7035 C12.2739,22.2325 12.8569,21.4925 12.8789,21.0285 Z" id="Stroke-75" stroke="#9D33DB" stroke-width="0.5"></path>
            <path d="M10.3936,17.9469 C10.4826,17.4879 10.0986,16.6279 9.8166,16.0689 C9.6736,15.7849 9.3056,15.7139 9.0636,15.9199 C8.5866,16.3249 7.9076,16.9769 7.8176,17.4319 C7.7676,17.6809 7.8576,18.0429 7.9926,18.4099 C7.7076,18.1419 7.4046,17.9229 7.1596,17.8729 C6.7046,17.7799 5.8416,18.1609 5.2856,18.4469 C5.0026,18.5919 4.9276,18.9589 5.1356,19.1989 C5.5436,19.6739 6.1926,20.3569 6.6506,20.4499 C7.1056,20.5419 7.9666,20.1589 8.5246,19.8749 C8.6546,19.8099 8.4936,19.3329 8.5246,19.2069 C8.6536,19.2259 9.0366,19.5539 9.1466,19.4599 C9.6226,19.0519 10.3046,18.4019 10.3936,17.9469" id="Fill-77" fill="#BA37F8"></path>
            <path d="M10.3936,17.9469 C10.4826,17.4879 10.0986,16.6279 9.8166,16.0689 C9.6736,15.7849 9.3056,15.7139 9.0636,15.9199 C8.5866,16.3249 7.9076,16.9769 7.8176,17.4319 C7.7676,17.6809 7.8576,18.0429 7.9926,18.4099 C7.7076,18.1419 7.4046,17.9229 7.1596,17.8729 C6.7046,17.7799 5.8416,18.1609 5.2856,18.4469 C5.0026,18.5919 4.9276,18.9589 5.1356,19.1989 C5.5436,19.6739 6.1926,20.3569 6.6506,20.4499 C7.1056,20.5419 7.9666,20.1589 8.5246,19.8749 C8.6546,19.8099 8.4936,19.3329 8.5246,19.2069 C8.6536,19.2259 9.0366,19.5539 9.1466,19.4599 C9.6226,19.0519 10.3046,18.4019 10.3936,17.9469 Z" id="Stroke-79" stroke="#9D33DB" stroke-width="0.5"></path>
            <path d="M8.32714844,18.7333984 C15.2828776,27.921875 23.6123047,32.5161133 33.3154297,32.5161133 C43.0185547,32.5161133 51.6378581,27.921875 59.1733398,18.7333984" id="Path-6" stroke="#9D33DB" stroke-width="0.5" fill-rule="nonzero"></path>
            <polygon id="Fill-99" fill="#FFE680" points="39.6504 32.3757 38.4034 33.6367 38.8534 35.3517 37.1414 35.8187 36.6754 37.5297 34.9604 37.0797 33.6994 38.3267 32.4384 37.0797 30.7224 37.5297 30.2554 35.8187 28.5454 35.3517 28.9954 33.6367 27.7484 32.3757 28.9954 31.1147 28.5454 29.3987 30.2554 28.9327 30.7224 27.2217 32.4384 27.6707 33.6994 26.4247 34.9604 27.6707 36.6754 27.2217 37.1414 28.9327 38.8534 29.3987 38.4034 31.1147"></polygon>
            <polygon id="Stroke-101" stroke="#FFD633" stroke-width="0.5" points="39.6504 32.3757 38.4034 33.6367 38.8534 35.3517 37.1414 35.8187 36.6754 37.5297 34.9604 37.0797 33.6994 38.3267 32.4384 37.0797 30.7224 37.5297 30.2554 35.8187 28.5454 35.3517 28.9954 33.6367 27.7484 32.3757 28.9954 31.1147 28.5454 29.3987 30.2554 28.9327 30.7224 27.2217 32.4384 27.6707 33.6994 26.4247 34.9604 27.6707 36.6754 27.2217 37.1414 28.9327 38.8534 29.3987 38.4034 31.1147"></polygon>
            <polygon id="Fill-103" fill="#FFD633" points="36.4756 32.3757 35.8946 32.9637 36.1036 33.7647 35.3056 33.9817 35.0876 34.7807 34.2876 34.5707 33.6996 35.1527 33.1106 34.5707 32.3096 34.7807 32.0926 33.9817 31.2936 33.7647 31.5036 32.9637 30.9216 32.3757 31.5036 31.7867 31.2936 30.9867 32.0926 30.7687 32.3106 29.9707 33.1106 30.1807 33.6996 29.5987 34.2876 30.1807 35.0876 29.9707 35.3056 30.7697 36.1046 30.9867 35.8946 31.7877"></polygon>
        </g>
    </g>
</svg>