<?xml version="1.0" encoding="UTF-8" standalone="no"?>
<svg
   xmlns:dc="http://purl.org/dc/elements/1.1/"
   xmlns:cc="http://creativecommons.org/ns#"
   xmlns:rdf="http://www.w3.org/1999/02/22-rdf-syntax-ns#"
   xmlns:svg="http://www.w3.org/2000/svg"
   xmlns="http://www.w3.org/2000/svg"
   xmlns:sodipodi="http://sodipodi.sourceforge.net/DTD/sodipodi-0.dtd"
   xmlns:inkscape="http://www.inkscape.org/namespaces/inkscape"
   width="68"
   height="68"
   viewBox="0 0 68 68"
   version="1.1"
   id="svg48"
   sodipodi:docname="7.svg"
   inkscape:version="0.92.4 5da689c313, 2019-01-14">
  <metadata
     id="metadata54">
    <rdf:RDF>
      <cc:Work
         rdf:about="">
        <dc:format>image/svg+xml</dc:format>
        <dc:type
           rdf:resource="http://purl.org/dc/dcmitype/StillImage" />
        <dc:title>Artboard</dc:title>
      </cc:Work>
    </rdf:RDF>
  </metadata>
  <defs
     id="defs52" />
  <sodipodi:namedview
     pagecolor="#ffffff"
     bordercolor="#666666"
     borderopacity="1"
     objecttolerance="10"
     gridtolerance="10"
     guidetolerance="10"
     inkscape:pageopacity="0"
     inkscape:pageshadow="2"
     inkscape:window-width="793"
     inkscape:window-height="647"
     id="namedview50"
     showgrid="false"
     inkscape:zoom="6.0811121"
     inkscape:cx="15.088985"
     inkscape:cy="21.5"
     inkscape:window-x="0"
     inkscape:window-y="0"
     inkscape:window-maximized="0"
     inkscape:current-layer="svg48" />
  <!-- Generator: Sketch 52.6 (67491) - http://www.bohemiancoding.com/sketch -->
  <title
     id="title2">Artboard</title>
  <desc
     id="desc4">Created with Sketch.</desc>
  <g
     id="Artboard"
     style="fill:none;fill-rule:evenodd;stroke:none;stroke-width:1"
     transform="translate(0.30075,25.540215)">
    <g
       id="Page-1-Copy-2">
      <path
         d="m 49.8662,35.4235 c 0,0 -1.396,-1.669 -2.905,-1.622 0,0 0.395,-0.084 0.745,-0.445 0,0 -0.312,-0.63 -2.965,-0.995 0,0 0.549,-0.275 0.617,-0.48 0,0 -1.624,-0.686 -2.859,-0.228 0,0 0,-0.297 0.32,-0.526 0,0 -2.996,0.218 -4.391,1.918 0,0 2.929,2.337 6.956,2.93 0,0 -2.951,0.779 -7.321,-1.941 0,0 -0.455,3.775 2.885,4.962 0,0 -0.275,-0.48 -0.252,-1.052 0,0 1.67,1.509 3.111,1.188 0,0 -0.389,-0.389 -0.503,-0.686 0,0 2.012,0.456 4.345,-0.071 0,0 -0.458,-0.137 -0.755,-0.64 0,0 1.875,-0.161 2.972,-2.312"
         id="Fill-1"
         inkscape:connector-curvature="0"
         style="fill:#dc9fff" />
      <path
         d="m 49.8662,35.4235 c 0,0 -1.396,-1.669 -2.905,-1.622 0,0 0.395,-0.084 0.745,-0.445 0,0 -0.312,-0.63 -2.965,-0.995 0,0 0.549,-0.275 0.617,-0.48 0,0 -1.624,-0.686 -2.859,-0.228 0,0 0,-0.297 0.32,-0.526 0,0 -2.996,0.218 -4.391,1.918 0,0 2.929,2.337 6.956,2.93 0,0 -2.951,0.779 -7.321,-1.941 0,0 -0.455,3.775 2.885,4.962 0,0 -0.275,-0.48 -0.252,-1.052 0,0 1.67,1.509 3.111,1.188 0,0 -0.389,-0.389 -0.503,-0.686 0,0 2.012,0.456 4.345,-0.071 0,0 -0.458,-0.137 -0.755,-0.64 0,0 1.875,-0.161 2.972,-2.312 z"
         id="Stroke-3"
         inkscape:connector-curvature="0"
         style="stroke:#9d33db;stroke-width:0.5;stroke-linejoin:round" />
      <path
         d="m 45.6338,40.1388 c 0,0 -0.73,-2.232 -2.263,-2.791 0,0 0.43,0.076 0.926,-0.147 0,0 -0.06,-0.757 -2.574,-2.185 0,0 0.66,-0.056 0.811,-0.235 0,0 -1.354,-1.337 -2.776,-1.373 0,0 0.119,-0.298 0.532,-0.399 0,0 -3.092,-0.982 -5.17,0.163 0,0 2,3.517 5.799,5.724 0,0 -3.269,-0.401 -6.561,-4.878 0,0 -1.969,3.602 0.904,6.131 0,0 -0.083,-0.592 0.168,-1.156 0,0 1.07,2.182 2.643,2.437 0,0 -0.234,-0.545 -0.229,-0.89 0,0 1.835,1.265 4.385,1.67 0,0 -0.404,-0.321 -0.5,-0.944 0,0 1.944,0.59 3.905,-1.127"
         id="Fill-5"
         inkscape:connector-curvature="0"
         style="fill:#dc9fff" />
      <path
         d="m 45.6338,40.1388 c 0,0 -0.73,-2.232 -2.263,-2.791 0,0 0.43,0.076 0.926,-0.147 0,0 -0.06,-0.757 -2.574,-2.185 0,0 0.66,-0.056 0.811,-0.235 0,0 -1.354,-1.337 -2.776,-1.373 0,0 0.119,-0.298 0.532,-0.399 0,0 -3.092,-0.982 -5.17,0.163 0,0 2,3.517 5.799,5.724 0,0 -3.269,-0.401 -6.561,-4.878 0,0 -1.969,3.602 0.904,6.131 0,0 -0.083,-0.592 0.168,-1.156 0,0 1.07,2.182 2.643,2.437 0,0 -0.234,-0.545 -0.229,-0.89 0,0 1.835,1.265 4.385,1.67 0,0 -0.404,-0.321 -0.5,-0.944 0,0 1.944,0.59 3.905,-1.127 z"
         id="Stroke-7"
         inkscape:connector-curvature="0"
         style="stroke:#9d33db;stroke-width:0.5;stroke-linejoin:round" />
      <path
         d="m 17.5313,35.4235 c 0,0 1.396,-1.669 2.906,-1.622 0,0 -0.396,-0.084 -0.745,-0.445 0,0 0.312,-0.63 2.965,-0.995 0,0 -0.549,-0.275 -0.617,-0.48 0,0 1.624,-0.686 2.858,-0.228 0,0 0.001,-0.297 -0.319,-0.526 0,0 2.996,0.218 4.39,1.918 0,0 -2.929,2.337 -6.955,2.93 0,0 2.951,0.779 7.321,-1.941 0,0 0.455,3.775 -2.885,4.962 0,0 0.274,-0.48 0.252,-1.052 0,0 -1.671,1.509 -3.111,1.188 0,0 0.388,-0.389 0.503,-0.686 0,0 -2.013,0.456 -4.345,-0.071 0,0 0.457,-0.137 0.755,-0.64 0,0 -1.876,-0.161 -2.973,-2.312"
         id="Fill-9"
         inkscape:connector-curvature="0"
         style="fill:#dc9fff" />
      <path
         d="m 17.5313,35.4235 c 0,0 1.396,-1.669 2.906,-1.622 0,0 -0.396,-0.084 -0.745,-0.445 0,0 0.312,-0.63 2.965,-0.995 0,0 -0.549,-0.275 -0.617,-0.48 0,0 1.624,-0.686 2.858,-0.228 0,0 0.001,-0.297 -0.319,-0.526 0,0 2.996,0.218 4.39,1.918 0,0 -2.929,2.337 -6.955,2.93 0,0 2.951,0.779 7.321,-1.941 0,0 0.455,3.775 -2.885,4.962 0,0 0.274,-0.48 0.252,-1.052 0,0 -1.671,1.509 -3.111,1.188 0,0 0.388,-0.389 0.503,-0.686 0,0 -2.013,0.456 -4.345,-0.071 0,0 0.457,-0.137 0.755,-0.64 0,0 -1.876,-0.161 -2.973,-2.312 z"
         id="Stroke-11"
         inkscape:connector-curvature="0"
         style="stroke:#9d33db;stroke-width:0.5;stroke-linejoin:round" />
      <path
         d="m 21.7637,40.1388 c 0,0 0.731,-2.232 2.264,-2.791 0,0 -0.431,0.076 -0.926,-0.147 0,0 0.059,-0.757 2.574,-2.185 0,0 -0.66,-0.056 -0.811,-0.235 0,0 1.353,-1.337 2.775,-1.373 0,0 -0.119,-0.298 -0.531,-0.399 0,0 3.091,-0.982 5.17,0.163 0,0 -2,3.517 -5.799,5.724 0,0 3.269,-0.401 6.561,-4.878 0,0 1.969,3.602 -0.904,6.131 0,0 0.083,-0.592 -0.169,-1.156 0,0 -1.07,2.182 -2.643,2.437 0,0 0.234,-0.545 0.23,-0.89 0,0 -1.836,1.265 -4.386,1.67 0,0 0.405,-0.321 0.501,-0.944 0,0 -1.945,0.59 -3.906,-1.127"
         id="Fill-13"
         inkscape:connector-curvature="0"
         style="fill:#dc9fff" />
      <path
         d="m 21.7637,40.1388 c 0,0 0.731,-2.232 2.264,-2.791 0,0 -0.431,0.076 -0.926,-0.147 0,0 0.059,-0.757 2.574,-2.185 0,0 -0.66,-0.056 -0.811,-0.235 0,0 1.353,-1.337 2.775,-1.373 0,0 -0.119,-0.298 -0.531,-0.399 0,0 3.091,-0.982 5.17,0.163 0,0 -2,3.517 -5.799,5.724 0,0 3.269,-0.401 6.561,-4.878 0,0 1.969,3.602 -0.904,6.131 0,0 0.083,-0.592 -0.169,-1.156 0,0 -1.07,2.182 -2.643,2.437 0,0 0.234,-0.545 0.23,-0.89 0,0 -1.836,1.265 -4.386,1.67 0,0 0.405,-0.321 0.501,-0.944 0,0 -1.945,0.59 -3.906,-1.127 z"
         id="Stroke-15"
         inkscape:connector-curvature="0"
         style="stroke:#9d33db;stroke-width:0.5;stroke-linejoin:round" />
      <path
         d="m 40.999,29.1965 c 0.221,-0.412 1.062,-0.834 1.635,-1.088 0.291,-0.129 0.62,0.049 0.678,0.361 0.112,0.615 0.224,1.55 0.006,1.96 -0.12,0.224 -0.418,0.447 -0.755,0.646 0.39,-0.027 0.764,-0.005 0.986,0.112 0.411,0.216 0.837,1.057 1.087,1.631 0.126,0.291 -0.049,0.622 -0.362,0.677 -0.616,0.108 -1.551,0.226 -1.963,0.008 -0.412,-0.217 -0.835,-1.058 -1.087,-1.631 -0.059,-0.133 0.367,-0.4 0.422,-0.518 -0.111,-0.066 -0.616,-0.054 -0.64,-0.198 -0.111,-0.616 -0.227,-1.551 -0.007,-1.96"
         id="Fill-17"
         inkscape:connector-curvature="0"
         style="fill:#ba37f8" />
      <path
         d="m 40.999,29.1965 c 0.221,-0.412 1.062,-0.834 1.635,-1.088 0.291,-0.129 0.62,0.049 0.678,0.361 0.112,0.615 0.224,1.55 0.006,1.96 -0.12,0.224 -0.418,0.447 -0.755,0.646 0.39,-0.027 0.764,-0.005 0.986,0.112 0.411,0.216 0.837,1.057 1.087,1.631 0.126,0.291 -0.049,0.622 -0.362,0.677 -0.616,0.108 -1.551,0.226 -1.963,0.008 -0.412,-0.217 -0.835,-1.058 -1.087,-1.631 -0.059,-0.133 0.367,-0.4 0.422,-0.518 -0.111,-0.066 -0.616,-0.054 -0.64,-0.198 -0.111,-0.616 -0.227,-1.551 -0.007,-1.96 z"
         id="Stroke-19"
         inkscape:connector-curvature="0"
         style="stroke:#9d33db;stroke-width:0.5" />
      <path
         d="m 44.835,27.861 c 0.167,-0.437 0.947,-0.964 1.482,-1.29 0.272,-0.165 0.622,-0.03 0.718,0.271 0.191,0.596 0.423,1.509 0.259,1.943 -0.089,0.238 -0.355,0.497 -0.665,0.738 0.383,-0.077 0.757,-0.103 0.992,-0.016 0.435,0.161 0.966,0.941 1.287,1.478 0.163,0.272 0.032,0.623 -0.27,0.718 -0.597,0.186 -1.509,0.424 -1.948,0.261 -0.434,-0.163 -0.963,-0.942 -1.287,-1.478 -0.076,-0.125 0.313,-0.444 0.353,-0.568 -0.119,-0.052 -0.617,0.025 -0.661,-0.114 -0.189,-0.596 -0.425,-1.509 -0.26,-1.943"
         id="Fill-21"
         inkscape:connector-curvature="0"
         style="fill:#ba37f8" />
      <path
         d="m 44.835,27.861 c 0.167,-0.437 0.947,-0.964 1.482,-1.29 0.272,-0.165 0.622,-0.03 0.718,0.271 0.191,0.596 0.423,1.509 0.259,1.943 -0.089,0.238 -0.355,0.497 -0.665,0.738 0.383,-0.077 0.757,-0.103 0.992,-0.016 0.435,0.161 0.966,0.941 1.287,1.478 0.163,0.272 0.032,0.623 -0.27,0.718 -0.597,0.186 -1.509,0.424 -1.948,0.261 -0.434,-0.163 -0.963,-0.942 -1.287,-1.478 -0.076,-0.125 0.313,-0.444 0.353,-0.568 -0.119,-0.052 -0.617,0.025 -0.661,-0.114 -0.189,-0.596 -0.425,-1.509 -0.26,-1.943 z"
         id="Stroke-23"
         inkscape:connector-curvature="0"
         style="stroke:#9d33db;stroke-width:0.5" />
      <path
         d="m 48.3994,26.0182 c 0.108,-0.455 0.813,-1.079 1.302,-1.471 0.247,-0.199 0.611,-0.112 0.747,0.175 0.266,0.566 0.615,1.441 0.509,1.893 -0.058,0.247 -0.288,0.539 -0.564,0.818 0.37,-0.126 0.737,-0.201 0.982,-0.145 0.452,0.103 1.08,0.808 1.468,1.298 0.198,0.248 0.114,0.614 -0.174,0.747 -0.569,0.263 -1.442,0.617 -1.897,0.512 -0.453,-0.105 -1.079,-0.809 -1.47,-1.298 -0.091,-0.113 0.253,-0.481 0.277,-0.609 -0.125,-0.036 -0.61,0.105 -0.67,-0.027 -0.265,-0.567 -0.617,-1.441 -0.51,-1.893"
         id="Fill-25"
         inkscape:connector-curvature="0"
         style="fill:#ba37f8" />
      <path
         d="m 48.3994,26.0182 c 0.108,-0.455 0.813,-1.079 1.302,-1.471 0.247,-0.199 0.611,-0.112 0.747,0.175 0.266,0.566 0.615,1.441 0.509,1.893 -0.058,0.247 -0.288,0.539 -0.564,0.818 0.37,-0.126 0.737,-0.201 0.982,-0.145 0.452,0.103 1.08,0.808 1.468,1.298 0.198,0.248 0.114,0.614 -0.174,0.747 -0.569,0.263 -1.442,0.617 -1.897,0.512 -0.453,-0.105 -1.079,-0.809 -1.47,-1.298 -0.091,-0.113 0.253,-0.481 0.277,-0.609 -0.125,-0.036 -0.61,0.105 -0.67,-0.027 -0.265,-0.567 -0.617,-1.441 -0.51,-1.893 z"
         id="Stroke-27"
         inkscape:connector-curvature="0"
         style="stroke:#9d33db;stroke-width:0.5" />
      <path
         d="m 51.6367,23.7302 c 0.044,-0.465 0.655,-1.182 1.084,-1.639 0.217,-0.231 0.59,-0.195 0.764,0.07 0.342,0.523 0.81,1.34 0.769,1.803 -0.023,0.252 -0.211,0.574 -0.444,0.889 0.348,-0.177 0.701,-0.302 0.951,-0.281 0.463,0.039 1.183,0.648 1.636,1.08 0.229,0.218 0.198,0.592 -0.07,0.764 -0.525,0.339 -1.34,0.812 -1.805,0.772 -0.463,-0.041 -1.181,-0.65 -1.636,-1.08 -0.106,-0.1 0.183,-0.512 0.188,-0.642 -0.128,-0.018 -0.588,0.189 -0.667,0.067 -0.341,-0.525 -0.813,-1.341 -0.77,-1.803"
         id="Fill-29"
         inkscape:connector-curvature="0"
         style="fill:#ba37f8" />
      <path
         d="m 51.6367,23.7302 c 0.044,-0.465 0.655,-1.182 1.084,-1.639 0.217,-0.231 0.59,-0.195 0.764,0.07 0.342,0.523 0.81,1.34 0.769,1.803 -0.023,0.252 -0.211,0.574 -0.444,0.889 0.348,-0.177 0.701,-0.302 0.951,-0.281 0.463,0.039 1.183,0.648 1.636,1.08 0.229,0.218 0.198,0.592 -0.07,0.764 -0.525,0.339 -1.34,0.812 -1.805,0.772 -0.463,-0.041 -1.181,-0.65 -1.636,-1.08 -0.106,-0.1 0.183,-0.512 0.188,-0.642 -0.128,-0.018 -0.588,0.189 -0.667,0.067 -0.341,-0.525 -0.813,-1.341 -0.77,-1.803 z"
         id="Stroke-31"
         inkscape:connector-curvature="0"
         style="stroke:#9d33db;stroke-width:0.5" />
      <path
         d="m 54.5186,21.0285 c -0.023,-0.466 0.479,-1.264 0.838,-1.776 0.183,-0.261 0.557,-0.279 0.766,-0.041 0.415,0.469 0.995,1.211 1.019,1.674 0.014,0.254 -0.126,0.599 -0.312,0.944 0.32,-0.225 0.651,-0.399 0.901,-0.414 0.464,-0.028 1.264,0.473 1.773,0.835 0.259,0.184 0.281,0.558 0.041,0.766 -0.471,0.411 -1.211,0.996 -1.677,1.022 -0.463,0.027 -1.262,-0.475 -1.774,-0.835 -0.119,-0.083 0.109,-0.532 0.095,-0.662 -0.13,0.001 -0.556,0.272 -0.651,0.162 -0.413,-0.471 -0.996,-1.211 -1.019,-1.675"
         id="Fill-33"
         inkscape:connector-curvature="0"
         style="fill:#ba37f8" />
      <path
         d="m 54.5186,21.0285 c -0.023,-0.466 0.479,-1.264 0.838,-1.776 0.183,-0.261 0.557,-0.279 0.766,-0.041 0.415,0.469 0.995,1.211 1.019,1.674 0.014,0.254 -0.126,0.599 -0.312,0.944 0.32,-0.225 0.651,-0.399 0.901,-0.414 0.464,-0.028 1.264,0.473 1.773,0.835 0.259,0.184 0.281,0.558 0.041,0.766 -0.471,0.411 -1.211,0.996 -1.677,1.022 -0.463,0.027 -1.262,-0.475 -1.774,-0.835 -0.119,-0.083 0.109,-0.532 0.095,-0.662 -0.13,0.001 -0.556,0.272 -0.651,0.162 -0.413,-0.471 -0.996,-1.211 -1.019,-1.675 z"
         id="Stroke-35"
         inkscape:connector-curvature="0"
         style="stroke:#9d33db;stroke-width:0.5" />
      <path
         d="m 57.0049,17.9469 c -0.09,-0.459 0.295,-1.319 0.577,-1.878 0.143,-0.284 0.511,-0.355 0.752,-0.149 0.478,0.405 1.156,1.057 1.247,1.512 0.049,0.249 -0.04,0.611 -0.175,0.978 0.285,-0.268 0.588,-0.487 0.833,-0.537 0.454,-0.093 1.318,0.288 1.874,0.574 0.283,0.145 0.357,0.512 0.15,0.752 -0.408,0.475 -1.058,1.158 -1.515,1.251 -0.455,0.092 -1.316,-0.291 -1.875,-0.575 -0.129,-0.065 0.031,-0.542 0,-0.668 -0.129,0.019 -0.512,0.347 -0.622,0.253 -0.475,-0.408 -1.157,-1.058 -1.246,-1.513"
         id="Fill-37"
         inkscape:connector-curvature="0"
         style="fill:#ba37f8" />
      <path
         d="m 57.0049,17.9469 c -0.09,-0.459 0.295,-1.319 0.577,-1.878 0.143,-0.284 0.511,-0.355 0.752,-0.149 0.478,0.405 1.156,1.057 1.247,1.512 0.049,0.249 -0.04,0.611 -0.175,0.978 0.285,-0.268 0.588,-0.487 0.833,-0.537 0.454,-0.093 1.318,0.288 1.874,0.574 0.283,0.145 0.357,0.512 0.15,0.752 -0.408,0.475 -1.058,1.158 -1.515,1.251 -0.455,0.092 -1.316,-0.291 -1.875,-0.575 -0.129,-0.065 0.031,-0.542 0,-0.668 -0.129,0.019 -0.512,0.347 -0.622,0.253 -0.475,-0.408 -1.157,-1.058 -1.246,-1.513 z"
         id="Stroke-39"
         inkscape:connector-curvature="0"
         style="stroke:#9d33db;stroke-width:0.5" />
      <path
         d="m 59.0518,14.4831 c -0.146,-0.444 0.128,-1.346 0.338,-1.935 0.106,-0.299 0.463,-0.416 0.728,-0.242 0.524,0.343 1.28,0.905 1.425,1.345 0.081,0.241 0.037,0.611 -0.051,0.992 0.248,-0.301 0.523,-0.556 0.76,-0.637 0.44,-0.149 1.343,0.122 1.931,0.336 0.298,0.108 0.418,0.463 0.242,0.728 -0.346,0.521 -0.904,1.281 -1.348,1.43 -0.439,0.148 -1.341,-0.125 -1.93,-0.336 -0.137,-0.05 -0.037,-0.543 -0.084,-0.664 -0.125,0.035 -0.464,0.409 -0.585,0.328 -0.523,-0.345 -1.281,-0.904 -1.426,-1.345"
         id="Fill-41"
         inkscape:connector-curvature="0"
         style="fill:#ba37f8" />
      <path
         d="m 59.0518,14.4831 c -0.146,-0.444 0.128,-1.346 0.338,-1.935 0.106,-0.299 0.463,-0.416 0.728,-0.242 0.524,0.343 1.28,0.905 1.425,1.345 0.081,0.241 0.037,0.611 -0.051,0.992 0.248,-0.301 0.523,-0.556 0.76,-0.637 0.44,-0.149 1.343,0.122 1.931,0.336 0.298,0.108 0.418,0.463 0.242,0.728 -0.346,0.521 -0.904,1.281 -1.348,1.43 -0.439,0.148 -1.341,-0.125 -1.93,-0.336 -0.137,-0.05 -0.037,-0.543 -0.084,-0.664 -0.125,0.035 -0.464,0.409 -0.585,0.328 -0.523,-0.345 -1.281,-0.904 -1.426,-1.345 z"
         id="Stroke-43"
         inkscape:connector-curvature="0"
         style="stroke:#9d33db;stroke-width:0.5" />
      <path
         d="m 26.3994,29.1965 c -0.221,-0.412 -1.063,-0.834 -1.636,-1.088 -0.29,-0.129 -0.62,0.049 -0.677,0.361 -0.112,0.615 -0.225,1.55 -0.006,1.96 0.119,0.224 0.417,0.447 0.755,0.646 -0.39,-0.027 -0.764,-0.005 -0.986,0.112 -0.411,0.216 -0.837,1.057 -1.087,1.631 -0.127,0.291 0.048,0.622 0.362,0.677 0.616,0.108 1.55,0.226 1.963,0.008 0.411,-0.217 0.835,-1.058 1.087,-1.631 0.059,-0.133 -0.367,-0.4 -0.422,-0.518 0.111,-0.066 0.615,-0.054 0.64,-0.198 0.111,-0.616 0.227,-1.551 0.007,-1.96"
         id="Fill-57"
         inkscape:connector-curvature="0"
         style="fill:#ba37f8" />
      <path
         d="m 26.3994,29.1965 c -0.221,-0.412 -1.063,-0.834 -1.636,-1.088 -0.29,-0.129 -0.62,0.049 -0.677,0.361 -0.112,0.615 -0.225,1.55 -0.006,1.96 0.119,0.224 0.417,0.447 0.755,0.646 -0.39,-0.027 -0.764,-0.005 -0.986,0.112 -0.411,0.216 -0.837,1.057 -1.087,1.631 -0.127,0.291 0.048,0.622 0.362,0.677 0.616,0.108 1.55,0.226 1.963,0.008 0.411,-0.217 0.835,-1.058 1.087,-1.631 0.059,-0.133 -0.367,-0.4 -0.422,-0.518 0.111,-0.066 0.615,-0.054 0.64,-0.198 0.111,-0.616 0.227,-1.551 0.007,-1.96 z"
         id="Stroke-59"
         inkscape:connector-curvature="0"
         style="stroke:#9d33db;stroke-width:0.5" />
      <path
         d="m 22.5625,27.861 c -0.166,-0.437 -0.947,-0.964 -1.481,-1.29 -0.272,-0.165 -0.622,-0.03 -0.718,0.271 -0.192,0.596 -0.423,1.509 -0.26,1.943 0.09,0.238 0.356,0.497 0.665,0.738 -0.383,-0.077 -0.756,-0.103 -0.991,-0.016 -0.436,0.161 -0.966,0.941 -1.288,1.478 -0.163,0.272 -0.032,0.623 0.271,0.718 0.597,0.186 1.509,0.424 1.947,0.261 0.434,-0.163 0.963,-0.942 1.288,-1.478 0.075,-0.125 -0.314,-0.444 -0.354,-0.568 0.12,-0.052 0.618,0.025 0.662,-0.114 0.188,-0.596 0.424,-1.509 0.259,-1.943"
         id="Fill-61"
         inkscape:connector-curvature="0"
         style="fill:#ba37f8" />
      <path
         d="m 22.5625,27.861 c -0.166,-0.437 -0.947,-0.964 -1.481,-1.29 -0.272,-0.165 -0.622,-0.03 -0.718,0.271 -0.192,0.596 -0.423,1.509 -0.26,1.943 0.09,0.238 0.356,0.497 0.665,0.738 -0.383,-0.077 -0.756,-0.103 -0.991,-0.016 -0.436,0.161 -0.966,0.941 -1.288,1.478 -0.163,0.272 -0.032,0.623 0.271,0.718 0.597,0.186 1.509,0.424 1.947,0.261 0.434,-0.163 0.963,-0.942 1.288,-1.478 0.075,-0.125 -0.314,-0.444 -0.354,-0.568 0.12,-0.052 0.618,0.025 0.662,-0.114 0.188,-0.596 0.424,-1.509 0.259,-1.943 z"
         id="Stroke-63"
         inkscape:connector-curvature="0"
         style="stroke:#9d33db;stroke-width:0.5" />
      <path
         d="m 18.999,26.0182 c -0.108,-0.455 -0.813,-1.079 -1.302,-1.471 -0.247,-0.199 -0.612,-0.112 -0.747,0.175 -0.266,0.566 -0.615,1.441 -0.51,1.893 0.059,0.247 0.289,0.539 0.564,0.818 -0.369,-0.126 -0.736,-0.201 -0.981,-0.145 -0.452,0.103 -1.08,0.808 -1.468,1.298 -0.198,0.248 -0.114,0.614 0.174,0.747 0.569,0.263 1.442,0.617 1.897,0.512 0.452,-0.105 1.078,-0.809 1.469,-1.298 0.091,-0.113 -0.252,-0.481 -0.277,-0.609 0.125,-0.036 0.61,0.105 0.671,-0.027 0.265,-0.567 0.617,-1.441 0.51,-1.893"
         id="Fill-65"
         inkscape:connector-curvature="0"
         style="fill:#ba37f8" />
      <path
         d="m 18.999,26.0182 c -0.108,-0.455 -0.813,-1.079 -1.302,-1.471 -0.247,-0.199 -0.612,-0.112 -0.747,0.175 -0.266,0.566 -0.615,1.441 -0.51,1.893 0.059,0.247 0.289,0.539 0.564,0.818 -0.369,-0.126 -0.736,-0.201 -0.981,-0.145 -0.452,0.103 -1.08,0.808 -1.468,1.298 -0.198,0.248 -0.114,0.614 0.174,0.747 0.569,0.263 1.442,0.617 1.897,0.512 0.452,-0.105 1.078,-0.809 1.469,-1.298 0.091,-0.113 -0.252,-0.481 -0.277,-0.609 0.125,-0.036 0.61,0.105 0.671,-0.027 0.265,-0.567 0.617,-1.441 0.51,-1.893 z"
         id="Stroke-67"
         inkscape:connector-curvature="0"
         style="stroke:#9d33db;stroke-width:0.5" />
      <path
         d="m 15.7608,23.7302 c -0.043,-0.465 -0.654,-1.182 -1.083,-1.639 -0.217,-0.231 -0.59,-0.195 -0.764,0.07 -0.343,0.523 -0.811,1.34 -0.769,1.803 0.022,0.252 0.211,0.574 0.444,0.889 -0.349,-0.177 -0.702,-0.302 -0.951,-0.281 -0.463,0.039 -1.183,0.648 -1.637,1.08 -0.229,0.218 -0.197,0.592 0.07,0.764 0.525,0.339 1.34,0.812 1.806,0.772 0.462,-0.041 1.181,-0.65 1.636,-1.08 0.106,-0.1 -0.183,-0.512 -0.189,-0.642 0.129,-0.018 0.589,0.189 0.668,0.067 0.341,-0.525 0.813,-1.341 0.769,-1.803"
         id="Fill-69"
         inkscape:connector-curvature="0"
         style="fill:#ba37f8" />
      <path
         d="m 15.7608,23.7302 c -0.043,-0.465 -0.654,-1.182 -1.083,-1.639 -0.217,-0.231 -0.59,-0.195 -0.764,0.07 -0.343,0.523 -0.811,1.34 -0.769,1.803 0.022,0.252 0.211,0.574 0.444,0.889 -0.349,-0.177 -0.702,-0.302 -0.951,-0.281 -0.463,0.039 -1.183,0.648 -1.637,1.08 -0.229,0.218 -0.197,0.592 0.07,0.764 0.525,0.339 1.34,0.812 1.806,0.772 0.462,-0.041 1.181,-0.65 1.636,-1.08 0.106,-0.1 -0.183,-0.512 -0.189,-0.642 0.129,-0.018 0.589,0.189 0.668,0.067 0.341,-0.525 0.813,-1.341 0.769,-1.803 z"
         id="Stroke-71"
         inkscape:connector-curvature="0"
         style="stroke:#9d33db;stroke-width:0.5" />
      <path
         d="m 12.8789,21.0285 c 0.023,-0.466 -0.479,-1.264 -0.838,-1.776 -0.182,-0.261 -0.557,-0.279 -0.766,-0.041 -0.415,0.469 -0.994,1.211 -1.019,1.674 -0.013,0.254 0.127,0.599 0.312,0.944 -0.319,-0.225 -0.65,-0.399 -0.901,-0.414 -0.463,-0.028 -1.263,0.473 -1.773,0.835 -0.258,0.184 -0.28,0.558 -0.04,0.766 0.471,0.411 1.211,0.996 1.677,1.022 0.463,0.027 1.261,-0.475 1.774,-0.835 0.118,-0.083 -0.109,-0.532 -0.096,-0.662 0.13,0.001 0.556,0.272 0.651,0.162 0.414,-0.471 0.997,-1.211 1.019,-1.675"
         id="Fill-73"
         inkscape:connector-curvature="0"
         style="fill:#ba37f8" />
      <path
         d="m 12.8789,21.0285 c 0.023,-0.466 -0.479,-1.264 -0.838,-1.776 -0.182,-0.261 -0.557,-0.279 -0.766,-0.041 -0.415,0.469 -0.994,1.211 -1.019,1.674 -0.013,0.254 0.127,0.599 0.312,0.944 -0.319,-0.225 -0.65,-0.399 -0.901,-0.414 -0.463,-0.028 -1.263,0.473 -1.773,0.835 -0.258,0.184 -0.28,0.558 -0.04,0.766 0.471,0.411 1.211,0.996 1.677,1.022 0.463,0.027 1.261,-0.475 1.774,-0.835 0.118,-0.083 -0.109,-0.532 -0.096,-0.662 0.13,0.001 0.556,0.272 0.651,0.162 0.414,-0.471 0.997,-1.211 1.019,-1.675 z"
         id="Stroke-75"
         inkscape:connector-curvature="0"
         style="stroke:#9d33db;stroke-width:0.5" />
      <path
         d="m 10.3936,17.9469 c 0.089,-0.459 -0.295,-1.319 -0.577,-1.878 -0.143,-0.284 -0.511,-0.355 -0.753,-0.149 -0.477,0.405 -1.156,1.057 -1.246,1.512 -0.05,0.249 0.04,0.611 0.175,0.978 -0.285,-0.268 -0.588,-0.487 -0.833,-0.537 -0.455,-0.093 -1.318,0.288 -1.874,0.574 -0.283,0.145 -0.358,0.512 -0.15,0.752 0.408,0.475 1.057,1.158 1.515,1.251 0.455,0.092 1.316,-0.291 1.874,-0.575 0.13,-0.065 -0.031,-0.542 0,-0.668 0.129,0.019 0.512,0.347 0.622,0.253 0.476,-0.408 1.158,-1.058 1.247,-1.513"
         id="Fill-77"
         inkscape:connector-curvature="0"
         style="fill:#ba37f8" />
      <path
         d="m 10.3936,17.9469 c 0.089,-0.459 -0.295,-1.319 -0.577,-1.878 -0.143,-0.284 -0.511,-0.355 -0.753,-0.149 -0.477,0.405 -1.156,1.057 -1.246,1.512 -0.05,0.249 0.04,0.611 0.175,0.978 -0.285,-0.268 -0.588,-0.487 -0.833,-0.537 -0.455,-0.093 -1.318,0.288 -1.874,0.574 -0.283,0.145 -0.358,0.512 -0.15,0.752 0.408,0.475 1.057,1.158 1.515,1.251 0.455,0.092 1.316,-0.291 1.874,-0.575 0.13,-0.065 -0.031,-0.542 0,-0.668 0.129,0.019 0.512,0.347 0.622,0.253 0.476,-0.408 1.158,-1.058 1.247,-1.513 z"
         id="Stroke-79"
         inkscape:connector-curvature="0"
         style="stroke:#9d33db;stroke-width:0.5" />
      <path
         d="m 8.3467,14.4831 c 0.146,-0.444 -0.128,-1.346 -0.338,-1.935 -0.107,-0.299 -0.463,-0.416 -0.728,-0.242 -0.524,0.343 -1.28,0.905 -1.426,1.345 -0.08,0.241 -0.036,0.611 0.052,0.992 -0.249,-0.301 -0.523,-0.556 -0.76,-0.637 -0.44,-0.149 -1.343,0.122 -1.931,0.336 -0.298,0.108 -0.418,0.463 -0.242,0.728 0.346,0.521 0.904,1.281 1.347,1.43 0.44,0.148 1.342,-0.125 1.931,-0.336 0.137,-0.05 0.036,-0.543 0.083,-0.664 0.126,0.035 0.465,0.409 0.586,0.328 0.523,-0.345 1.28,-0.904 1.426,-1.345"
         id="Fill-81"
         inkscape:connector-curvature="0"
         style="fill:#ba37f8" />
      <path
         d="m 8.3467,14.4831 c 0.146,-0.444 -0.128,-1.346 -0.338,-1.935 -0.107,-0.299 -0.463,-0.416 -0.728,-0.242 -0.524,0.343 -1.28,0.905 -1.426,1.345 -0.08,0.241 -0.036,0.611 0.052,0.992 -0.249,-0.301 -0.523,-0.556 -0.76,-0.637 -0.44,-0.149 -1.343,0.122 -1.931,0.336 -0.298,0.108 -0.418,0.463 -0.242,0.728 0.346,0.521 0.904,1.281 1.347,1.43 0.44,0.148 1.342,-0.125 1.931,-0.336 0.137,-0.05 0.036,-0.543 0.083,-0.664 0.126,0.035 0.465,0.409 0.586,0.328 0.523,-0.345 1.28,-0.904 1.426,-1.345 z"
         id="Stroke-83"
         inkscape:connector-curvature="0"
         style="stroke:#9d33db;stroke-width:0.5" />
      <path
         d="m 6.0581055,14.963379 c 6.8180335,11.763672 15.8883465,17.645508 27.2109375,17.645508 11.322591,0 20.772624,-5.881836 28.350098,-17.645508"
         id="Path-3"
         inkscape:connector-curvature="0"
         style="fill-rule:nonzero;stroke:#9d33db;stroke-width:0.5" />
      <polygon
         id="Fill-99"
         points="36.6754,37.5297 34.9604,37.0797 33.6994,38.3267 32.4384,37.0797 30.7224,37.5297 30.2554,35.8187 28.5454,35.3517 28.9954,33.6367 27.7484,32.3757 28.9954,31.1147 28.5454,29.3987 30.2554,28.9327 30.7224,27.2217 32.4384,27.6707 33.6994,26.4247 34.9604,27.6707 36.6754,27.2217 37.1414,28.9327 38.8534,29.3987 38.4034,31.1147 39.6504,32.3757 38.4034,33.6367 38.8534,35.3517 37.1414,35.8187 "
         style="fill:#ffe680" />
      <polygon
         id="Stroke-101"
         points="36.6754,37.5297 34.9604,37.0797 33.6994,38.3267 32.4384,37.0797 30.7224,37.5297 30.2554,35.8187 28.5454,35.3517 28.9954,33.6367 27.7484,32.3757 28.9954,31.1147 28.5454,29.3987 30.2554,28.9327 30.7224,27.2217 32.4384,27.6707 33.6994,26.4247 34.9604,27.6707 36.6754,27.2217 37.1414,28.9327 38.8534,29.3987 38.4034,31.1147 39.6504,32.3757 38.4034,33.6367 38.8534,35.3517 37.1414,35.8187 "
         style="stroke:#ffd633;stroke-width:0.5" />
      <polygon
         id="Fill-103"
         points="35.0876,34.7807 34.2876,34.5707 33.6996,35.1527 33.1106,34.5707 32.3096,34.7807 32.0926,33.9817 31.2936,33.7647 31.5036,32.9637 30.9216,32.3757 31.5036,31.7867 31.2936,30.9867 32.0926,30.7687 32.3106,29.9707 33.1106,30.1807 33.6996,29.5987 34.2876,30.1807 35.0876,29.9707 35.3056,30.7697 36.1046,30.9867 35.8946,31.7877 36.4756,32.3757 35.8946,32.9637 36.1036,33.7647 35.3056,33.9817 "
         style="fill:#ffd633" />
    </g>
  </g>
</svg>
