<?xml version="1.0" encoding="UTF-8"?>
<svg width="105px" height="89px" viewBox="0 0 105 89" version="1.1" xmlns="http://www.w3.org/2000/svg" xmlns:xlink="http://www.w3.org/1999/xlink">
    <!-- Generator: Sketch 50.2 (55047) - http://www.bohemiancoding.com/sketch -->
    <title>Artboard</title>
    <desc>Created with Sketch.</desc>
    <defs>
        <polygon id="path-1" points="0 1.75918367 101.980973 1.75918367 101.980973 89.5128571 0 89.5128571"></polygon>
    </defs>
    <g id="Artboard" stroke="none" stroke-width="1" fill="none" fill-rule="evenodd">
        <g id="Page-1">
            <g id="Group-3" transform="translate(0.000000, 0.282449)">
                <mask id="mask-2" fill="white">
                    <use xlink:href="#path-1"></use>
                </mask>
                <g id="Clip-2"></g>
                <path d="M101.980973,63.7781633 C101.980973,72.9618367 99.9845804,81.6781633 96.3935216,89.5128571 L-0.000203921569,89.5128571 L-0.000203921569,16.4536735 C10.7872471,7.27 24.7558745,1.7577551 40.0092078,1.7577551 C74.2476392,1.7577551 101.980973,29.5353061 101.980973,63.7781633" id="Fill-1" fill="#E2EFF3" mask="url(#mask-2)"></path>
            </g>
            <path d="M38.4724549,10.8757143 C38.4724549,12.0042857 37.5588863,12.9165306 36.4332392,12.9165306 C35.3055529,12.9165306 34.3940235,12.0042857 34.3940235,10.8757143 C34.3940235,9.74714286 35.3055529,8.83489796 36.4332392,8.83489796 C37.5588863,8.83489796 38.4724549,9.74714286 38.4724549,10.8757143" id="Fill-4" fill="#A5D9E4"></path>
            <path d="M73.5553255,18.3255102 C74.6626196,18.5357143 75.3906196,19.6010204 75.1826196,20.7091837 C74.9725804,21.8153061 73.9081098,22.5438776 72.8008157,22.3357143 C71.6935216,22.127551 70.9655216,21.0602041 71.1735216,19.9540816 C71.3835608,18.8459184 72.4480314,18.1153061 73.5553255,18.3255102" id="Fill-6" fill="#A5D9E4"></path>
            <path d="M93.4079059,79.324898 C94.5131608,79.535102 95.2411608,80.6004082 95.0331608,81.7085714 C94.8251608,82.8167347 93.758651,83.5453061 92.6533961,83.3371429 C91.546102,83.1269388 90.8160627,82.0616327 91.026102,80.9534694 C91.2361412,79.8453061 92.3006118,79.1167347 93.4079059,79.324898" id="Fill-8" fill="#A5D9E4"></path>
            <path d="M84.1676078,62.8967347 C85.274902,63.1069388 86.002902,64.1722449 85.794902,65.2804082 C85.5848627,66.3885714 84.5203922,67.115102 83.413098,66.9089796 C82.3058039,66.6987755 81.5778039,65.6314286 81.7858039,64.5253061 C81.9958431,63.4171429 83.0603137,62.6865306 84.1676078,62.8967347" id="Fill-10" fill="#A5D9E4"></path>
            <path d="M12.1798275,72.8755102 C13.2871216,73.0857143 14.0151216,74.1510204 13.8071216,75.2591837 C13.5991216,76.3673469 12.5326118,77.0938776 11.4253176,76.8877551 C10.3200627,76.677551 9.59002353,75.6102041 9.80006275,74.5040816 C10.0080627,73.3959184 11.0745725,72.6653061 12.1798275,72.8755102" id="Fill-12" fill="#A5D9E4"></path>
            <path d="M8.44785882,24.5536735 C9.55311373,24.7638776 10.2811137,25.8291837 10.0731137,26.9373469 C9.86511373,28.0455102 8.79860392,28.7720408 7.69334902,28.5659184 C6.5860549,28.3557143 5.85601569,27.2904082 6.0660549,26.1822449 C6.27609412,25.0740816 7.34056471,24.3434694 8.44785882,24.5536735" id="Fill-14" fill="#A5D9E4"></path>
            <path d="M65.0899294,80.7736735 C66.1972235,80.9818367 66.9231843,82.0491837 66.7172235,83.1573469 C66.5071843,84.2634694 65.4406745,84.9920408 64.3354196,84.7838776 C63.2281255,84.5757143 62.4980863,83.5083673 62.7081255,82.4022449 C62.9181647,81.2940816 63.9826353,80.5634694 65.0899294,80.7736735" id="Fill-16" fill="#A5D9E4"></path>
            <path d="M89.3274353,39.1602041 C90.4347294,39.3683673 91.1627294,40.4357143 90.9547294,41.5438776 C90.7446902,42.65 89.6802196,43.3785714 88.5729255,43.1704082 C87.4656314,42.9622449 86.7376314,41.894898 86.9456314,40.7867347 C87.1556706,39.6806122 88.2221804,38.95 89.3274353,39.1602041" id="Fill-18" fill="#A5D9E4"></path>
            <path d="M40.575498,51.8793878 L37.7042824,62.4630612 C37.1924392,64.3528571 35.2470275,65.4691837 33.3587137,64.954898 C31.4704,64.4426531 30.354949,62.4957143 30.8667922,60.6059184 C31.0523608,59.9283673 31.4173804,59.3528571 31.9006745,58.9120408 L40.0045176,51.5304082 C40.1472627,51.4018367 40.3654588,51.4120408 40.4959686,51.554898 C40.5795765,51.6446939 40.6040471,51.7691837 40.575498,51.8793878" id="Fill-20" fill="#2F3061"></path>
            <path d="M41.1468863,67.1097959 C40.4515137,66.7138776 39.6460235,66.7077551 38.9669647,67.0097959 L38.5550431,66.775102 L38.8772392,66.2097959 C39.5379451,65.0485714 39.1321412,63.5710204 37.9697882,62.9097959 C36.9440627,62.3240816 35.6715922,62.5771429 34.9354353,63.4485714 L35.2576314,62.8955102 C35.9203765,61.7342857 35.5125333,60.2567347 34.3522196,59.5955102 C33.1939451,58.9342857 31.7155137,59.3404082 31.0568471,60.5016327 L30.1799843,62.0057143 L30.1493961,61.9873469 L30.4736314,61.4240816 C31.132298,60.2628571 30.7285333,58.7853061 29.5661804,58.1240816 C28.4058667,57.4608163 26.9294745,57.8689796 26.2687686,59.0302041 L25.7915922,59.8730612 C24.9840627,59.2057143 23.2772392,59.2097959 23.2772392,59.2097959 C21.639749,59.1281633 20.8159059,60.2322449 20.1592784,62.0322449 C20.1592784,62.0322449 17.9548863,69.6444898 19.0479059,73.8710204 C19.0601412,73.9220408 19.0642196,73.9689796 19.0764549,74.02 L19.0846118,74.9322449 L12.6896314,89.2955102 L11.8025725,91.064898 L22.1638275,96.9669388 L22.6634353,97.2485714 C22.6634353,97.2485714 30.4083765,83.7669388 31.7889255,82.4057143 C33.6323765,80.5873469 37.5823373,78.2710204 39.4624941,74.9669388 L42.052298,70.4077551 C42.7130039,69.2465306 42.3072,67.7689796 41.1468863,67.1097959" id="Fill-22" fill="#E2EFF3"></path>
            <path d="M42.9950275,68.3753061 C42.7727529,67.5630612 42.2445961,66.8855102 41.5104784,66.4671429 C40.9558118,66.1508163 40.3420078,66.0263265 39.7445176,66.065102 C39.9606745,65.4610204 39.9912627,64.8079592 39.8179294,64.1753061 C39.5956549,63.3630612 39.067498,62.6855102 38.3374588,62.2691837 C37.7093804,61.9120408 36.9976941,61.7957143 36.2941647,61.9059184 C36.3186353,61.5589796 36.2941647,61.2079592 36.2003608,60.8610204 C35.9780863,60.0487755 35.4499294,59.3712245 34.7158118,58.954898 C33.6125961,58.3242857 32.2891451,58.4467347 31.3184784,59.1426531 C31.0615373,58.4426531 30.5864,57.854898 29.9318118,57.4814286 C28.4187137,56.6202041 26.4896157,57.1528571 25.6270275,58.6630612 L25.5107922,58.8732653 C24.5625569,58.4793878 23.457302,58.454898 23.3145569,58.4712245 C21.0367529,58.3610204 20.0497725,60.1773469 19.4522824,61.8263265 C19.3584784,62.1446939 17.2030275,69.6855102 18.3327529,74.0569388 C18.6936941,75.4487755 18.1410667,76.7222449 17.7576941,77.3997959 L11.2199686,90.7834694 C11.0405176,91.1508163 11.1914196,91.5916327 11.5584784,91.7712245 C11.6624784,91.8222449 11.7725961,91.8467347 11.8806745,91.8467347 C12.1539294,91.8467347 12.4169882,91.6936735 12.5454588,91.432449 L19.0627922,78.0895918 C19.533851,77.2589796 20.2536941,75.5814286 19.7602039,73.687551 C18.7324392,69.7059184 20.8491451,62.31 20.8532235,62.2855102 C21.585302,60.2753061 22.3031059,59.8997959 23.2798902,59.9487755 L23.2860078,59.9487755 C23.6184,59.9487755 24.2587137,60.0079592 24.7705569,60.1732653 L21.0775373,66.6691837 C20.8756549,67.0222449 21.0000471,67.4753061 21.3548706,67.6753061 C21.4690667,67.7406122 21.595498,67.7712245 21.717851,67.7712245 C21.9747922,67.7712245 22.2235765,67.6385714 22.3602039,67.3977551 L26.9096941,59.3957143 C27.3685176,58.5895918 28.3962824,58.3059184 29.2017725,58.765102 C29.593302,58.9855102 29.8706353,59.3487755 29.990949,59.7814286 C30.1112627,60.2140816 30.0521255,60.6671429 29.8318902,61.0569388 L28.0088314,64.2589796 C27.9802824,64.3120408 27.9721255,64.3691837 27.9558118,64.4242857 C27.9456157,64.4610204 27.9231843,64.4977551 27.9191059,64.5344898 C27.9129882,64.5895918 27.9252235,64.6406122 27.929302,64.6916327 C27.9333804,64.7344898 27.9272627,64.7753061 27.939498,64.8161224 C27.9517333,64.8589796 27.9782431,64.8957143 27.9986353,64.9365306 C28.0190275,64.9814286 28.033302,65.0304082 28.0638902,65.0712245 C28.0883608,65.1038776 28.1291451,65.1263265 28.1597333,65.1569388 C28.1984784,65.1916327 28.2311059,65.2344898 28.2800471,65.2630612 C28.2800471,65.265102 28.2820863,65.265102 28.2841255,65.265102 L28.2861647,65.2671429 C28.326949,65.2895918 28.3697725,65.2936735 28.4125961,65.3079592 C28.4615373,65.3263265 28.5084392,65.3528571 28.5614588,65.3569388 C28.5879686,65.3589796 28.6124392,65.3528571 28.638949,65.3528571 C28.7082824,65.354898 28.7776157,65.3569388 28.8449098,65.3365306 C28.8530667,65.3344898 28.8591843,65.3283673 28.8693804,65.3242857 C28.9489098,65.2997959 29.0284392,65.265102 29.0977725,65.2120408 C29.1242824,65.1895918 29.1426353,65.1589796 29.1691451,65.132449 C29.2099294,65.0895918 29.2568314,65.0508163 29.2874196,64.9977551 L29.291498,64.9916327 L29.3057725,64.9671429 L31.6977725,60.8671429 C32.1545569,60.0610204 33.1823216,59.7793878 33.9878118,60.2385714 C34.377302,60.4589796 34.6587137,60.8202041 34.7769882,61.254898 C34.8952627,61.687551 34.8381647,62.1385714 34.6220078,62.5242857 L34.3038902,63.065102 C34.2080471,63.1895918 34.1122039,63.3140816 34.0326745,63.4508163 L32.2116549,66.6528571 C32.1831059,66.7038776 32.1769882,66.7569388 32.1627137,66.8079592 C32.1504784,66.8487755 32.1280471,66.887551 32.1219294,66.9283673 C32.1158118,66.9814286 32.1280471,67.0344898 32.1321255,67.087551 C32.1362039,67.1304082 32.1321255,67.1691837 32.1423216,67.21 C32.1545569,67.254898 32.1810667,67.2957143 32.203498,67.3385714 C32.2238902,67.3814286 32.2381647,67.4263265 32.2646745,67.465102 C32.2932235,67.4997959 32.3319686,67.5242857 32.3666353,67.554898 C32.4053804,67.5895918 32.4359686,67.6304082 32.4828706,67.654898 C32.4828706,67.6569388 32.4849098,67.6569388 32.486949,67.6569388 C32.486949,67.6589796 32.4889882,67.6589796 32.4889882,67.6589796 C32.4930667,67.6610204 32.4971451,67.6610204 32.5012235,67.6630612 C32.5766745,67.7059184 32.6541647,67.7304082 32.7357333,67.7406122 C32.7561255,67.7446939 32.7744784,67.7467347 32.7948706,67.7487755 C32.8132235,67.7508163 32.8336157,67.7569388 32.8519686,67.7569388 C32.9192627,67.7569388 32.9824784,67.7467347 33.0456941,67.7304082 L33.0497725,67.7304082 C33.129302,67.7059184 33.2047529,67.6671429 33.2720471,67.6181633 C33.2883608,67.6079592 33.3046745,67.5957143 33.318949,67.5834694 C33.3842039,67.5304082 33.4433412,67.4691837 33.4902431,67.3916327 L33.4943216,67.3855102 L33.4984,67.3773469 L35.5376157,63.8814286 C35.7496941,63.6487755 36.0209098,63.4773469 36.3288314,63.3916327 C36.7611451,63.2712245 37.213851,63.3283673 37.6053804,63.5528571 C37.9969098,63.7732653 38.2783216,64.1344898 38.3945569,64.5691837 C38.5148706,65.0018367 38.4557333,65.4528571 38.235498,65.8446939 L36.4144784,69.0467347 C36.363498,69.1365306 36.3329098,69.2304082 36.3227137,69.3263265 C36.2900863,69.61 36.4246745,69.9018367 36.6897725,70.0528571 C36.6918118,70.054898 36.6918118,70.054898 36.693851,70.054898 C36.7713412,70.0997959 36.854949,70.1222449 36.9385569,70.1344898 C36.958949,70.1385714 36.977302,70.1406122 36.9976941,70.1426531 C37.0140078,70.1446939 37.0344,70.1508163 37.0547922,70.1508163 C37.1200471,70.1508163 37.185302,70.1406122 37.2505569,70.1222449 L37.2546353,70.1222449 C37.3341647,70.0997959 37.4075765,70.0610204 37.4748706,70.0140816 C37.4932235,70.0018367 37.5095373,69.9895918 37.5238118,69.9753061 C37.5911059,69.9202041 37.6522824,69.8569388 37.6951059,69.7773469 L38.4904,68.3814286 C38.9492235,67.5732653 39.9790275,67.2936735 40.7824784,67.7508163 C41.1719686,67.9732653 41.4533804,68.332449 41.5716549,68.765102 C41.6899294,69.1997959 41.6328314,69.6528571 41.4125961,70.0426531 L38.8187137,74.5997959 C37.5911059,76.7630612 35.3275765,78.5528571 33.5106353,79.9916327 C32.6664,80.6610204 31.8670275,81.2916327 31.2715765,81.8793878 C29.8624784,83.2712245 22.8210667,95.4916327 22.0237333,96.8814286 C21.8198118,97.2344898 21.9421647,97.6834694 22.2969882,97.887551 C22.4111843,97.954898 22.5376157,97.987551 22.6620078,97.987551 C22.9169098,97.987551 23.1656941,97.8528571 23.3043608,97.6161224 C26.3958118,92.2304082 31.3470275,83.8793878 32.307498,82.932449 C32.845851,82.3997959 33.6125961,81.7936735 34.4242039,81.1508163 C36.3431059,79.6344898 38.7289882,77.7446939 40.1013804,75.3304082 L42.6932235,70.7732653 C43.1112627,70.0406122 43.2152627,69.187551 42.9950275,68.3753061" id="Fill-24" fill="#2F3061"></path>
            <path d="M42.9950275,68.3753061 C42.7727529,67.5630612 42.2445961,66.8855102 41.5104784,66.4671429 C40.9558118,66.1508163 40.3420078,66.0263265 39.7445176,66.065102 C39.9606745,65.4610204 39.9912627,64.8079592 39.8179294,64.1753061 C39.5956549,63.3630612 39.067498,62.6855102 38.3374588,62.2691837 C37.7093804,61.9120408 36.9976941,61.7957143 36.2941647,61.9059184 C36.3186353,61.5589796 36.2941647,61.2079592 36.2003608,60.8610204 C35.9780863,60.0487755 35.4499294,59.3712245 34.7158118,58.954898 C33.6125961,58.3242857 32.2891451,58.4467347 31.3184784,59.1426531 C31.0615373,58.4426531 30.5864,57.854898 29.9318118,57.4814286 C28.4187137,56.6202041 26.4896157,57.1528571 25.6270275,58.6630612 L25.5107922,58.8732653 C24.5625569,58.4793878 23.457302,58.454898 23.3145569,58.4712245 C21.0367529,58.3610204 20.0497725,60.1773469 19.4522824,61.8263265 C19.3584784,62.1446939 17.2030275,69.6855102 18.3327529,74.0569388 C18.6936941,75.4487755 18.1410667,76.7222449 17.7576941,77.3997959 L11.2199686,90.7834694 C11.0405176,91.1508163 11.1914196,91.5916327 11.5584784,91.7712245 C11.6624784,91.8222449 11.7725961,91.8467347 11.8806745,91.8467347 C12.1539294,91.8467347 12.4169882,91.6936735 12.5454588,91.432449 L19.0627922,78.0895918 C19.533851,77.2589796 20.2536941,75.5814286 19.7602039,73.687551 C18.7324392,69.7059184 20.8491451,62.31 20.8532235,62.2855102 C21.585302,60.2753061 22.3031059,59.8997959 23.2798902,59.9487755 L23.2860078,59.9487755 C23.6184,59.9487755 24.2587137,60.0079592 24.7705569,60.1732653 L21.0775373,66.6691837 C20.8756549,67.0222449 21.0000471,67.4753061 21.3548706,67.6753061 C21.4690667,67.7406122 21.595498,67.7712245 21.717851,67.7712245 C21.9747922,67.7712245 22.2235765,67.6385714 22.3602039,67.3977551 L26.9096941,59.3957143 C27.3685176,58.5895918 28.3962824,58.3059184 29.2017725,58.765102 C29.593302,58.9855102 29.8706353,59.3487755 29.990949,59.7814286 C30.1112627,60.2140816 30.0521255,60.6671429 29.8318902,61.0569388 L28.0088314,64.2589796 C27.9802824,64.3120408 27.9721255,64.3691837 27.9558118,64.4242857 C27.9456157,64.4610204 27.9231843,64.4977551 27.9191059,64.5344898 C27.9129882,64.5895918 27.9252235,64.6406122 27.929302,64.6916327 C27.9333804,64.7344898 27.9272627,64.7753061 27.939498,64.8161224 C27.9517333,64.8589796 27.9782431,64.8957143 27.9986353,64.9365306 C28.0190275,64.9814286 28.033302,65.0304082 28.0638902,65.0712245 C28.0883608,65.1038776 28.1291451,65.1263265 28.1597333,65.1569388 C28.1984784,65.1916327 28.2311059,65.2344898 28.2800471,65.2630612 C28.2800471,65.265102 28.2820863,65.265102 28.2841255,65.265102 L28.2861647,65.2671429 C28.326949,65.2895918 28.3697725,65.2936735 28.4125961,65.3079592 C28.4615373,65.3263265 28.5084392,65.3528571 28.5614588,65.3569388 C28.5879686,65.3589796 28.6124392,65.3528571 28.638949,65.3528571 C28.7082824,65.354898 28.7776157,65.3569388 28.8449098,65.3365306 C28.8530667,65.3344898 28.8591843,65.3283673 28.8693804,65.3242857 C28.9489098,65.2997959 29.0284392,65.265102 29.0977725,65.2120408 C29.1242824,65.1895918 29.1426353,65.1589796 29.1691451,65.132449 C29.2099294,65.0895918 29.2568314,65.0508163 29.2874196,64.9977551 L29.291498,64.9916327 L29.3057725,64.9671429 L31.6977725,60.8671429 C32.1545569,60.0610204 33.1823216,59.7793878 33.9878118,60.2385714 C34.377302,60.4589796 34.6587137,60.8202041 34.7769882,61.254898 C34.8952627,61.687551 34.8381647,62.1385714 34.6220078,62.5242857 L34.3038902,63.065102 C34.2080471,63.1895918 34.1122039,63.3140816 34.0326745,63.4508163 L32.2116549,66.6528571 C32.1831059,66.7038776 32.1769882,66.7569388 32.1627137,66.8079592 C32.1504784,66.8487755 32.1280471,66.887551 32.1219294,66.9283673 C32.1158118,66.9814286 32.1280471,67.0344898 32.1321255,67.087551 C32.1362039,67.1304082 32.1321255,67.1691837 32.1423216,67.21 C32.1545569,67.254898 32.1810667,67.2957143 32.203498,67.3385714 C32.2238902,67.3814286 32.2381647,67.4263265 32.2646745,67.465102 C32.2932235,67.4997959 32.3319686,67.5242857 32.3666353,67.554898 C32.4053804,67.5895918 32.4359686,67.6304082 32.4828706,67.654898 C32.4828706,67.6569388 32.4849098,67.6569388 32.486949,67.6569388 C32.486949,67.6589796 32.4889882,67.6589796 32.4889882,67.6589796 C32.4930667,67.6610204 32.4971451,67.6610204 32.5012235,67.6630612 C32.5766745,67.7059184 32.6541647,67.7304082 32.7357333,67.7406122 C32.7561255,67.7446939 32.7744784,67.7467347 32.7948706,67.7487755 C32.8132235,67.7508163 32.8336157,67.7569388 32.8519686,67.7569388 C32.9192627,67.7569388 32.9824784,67.7467347 33.0456941,67.7304082 L33.0497725,67.7304082 C33.129302,67.7059184 33.2047529,67.6671429 33.2720471,67.6181633 C33.2883608,67.6079592 33.3046745,67.5957143 33.318949,67.5834694 C33.3842039,67.5304082 33.4433412,67.4691837 33.4902431,67.3916327 L33.4943216,67.3855102 L33.4984,67.3773469 L35.5376157,63.8814286 C35.7496941,63.6487755 36.0209098,63.4773469 36.3288314,63.3916327 C36.7611451,63.2712245 37.213851,63.3283673 37.6053804,63.5528571 C37.9969098,63.7732653 38.2783216,64.1344898 38.3945569,64.5691837 C38.5148706,65.0018367 38.4557333,65.4528571 38.235498,65.8446939 L36.4144784,69.0467347 C36.363498,69.1365306 36.3329098,69.2304082 36.3227137,69.3263265 C36.2900863,69.61 36.4246745,69.9018367 36.6897725,70.0528571 C36.6918118,70.054898 36.6918118,70.054898 36.693851,70.054898 C36.7713412,70.0997959 36.854949,70.1222449 36.9385569,70.1344898 C36.958949,70.1385714 36.977302,70.1406122 36.9976941,70.1426531 C37.0140078,70.1446939 37.0344,70.1508163 37.0547922,70.1508163 C37.1200471,70.1508163 37.185302,70.1406122 37.2505569,70.1222449 L37.2546353,70.1222449 C37.3341647,70.0997959 37.4075765,70.0610204 37.4748706,70.0140816 C37.4932235,70.0018367 37.5095373,69.9895918 37.5238118,69.9753061 C37.5911059,69.9202041 37.6522824,69.8569388 37.6951059,69.7773469 L38.4904,68.3814286 C38.9492235,67.5732653 39.9790275,67.2936735 40.7824784,67.7508163 C41.1719686,67.9732653 41.4533804,68.332449 41.5716549,68.765102 C41.6899294,69.1997959 41.6328314,69.6528571 41.4125961,70.0426531 L38.8187137,74.5997959 C37.5911059,76.7630612 35.3275765,78.5528571 33.5106353,79.9916327 C32.6664,80.6610204 31.8670275,81.2916327 31.2715765,81.8793878 C29.8624784,83.2712245 22.8210667,95.4916327 22.0237333,96.8814286 C21.8198118,97.2344898 21.9421647,97.6834694 22.2969882,97.887551 C22.4111843,97.954898 22.5376157,97.987551 22.6620078,97.987551 C22.9169098,97.987551 23.1656941,97.8528571 23.3043608,97.6161224 C26.3958118,92.2304082 31.3470275,83.8793878 32.307498,82.932449 C32.845851,82.3997959 33.6125961,81.7936735 34.4242039,81.1508163 C36.3431059,79.6344898 38.7289882,77.7446939 40.1013804,75.3304082 L42.6932235,70.7732653 C43.1112627,70.0406122 43.2152627,69.187551 42.9950275,68.3753061 Z" id="Stroke-26" stroke="#2F3061" stroke-width="0.25"></path>
            <path d="M39.4722824,51.6044898 C40.697851,53.724898 41.605302,56.1677551 42.1722039,58.5657143 C42.7391059,60.9840816 43.0531451,63.4187755 42.985851,65.8269388 C42.9063216,68.2289796 42.6656941,70.5820408 42.0131451,72.8432653 C41.7847529,73.98 41.3116549,75.08 40.9568314,76.1697959 C40.5510275,77.2534694 40.0126745,78.3044898 39.5640471,79.3514286 L39.3886745,79.7595918 C39.3030275,79.9616327 39.2336941,80.1697959 39.1745569,80.3861224 C42.5576157,81.0697959 45.8876549,81.9065306 49.2319686,82.6902041 C49.2421647,82.6371429 49.2564392,82.5861224 49.2645961,82.5310204 C49.4848314,81.0473469 49.7723608,79.602449 49.9049098,78.1228571 C49.9885176,76.6330612 50.1638902,75.18 50.0802824,73.6922449 C50.1027137,70.7493878 49.6255373,67.8228571 48.9464784,65.0310204 C48.2592627,62.2310204 47.1499294,59.5759184 45.8142431,57.1167347 C44.4520471,54.6514286 42.8757333,52.4146939 40.8548706,50.4167347 C40.5693804,50.135102 40.1187137,50.0657143 39.7577725,50.2779592 C39.3213804,50.5310204 39.1745569,51.0861224 39.4253804,51.5228571 L39.4722824,51.6044898 Z" id="Fill-28" fill="#A5D9E4"></path>
            <path d="M49.4432314,74.4061224 C49.4309961,75.5632653 49.2780549,76.7367347 49.2128,77.8714286 L49.1862902,78.3142857 C49.1720157,78.6020408 49.1903686,78.8938776 49.2270745,79.1897959 C52.5815843,78.4408163 55.9931922,77.9714286 59.357898,77.2734694 C59.0907608,75.9020408 58.8746039,74.5428571 58.5238588,73.2040816 C58.0956235,71.7714286 57.7673098,70.3469388 57.1840941,68.9755102 C56.2073098,66.2 54.7635451,63.6102041 53.1790745,61.2142857 C51.5823686,58.8142857 49.6389961,56.6938776 47.5488,54.8346939 C45.4320941,52.977551 43.1909961,51.4102041 40.6113882,50.2163265 C40.2484078,50.0489796 39.8018196,50.1367347 39.5326431,50.4591837 C39.2063686,50.8428571 39.257349,51.4183673 39.6427608,51.744898 L39.7141333,51.8061224 C41.5861333,53.3816327 43.2684863,55.3734694 44.6164078,57.4346939 C45.9663686,59.5163265 47.0920157,61.7 47.8424471,63.9897959 C48.5826824,66.2755102 49.155702,68.5693878 49.3106824,70.9183673 C49.477898,72.0653061 49.4065255,73.2591837 49.4432314,74.4061224" id="Fill-30" fill="#2F3061"></path>
            <path d="M57.8749804,68.8816327 C58.3174902,69.9510204 58.6356078,71.0897959 59.0210196,72.1591837 L59.1719216,72.5795918 C59.2351373,72.7530612 59.3126275,72.9265306 59.3982745,73.0959184 C62.1960784,71.1040816 64.953098,69.0530612 67.6509804,66.9244898 C67.0371765,66.0020408 66.4294902,65.0836735 65.7545098,64.2102041 C64.8001569,63.0612245 63.9396078,61.877551 62.862902,60.8469388 C60.8787451,58.6795918 58.5336471,56.8612245 56.1375686,55.2836735 C53.7272157,53.7040816 51.1088627,52.5163265 48.4578824,51.6265306 C45.7803922,50.7489796 43.1049412,50.1897959 40.2643137,50.1061224 C39.8646275,50.0938776 39.4873725,50.3489796 39.3670588,50.7510204 C39.2202353,51.2326531 39.4894118,51.7428571 39.9727059,51.8897959 L40.0624314,51.9163265 C42.4014118,52.6326531 44.7301961,53.8020408 46.7796078,55.1693878 C48.8371765,56.5530612 50.7275294,58.122449 52.3140392,59.9306122 C53.8944314,61.7428571 55.3218824,63.6265306 56.3843137,65.7285714 C56.9879216,66.7142857 57.3916863,67.8428571 57.8749804,68.8816327" id="Fill-32" fill="#A5D9E4"></path>
            <path d="M65.2292078,63.7834694 C65.3943843,63.9753061 65.5738353,64.1569388 65.7614431,64.332449 C68.3675608,60.3446939 71.2265412,56.5222449 73.5186196,52.3365306 C72.3134431,51.6936735 71.1368157,51.0406122 69.9030902,50.4895918 C68.4491294,49.8957143 67.0726588,49.2406122 65.5717961,48.8181633 C62.6720314,47.8079592 59.6213647,47.2957143 56.6624627,47.0406122 C53.6872471,46.7895918 50.7324235,47.0038776 47.9162667,47.5059184 C45.0837961,48.0283673 42.4205804,48.8467347 39.8654431,50.1487755 C39.5432471,50.3140816 39.3372863,50.6589796 39.3678745,51.0426531 C39.410698,51.5467347 39.8532078,51.9222449 40.3568941,51.8814286 L40.4608941,51.8732653 C42.9242667,51.6712245 45.5242667,51.8997959 47.9223843,52.4181633 C50.3347765,52.9446939 52.6329725,53.7079592 54.7272471,54.7997959 C56.8113255,55.8997959 58.754698,57.1079592 60.4411294,58.6406122 C61.3220706,59.3181633 62.0786196,60.2059184 62.8637176,60.9691837 C63.6263843,61.7814286 64.3054431,62.7018367 65.0089725,63.5222449 L65.2292078,63.7834694 Z" id="Fill-34" fill="#2F3061"></path>
            <path d="M65.7549176,37.3506122 C64.5517804,37.4893878 63.3649569,37.62 62.1883294,37.7914286 C60.889349,38.0485714 59.6250353,38.2322449 58.3586824,38.5689796 C57.0923294,38.8995918 55.8504471,39.2097959 54.6248784,39.6628571 C53.401349,40.0485714 52.2063686,40.575102 51.037898,41.0791837 C48.7152314,42.1669388 46.5189961,43.4628571 44.5552314,45.0077551 C42.5914667,46.575102 40.8662902,48.2689796 39.4816627,50.4057143 C39.3001725,50.6893878 39.2818196,51.064898 39.4633098,51.3730612 C39.7222902,51.8077551 40.2871529,51.9506122 40.7215059,51.6914286 L40.8438588,51.6159184 C42.603702,50.5669388 44.7142902,49.8383673 46.7331137,49.4077551 C48.7764078,48.9730612 50.8400941,48.8281633 52.8548392,48.8689796 C53.8744471,48.9261224 54.8614275,48.9608163 55.8626824,49.1240816 C56.8496627,49.22 57.8407216,49.4465306 58.8052706,49.642449 C59.7677804,49.8342857 60.7384471,50.164898 61.6744471,50.4077551 C62.6206431,50.7220408 63.5566431,51.075102 64.4702118,51.3955102 L64.5456627,51.4240816 C65.2736627,51.675102 66.0485647,51.8077551 66.845898,51.8138776 C66.3870745,47.0016327 66.1138196,42.1730612 65.7549176,37.3506122" id="Fill-36" fill="#A5D9E4"></path>
            <path d="M53.9678431,26.7559184 C53.8638431,26.715102 53.7700392,26.6661224 53.6803137,26.6130612 C52.1712941,28.46 50.7112157,30.315102 49.3571765,32.237551 C47.9745882,34.1477551 46.7021176,36.1355102 45.4867451,38.1171429 C44.2815686,40.115102 43.1661176,42.1497959 42.1383529,44.2110204 C41.1126275,46.2804082 40.1807059,48.3436735 39.387451,50.5355102 C39.2712157,50.8559184 39.3364706,51.2273469 39.5852549,51.4906122 C39.936,51.8640816 40.5253333,51.8804082 40.8985098,51.5273469 L40.9392941,51.4865306 C42.4952157,50.015102 44.2101961,48.6191837 45.9353725,47.3212245 C47.6666667,46.0212245 49.4407843,44.8008163 51.2495686,43.66 C53.0705882,42.5314286 54.8875294,41.4497959 56.7615686,40.482449 C58.6152157,39.4885714 60.5137255,38.6069388 62.4,37.7661224 C63.393098,37.3171429 64.3352157,36.6232653 65.0713725,35.7212245 C65.6219608,35.0477551 66.0236863,34.3069388 66.2969412,33.5334694 C62.3816471,30.9253061 58.390902,28.4416327 53.9678431,26.7559184" id="Fill-38" fill="#2F3061"></path>
            <path d="M50.8590588,19.9279592 C46.9233725,22.8279592 42.842902,25.5014286 38.5687059,27.8789796 C38.8052549,28.3912245 39.0418039,28.9095918 39.2457255,29.4381633 C39.5536471,30.3340816 39.9451765,31.2504082 40.1715294,32.185102 C40.7567843,34.0646939 41.0483922,36.0157143 41.2441569,38.0422449 C41.4195294,40.0708163 41.3379608,42.1463265 41.0626667,44.2463265 C40.7853333,46.33 40.2551373,48.4973469 39.4537255,50.4381633 L39.4129412,50.5402041 C39.2824314,50.8544898 39.3334118,51.2279592 39.572,51.5014286 C39.9084706,51.8830612 40.4896471,51.9197959 40.8730196,51.585102 C42.7266667,49.952449 44.2356863,48.1177551 45.6162353,46.0769388 C46.9723137,44.0402041 48.1774902,41.83 49.1073725,39.4667347 C50.018902,37.1095918 50.8121569,34.6136735 51.2444706,32.0402041 C51.5299608,30.7463265 51.6319216,29.4504082 51.7950588,28.1238776 C51.9214902,26.8014286 51.9337255,25.485102 51.9908235,24.1340816 C52.0316078,23.074898 51.844,21.9565306 51.3953725,20.9197959 C51.2403922,20.5687755 51.058902,20.2422449 50.8590588,19.9279592" id="Fill-40" fill="#A5D9E4"></path>
            <path d="M41.9933647,37.3944898 C41.6222275,35.07 41.0084235,32.825102 40.3375216,30.5740816 L39.1955608,27.2679592 L37.8945412,24.025102 C37.798698,23.7883673 37.6804235,23.5557143 37.5458353,23.325102 C35.8043451,24.325102 34.2708549,25.5965306 32.6680314,26.8210204 C31.5219922,27.6965306 30.3086588,28.4720408 29.0994039,29.2557143 C29.1136784,29.2740816 29.1218353,29.2965306 29.138149,29.314898 L29.2237961,29.414898 L31.1977569,31.7373469 L33.0534431,34.1434694 C34.2076392,35.792449 35.3496,37.4842857 36.2754039,39.2679592 C37.2440314,41.0434694 38.0495216,42.8985714 38.6143843,44.8312245 C38.8937569,45.7944898 39.1201098,46.7802041 39.2506196,47.7720408 C39.3974431,48.7434694 39.4157961,49.8312245 39.3179137,50.6679592 L39.3016,50.8393878 C39.2587765,51.2026531 39.4423059,51.57 39.7869333,51.747551 C40.2314824,51.9781633 40.7779922,51.8026531 41.0084235,51.3557143 C41.3387765,50.7108163 41.4978353,50.2087755 41.6956392,49.6210204 C41.8648941,49.0536735 42.0076392,48.4802041 42.1177569,47.9006122 C42.3441098,46.7455102 42.4603451,45.5740816 42.5072471,44.4006122 C42.6030902,42.0495918 42.3971294,39.6965306 41.9933647,37.3944898" id="Fill-42" fill="#2F3061"></path>
            <path d="M40.991702,49.115102 C40.9121725,48.5293878 40.8081725,47.9457143 40.6715451,47.3722449 C40.4023686,46.2253061 40.0312314,45.1089796 39.5907608,44.0191837 C38.7159373,41.837551 37.5617412,39.7763265 36.2525647,37.8436735 C34.9637804,35.8742857 33.4792314,34.0783673 31.9477804,32.3008163 L29.551702,29.7559184 L27.0353098,27.3293878 C27.0026824,27.2967347 26.9578196,27.2702041 26.9231529,27.2355102 C25.6710745,28.8334694 24.3680157,30.3865306 23.1791529,32.0293878 C22.3512314,33.1702041 21.6313882,34.3742857 20.9115451,35.5844898 C21.0135059,35.6395918 21.1113882,35.6987755 21.2174275,35.7477551 L21.335702,35.804898 L24.0866039,37.1110204 L26.7681725,38.5457143 C28.493349,39.5742857 30.2307608,40.6497959 31.8050353,41.8967347 C33.4139765,43.1191837 34.9128,44.4804082 36.217898,46.0110204 C36.8704471,46.7742857 37.4760941,47.5804082 38.0022118,48.4314286 C38.5344471,49.2559184 38.997349,50.2416327 39.252251,51.0436735 L39.3052706,51.2069388 C39.4174275,51.5559184 39.7355451,51.8171429 40.1189176,51.837551 C40.6205647,51.8640816 41.0467608,51.4783673 41.0732706,50.9783673 C41.1140549,50.2559184 41.0508392,49.7314286 40.991702,49.115102" id="Fill-44" fill="#A5D9E4"></path>
            <path d="M40.9935373,50.6359184 C40.754949,49.9522449 40.4980078,49.4889796 40.2064,48.9420408 C39.9127529,48.4297959 39.5946353,47.9297959 39.2520471,47.4522449 C38.5668706,46.495102 37.7980863,45.6012245 36.9762824,44.762449 C35.3367529,43.0787755 33.4871843,41.6093878 31.5397333,40.3195918 C29.6004392,38.9910204 27.546949,37.895102 25.4547137,36.8338776 L22.2674196,35.3910204 L19.0230275,34.1053061 C18.7620078,34.0053061 18.4826353,33.9236735 18.1951059,33.8604082 C17.8198902,35.9767347 17.2040471,38.0257143 16.834949,40.1522449 C16.6126745,41.4420408 16.4780863,42.7481633 16.3577725,44.0563265 C16.5168314,44.0808163 16.6758902,44.0991837 16.8390275,44.1073469 L16.9715765,44.1155102 L20.0120471,44.2767347 L23.0362039,44.5808163 C25.0244392,44.8787755 27.0371451,45.2093878 28.9703216,45.762449 C30.921851,46.2808163 32.8244392,46.9706122 34.6128314,47.8869388 C35.5080471,48.3461224 36.3726745,48.8604082 37.1842824,49.4481633 C37.9897725,50.0093878 38.7932235,50.7420408 39.3356549,51.3869388 L39.4437333,51.5216327 C39.6782431,51.7991837 40.0718118,51.9195918 40.4388706,51.7910204 C40.9099294,51.6257143 41.1587137,51.1073469 40.9935373,50.6359184" id="Fill-46" fill="#2F3061"></path>
            <path d="M40.7486275,50.3130612 C39.8146667,49.3395918 38.8949804,48.6885714 37.8570196,48.06 C36.8333333,47.4416327 35.7586667,46.9191837 34.6534118,46.4640816 C32.4408627,45.5538776 30.1161569,44.9273469 27.773098,44.5089796 C25.4137255,44.0518367 23.0502745,43.8559184 20.6562353,43.7130612 C19.4775686,43.6885714 18.2825882,43.6538776 17.0855686,43.6518367 L13.5230588,43.7640816 C12.8970196,43.7865306 12.248549,43.9028571 11.624549,44.1171429 C12.1527059,46.6171429 12.3505098,49.1661224 12.8603137,51.6783673 C13.1927059,53.3253061 13.6087059,54.9538776 14.034902,56.5804082 C14.8567059,56.5416327 15.6825882,56.3436735 16.4717647,55.9681633 L16.5492549,55.9314286 L19.2797647,54.6355102 L22.0653333,53.4702041 C23.9373333,52.7885714 25.8582745,52.1232653 27.8036863,51.6926531 C29.7572549,51.2171429 31.7475294,50.9191837 33.7500392,50.8742857 C34.7533333,50.8538776 35.7586667,50.8926531 36.7517647,51.0232653 C37.7305882,51.1334694 38.7828235,51.4008163 39.5781176,51.7110204 L39.7718431,51.7844898 C40.0879216,51.9069388 40.461098,51.8457143 40.7241569,51.5926531 C41.0830588,51.2477551 41.0952941,50.6742857 40.7486275,50.3130612" id="Fill-48" fill="#A5D9E4"></path>
            <path d="M40.3942118,50.1295918 C38.6262118,49.2928571 36.8704471,48.7989796 34.9964078,48.4316327 C33.1325647,48.0744898 31.215702,47.9091837 29.2662118,47.8846939 C27.3330353,47.9030612 25.3509176,48.027551 23.3993882,48.35 C22.4062902,48.4744898 21.4580549,48.7173469 20.4669961,48.9112245 C19.4963294,49.1397959 18.537898,49.4132653 17.5590745,49.6785714 L17.4571137,49.7071429 C16.7352314,49.905102 16.0480157,50.2377551 15.4158588,50.6867347 C18.0974275,54.072449 20.8381333,57.4071429 23.4809569,60.8214286 C23.5706824,60.7418367 23.6624471,60.6663265 23.7501333,60.5806122 C24.2721725,60.0622449 24.7982902,59.5091837 25.3468392,58.9908163 C25.9076235,58.5071429 26.4643294,57.9520408 27.065898,57.5010204 C28.2486431,56.527551 29.5272314,55.6846939 30.8812706,54.8826531 C32.2414275,54.1255102 33.6872314,53.45 35.2105255,52.927551 C36.7175059,52.4091837 38.3815059,52.0173469 39.933349,51.8928571 L40.0740549,51.8826531 C40.3901333,51.8561224 40.6858196,51.6663265 40.8326431,51.3581633 C41.0488,50.8969388 40.8550745,50.3459184 40.3942118,50.1295918" id="Fill-50" fill="#2F3061"></path>
            <path d="M39.4722824,51.6044898 C40.8630275,53.6004082 41.9703216,55.9697959 42.7452235,58.3371429 C43.5221647,60.7269388 44.0605176,63.1840816 44.2093804,65.6636735 C44.3480471,68.1371429 44.3215373,70.6146939 43.8565961,73.0371429 C43.7220078,74.257551 43.3386353,75.4412245 43.071498,76.6310204 C42.8145569,77.5738776 42.4719686,78.4963265 42.1497725,79.4167347 C42.2517333,79.4534694 42.3536941,79.5044898 42.4556549,79.5738776 C43.8362039,80.4983673 45.4410667,80.8636735 47.0112627,81.3310204 C47.2865569,80.1065306 47.5965176,78.8983673 47.7922824,77.6636735 C47.959498,76.2697959 48.2266353,74.902449 48.2368314,73.4983673 C48.4489098,70.7167347 48.1817725,67.9146939 47.7209098,65.1942857 C47.249851,62.4657143 46.3648314,59.8330612 45.2391843,57.3453061 C44.0890667,54.8493878 42.7125961,52.5412245 40.8548706,50.4167347 C40.5530667,50.0759184 40.0330667,50.0044898 39.6517333,50.2718367 C39.2398118,50.557551 39.137851,51.124898 39.4253804,51.5371429 L39.4722824,51.6044898 Z" id="Fill-52" fill="#2F3061"></path>
            <path d="M52.0699451,70.1412245 L52.3778667,71.8534694 C52.5124549,72.8595918 52.5919843,73.8738776 52.6898667,74.88 C52.7000627,74.88 52.7102588,74.8738776 52.7204549,74.8738776 C54.3375529,74.7759184 56.3359843,74.7167347 57.7960627,73.9453061 C57.5778667,72.9126531 57.3719059,71.8840816 57.1108863,70.8636735 L56.5399059,68.9759184 C56.3584157,68.3453061 56.1585725,67.7208163 55.8975529,67.1126531 L55.1675137,65.28 C54.914651,64.6759184 54.5883765,64.0963265 54.3049255,63.5065306 C53.7563765,62.3126531 53.0059451,61.2187755 52.3289255,60.102449 C50.8443765,57.9371429 49.1090039,55.957551 47.1350431,54.2616327 C45.1447686,52.5677551 43.0219451,51.1432653 40.4953569,50.1636735 C40.0732392,49.9983673 39.5838275,50.1738776 39.3656314,50.5861224 C39.1290824,51.0289796 39.3003765,51.5779592 39.7428863,51.8146939 L39.8305725,51.8595918 C41.8126902,52.9126531 43.7091608,54.4902041 45.2834353,56.2004082 C46.8719843,57.9289796 48.2035922,59.8677551 49.2904941,61.924898 C49.7697098,62.9881633 50.320298,64.0065306 50.6730824,65.1208163 C50.8627294,65.6718367 51.0911216,66.2004082 51.2501804,66.7616327 L51.6988078,68.4432653 C51.8680627,68.9942857 51.9781804,69.5657143 52.0699451,70.1412245" id="Fill-54" fill="#A5D9E4"></path>
            <path d="M58.3468549,66.3763265 C58.8811294,66.0069388 59.4786196,65.7089796 59.9231686,65.4518367 C60.5818353,65.0702041 61.2486588,64.7110204 61.9114039,64.3395918 C62.158149,64.2008163 62.4069333,64.0640816 62.6475608,63.9171429 C62.6801882,63.8967347 62.7352471,63.86 62.7923451,63.8171429 L61.344502,61.7742857 C60.5757176,60.8518367 59.8375216,59.915102 59.0422275,59.0232653 L57.790149,57.7314286 L57.1641098,57.0885714 L56.485051,56.4906122 L55.1269333,55.3069388 L53.6709333,54.2334694 C51.6969725,52.8538776 49.5537569,51.6946939 47.2576,50.9436735 C46.1054431,50.582449 44.9390118,50.2763265 43.7358745,50.137551 C42.5184627,49.9906122 41.3703843,49.9253061 40.0448941,50.1069388 C39.6023843,50.1681633 39.2597961,50.5497959 39.2618353,51.0110204 C39.2618353,51.5130612 39.6696784,51.9171429 40.1713255,51.915102 L40.2834824,51.915102 C41.2072471,51.9110204 42.322698,52.0865306 43.3157961,52.3518367 C44.3374431,52.6028571 45.3223843,53.0028571 46.274698,53.4436735 C48.1813647,54.3436735 49.904502,55.5926531 51.4624627,57.0069388 L52.608502,58.0946939 L53.658698,59.2865306 L54.1848157,59.8763265 L54.6619922,60.5171429 L55.6143059,61.7906122 C56.2158745,62.6681633 56.7664627,63.5885714 57.3374431,64.4783673 L58.3468549,66.3763265 Z" id="Fill-56" fill="#2F3061"></path>
            <path d="M64.2534431,57.1828571 C64.838698,56.2767347 65.6625412,55.3910204 66.0642667,54.3808163 C66.0805804,54.34 66.1009725,54.3073469 66.1213647,54.2706122 C64.2514039,53.262449 62.3508549,52.3277551 60.356502,51.6420408 C58.1765804,50.8216327 55.9069333,50.2685714 53.6393255,49.8746939 C51.3717176,49.4767347 49.0735216,49.3195918 46.7936784,49.3461224 C44.4995608,49.3808163 42.2747765,49.5808163 39.9806588,50.117551 C39.5422275,50.2216327 39.2343059,50.6338776 39.2812078,51.095102 C39.330149,51.595102 39.7767373,51.9604082 40.2763451,51.9114286 L40.3456784,51.9032653 C42.3808157,51.7012245 44.5729725,51.7767347 46.6611294,52.0277551 C48.7635608,52.2808163 50.8415216,52.6991837 52.8399529,53.3277551 C54.8383843,53.9542857 56.7858353,54.7073469 58.6088941,55.6889796 C60.2565804,56.5012245 61.7798745,57.5216327 63.2542275,58.5828571 C63.6029333,58.1257143 63.9434824,57.6644898 64.2534431,57.1828571" id="Fill-58" fill="#E2EFF3"></path>
            <path d="M63.4448941,45.1132653 C63.4571294,45.072449 63.4816,45.0479592 63.4938353,45.0091837 L60.8489725,44.4295918 C59.7539137,44.2663265 58.6649725,44.1091837 57.5719529,43.9826531 C55.3594039,43.8438776 53.1366588,43.7602041 50.9179922,44.1316327 C48.7115608,44.4581633 46.5234824,45.0765306 44.5352471,46.1234694 C43.5482667,46.6581633 42.5877961,47.2438776 41.7354039,47.9765306 C40.866698,48.7132653 40.1081098,49.4581633 39.410698,50.4989796 C39.1639529,50.8642857 39.2169725,51.3683673 39.5534431,51.6765306 C39.9245804,52.0132653 40.4976,51.9846939 40.8340706,51.6153061 L40.9156392,51.5255102 C41.4682667,50.9173469 42.2717176,50.2785714 43.0629333,49.7989796 C43.8602667,49.2846939 44.7391686,48.9071429 45.6241882,48.5765306 C47.408502,47.9377551 49.3110902,47.6785714 51.2075608,47.6642857 C53.1060706,47.6071429 55.0188549,47.9581633 56.8908549,48.3357143 C57.8268549,48.5826531 58.7567373,48.8540816 59.680502,49.1234694 L61.9990902,49.9826531 C62.3274039,48.3132653 62.9758745,46.7602041 63.4448941,45.1132653" id="Fill-60" fill="#2F3061"></path>
            <path d="M57.9455792,34.1880852 C56.0939714,35.0003301 54.2811086,35.8921668 52.6415792,37.0533913 C51.6994616,37.6350239 50.8654224,38.3635954 49.992638,39.0289015 C49.178991,39.7697178 48.3388341,40.4737994 47.5985988,41.2799219 C46.0712263,42.8411464 44.6947557,44.5309423 43.5018145,46.3370647 C42.3027557,48.1513505 41.2709125,50.0064525 40.4348341,52.0778811 C40.2615008,52.512575 40.442991,53.0166566 40.8671478,53.2309423 C41.3178145,53.4574729 41.8622851,53.2778811 42.0906773,52.8309423 L42.1192263,52.7717586 C43.0001674,51.0289015 44.1502851,49.2880852 45.4003243,47.7166566 C46.6503635,46.1268607 48.0574224,44.6697178 49.5684812,43.3615545 C50.3025988,42.6819627 51.1244027,42.1105341 51.9074616,41.5023709 C52.7476184,40.9737994 53.5429125,40.3799219 54.4258929,39.9350239 C56.0960106,38.945228 57.9129518,38.2717586 59.7217361,37.6554321 C59.1935792,36.4635954 58.6531871,35.2840035 57.9455792,34.1880852" id="Fill-62" fill="#E2EFF3" transform="translate(50.045664, 43.758522) rotate(8.000000) translate(-50.045664, -43.758522) "></path>
            <path d="M42.9870745,27.9736735 C41.5657412,28.2246939 40.1444078,28.4940816 38.7332706,28.8042857 C39.1472314,30.3961224 39.5244863,32.0083673 39.7691922,33.6430612 C40.0954667,35.5165306 40.2504471,37.4185714 40.3462902,39.3267347 C40.4319373,41.2389796 40.3789176,43.1573469 40.221898,45.0695918 C40.0567216,46.9695918 39.7732706,48.9226531 39.3062902,50.7042857 L39.2899765,50.7655102 C39.1757804,51.2083673 39.408251,51.6736735 39.8446431,51.8430612 C40.3116235,52.0226531 40.8397804,51.79 41.0212706,51.3185714 C41.7778196,49.3532653 42.2651922,47.4226531 42.6669176,45.4226531 C43.0543686,43.4308163 43.3337412,41.412449 43.4683294,39.3797959 C43.5906824,37.3491837 43.6477804,35.3002041 43.521349,33.2573469 C43.4499765,31.49 43.2419765,29.7308163 42.9870745,27.9736735" id="Fill-64" fill="#E2EFF3"></path>
            <path d="M41.2325333,38.0779592 C40.7023373,35.9167347 40.0314353,33.7493878 39.0281412,31.735102 C38.591749,30.6881633 37.9840627,29.7432653 37.4436706,28.7473469 C37.0847686,28.1412245 36.6891608,27.557551 36.2894745,26.9759184 C35.4228078,27.524898 34.5173961,28.0085714 33.6690824,28.5963265 C33.1042196,28.9861224 32.559749,29.4085714 32.0213961,29.8412245 C32.5128471,30.3820408 33.0124549,30.9228571 33.4651608,31.4942857 C34.034102,32.2759184 34.6846118,33.0187755 35.1719843,33.8616327 C36.2813176,35.4738776 37.1051608,37.2534694 37.8352,39.08 C38.5468863,40.9208163 39.0016314,42.8616327 39.2708078,44.8371429 C39.5338667,46.7942857 39.5705725,48.8861224 39.2850824,50.7718367 L39.2708078,50.857551 C39.2035137,51.3004082 39.470651,51.7330612 39.9131608,51.8657143 C40.3923765,52.0085714 40.898102,51.7330612 41.0408471,51.2514286 C41.6974745,49.0473469 41.9258667,46.9044898 41.9503373,44.6840816 C41.9544157,42.48 41.7443765,40.2514286 41.2325333,38.0779592" id="Fill-66" fill="#A5D9E4"></path>
            <path d="M40.9596863,45.1173469 C40.5396078,43.1357143 39.7545098,41.2336735 38.734902,39.4663265 L37.9171765,38.1785714 C37.6418824,37.7459184 37.3094902,37.3663265 37.0036078,36.9581633 C36.4040784,36.1234694 35.6801569,35.4255102 34.9888627,34.6744898 C34.2832941,33.9459184 33.5022745,33.3173469 32.7518431,32.6295918 L31.1938824,31.4581633 C30.6086275,32.3785714 29.9927843,33.294898 29.3341176,34.1336735 C28.9181176,34.6622449 28.4083137,35.072449 27.8944314,35.4744898 L29.9560784,36.5765306 C30.6575686,37.0520408 31.4161569,37.4826531 32.0952157,37.9969388 C32.7559216,38.527551 33.4716863,39.0214286 34.0589804,39.627551 C34.3607843,39.9234694 34.6992941,40.1969388 34.9745882,40.5153061 L35.8167843,41.472449 C36.8751373,42.7908163 37.7723922,44.2581633 38.3800784,45.8581633 C38.5391373,46.2581633 38.6839216,46.6622449 38.7879216,47.0785714 C38.9184314,47.4887755 38.9959216,47.9091837 39.0836078,48.3336735 C39.2304314,49.1602041 39.3099608,50.0846939 39.2691765,50.8357143 L39.2630588,50.9520408 C39.236549,51.3928571 39.5383529,51.7969388 39.982902,51.8908163 C40.4743529,51.9928571 40.9535686,51.6785714 41.0575686,51.1887755 C41.496,49.0846939 41.3675294,47.1173469 40.9596863,45.1173469" id="Fill-68" fill="#2F3061"></path>
            <path d="M40.9955765,50.6397959 C40.1003608,48.5214286 38.9176157,46.7193878 37.5268706,44.9887755 C36.1320471,43.2846939 34.5557333,41.6969388 32.7795765,40.3438776 C30.9993412,39.0112245 29.1049098,37.7622449 27.0493804,36.8459184 C26.0481255,36.3153061 24.9795765,35.972449 23.9293804,35.5459184 C23.1320471,35.2581633 22.3204392,35.027551 21.5047529,34.7887755 C21.5047529,34.7928571 21.5047529,34.794898 21.5027137,34.7989796 C21.0153412,36.4520408 20.7196549,38.1418367 20.4300863,39.8357143 C21.1560471,39.9438776 21.8860863,40.0438776 22.601851,40.1969388 C23.5358118,40.4397959 24.5125961,40.6010204 25.4200471,40.9397959 C27.3002039,41.4806122 29.0661647,42.3316327 30.7913412,43.2785714 C32.5083608,44.2438776 34.0928314,45.4540816 35.554949,46.8091837 C37.0007529,48.1561224 38.3547922,49.7479592 39.3336157,51.3826531 L39.3764392,51.4581633 C39.6048314,51.8438776 40.0881255,52.0112245 40.5122824,51.8316327 C40.9731451,51.6357143 41.1913412,51.1030612 40.9955765,50.6397959" id="Fill-70" fill="#E2EFF3"></path>
            <path d="M40.762698,50.324898 C39.6431686,49.3208163 38.5175216,48.4922449 37.2980706,47.7187755 C36.7005804,47.3208163 36.0643451,46.9881633 35.4464627,46.6208163 L33.5092078,45.657551 C30.8867765,44.4493878 28.0420706,43.6473469 25.1096784,43.3065306 C22.1895216,42.9677551 19.1531294,43.0391837 16.2431686,43.7187755 C14.752502,43.9534694 13.3617569,44.4922449 11.9343059,44.9534694 C11.2063059,45.1595918 10.5639529,45.5310204 9.87877647,45.8269388 L8.06999216,46.6697959 C8.90199216,48.2167347 9.9868549,49.5963265 10.9819922,51.0371429 L12.1728941,50.3269388 C12.7255216,50.0208163 13.2475608,49.6208163 13.8348549,49.4004082 C14.989051,48.8983673 16.1269333,48.2963265 17.3504627,47.9820408 C19.744502,47.1412245 22.2955608,46.8187755 24.8608941,46.8432653 C27.4282667,46.8697959 30.0282667,47.3065306 32.5222275,48.1534694 C35.0039529,48.9840816 37.4693647,50.202449 39.5656784,51.6983673 L39.6268549,51.7412245 C39.9979922,52.0085714 40.5200314,51.957551 40.8299922,51.6085714 C41.1664627,51.235102 41.1358745,50.6595918 40.762698,50.324898" id="Fill-72" fill="#E2EFF3"></path>
            <path d="M40.5634667,50.1934694 C38.4630745,49.1281633 36.3055843,48.5567347 34.0073882,48.3465306 C31.7295843,48.1526531 29.3620549,48.3363265 27.1128,49.0220408 C26.5418196,49.1689796 26.0095843,49.4138776 25.4528784,49.6118367 C25.1796235,49.7179592 24.8982118,49.8138776 24.6290353,49.9322449 L23.8480157,50.3342857 C23.3320941,50.6118367 22.7876235,50.8628571 22.2920941,51.1730612 L20.8381333,52.1628571 C20.3344471,52.4791837 19.889898,52.8567347 19.4555451,53.2404082 L18.1300549,54.3914286 C17.3775843,55.1342857 16.6720157,55.92 15.9480941,56.6995918 C17.1593882,57.9710204 18.613349,58.9628571 20.1631529,59.7832653 C20.6586824,59.0873469 21.1440157,58.3730612 21.6640157,57.6893878 L22.6183686,56.6097959 C22.9324078,56.2404082 23.2525647,55.875102 23.6175843,55.5791837 L24.6840941,54.6138776 C25.0511529,54.3077551 25.4528784,54.0608163 25.836251,53.775102 L26.4215059,53.3587755 C26.6254275,53.2363265 26.8375059,53.1302041 27.0455059,53.0179592 C27.4676235,52.8036735 27.8734275,52.5322449 28.3159373,52.3587755 C30.053349,51.5526531 31.9702118,51.1322449 33.9319373,51.0281633 C35.8753098,50.9261224 37.9634667,51.2077551 39.7620549,51.8302041 L39.857898,51.8628571 C40.2800157,52.0097959 40.7571922,51.8261224 40.9631529,51.4159184 C41.1915451,50.9669388 41.0120941,50.42 40.5634667,50.1934694" id="Fill-74" fill="#A5D9E4"></path>
            <path d="M44.1559529,24.9304082 C44.3761882,26.8610204 44.5372863,28.8222449 44.4312471,30.7997959 C44.3557961,33.0426531 44.1151686,35.3018367 43.6787765,37.5385714 C43.2566588,39.7753061 42.6877176,41.9997959 41.9699137,44.1855102 C41.2500706,46.354898 40.3854431,48.5344898 39.3801098,50.5467347 L39.3556392,50.5916327 C39.1517176,51.0059184 39.2903843,51.5181633 39.6921098,51.7691837 C40.1203451,52.0344898 40.6790902,51.9059184 40.9462275,51.4773469 C42.2431686,49.3936735 43.3076392,47.2773469 44.2783059,45.0671429 C45.234698,42.865102 46.0483451,40.5895918 46.7131294,38.2610204 C47.3983059,35.9365306 47.8795608,33.5385714 48.1895216,31.1018367 C48.5198745,28.8365306 48.5382275,26.5242857 48.4750118,24.2038776 C47.0536784,24.5467347 45.6119529,24.7793878 44.1559529,24.9304082" id="Fill-76" fill="#2F3061"></path>
            <path d="M50.8590588,17.8871429 C50.4267451,17.8871429 50.0046275,18.0238776 49.6498039,18.285102 C46.5624314,20.5606122 43.4220392,22.6504082 40.2877647,24.5197959 L39.7881569,23.2667347 C39.6576471,22.9442857 39.4945098,22.6157143 39.3028235,22.2891837 C38.9235294,21.6442857 38.2424314,21.285102 37.5450196,21.285102 C37.2003922,21.285102 36.8537255,21.3708163 36.5335686,21.5544898 C34.9898824,22.4381633 33.6256471,23.4973469 32.3042353,24.5218367 L31.4294118,25.1993878 C30.7503529,25.7197959 30.0427451,26.2014286 29.3065882,26.6871429 L28.4521569,25.8606122 C28.397098,25.807551 28.2788235,25.707551 28.2156078,25.6606122 C27.848549,25.33 27.3958431,25.1687755 26.9105098,25.1687755 C26.8452549,25.1687755 26.7759216,25.1708163 26.7086275,25.1769388 C26.1478431,25.23 25.664549,25.5340816 25.3178824,25.9789796 C24.9141176,26.4932653 24.5062745,27.0014286 24.1004706,27.5095918 C23.244,28.5789796 22.3589804,29.6830612 21.5269804,30.8320408 C21.1374902,31.3687755 20.7683922,31.9259184 20.4258039,32.4687755 L19.7752941,32.2095918 C19.4041569,32.0646939 19.0228235,31.952449 18.6231373,31.8667347 C18.4803922,31.8361224 18.3376471,31.8197959 18.194902,31.8197959 C17.7931765,31.8197959 17.3975686,31.9402041 17.0590588,32.1667347 C16.5981961,32.474898 16.2861961,32.9585714 16.1883137,33.5034694 C16.0129412,34.4830612 15.784549,35.4463265 15.5439216,36.4667347 C15.2910588,37.5442857 15.0259608,38.6585714 14.8281569,39.8034694 C14.716,40.4361224 14.6283137,41.0728571 14.554902,41.6891837 L13.4598431,41.7238776 C12.6013333,41.7544898 11.7652549,41.9095918 10.9618039,42.1871429 C10.2643922,42.4259184 9.77294118,43.0157143 9.62815686,43.6973469 C9.44462745,43.7830612 9.26313725,43.8708163 9.07552941,43.9504082 L7.20964706,44.8197959 C6.69984314,45.0565306 6.31035294,45.4932653 6.13294118,46.0279592 C5.95552941,46.5606122 6.00854902,47.1442857 6.27364706,47.6381633 C6.94658824,48.885102 7.74188235,50.0014286 8.5147451,51.0810204 C8.77780392,51.4504082 9.04494118,51.8218367 9.30188235,52.1973469 C9.69545098,52.7687755 10.3316863,53.0769388 10.9821961,53.0769388 C11.0127843,53.0769388 11.0433725,53.0769388 11.0719216,53.074898 C11.388,54.4973469 11.7428235,55.8810204 12.0650196,57.0993878 C12.2995294,57.9993878 13.1131765,58.6218367 14.034902,58.6218367 C14.0675294,58.6218367 14.1021961,58.6197959 14.1348235,58.6197959 C14.3938039,58.6055102 14.6527843,58.5810204 14.9076863,58.5463265 C16.0802353,59.6810204 17.4934118,60.6769388 19.2063529,61.5871429 C19.5101961,61.7483673 19.8364706,61.8238776 20.1607059,61.8238776 C20.5909804,61.8238776 21.0171765,61.6891837 21.3679216,61.43 C21.5351373,61.6422449 21.7023529,61.8565306 21.8695686,62.0708163 C22.2162353,62.5177551 22.7301176,62.8014286 23.2929412,62.852449 C23.3561569,62.8585714 23.4193725,62.8626531 23.480549,62.8626531 C23.9781176,62.8626531 24.4614118,62.6789796 24.8366275,62.3463265 C24.9956863,62.207551 25.0935686,62.1197959 25.1873725,62.0259184 L25.7705882,61.4402041 C26.0907451,61.1177551 26.4149804,60.7871429 26.7473725,60.4728571 C26.884,60.3585714 27.0960784,60.1667347 27.3081569,59.974898 C27.6507451,59.6646939 27.9729412,59.3708163 28.2869804,59.1381633 C29.3432941,58.2687755 30.4730196,57.4932653 31.9188235,56.6381633 C33.228,55.9116327 34.5718431,55.3034694 35.8708235,54.8585714 C36.7476863,54.5585714 37.6347451,54.3218367 38.4932549,54.1565306 C39.202902,55.6626531 39.7820392,57.3259184 40.1898824,59.0381633 C40.7588235,61.4687755 41.0055686,63.674898 40.9464314,65.7687755 C40.8587451,68.4014286 40.5752941,70.474898 40.0532549,72.2769388 C40.0389804,72.3320408 40.0267451,72.385102 40.0145098,72.4381633 C39.884,73.0810204 39.6433725,73.7544898 39.3884706,74.4687755 C39.26,74.8259184 39.1335686,75.1810204 39.0152941,75.5361224 C38.8215686,76.0585714 38.5421961,76.6646939 38.2465098,77.3055102 C38.0568627,77.7197959 37.8651765,78.1340816 37.6898039,78.5504082 L37.5144314,78.952449 C37.3920784,79.2483673 37.2921569,79.5402041 37.208549,79.8381633 C37.0556078,80.385102 37.1371765,80.9687755 37.434902,81.4504082 C37.7305882,81.9361224 38.2138824,82.2728571 38.768549,82.385102 C41.2502745,82.8891837 43.760549,83.4871429 46.1872157,84.0667347 C47.0477647,84.2708163 47.9062745,84.4769388 48.7688627,84.6789796 C48.9218039,84.7136735 49.0767843,84.7320408 49.2317647,84.7320408 C49.6273725,84.7320408 50.0168627,84.6157143 50.3533333,84.3953061 C50.8203137,84.0871429 51.1425098,83.5993878 51.2403922,83.0483673 C51.2546667,82.9810204 51.2689412,82.907551 51.2811765,82.83 C51.3464314,82.3912245 51.4178039,81.9565306 51.4912157,81.5197959 C51.5299608,81.274898 51.5707451,81.0279592 51.607451,80.785102 C52.7942745,80.552449 53.9953725,80.3422449 55.1658824,80.1340816 C56.674902,79.8667347 58.2328627,79.5912245 59.7724706,79.2728571 C60.8654902,79.0463265 61.5751373,77.9810204 61.3610196,76.885102 L61.1693333,75.8585714 C61.0857255,75.4177551 61.0041569,74.9728571 60.9144314,74.5218367 C63.7815686,72.4728571 66.4019608,70.507551 68.9142745,68.5259184 C69.7483137,67.8667347 69.9359216,66.6769388 69.3465882,65.7932653 L69.287451,65.7034694 C68.9632157,65.2116327 68.6308235,64.7136735 68.2841569,64.2177551 C68.8204706,63.4197959 69.3608627,62.6238776 69.9032941,61.8279592 C71.7569412,59.1116327 73.6738039,56.3014286 75.3072157,53.3157143 C75.5682353,52.8381633 75.6273725,52.274898 75.4723922,51.752449 C75.3174118,51.23 74.9585098,50.7912245 74.4772549,50.5361224 L73.892,50.2218367 C72.880549,49.6789796 71.8323922,49.1177551 70.7312157,48.6279592 C70.3294902,48.4585714 69.986902,48.3157143 69.6483922,48.1708163 C69.2854118,48.0177551 68.9183529,47.8626531 68.5451765,47.7095918 C68.3861176,45.6871429 68.2433725,43.6646939 68.1047059,41.6402041 C68.0007059,40.1606122 67.8987451,38.6789796 67.7886275,37.1993878 C67.7580392,36.7789796 67.5969412,36.3830612 67.3338824,36.0585714 C67.6927843,35.4830612 67.9864314,34.8667347 68.218902,34.2136735 C68.530902,33.3320408 68.2046275,32.352449 67.4256471,31.8340816 C62.9373333,28.8442857 59.0546667,26.5116327 54.6948235,24.8483673 C54.4766275,24.7177551 54.2482353,24.6320408 54.0157647,24.5891837 L54.028,24.2197959 C54.0830588,22.8014286 53.8179608,21.3830612 53.2653333,20.107551 C53.0879216,19.6973469 52.8615686,19.2810204 52.5821961,18.8361224 C52.2783529,18.3565306 51.7930196,18.0259184 51.2363137,17.9238776 C51.1119216,17.8993878 50.9854902,17.8871429 50.8590588,17.8871429 M50.8590588,19.9279592 C51.058902,20.2422449 51.2403922,20.5687755 51.3953725,20.9197959 C51.844,21.9565306 52.0316078,23.074898 51.9908235,24.1340816 C51.9337255,25.485102 51.9214902,26.8014286 51.7930196,28.1238776 C51.7522353,28.4585714 51.7155294,28.7932653 51.6767843,29.1259184 C52.335451,28.2830612 53.0002353,27.4463265 53.6813333,26.6116327 C53.7690196,26.6667347 53.8648627,26.7157143 53.9668235,26.7565306 C58.3878431,28.4422449 62.3806275,30.9259184 66.2959216,33.5340816 C66.0247059,34.307551 65.6209412,35.0483673 65.0723922,35.7197959 C64.3341961,36.6238776 63.3941176,37.3157143 62.4030588,37.7626531 C63.5103529,37.6055102 64.6258039,37.4810204 65.7555294,37.3504082 C66.0471373,41.2871429 66.2877647,45.2238776 66.6160784,49.152449 C67.7254118,49.5483673 68.7919216,50.0361224 69.9032941,50.4912245 C71.1370196,51.0402041 72.3136471,51.6932653 73.5188235,52.3361224 C71.2389804,56.5034694 68.3983529,60.307551 65.8003922,64.2728571 C66.4570196,65.1259184 67.0504314,66.0218367 67.6499608,66.9238776 C64.9520784,69.052449 62.197098,71.1034694 59.3972549,73.0973469 C59.3136471,72.9279592 59.2341176,72.7544898 59.170902,72.5789796 L59.0220392,72.1606122 C58.6345882,71.0891837 58.3164706,69.952449 57.8739608,68.8810204 C57.3906667,67.8442857 56.9889412,66.7157143 56.3832941,65.7279592 C55.3208627,63.6259184 53.8934118,61.7422449 52.3150588,59.9320408 C52.2355294,59.8381633 52.1437647,59.7544898 52.0601569,59.6626531 C52.4455686,60.1687755 52.8248627,60.6830612 53.1796863,61.2136735 C54.7641569,63.6095918 56.2079216,66.2014286 57.1867451,68.974898 C57.7679216,70.3463265 58.0962353,71.7728571 58.5244706,73.2034694 C58.8752157,74.5442857 59.0934118,75.9034694 59.360549,77.274898 C56.183451,77.9340816 52.9696471,78.3912245 49.7966275,79.0708163 C49.6498039,80.2238776 49.4397647,81.3646939 49.2643922,82.5320408 C49.2562353,82.585102 49.2419608,82.6381633 49.2317647,82.6912245 C45.887451,81.9055102 42.5574118,81.0708163 39.1743529,80.385102 C39.2334902,80.1708163 39.3028235,79.9606122 39.3884706,79.7585714 L39.5638431,79.3504082 C40.0124706,78.3034694 40.5508235,77.2544898 40.9566275,76.1708163 C41.3094118,75.0789796 41.784549,73.9789796 42.0129412,72.8442857 C42.6654902,70.5810204 42.9040784,68.23 42.9856471,65.8259184 C43.0529412,63.4197959 42.738902,60.9830612 42.1740392,58.5667347 C41.6336471,56.285102 40.7771765,53.9728571 39.6413333,51.93 C38.173098,52.074898 36.6253333,52.4422449 35.2101176,52.9279592 C33.6868235,53.4504082 32.2410196,54.1259184 30.8808627,54.8830612 C29.5268235,55.6830612 28.2482353,56.5279592 27.0654902,57.5014286 C26.4639216,57.952449 25.9092549,58.507551 25.3464314,58.9912245 C24.7978824,59.5095918 24.2717647,60.0626531 23.7497255,60.5810204 C23.6620392,60.6667347 23.5702745,60.7422449 23.480549,60.8218367 C22.7790588,59.9157143 22.0612549,59.0218367 21.3475294,58.1259184 C20.9458039,58.6728571 20.5563137,59.2340816 20.1607059,59.7830612 C18.6129412,58.9626531 17.1610196,57.9708163 15.9476863,56.6993878 C16.2127843,56.4116327 16.4778824,56.1259184 16.7429804,55.8402041 L16.5492549,55.9340816 L16.4717647,55.9687755 C15.6825882,56.3442857 14.8567059,56.5402041 14.034902,56.5810204 C13.6087059,54.9544898 13.1927059,53.3238776 12.8603137,51.6769388 C12.7522353,51.1483673 12.6665882,50.6177551 12.578902,50.085102 C12.4443137,50.1687755 12.3117647,50.2504082 12.173098,50.3279592 L10.9801569,51.0361224 C9.98705882,49.5953061 8.90219608,48.2157143 8.07019608,46.6708163 L9.87898039,45.8259184 C10.5172549,45.5544898 11.1188235,45.2157143 11.7856471,45.0034694 C11.7326275,44.7095918 11.6857255,44.4116327 11.624549,44.1177551 C12.248549,43.9034694 12.8970196,43.785102 13.5230588,43.7646939 L16.3983529,43.674898 C16.5064314,42.4953061 16.634902,41.3157143 16.8347451,40.152449 C17.2058824,38.0259184 17.8196863,35.974898 18.194902,33.8606122 C18.4803922,33.9218367 18.7597647,34.0034694 19.0228235,34.1055102 L21.268,34.9973469 C21.8736471,33.9871429 22.487451,32.9830612 23.1787451,32.03 C24.3676078,30.3871429 25.6727059,28.8320408 26.9227451,27.2361224 C26.9574118,27.2708163 27.0022745,27.2953061 27.034902,27.33 L29.3412549,29.5544898 L29.2250196,29.4136735 L29.1393725,29.3157143 C29.1230588,29.2953061 29.114902,29.274898 29.0985882,29.2544898 C30.3058039,28.4708163 31.5232157,27.6973469 32.6672157,26.8218367 C34.268,25.5953061 35.8014902,24.3238776 37.5470588,23.3259184 C37.6796078,23.5544898 37.7999216,23.7891837 37.8957647,24.0259184 L39.1947451,27.2687755 L39.2640784,27.4728571 C43.2854118,25.1973469 47.1415686,22.6687755 50.8590588,19.9279592" id="Fill-78" fill="#2F3061"></path>
            <path d="M64.149851,25.7234694 C62.1106353,24.5663265 60.0082039,23.5234694 57.7956549,22.6806122" id="Stroke-80" stroke="#2F3061" stroke-linecap="round" stroke-linejoin="round"></path>
            <path d="M73.8081882,66.9244898 C73.2086588,66.022449 72.6132078,65.1265306 71.9586196,64.2714286 C72.9782275,62.7142857 74.0345412,61.1836735 75.0806588,59.644898" id="Stroke-82" stroke="#2F3061" stroke-linecap="round" stroke-linejoin="round"></path>
            <path d="M12.1798275,34.1359184 C11.9065725,35.284898 11.6292392,36.4338776 11.4273569,37.6053061" id="Stroke-84" stroke="#2F3061" stroke-linecap="round" stroke-linejoin="round"></path>
            <path d="M28.8161569,22.3414286 C28.9242353,22.3414286 32.4989804,19.7414286 33.1841569,19.1618367" id="Stroke-86" stroke="#2F3061" stroke-linecap="round" stroke-linejoin="round"></path>
        </g>
    </g>
</svg>