<?xml version="1.0" encoding="UTF-8"?>
<svg width="105px" height="92px" viewBox="0 0 105 92" version="1.1" xmlns="http://www.w3.org/2000/svg" xmlns:xlink="http://www.w3.org/1999/xlink">
    <!-- Generator: Sketch 50.2 (55047) - http://www.bohemiancoding.com/sketch -->
    <title>Artboard</title>
    <desc>Created with Sketch.</desc>
    <defs>
        <polygon id="path-1" points="0.0732383285 0.250653846 49.205625 0.250653846 49.205625 95 0.0732383285 95"></polygon>
        <polygon id="path-3" points="0.682321333 0.511497533 5.216 0.511497533 5.216 6.07245645 0.682321333 6.07245645"></polygon>
        <polygon id="path-5" points="0 0.805190042 4.3859401 0.805190042 4.3859401 5.70572723 0 5.70572723"></polygon>
    </defs>
    <g id="Artboard" stroke="none" stroke-width="1" fill="none" fill-rule="evenodd">
        <g id="Page-1" transform="translate(52.500000, 52.500000) rotate(6.000000) translate(-52.500000, -52.500000) translate(5.000000, 5.000000)">
            <path d="M73.6092175,30.3962145 C71.7558816,28.5290897 68.7485031,28.5290897 66.8941265,30.3962145 L63.9075604,33.4033123 C63.9002761,33.4106467 63.8919511,33.4127422 63.8857074,33.4200766 L63.9138041,33.386548 L63.8253518,33.4640829 C62.9637222,34.2090469 61.4985358,33.6107706 61.6098816,32.4456512 L63.9138041,8.3396237 C64.1177647,6.20112663 62.5630853,4.30152096 60.4391893,4.09511041 C58.3152933,3.88974763 56.4286576,5.45616269 56.224697,7.59361199 L54.3619955,26.6661559 L53.8853937,26.6661559 L53.8853937,4.88931951 C53.8853937,2.74139252 52.1558909,1 50.0226294,1 C47.8893678,1 46.1609057,2.74139252 46.1609057,4.88931951 L46.1609057,26.6661559 L45.8237463,26.6661559 L44.5240177,7.80630915 C44.3804128,5.66466877 42.5385236,4.04481749 40.4104651,4.18836187 C38.281366,4.33295403 36.6725747,6.1885534 36.8161796,8.33019378 L38.0805273,26.6661559 L37.7298399,26.6661559 L35.6954368,12.6082357 C35.435283,10.477073 33.5091039,8.96095088 31.3914516,9.2228932 C29.2748399,9.48483551 27.7690695,11.4253042 28.0292233,13.5564669 L30.7098485,37.3858833 C31.4507667,43.4545629 32.1698319,49.8773885 33.2947371,53.8851059 C33.3748645,54.1711469 33.4508295,54.7725665 33.5236725,55.6181163 L33.3332399,55.5709667 C33.3935956,55.6076386 33.4664387,55.6338328 33.527835,55.6684092 C34.2167224,63.7550924 34.5726128,94 34.5726128,94 L58.0301647,94 L58.0301647,56.1556219 C58.0790736,55.9775011 58.1311044,55.7983326 58.1935413,55.6160207 C58.2216379,55.6003042 58.2549376,55.587731 58.2819936,55.5709667 L58.2008256,55.5908743 C60.7805112,48.0385534 73.6092175,37.1574696 73.6092175,37.1574696 C75.4635942,35.2903447 75.4635942,32.2633393 73.6092175,30.3962145" id="Fill-1" fill="#A5D9E4"></path>
            <path d="M40,93 L34.5028024,93 C34.5028024,93 34.1528591,63.036216 33.4735574,55.023732 C33.4128319,54.9925954 33.3397555,54.9624967 33.2790301,54.9303223 L33.4735574,54.9718377 C33.4025395,54.1425664 33.3201999,53.5395543 33.2378603,53.259325 C32.1262757,49.2842196 31.4150674,42.9219752 30.6843034,36.9126122 L28.0288513,13.3121105 C27.77154,11.194822 29.2639453,9.27369402 31.3636051,9.01422239 C31.4366815,9.00384352 31.4871145,8.99450254 31.5601909,9.00384352 C30.3971441,9.8756682 29.7281348,11.3390882 29.9123697,12.886577 L33.854378,38.7289136 C34.6479259,45.3091142 37.4886422,52.2733328 38.702122,56.6324562 C38.7947541,56.9334433 38.8884154,57.5987285 38.9594333,58.5120687 L38.7535843,58.4601743 C38.8163682,58.490273 38.8987078,58.5317885 38.9594333,58.5629251 C39.4853775,64.7393878 39.8353208,82.8390909 40,93" id="Fill-3" fill="#96C6D0"></path>
            <path d="M73.6252518,36.9774781 C73.6252518,36.9774781 60.9281397,47.8964608 58.3743004,55.4735413 L58.4577121,55.4514721 C58.4257891,55.4630321 58.3948959,55.4829995 58.3640027,55.4935086 C58.3022163,55.6837238 58.2507276,55.8623789 58.2002686,56.0410341 L58.2002686,94 L52,94 C52,94 53.9225879,70.869412 54.2325498,65.1545488 C54.5435415,59.4375839 52.9535706,57.330504 52.9535706,57.330504 C52.9535706,57.330504 52.2028655,56.848135 53.1965973,56.2922022 C54.113096,55.7793568 56.3394672,55.4188938 57.4753078,53.1237005 C59.1847325,49.6735542 71.1023058,36.5770804 71.1023058,36.5770804 C73.0382807,34.6129246 74.0680546,31.4181501 72.1320797,29.4413833 C71.9765838,29.2847973 71.8128498,29.1376696 71.6377882,29 C72.3596597,29.2101825 73.0485785,29.6095294 73.6252518,30.1990914 C75.4582494,32.068665 75.4582494,35.1068536 73.6252518,36.9774781" id="Fill-5" fill="#96C6D0"></path>
            <path d="M57.3016892,7.38904599 L55,31.7145409 L56.5212838,32 L58.9851351,6.94627177 C59.1097973,5.64295282 59.8972973,4.5761274 61,4 C59.0712838,4.09272213 57.4790541,5.49084685 57.3016892,7.38904599" id="Fill-7" fill="#96C6D0"></path>
            <path d="M47.0995608,4.73305055 L47,30.8602323 L48.781552,31 L48.9900439,4.13017175 C48.998243,2.81906682 49.7912152,1.67902093 51,1 C48.7909224,1.27744941 47.104246,2.82428204 47.0995608,4.73305055" id="Fill-9" fill="#96C6D0"></path>
            <path d="M38.0099207,8.94471154 L39.5127572,31.9855769 L41,32 L39.5332238,8.22046703 C39.444535,6.92960165 40.0185757,5.75206044 40.9707619,5 C39.1589766,5.42548077 37.8734764,7.06456044 38.0099207,8.94471154" id="Fill-11" fill="#96C6D0"></path>
            <g id="Group-15" transform="translate(27.000000, -0.000000)">
                <mask id="mask-2" fill="white">
                    <use xlink:href="#path-1"></use>
                </mask>
                <g id="Clip-14"></g>
                <path d="M11.6722917,6.47471978 C12.1691667,5.90576374 12.8566667,5.56439011 13.60875,5.51323626 C15.17125,5.39526923 16.511875,6.58955495 16.6170833,8.14922527 L18.2170833,31.2467527 C16.1014583,31.3166978 14.1910417,31.5150495 12.59,31.7478516 L12.5858333,31.6977418 C12.5858333,31.6559835 12.599375,31.6173571 12.593125,31.5755989 L12.5639583,31.3772473 L10.9816667,8.52818132 C10.9295833,7.7734011 11.1754167,7.04471978 11.6722917,6.47471978 M23.1608333,2.33856593 C24.718125,2.33856593 25.9858333,3.60906044 25.9858333,5.16977473 L25.9858333,31.6382363 C24.0295833,31.3636758 22.1285417,31.240489 20.3358333,31.2216978 L20.3358333,5.16977473 C20.3358333,3.60906044 21.6035417,2.33856593 23.1608333,2.33856593 M47.5077083,29.8457637 C46.4139583,28.7485659 44.9577083,28.1441154 43.4108333,28.1441154 C41.8629167,28.1441154 40.4077083,28.7485659 39.3129167,29.8457637 L36.3222917,32.8419176 C36.161875,33.0047747 35.943125,32.9045549 35.9170833,32.8941154 C35.7858333,32.831478 35.793125,32.7625769 35.79625,32.7260385 L38.1025,8.70774176 C38.361875,6.00807143 36.3816667,3.59862088 33.6879167,3.33971978 C32.3920833,3.21757692 31.1077083,3.60488462 30.09625,4.44109341 C29.0847917,5.27625824 28.4577083,6.45592857 28.3327083,7.76191758 L28.0691667,10.4469725 L28.0691667,5.16977473 C28.0691667,2.45653297 25.868125,0.250653846 23.1608333,0.250653846 C20.4545833,0.250653846 18.2525,2.45653297 18.2525,5.16977473 L18.2525,6.31290659 C17.4254167,4.5005989 15.5504167,3.28856593 13.4691667,3.4295 C12.1608333,3.51823626 10.965,4.1112033 10.1025,5.10087363 C9.24,6.09054396 8.81395833,7.35790659 8.9025,8.6712033 L9.03583333,10.5962582 C8.75041667,10.173456 8.41708333,9.78092857 8.00458333,9.4573022 C6.97020833,8.64823626 5.686875,8.28807143 4.38479167,8.45197253 C1.699375,8.78186264 -0.218333333,11.2393352 0.109791667,13.9223022 L2.79625,37.676478 L2.98270833,39.2090055 C3.66083333,44.777467 4.35979167,50.5369725 5.41395833,54.2701593 C6.00458333,56.3643352 6.47958333,79.1580714 6.65458333,93.9686758 C6.66083333,94.5407637 7.12645833,95.0001044 7.69625,95.0001044 L7.70770833,95.0001044 C8.28375,94.9927967 8.74416667,94.5198846 8.73791667,93.9436209 C8.699375,90.7042253 8.38895833,65.9520275 7.768125,56.843511 C8.98270833,57.2892802 10.3483333,57.5471374 11.7327083,57.5471374 C11.7827083,57.5471374 11.8347917,57.5471374 11.886875,57.5460934 C12.1733333,57.5419176 12.4045833,57.3049396 12.4004167,57.0168077 C12.39625,56.7318077 12.165,56.5021374 11.8795833,56.5021374 L11.8722917,56.5021374 C10.4108333,56.5345 8.92541667,56.2317527 7.680625,55.6951593 C7.59729167,54.7326319 7.51083333,54.0321374 7.418125,53.7032912 C6.40875,50.1246099 5.71916667,44.446533 5.05145833,38.9563681 L2.17854167,13.6780165 C1.98895833,12.1287857 3.093125,10.7142253 4.63895833,10.5231813 C5.38895833,10.4313132 6.1275,10.6369725 6.72125,11.1025769 C7.31604167,11.5681813 7.69416667,12.2384011 7.78895833,13.0119725 L10.4889583,31.5818626 L10.524375,32.0934011 C8.68270833,32.4431264 7.580625,32.7667527 7.54520833,32.7761484 C7.27020833,32.8586209 7.11395833,33.1509286 7.19729167,33.425489 C7.27958333,33.7031813 7.57125,33.8587308 7.84520833,33.7752143 C7.96083333,33.7418077 19.399375,30.3760934 31.030625,33.7773022 C31.0785417,33.7908736 31.1285417,33.7981813 31.1764583,33.7981813 C31.4014583,33.7981813 31.6097917,33.6499396 31.6764583,33.4213132 C31.7566667,33.1457088 31.5983333,32.856533 31.32125,32.7740604 C30.2160417,32.451478 29.111875,32.1884011 28.0191667,31.976478 C28.0316667,31.9253242 28.05875,31.881478 28.0639583,31.8282363 L30.405625,7.96444505 C30.4785417,7.21175275 30.8389583,6.53318132 31.42125,6.05191758 C32.0045833,5.57065385 32.7327083,5.34724725 33.4879167,5.41719231 C35.0389583,5.56752198 36.1775,6.95285165 36.0295833,8.5073022 L33.7233333,32.5255989 C33.6452083,33.3471923 34.0327083,34.0988407 34.7025,34.5634011 C33.786875,35.4570275 32.54625,36.5354341 31.193125,37.3361484 C30.6983333,37.630544 30.53375,38.270489 30.8264583,38.7674121 C31.02125,39.0962582 31.368125,39.2799945 31.724375,39.2799945 C31.9045833,39.2799945 32.0879167,39.2330165 32.2535417,39.1348846 C35.0597917,37.4718626 37.3441667,34.8525769 37.79,34.3222473 C37.7920833,34.3212033 37.7941667,34.3201593 37.79625,34.3180714 L40.7858333,31.3219176 C42.1879167,29.9167527 44.63375,29.9167527 46.0347917,31.3219176 C47.4827083,32.7719725 47.4827083,35.1313132 46.1004167,36.5218626 C45.5025,37.0281813 32.749375,47.8644451 30.27125,55.6638407 C29.05875,56.1973022 27.6191667,56.5031813 26.1545833,56.5031813 C26.1035417,56.5031813 26.0452083,56.5042253 26.005625,56.5021374 C25.7202083,56.5021374 25.4889583,56.7318077 25.4847917,57.0168077 C25.480625,57.3049396 25.711875,57.5419176 25.9983333,57.5460934 C26.0504167,57.5471374 26.1025,57.5471374 26.1525,57.5471374 C27.4816667,57.5471374 28.7910417,57.3038956 29.9702083,56.8925769 C29.899375,57.2945 29.8525,57.6880714 29.8525,58.0659835 L29.8525,93.9561484 C29.8525,94.533456 30.318125,95.0001044 30.8941667,95.0001044 C31.4702083,95.0001044 31.9358333,94.533456 31.9358333,93.9561484 L31.9358333,58.0659835 C31.9358333,52.4411484 43.1295833,41.7604341 47.5077083,38.0585659 C48.6025,36.9613681 49.205625,35.5029615 49.205625,33.9516429 C49.205625,32.4013681 48.6025,30.9419176 47.5077083,29.8457637" id="Fill-13" fill="#2F3061" mask="url(#mask-2)"></path>
            </g>
            <path d="M53.970972,41.3600823 C53.8734706,41.0797593 53.5668827,40.9358673 53.2830453,41.0275318 C50.232334,42.0507641 46.7536998,45.2462333 46.0083556,49.3743361 C45.9563548,49.6642519 46.152441,49.9413773 46.447112,49.9925389 C46.4796125,49.9978683 46.5110296,50 46.5435301,50 C46.8002838,50 47.0288705,49.8198685 47.0754545,49.5608628 C47.7395476,45.8793583 50.9495111,42.9364996 53.632967,42.0369079 C53.9157212,41.9409798 54.0673901,41.6382736 53.970972,41.3600823" id="Fill-16" fill="#2F3061"></path>
            <path d="M38.5420656,41 C38.3448402,41 38.156284,40.9017993 38.0598385,40.7338762 C37.9232979,40.4913205 38.0284125,40.1957364 38.2939083,40.0720036 C43.9906894,37.4254953 50.1621119,37.0179624 50.4211058,37.0022503 C50.7180276,36.9757361 50.9781051,37.1868676 50.9986946,37.4588835 C51.019284,37.7289354 50.7938835,37.962653 50.4947944,37.9822931 C50.4341097,37.9862211 44.2811093,38.394736 38.7902229,40.9459896 C38.7100323,40.9823239 38.6255071,41 38.5420656,41" id="Fill-18" fill="#2F3061"></path>
            <path d="M71.5039883,19.0079365 C70.5139916,19 69.5139949,19 68.4999983,19 C68.2239992,19 68,19.2222222 68,19.4960317 C68,19.7708333 68.2239992,19.9920635 68.4999983,19.9920635 C69.5119949,19.9920635 70.5079916,19.9920635 71.4959883,20 L71.4999883,20 C71.7749873,20 71.9979866,19.7797619 71.9999866,19.5079365 C72.0019866,19.234127 71.7799873,19.0099206 71.5039883,19.0079365" id="Fill-20" fill="#A5D9E4"></path>
            <path d="M78.5447102,19.1697171 C77.5845037,19.0956739 76.5972351,19.0407654 75.5227661,19.0008319 C75.5157499,19 75.5077315,19 75.5007154,19 C75.2331004,19 75.0125937,19.1738769 75.0005661,19.3968386 C74.9875361,19.6264559 75.2010267,19.8211314 75.4776624,19.8311148 C76.5350923,19.8710483 77.5083287,19.9251248 78.4524983,19.9983361 C78.4685352,19.9991681 78.4835697,20 78.4996066,20 C78.7551939,20 78.973696,19.8386023 78.9977513,19.6222962 C79.0238111,19.3943428 78.8203436,19.1905158 78.5447102,19.1697171" id="Fill-22" fill="#A5D9E4"></path>
            <path d="M85.6121238,20.77754 C84.6220964,20.483405 83.6066577,20.2252611 82.5942684,20.011796 C82.3238913,19.9435368 82.0555472,20.1793413 82.0077738,20.516914 C81.9589839,20.8544867 82.1449952,21.1746844 82.421471,21.2330149 C83.4114983,21.4427568 84.404575,21.6946953 85.3722403,21.9826249 C85.4128986,21.9937946 85.4525403,22 85.4921821,22 C85.7208845,22 85.9292578,21.8101154 85.9851628,21.52715 C86.0522488,21.1933005 85.8855502,20.8569689 85.6121238,20.77754" id="Fill-24" fill="#A5D9E4"></path>
            <g id="Group-28" transform="translate(89.000000, 20.000000)">
                <mask id="mask-4" fill="white">
                    <use xlink:href="#path-3"></use>
                </mask>
                <g id="Clip-27"></g>
                <path d="M5.178,4.0078 L3.734,0.7718 C3.574,0.4138 3.063,0.4288 2.922,0.7938 L2.235,2.5918 C1.936,2.4848 1.638,2.3778 1.343,2.2788 C1.077,2.1928 0.798,2.3308 0.709,2.5918 C0.62,2.8538 0.761,3.1378 1.023,3.2258 C1.305,3.3208 1.591,3.4238 1.877,3.5268 L1.131,5.4748 C0.991,5.8408 1.363,6.1928 1.72,6.0328 L4.955,4.5878 C5.178,4.4888 5.277,4.2298 5.178,4.0078" id="Fill-26" fill="#A5D9E4" mask="url(#mask-4)"></path>
            </g>
            <path d="M16.3021195,29.0266091 C15.2424536,29.3706574 14.2699555,29.7068865 13.3300139,30.0577767 C13.0601089,30.1574725 12.9298824,30.4418989 13.0380544,30.6921158 C13.1199711,30.8827108 13.3163612,31 13.5243035,31 C13.5894168,31 13.6555803,30.9882711 13.7196433,30.9638358 C14.6459321,30.6197875 15.6037272,30.2884455 16.6465897,29.9502616 C16.9206956,29.8613173 17.0656251,29.5827554 16.9711058,29.3286288 C16.8755364,29.0725473 16.5720245,28.9396196 16.3021195,29.0266091" id="Fill-29" fill="#A5D9E4"></path>
            <path d="M10.2058072,31.0654495 C9.21196357,31.6216391 8.22471624,32.2211842 7.27264921,32.845504 C7.01099569,33.0176874 6.92194554,33.3967387 7.07475999,33.692795 C7.17700275,33.8897531 7.36059998,34 7.54969412,34 C7.64424119,34 7.73988765,33.9739867 7.82673903,33.9157664 C8.75791775,33.3050727 9.72317739,32.7191536 10.6950333,32.1741125 C10.9665813,32.0217488 11.0776192,31.6501299 10.9423949,31.3441637 C10.8071706,31.0381974 10.4751564,30.911847 10.2058072,31.0654495" id="Fill-31" fill="#A5D9E4"></path>
            <path d="M23.3363643,26.0208976 C22.3325739,26.3323136 21.344274,26.6383604 20.3652685,26.9487025 C20.092634,27.0356843 19.9397935,27.3363618 20.02241,27.6198577 C20.0905686,27.8507351 20.2960771,28 20.5170763,28 C20.5656135,28 20.6172488,27.9924831 20.6678514,27.9763753 C21.6427261,27.6660332 22.6289605,27.3599864 23.6306856,27.0507181 C23.9043528,26.9658841 24.0592587,26.6673543 23.9787076,26.3827845 C23.8971238,26.0992886 23.6131296,25.940359 23.3363643,26.0208976" id="Fill-33" fill="#A5D9E4"></path>
            <g id="Group-37" transform="translate(0.000000, 33.000000)">
                <mask id="mask-6" fill="white">
                    <use xlink:href="#path-5"></use>
                </mask>
                <g id="Clip-36"></g>
                <path d="M3.0941,3.3857 C3.3381,3.2057 3.5841,3.0267 3.8261,2.8547 C4.0521,2.6957 4.1061,2.3837 3.9471,2.1577 C3.7861,1.9307 3.4741,1.8777 3.2501,2.0377 C3.0001,2.2137 2.7481,2.3997 2.4971,2.5837 L1.3051,0.9827 C1.0721,0.6687 0.5741,0.7937 0.5181,1.1817 L0.0041,4.6877 C-0.0309,4.9277 0.1351,5.1507 0.3751,5.1857 L3.8811,5.7007 C4.2691,5.7577 4.5311,5.3177 4.2981,5.0037 L3.0941,3.3857 Z" id="Fill-35" fill="#A5D9E4" mask="url(#mask-6)"></path>
            </g>
        </g>
    </g>
</svg>