<?xml version="1.0" encoding="UTF-8"?>
<svg width="141px" height="152px" viewBox="0 0 141 152" version="1.1" xmlns="http://www.w3.org/2000/svg" xmlns:xlink="http://www.w3.org/1999/xlink">
    <!-- Generator: Sketch 50.2 (55047) - http://www.bohemiancoding.com/sketch -->
    <title>Artboard</title>
    <desc>Created with Sketch.</desc>
    <defs>
        <polygon id="path-1" points="0.0004 0.4229 140 0.4229 140 140.4229 0.0004 140.4229"></polygon>
        <path d="M0.001,70.423 C0.001,109.083 31.341,140.423 70,140.423 C108.66,140.423 140,109.083 140,70.423 C140,31.763 108.66,0.423 70,0.423 C31.341,0.423 0.001,31.763 0.001,70.423 Z" id="path-3"></path>
        <path d="M0.001,70.423 C0.001,109.083 31.341,140.423 70,140.423 C108.66,140.423 140,109.083 140,70.423 C140,31.763 108.66,0.423 70,0.423 C31.341,0.423 0.001,31.763 0.001,70.423 Z" id="path-5"></path>
        <path d="M0.001,70.423 C0.001,109.083 31.341,140.423 70,140.423 C108.66,140.423 140,109.083 140,70.423 C140,31.763 108.66,0.423 70,0.423 C31.341,0.423 0.001,31.763 0.001,70.423 Z" id="path-7"></path>
        <path d="M0.001,70.423 C0.001,109.083 31.341,140.423 70,140.423 C108.66,140.423 140,109.083 140,70.423 C140,31.763 108.66,0.423 70,0.423 C31.341,0.423 0.001,31.763 0.001,70.423 Z" id="path-9"></path>
        <path d="M0.001,70.423 C0.001,109.083 31.341,140.423 70,140.423 C108.66,140.423 140,109.083 140,70.423 C140,31.763 108.66,0.423 70,0.423 C31.341,0.423 0.001,31.763 0.001,70.423" id="path-11"></path>
        <path d="M0.001,70.423 C0.001,109.083 31.341,140.423 70,140.423 C108.66,140.423 140,109.083 140,70.423 C140,31.763 108.66,0.423 70,0.423 C31.341,0.423 0.001,31.763 0.001,70.423" id="path-13"></path>
        <path d="M0.001,70.423 C0.001,109.083 31.341,140.423 70,140.423 C108.66,140.423 140,109.083 140,70.423 C140,31.763 108.66,0.423 70,0.423 C31.341,0.423 0.001,31.763 0.001,70.423" id="path-15"></path>
        <path d="M0.001,70.423 C0.001,109.083 31.341,140.423 70,140.423 C108.66,140.423 140,109.083 140,70.423 C140,31.763 108.66,0.423 70,0.423 C31.341,0.423 0.001,31.763 0.001,70.423" id="path-17"></path>
        <path d="M0.001,70.423 C0.001,109.083 31.341,140.423 70,140.423 C108.66,140.423 140,109.083 140,70.423 C140,31.763 108.66,0.423 70,0.423 C31.341,0.423 0.001,31.763 0.001,70.423" id="path-19"></path>
        <path d="M0.001,70.423 C0.001,109.083 31.341,140.423 70,140.423 C108.66,140.423 140,109.083 140,70.423 C140,31.763 108.66,0.423 70,0.423 C31.341,0.423 0.001,31.763 0.001,70.423" id="path-21"></path>
        <path d="M0.001,70.423 C0.001,109.083 31.341,140.423 70,140.423 C108.66,140.423 140,109.083 140,70.423 C140,31.763 108.66,0.423 70,0.423 C31.341,0.423 0.001,31.763 0.001,70.423" id="path-23"></path>
        <path d="M0.001,70.423 C0.001,109.083 31.341,140.423 70,140.423 C108.66,140.423 140,109.083 140,70.423 C140,31.763 108.66,0.423 70,0.423 C31.341,0.423 0.001,31.763 0.001,70.423 Z" id="path-25"></path>
        <path d="M0.001,70.423 C0.001,109.083 31.341,140.423 70,140.423 C108.66,140.423 140,109.083 140,70.423 C140,31.763 108.66,0.423 70,0.423 C31.341,0.423 0.001,31.763 0.001,70.423 Z" id="path-27"></path>
        <path d="M0.001,70.423 C0.001,109.083 31.341,140.423 70,140.423 C108.66,140.423 140,109.083 140,70.423 C140,31.763 108.66,0.423 70,0.423 C31.341,0.423 0.001,31.763 0.001,70.423" id="path-29"></path>
        <polygon id="path-31" points="0.99 58.067 72.32 74.359 80.153 28.857 70.487 11.62 13.62 0.566"></polygon>
        <polygon id="path-33" points="0.99 58.067 72.32 74.359 80.153 28.857 70.487 11.62 13.62 0.566"></polygon>
        <polygon id="path-35" points="0.99 58.067 72.32 74.359 80.153 28.857 70.487 11.62 13.62 0.566"></polygon>
        <polygon id="path-37" points="0.99 58.067 72.32 74.359 80.153 28.857 70.487 11.62 13.62 0.566"></polygon>
        <polyline id="path-39" points="0.99 58.067 72.32 74.359 80.153 28.857 70.487 11.62 13.62 0.566"></polyline>
        <polyline id="path-41" points="0.99 58.067 72.32 74.359 80.153 28.857 70.487 11.62 13.62 0.566"></polyline>
        <polyline id="path-43" points="0.99 58.067 72.32 74.359 80.153 28.857 70.487 11.62 13.62 0.566"></polyline>
        <polyline id="path-45" points="0.99 58.067 72.32 74.359 80.153 28.857 70.487 11.62 13.62 0.566"></polyline>
        <polyline id="path-47" points="0.99 58.067 72.32 74.359 80.153 28.857 70.487 11.62 13.62 0.566"></polyline>
        <polyline id="path-49" points="0.99 58.067 72.32 74.359 80.153 28.857 70.487 11.62 13.62 0.566"></polyline>
        <polyline id="path-51" points="0.99 58.067 72.32 74.359 80.153 28.857 70.487 11.62 13.62 0.566"></polyline>
    </defs>
    <g id="Artboard" stroke="none" stroke-width="1" fill="none" fill-rule="evenodd">
        <g id="Page-1" transform="translate(1.000000, 1.000000)">
            <g id="Group-3" transform="translate(0.000000, 9.319000)">
                <mask id="mask-2" fill="white">
                    <use xlink:href="#path-1"></use>
                </mask>
                <g id="Clip-2"></g>
                <path d="M140.0004,70.4229 C140.0004,109.0829 108.6594,140.4229 70.0004,140.4229 C31.3404,140.4229 0.0004,109.0829 0.0004,70.4229 C0.0004,31.7629 31.3404,0.4229 70.0004,0.4229 C108.6594,0.4229 140.0004,31.7629 140.0004,70.4229" id="Fill-1" fill="#E897A3" mask="url(#mask-2)"></path>
            </g>
            <g id="Group-54" transform="translate(0.000000, 9.319000)">
                <g id="Group-6">
                    <mask id="mask-4" fill="white">
                        <use xlink:href="#path-3"></use>
                    </mask>
                    <g id="Clip-5"></g>
                    <polygon id="Fill-4" fill="#E2EFF3" mask="url(#mask-4)" points="123.8666 54.8569 108.9166 122.9779 48.0206 109.6129 66.2686 26.4689 112.1396 36.5359"></polygon>
                </g>
                <g id="Group-9">
                    <mask id="mask-6" fill="white">
                        <use xlink:href="#path-5"></use>
                    </mask>
                    <g id="Clip-8"></g>
                    <polygon id="Stroke-7" stroke="#2F3061" stroke-width="2" stroke-linecap="round" stroke-linejoin="round" mask="url(#mask-6)" points="123.8666 54.8569 108.9166 122.9779 48.0206 109.6129 66.2686 26.4689 112.1396 36.5359"></polygon>
                </g>
                <g id="Group-12">
                    <mask id="mask-8" fill="white">
                        <use xlink:href="#path-7"></use>
                    </mask>
                    <g id="Clip-11"></g>
                    <polygon id="Fill-10" fill="#2F3061" mask="url(#mask-8)" points="123.8666 54.8569 108.8436 51.5599 112.1396 36.5359"></polygon>
                </g>
                <g id="Group-15">
                    <mask id="mask-10" fill="white">
                        <use xlink:href="#path-9"></use>
                    </mask>
                    <g id="Clip-14"></g>
                    <polygon id="Stroke-13" stroke="#2F3061" stroke-width="2" stroke-linecap="round" stroke-linejoin="round" mask="url(#mask-10)" points="123.8666 54.8569 108.8436 51.5599 112.1396 36.5359"></polygon>
                </g>
                <g id="Group-19">
                    <mask id="mask-12" fill="white">
                        <use xlink:href="#path-11"></use>
                    </mask>
                    <g id="Clip-17"></g>
                    <path d="M72.7758,38.3267 L99.9378,44.2877" id="Fill-16" fill="#2F3061" mask="url(#mask-12)"></path>
                    <path d="M72.7758,38.3267 L99.9378,44.2877" id="Stroke-18" stroke="#2F3061" stroke-width="2" stroke-linecap="round" stroke-linejoin="round" mask="url(#mask-12)"></path>
                </g>
                <g id="Group-23">
                    <mask id="mask-14" fill="white">
                        <use xlink:href="#path-13"></use>
                    </mask>
                    <g id="Clip-21"></g>
                    <path d="M70.9506,46.6411 L98.1136,52.6021" id="Fill-20" fill="#2F3061" mask="url(#mask-14)"></path>
                    <path d="M70.9506,46.6411 L98.1136,52.6021" id="Stroke-22" stroke="#2F3061" stroke-width="2" stroke-linecap="round" stroke-linejoin="round" mask="url(#mask-14)"></path>
                </g>
                <g id="Group-27">
                    <mask id="mask-16" fill="white">
                        <use xlink:href="#path-15"></use>
                    </mask>
                    <g id="Clip-25"></g>
                    <path d="M69.1254,54.9556 L112.6494,64.5076" id="Fill-24" fill="#2F3061" mask="url(#mask-16)"></path>
                    <path d="M69.1254,54.9556 L112.6494,64.5076" id="Stroke-26" stroke="#2F3061" stroke-width="2" stroke-linecap="round" stroke-linejoin="round" mask="url(#mask-16)"></path>
                </g>
                <g id="Group-31">
                    <mask id="mask-18" fill="white">
                        <use xlink:href="#path-17"></use>
                    </mask>
                    <g id="Clip-29"></g>
                    <path d="M67.3012,63.27 L110.8242,72.822" id="Fill-28" fill="#2F3061" mask="url(#mask-18)"></path>
                    <path d="M67.3012,63.27 L110.8242,72.822" id="Stroke-30" stroke="#2F3061" stroke-width="2" stroke-linecap="round" stroke-linejoin="round" mask="url(#mask-18)"></path>
                </g>
                <g id="Group-35">
                    <mask id="mask-20" fill="white">
                        <use xlink:href="#path-19"></use>
                    </mask>
                    <g id="Clip-33"></g>
                    <path d="M65.476,71.5845 L109,81.1365" id="Fill-32" fill="#2F3061" mask="url(#mask-20)"></path>
                    <path d="M65.476,71.5845 L109,81.1365" id="Stroke-34" stroke="#2F3061" stroke-width="2" stroke-linecap="round" stroke-linejoin="round" mask="url(#mask-20)"></path>
                </g>
                <g id="Group-39">
                    <mask id="mask-22" fill="white">
                        <use xlink:href="#path-21"></use>
                    </mask>
                    <g id="Clip-37"></g>
                    <path d="M63.6517,79.8985 L107.1747,89.4505" id="Fill-36" fill="#2F3061" mask="url(#mask-22)"></path>
                    <path d="M63.6517,79.8985 L107.1747,89.4505" id="Stroke-38" stroke="#2F3061" stroke-width="2" stroke-linecap="round" stroke-linejoin="round" mask="url(#mask-22)"></path>
                </g>
                <g id="Group-43">
                    <mask id="mask-24" fill="white">
                        <use xlink:href="#path-23"></use>
                    </mask>
                    <g id="Clip-41"></g>
                    <path d="M61.8265,88.2129 L78.5655,91.8869" id="Fill-40" fill="#2F3061" mask="url(#mask-24)"></path>
                    <path d="M61.8265,88.2129 L78.5655,91.8869" id="Stroke-42" stroke="#2F3061" stroke-width="2" stroke-linecap="round" stroke-linejoin="round" mask="url(#mask-24)"></path>
                </g>
                <g id="Group-46">
                    <mask id="mask-26" fill="white">
                        <use xlink:href="#path-25"></use>
                    </mask>
                    <g id="Clip-45"></g>
                    <polygon id="Fill-44" fill="#A5D9E4" mask="url(#mask-26)" points="87.6098 103.8443 101.8648 146.1263 92.8628 149.1603 78.6078 106.8793 78.5658 91.8863"></polygon>
                </g>
                <g id="Group-49">
                    <mask id="mask-28" fill="white">
                        <use xlink:href="#path-27"></use>
                    </mask>
                    <g id="Clip-48"></g>
                    <polygon id="Stroke-47" stroke="#2F3061" stroke-width="2" stroke-linecap="round" stroke-linejoin="round" mask="url(#mask-28)" points="87.6098 103.8443 101.8648 146.1263 92.8628 149.1603 78.6078 106.8793 78.5658 91.8863"></polygon>
                </g>
                <g id="Group-53">
                    <mask id="mask-30" fill="white">
                        <use xlink:href="#path-29"></use>
                    </mask>
                    <g id="Clip-51"></g>
                    <path d="M78.6078,106.8789 C78.6078,106.8789 81.2678,108.2269 83.7888,107.3779 C86.3088,106.5279 87.6098,103.8439 87.6098,103.8439" id="Fill-50" fill="#A5D9E4" mask="url(#mask-30)"></path>
                    <path d="M78.6078,106.8789 C78.6078,106.8789 81.2678,108.2269 83.7888,107.3779 C86.3088,106.5279 87.6098,103.8439 87.6098,103.8439" id="Stroke-52" stroke="#2F3061" stroke-width="2" stroke-linecap="round" stroke-linejoin="round" mask="url(#mask-30)"></path>
                </g>
            </g>
            <g id="Group-161" transform="translate(0.000000, 0.319000)">
                <path d="M84.4291,75.0283 L26.2661,92.3633 C22.9531,93.3503 19.4691,91.4663 18.4821,88.1543 L2.6561,35.0533 L72.8121,14.1433 L88.6381,67.2443 C89.6251,70.5563 87.7411,74.0413 84.4291,75.0283" id="Fill-55" fill="#E2EFF3"></path>
                <path d="M84.4291,75.0283 L26.2661,92.3633 C22.9531,93.3503 19.4691,91.4663 18.4821,88.1543 L2.6561,35.0533 L72.8121,14.1433 L88.6381,67.2443 C89.6251,70.5563 87.7411,74.0413 84.4291,75.0283 Z" id="Stroke-57" stroke="#2F3061" stroke-width="2" stroke-linecap="round" stroke-linejoin="round"></path>
                <path d="M65.8119,3.312 L2.5829,22.157 C0.6699,22.727 -0.4181,24.74 0.1519,26.653 L2.6559,35.053 L72.8119,14.144 L70.3079,5.743 C69.7379,3.83 67.7249,2.742 65.8119,3.312" id="Fill-59" fill="#A5D9E4"></path>
                <path d="M65.8119,3.312 L2.5829,22.157 C0.6699,22.727 -0.4181,24.74 0.1519,26.653 L2.6559,35.053 L72.8119,14.144 L70.3079,5.743 C69.7379,3.83 67.7249,2.742 65.8119,3.312 Z" id="Stroke-61" stroke="#2F3061" stroke-width="2" stroke-linecap="round" stroke-linejoin="round"></path>
                <path d="M16.4564,24.5259 C19.7554,23.5429 21.6324,20.0709 20.6484,16.7729 C19.6664,13.4729 16.1944,11.5959 12.8954,12.5789 C9.5964,13.5629 7.7194,17.0339 8.7024,20.3329" id="Stroke-63" stroke="#2F3061" stroke-width="2" stroke-linecap="round" stroke-linejoin="round"></path>
                <path d="M18.3158,23.9717 C18.6228,24.9987 18.0378,26.0797 17.0098,26.3857 C15.9838,26.6917 14.9028,26.1077 14.5958,25.0807 C14.2908,24.0537 14.8758,22.9727 15.9018,22.6667 C16.9288,22.3607 18.0098,22.9447 18.3158,23.9717" id="Fill-65" fill="#2F3061"></path>
                <path d="M35.9779,18.708 C39.2769,17.725 41.1539,14.253 40.1699,10.954 C39.1879,7.655 35.7159,5.778 32.4169,6.761 C29.1179,7.744 27.2409,11.216 28.2239,14.515" id="Stroke-67" stroke="#2F3061" stroke-width="2" stroke-linecap="round" stroke-linejoin="round"></path>
                <path d="M37.8373,18.1533 C38.1443,19.1803 37.5593,20.2613 36.5313,20.5673 C35.5053,20.8733 34.4243,20.2893 34.1173,19.2623 C33.8123,18.2353 34.3963,17.1543 35.4233,16.8483 C36.4503,16.5423 37.5313,17.1263 37.8373,18.1533" id="Fill-69" fill="#2F3061"></path>
                <path d="M55.4994,12.8897 C58.7984,11.9067 60.6754,8.4347 59.6914,5.1357 C58.7094,1.8367 55.2374,-0.0403 51.9384,0.9427 C48.6394,1.9257 46.7624,5.3977 47.7454,8.6967" id="Stroke-71" stroke="#2F3061" stroke-width="2" stroke-linecap="round" stroke-linejoin="round"></path>
                <path d="M57.3588,12.335 C57.6658,13.362 57.0808,14.443 56.0528,14.749 C55.0268,15.055 53.9458,14.471 53.6388,13.444 C53.3338,12.417 53.9178,11.336 54.9448,11.03 C55.9718,10.724 57.0528,11.308 57.3588,12.335" id="Fill-73" fill="#2F3061"></path>
                <path d="M70.4389,28.9375 C70.8329,30.2605 70.0799,31.6535 68.7559,32.0475 C67.4339,32.4415 66.0419,31.6885 65.6469,30.3655 C65.2519,29.0425 66.0049,27.6505 67.3289,27.2555 C68.6519,26.8615 70.0439,27.6145 70.4389,28.9375" id="Fill-75" fill="#706993"></path>
                <path d="M61.6205,31.5659 C62.0155,32.8889 61.2625,34.2809 59.9385,34.6759 C58.6155,35.0699 57.2235,34.3169 56.8295,32.9939 C56.4345,31.6709 57.1875,30.2779 58.5115,29.8839 C59.8345,29.4899 61.2255,30.2429 61.6205,31.5659" id="Fill-77" fill="#706993"></path>
                <path d="M52.8031,34.1939 C53.1981,35.5169 52.4451,36.9089 51.1211,37.3039 C49.7981,37.6979 48.4061,36.9449 48.0111,35.6219 C47.6161,34.2989 48.3691,32.9059 49.6931,32.5119 C51.0161,32.1179 52.4081,32.8709 52.8031,34.1939" id="Fill-79" fill="#706993"></path>
                <path d="M43.9857,36.8218 C44.3797,38.1448 43.6267,39.5378 42.3027,39.9318 C40.9797,40.3258 39.5887,39.5728 39.1937,38.2498 C38.7987,36.9268 39.5517,35.5348 40.8757,35.1398 C42.1987,34.7458 43.5907,35.4988 43.9857,36.8218" id="Fill-81" fill="#706993"></path>
                <path d="M35.1674,39.4502 C35.5624,40.7732 34.8094,42.1652 33.4854,42.5602 C32.1624,42.9542 30.7704,42.2012 30.3754,40.8782 C29.9814,39.5552 30.7344,38.1622 32.0584,37.7682 C33.3814,37.3742 34.7724,38.1272 35.1674,39.4502" id="Fill-83" fill="#706993"></path>
                <path d="M20.8324,55.7803 C21.2274,57.1033 20.4744,58.4963 19.1504,58.8903 C17.8274,59.2843 16.4354,58.5313 16.0414,57.2083 C15.6464,55.8853 16.3994,54.4933 17.7234,54.0983 C19.0464,53.7043 20.4374,54.4573 20.8324,55.7803" id="Fill-85" fill="#706993"></path>
                <path d="M73.7387,40.0117 C74.1337,41.3347 73.3807,42.7267 72.0567,43.1217 C70.7337,43.5157 69.3427,42.7627 68.9477,41.4397 C68.5527,40.1167 69.3057,38.7237 70.6297,38.3297 C71.9527,37.9357 73.3447,38.6887 73.7387,40.0117" id="Fill-87" fill="#706993"></path>
                <path d="M64.9213,42.6397 C65.3163,43.9627 64.5633,45.3557 63.2393,45.7497 C61.9163,46.1437 60.5243,45.3907 60.1293,44.0677 C59.7353,42.7447 60.4883,41.3527 61.8123,40.9577 C63.1343,40.5637 64.5263,41.3167 64.9213,42.6397" id="Fill-89" fill="#706993"></path>
                <path d="M56.1039,45.2681 C56.4989,46.5911 55.7459,47.9831 54.4219,48.3781 C53.0989,48.7721 51.7069,48.0191 51.3119,46.6961 C50.9169,45.3731 51.6699,43.9801 52.9939,43.5861 C54.3169,43.1921 55.7089,43.9451 56.1039,45.2681" id="Fill-91" fill="#706993"></path>
                <path d="M47.2855,47.896 C47.6805,49.219 46.9275,50.612 45.6035,51.006 C44.2805,51.4 42.8895,50.647 42.4945,49.324 C42.0995,48.001 42.8525,46.609 44.1765,46.214 C45.4995,45.82 46.8915,46.573 47.2855,47.896" id="Fill-93" fill="#706993"></path>
                <path d="M38.4681,50.5244 C38.8631,51.8474 38.1101,53.2394 36.7861,53.6344 C35.4631,54.0284 34.0711,53.2754 33.6761,51.9524 C33.2811,50.6284 34.0351,49.2364 35.3581,48.8424 C36.6811,48.4484 38.0731,49.2014 38.4681,50.5244" id="Fill-95" fill="#706993"></path>
                <path d="M29.6508,53.1524 C30.0458,54.4754 29.2918,55.8674 27.9688,56.2624 C26.6458,56.6564 25.2538,55.9034 24.8588,54.5804 C24.4638,53.2574 25.2168,51.8644 26.5408,51.4704 C27.8638,51.0764 29.2558,51.8294 29.6508,53.1524" id="Fill-97" fill="#706993"></path>
                <path d="M24.1332,66.8545 C24.5282,68.1775 23.7752,69.5705 22.4512,69.9645 C21.1282,70.3585 19.7362,69.6055 19.3412,68.2825 C18.9472,66.9595 19.7002,65.5675 21.0242,65.1725 C22.3472,64.7785 23.7382,65.5315 24.1332,66.8545" id="Fill-99" fill="#706993"></path>
                <path d="M77.0394,51.086 C77.4344,52.409 76.6814,53.801 75.3574,54.196 C74.0344,54.59 72.6424,53.837 72.2484,52.514 C71.8534,51.191 72.6064,49.798 73.9304,49.404 C75.2534,49.01 76.6444,49.763 77.0394,51.086" id="Fill-101" fill="#706993"></path>
                <path d="M68.2221,53.7139 C68.6171,55.0369 67.8641,56.4299 66.5401,56.8239 C65.2171,57.2179 63.8251,56.4649 63.4301,55.1419 C63.0351,53.8189 63.7881,52.4269 65.1121,52.0319 C66.4351,51.6379 67.8271,52.3909 68.2221,53.7139" id="Fill-103" fill="#706993"></path>
                <path d="M59.4047,56.3423 C59.7987,57.6653 59.0457,59.0573 57.7217,59.4523 C56.3997,59.8463 55.0077,59.0933 54.6127,57.7703 C54.2177,56.4473 54.9707,55.0543 56.2947,54.6603 C57.6177,54.2663 59.0097,55.0193 59.4047,56.3423" id="Fill-105" fill="#706993"></path>
                <path d="M50.5863,58.9702 C50.9813,60.2932 50.2283,61.6852 48.9043,62.0802 C47.5813,62.4742 46.1893,61.7212 45.7953,60.3982 C45.4003,59.0752 46.1533,57.6822 47.4773,57.2882 C48.8003,56.8942 50.1913,57.6472 50.5863,58.9702" id="Fill-107" fill="#706993"></path>
                <path d="M41.7689,61.5982 C42.1639,62.9212 41.4109,64.3142 40.0869,64.7082 C38.7639,65.1022 37.3719,64.3492 36.9769,63.0262 C36.5819,61.7032 37.3349,60.3112 38.6589,59.9162 C39.9819,59.5222 41.3739,60.2752 41.7689,61.5982" id="Fill-109" fill="#706993"></path>
                <path d="M32.9515,64.2266 C33.3455,65.5496 32.5925,66.9416 31.2685,67.3366 C29.9455,67.7306 28.5545,66.9776 28.1595,65.6546 C27.7645,64.3316 28.5175,62.9386 29.8415,62.5446 C31.1645,62.1506 32.5565,62.9036 32.9515,64.2266" id="Fill-111" fill="#706993"></path>
                <path d="M27.434,77.9287 C27.829,79.2517 27.076,80.6437 25.752,81.0387 C24.429,81.4327 23.037,80.6797 22.642,79.3567 C22.247,78.0337 23.001,76.6407 24.324,76.2467 C25.647,75.8527 27.039,76.6057 27.434,77.9287" id="Fill-113" fill="#706993"></path>
                <path d="M53.8871,70.0444 C54.2821,71.3674 53.5291,72.7594 52.2051,73.1544 C50.8821,73.5484 49.4901,72.7954 49.0951,71.4724 C48.7011,70.1494 49.4541,68.7564 50.7781,68.3624 C52.1001,67.9684 53.4921,68.7214 53.8871,70.0444" id="Fill-115" fill="#706993"></path>
                <path d="M45.0697,72.6724 C45.4647,73.9954 44.7117,75.3884 43.3877,75.7824 C42.0647,76.1764 40.6727,75.4234 40.2777,74.1004 C39.8827,72.7774 40.6357,71.3854 41.9597,70.9904 C43.2827,70.5964 44.6747,71.3494 45.0697,72.6724" id="Fill-117" fill="#706993"></path>
                <path d="M36.2513,75.3008 C36.6463,76.6238 35.8933,78.0158 34.5693,78.4108 C33.2463,78.8048 31.8553,78.0518 31.4603,76.7288 C31.0653,75.4058 31.8183,74.0128 33.1423,73.6188 C34.4653,73.2248 35.8573,73.9778 36.2513,75.3008" id="Fill-119" fill="#706993"></path>
                <path d="M29.4261,38.355 L36.1171,41.973" id="Stroke-121" stroke="#D68091" stroke-width="2" stroke-linecap="round"></path>
                <path d="M34.5804,36.8184 L30.9624,43.5094" id="Stroke-123" stroke="#D68091" stroke-width="2" stroke-linecap="round"></path>
                <path d="M38.2435,35.7271 L44.9345,39.3451" id="Stroke-125" stroke="#D68091" stroke-width="2" stroke-linecap="round"></path>
                <path d="M43.3988,34.1904 L39.7808,40.8814" id="Stroke-127" stroke="#D68091" stroke-width="2" stroke-linecap="round"></path>
                <path d="M47.0619,33.0986 L53.7519,36.7176" id="Stroke-129" stroke="#D68091" stroke-width="2" stroke-linecap="round"></path>
                <path d="M52.2162,31.5625 L48.5982,38.2535" id="Stroke-131" stroke="#D68091" stroke-width="2" stroke-linecap="round"></path>
                <path d="M55.9056,30.4629 L62.5966,34.0809" id="Stroke-133" stroke="#D68091" stroke-width="2" stroke-linecap="round"></path>
                <path d="M61.0599,28.9263 L57.4419,35.6173" id="Stroke-135" stroke="#D68091" stroke-width="2" stroke-linecap="round"></path>
                <path d="M64.808,27.8096 L71.499,31.4276" id="Stroke-137" stroke="#D68091" stroke-width="2" stroke-linecap="round"></path>
                <path d="M69.9633,26.273 L66.3453,32.964" id="Stroke-139" stroke="#D68091" stroke-width="2" stroke-linecap="round"></path>
                <path d="M15.0355,54.7017 L21.7265,58.3207" id="Stroke-141" stroke="#D68091" stroke-width="2" stroke-linecap="round"></path>
                <path d="M20.1908,53.1655 L16.5718,59.8565" id="Stroke-143" stroke="#D68091" stroke-width="2" stroke-linecap="round"></path>
                <path d="M23.8539,52.0737 L30.5439,55.6917" id="Stroke-145" stroke="#D68091" stroke-width="2" stroke-linecap="round"></path>
                <path d="M29.0082,50.5376 L25.3902,57.2286" id="Stroke-147" stroke="#D68091" stroke-width="2" stroke-linecap="round"></path>
                <path d="M32.6713,49.4458 L39.3623,53.0638" id="Stroke-149" stroke="#D68091" stroke-width="2" stroke-linecap="round"></path>
                <path d="M37.8256,47.9092 L34.2076,54.6002" id="Stroke-151" stroke="#D68091" stroke-width="2" stroke-linecap="round"></path>
                <path d="M41.515,46.8096 L48.206,50.4286" id="Stroke-153" stroke="#D68091" stroke-width="2" stroke-linecap="round"></path>
                <path d="M46.6703,45.2735 L43.0513,51.9645" id="Stroke-155" stroke="#D68091" stroke-width="2" stroke-linecap="round"></path>
                <path d="M50.4174,44.1563 L57.1084,47.7743" id="Stroke-157" stroke="#D68091" stroke-width="2" stroke-linecap="round"></path>
                <path d="M55.5726,42.6201 L51.9546,49.3111" id="Stroke-159" stroke="#D68091" stroke-width="2" stroke-linecap="round"></path>
            </g>
            <g id="Group-202" transform="translate(48.000000, 31.319000)">
                <g id="Group-164">
                    <mask id="mask-32" fill="white">
                        <use xlink:href="#path-31"></use>
                    </mask>
                    <g id="Clip-163"></g>
                    <polygon id="Fill-162" fill="#E2EFF3" mask="url(#mask-32)" points="75.8666 32.8569 60.9166 100.9779 0.0206 87.6129 18.2686 4.4689 64.1396 14.5359"></polygon>
                </g>
                <g id="Group-167">
                    <mask id="mask-34" fill="white">
                        <use xlink:href="#path-33"></use>
                    </mask>
                    <g id="Clip-166"></g>
                    <polygon id="Stroke-165" stroke="#2F3061" stroke-width="2" stroke-linecap="round" stroke-linejoin="round" mask="url(#mask-34)" points="75.8666 32.8569 60.9166 100.9779 0.0206 87.6129 18.2686 4.4689 64.1396 14.5359"></polygon>
                </g>
                <g id="Group-170">
                    <mask id="mask-36" fill="white">
                        <use xlink:href="#path-35"></use>
                    </mask>
                    <g id="Clip-169"></g>
                    <polygon id="Fill-168" fill="#2F3061" mask="url(#mask-36)" points="75.8666 32.8569 60.8436 29.5599 64.1396 14.5359"></polygon>
                </g>
                <g id="Group-173">
                    <mask id="mask-38" fill="white">
                        <use xlink:href="#path-37"></use>
                    </mask>
                    <g id="Clip-172"></g>
                    <polygon id="Stroke-171" stroke="#2F3061" stroke-width="2" stroke-linecap="round" stroke-linejoin="round" mask="url(#mask-38)" points="75.8666 32.8569 60.8436 29.5599 64.1396 14.5359"></polygon>
                </g>
                <g id="Group-177">
                    <mask id="mask-40" fill="white">
                        <use xlink:href="#path-39"></use>
                    </mask>
                    <g id="Clip-175"></g>
                    <path d="M24.7758,16.3267 L51.9378,22.2877" id="Fill-174" fill="#2F3061" mask="url(#mask-40)"></path>
                    <path d="M24.7758,16.3267 L51.9378,22.2877" id="Stroke-176" stroke="#2F3061" stroke-width="2" stroke-linecap="round" stroke-linejoin="round" mask="url(#mask-40)"></path>
                </g>
                <g id="Group-181">
                    <mask id="mask-42" fill="white">
                        <use xlink:href="#path-41"></use>
                    </mask>
                    <g id="Clip-179"></g>
                    <path d="M22.9506,24.6411 L50.1136,30.6021" id="Fill-178" fill="#2F3061" mask="url(#mask-42)"></path>
                    <path d="M22.9506,24.6411 L50.1136,30.6021" id="Stroke-180" stroke="#2F3061" stroke-width="2" stroke-linecap="round" stroke-linejoin="round" mask="url(#mask-42)"></path>
                </g>
                <g id="Group-185">
                    <mask id="mask-44" fill="white">
                        <use xlink:href="#path-43"></use>
                    </mask>
                    <g id="Clip-183"></g>
                    <path d="M21.1254,32.9556 L64.6494,42.5076" id="Fill-182" fill="#2F3061" mask="url(#mask-44)"></path>
                    <path d="M21.1254,32.9556 L64.6494,42.5076" id="Stroke-184" stroke="#2F3061" stroke-width="2" stroke-linecap="round" stroke-linejoin="round" mask="url(#mask-44)"></path>
                </g>
                <g id="Group-189">
                    <mask id="mask-46" fill="white">
                        <use xlink:href="#path-45"></use>
                    </mask>
                    <g id="Clip-187"></g>
                    <path d="M19.3012,41.27 L62.8242,50.822" id="Fill-186" fill="#2F3061" mask="url(#mask-46)"></path>
                    <path d="M19.3012,41.27 L62.8242,50.822" id="Stroke-188" stroke="#2F3061" stroke-width="2" stroke-linecap="round" stroke-linejoin="round" mask="url(#mask-46)"></path>
                </g>
                <g id="Group-193">
                    <mask id="mask-48" fill="white">
                        <use xlink:href="#path-47"></use>
                    </mask>
                    <g id="Clip-191"></g>
                    <path d="M17.476,49.5845 L61,59.1365" id="Fill-190" fill="#2F3061" mask="url(#mask-48)"></path>
                    <path d="M17.476,49.5845 L61,59.1365" id="Stroke-192" stroke="#2F3061" stroke-width="2" stroke-linecap="round" stroke-linejoin="round" mask="url(#mask-48)"></path>
                </g>
                <g id="Group-197">
                    <mask id="mask-50" fill="white">
                        <use xlink:href="#path-49"></use>
                    </mask>
                    <g id="Clip-195"></g>
                    <path d="M15.6517,57.8985 L59.1747,67.4505" id="Fill-194" fill="#2F3061" mask="url(#mask-50)"></path>
                    <path d="M15.6517,57.8985 L59.1747,67.4505" id="Stroke-196" stroke="#2F3061" stroke-width="2" stroke-linecap="round" stroke-linejoin="round" mask="url(#mask-50)"></path>
                </g>
                <g id="Group-201">
                    <mask id="mask-52" fill="white">
                        <use xlink:href="#path-51"></use>
                    </mask>
                    <g id="Clip-199"></g>
                    <path d="M13.8265,66.2129 L30.5655,69.8869" id="Fill-198" fill="#2F3061" mask="url(#mask-52)"></path>
                    <path d="M13.8265,66.2129 L30.5655,69.8869" id="Stroke-200" stroke="#2F3061" stroke-width="2" stroke-linecap="round" stroke-linejoin="round" mask="url(#mask-52)"></path>
                </g>
            </g>
        </g>
    </g>
</svg>