<?xml version="1.0" encoding="UTF-8"?>
<svg width="143px" height="143px" viewBox="0 0 143 143" version="1.1" xmlns="http://www.w3.org/2000/svg" xmlns:xlink="http://www.w3.org/1999/xlink">
    <!-- Generator: Sketch 50.2 (55047) - http://www.bohemiancoding.com/sketch -->
    <title>Artboard</title>
    <desc>Created with Sketch.</desc>
    <defs>
        <circle id="path-1" cx="71.5" cy="71.5" r="71.5"></circle>
    </defs>
    <g id="Artboard" stroke="none" stroke-width="1" fill="none" fill-rule="evenodd">
        <g id="Group-2">
            <mask id="mask-2" fill="white">
                <use xlink:href="#path-1"></use>
            </mask>
            <use id="Oval-7" fill="#CEEC97" xlink:href="#path-1"></use>
            <g id="Page-1" mask="url(#mask-2)">
                <g transform="translate(20.000000, 27.000000)">
                    <polygon id="Fill-5" stroke="none" fill="#FFD150" fill-rule="evenodd" points="78.4154348 18 75 19.3615632 127.584565 147 131 145.638437"></polygon>
                    <polygon id="Fill-7" stroke="none" fill="#FFC100" fill-rule="evenodd" points="134 143.639848 81.4073054 16 78 17.3601523 130.58984 145"></polygon>
                    <polygon id="Fill-9" stroke="none" fill="#EBAD00" fill-rule="evenodd" points="85.4154348 15 82 16.3615632 134.584565 144 138 142.637026"></polygon>
                    <path d="M85,14.6889251 L84.1837003,13.3561346 L77.5246467,6 C77.0913572,6.38273616 76.5767335,6.71254072 76,6.97855592 L81.4567861,16 L85,14.6889251 Z" id="Fill-11" stroke="none" fill="#DC7C3E" fill-rule="evenodd"></path>
                    <path d="M82,16.6067534 L76.9103448,7 C76.7641379,7.07226383 76.6110345,7.14886349 76.462069,7.21101038 C76.3048276,7.2774931 76.1531034,7.33096834 76,7.38444357 L78.7062069,18 L82,16.6067534 Z" id="Fill-13" stroke="none" fill="#EF9258" fill-rule="evenodd"></path>
                    <path d="M75.9324578,7 C75.2789243,7.18623677 74.6347717,7.280077 74,7.2786333 L74.8098812,17.4249278 L75.2539087,19 L79,17.6039461 L75.9324578,7 Z" id="Fill-15" stroke="none" fill="#F2A679" fill-rule="evenodd"></path>
                    <path d="M78,5.50316857 L75.8914928,3 L74.882183,3.23447402 L74,3.75411914 L74.2414125,7 C74.7627608,7 75.2930979,6.91761724 75.8298555,6.75411914 C75.9711075,6.70849176 76.1123596,6.66159696 76.2600321,6.60329531 C76.3974318,6.54752852 76.5399679,6.48035488 76.6760835,6.41698352 C77.1756019,6.16856781 77.623756,5.86058302 78,5.50316857" id="Fill-17" stroke="none" fill="#2F3061" fill-rule="evenodd"></path>
                    <polygon id="Stroke-19" stroke="#2F3061" stroke-width="2" fill="none" stroke-linecap="round" stroke-linejoin="round" points="138 142.905442 85.2736524 15 75 19.0959716 127.724917 147"></polygon>
                    <polygon id="Stroke-27" stroke="#2F3061" stroke-width="2" fill="none" stroke-linecap="round" stroke-linejoin="round" points="74.7732938 19 73 0 85 14.903819"></polygon>
                    <path d="M68,16 L74,14" id="Stroke-29" stroke="#2F3061" stroke-width="2" fill="none" stroke-linecap="round" stroke-linejoin="round"></path>
                    <path d="M81,50 L85,48" id="Stroke-31" stroke="#2F3061" stroke-width="2" fill="none" stroke-linecap="round" stroke-linejoin="round"></path>
                    <path d="M71,24.6314588 C69.9360453,22.0181365 68.8735074,19.4034032 67.8223032,16.791492 C66.5033394,13.5276613 65.1744586,10.2624196 63.8554948,7 C57.9137826,12.2760324 51.2098765,15.6499274 44.1050395,18.0642872 C36.9902854,20.4659473 29.4944343,21.9235941 22,23.3671301 C24.3815017,29.2456941 26.7615867,35.1228471 29.1445052,41 C36.6375228,39.5550529 44.1319571,38.1101058 51.2481279,35.6971571 C58.352965,33.2827973 65.0568711,29.9089023 71,24.6314588" id="Fill-33" stroke="none" fill="#E2EFF3" fill-rule="evenodd"></path>
                    <path d="M71,24.6314588 C69.9360453,22.0181365 68.8735074,19.4034032 67.8223032,16.791492 C66.5033394,13.5276613 65.1744586,10.2624196 63.8554948,7 C57.9137826,12.2760324 51.2098765,15.6499274 44.1050395,18.0642872 C36.9902854,20.4659473 29.4944343,21.9235941 22,23.3671301 C24.3815017,29.2456941 26.7615867,35.1228471 29.1445052,41 C36.6375228,39.5550529 44.1319571,38.1101058 51.2481279,35.6971571 C58.352965,33.2827973 65.0568711,29.9089023 71,24.6314588 Z" id="Stroke-35" stroke="#2F3061" stroke-width="2" fill="none" stroke-linecap="round" stroke-linejoin="round"></path>
                    <path d="M36.1238297,59.2456351 C38.4993817,65.164704 40.8735206,71.082352 43.2490726,77 C44.6396396,76.7257849 46.0287935,76.4615153 47.4193605,76.1759338 C48.3492316,75.9940709 49.281929,75.8008416 50.2132132,75.6076122 C50.8689278,75.4754775 51.5246423,75.3319763 52.18177,75.1898959 C52.7230171,75.0762316 53.2642643,74.9625673 53.8083377,74.8261701 C54.557322,74.6627777 55.3176117,74.4894396 56.0694224,74.3047351 C56.821233,74.1186098 57.5631514,73.9324845 58.2937644,73.7435176 C58.9409998,73.5772835 59.569864,73.4082079 60.2086204,73.2291866 C61.0098922,73.0061204 61.802685,72.7716878 62.5954778,72.5358343 C62.6081964,72.5258887 62.6195019,72.5273095 62.6195019,72.5273095 C63.518283,72.2502527 64.3944533,71.9703544 65.2748631,71.6677232 C65.2861685,71.669144 65.2875817,71.6577775 65.2988871,71.6606191 C66.1792969,71.3579879 67.0498145,71.0439903 67.911853,70.705839 C70.9798622,69.5350966 73.9560148,68.1498128 76.8275923,66.4675811 C78.263381,65.6264652 79.6751457,64.7171507 81.0459283,63.7098008 C82.3997527,62.7322878 83.7224872,61.6737889 85,60.5186754 C83.5684508,56.9467745 82.1369016,53.3862401 80.7053524,49.8143392 C79.7627628,47.4572256 78.8187599,45.1114785 77.8761703,42.7543649 L70.7509274,25 C64.8325384,30.3152272 58.1354884,33.7109484 51.0498145,36.1419438 C43.9627274,38.5615727 36.475711,40.0264215 29,41.4813246 C31.375552,47.3989726 33.7482777,53.3279871 36.1238297,59.2456351" id="Fill-37" stroke="none" fill="#E2EFF3" fill-rule="evenodd"></path>
                    <path d="M36.1238297,59.2456351 C38.4993817,65.164704 40.8735206,71.082352 43.2490726,77 C44.6396396,76.7257849 46.0287935,76.4615153 47.4193605,76.1759338 C48.3492316,75.9940709 49.281929,75.8008416 50.2132132,75.6076122 C50.8689278,75.4754775 51.5246423,75.3319763 52.18177,75.1898959 C52.7230171,75.0762316 53.2642643,74.9625673 53.8083377,74.8261701 C54.557322,74.6627777 55.3176117,74.4894396 56.0694224,74.3047351 C56.821233,74.1186098 57.5631514,73.9324845 58.2937644,73.7435176 C58.9409998,73.5772835 59.569864,73.4082079 60.2086204,73.2291866 C61.0098922,73.0061204 61.802685,72.7716878 62.5954778,72.5358343 C62.6081964,72.5258887 62.6195019,72.5273095 62.6195019,72.5273095 C63.518283,72.2502527 64.3944533,71.9703544 65.2748631,71.6677232 C65.2861685,71.669144 65.2875817,71.6577775 65.2988871,71.6606191 C66.1792969,71.3579879 67.0498145,71.0439903 67.911853,70.705839 C70.9798622,69.5350966 73.9560148,68.1498128 76.8275923,66.4675811 C78.263381,65.6264652 79.6751457,64.7171507 81.0459283,63.7098008 C82.3997527,62.7322878 83.7224872,61.6737889 85,60.5186754 C83.5684508,56.9467745 82.1369016,53.3862401 80.7053524,49.8143392 C79.7627628,47.4572256 78.8187599,45.1114785 77.8761703,42.7543649 L70.7509274,25 C64.8325384,30.3152272 58.1354884,33.7109484 51.0498145,36.1419438 C43.9627274,38.5615727 36.475711,40.0264215 29,41.4813246 C31.375552,47.3989726 33.7482777,53.3279871 36.1238297,59.2456351 Z" id="Stroke-39" stroke="#2F3061" stroke-width="2" fill="none" stroke-linecap="round" stroke-linejoin="round"></path>
                    <path d="M28.8674037,41 C21.4423249,42.4585318 14.028458,43.9298953 7,46.3579302 C9.35589987,52.2961366 11.7103983,58.2457489 14.0648966,64.1839552 C16.4207965,70.1235873 18.7766964,76.0617937 21.1311948,82 C21.2615331,81.9515248 21.3876669,81.9130299 21.5152022,81.8745349 C22.14447,81.649268 22.7821466,81.4482387 23.4296337,81.2486351 C23.6734924,81.1702194 23.9173512,81.0932295 24.1598085,81.0262197 C25.8247752,80.5101019 27.5051583,80.0524394 29.1939502,79.6190145 C29.9759801,79.4151337 30.7566084,79.2226588 31.5442442,79.0430156 C31.8189356,78.9817088 32.0936271,78.9189762 32.3683186,78.8576694 C32.9975863,78.712244 33.6268541,78.563967 34.2561218,78.4285218 C37.1557987,77.7983448 40.0722934,77.2137914 42.9985985,76.6420698 L43,76.6306638 C40.6455016,70.6810516 38.2896017,64.7542511 35.9337019,58.8160448 C33.577802,52.8778384 31.2233036,46.9382063 28.8674037,41" id="Fill-41" stroke="none" fill="#E2EFF3" fill-rule="evenodd"></path>
                    <path d="M28.8674037,41 C21.4423249,42.4585318 14.028458,43.9298953 7,46.3579302 C9.35589987,52.2961366 11.7103983,58.2457489 14.0648966,64.1839552 C16.4207965,70.1235873 18.7766964,76.0617937 21.1311948,82 C21.2615331,81.9515248 21.3876669,81.9130299 21.5152022,81.8745349 C22.14447,81.649268 22.7821466,81.4482387 23.4296337,81.2486351 C23.6734924,81.1702194 23.9173512,81.0932295 24.1598085,81.0262197 C25.8247752,80.5101019 27.5051583,80.0524394 29.1939502,79.6190145 C29.9759801,79.4151337 30.7566084,79.2226588 31.5442442,79.0430156 C31.8189356,78.9817088 32.0936271,78.9189762 32.3683186,78.8576694 C32.9975863,78.712244 33.6268541,78.563967 34.2561218,78.4285218 C37.1557987,77.7983448 40.0722934,77.2137914 42.9985985,76.6420698 L43,76.6306638 C40.6455016,70.6810516 38.2896017,64.7542511 35.9337019,58.8160448 C33.577802,52.8778384 31.2233036,46.9382063 28.8674037,41 Z" id="Stroke-43" stroke="#2F3061" stroke-width="2" fill="none" stroke-linecap="round" stroke-linejoin="round"></path>
                    <path d="M44,18.1871805 C46.3896699,24.1243118 48.7779182,30.0628687 51.1675881,36 C58.2982151,33.5610008 65.0236929,30.152674 70.9872058,24.8213724 L71,24.811394 C69.9323961,22.1714019 68.8775865,19.5314098 67.8114042,16.8914176 C66.4879166,13.5942784 65.154478,10.2957137 63.8324119,7 L63.8181962,7.00997837 C57.8561049,12.3398545 51.1306271,15.7481813 44,18.1871805" id="Fill-45" stroke="none" fill="#2F3061" fill-rule="evenodd"></path>
                    <path d="M22,23.3177064 C24.3612981,29.2113326 26.7211916,35.1063738 29.0838944,41 C36.5133446,39.5510028 43.9441996,38.1005906 51,35.6808786 C48.6387019,29.7872524 46.2774037,23.8936262 43.9175103,18 C36.8631146,20.4083918 29.4308549,21.8687092 22,23.3177064" id="Fill-47" stroke="none" fill="#E2EFF3" fill-rule="evenodd"></path>
                    <path d="M22,23.3177064 C24.3612981,29.2113326 26.7211916,35.1063738 29.0838944,41 C36.5133446,39.5510028 43.9441996,38.1005906 51,35.6808786 C48.6387019,29.7872524 46.2774037,23.8936262 43.9175103,18 C36.8631146,20.4083918 29.4308549,21.8687092 22,23.3177064 Z" id="Stroke-49" stroke="#2F3061" stroke-width="2" fill="none" stroke-linecap="round" stroke-linejoin="round"></path>
                    <path d="M0,28.3165047 C2.36129814,34.2072316 4.72119157,40.0993728 7.08108501,46 C14.1256479,43.580064 21.5579075,42.1204649 29,40.6735949 C26.6387019,34.782868 24.275999,28.8921412 21.904868,23 C14.4754178,24.4482843 7.04456285,25.8965687 0,28.3165047" id="Fill-51" stroke="none" fill="#2F3061" fill-rule="evenodd"></path>
                    <path d="M0,28.3165047 C2.36129814,34.2072316 4.72119157,40.0993728 7.08108501,46 C14.1256479,43.580064 21.5579075,42.1204649 29,40.6735949 C26.6387019,34.782868 24.275999,28.8921412 21.904868,23 C14.4754178,24.4482843 7.04456285,25.8965687 0,28.3165047 Z" id="Stroke-53" stroke="#2F3061" stroke-width="2" fill="none" stroke-linecap="round" stroke-linejoin="round"></path>
                    <path d="M52,36.1871805 C54.3897957,42.1243118 56.7781698,48.0628687 59.1679655,54 C66.298968,51.5610008 73.0361731,48.1540995 78.9872051,42.8213724 L79,42.811394 C76.6116259,36.8742627 74.2218302,30.9371313 71.8320345,25 L71.8192397,25.0099784 C65.866786,30.34128 59.1295809,33.7481813 52,36.1871805" id="Fill-55" stroke="none" fill="#E2EFF3" fill-rule="evenodd"></path>
                    <path d="M52,36.1871805 C54.3897957,42.1243118 56.7781698,48.0628687 59.1679655,54 C66.298968,51.5610008 73.0361731,48.1540995 78.9872051,42.8213724 L79,42.811394 C76.6116259,36.8742627 74.2218302,30.9371313 71.8320345,25 L71.8192397,25.0099784 C65.866786,30.34128 59.1295809,33.7481813 52,36.1871805 Z" id="Stroke-57" stroke="#2F3061" stroke-width="2" fill="none" stroke-linecap="round" stroke-linejoin="round"></path>
                    <path d="M29,41.3154173 C31.3612981,47.2065064 33.7197869,53.1089109 36.081085,59 C43.5245822,57.54314 50.9540325,56.0933522 58,53.6732673 C55.6387019,47.7821782 53.2774037,41.8910891 50.9175103,36 C43.8729474,38.4087694 36.4308549,39.8670438 29,41.3154173" id="Fill-59" stroke="none" fill="#2F3061" fill-rule="evenodd"></path>
                    <path d="M7,46.3154173 C9.36129814,52.2065064 11.7197869,58.1089109 14.081085,64 C21.1270526,61.5799151 28.5677404,60.1343706 36,58.6732673 C33.6387019,52.7821782 31.2774037,46.8910891 28.9175103,41 C21.4754178,42.446959 14.0445628,43.9066478 7,46.3154173" id="Fill-61" stroke="none" fill="#E2EFF3" fill-rule="evenodd"></path>
                    <path d="M7,46.3154173 C9.36129814,52.2065064 11.7197869,58.1089109 14.081085,64 C21.1270526,61.5799151 28.5677404,60.1343706 36,58.6732673 C33.6387019,52.7821782 31.2774037,46.8910891 28.9175103,41 C21.4754178,42.446959 14.0445628,43.9066478 7,46.3154173 Z" id="Stroke-63" stroke="#2F3061" stroke-width="2" fill="none" stroke-linecap="round" stroke-linejoin="round"></path>
                    <path d="M66.1664561,71 C73.2987997,68.5656362 80.0402716,65.1592372 86,59.814469 C83.6107075,53.8767877 81.221415,47.9376812 78.8321226,42 C72.8723942,47.3447683 66.1323437,50.749742 59,53.185531 C61.3892925,59.1246375 63.7771636,65.0623188 66.1664561,71" id="Fill-65" stroke="none" fill="#2F3061" fill-rule="evenodd"></path>
                    <path d="M37,59.3264051 C39.3612981,65.2185463 41.7211916,71.1092732 44.0824897,77 C45.464713,76.7270323 46.8455316,76.4639651 48.2277549,76.1796827 C49.1520465,75.9986472 50.0791475,75.8062969 51.0048438,75.6139466 C51.6566239,75.482413 52.308404,75.3395646 52.9615888,75.1981306 C53.4995883,75.0849834 54.0375878,74.9718362 54.5783967,74.8360595 C55.3228869,74.6734104 56.0786147,74.5008609 56.8259143,74.3169967 C57.5732139,74.1317181 58.3106806,73.9464396 59.0369097,73.7583323 C59.6802616,73.5928545 60.3053524,73.424548 60.9402761,73.2463412 C61.7367401,73.0242898 62.524776,72.7909236 63.3128118,72.5561432 C63.3254541,72.5462428 63.3366917,72.5476571 63.3366917,72.5476571 C64.2300799,72.2718608 65.100993,71.9932358 65.9761201,71.6919813 C65.9873577,71.6933956 65.9887624,71.6820809 66,71.6849096 C63.6401066,65.7814537 61.2788084,59.8907268 58.918915,54 C51.8729474,56.419936 44.4434972,57.8696347 37,59.3264051" id="Fill-67" stroke="none" fill="#E2EFF3" fill-rule="evenodd"></path>
                    <path d="M37,59.3264051 C39.3612981,65.2185463 41.7211916,71.1092732 44.0824897,77 C45.464713,76.7270323 46.8455316,76.4639651 48.2277549,76.1796827 C49.1520465,75.9986472 50.0791475,75.8062969 51.0048438,75.6139466 C51.6566239,75.482413 52.308404,75.3395646 52.9615888,75.1981306 C53.4995883,75.0849834 54.0375878,74.9718362 54.5783967,74.8360595 C55.3228869,74.6734104 56.0786147,74.5008609 56.8259143,74.3169967 C57.5732139,74.1317181 58.3106806,73.9464396 59.0369097,73.7583323 C59.6802616,73.5928545 60.3053524,73.424548 60.9402761,73.2463412 C61.7367401,73.0242898 62.524776,72.7909236 63.3128118,72.5561432 C63.3254541,72.5462428 63.3366917,72.5476571 63.3366917,72.5476571 C64.2300799,72.2718608 65.100993,71.9932358 65.9761201,71.6919813 C65.9873577,71.6933956 65.9887624,71.6820809 66,71.6849096 C63.6401066,65.7814537 61.2788084,59.8907268 58.918915,54 C51.8729474,56.419936 44.4434972,57.8696347 37,59.3264051 Z" id="Stroke-69" stroke="#2F3061" stroke-width="2" fill="none" stroke-linecap="round" stroke-linejoin="round"></path>
                    <path d="M21.0821467,82 C21.2127773,81.9519124 21.339194,81.9123109 21.4656108,81.8755381 C22.0976945,81.6520723 22.7368013,81.451236 23.3857406,81.2546427 C23.6287416,81.176854 23.8731473,81.0990653 24.1161484,81.0325913 C25.786254,80.5220145 27.4704059,80.0680113 29.1629856,79.6380519 C29.9467693,79.4358013 30.7277439,79.2448653 31.5185508,79.0666585 C31.7938584,79.0058418 32.0677613,78.9436109 32.3444735,78.8827942 C32.9751526,78.7371172 33.6058316,78.5914402 34.2351061,78.4570779 C37.1426911,77.8319395 40.065727,77.25206 42.9985954,76.6834953 L43,76.6721805 C40.6402209,70.7715533 38.2776325,64.8907268 35.9178533,59 C28.4859537,60.4610134 21.0456263,61.9064691 14,64.3264051 C16.3611838,70.2185463 18.7209629,76.1092732 21.0821467,82" id="Fill-71" stroke="none" fill="#2F3061" fill-rule="evenodd"></path>
                    <path d="M17,89 L20.7954023,87.6453551 C20.9263273,87.5927912 21.0558292,87.552242 21.183908,87.5131946 C21.8243021,87.2759065 22.4703886,87.0626475 23.129283,86.8523922 C23.3754789,86.7712937 23.6216749,86.6886934 23.8678708,86.6181077 C25.5613574,86.0744475 27.2676519,85.5923622 28.9810619,85.1358078 C29.7751505,84.921047 30.566393,84.7183008 31.3690203,84.529071 C31.6465244,84.4644926 31.9254516,84.3999142 32.2043788,84.3338339 C32.8433498,84.1791461 33.4823207,84.0244583 34.1198686,83.8832868 C37.0671045,83.2164772 40.0285714,82.6022313 43,82" id="Stroke-73" stroke="#2F3061" stroke-width="2" fill="none" stroke-linecap="round"></path>
                    <path d="M40,14 C47.191285,11.6060143 53.989823,8.25611621 60,3" id="Stroke-75" stroke="#2F3061" stroke-width="2" fill="none" stroke-linecap="round"></path>
                    <path d="M104,48 L100,37" id="Stroke-79" stroke="#2F3061" stroke-width="2" fill="none" stroke-linecap="round" stroke-linejoin="round"></path>
                </g>
            </g>
        </g>
    </g>
</svg>