<?xml version="1.0" encoding="UTF-8"?>
<svg width="114px" height="116px" viewBox="0 0 114 116" version="1.1" xmlns="http://www.w3.org/2000/svg" xmlns:xlink="http://www.w3.org/1999/xlink">
    <!-- Generator: Sketch 50.2 (55047) - http://www.bohemiancoding.com/sketch -->
    <title>Artboard</title>
    <desc>Created with Sketch.</desc>
    <defs>
        <polygon id="path-1" points="0 0.0853 113.9998 0.0853 113.9998 114.0853 0 114.0853"></polygon>
        <path d="M57,0.085 C25.52,0.085 0,25.605 0,57.085 C0,88.565 25.52,114.085 57,114.085 C88.48,114.085 113.999,88.565 113.999,57.085 C113.999,25.605 88.48,0.085 57,0.085 Z" id="path-3"></path>
        <path d="M57,0.085 C25.52,0.085 0,25.605 0,57.085 C0,88.565 25.52,114.085 57,114.085 C88.48,114.085 113.999,88.565 113.999,57.085 C113.999,25.605 88.48,0.085 57,0.085 Z" id="path-5"></path>
        <path d="M57,0.085 C25.52,0.085 0,25.605 0,57.085 C0,88.565 25.52,114.085 57,114.085 C88.48,114.085 113.999,88.565 113.999,57.085" id="path-7"></path>
        <path d="M57,0.085 C25.52,0.085 0,25.605 0,57.085 C0,88.565 25.52,114.085 57,114.085 C88.48,114.085 113.999,88.565 113.999,57.085 C113.999,25.605 88.48,0.085 57,0.085 Z" id="path-9"></path>
        <path d="M57,0.085 C25.52,0.085 0,25.605 0,57.085 C0,88.565 25.52,114.085 57,114.085 C88.48,114.085 113.999,88.565 113.999,57.085" id="path-11"></path>
        <path d="M57,0.085 C25.52,0.085 0,25.605 0,57.085 C0,88.565 25.52,114.085 57,114.085 C88.48,114.085 113.999,88.565 113.999,57.085 C113.999,25.605 88.48,0.085 57,0.085 Z" id="path-13"></path>
        <path d="M57,0.085 C25.52,0.085 0,25.605 0,57.085 C0,88.565 25.52,114.085 57,114.085 C88.48,114.085 113.999,88.565 113.999,57.085" id="path-15"></path>
        <path d="M57,0.085 C25.52,0.085 0,25.605 0,57.085 C0,88.565 25.52,114.085 57,114.085 C88.48,114.085 113.999,88.565 113.999,57.085" id="path-17"></path>
        <path d="M57,0.085 C25.52,0.085 0,25.605 0,57.085 C0,88.565 25.52,114.085 57,114.085 C88.48,114.085 113.999,88.565 113.999,57.085" id="path-19"></path>
        <path d="M57,0.085 C25.52,0.085 0,25.605 0,57.085 C0,88.565 25.52,114.085 57,114.085 C88.48,114.085 113.999,88.565 113.999,57.085" id="path-21"></path>
        <path d="M57,0.085 C25.52,0.085 0,25.605 0,57.085 C0,88.565 25.52,114.085 57,114.085 C88.48,114.085 113.999,88.565 113.999,57.085" id="path-23"></path>
        <path d="M57,0.085 C25.52,0.085 0,25.605 0,57.085 C0,88.565 25.52,114.085 57,114.085 C88.48,114.085 113.999,88.565 113.999,57.085" id="path-25"></path>
        <path d="M57,0.085 C25.52,0.085 0,25.605 0,57.085 C0,88.565 25.52,114.085 57,114.085 C88.48,114.085 113.999,88.565 113.999,57.085" id="path-27"></path>
        <path d="M57,0.085 C25.52,0.085 0,25.605 0,57.085 C0,88.565 25.52,114.085 57,114.085 C88.48,114.085 113.999,88.565 113.999,57.085" id="path-29"></path>
        <path d="M57,0.085 C25.52,0.085 0,25.605 0,57.085 C0,88.565 25.52,114.085 57,114.085 C88.48,114.085 113.999,88.565 113.999,57.085" id="path-31"></path>
        <path d="M57,0.085 C25.52,0.085 0,25.605 0,57.085 C0,88.565 25.52,114.085 57,114.085 C88.48,114.085 113.999,88.565 113.999,57.085" id="path-33"></path>
        <path d="M57,0.085 C25.52,0.085 0,25.605 0,57.085 C0,88.565 25.52,114.085 57,114.085 C88.48,114.085 113.999,88.565 113.999,57.085" id="path-35"></path>
        <path d="M57,0.085 C25.52,0.085 0,25.605 0,57.085 C0,88.565 25.52,114.085 57,114.085 C88.48,114.085 113.999,88.565 113.999,57.085" id="path-37"></path>
        <path d="M57,0.085 C25.52,0.085 0,25.605 0,57.085 C0,88.565 25.52,114.085 57,114.085 C88.48,114.085 113.999,88.565 113.999,57.085" id="path-39"></path>
        <path d="M57,0.085 C25.52,0.085 0,25.605 0,57.085 C0,88.565 25.52,114.085 57,114.085 C88.48,114.085 113.999,88.565 113.999,57.085" id="path-41"></path>
        <path d="M57,0.085 C25.52,0.085 0,25.605 0,57.085 C0,88.565 25.52,114.085 57,114.085 C88.48,114.085 113.999,88.565 113.999,57.085" id="path-43"></path>
        <path d="M57,0.085 C25.52,0.085 0,25.605 0,57.085 C0,88.565 25.52,114.085 57,114.085 C88.48,114.085 113.999,88.565 113.999,57.085" id="path-45"></path>
        <path d="M57,0.085 C25.52,0.085 0,25.605 0,57.085 C0,88.565 25.52,114.085 57,114.085 C88.48,114.085 113.999,88.565 113.999,57.085" id="path-47"></path>
        <path d="M57,0.085 C25.52,0.085 0,25.605 0,57.085 C0,88.565 25.52,114.085 57,114.085 C88.48,114.085 113.999,88.565 113.999,57.085" id="path-49"></path>
        <path d="M57,0.085 C25.52,0.085 0,25.605 0,57.085 C0,88.565 25.52,114.085 57,114.085 C88.48,114.085 113.999,88.565 113.999,57.085" id="path-51"></path>
        <path d="M57,0.085 C25.52,0.085 0,25.605 0,57.085 C0,88.565 25.52,114.085 57,114.085 C88.48,114.085 113.999,88.565 113.999,57.085" id="path-53"></path>
        <path d="M57,0.085 C25.52,0.085 0,25.605 0,57.085 C0,88.565 25.52,114.085 57,114.085 C88.48,114.085 113.999,88.565 113.999,57.085" id="path-55"></path>
        <path d="M57,0.085 C25.52,0.085 0,25.605 0,57.085 C0,88.565 25.52,114.085 57,114.085 C88.48,114.085 113.999,88.565 113.999,57.085" id="path-57"></path>
        <path d="M57,0.085 C25.52,0.085 0,25.605 0,57.085 C0,88.565 25.52,114.085 57,114.085 C88.48,114.085 113.999,88.565 113.999,57.085" id="path-59"></path>
        <path d="M57,0.085 C25.52,0.085 0,25.605 0,57.085 C0,88.565 25.52,114.085 57,114.085 C88.48,114.085 113.999,88.565 113.999,57.085" id="path-61"></path>
        <path d="M57,0.085 C25.52,0.085 0,25.605 0,57.085 C0,88.565 25.52,114.085 57,114.085 C88.48,114.085 113.999,88.565 113.999,57.085" id="path-63"></path>
        <path d="M57,0.085 C25.52,0.085 0,25.605 0,57.085 C0,88.565 25.52,114.085 57,114.085 C88.48,114.085 113.999,88.565 113.999,57.085" id="path-65"></path>
        <path d="M57,0.085 C25.52,0.085 0,25.605 0,57.085 C0,88.565 25.52,114.085 57,114.085 C88.48,114.085 113.999,88.565 113.999,57.085" id="path-67"></path>
        <path d="M57,0.085 C25.52,0.085 0,25.605 0,57.085 C0,88.565 25.52,114.085 57,114.085 C88.48,114.085 113.999,88.565 113.999,57.085" id="path-69"></path>
        <path d="M57,0.085 C25.52,0.085 0,25.605 0,57.085 C0,88.565 25.52,114.085 57,114.085 C88.48,114.085 113.999,88.565 113.999,57.085" id="path-71"></path>
        <path d="M57,0.085 C25.52,0.085 0,25.605 0,57.085 C0,88.565 25.52,114.085 57,114.085 C88.48,114.085 113.999,88.565 113.999,57.085" id="path-73"></path>
        <path d="M57,0.085 C25.52,0.085 0,25.605 0,57.085 C0,88.565 25.52,114.085 57,114.085 C88.48,114.085 113.999,88.565 113.999,57.085" id="path-75"></path>
        <path d="M57,0.085 C25.52,0.085 0,25.605 0,57.085 C0,88.565 25.52,114.085 57,114.085 C88.48,114.085 113.999,88.565 113.999,57.085" id="path-77"></path>
        <path d="M57,0.085 C25.52,0.085 0,25.605 0,57.085 C0,88.565 25.52,114.085 57,114.085 C88.48,114.085 113.999,88.565 113.999,57.085" id="path-79"></path>
        <path d="M57,0.085 C25.52,0.085 0,25.605 0,57.085 C0,88.565 25.52,114.085 57,114.085 C88.48,114.085 113.999,88.565 113.999,57.085" id="path-81"></path>
        <path d="M57,0.085 C25.52,0.085 0,25.605 0,57.085 C0,88.565 25.52,114.085 57,114.085 C88.48,114.085 113.999,88.565 113.999,57.085" id="path-83"></path>
        <path d="M57,0.085 C25.52,0.085 0,25.605 0,57.085 C0,88.565 25.52,114.085 57,114.085 C88.48,114.085 113.999,88.565 113.999,57.085" id="path-85"></path>
        <path d="M57,0.085 C25.52,0.085 0,25.605 0,57.085 C0,88.565 25.52,114.085 57,114.085 C88.48,114.085 113.999,88.565 113.999,57.085" id="path-87"></path>
        <path d="M57,0.085 C25.52,0.085 0,25.605 0,57.085 C0,88.565 25.52,114.085 57,114.085 C88.48,114.085 113.999,88.565 113.999,57.085" id="path-89"></path>
        <path d="M57,0.085 C25.52,0.085 0,25.605 0,57.085 C0,88.565 25.52,114.085 57,114.085 C88.48,114.085 113.999,88.565 113.999,57.085" id="path-91"></path>
        <path d="M57,0.085 C25.52,0.085 0,25.605 0,57.085 C0,88.565 25.52,114.085 57,114.085 C88.48,114.085 113.999,88.565 113.999,57.085" id="path-93"></path>
        <path d="M57,0.085 C25.52,0.085 0,25.605 0,57.085 C0,88.565 25.52,114.085 57,114.085 C88.48,114.085 113.999,88.565 113.999,57.085" id="path-95"></path>
        <path d="M57,0.085 C25.52,0.085 0,25.605 0,57.085 C0,88.565 25.52,114.085 57,114.085 C88.48,114.085 113.999,88.565 113.999,57.085" id="path-97"></path>
        <path d="M57,0.085 C25.52,0.085 0,25.605 0,57.085 C0,88.565 25.52,114.085 57,114.085 C88.48,114.085 113.999,88.565 113.999,57.085" id="path-99"></path>
        <path d="M57,0.085 C25.52,0.085 0,25.605 0,57.085 C0,88.565 25.52,114.085 57,114.085 C88.48,114.085 113.999,88.565 113.999,57.085" id="path-101"></path>
        <path d="M57,0.085 C25.52,0.085 0,25.605 0,57.085 C0,88.565 25.52,114.085 57,114.085 C88.48,114.085 113.999,88.565 113.999,57.085" id="path-103"></path>
        <path d="M57,0.085 C25.52,0.085 0,25.605 0,57.085 C0,88.565 25.52,114.085 57,114.085 C88.48,114.085 113.999,88.565 113.999,57.085" id="path-105"></path>
        <path d="M57,0.085 C25.52,0.085 0,25.605 0,57.085 C0,88.565 25.52,114.085 57,114.085 C88.48,114.085 113.999,88.565 113.999,57.085" id="path-107"></path>
        <path d="M57,0.085 C25.52,0.085 0,25.605 0,57.085 C0,88.565 25.52,114.085 57,114.085 C88.48,114.085 113.999,88.565 113.999,57.085" id="path-109"></path>
        <path d="M57,0.085 C25.52,0.085 0,25.605 0,57.085 C0,88.565 25.52,114.085 57,114.085 C88.48,114.085 113.999,88.565 113.999,57.085" id="path-111"></path>
        <path d="M57,0.085 C25.52,0.085 0,25.605 0,57.085 C0,88.565 25.52,114.085 57,114.085 C88.48,114.085 113.999,88.565 113.999,57.085" id="path-113"></path>
        <path d="M57,0.085 C25.52,0.085 0,25.605 0,57.085 C0,88.565 25.52,114.085 57,114.085 C88.48,114.085 113.999,88.565 113.999,57.085" id="path-115"></path>
        <path d="M57,0.085 C25.52,0.085 0,25.605 0,57.085 C0,88.565 25.52,114.085 57,114.085 C88.48,114.085 113.999,88.565 113.999,57.085" id="path-117"></path>
        <path d="M57,0.085 C25.52,0.085 0,25.605 0,57.085 C0,88.565 25.52,114.085 57,114.085 C88.48,114.085 113.999,88.565 113.999,57.085" id="path-119"></path>
        <path d="M57,0.085 C25.52,0.085 0,25.605 0,57.085 C0,88.565 25.52,114.085 57,114.085 C88.48,114.085 113.999,88.565 113.999,57.085" id="path-121"></path>
        <path d="M57,0.085 C25.52,0.085 0,25.605 0,57.085 C0,88.565 25.52,114.085 57,114.085 C88.48,114.085 113.999,88.565 113.999,57.085" id="path-123"></path>
        <path d="M57,0.085 C25.52,0.085 0,25.605 0,57.085 C0,88.565 25.52,114.085 57,114.085 C88.48,114.085 113.999,88.565 113.999,57.085" id="path-125"></path>
        <path d="M57,0.085 C25.52,0.085 0,25.605 0,57.085 C0,88.565 25.52,114.085 57,114.085 C88.48,114.085 113.999,88.565 113.999,57.085" id="path-127"></path>
        <path d="M57,0.085 C25.52,0.085 0,25.605 0,57.085 C0,88.565 25.52,114.085 57,114.085 C88.48,114.085 113.999,88.565 113.999,57.085" id="path-129"></path>
        <path d="M57,0.085 C25.52,0.085 0,25.605 0,57.085 C0,88.565 25.52,114.085 57,114.085 C88.48,114.085 113.999,88.565 113.999,57.085" id="path-131"></path>
        <path d="M57,0.085 C25.52,0.085 0,25.605 0,57.085 C0,88.565 25.52,114.085 57,114.085 C88.48,114.085 113.999,88.565 113.999,57.085" id="path-133"></path>
        <path d="M57,0.085 C25.52,0.085 0,25.605 0,57.085 C0,88.565 25.52,114.085 57,114.085 C88.48,114.085 113.999,88.565 113.999,57.085" id="path-135"></path>
        <path d="M57,0.085 C25.52,0.085 0,25.605 0,57.085 C0,88.565 25.52,114.085 57,114.085 C88.48,114.085 113.999,88.565 113.999,57.085" id="path-137"></path>
        <path d="M57,0.085 C25.52,0.085 0,25.605 0,57.085 C0,88.565 25.52,114.085 57,114.085 C88.48,114.085 113.999,88.565 113.999,57.085" id="path-139"></path>
        <path d="M57,0.085 C25.52,0.085 0,25.605 0,57.085 C0,88.565 25.52,114.085 57,114.085 C88.48,114.085 113.999,88.565 113.999,57.085" id="path-141"></path>
        <path d="M57,0.085 C25.52,0.085 0,25.605 0,57.085 C0,88.565 25.52,114.085 57,114.085 C88.48,114.085 113.999,88.565 113.999,57.085" id="path-143"></path>
        <path d="M57,0.085 C25.52,0.085 0,25.605 0,57.085 C0,88.565 25.52,114.085 57,114.085 C88.48,114.085 113.999,88.565 113.999,57.085" id="path-145"></path>
    </defs>
    <g id="Artboard" stroke="none" stroke-width="1" fill="none" fill-rule="evenodd">
        <g id="Page-1">
            <g id="Group-3" transform="translate(0.000000, 0.915000)">
                <mask id="mask-2" fill="white">
                    <use xlink:href="#path-1"></use>
                </mask>
                <g id="Clip-2"></g>
                <path d="M113.9998,57.0853 C113.9998,88.5653 88.4798,114.0853 56.9998,114.0853 C25.5198,114.0853 -0.0002,88.5653 -0.0002,57.0853 C-0.0002,25.6053 25.5198,0.0853 56.9998,0.0853 C88.4798,0.0853 113.9998,25.6053 113.9998,57.0853" id="Fill-1" fill="#DFE4E6" mask="url(#mask-2)"></path>
            </g>
            <g id="Group-220" transform="translate(0.000000, 0.915000)">
                <g id="Group-6">
                    <mask id="mask-4" fill="white">
                        <use xlink:href="#path-3"></use>
                    </mask>
                    <g id="Clip-5"></g>
                    <path d="M103.2312,111.8749 C103.4252,114.1189 101.7792,115.9389 99.5452,115.9389 L27.0242,115.9389 C24.7932,115.9389 22.8202,114.1189 22.6142,111.8749 L16.1872,43.3309 L15.5262,36.2869 C15.3102,34.0429 16.9572,32.2229 19.2002,32.2229 L92.3292,32.2229 C94.5722,32.2229 96.5442,34.0429 96.7392,36.2869 L97.3462,43.3309 L103.2312,111.8749 Z" id="Fill-4" fill="#75ABBC" mask="url(#mask-4)"></path>
                </g>
                <g id="Group-9">
                    <mask id="mask-6" fill="white">
                        <use xlink:href="#path-5"></use>
                    </mask>
                    <g id="Clip-8"></g>
                    <path d="M103.2312,111.8749 C103.4252,114.1189 101.7792,115.9389 99.5452,115.9389 L27.0242,115.9389 C24.7932,115.9389 22.8202,114.1189 22.6142,111.8749 L16.1872,43.3309 L15.5262,36.2869 C15.3102,34.0429 16.9572,32.2229 19.2002,32.2229 L92.3292,32.2229 C94.5722,32.2229 96.5442,34.0429 96.7392,36.2869 L97.3462,43.3309 L103.2312,111.8749 Z" id="Stroke-7" stroke="#2F3061" stroke-width="2" mask="url(#mask-6)"></path>
                </g>
                <g id="Group-12">
                    <mask id="mask-8" fill="white">
                        <use xlink:href="#path-7"></use>
                    </mask>
                    <g id="Clip-11"></g>
                    <path d="M91.9422,32.2836 L18.8162,32.2836 C16.5722,32.2836 14.5972,34.1026 14.4042,36.3456 L13.7992,43.3916 L94.9632,43.3916 L95.6242,36.3456 C95.8342,34.1026 94.1852,32.2836 91.9422,32.2836" id="Fill-10" fill="#75ABBC" mask="url(#mask-8)"></path>
                </g>
                <g id="Group-15">
                    <mask id="mask-10" fill="white">
                        <use xlink:href="#path-9"></use>
                    </mask>
                    <g id="Clip-14"></g>
                    <path d="M91.9422,32.2836 L18.8162,32.2836 C16.5722,32.2836 14.5972,34.1026 14.4042,36.3456 L13.7992,43.3916 L94.9632,43.3916 L95.6242,36.3456 C95.8342,34.1026 94.1852,32.2836 91.9422,32.2836 Z" id="Stroke-13" stroke="#2F3061" stroke-width="2" mask="url(#mask-10)"></path>
                </g>
                <g id="Group-18">
                    <mask id="mask-12" fill="white">
                        <use xlink:href="#path-11"></use>
                    </mask>
                    <g id="Clip-17"></g>
                    <path d="M84.1238,115.9999 L11.5938,115.9999 C9.3678,115.9999 7.7208,114.1809 7.9128,111.9379 L13.7998,43.3919 L94.9628,43.3919 L88.5338,111.9379 C88.3238,114.1809 86.3498,115.9999 84.1238,115.9999" id="Fill-16" fill="#E2EFF3" mask="url(#mask-12)"></path>
                </g>
                <g id="Group-21">
                    <mask id="mask-14" fill="white">
                        <use xlink:href="#path-13"></use>
                    </mask>
                    <g id="Clip-20"></g>
                    <path d="M84.1238,115.9999 L11.5938,115.9999 C9.3678,115.9999 7.7208,114.1809 7.9128,111.9379 L13.7998,43.3919 L94.9628,43.3919 L88.5338,111.9379 C88.3238,114.1809 86.3498,115.9999 84.1238,115.9999 Z" id="Stroke-19" stroke="#2F3061" stroke-width="2" stroke-linecap="round" stroke-linejoin="round" mask="url(#mask-14)"></path>
                </g>
                <g id="Group-24">
                    <mask id="mask-16" fill="white">
                        <use xlink:href="#path-15"></use>
                    </mask>
                    <g id="Clip-23"></g>
                    <path d="M54.157,59.8553 L51.647,59.8553 C50.791,59.8553 50.159,59.1593 50.235,58.3003 L50.461,55.7833 C50.538,54.9243 51.295,54.2293 52.151,54.2293 L54.664,54.2293 C55.52,54.2293 56.152,54.9243 56.075,55.7833 L55.848,58.3003 C55.77,59.1593 55.013,59.8553 54.157,59.8553" id="Fill-22" fill="#75ABBC" mask="url(#mask-16)"></path>
                </g>
                <g id="Group-27">
                    <mask id="mask-18" fill="white">
                        <use xlink:href="#path-17"></use>
                    </mask>
                    <g id="Clip-26"></g>
                    <path d="M64.199,59.8553 L61.688,59.8553 C60.832,59.8553 60.201,59.1593 60.278,58.3003 L60.507,55.7833 C60.584,54.9243 61.342,54.2293 62.199,54.2293 L64.711,54.2293 C65.567,54.2293 66.198,54.9243 66.12,55.7833 L65.891,58.3003 C65.812,59.1593 65.055,59.8553 64.199,59.8553" id="Fill-25" fill="#75ABBC" mask="url(#mask-18)"></path>
                </g>
                <g id="Group-30">
                    <mask id="mask-20" fill="white">
                        <use xlink:href="#path-19"></use>
                    </mask>
                    <g id="Clip-29"></g>
                    <path d="M74.24,59.8553 L71.729,59.8553 C70.874,59.8553 70.243,59.1593 70.321,58.3003 L70.552,55.7833 C70.631,54.9243 71.388,54.2293 72.246,54.2293 L74.758,54.2293 C75.614,54.2293 76.245,54.9243 76.166,55.7833 L75.934,58.3003 C75.855,59.1593 75.096,59.8553 74.24,59.8553" id="Fill-28" fill="#75ABBC" mask="url(#mask-20)"></path>
                </g>
                <g id="Group-33">
                    <mask id="mask-22" fill="white">
                        <use xlink:href="#path-21"></use>
                    </mask>
                    <g id="Clip-32"></g>
                    <path d="M84.282,59.8553 L81.771,59.8553 C80.915,59.8553 80.285,59.1593 80.364,58.3003 L80.597,55.7833 C80.677,54.9243 81.435,54.2293 82.293,54.2293 L84.804,54.2293 C85.661,54.2293 86.291,54.9243 86.211,55.7833 L85.977,58.3003 C85.897,59.1593 85.138,59.8553 84.282,59.8553" id="Fill-31" fill="#75ABBC" mask="url(#mask-22)"></path>
                </g>
                <g id="Group-36">
                    <mask id="mask-24" fill="white">
                        <use xlink:href="#path-23"></use>
                    </mask>
                    <g id="Clip-35"></g>
                    <path d="M23.0476,71.1825 L20.5396,71.1825 C19.6846,71.1825 19.0516,70.4865 19.1256,69.6275 L19.3436,67.1105 C19.4176,66.2515 20.1726,65.5555 21.0276,65.5555 L23.5366,65.5555 C24.3936,65.5555 25.0266,66.2515 24.9506,67.1105 L24.7326,69.6275 C24.6566,70.4865 23.9026,71.1825 23.0476,71.1825" id="Fill-34" fill="#75ABBC" mask="url(#mask-24)"></path>
                </g>
                <g id="Group-39">
                    <mask id="mask-26" fill="white">
                        <use xlink:href="#path-25"></use>
                    </mask>
                    <g id="Clip-38"></g>
                    <path d="M33.0779,71.1825 L30.5699,71.1825 C29.7149,71.1825 29.0819,70.4865 29.1579,69.6275 L29.3779,67.1105 C29.4529,66.2515 30.2079,65.5555 31.0639,65.5555 L33.5729,65.5555 C34.4289,65.5555 35.0609,66.2515 34.9859,67.1105 L34.7639,69.6275 C34.6879,70.4865 33.9329,71.1825 33.0779,71.1825" id="Fill-37" fill="#75ABBC" mask="url(#mask-26)"></path>
                </g>
                <g id="Group-42">
                    <mask id="mask-28" fill="white">
                        <use xlink:href="#path-27"></use>
                    </mask>
                    <g id="Clip-41"></g>
                    <path d="M43.1082,71.1825 L40.6002,71.1825 C39.7452,71.1825 39.1132,70.4865 39.1892,69.6275 L39.4122,67.1105 C39.4882,66.2515 40.2442,65.5555 41.0992,65.5555 L43.6092,65.5555 C44.4642,65.5555 45.0962,66.2515 45.0202,67.1105 L44.7952,69.6275 C44.7192,70.4865 43.9632,71.1825 43.1082,71.1825" id="Fill-40" fill="#75ABBC" mask="url(#mask-28)"></path>
                </g>
                <g id="Group-45">
                    <mask id="mask-30" fill="white">
                        <use xlink:href="#path-29"></use>
                    </mask>
                    <g id="Clip-44"></g>
                    <path d="M53.1384,71.1825 L50.6304,71.1825 C49.7754,71.1825 49.1444,70.4865 49.2214,69.6275 L49.4474,67.1105 C49.5234,66.2515 50.2804,65.5555 51.1354,65.5555 L53.6444,65.5555 C54.5004,65.5555 55.1314,66.2515 55.0544,67.1105 L54.8274,69.6275 C54.7494,70.4865 53.9934,71.1825 53.1384,71.1825" id="Fill-43" fill="#75ABBC" mask="url(#mask-30)"></path>
                </g>
                <g id="Group-48">
                    <mask id="mask-32" fill="white">
                        <use xlink:href="#path-31"></use>
                    </mask>
                    <g id="Clip-47"></g>
                    <path d="M63.1687,71.1825 L60.6607,71.1825 C59.8057,71.1825 59.1757,70.4865 59.2527,69.6275 L59.4807,67.1105 C59.5587,66.2515 60.3147,65.5555 61.1717,65.5555 L63.6807,65.5555 C64.5357,65.5555 65.1667,66.2515 65.0887,67.1105 L64.8587,69.6275 C64.7807,70.4865 64.0237,71.1825 63.1687,71.1825" id="Fill-46" fill="#75ABBC" mask="url(#mask-32)"></path>
                </g>
                <g id="Group-51">
                    <mask id="mask-34" fill="white">
                        <use xlink:href="#path-33"></use>
                    </mask>
                    <g id="Clip-50"></g>
                    <path d="M73.199,71.1825 L70.691,71.1825 C69.836,71.1825 69.206,70.4865 69.285,69.6275 L69.515,67.1105 C69.594,66.2515 70.351,65.5555 71.207,65.5555 L73.717,65.5555 C74.572,65.5555 75.202,66.2515 75.123,67.1105 L74.891,69.6275 C74.812,70.4865 74.054,71.1825 73.199,71.1825" id="Fill-49" fill="#75ABBC" mask="url(#mask-34)"></path>
                </g>
                <g id="Group-54">
                    <mask id="mask-36" fill="white">
                        <use xlink:href="#path-35"></use>
                    </mask>
                    <g id="Clip-53"></g>
                    <path d="M83.2293,71.1825 L80.7213,71.1825 C79.8663,71.1825 79.2373,70.4865 79.3173,69.6275 L79.5493,67.1105 C79.6283,66.2515 80.3873,65.5555 81.2433,65.5555 L83.7513,65.5555 C84.6083,65.5555 85.2373,66.2515 85.1573,67.1105 L84.9223,69.6275 C84.8433,70.4865 84.0843,71.1825 83.2293,71.1825" id="Fill-52" fill="#75ABBC" mask="url(#mask-36)"></path>
                </g>
                <g id="Group-57">
                    <mask id="mask-38" fill="white">
                        <use xlink:href="#path-37"></use>
                    </mask>
                    <g id="Clip-56"></g>
                    <path d="M22.0623,82.5092 L19.5573,82.5092 C18.7033,82.5092 18.0703,81.8132 18.1443,80.9542 L18.3633,78.4372 C18.4373,77.5782 19.1903,76.8832 20.0453,76.8832 L22.5513,76.8832 C23.4073,76.8832 24.0393,77.5782 23.9633,78.4372 L23.7453,80.9542 C23.6693,81.8132 22.9163,82.5092 22.0623,82.5092" id="Fill-55" fill="#75ABBC" mask="url(#mask-38)"></path>
                </g>
                <g id="Group-60">
                    <mask id="mask-40" fill="white">
                        <use xlink:href="#path-39"></use>
                    </mask>
                    <g id="Clip-59"></g>
                    <path d="M32.0808,82.5092 L29.5758,82.5092 C28.7218,82.5092 28.0908,81.8132 28.1658,80.9542 L28.3858,78.4372 C28.4608,77.5782 29.2148,76.8832 30.0698,76.8832 L32.5758,76.8832 C33.4318,76.8832 34.0628,77.5782 33.9868,78.4372 L33.7658,80.9542 C33.6888,81.8132 32.9348,82.5092 32.0808,82.5092" id="Fill-58" fill="#75ABBC" mask="url(#mask-40)"></path>
                </g>
                <g id="Group-63">
                    <mask id="mask-42" fill="white">
                        <use xlink:href="#path-41"></use>
                    </mask>
                    <g id="Clip-62"></g>
                    <path d="M42.1004,82.5092 L39.5954,82.5092 C38.7414,82.5092 38.1104,81.8132 38.1864,80.9542 L38.4094,78.4372 C38.4854,77.5782 39.2404,76.8832 40.0944,76.8832 L42.6014,76.8832 C43.4554,76.8832 44.0864,77.5782 44.0104,78.4372 L43.7864,80.9542 C43.7094,81.8132 42.9544,82.5092 42.1004,82.5092" id="Fill-61" fill="#75ABBC" mask="url(#mask-42)"></path>
                </g>
                <g id="Group-66">
                    <mask id="mask-44" fill="white">
                        <use xlink:href="#path-43"></use>
                    </mask>
                    <g id="Clip-65"></g>
                    <path d="M52.1199,82.5092 L49.6149,82.5092 C48.7609,82.5092 48.1299,81.8132 48.2069,80.9542 L48.4319,78.4372 C48.5099,77.5782 49.2649,76.8832 50.1189,76.8832 L52.6259,76.8832 C53.4799,76.8832 54.1109,77.5782 54.0339,78.4372 L53.8069,80.9542 C53.7289,81.8132 52.9739,82.5092 52.1199,82.5092" id="Fill-64" fill="#75ABBC" mask="url(#mask-44)"></path>
                </g>
                <g id="Group-69">
                    <mask id="mask-46" fill="white">
                        <use xlink:href="#path-45"></use>
                    </mask>
                    <g id="Clip-68"></g>
                    <path d="M62.1384,82.5092 L59.6334,82.5092 C58.7794,82.5092 58.1504,81.8132 58.2274,80.9542 L58.4554,78.4372 C58.5334,77.5782 59.2884,76.8832 60.1444,76.8832 L62.6504,76.8832 C63.5054,76.8832 64.1354,77.5782 64.0564,78.4372 L63.8274,80.9542 C63.7494,81.8132 62.9924,82.5092 62.1384,82.5092" id="Fill-67" fill="#75ABBC" mask="url(#mask-46)"></path>
                </g>
                <g id="Group-72">
                    <mask id="mask-48" fill="white">
                        <use xlink:href="#path-47"></use>
                    </mask>
                    <g id="Clip-71"></g>
                    <path d="M72.158,82.5092 L69.653,82.5092 C68.799,82.5092 68.17,81.8132 68.248,80.9542 L68.478,78.4372 C68.557,77.5782 69.314,76.8832 70.169,76.8832 L72.676,76.8832 C73.53,76.8832 74.159,77.5782 74.08,78.4372 L73.848,80.9542 C73.769,81.8132 73.012,82.5092 72.158,82.5092" id="Fill-70" fill="#75ABBC" mask="url(#mask-48)"></path>
                </g>
                <g id="Group-75">
                    <mask id="mask-50" fill="white">
                        <use xlink:href="#path-49"></use>
                    </mask>
                    <g id="Clip-74"></g>
                    <path d="M82.1775,82.5092 L79.6725,82.5092 C78.8185,82.5092 78.1895,81.8132 78.2695,80.9542 L78.5015,78.4372 C78.5805,77.5782 79.3385,76.8832 80.1935,76.8832 L82.6995,76.8832 C83.5545,76.8832 84.1835,77.5782 84.1035,78.4372 L83.8685,80.9542 C83.7885,81.8132 83.0315,82.5092 82.1775,82.5092" id="Fill-73" fill="#75ABBC" mask="url(#mask-50)"></path>
                </g>
                <g id="Group-78">
                    <mask id="mask-52" fill="white">
                        <use xlink:href="#path-51"></use>
                    </mask>
                    <g id="Clip-77"></g>
                    <path d="M21.0769,93.8358 L18.5739,93.8358 C17.7209,93.8358 17.0899,93.1398 17.1639,92.2808 L17.3819,89.7638 C17.4559,88.9048 18.2089,88.2098 19.0619,88.2098 L21.5659,88.2098 C22.4199,88.2098 23.0519,88.9048 22.9759,89.7638 L22.7579,92.2808 C22.6819,93.1398 21.9309,93.8358 21.0769,93.8358" id="Fill-76" fill="#75ABBC" mask="url(#mask-52)"></path>
                </g>
                <g id="Group-81">
                    <mask id="mask-54" fill="white">
                        <use xlink:href="#path-53"></use>
                    </mask>
                    <g id="Clip-80"></g>
                    <path d="M31.0847,93.8358 L28.5827,93.8358 C27.7297,93.8358 27.0987,93.1398 27.1737,92.2808 L27.3937,89.7638 C27.4687,88.9048 28.2227,88.2098 29.0757,88.2098 L31.5797,88.2098 C32.4337,88.2098 33.0637,88.9048 32.9887,89.7638 L32.7677,92.2808 C32.6907,93.1398 31.9387,93.8358 31.0847,93.8358" id="Fill-79" fill="#75ABBC" mask="url(#mask-54)"></path>
                </g>
                <g id="Group-84">
                    <mask id="mask-56" fill="white">
                        <use xlink:href="#path-55"></use>
                    </mask>
                    <g id="Clip-83"></g>
                    <path d="M41.0925,93.8358 L38.5905,93.8358 C37.7375,93.8358 37.1075,93.1398 37.1825,92.2808 L37.4055,89.7638 C37.4825,88.9048 38.2365,88.2098 39.0895,88.2098 L41.5935,88.2098 C42.4465,88.2098 43.0775,88.9048 43.0005,89.7638 L42.7765,92.2808 C42.6995,93.1398 41.9465,93.8358 41.0925,93.8358" id="Fill-82" fill="#75ABBC" mask="url(#mask-56)"></path>
                </g>
                <g id="Group-87">
                    <mask id="mask-58" fill="white">
                        <use xlink:href="#path-57"></use>
                    </mask>
                    <g id="Clip-86"></g>
                    <path d="M51.1004,93.8358 L48.5984,93.8358 C47.7454,93.8358 47.1154,93.1398 47.1924,92.2808 L47.4174,89.7638 C47.4954,88.9048 48.2494,88.2098 49.1034,88.2098 L51.6074,88.2098 C52.4604,88.2098 53.0904,88.9048 53.0134,89.7638 L52.7864,92.2808 C52.7084,93.1398 51.9544,93.8358 51.1004,93.8358" id="Fill-85" fill="#75ABBC" mask="url(#mask-58)"></path>
                </g>
                <g id="Group-90">
                    <mask id="mask-60" fill="white">
                        <use xlink:href="#path-59"></use>
                    </mask>
                    <g id="Clip-89"></g>
                    <path d="M61.1091,93.8358 L58.6061,93.8358 C57.7531,93.8358 57.1241,93.1398 57.2021,92.2808 L57.4291,89.7638 C57.5071,88.9048 58.2621,88.2098 59.1171,88.2098 L61.6211,88.2098 C62.4741,88.2098 63.1031,88.9048 63.0251,89.7638 L62.7961,92.2808 C62.7171,93.1398 61.9631,93.8358 61.1091,93.8358" id="Fill-88" fill="#75ABBC" mask="url(#mask-60)"></path>
                </g>
                <g id="Group-93">
                    <mask id="mask-62" fill="white">
                        <use xlink:href="#path-61"></use>
                    </mask>
                    <g id="Clip-92"></g>
                    <path d="M71.117,93.8358 L68.615,93.8358 C67.762,93.8358 67.133,93.1398 67.212,92.2808 L67.442,89.7638 C67.52,88.9048 68.276,88.2098 69.131,88.2098 L71.635,88.2098 C72.488,88.2098 73.116,88.9048 73.037,89.7638 L72.805,92.2808 C72.726,93.1398 71.971,93.8358 71.117,93.8358" id="Fill-91" fill="#75ABBC" mask="url(#mask-62)"></path>
                </g>
                <g id="Group-96">
                    <mask id="mask-64" fill="white">
                        <use xlink:href="#path-63"></use>
                    </mask>
                    <g id="Clip-95"></g>
                    <path d="M81.1248,93.8358 L78.6228,93.8358 C77.7698,93.8358 77.1418,93.1398 77.2218,92.2808 L77.4538,89.7638 C77.5338,88.9048 78.2898,88.2098 79.1448,88.2098 L81.6478,88.2098 C82.5018,88.2098 83.1298,88.9048 83.0498,89.7638 L82.8148,92.2808 C82.7348,93.1398 81.9788,93.8358 81.1248,93.8358" id="Fill-94" fill="#75ABBC" mask="url(#mask-64)"></path>
                </g>
                <g id="Group-99">
                    <mask id="mask-66" fill="white">
                        <use xlink:href="#path-65"></use>
                    </mask>
                    <g id="Clip-98"></g>
                    <path d="M20.0906,105.163 L17.5916,105.163 C16.7386,105.163 16.1086,104.467 16.1826,103.608 L16.4006,101.091 C16.4746,100.232 17.2266,99.536 18.0796,99.536 L20.5806,99.536 C21.4336,99.536 22.0646,100.232 21.9886,101.091 L21.7706,103.608 C21.6946,104.467 20.9436,105.163 20.0906,105.163" id="Fill-97" fill="#75ABBC" mask="url(#mask-66)"></path>
                </g>
                <g id="Group-102">
                    <mask id="mask-68" fill="white">
                        <use xlink:href="#path-67"></use>
                    </mask>
                    <g id="Clip-101"></g>
                    <path d="M30.0877,105.163 L27.5887,105.163 C26.7357,105.163 26.1067,104.467 26.1817,103.608 L26.4007,101.091 C26.4767,100.232 27.2297,99.536 28.0817,99.536 L30.5827,99.536 C31.4367,99.536 32.0667,100.232 31.9897,101.091 L31.7687,103.608 C31.6927,104.467 30.9407,105.163 30.0877,105.163" id="Fill-100" fill="#75ABBC" mask="url(#mask-68)"></path>
                </g>
                <g id="Group-105">
                    <mask id="mask-70" fill="white">
                        <use xlink:href="#path-69"></use>
                    </mask>
                    <g id="Clip-104"></g>
                    <path d="M40.0847,105.163 L37.5857,105.163 C36.7327,105.163 36.1037,104.467 36.1797,103.608 L36.4017,101.091 C36.4787,100.232 37.2307,99.536 38.0847,99.536 L40.5857,99.536 C41.4387,99.536 42.0677,100.232 41.9917,101.091 L41.7677,103.608 C41.6897,104.467 40.9377,105.163 40.0847,105.163" id="Fill-103" fill="#75ABBC" mask="url(#mask-70)"></path>
                </g>
                <g id="Group-108">
                    <mask id="mask-72" fill="white">
                        <use xlink:href="#path-71"></use>
                    </mask>
                    <g id="Clip-107"></g>
                    <path d="M55.7996,59.9564 L50.5086,54.1274" id="Stroke-106" stroke="#D68091" stroke-width="2" stroke-linecap="round" mask="url(#mask-72)"></path>
                </g>
                <g id="Group-111">
                    <mask id="mask-74" fill="white">
                        <use xlink:href="#path-73"></use>
                    </mask>
                    <g id="Clip-110"></g>
                    <path d="M56.325,54.1278 L49.986,59.9568" id="Stroke-109" stroke="#D68091" stroke-width="2" stroke-linecap="round" mask="url(#mask-74)"></path>
                </g>
                <g id="Group-114">
                    <mask id="mask-76" fill="white">
                        <use xlink:href="#path-75"></use>
                    </mask>
                    <g id="Clip-113"></g>
                    <path d="M65.8406,59.9564 L60.5556,54.1274" id="Stroke-112" stroke="#D68091" stroke-width="2" stroke-linecap="round" mask="url(#mask-76)"></path>
                </g>
                <g id="Group-117">
                    <mask id="mask-78" fill="white">
                        <use xlink:href="#path-77"></use>
                    </mask>
                    <g id="Clip-116"></g>
                    <path d="M66.3718,54.1278 L60.0278,59.9568" id="Stroke-115" stroke="#D68091" stroke-width="2" stroke-linecap="round" mask="url(#mask-78)"></path>
                </g>
                <g id="Group-120">
                    <mask id="mask-80" fill="white">
                        <use xlink:href="#path-79"></use>
                    </mask>
                    <g id="Clip-119"></g>
                    <path d="M75.9832,59.9564 L70.7032,54.1274" id="Stroke-118" stroke="#D68091" stroke-width="2" stroke-linecap="round" mask="url(#mask-80)"></path>
                </g>
                <g id="Group-123">
                    <mask id="mask-82" fill="white">
                        <use xlink:href="#path-81"></use>
                    </mask>
                    <g id="Clip-122"></g>
                    <path d="M76.5203,54.1278 L70.1693,59.9568" id="Stroke-121" stroke="#D68091" stroke-width="2" stroke-linecap="round" mask="url(#mask-82)"></path>
                </g>
                <g id="Group-126">
                    <mask id="mask-84" fill="white">
                        <use xlink:href="#path-83"></use>
                    </mask>
                    <g id="Clip-125"></g>
                    <path d="M86.0242,59.9564 L80.7512,54.1274" id="Stroke-124" stroke="#D68091" stroke-width="2" stroke-linecap="round" mask="url(#mask-84)"></path>
                </g>
                <g id="Group-129">
                    <mask id="mask-86" fill="white">
                        <use xlink:href="#path-85"></use>
                    </mask>
                    <g id="Clip-128"></g>
                    <path d="M86.5672,54.1278 L80.2122,59.9568" id="Stroke-127" stroke="#D68091" stroke-width="2" stroke-linecap="round" mask="url(#mask-86)"></path>
                </g>
                <g id="Group-132">
                    <mask id="mask-88" fill="white">
                        <use xlink:href="#path-87"></use>
                    </mask>
                    <g id="Clip-131"></g>
                    <path d="M54.7791,71.2836 L49.4941,65.4546" id="Stroke-130" stroke="#D68091" stroke-width="2" stroke-linecap="round" mask="url(#mask-88)"></path>
                </g>
                <g id="Group-135">
                    <mask id="mask-90" fill="white">
                        <use xlink:href="#path-89"></use>
                    </mask>
                    <g id="Clip-134"></g>
                    <path d="M55.3045,65.4545 L48.9725,71.2835" id="Stroke-133" stroke="#D68091" stroke-width="2" stroke-linecap="round" mask="url(#mask-90)"></path>
                </g>
                <g id="Group-138">
                    <mask id="mask-92" fill="white">
                        <use xlink:href="#path-91"></use>
                    </mask>
                    <g id="Clip-137"></g>
                    <path d="M64.8093,71.2836 L59.5303,65.4546" id="Stroke-136" stroke="#D68091" stroke-width="2" stroke-linecap="round" mask="url(#mask-92)"></path>
                </g>
                <g id="Group-141">
                    <mask id="mask-94" fill="white">
                        <use xlink:href="#path-93"></use>
                    </mask>
                    <g id="Clip-140"></g>
                    <path d="M65.3396,65.4545 L59.0026,71.2835" id="Stroke-139" stroke="#D68091" stroke-width="2" stroke-linecap="round" mask="url(#mask-94)"></path>
                </g>
                <g id="Group-144">
                    <mask id="mask-96" fill="white">
                        <use xlink:href="#path-95"></use>
                    </mask>
                    <g id="Clip-143"></g>
                    <path d="M74.9402,71.2836 L69.6672,65.4546" id="Stroke-142" stroke="#D68091" stroke-width="2" stroke-linecap="round" mask="url(#mask-96)"></path>
                </g>
                <g id="Group-147">
                    <mask id="mask-98" fill="white">
                        <use xlink:href="#path-97"></use>
                    </mask>
                    <g id="Clip-146"></g>
                    <path d="M75.4763,65.4545 L69.1333,71.2835" id="Stroke-145" stroke="#D68091" stroke-width="2" stroke-linecap="round" mask="url(#mask-98)"></path>
                </g>
                <g id="Group-150">
                    <mask id="mask-100" fill="white">
                        <use xlink:href="#path-99"></use>
                    </mask>
                    <g id="Clip-149"></g>
                    <path d="M24.6375,71.2836 L19.3355,65.4546" id="Stroke-148" stroke="#D68091" stroke-width="2" stroke-linecap="round" mask="url(#mask-100)"></path>
                </g>
                <g id="Group-153">
                    <mask id="mask-102" fill="white">
                        <use xlink:href="#path-101"></use>
                    </mask>
                    <g id="Clip-152"></g>
                    <path d="M25.1463,65.4545 L18.8313,71.2835" id="Stroke-151" stroke="#D68091" stroke-width="2" stroke-linecap="round" mask="url(#mask-102)"></path>
                </g>
                <g id="Group-156">
                    <mask id="mask-104" fill="white">
                        <use xlink:href="#path-103"></use>
                    </mask>
                    <g id="Clip-155"></g>
                    <path d="M34.6677,71.2836 L29.3717,65.4546" id="Stroke-154" stroke="#D68091" stroke-width="2" stroke-linecap="round" mask="url(#mask-104)"></path>
                </g>
                <g id="Group-159">
                    <mask id="mask-106" fill="white">
                        <use xlink:href="#path-105"></use>
                    </mask>
                    <g id="Clip-158"></g>
                    <path d="M35.1824,65.4545 L28.8614,71.2835" id="Stroke-157" stroke="#D68091" stroke-width="2" stroke-linecap="round" mask="url(#mask-106)"></path>
                </g>
                <g id="Group-162">
                    <mask id="mask-108" fill="white">
                        <use xlink:href="#path-107"></use>
                    </mask>
                    <g id="Clip-161"></g>
                    <path d="M44.7986,71.2836 L39.5086,65.4546" id="Stroke-160" stroke="#D68091" stroke-width="2" stroke-linecap="round" mask="url(#mask-108)"></path>
                </g>
                <g id="Group-165">
                    <mask id="mask-110" fill="white">
                        <use xlink:href="#path-109"></use>
                    </mask>
                    <g id="Clip-164"></g>
                    <path d="M45.3181,65.4545 L38.9921,71.2835" id="Stroke-163" stroke="#D68091" stroke-width="2" stroke-linecap="round" mask="url(#mask-110)"></path>
                </g>
                <g id="Group-168">
                    <mask id="mask-112" fill="white">
                        <use xlink:href="#path-111"></use>
                    </mask>
                    <g id="Clip-167"></g>
                    <path d="M84.9705,71.2836 L79.7025,65.4546" id="Stroke-166" stroke="#D68091" stroke-width="2" stroke-linecap="round" mask="url(#mask-112)"></path>
                </g>
                <g id="Group-171">
                    <mask id="mask-114" fill="white">
                        <use xlink:href="#path-113"></use>
                    </mask>
                    <g id="Clip-170"></g>
                    <path d="M85.5125,65.4545 L79.1635,71.2835" id="Stroke-169" stroke="#D68091" stroke-width="2" stroke-linecap="round" mask="url(#mask-114)"></path>
                </g>
                <g id="Group-174">
                    <mask id="mask-116" fill="white">
                        <use xlink:href="#path-115"></use>
                    </mask>
                    <g id="Clip-173"></g>
                    <path d="M53.7586,82.6102 L48.4806,76.7812" id="Stroke-172" stroke="#D68091" stroke-width="2" stroke-linecap="round" mask="url(#mask-116)"></path>
                </g>
                <g id="Group-177">
                    <mask id="mask-118" fill="white">
                        <use xlink:href="#path-117"></use>
                    </mask>
                    <g id="Clip-176"></g>
                    <path d="M54.284,76.7816 L47.958,82.6106" id="Stroke-175" stroke="#D68091" stroke-width="2" stroke-linecap="round" mask="url(#mask-118)"></path>
                </g>
                <g id="Group-180">
                    <mask id="mask-120" fill="white">
                        <use xlink:href="#path-119"></use>
                    </mask>
                    <g id="Clip-179"></g>
                    <path d="M63.7771,82.6102 L58.5051,76.7812" id="Stroke-178" stroke="#D68091" stroke-width="2" stroke-linecap="round" mask="url(#mask-120)"></path>
                </g>
                <g id="Group-183">
                    <mask id="mask-122" fill="white">
                        <use xlink:href="#path-121"></use>
                    </mask>
                    <g id="Clip-182"></g>
                    <path d="M64.3084,76.7816 L57.9774,82.6106" id="Stroke-181" stroke="#D68091" stroke-width="2" stroke-linecap="round" mask="url(#mask-122)"></path>
                </g>
                <g id="Group-186">
                    <mask id="mask-124" fill="white">
                        <use xlink:href="#path-123"></use>
                    </mask>
                    <g id="Clip-185"></g>
                    <path d="M23.6502,82.6102 L18.3552,76.7812" id="Stroke-184" stroke="#D68091" stroke-width="2" stroke-linecap="round" mask="url(#mask-124)"></path>
                </g>
                <g id="Group-189">
                    <mask id="mask-126" fill="white">
                        <use xlink:href="#path-125"></use>
                    </mask>
                    <g id="Clip-188"></g>
                    <path d="M24.159,76.7816 L17.85,82.6106" id="Stroke-187" stroke="#D68091" stroke-width="2" stroke-linecap="round" mask="url(#mask-126)"></path>
                </g>
                <g id="Group-192">
                    <mask id="mask-128" fill="white">
                        <use xlink:href="#path-127"></use>
                    </mask>
                    <g id="Clip-191"></g>
                    <path d="M33.6697,82.6102 L28.3797,76.7812" id="Stroke-190" stroke="#D68091" stroke-width="2" stroke-linecap="round" mask="url(#mask-128)"></path>
                </g>
                <g id="Group-195">
                    <mask id="mask-130" fill="white">
                        <use xlink:href="#path-129"></use>
                    </mask>
                    <g id="Clip-194"></g>
                    <path d="M34.1834,76.7816 L27.8704,82.6106" id="Stroke-193" stroke="#D68091" stroke-width="2" stroke-linecap="round" mask="url(#mask-130)"></path>
                </g>
                <g id="Group-198">
                    <mask id="mask-132" fill="white">
                        <use xlink:href="#path-131"></use>
                    </mask>
                    <g id="Clip-197"></g>
                    <path d="M43.7898,82.6102 L38.5058,76.7812" id="Stroke-196" stroke="#D68091" stroke-width="2" stroke-linecap="round" mask="url(#mask-132)"></path>
                </g>
                <g id="Group-201">
                    <mask id="mask-134" fill="white">
                        <use xlink:href="#path-133"></use>
                    </mask>
                    <g id="Clip-200"></g>
                    <path d="M44.3093,76.7816 L37.9893,82.6106" id="Stroke-199" stroke="#D68091" stroke-width="2" stroke-linecap="round" mask="url(#mask-134)"></path>
                </g>
                <g id="Group-204">
                    <mask id="mask-136" fill="white">
                        <use xlink:href="#path-135"></use>
                    </mask>
                    <g id="Clip-203"></g>
                    <path d="M77.5076,37.7767 C77.5076,38.9397 78.4496,39.8827 79.6126,39.8827 C80.7766,39.8827 81.7196,38.9397 81.7196,37.7767 C81.7196,36.6137 80.7766,35.6707 79.6126,35.6707 C78.4496,35.6707 77.5076,36.6137 77.5076,37.7767" id="Fill-202" fill="#2F3061" mask="url(#mask-136)"></path>
                </g>
                <g id="Group-207">
                    <mask id="mask-138" fill="white">
                        <use xlink:href="#path-137"></use>
                    </mask>
                    <g id="Clip-206"></g>
                    <path d="M85.1677,32.2225 C85.1677,29.1555 82.6807,26.6685 79.6127,26.6685 C76.5457,26.6685 74.0597,29.1555 74.0597,32.2225 C74.0597,35.2895 76.5457,37.7765 79.6127,37.7765" id="Stroke-205" stroke="#2F3061" stroke-width="2" stroke-linecap="round" mask="url(#mask-138)"></path>
                </g>
                <g id="Group-210">
                    <mask id="mask-140" fill="white">
                        <use xlink:href="#path-139"></use>
                    </mask>
                    <g id="Clip-209"></g>
                    <path d="M53.2732,37.7767 C53.2732,38.9397 54.2152,39.8827 55.3782,39.8827 C56.5422,39.8827 57.4852,38.9397 57.4852,37.7767 C57.4852,36.6137 56.5422,35.6707 55.3782,35.6707 C54.2152,35.6707 53.2732,36.6137 53.2732,37.7767" id="Fill-208" fill="#2F3061" mask="url(#mask-140)"></path>
                </g>
                <g id="Group-213">
                    <mask id="mask-142" fill="white">
                        <use xlink:href="#path-141"></use>
                    </mask>
                    <g id="Clip-212"></g>
                    <path d="M60.9334,32.2225 C60.9334,29.1555 58.4464,26.6685 55.3784,26.6685 C52.3114,26.6685 49.8254,29.1555 49.8254,32.2225 C49.8254,35.2895 52.3114,37.7765 55.3784,37.7765" id="Stroke-211" stroke="#2F3061" stroke-width="2" stroke-linecap="round" mask="url(#mask-142)"></path>
                </g>
                <g id="Group-216">
                    <mask id="mask-144" fill="white">
                        <use xlink:href="#path-143"></use>
                    </mask>
                    <g id="Clip-215"></g>
                    <path d="M29.0379,37.7767 C29.0379,38.9397 29.9809,39.8827 31.1439,39.8827 C32.3079,39.8827 33.2509,38.9397 33.2509,37.7767 C33.2509,36.6137 32.3079,35.6707 31.1439,35.6707 C29.9809,35.6707 29.0379,36.6137 29.0379,37.7767" id="Fill-214" fill="#2F3061" mask="url(#mask-144)"></path>
                </g>
                <g id="Group-219">
                    <mask id="mask-146" fill="white">
                        <use xlink:href="#path-145"></use>
                    </mask>
                    <g id="Clip-218"></g>
                    <path d="M36.698,32.2225 C36.698,29.1555 34.212,26.6685 31.144,26.6685 C28.077,26.6685 25.591,29.1555 25.591,32.2225 C25.591,35.2895 28.077,37.7765 31.144,37.7765" id="Stroke-217" stroke="#2F3061" stroke-width="2" stroke-linecap="round" mask="url(#mask-146)"></path>
                </g>
            </g>
        </g>
    </g>
</svg>