<?xml version="1.0" encoding="UTF-8"?>
<svg width="114px" height="127px" viewBox="0 0 114 127" version="1.1" xmlns="http://www.w3.org/2000/svg" xmlns:xlink="http://www.w3.org/1999/xlink">
    <!-- Generator: Sketch 50.2 (55047) - http://www.bohemiancoding.com/sketch -->
    <title>Artboard</title>
    <desc>Created with Sketch.</desc>
    <defs>
        <polygon id="path-1" points="0 147 113.364 147 113.364 0.279 0 0.279"></polygon>
    </defs>
    <g id="Artboard" stroke="none" stroke-width="1" fill="none" fill-rule="evenodd">
        <g id="Page-1">
            <polygon id="Fill-1" fill="#A5D9E4" points="60.095 134.365 90.23 134.365 90.23 47.137 60.095 47.137"></polygon>
            <g id="Group-46" transform="translate(0.000000, 0.721000)">
                <path d="M74.9811,52.6389 L74.9811,22.8909 C74.9811,20.1509 72.7591,17.9299 70.0191,17.9299 C67.2791,17.9299 65.0571,20.1509 65.0571,22.8909 L65.0571,52.6389" id="Fill-2" fill="#A5D9E4"></path>
                <path d="M74.9811,53.9758 C74.2421,53.9758 73.6441,53.3778 73.6441,52.6388 L73.6441,22.8918 C73.6441,20.8928 72.0191,19.2668 70.0201,19.2668 C68.0211,19.2668 66.3941,20.8928 66.3941,22.8918 L66.3941,52.6388 C66.3941,53.3778 65.7961,53.9758 65.0581,53.9758 C64.3191,53.9758 63.7211,53.3778 63.7211,52.6388 L63.7211,22.8918 C63.7211,19.4178 66.5461,16.5928 70.0201,16.5928 C73.4931,16.5928 76.3181,19.4178 76.3181,22.8918 L76.3181,52.6388 C76.3181,53.3778 75.7201,53.9758 74.9811,53.9758" id="Fill-4" fill="#2F3061"></path>
                <path d="M84.9049,52.6389 L84.9049,18.6309 C84.9049,15.8909 82.6829,13.6689 79.9429,13.6689 C77.2029,13.6689 74.9809,15.8909 74.9809,18.6309 L74.9809,52.6389" id="Fill-6" fill="#A5D9E4"></path>
                <path d="M84.9059,53.9758 C84.1669,53.9758 83.5689,53.3778 83.5689,52.6388 L83.5689,18.6318 C83.5689,16.6328 81.9419,15.0058 79.9429,15.0058 C77.9439,15.0058 76.3179,16.6328 76.3179,18.6318 L76.3179,52.6388 C76.3179,53.3778 75.7199,53.9758 74.9809,53.9758 C74.2419,53.9758 73.6439,53.3778 73.6439,52.6388 L73.6439,18.6318 C73.6439,15.1578 76.4689,12.3328 79.9429,12.3328 C83.4179,12.3328 86.2419,15.1578 86.2419,18.6318 L86.2419,52.6388 C86.2419,53.3778 85.6439,53.9758 84.9059,53.9758" id="Fill-8" fill="#2F3061"></path>
                <path d="M84.9049,52.6389 L84.9049,22.8909 C84.9049,20.1509 87.1269,17.9299 89.8669,17.9299 C92.6069,17.9299 94.8289,20.1509 94.8289,22.8909 L94.8289,53.7909 C94.8289,55.3309 96.6909,56.1019 97.7799,55.0129 L101.6179,51.1759 C103.9999,48.7929 107.8619,48.7929 110.2449,51.1759 C112.6269,53.5579 112.6269,57.4199 110.2449,59.8029 C110.2449,59.8029 89.8669,76.9629 89.8669,86.3689 L89.8669,126.9689" id="Fill-10" fill="#A5D9E4"></path>
                <path d="M89.8678,128.3059 C89.1288,128.3059 88.5308,127.7079 88.5308,126.9689 L88.5308,86.3679 C88.5308,76.4539 108.5308,59.4969 109.3828,58.7799 C111.1568,56.9989 111.1568,53.9779 109.2988,52.1209 C107.4418,50.2639 104.4188,50.2639 102.5618,52.1209 L98.7248,55.9579 C97.8468,56.8389 96.5338,57.0999 95.3848,56.6229 C94.2348,56.1469 93.4918,55.0359 93.4918,53.7899 L93.4918,22.8909 C93.4918,20.8929 91.8668,19.2659 89.8678,19.2659 C87.8688,19.2659 86.2418,20.8929 86.2418,22.8909 L86.2418,52.6389 C86.2418,53.3779 85.6438,53.9759 84.9058,53.9759 C84.1668,53.9759 83.5688,53.3779 83.5688,52.6389 L83.5688,22.8909 C83.5688,19.4179 86.3938,16.5929 89.8678,16.5929 C93.3408,16.5929 96.1658,19.4179 96.1658,22.8909 L96.1658,53.7899 C96.1658,54.0069 96.2978,54.1079 96.4078,54.1539 C96.5178,54.1979 96.6808,54.2229 96.8338,54.0669 L100.6728,50.2299 C103.5698,47.3289 108.2908,47.3289 111.1888,50.2299 C114.0888,53.1299 114.0888,57.8479 111.1888,60.7469 C105.5698,65.4879 91.2048,79.1659 91.2048,86.3679 L91.2048,126.9689 C91.2048,127.7079 90.6068,128.3059 89.8678,128.3059" id="Fill-12" fill="#2F3061"></path>
                <path d="M60.0953,126.969 C60.0953,126.969 59.5333,84.97 58.4523,81.145 C57.0083,76.031 55.1333,67.895 55.1333,60.094 L55.1333,27.151 C55.1333,24.411 57.3553,22.19 60.0953,22.19 C62.8363,22.19 65.0573,24.411 65.0573,27.151 L65.0573,52.639" id="Fill-14" fill="#A5D9E4"></path>
                <path d="M60.0944,128.3059 C59.3734,128.3059 58.7804,127.7329 58.7584,127.0069 C58.6044,121.5599 58.0164,84.5139 57.1674,81.5079 C55.6294,76.0679 53.7964,67.9369 53.7964,60.0949 L53.7964,27.1519 C53.7964,23.6779 56.6214,20.8519 60.0954,20.8519 C63.5694,20.8519 66.3944,23.6779 66.3944,27.1519 L66.3944,52.6389 C66.3944,53.3779 65.7964,53.9759 65.0584,53.9759 C64.3194,53.9759 63.7214,53.3779 63.7214,52.6389 L63.7214,27.1519 C63.7214,25.1529 62.0944,23.5259 60.0954,23.5259 C58.0964,23.5259 56.4704,25.1529 56.4704,27.1519 L56.4704,60.0949 C56.4704,67.6299 58.2484,75.5039 59.7394,80.7819 C60.8534,84.7209 61.4084,126.1179 61.4324,126.9309 C61.4524,127.6689 60.8704,128.2849 60.1334,128.3059 L60.0944,128.3059 Z" id="Fill-16" fill="#2F3061"></path>
                <path d="M97.7877,54.99 C97.7877,54.99 94.7087,58.742 90.9317,60.975" id="Fill-18" fill="#A5D9E4"></path>
                <path d="M90.9332,62.3118 C90.4762,62.3118 90.0312,62.0768 89.7802,61.6548 C89.4062,61.0198 89.6162,60.1988 90.2512,59.8228 C93.7842,57.7358 96.7252,54.1778 96.7542,54.1418 C97.2232,53.5738 98.0642,53.4878 98.6362,53.9568 C99.2072,54.4248 99.2892,55.2688 98.8222,55.8388 C98.6902,55.9998 95.5462,59.7998 91.6122,62.1258 C91.3992,62.2518 91.1632,62.3118 90.9332,62.3118" id="Fill-20" fill="#2F3061"></path>
                <path d="M60.0953,55.4118 C60.0953,55.4118 74.9263,50.9468 90.2303,55.4118" id="Fill-22" fill="#A5D9E4"></path>
                <path d="M60.0953,56.7488 C59.5213,56.7488 58.9903,56.3748 58.8153,55.7968 C58.6023,55.0908 59.0023,54.3458 59.7103,54.1308 C60.3313,53.9458 75.1003,49.6038 90.6043,54.1288 C91.3133,54.3348 91.7193,55.0778 91.5123,55.7868 C91.3053,56.4948 90.5663,56.9028 89.8553,56.6948 C75.1043,52.3928 60.6253,56.6478 60.4813,56.6928 C60.3533,56.7308 60.2223,56.7488 60.0953,56.7488" id="Fill-24" fill="#2F3061"></path>
                <path d="M73.7018,81.3557 C74.2718,76.5117 80.1138,70.3847 83.2538,67.6927" id="Fill-26" fill="#A5D9E4"></path>
                <path d="M73.7028,82.6931 C73.6508,82.6931 73.5988,82.6911 73.5448,82.6841 C72.8118,82.5981 72.2878,81.9331 72.3738,81.1991 C72.9888,75.9821 78.9548,69.6161 82.3848,66.6771 C82.9448,66.2001 83.7898,66.2601 84.2698,66.8231 C84.7498,67.3831 84.6848,68.2281 84.1238,68.7091 C81.2058,71.2101 75.5488,77.1041 75.0288,81.5131 C74.9498,82.1931 74.3718,82.6931 73.7028,82.6931" id="Fill-28" fill="#2F3061"></path>
                <path d="M1.3365,56.1848 C0.7965,56.1848 0.3075,55.8598 0.1005,55.3558 C-0.1135,54.8348 0.0225,54.2338 0.4405,53.8558 L16.6115,39.2558 L0.4405,24.6568 C0.0215,24.2778 -0.1145,23.6748 0.1025,23.1528 C0.3165,22.6308 0.8275,22.2898 1.4045,22.3288 L23.1625,23.4398 L22.0515,1.6838 C22.0235,1.1208 22.3505,0.6018 22.8695,0.3828 C23.3895,0.1668 23.9895,0.2948 24.3715,0.7108 L43.5215,21.5388 C44.0215,22.0818 43.9835,22.9278 43.4405,23.4278 C42.8985,23.9278 42.0535,23.8938 41.5525,23.3488 L24.9105,5.2488 L25.9095,24.7838 C25.9275,25.1608 25.7865,25.5288 25.5195,25.7958 C25.2525,26.0638 24.8805,26.2088 24.5055,26.1868 L5.0225,25.1918 L19.5015,38.2638 C19.7825,38.5178 19.9425,38.8778 19.9425,39.2558 C19.9425,39.6348 19.7825,39.9948 19.5015,40.2478 L4.9985,53.3428 L27.3175,52.3258 C28.0615,52.2798 28.6825,52.8618 28.7145,53.5998 C28.7485,54.3378 28.1785,54.9628 27.4405,54.9968 L1.3985,56.1838 C1.3775,56.1848 1.3575,56.1848 1.3365,56.1848" id="Fill-30" fill="#2F3061"></path>
                <mask id="mask-2" fill="white">
                    <use xlink:href="#path-1"></use>
                </mask>
                <g id="Clip-33"></g>
                <polygon id="Fill-32" fill="#E2EFF3" mask="url(#mask-2)" points="41.29 147 71.425 147 71.425 61.865 41.29 61.865"></polygon>
                <path d="M56.3571,68.0881 L56.3571,38.3401 C56.3571,35.6001 58.5791,33.3781 61.3191,33.3781 C64.0591,33.3781 66.2811,35.6001 66.2811,38.3401 L66.2811,68.0881" id="Fill-34" fill="#E2EFF3" mask="url(#mask-2)"></path>
                <path d="M66.2809,69.425 C65.5419,69.425 64.9439,68.827 64.9439,68.089 L64.9439,38.34 C64.9439,36.341 63.3169,34.716 61.3189,34.716 C59.3199,34.716 57.6929,36.341 57.6929,38.34 L57.6929,68.089 C57.6929,68.827 57.0949,69.425 56.3559,69.425 C55.6179,69.425 55.0199,68.827 55.0199,68.089 L55.0199,38.34 C55.0199,34.867 57.8439,32.042 61.3189,32.042 C64.7929,32.042 67.6179,34.867 67.6179,38.34 L67.6179,68.089 C67.6179,68.827 67.0199,69.425 66.2809,69.425" id="Fill-35" fill="#2F3061" mask="url(#mask-2)"></path>
                <path d="M46.4332,68.0881 L46.4332,34.0801 C46.4332,31.3391 48.6552,29.1181 51.3952,29.1181 C54.1352,29.1181 56.3572,31.3391 56.3572,34.0801 L56.3572,68.0881" id="Fill-36" fill="#E2EFF3" mask="url(#mask-2)"></path>
                <path d="M56.3561,69.425 C55.6181,69.425 55.0201,68.827 55.0201,68.089 L55.0201,34.08 C55.0201,32.081 53.3941,30.456 51.3951,30.456 C49.3971,30.456 47.7701,32.081 47.7701,34.08 L47.7701,68.089 C47.7701,68.827 47.1721,69.425 46.4331,69.425 C45.6941,69.425 45.0961,68.827 45.0961,68.089 L45.0961,34.08 C45.0961,30.607 47.9211,27.782 51.3951,27.782 C54.8681,27.782 57.6931,30.607 57.6931,34.08 L57.6931,68.089 C57.6931,68.827 57.0951,69.425 56.3561,69.425" id="Fill-37" fill="#2F3061" mask="url(#mask-2)"></path>
                <path d="M41.4713,141.719 L41.4713,101.818 C41.4713,92.412 21.0943,75.251 21.0943,75.251 C18.7113,72.869 18.7113,69.007 21.0943,66.625 C23.4763,64.242 27.3383,64.242 29.7213,66.625 L33.5583,70.462 C34.6473,71.551 36.5093,70.78 36.5093,69.24 L36.5093,38.34 C36.5093,35.6 38.7313,33.378 41.4713,33.378 C44.2113,33.378 46.4333,35.6 46.4333,38.34 L46.4333,68.088" id="Fill-38" fill="#E2EFF3" mask="url(#mask-2)"></path>
                <path d="M41.4713,143.0564 C40.7323,143.0564 40.1343,142.4584 40.1343,141.7194 L40.1343,101.8174 C40.1343,94.6154 25.7683,80.9374 20.2333,76.2744 C18.7443,74.7924 17.9703,72.9244 17.9703,70.9384 C17.9703,68.9514 18.7443,67.0834 20.1493,65.6804 C21.5533,64.2754 23.4213,63.5004 25.4083,63.5004 C27.3943,63.5004 29.2623,64.2754 30.6663,65.6804 L34.5033,69.5164 C34.6563,69.6694 34.8203,69.6454 34.9313,69.6014 C35.0413,69.5564 35.1733,69.4554 35.1733,69.2404 L35.1733,38.3394 C35.1733,34.8674 37.9983,32.0414 41.4713,32.0414 C44.9453,32.0414 47.7703,34.8674 47.7703,38.3394 L47.7703,68.0884 C47.7703,68.8274 47.1723,69.4254 46.4333,69.4254 C45.6943,69.4254 45.0963,68.8274 45.0963,68.0884 L45.0963,38.3394 C45.0963,36.3414 43.4693,34.7154 41.4713,34.7154 C39.4723,34.7154 37.8473,36.3414 37.8473,38.3394 L37.8473,69.2404 C37.8473,70.4844 37.1043,71.5954 35.9533,72.0714 C34.8053,72.5484 33.4923,72.2854 32.6133,71.4074 L28.7763,67.5704 C26.9773,65.7694 23.8383,65.7724 22.0393,67.5704 C21.1403,68.4694 20.6443,69.6654 20.6443,70.9384 C20.6443,72.2094 21.1403,73.4074 22.0393,74.3064 C22.8073,74.9464 42.8083,91.9034 42.8083,101.8174 L42.8083,141.7194 C42.8083,142.4584 42.2093,143.0564 41.4713,143.0564" id="Fill-39" fill="#2F3061" mask="url(#mask-2)"></path>
                <path d="M66.2809,68.0881 L66.2809,42.6001 C66.2809,39.8601 68.5029,37.6381 71.2429,37.6381 C73.9829,37.6381 76.2049,39.8601 76.2049,42.6001 L76.2049,75.5431 C76.2049,83.3441 74.3309,91.4811 72.8849,96.5941 C71.8039,100.4201 71.2429,141.7191 71.2429,141.7191" id="Fill-40" fill="#E2EFF3" mask="url(#mask-2)"></path>
                <path d="M71.2448,143.0564 C71.2138,143.0564 71.1808,143.0554 71.1488,143.0524 C70.4128,143.0004 69.8578,142.3624 69.9108,141.6254 C69.9328,141.2964 70.4938,100.1424 71.5988,96.2314 C73.0908,90.9554 74.8678,83.0834 74.8678,75.5424 L74.8678,42.6004 C74.8678,40.6024 73.2418,38.9754 71.2428,38.9754 C69.2448,38.9754 67.6178,40.6024 67.6178,42.6004 L67.6178,68.0884 C67.6178,68.8274 67.0198,69.4254 66.2808,69.4254 C65.5418,69.4254 64.9438,68.8274 64.9438,68.0884 L64.9438,42.6004 C64.9438,39.1264 67.7688,36.3024 71.2428,36.3024 C74.7158,36.3024 77.5408,39.1264 77.5408,42.6004 L77.5408,75.5424 C77.5408,83.3904 75.7098,91.5194 74.1718,96.9574 C73.1408,100.6084 72.5828,141.7364 72.5758,141.8134 C72.5268,142.5184 71.9398,143.0564 71.2448,143.0564" id="Fill-41" fill="#2F3061" mask="url(#mask-2)"></path>
                <path d="M42.3551,70.8611 C42.3551,71.4491 41.8781,71.9261 41.2901,71.9261 C40.7021,71.9261 40.2251,71.4491 40.2251,70.8611 C40.2251,70.2731 40.7021,69.7961 41.2901,69.7961 C41.8781,69.7961 42.3551,70.2731 42.3551,70.8611" id="Fill-42" fill="#2F3061" mask="url(#mask-2)"></path>
                <path d="M52.4606,70.8611 C52.4606,71.4491 51.9826,71.9261 51.3956,71.9261 C50.8076,71.9261 50.3296,71.4491 50.3296,70.8611 C50.3296,70.2731 50.8076,69.7961 51.3956,69.7961 C51.9826,69.7961 52.4606,70.2731 52.4606,70.8611" id="Fill-43" fill="#2F3061" mask="url(#mask-2)"></path>
                <path d="M62.2936,70.8611 C62.2936,71.4491 61.8156,71.9261 61.2286,71.9261 C60.6406,71.9261 60.1626,71.4491 60.1626,70.8611 C60.1626,70.2731 60.6406,69.7961 61.2286,69.7961 C61.8156,69.7961 62.2936,70.2731 62.2936,70.8611" id="Fill-44" fill="#2F3061" mask="url(#mask-2)"></path>
                <path d="M72.3981,70.8611 C72.3981,71.4491 71.9211,71.9261 71.3341,71.9261 C70.7451,71.9261 70.2681,71.4491 70.2681,70.8611 C70.2681,70.2731 70.7451,69.7961 71.3341,69.7961 C71.9211,69.7961 72.3981,70.2731 72.3981,70.8611" id="Fill-45" fill="#2F3061" mask="url(#mask-2)"></path>
            </g>
        </g>
    </g>
</svg>