<?xml version="1.0" encoding="UTF-8"?>
<svg width="95px" height="80px" viewBox="0 0 95 80" version="1.1" xmlns="http://www.w3.org/2000/svg" xmlns:xlink="http://www.w3.org/1999/xlink">
    <!-- Generator: Sketch 50.2 (55047) - http://www.bohemiancoding.com/sketch -->
    <title>Artboard</title>
    <desc>Created with Sketch.</desc>
    <defs>
        <path d="M1.516,2.039 C-4.874,25.8 10.539,38.135 17.949,42.545 L22.538,31.397 C4.45,22.658 5.667,7.037 5.792,2.864 C5.839,1.384 5.267,0.49 3.987,0.389 C3.893,0.381 3.802,0.378 3.715,0.378 C1.846,0.378 1.516,2.039 1.516,2.039" id="path-1"></path>
        <path d="M19.39,0.389 C18.11,0.49 17.538,1.384 17.585,2.864 C17.71,7.037 18.927,22.658 0.839,31.397 L5.429,42.545 C12.838,38.135 28.251,25.8 21.86,2.039 C21.86,2.039 21.532,0.378 19.662,0.378 C19.575,0.378 19.484,0.381 19.39,0.389" id="path-3"></path>
    </defs>
    <g id="Artboard" stroke="none" stroke-width="1" fill="none" fill-rule="evenodd">
        <g id="Page-1" transform="translate(47.500000, 47.000000) rotate(-345.000000) translate(-47.500000, -47.000000) translate(10.000000, 10.000000)">
            <path d="M17.9483,43.1671 C10.5393,38.7571 -4.8737,26.4221 1.5163,2.6601 C1.5163,2.6601 1.8773,0.8411 3.9873,1.0111 C5.2663,1.1111 5.8393,2.0061 5.7923,3.4851 C5.6673,7.6591 4.4503,23.2791 22.5383,32.0191 L17.9483,43.1671 Z" id="Fill-1" fill="#D1CAA1"></path>
            <g id="Group-5" transform="translate(0.000000, 0.621700)">
                <mask id="mask-2" fill="white">
                    <use xlink:href="#path-1"></use>
                </mask>
                <g id="Clip-4"></g>
                <path d="M22.5342,31.395 L20.5242,36.285 C13.3852,31.845 0.3242,20.755 3.8352,0.375 C3.8852,0.375 3.9342,0.375 3.9842,0.385 C5.2642,0.485 5.8352,1.385 5.7942,2.865 C5.6652,7.035 4.4542,22.655 22.5342,31.395" id="Fill-3" fill="#E2DBBA" mask="url(#mask-2)"></path>
            </g>
            <g id="Group-10" transform="translate(0.000000, 0.621700)">
                <path d="M17.9483,42.5454 C10.5393,38.1354 -4.8737,25.8004 1.5163,2.0384 C1.5163,2.0384 1.8773,0.2194 3.9873,0.3894 C5.2663,0.4894 5.8393,1.3844 5.7923,2.8634 C5.6673,7.0374 4.4503,22.6574 22.5383,31.3974 L17.9483,42.5454 Z" id="Stroke-6" stroke="#2F3061" stroke-width="2" stroke-linecap="round" stroke-linejoin="round"></path>
                <path d="M56.4288,42.5454 C63.8378,38.1354 79.2508,25.8004 72.8608,2.0384 C72.8608,2.0384 72.4998,0.2194 70.3898,0.3894 C69.1108,0.4894 68.5378,1.3844 68.5848,2.8634 C68.7098,7.0374 69.9268,22.6574 51.8388,31.3974 L56.4288,42.5454 Z" id="Fill-8" fill="#D1CAA1"></path>
            </g>
            <g id="Group-13" transform="translate(51.000000, 0.621700)">
                <mask id="mask-4" fill="white">
                    <use xlink:href="#path-3"></use>
                </mask>
                <g id="Clip-12"></g>
                <path d="M0.8428,31.395 L2.8528,36.285 C9.9918,31.845 23.0528,20.755 19.5418,0.375 C19.4918,0.375 19.4428,0.375 19.3928,0.385 C18.1128,0.485 17.5418,1.385 17.5818,2.865 C17.7118,7.035 18.9218,22.655 0.8428,31.395" id="Fill-11" fill="#E2DBBA" mask="url(#mask-4)"></path>
            </g>
            <g id="Group-52" transform="translate(11.000000, 0.621700)">
                <path d="M45.4288,42.5454 C52.8378,38.1354 68.2508,25.8004 61.8608,2.0384 C61.8608,2.0384 61.4998,0.2194 59.3898,0.3894 C58.1108,0.4894 57.5378,1.3844 57.5848,2.8634 C57.7098,7.0374 58.9268,22.6574 40.8388,31.3974 L45.4288,42.5454 Z" id="Stroke-14" stroke="#2F3061" stroke-width="2" stroke-linecap="round" stroke-linejoin="round"></path>
                <path d="M30.2452,22.6548 L30.2452,52.4948 C27.5442,52.6758 24.7652,52.6758 22.0642,52.4948 L22.0642,22.6548 C23.3942,22.3148 24.7552,22.1348 26.1542,22.1348 C27.5552,22.1348 28.9152,22.3148 30.2452,22.6548" id="Fill-16" fill="#E2EFF3"></path>
                <path d="M30.2452,22.6548 L30.2452,52.4948 C27.5442,52.6758 24.7652,52.6758 22.0642,52.4948 L22.0642,22.6548 C23.3942,22.3148 24.7552,22.1348 26.1542,22.1348 C27.5552,22.1348 28.9152,22.3148 30.2452,22.6548 Z" id="Stroke-18" stroke="#2F3061" stroke-width="2" stroke-linecap="round" stroke-linejoin="round"></path>
                <path d="M49.4541,51.315 C49.4541,56.985 40.3851,60.165 30.2451,60.836 C30.0441,60.845 29.8451,60.865 29.6441,60.865 L29.2451,72.865 C26.5441,73.045 25.7651,73.045 23.0641,72.865 L22.6651,60.865 C22.4641,60.865 22.2651,60.845 22.0641,60.836 C11.9251,60.165 2.8541,56.985 2.8541,51.315 C2.8541,49.405 3.0851,47.445 3.5151,45.495 C5.7651,49.595 13.5441,51.925 22.0641,52.495 C22.1751,52.505 22.2741,52.505 22.3851,52.515 C24.8741,52.665 27.4341,52.665 29.9251,52.515 C30.0341,52.505 30.1351,52.505 30.2451,52.495 C38.7651,51.925 46.5441,49.595 48.7941,45.495 C49.2251,47.445 49.4541,49.405 49.4541,51.315" id="Fill-20" fill="#E2EFF3"></path>
                <path d="M49.4541,51.315 C49.4541,56.985 40.3851,60.165 30.2451,60.836 C30.0441,60.845 29.8451,60.865 29.6441,60.865 L29.2451,72.865 C26.5441,73.045 25.7651,73.045 23.0641,72.865 L22.6651,60.865 C22.4641,60.865 22.2651,60.845 22.0641,60.836 C11.9251,60.165 2.8541,56.985 2.8541,51.315 C2.8541,49.405 3.0851,47.445 3.5151,45.495 C5.7651,49.595 13.5441,51.925 22.0641,52.495 C22.1751,52.505 22.2741,52.505 22.3851,52.515 C24.8741,52.665 27.4341,52.665 29.9251,52.515 C30.0341,52.505 30.1351,52.505 30.2451,52.495 C38.7651,51.925 46.5441,49.595 48.7941,45.495 C49.2251,47.445 49.4541,49.405 49.4541,51.315 Z" id="Stroke-22" stroke="#2F3061" stroke-width="2" stroke-linecap="round" stroke-linejoin="round"></path>
                <path d="M22.0645,22.6548 L22.0645,52.4948 C13.5435,51.9258 5.7645,49.5948 3.5145,45.4948 C3.7045,44.6548 3.9245,43.8148 4.1845,42.9748 C6.9445,34.0648 13.7455,24.7648 22.0645,22.6548" id="Fill-24" fill="#A5D9E4"></path>
                <path d="M22.0645,22.6548 L22.0645,52.4948 C13.5435,51.9258 5.7645,49.5948 3.5145,45.4948 C3.7045,44.6548 3.9245,43.8148 4.1845,42.9748 C6.9445,34.0648 13.7455,24.7648 22.0645,22.6548 Z" id="Stroke-26" stroke="#2F3061" stroke-width="2" stroke-linecap="round" stroke-linejoin="round"></path>
                <path d="M48.794,45.4946 C46.544,49.5956 38.765,51.9256 30.245,52.4946 L30.245,22.6546 C38.565,24.7656 45.364,34.0646 48.124,42.9746 C48.385,43.8146 48.605,44.6546 48.794,45.4946" id="Fill-28" fill="#A5D9E4"></path>
                <path d="M48.794,45.4946 C46.544,49.5956 38.765,51.9256 30.245,52.4946 L30.245,22.6546 C38.565,24.7656 45.364,34.0646 48.124,42.9746 C48.385,43.8146 48.605,44.6546 48.794,45.4946 Z" id="Stroke-30" stroke="#2F3061" stroke-width="2" stroke-linecap="round" stroke-linejoin="round"></path>
                <path d="M27.6543,28.6353 C27.6543,29.4633 26.9833,30.1353 26.1543,30.1353 C25.3263,30.1353 24.6543,29.4633 24.6543,28.6353 C24.6543,27.8063 25.3263,27.1353 26.1543,27.1353 C26.9833,27.1353 27.6543,27.8063 27.6543,28.6353" id="Fill-32" fill="#2F3061"></path>
                <path d="M27.6543,37.3823 C27.6543,38.2103 26.9833,38.8823 26.1543,38.8823 C25.3263,38.8823 24.6543,38.2103 24.6543,37.3823 C24.6543,36.5543 25.3263,35.8823 26.1543,35.8823 C26.9833,35.8823 27.6543,36.5543 27.6543,37.3823" id="Fill-34" fill="#2F3061"></path>
                <path d="M27.6543,46.1304 C27.6543,46.9584 26.9833,47.6304 26.1543,47.6304 C25.3263,47.6304 24.6543,46.9584 24.6543,46.1304 C24.6543,45.3014 25.3263,44.6304 26.1543,44.6304 C26.9833,44.6304 27.6543,45.3014 27.6543,46.1304" id="Fill-36" fill="#2F3061"></path>
                <path d="M10.5147,53.9946 C10.5147,54.8236 9.8427,55.4946 9.0147,55.4946 C8.1857,55.4946 7.5147,54.8236 7.5147,53.9946 C7.5147,53.1666 8.1857,52.4946 9.0147,52.4946 C9.8427,52.4946 10.5147,53.1666 10.5147,53.9946" id="Fill-38" fill="#2F3061"></path>
                <path d="M21.9415,56.69 C21.9415,57.519 21.2695,58.19 20.4415,58.19 C19.6125,58.19 18.9415,57.519 18.9415,56.69 C18.9415,55.862 19.6125,55.19 20.4415,55.19 C21.2695,55.19 21.9415,55.862 21.9415,56.69" id="Fill-40" fill="#2F3061"></path>
                <path d="M33.3682,56.69 C33.3682,57.519 32.6962,58.19 31.8682,58.19 C31.0392,58.19 30.3682,57.519 30.3682,56.69 C30.3682,55.862 31.0392,55.19 31.8682,55.19 C32.6962,55.19 33.3682,55.862 33.3682,56.69" id="Fill-42" fill="#2F3061"></path>
                <path d="M44.794,53.9946 C44.794,54.8236 44.123,55.4946 43.294,55.4946 C42.466,55.4946 41.794,54.8236 41.794,53.9946 C41.794,53.1666 42.466,52.4946 43.294,52.4946 C44.123,52.4946 44.794,53.1666 44.794,53.9946" id="Fill-44" fill="#2F3061"></path>
                <path d="M51.794,50.1597 C51.794,50.9877 51.123,51.6597 50.294,51.6597 C49.466,51.6597 48.794,50.9877 48.794,50.1597 C48.794,49.3317 49.466,48.6597 50.294,48.6597 C51.123,48.6597 51.794,49.3317 51.794,50.1597" id="Fill-46" fill="#2F3061"></path>
                <path d="M3.5147,50.1597 C3.5147,50.9877 2.8427,51.6597 2.0147,51.6597 C1.1857,51.6597 0.5147,50.9877 0.5147,50.1597 C0.5147,49.3317 1.1857,48.6597 2.0147,48.6597 C2.8427,48.6597 3.5147,49.3317 3.5147,50.1597" id="Fill-48" fill="#2F3061"></path>
                <path d="M11.3995,36.7515 C12.8355,34.3605 14.6185,32.1845 16.6485,30.5275" id="Stroke-50" stroke="#D4FAFF" stroke-width="2" stroke-linecap="round" stroke-linejoin="round"></path>
            </g>
        </g>
    </g>
</svg>