<?xml version="1.0" encoding="UTF-8"?>
<svg width="156px" height="140px" viewBox="0 0 156 140" version="1.1" xmlns="http://www.w3.org/2000/svg" xmlns:xlink="http://www.w3.org/1999/xlink">
    <!-- Generator: Sketch 50.2 (55047) - http://www.bohemiancoding.com/sketch -->
    <title>Artboard</title>
    <desc>Created with Sketch.</desc>
    <defs>
        <path d="M0.439,70.533 C0.439,109.193 31.78,140.533 70.439,140.533 C109.1,140.533 140.439,109.193 140.439,70.533 C140.439,31.873 109.1,0.533 70.439,0.533 C31.78,0.533 0.439,31.873 0.439,70.533 Z" id="path-1"></path>
        <path d="M0.439,70.533 C0.439,109.193 31.78,140.533 70.439,140.533 C109.1,140.533 140.439,109.193 140.439,70.533 C140.439,31.873 109.1,0.533 70.439,0.533 C31.78,0.533 0.439,31.873 0.439,70.533" id="path-3"></path>
        <path d="M0.439,70.533 C0.439,109.193 31.78,140.533 70.439,140.533 C109.1,140.533 140.439,109.193 140.439,70.533 C140.439,31.873 109.1,0.533 70.439,0.533 C31.78,0.533 0.439,31.873 0.439,70.533" id="path-5"></path>
        <path d="M0.439,70.533 C0.439,109.193 31.78,140.533 70.439,140.533 C109.1,140.533 140.439,109.193 140.439,70.533 C140.439,31.873 109.1,0.533 70.439,0.533 C31.78,0.533 0.439,31.873 0.439,70.533" id="path-7"></path>
        <path d="M0.439,70.533 C0.439,109.193 31.78,140.533 70.439,140.533 C109.1,140.533 140.439,109.193 140.439,70.533 C140.439,31.873 109.1,0.533 70.439,0.533 C31.78,0.533 0.439,31.873 0.439,70.533" id="path-9"></path>
        <path d="M0.439,70.533 C0.439,109.193 31.78,140.533 70.439,140.533 C109.1,140.533 140.439,109.193 140.439,70.533 C140.439,31.873 109.1,0.533 70.439,0.533 C31.78,0.533 0.439,31.873 0.439,70.533" id="path-11"></path>
        <path d="M0.439,70.533 C0.439,109.193 31.78,140.533 70.439,140.533 C109.1,140.533 140.439,109.193 140.439,70.533 C140.439,31.873 109.1,0.533 70.439,0.533 C31.78,0.533 0.439,31.873 0.439,70.533" id="path-13"></path>
        <path d="M0.439,70.533 C0.439,109.193 31.78,140.533 70.439,140.533 C109.1,140.533 140.439,109.193 140.439,70.533 C140.439,31.873 109.1,0.533 70.439,0.533 C31.78,0.533 0.439,31.873 0.439,70.533" id="path-15"></path>
        <path d="M0.439,70.533 C0.439,109.193 31.78,140.533 70.439,140.533 C109.1,140.533 140.439,109.193 140.439,70.533 C140.439,31.873 109.1,0.533 70.439,0.533 C31.78,0.533 0.439,31.873 0.439,70.533" id="path-17"></path>
        <path d="M0.439,70.533 C0.439,109.193 31.78,140.533 70.439,140.533 C109.1,140.533 140.439,109.193 140.439,70.533 C140.439,31.873 109.1,0.533 70.439,0.533 C31.78,0.533 0.439,31.873 0.439,70.533 Z" id="path-19"></path>
        <path d="M0.439,70.533 C0.439,109.193 31.78,140.533 70.439,140.533 C109.1,140.533 140.439,109.193 140.439,70.533 C140.439,31.873 109.1,0.533 70.439,0.533 C31.78,0.533 0.439,31.873 0.439,70.533" id="path-21"></path>
        <path d="M0.439,70.533 C0.439,109.193 31.78,140.533 70.439,140.533 C109.1,140.533 140.439,109.193 140.439,70.533 C140.439,31.873 109.1,0.533 70.439,0.533 C31.78,0.533 0.439,31.873 0.439,70.533" id="path-23"></path>
        <path d="M0.439,70.533 C0.439,109.193 31.78,140.533 70.439,140.533 C109.1,140.533 140.439,109.193 140.439,70.533 C140.439,31.873 109.1,0.533 70.439,0.533 C31.78,0.533 0.439,31.873 0.439,70.533" id="path-25"></path>
        <path d="M0.439,70.533 C0.439,109.193 31.78,140.533 70.439,140.533 C109.1,140.533 140.439,109.193 140.439,70.533 C140.439,31.873 109.1,0.533 70.439,0.533 C31.78,0.533 0.439,31.873 0.439,70.533" id="path-27"></path>
        <path d="M0.439,70.533 C0.439,109.193 31.78,140.533 70.439,140.533 C109.1,140.533 140.439,109.193 140.439,70.533 C140.439,31.873 109.1,0.533 70.439,0.533 C31.78,0.533 0.439,31.873 0.439,70.533" id="path-29"></path>
        <path d="M0.439,70.533 C0.439,109.193 31.78,140.533 70.439,140.533 C109.1,140.533 140.439,109.193 140.439,70.533 C140.439,31.873 109.1,0.533 70.439,0.533 C31.78,0.533 0.439,31.873 0.439,70.533" id="path-31"></path>
        <path d="M0.439,70.533 C0.439,109.193 31.78,140.533 70.439,140.533 C109.1,140.533 140.439,109.193 140.439,70.533 C140.439,31.873 109.1,0.533 70.439,0.533 C31.78,0.533 0.439,31.873 0.439,70.533" id="path-33"></path>
        <path d="M0.439,70.533 C0.439,109.193 31.78,140.533 70.439,140.533 C109.1,140.533 140.439,109.193 140.439,70.533 C140.439,31.873 109.1,0.533 70.439,0.533 C31.78,0.533 0.439,31.873 0.439,70.533" id="path-35"></path>
        <path d="M0.439,70.533 C0.439,109.193 31.78,140.533 70.439,140.533 C109.1,140.533 140.439,109.193 140.439,70.533 C140.439,31.873 109.1,0.533 70.439,0.533 C31.78,0.533 0.439,31.873 0.439,70.533" id="path-37"></path>
    </defs>
    <g id="Artboard" stroke="none" stroke-width="1" fill="none" fill-rule="evenodd">
        <g id="Page-1" transform="translate(77.500000, 70.000000) rotate(-15.000000) translate(-77.500000, -70.000000) translate(5.000000, -1.000000)">
            <path d="M142.4393,71.1106 C142.4393,109.7706 111.0993,141.1106 72.4393,141.1106 C33.7793,141.1106 2.4393,109.7706 2.4393,71.1106 C2.4393,32.4506 33.7793,1.1106 72.4393,1.1106 C111.0993,1.1106 142.4393,32.4506 142.4393,71.1106" id="Fill-1" fill="#FFA770"></path>
            <g id="Group-68" transform="translate(2.000000, 0.578000)">
                <g id="Group-5">
                    <mask id="mask-2" fill="white">
                        <use xlink:href="#path-1"></use>
                    </mask>
                    <g id="Clip-4"></g>
                    <polygon id="Fill-3" fill="#E2EFF3" mask="url(#mask-2)" points="100.5116 91.3232 107.5606 140.0202 130.7956 136.6562 123.7466 87.9592"></polygon>
                </g>
                <g id="Group-9">
                    <mask id="mask-4" fill="white">
                        <use xlink:href="#path-3"></use>
                    </mask>
                    <g id="Clip-7"></g>
                    <path d="M112.8231,94.4394 L109.5031,71.5024 C109.1971,69.3894 110.6621,67.4284 112.7751,67.1224 C114.8881,66.8164 116.8491,68.2814 117.1551,70.3944 L120.4751,93.3314" id="Fill-6" fill="#E2EFF3" mask="url(#mask-4)"></path>
                    <path d="M112.8231,94.4394 L109.5031,71.5024 C109.1971,69.3894 110.6621,67.4284 112.7751,67.1224 C114.8881,66.8164 116.8491,68.2814 117.1551,70.3944 L120.4751,93.3314" id="Stroke-8" stroke="#2F3061" stroke-width="2" stroke-linecap="round" stroke-linejoin="round" mask="url(#mask-4)"></path>
                </g>
                <g id="Group-13">
                    <mask id="mask-6" fill="white">
                        <use xlink:href="#path-5"></use>
                    </mask>
                    <g id="Clip-11"></g>
                    <path d="M105.1718,95.5468 L101.3758,69.3248 C101.0698,67.2118 102.5348,65.2508 104.6488,64.9448 C106.7608,64.6388 108.7218,66.1038 109.0268,68.2168 L112.8228,94.4398" id="Fill-10" fill="#E2EFF3" mask="url(#mask-6)"></path>
                    <path d="M105.1718,95.5468 L101.3758,69.3248 C101.0698,67.2118 102.5348,65.2508 104.6488,64.9448 C106.7608,64.6388 108.7218,66.1038 109.0268,68.2168 L112.8228,94.4398" id="Stroke-12" stroke="#2F3061" stroke-width="2" stroke-linecap="round" stroke-linejoin="round" mask="url(#mask-6)"></path>
                </g>
                <g id="Group-17">
                    <mask id="mask-8" fill="white">
                        <use xlink:href="#path-7"></use>
                    </mask>
                    <g id="Clip-15"></g>
                    <path d="M105.1718,95.5468 L103.1938,81.8868 C102.8888,79.7738 100.9278,78.3088 98.8148,78.6148 C96.7008,78.9208 95.2358,80.8808 95.5418,82.9948 L97.6488,97.5428 C97.8198,98.7298 96.4708,99.5328 95.5088,98.8148 L92.1218,96.2838 C90.0198,94.7128 87.0408,95.1438 85.4708,97.2468 C83.8998,99.3498 84.3298,102.3278 86.4338,103.8988 C86.4338,103.8988 104.0608,114.8558 105.1098,122.1088 L105.8388,127.1398 L107.6998,139.9998" id="Fill-14" fill="#E2EFF3" mask="url(#mask-8)"></path>
                    <path d="M105.1718,95.5468 L103.1938,81.8868 C102.8888,79.7738 100.9278,78.3088 98.8148,78.6148 C96.7008,78.9208 95.2358,80.8808 95.5418,82.9948 L97.6488,97.5428 C97.8198,98.7298 96.4708,99.5328 95.5088,98.8148 L92.1218,96.2838 C90.0198,94.7128 87.0408,95.1438 85.4708,97.2468 C83.8998,99.3498 84.3298,102.3278 86.4338,103.8988 C86.4338,103.8988 104.0608,114.8558 105.1098,122.1088 L105.8388,127.1398 L107.6998,139.9998" id="Stroke-16" stroke="#2F3061" stroke-width="2" stroke-linecap="round" stroke-linejoin="round" mask="url(#mask-8)"></path>
                </g>
                <g id="Group-21">
                    <mask id="mask-10" fill="white">
                        <use xlink:href="#path-9"></use>
                    </mask>
                    <g id="Clip-19"></g>
                    <path d="M120.4755,93.3315 L117.6305,73.6795 C117.3255,71.5655 118.7895,69.6045 120.9025,69.2995 C123.0155,68.9935 124.9765,70.4585 125.2825,72.5715 L128.9585,97.9725 C129.8295,103.9875 129.2925,110.4705 128.7495,114.5745 C128.3435,117.6445 128.7945,123.8175 128.7945,123.8175 L130.6565,136.6775" id="Fill-18" fill="#E2EFF3" mask="url(#mask-10)"></path>
                    <path d="M120.4755,93.3315 L117.6305,73.6795 C117.3255,71.5655 118.7895,69.6045 120.9025,69.2995 C123.0155,68.9935 124.9765,70.4585 125.2825,72.5715 L128.9585,97.9725 C129.8295,103.9875 129.2925,110.4705 128.7495,114.5745 C128.3435,117.6445 128.7945,123.8175 128.7945,123.8175 L130.6565,136.6775" id="Stroke-20" stroke="#2F3061" stroke-width="2" stroke-linecap="round" stroke-linejoin="round" mask="url(#mask-10)"></path>
                </g>
                <g id="Group-24">
                    <mask id="mask-12" fill="white">
                        <use xlink:href="#path-11"></use>
                    </mask>
                    <g id="Clip-23"></g>
                    <path d="M102.3368,98.14 C102.4018,98.594 102.0878,99.015 101.6338,99.08 C101.1808,99.146 100.7598,98.831 100.6938,98.378 C100.6288,97.924 100.9428,97.503 101.3968,97.438 C101.8498,97.372 102.2708,97.686 102.3368,98.14" id="Fill-22" fill="#2F3061" mask="url(#mask-12)"></path>
                </g>
                <g id="Group-27">
                    <mask id="mask-14" fill="white">
                        <use xlink:href="#path-13"></use>
                    </mask>
                    <g id="Clip-26"></g>
                    <path d="M110.1278,97.0121 C110.1938,97.4661 109.8798,97.8871 109.4258,97.9521 C108.9728,98.0181 108.5518,97.7031 108.4858,97.2501 C108.4198,96.7961 108.7338,96.3751 109.1888,96.3101 C109.6418,96.2441 110.0628,96.5581 110.1278,97.0121" id="Fill-25" fill="#2F3061" mask="url(#mask-14)"></path>
                </g>
                <g id="Group-30">
                    <mask id="mask-16" fill="white">
                        <use xlink:href="#path-15"></use>
                    </mask>
                    <g id="Clip-29"></g>
                    <path d="M117.7099,95.9149 C117.7759,96.3679 117.4619,96.7889 117.0079,96.8549 C116.5549,96.9199 116.1339,96.6059 116.0669,96.1519 C116.0019,95.6989 116.3159,95.2779 116.7709,95.2119 C117.2239,95.1469 117.6449,95.4609 117.7099,95.9149" id="Fill-28" fill="#2F3061" mask="url(#mask-16)"></path>
                </g>
                <g id="Group-33">
                    <mask id="mask-18" fill="white">
                        <use xlink:href="#path-17"></use>
                    </mask>
                    <g id="Clip-32"></g>
                    <path d="M125.5018,94.787 C125.5668,95.24 125.2528,95.661 124.7998,95.727 C124.3458,95.792 123.9248,95.478 123.8588,95.025 C123.7938,94.571 124.1078,94.15 124.5618,94.084 C125.0158,94.019 125.4368,94.333 125.5018,94.787" id="Fill-31" fill="#2F3061" mask="url(#mask-18)"></path>
                </g>
                <g id="Group-36">
                    <mask id="mask-20" fill="white">
                        <use xlink:href="#path-19"></use>
                    </mask>
                    <g id="Clip-35"></g>
                    <polygon id="Fill-34" fill="#E2EFF3" mask="url(#mask-20)" points="50.2802 86.641 39.8362 134.724 16.8932 129.741 27.3382 81.658"></polygon>
                </g>
                <g id="Group-40">
                    <mask id="mask-22" fill="white">
                        <use xlink:href="#path-21"></use>
                    </mask>
                    <g id="Clip-38"></g>
                    <path d="M37.7802,88.8866 L40.4892,76.4166 C40.9422,74.3296 39.6182,72.2716 37.5322,71.8186 C35.4452,71.3656 33.3862,72.6886 32.9332,74.7756 L30.2242,87.2456" id="Fill-37" fill="#E2EFF3" mask="url(#mask-22)"></path>
                    <path d="M37.7802,88.8866 L40.4892,76.4166 C40.9422,74.3296 39.6182,72.2716 37.5322,71.8186 C35.4452,71.3656 33.3862,72.6886 32.9332,74.7756 L30.2242,87.2456" id="Stroke-39" stroke="#2F3061" stroke-width="2" stroke-linecap="round" stroke-linejoin="round" mask="url(#mask-22)"></path>
                </g>
                <g id="Group-44">
                    <mask id="mask-24" fill="white">
                        <use xlink:href="#path-23"></use>
                    </mask>
                    <g id="Clip-42"></g>
                    <path d="M45.3358,90.5277 L50.9598,64.6357 C51.4128,62.5497 50.0888,60.4907 48.0028,60.0377 C45.9158,59.5847 43.8568,60.9087 43.4038,62.9947 L37.7798,88.8867" id="Fill-41" fill="#E2EFF3" mask="url(#mask-24)"></path>
                    <path d="M45.3358,90.5277 L50.9598,64.6357 C51.4128,62.5497 50.0888,60.4907 48.0028,60.0377 C45.9158,59.5847 43.8568,60.9087 43.4038,62.9947 L37.7798,88.8867" id="Stroke-43" stroke="#2F3061" stroke-width="2" stroke-linecap="round" stroke-linejoin="round" mask="url(#mask-24)"></path>
                </g>
                <g id="Group-48">
                    <mask id="mask-26" fill="white">
                        <use xlink:href="#path-25"></use>
                    </mask>
                    <g id="Clip-46"></g>
                    <path d="M45.3358,90.5277 L50.0338,68.8977 C50.4868,66.8107 52.5458,65.4867 54.6328,65.9407 C56.7188,66.3937 58.0428,68.4517 57.5898,70.5387 L52.7008,93.0457 C52.4458,94.2177 53.7358,95.1137 54.7448,94.4647 L58.3018,92.1777 C60.5098,90.7577 63.4498,91.3967 64.8698,93.6037 C66.2888,95.8117 65.6498,98.7527 63.4428,100.1727 C63.4428,100.1727 45.0908,109.8667 43.5348,117.0287 L42.4558,121.9967 L39.6978,134.6947" id="Fill-45" fill="#E2EFF3" mask="url(#mask-26)"></path>
                    <path d="M45.3358,90.5277 L50.0338,68.8977 C50.4868,66.8107 52.5458,65.4867 54.6328,65.9407 C56.7188,66.3937 58.0428,68.4517 57.5898,70.5387 L52.7008,93.0457 C52.4458,94.2177 53.7358,95.1137 54.7448,94.4647 L58.3018,92.1777 C60.5098,90.7577 63.4498,91.3967 64.8698,93.6037 C66.2888,95.8117 65.6498,98.7527 63.4428,100.1727 C63.4428,100.1727 45.0908,109.8667 43.5348,117.0287 L42.4558,121.9967 L39.6978,134.6947" id="Stroke-47" stroke="#2F3061" stroke-width="2" stroke-linecap="round" stroke-linejoin="round" mask="url(#mask-26)"></path>
                </g>
                <g id="Group-52">
                    <mask id="mask-28" fill="white">
                        <use xlink:href="#path-27"></use>
                    </mask>
                    <g id="Clip-50"></g>
                    <path d="M30.2245,87.2455 L32.2295,78.0185 C32.6825,75.9325 31.3585,73.8735 29.2715,73.4205 C27.1855,72.9675 25.1265,74.2915 24.6735,76.3775 L21.4365,91.2805 C20.1465,97.2195 20.2275,103.7245 20.4825,107.8565 C20.6725,110.9475 19.7895,117.0735 19.7895,117.0735 L17.0325,129.7715" id="Fill-49" fill="#E2EFF3" mask="url(#mask-28)"></path>
                    <path d="M30.2245,87.2455 L32.2295,78.0185 C32.6825,75.9325 31.3585,73.8735 29.2715,73.4205 C27.1855,72.9675 25.1265,74.2915 24.6735,76.3775 L21.4365,91.2805 C20.1465,97.2195 20.2275,103.7245 20.4825,107.8565 C20.6725,110.9475 19.7895,117.0735 19.7895,117.0735 L17.0325,129.7715" id="Stroke-51" stroke="#2F3061" stroke-width="2" stroke-linecap="round" stroke-linejoin="round" mask="url(#mask-28)"></path>
                </g>
                <g id="Group-55">
                    <mask id="mask-30" fill="white">
                        <use xlink:href="#path-29"></use>
                    </mask>
                    <g id="Clip-54"></g>
                    <path d="M47.9823,93.3134 C47.8843,93.7614 48.1693,94.2034 48.6173,94.3004 C49.0643,94.3974 49.5063,94.1134 49.6033,93.6664 C49.7013,93.2174 49.4173,92.7754 48.9683,92.6784 C48.5213,92.5814 48.0793,92.8654 47.9823,93.3134" id="Fill-53" fill="#2F3061" mask="url(#mask-30)"></path>
                </g>
                <g id="Group-58">
                    <mask id="mask-32" fill="white">
                        <use xlink:href="#path-31"></use>
                    </mask>
                    <g id="Clip-57"></g>
                    <path d="M40.289,91.6425 C40.191,92.0905 40.476,92.5325 40.924,92.6295 C41.371,92.7265 41.813,92.4425 41.91,91.9945 C42.008,91.5465 41.724,91.1045 41.275,91.0075 C40.828,90.9105 40.386,91.1945 40.289,91.6425" id="Fill-56" fill="#2F3061" mask="url(#mask-32)"></path>
                </g>
                <g id="Group-61">
                    <mask id="mask-34" fill="white">
                        <use xlink:href="#path-33"></use>
                    </mask>
                    <g id="Clip-60"></g>
                    <path d="M32.8017,90.016 C32.7047,90.464 32.9887,90.906 33.4367,91.003 C33.8847,91.1 34.3267,90.816 34.4237,90.369 C34.5217,89.921 34.2377,89.479 33.7887,89.382 C33.3417,89.284 32.8997,89.568 32.8017,90.016" id="Fill-59" fill="#2F3061" mask="url(#mask-34)"></path>
                </g>
                <g id="Group-64">
                    <mask id="mask-36" fill="white">
                        <use xlink:href="#path-35"></use>
                    </mask>
                    <g id="Clip-63"></g>
                    <path d="M25.1083,88.3451 C25.0113,88.7931 25.2953,89.2351 25.7433,89.3321 C26.1913,89.4291 26.6323,89.1451 26.7303,88.6971 C26.8273,88.2491 26.5443,87.8071 26.0953,87.7101 C25.6473,87.6131 25.2063,87.8971 25.1083,88.3451" id="Fill-62" fill="#2F3061" mask="url(#mask-36)"></path>
                </g>
                <g id="Group-67">
                    <mask id="mask-38" fill="white">
                        <use xlink:href="#path-37"></use>
                    </mask>
                    <g id="Clip-66"></g>
                    <path d="M70.3622,42.1859 C70.3622,35.5909 76.6322,32.3909 77.2012,25.9839 C77.9012,18.1069 73.4192,14.2789 71.4662,12.9999 C70.3002,12.2369 69.2062,11.3579 68.1872,10.4079 C58.2882,1.1779 61.8902,-4.6591 61.0982,-6.5781" id="Stroke-65" stroke="#2F3061" stroke-width="2" stroke-linecap="round" stroke-linejoin="round" mask="url(#mask-38)"></path>
                </g>
            </g>
            <g id="Group-193" transform="translate(0.000000, 42.578000)">
                <path d="M139.1102,59.8192 L5.7682,59.8192 C2.5832,59.8192 0.0002,57.2362 0.0002,54.0502 L0.0002,5.9542 C0.0002,2.7682 2.5832,0.1862 5.7682,0.1862 L139.1102,0.1862 C142.2962,0.1862 144.8782,2.7682 144.8782,5.9542 L144.8782,54.0502 C144.8782,57.2362 142.2962,59.8192 139.1102,59.8192" id="Fill-69" fill="#C1AE9F"></path>
                <path d="M139.1102,59.8192 L5.7682,59.8192 C2.5832,59.8192 0.0002,57.2362 0.0002,54.0502 L0.0002,5.9542 C0.0002,2.7682 2.5832,0.1862 5.7682,0.1862 L139.1102,0.1862 C142.2962,0.1862 144.8782,2.7682 144.8782,5.9542 L144.8782,54.0502 C144.8782,57.2362 142.2962,59.8192 139.1102,59.8192 Z" id="Stroke-71" stroke="#2F3061" stroke-width="2" stroke-linecap="round" stroke-linejoin="round"></path>
                <path d="M134.8153,28.5546 L117.1003,28.5546 C115.8593,28.5546 114.8533,27.5486 114.8533,26.3076 L114.8533,21.9726 C114.8533,20.7326 115.8593,19.7266 117.1003,19.7266 L134.8153,19.7266 C136.0563,19.7266 137.0623,20.7326 137.0623,21.9726 L137.0623,26.3076 C137.0623,27.5486 136.0563,28.5546 134.8153,28.5546" id="Fill-73" fill="#DBC9BE"></path>
                <path d="M27.7782,16.8305 L10.0622,16.8305 C8.8222,16.8305 7.8162,15.8245 7.8162,14.5835 L7.8162,10.2485 C7.8162,9.0075 8.8222,8.0015 10.0622,8.0015 L27.7782,8.0015 C29.0182,8.0015 30.0242,9.0075 30.0242,10.2485 L30.0242,14.5835 C30.0242,15.8245 29.0182,16.8305 27.7782,16.8305" id="Fill-75" fill="#DBC9BE"></path>
                <path d="M14.3983,28.5546 L10.0623,28.5546 C8.8223,28.5546 7.8163,27.5486 7.8163,26.3076 L7.8163,21.9726 C7.8163,20.7326 8.8223,19.7266 10.0623,19.7266 L14.3983,19.7266 C15.6383,19.7266 16.6443,20.7326 16.6443,21.9726 L16.6443,26.3076 C16.6443,27.5486 15.6383,28.5546 14.3983,28.5546" id="Fill-77" fill="#DBC9BE"></path>
                <path d="M27.7782,40.2792 L10.0622,40.2792 C8.8222,40.2792 7.8162,39.2732 7.8162,38.0322 L7.8162,33.6972 C7.8162,32.4562 8.8222,31.4502 10.0622,31.4502 L27.7782,31.4502 C29.0182,31.4502 30.0242,32.4562 30.0242,33.6972 L30.0242,38.0322 C30.0242,39.2732 29.0182,40.2792 27.7782,40.2792" id="Fill-79" fill="#DBC9BE"></path>
                <path d="M14.3983,52.0033 L10.0623,52.0033 C8.8223,52.0033 7.8163,50.9973 7.8163,49.7563 L7.8163,45.4213 C7.8163,44.1803 8.8223,43.1743 10.0623,43.1743 L14.3983,43.1743 C15.6383,43.1743 16.6443,44.1803 16.6443,45.4213 L16.6443,49.7563 C16.6443,50.9973 15.6383,52.0033 14.3983,52.0033" id="Fill-81" fill="#DBC9BE"></path>
                <path d="M27.7782,28.5546 L23.4422,28.5546 C22.2022,28.5546 21.1962,27.5486 21.1962,26.3076 L21.1962,21.9726 C21.1962,20.7326 22.2022,19.7266 23.4422,19.7266 L27.7782,19.7266 C29.0182,19.7266 30.0242,20.7326 30.0242,21.9726 L30.0242,26.3076 C30.0242,27.5486 29.0182,28.5546 27.7782,28.5546" id="Fill-83" fill="#DBC9BE"></path>
                <path d="M27.7782,52.0033 L23.4422,52.0033 C22.2022,52.0033 21.1962,50.9973 21.1962,49.7563 L21.1962,45.4213 C21.1962,44.1803 22.2022,43.1743 23.4422,43.1743 L27.7782,43.1743 C29.0182,43.1743 30.0242,44.1803 30.0242,45.4213 L30.0242,49.7563 C30.0242,50.9973 29.0182,52.0033 27.7782,52.0033" id="Fill-85" fill="#DBC9BE"></path>
                <path d="M41.1571,16.8305 L36.8221,16.8305 C35.5811,16.8305 34.5751,15.8245 34.5751,14.5835 L34.5751,10.2485 C34.5751,9.0075 35.5811,8.0015 36.8221,8.0015 L41.1571,8.0015 C42.3981,8.0015 43.4041,9.0075 43.4041,10.2485 L43.4041,14.5835 C43.4041,15.8245 42.3981,16.8305 41.1571,16.8305" id="Fill-87" fill="#DBC9BE"></path>
                <path d="M41.1571,28.5546 L36.8221,28.5546 C35.5811,28.5546 34.5751,27.5486 34.5751,26.3076 L34.5751,21.9726 C34.5751,20.7326 35.5811,19.7266 36.8221,19.7266 L41.1571,19.7266 C42.3981,19.7266 43.4041,20.7326 43.4041,21.9726 L43.4041,26.3076 C43.4041,27.5486 42.3981,28.5546 41.1571,28.5546" id="Fill-89" fill="#DBC9BE"></path>
                <path d="M41.1571,40.2792 L36.8221,40.2792 C35.5811,40.2792 34.5751,39.2732 34.5751,38.0322 L34.5751,33.6972 C34.5751,32.4562 35.5811,31.4502 36.8221,31.4502 L41.1571,31.4502 C42.3981,31.4502 43.4041,32.4562 43.4041,33.6972 L43.4041,38.0322 C43.4041,39.2732 42.3981,40.2792 41.1571,40.2792" id="Fill-91" fill="#DBC9BE"></path>
                <path d="M41.1571,52.0033 L36.8221,52.0033 C35.5811,52.0033 34.5751,50.9973 34.5751,49.7563 L34.5751,45.4213 C34.5751,44.1803 35.5811,43.1743 36.8221,43.1743 L41.1571,43.1743 C42.3981,43.1743 43.4041,44.1803 43.4041,45.4213 L43.4041,49.7563 C43.4041,50.9973 42.3981,52.0033 41.1571,52.0033" id="Fill-93" fill="#DBC9BE"></path>
                <path d="M54.537,16.8305 L50.202,16.8305 C48.961,16.8305 47.955,15.8245 47.955,14.5835 L47.955,10.2485 C47.955,9.0075 48.961,8.0015 50.202,8.0015 L54.537,8.0015 C55.778,8.0015 56.784,9.0075 56.784,10.2485 L56.784,14.5835 C56.784,15.8245 55.778,16.8305 54.537,16.8305" id="Fill-95" fill="#DBC9BE"></path>
                <path d="M54.537,28.5546 L50.202,28.5546 C48.961,28.5546 47.955,27.5486 47.955,26.3076 L47.955,21.9726 C47.955,20.7326 48.961,19.7266 50.202,19.7266 L54.537,19.7266 C55.778,19.7266 56.784,20.7326 56.784,21.9726 L56.784,26.3076 C56.784,27.5486 55.778,28.5546 54.537,28.5546" id="Fill-97" fill="#DBC9BE"></path>
                <path d="M54.537,40.2792 L50.202,40.2792 C48.961,40.2792 47.955,39.2732 47.955,38.0322 L47.955,33.6972 C47.955,32.4562 48.961,31.4502 50.202,31.4502 L54.537,31.4502 C55.778,31.4502 56.784,32.4562 56.784,33.6972 L56.784,38.0322 C56.784,39.2732 55.778,40.2792 54.537,40.2792" id="Fill-99" fill="#DBC9BE"></path>
                <path d="M94.6767,52.0033 L50.2017,52.0033 C48.9607,52.0033 47.9547,50.9973 47.9547,49.7563 L47.9547,45.4213 C47.9547,44.1803 48.9607,43.1743 50.2017,43.1743 L94.6767,43.1743 C95.9167,43.1743 96.9227,44.1803 96.9227,45.4213 L96.9227,49.7563 C96.9227,50.9973 95.9167,52.0033 94.6767,52.0033" id="Fill-101" fill="#DBC9BE"></path>
                <path d="M81.2968,16.8305 L76.9608,16.8305 C75.7208,16.8305 74.7148,15.8245 74.7148,14.5835 L74.7148,10.2485 C74.7148,9.0075 75.7208,8.0015 76.9608,8.0015 L81.2968,8.0015 C82.5368,8.0015 83.5428,9.0075 83.5428,10.2485 L83.5428,14.5835 C83.5428,15.8245 82.5368,16.8305 81.2968,16.8305" id="Fill-103" fill="#DBC9BE"></path>
                <path d="M81.2968,28.5546 L76.9608,28.5546 C75.7208,28.5546 74.7148,27.5486 74.7148,26.3076 L74.7148,21.9726 C74.7148,20.7326 75.7208,19.7266 76.9608,19.7266 L81.2968,19.7266 C82.5368,19.7266 83.5428,20.7326 83.5428,21.9726 L83.5428,26.3076 C83.5428,27.5486 82.5368,28.5546 81.2968,28.5546" id="Fill-105" fill="#DBC9BE"></path>
                <path d="M81.2968,40.2792 L76.9608,40.2792 C75.7208,40.2792 74.7148,39.2732 74.7148,38.0322 L74.7148,33.6972 C74.7148,32.4562 75.7208,31.4502 76.9608,31.4502 L81.2968,31.4502 C82.5368,31.4502 83.5428,32.4562 83.5428,33.6972 L83.5428,38.0322 C83.5428,39.2732 82.5368,40.2792 81.2968,40.2792" id="Fill-107" fill="#DBC9BE"></path>
                <path d="M67.9169,16.8305 L63.5819,16.8305 C62.3409,16.8305 61.3349,15.8245 61.3349,14.5835 L61.3349,10.2485 C61.3349,9.0075 62.3409,8.0015 63.5819,8.0015 L67.9169,8.0015 C69.1579,8.0015 70.1639,9.0075 70.1639,10.2485 L70.1639,14.5835 C70.1639,15.8245 69.1579,16.8305 67.9169,16.8305" id="Fill-109" fill="#DBC9BE"></path>
                <path d="M67.9169,28.5546 L63.5819,28.5546 C62.3409,28.5546 61.3349,27.5486 61.3349,26.3076 L61.3349,21.9726 C61.3349,20.7326 62.3409,19.7266 63.5819,19.7266 L67.9169,19.7266 C69.1579,19.7266 70.1639,20.7326 70.1639,21.9726 L70.1639,26.3076 C70.1639,27.5486 69.1579,28.5546 67.9169,28.5546" id="Fill-111" fill="#DBC9BE"></path>
                <path d="M67.9169,40.2792 L63.5819,40.2792 C62.3409,40.2792 61.3349,39.2732 61.3349,38.0322 L61.3349,33.6972 C61.3349,32.4562 62.3409,31.4502 63.5819,31.4502 L67.9169,31.4502 C69.1579,31.4502 70.1639,32.4562 70.1639,33.6972 L70.1639,38.0322 C70.1639,39.2732 69.1579,40.2792 67.9169,40.2792" id="Fill-113" fill="#DBC9BE"></path>
                <path d="M94.6767,16.8305 L90.3407,16.8305 C89.1007,16.8305 88.0947,15.8245 88.0947,14.5835 L88.0947,10.2485 C88.0947,9.0075 89.1007,8.0015 90.3407,8.0015 L94.6767,8.0015 C95.9167,8.0015 96.9227,9.0075 96.9227,10.2485 L96.9227,14.5835 C96.9227,15.8245 95.9167,16.8305 94.6767,16.8305" id="Fill-115" fill="#DBC9BE"></path>
                <path d="M94.6767,28.5546 L90.3407,28.5546 C89.1007,28.5546 88.0947,27.5486 88.0947,26.3076 L88.0947,21.9726 C88.0947,20.7326 89.1007,19.7266 90.3407,19.7266 L94.6767,19.7266 C95.9167,19.7266 96.9227,20.7326 96.9227,21.9726 L96.9227,26.3076 C96.9227,27.5486 95.9167,28.5546 94.6767,28.5546" id="Fill-117" fill="#DBC9BE"></path>
                <path d="M94.6767,40.2792 L90.3407,40.2792 C89.1007,40.2792 88.0947,39.2732 88.0947,38.0322 L88.0947,33.6972 C88.0947,32.4562 89.1007,31.4502 90.3407,31.4502 L94.6767,31.4502 C95.9167,31.4502 96.9227,32.4562 96.9227,33.6972 L96.9227,38.0322 C96.9227,39.2732 95.9167,40.2792 94.6767,40.2792" id="Fill-119" fill="#DBC9BE"></path>
                <path d="M121.4354,16.8305 L117.1004,16.8305 C115.8594,16.8305 114.8534,15.8245 114.8534,14.5835 L114.8534,10.2485 C114.8534,9.0075 115.8594,8.0015 117.1004,8.0015 L121.4354,8.0015 C122.6764,8.0015 123.6824,9.0075 123.6824,10.2485 L123.6824,14.5835 C123.6824,15.8245 122.6764,16.8305 121.4354,16.8305" id="Fill-121" fill="#DBC9BE"></path>
                <path d="M121.4354,52.0033 L117.1004,52.0033 C115.8594,52.0033 114.8534,50.9973 114.8534,49.7563 L114.8534,45.4213 C114.8534,44.1803 115.8594,43.1743 117.1004,43.1743 L121.4354,43.1743 C122.6764,43.1743 123.6824,44.1803 123.6824,45.4213 L123.6824,49.7563 C123.6824,50.9973 122.6764,52.0033 121.4354,52.0033" id="Fill-123" fill="#DBC9BE"></path>
                <path d="M108.0565,16.8305 L103.7205,16.8305 C102.4805,16.8305 101.4745,15.8245 101.4745,14.5835 L101.4745,10.2485 C101.4745,9.0075 102.4805,8.0015 103.7205,8.0015 L108.0565,8.0015 C109.2965,8.0015 110.3025,9.0075 110.3025,10.2485 L110.3025,14.5835 C110.3025,15.8245 109.2965,16.8305 108.0565,16.8305" id="Fill-125" fill="#DBC9BE"></path>
                <path d="M108.0565,28.5546 L103.7205,28.5546 C102.4805,28.5546 101.4745,27.5486 101.4745,26.3076 L101.4745,21.9726 C101.4745,20.7326 102.4805,19.7266 103.7205,19.7266 L108.0565,19.7266 C109.2965,19.7266 110.3025,20.7326 110.3025,21.9726 L110.3025,26.3076 C110.3025,27.5486 109.2965,28.5546 108.0565,28.5546" id="Fill-127" fill="#DBC9BE"></path>
                <path d="M108.0565,40.2792 L103.7205,40.2792 C102.4805,40.2792 101.4745,39.2732 101.4745,38.0322 L101.4745,33.6972 C101.4745,32.4562 102.4805,31.4502 103.7205,31.4502 L108.0565,31.4502 C109.2965,31.4502 110.3025,32.4562 110.3025,33.6972 L110.3025,38.0322 C110.3025,39.2732 109.2965,40.2792 108.0565,40.2792" id="Fill-129" fill="#DBC9BE"></path>
                <path d="M108.0565,52.0033 L103.7205,52.0033 C102.4805,52.0033 101.4745,50.9973 101.4745,49.7563 L101.4745,45.4213 C101.4745,44.1803 102.4805,43.1743 103.7205,43.1743 L108.0565,43.1743 C109.2965,43.1743 110.3025,44.1803 110.3025,45.4213 L110.3025,49.7563 C110.3025,50.9973 109.2965,52.0033 108.0565,52.0033" id="Fill-131" fill="#DBC9BE"></path>
                <path d="M134.8153,16.8305 L130.4803,16.8305 C129.2393,16.8305 128.2333,15.8245 128.2333,14.5835 L128.2333,10.2485 C128.2333,9.0075 129.2393,8.0015 130.4803,8.0015 L134.8153,8.0015 C136.0563,8.0015 137.0623,9.0075 137.0623,10.2485 L137.0623,14.5835 C137.0623,15.8245 136.0563,16.8305 134.8153,16.8305" id="Fill-133" fill="#DBC9BE"></path>
                <path d="M134.8153,40.2792 L117.1003,40.2792 C115.8593,40.2792 114.8533,39.2732 114.8533,38.0322 L114.8533,33.6972 C114.8533,32.4562 115.8593,31.4502 117.1003,31.4502 L134.8153,31.4502 C136.0563,31.4502 137.0623,32.4562 137.0623,33.6972 L137.0623,38.0322 C137.0623,39.2732 136.0563,40.2792 134.8153,40.2792" id="Fill-135" fill="#DBC9BE"></path>
                <path d="M134.8153,52.0033 L130.4803,52.0033 C129.2393,52.0033 128.2333,50.9973 128.2333,49.7563 L128.2333,45.4213 C128.2333,44.1803 129.2393,43.1743 130.4803,43.1743 L134.8153,43.1743 C136.0563,43.1743 137.0623,44.1803 137.0623,45.4213 L137.0623,49.7563 C137.0623,50.9973 136.0563,52.0033 134.8153,52.0033" id="Fill-137" fill="#DBC9BE"></path>
                <polygon id="Fill-139" fill="#E2EFF3" points="102.5116 49.3232 105.3516 71.9152 128.5866 68.5522 125.7466 45.9592"></polygon>
                <g id="Group-144" transform="translate(111.000000, 25.000000)">
                    <path d="M3.8231,27.4394 L0.5031,4.5024 C0.1971,2.3894 1.6621,0.4284 3.7751,0.1224 C5.8881,-0.1836 7.8491,1.2814 8.1551,3.3944 L11.4751,26.3314" id="Fill-141" fill="#E2EFF3"></path>
                    <path d="M3.8231,27.4394 L0.5031,4.5024 C0.1971,2.3894 1.6621,0.4284 3.7751,0.1224 C5.8881,-0.1836 7.8491,1.2814 8.1551,3.3944 L11.4751,26.3314" id="Stroke-143" stroke="#2F3061" stroke-width="2" stroke-linecap="round" stroke-linejoin="round"></path>
                </g>
                <g id="Group-148" transform="translate(103.000000, 22.000000)">
                    <path d="M4.1718,31.5468 L0.3758,5.3248 C0.0698,3.2118 1.5348,1.2508 3.6488,0.9448 C5.7608,0.6388 7.7218,2.1038 8.0268,4.2168 L11.8228,30.4398" id="Fill-145" fill="#E2EFF3"></path>
                    <path d="M4.1718,31.5468 L0.3758,5.3248 C0.0698,3.2118 1.5348,1.2508 3.6488,0.9448 C5.7608,0.6388 7.7218,2.1038 8.0268,4.2168 L11.8228,30.4398" id="Stroke-147" stroke="#2F3061" stroke-width="2" stroke-linecap="round" stroke-linejoin="round"></path>
                </g>
                <g id="Group-152" transform="translate(86.000000, 36.000000)">
                    <path d="M21.1718,17.5468 L19.1938,3.8868 C18.8888,1.7738 16.9278,0.3088 14.8148,0.6148 C12.7008,0.9208 11.2358,2.8808 11.5418,4.9948 L13.6488,19.5428 C13.8198,20.7298 12.4708,21.5328 11.5088,20.8148 L8.1218,18.2838 C6.0198,16.7128 3.0408,17.1438 1.4708,19.2468 C-0.1002,21.3498 0.3298,24.3278 2.4338,25.8988 C2.4338,25.8988 9.3188,30.1788 14.7388,35.1598" id="Fill-149" fill="#E2EFF3"></path>
                    <path d="M21.1718,17.5468 L19.1938,3.8868 C18.8888,1.7738 16.9278,0.3088 14.8148,0.6148 C12.7008,0.9208 11.2358,2.8808 11.5418,4.9948 L13.6488,19.5428 C13.8198,20.7298 12.4708,21.5328 11.5088,20.8148 L8.1218,18.2838 C6.0198,16.7128 3.0408,17.1438 1.4708,19.2468 C-0.1002,21.3498 0.3298,24.3278 2.4338,25.8988 C2.4338,25.8988 9.3188,30.1788 14.7388,35.1598" id="Stroke-151" stroke="#2F3061" stroke-width="2" stroke-linecap="round" stroke-linejoin="round"></path>
                </g>
                <g id="Group-156" transform="translate(119.000000, 27.000000)">
                    <path d="M3.4755,24.3315 L0.6305,4.6795 C0.3255,2.5655 1.7895,0.6045 3.9025,0.2995 C6.0155,-0.0065 7.9765,1.4585 8.2825,3.5715 L11.9585,28.9725 C12.2345,30.8705 12.3695,32.8145 12.4075,34.7165" id="Fill-153" fill="#E2EFF3"></path>
                    <path d="M3.4755,24.3315 L0.6305,4.6795 C0.3255,2.5655 1.7895,0.6045 3.9025,0.2995 C6.0155,-0.0065 7.9765,1.4585 8.2825,3.5715 L11.9585,28.9725 C12.2345,30.8705 12.3695,32.8145 12.4075,34.7165" id="Stroke-155" stroke="#2F3061" stroke-width="2" stroke-linecap="round" stroke-linejoin="round"></path>
                </g>
                <path d="M104.3368,56.14 C104.4018,56.594 104.0878,57.015 103.6338,57.08 C103.1808,57.146 102.7598,56.831 102.6938,56.378 C102.6288,55.924 102.9428,55.503 103.3968,55.438 C103.8498,55.372 104.2708,55.686 104.3368,56.14" id="Fill-157" fill="#2F3061"></path>
                <path d="M112.1278,55.0121 C112.1938,55.4661 111.8798,55.8871 111.4258,55.9521 C110.9728,56.0181 110.5518,55.7031 110.4858,55.2501 C110.4198,54.7961 110.7338,54.3751 111.1888,54.3101 C111.6418,54.2441 112.0628,54.5581 112.1278,55.0121" id="Fill-159" fill="#2F3061"></path>
                <path d="M119.7099,53.9149 C119.7759,54.3679 119.4619,54.7889 119.0079,54.8549 C118.5549,54.9199 118.1339,54.6059 118.0669,54.1519 C118.0019,53.6989 118.3159,53.2779 118.7709,53.2119 C119.2239,53.1469 119.6449,53.4609 119.7099,53.9149" id="Fill-161" fill="#2F3061"></path>
                <path d="M127.5018,52.787 C127.5668,53.24 127.2528,53.661 126.7998,53.727 C126.3458,53.792 125.9248,53.478 125.8588,53.025 C125.7938,52.571 126.1078,52.15 126.5618,52.084 C127.0158,52.019 127.4368,52.333 127.5018,52.787" id="Fill-163" fill="#2F3061"></path>
                <path d="M125.3368,55.1313 L129.8678,55.8173 C129.8678,55.8173 130.3438,57.8763 130.4058,62.1223 L126.4138,61.7163 L125.3368,55.1313 Z" id="Fill-165" fill="#E2EFF3"></path>
                <polygon id="Fill-167" fill="#E2EFF3" points="30.452 43.4691 25.23 61.6351 32.224 62.1901 40.508 63.7461 48.674 63.2461 49.963 47.8021"></polygon>
                <g id="Group-172" transform="translate(32.000000, 20.000000)">
                    <path d="M7.7802,26.8866 L12.3062,5.6826 C12.7592,3.5966 11.4352,1.5376 9.3482,1.0846 C7.2622,0.6316 5.2042,1.9556 4.7512,4.0416 L0.2242,25.2456" id="Fill-169" fill="#E2EFF3"></path>
                    <path d="M7.7802,26.8866 L12.3062,5.6826 C12.7592,3.5966 11.4352,1.5376 9.3482,1.0846 C7.2622,0.6316 5.2042,1.9556 4.7512,4.0416 L0.2242,25.2456" id="Stroke-171" stroke="#2F3061" stroke-width="2" stroke-linecap="round" stroke-linejoin="round"></path>
                </g>
                <g id="Group-176" transform="translate(39.000000, 17.000000)">
                    <path d="M8.3358,31.5277 L13.9598,5.6357 C14.4128,3.5497 13.0888,1.4907 11.0028,1.0377 C8.9158,0.5847 6.8568,1.9087 6.4038,3.9947 L0.7798,29.8867" id="Fill-173" fill="#E2EFF3"></path>
                    <path d="M8.3358,31.5277 L13.9598,5.6357 C14.4128,3.5497 13.0888,1.4907 11.0028,1.0377 C8.9158,0.5847 6.8568,1.9087 6.4038,3.9947 L0.7798,29.8867" id="Stroke-175" stroke="#2F3061" stroke-width="2" stroke-linecap="round" stroke-linejoin="round"></path>
                </g>
                <g id="Group-180" transform="translate(45.000000, 23.000000)">
                    <path d="M2.3358,25.5277 L7.0338,3.8977 C7.4868,1.8107 9.5458,0.4867 11.6328,0.9407 C13.7188,1.3937 15.0428,3.4517 14.5898,5.5387 L9.7008,28.0457 C9.4458,29.2177 10.7358,30.1137 11.7448,29.4647 L15.3018,27.1777 C17.5098,25.7577 20.4498,26.3967 21.8698,28.6037 C23.2888,30.8117 22.6498,33.7527 20.4428,35.1727 C20.4428,35.1727 2.0908,44.8667 0.5348,52.0287 L0.3608,52.8297" id="Fill-177" fill="#E2EFF3"></path>
                    <path d="M2.3358,25.5277 L7.0338,3.8977 C7.4868,1.8107 9.5458,0.4867 11.6328,0.9407 C13.7188,1.3937 15.0428,3.4517 14.5898,5.5387 L9.7008,28.0457 C9.4458,29.2177 10.7358,30.1137 11.7448,29.4647 L15.3018,27.1777 C17.5098,25.7577 20.4498,26.3967 21.8698,28.6037 C23.2888,30.8117 22.6498,33.7527 20.4428,35.1727 C20.4428,35.1727 2.0908,44.8667 0.5348,52.0287 L0.3608,52.8297" id="Stroke-179" stroke="#2F3061" stroke-width="2" stroke-linecap="round" stroke-linejoin="round"></path>
                </g>
                <g id="Group-184" transform="translate(22.000000, 22.000000)">
                    <path d="M10.2245,23.2455 L14.0455,5.2855 C14.4985,3.1995 13.1755,1.1405 11.0885,0.6865 C9.0025,0.2335 6.9445,1.5585 6.4915,3.6435 L1.4365,27.2805 C0.1465,33.2195 0.2275,39.7245 0.4825,43.8565 C0.5565,45.0595 0.4675,46.7225 0.3315,48.3055" id="Fill-181" fill="#E2EFF3"></path>
                    <path d="M10.2245,23.2455 L14.0455,5.2855 C14.4985,3.1995 13.1755,1.1405 11.0885,0.6865 C9.0025,0.2335 6.9445,1.5585 6.4915,3.6435 L1.4365,27.2805 C0.1465,33.2195 0.2275,39.7245 0.4825,43.8565 C0.5565,45.0595 0.4675,46.7225 0.3315,48.3055" id="Stroke-183" stroke="#2F3061" stroke-width="2" stroke-linecap="round" stroke-linejoin="round"></path>
                </g>
                <path d="M49.9823,51.3134 C49.8843,51.7614 50.1693,52.2034 50.6173,52.3004 C51.0643,52.3974 51.5063,52.1134 51.6033,51.6664 C51.7013,51.2174 51.4173,50.7754 50.9683,50.6784 C50.5213,50.5814 50.0793,50.8654 49.9823,51.3134" id="Fill-185" fill="#2F3061"></path>
                <path d="M42.289,49.6425 C42.191,50.0905 42.476,50.5325 42.924,50.6295 C43.371,50.7265 43.813,50.4425 43.91,49.9945 C44.008,49.5465 43.724,49.1045 43.275,49.0075 C42.828,48.9105 42.386,49.1945 42.289,49.6425" id="Fill-187" fill="#2F3061"></path>
                <path d="M34.8017,48.016 C34.7047,48.464 34.9887,48.906 35.4367,49.003 C35.8847,49.1 36.3267,48.816 36.4237,48.369 C36.5217,47.921 36.2377,47.479 35.7887,47.382 C35.3417,47.284 34.8997,47.568 34.8017,48.016" id="Fill-189" fill="#2F3061"></path>
                <path d="M27.1083,46.3451 C27.0113,46.7931 27.2953,47.2351 27.7433,47.3321 C28.1913,47.4291 28.6323,47.1451 28.7303,46.6971 C28.8273,46.2491 28.5443,45.8071 28.0953,45.7101 C27.6473,45.6131 27.2063,45.8971 27.1083,46.3451" id="Fill-191" fill="#2F3061"></path>
            </g>
        </g>
    </g>
</svg>