<?xml version="1.0" encoding="UTF-8"?>
<svg width="139px" height="141px" viewBox="0 0 139 141" version="1.1" xmlns="http://www.w3.org/2000/svg" xmlns:xlink="http://www.w3.org/1999/xlink">
    <!-- Generator: Sketch 50.2 (55047) - http://www.bohemiancoding.com/sketch -->
    <title>Artboard</title>
    <desc>Created with Sketch.</desc>
    <defs>
        <path d="M69.5410435,0.274706897 C31.2175652,0.274706897 0.150956522,31.2934914 0.150956522,69.5591897 C0.150956522,107.824888 31.2175652,138.843672 69.5410435,138.843672 C107.865739,138.843672 138.932348,107.824888 138.932348,69.5591897 C138.932348,31.2934914 107.865739,0.274706897 69.5410435,0.274706897 Z" id="path-1"></path>
        <path d="M69.5410435,0.274706897 C31.2175652,0.274706897 0.150956522,31.2934914 0.150956522,69.5591897 C0.150956522,107.824888 31.2175652,138.843672 69.5410435,138.843672 C107.865739,138.843672 138.932348,107.824888 138.932348,69.5591897 C138.932348,31.2934914 107.865739,0.274706897 69.5410435,0.274706897 Z" id="path-3"></path>
        <path d="M69.5410435,0.274706897 C31.2175652,0.274706897 0.150956522,31.2934914 0.150956522,69.5591897 C0.150956522,107.824888 31.2175652,138.843672 69.5410435,138.843672 C107.865739,138.843672 138.932348,107.824888 138.932348,69.5591897 C138.932348,31.2934914 107.865739,0.274706897 69.5410435,0.274706897 Z" id="path-5"></path>
        <path d="M69.5410435,0.274706897 C31.2175652,0.274706897 0.150956522,31.2934914 0.150956522,69.5591897 C0.150956522,107.824888 31.2175652,138.843672 69.5410435,138.843672 C107.865739,138.843672 138.932348,107.824888 138.932348,69.5591897 C138.932348,31.2934914 107.865739,0.274706897 69.5410435,0.274706897 Z" id="path-7"></path>
        <path d="M15.4316522,1.93790517 L0.988521739,24.4067414 C11.4544348,48.4800603 35.2118261,65.4584052 63.0146087,66.1087069 L21.7730435,1.93912069 C21.0693913,0.717525862 19.8349565,0.107336207 18.6017391,0.107336207 C17.3685217,0.107336207 16.1353043,0.717525862 15.4316522,1.93790517 Z" id="path-9"></path>
        <path d="M69.5410435,0.274706897 C31.2175652,0.274706897 0.150956522,31.2934914 0.150956522,69.5591897 C0.150956522,107.824888 31.2175652,138.843672 69.5410435,138.843672 C107.865739,138.843672 138.932348,107.824888 138.932348,69.5591897 C138.932348,31.2934914 107.865739,0.274706897 69.5410435,0.274706897 Z" id="path-11"></path>
        <path d="M69.5410435,0.274706897 C31.2175652,0.274706897 0.150956522,31.2934914 0.150956522,69.5591897 C0.150956522,107.824888 31.2175652,138.843672 69.5410435,138.843672 C107.865739,138.843672 138.932348,107.824888 138.932348,69.5591897 C138.932348,31.2934914 107.865739,0.274706897 69.5410435,0.274706897 Z" id="path-13"></path>
        <path d="M29.6690435,1.93790517 L0.741391304,46.94 C19.5926957,43.7881638 35.8704348,33.0442069 46.3107826,17.9657155 L36.0104348,1.93790517 C35.3067826,0.717525862 34.0735652,0.107336207 32.8403478,0.107336207 C31.6071304,0.107336207 30.3726957,0.717525862 29.6690435,1.93790517 Z" id="path-15"></path>
        <path d="M69.5410435,0.274706897 C31.2175652,0.274706897 0.150956522,31.2934914 0.150956522,69.5591897 C0.150956522,107.824888 31.2175652,138.843672 69.5410435,138.843672 C107.865739,138.843672 138.932348,107.824888 138.932348,69.5591897 C138.932348,31.2934914 107.865739,0.274706897 69.5410435,0.274706897 Z" id="path-17"></path>
        <path d="M69.5410435,0.274706897 C31.2175652,0.274706897 0.150956522,31.2934914 0.150956522,69.5591897 C0.150956522,107.824888 31.2175652,138.843672 69.5410435,138.843672 C107.865739,138.843672 138.932348,107.824888 138.932348,69.5591897" id="path-19"></path>
        <path d="M40.8106087,2.54043103 L6.62382609,61.9549138 L0.450434783,72.683069 C12.5306087,82.8691034 28.1436522,89.0074655 45.1932174,89.0074655 C61.4758261,89.0074655 76.4473043,83.4100086 88.284,74.0347241 L47.152,2.54043103 C46.4495652,1.17783621 45.2163478,0.495931034 43.981913,0.495931034 C42.7486957,0.495931034 41.5142609,1.17662069 40.8106087,2.54043103 Z" id="path-21"></path>
        <path d="M69.5410435,0.274706897 C31.2175652,0.274706897 0.150956522,31.2934914 0.150956522,69.5591897 C0.150956522,107.824888 31.2175652,138.843672 69.5410435,138.843672 C107.865739,138.843672 138.932348,107.824888 138.932348,69.5591897" id="path-23"></path>
        <path d="M69.5410435,0.274706897 C31.2175652,0.274706897 0.150956522,31.2934914 0.150956522,69.5591897 C0.150956522,107.824888 31.2175652,138.843672 69.5410435,138.843672 C107.865739,138.843672 138.932348,107.824888 138.932348,69.5591897" id="path-25"></path>
        <path d="M69.5410435,0.274706897 C31.2175652,0.274706897 0.150956522,31.2934914 0.150956522,69.5591897 C0.150956522,107.824888 31.2175652,138.843672 69.5410435,138.843672 C107.865739,138.843672 138.932348,107.824888 138.932348,69.5591897 C138.932348,31.2934914 107.865739,0.274706897 69.5410435,0.274706897 Z" id="path-27"></path>
        <path d="M69.5410435,0.274706897 C31.2175652,0.274706897 0.150956522,31.2934914 0.150956522,69.5591897 C0.150956522,107.824888 31.2175652,138.843672 69.5410435,138.843672 C107.865739,138.843672 138.932348,107.824888 138.932348,69.5591897" id="path-29"></path>
    </defs>
    <g id="Artboard" stroke="none" stroke-width="1" fill="none" fill-rule="evenodd">
        <g id="Page-1">
            <path d="M138.932713,70.5 C138.932713,108.764483 107.864887,139.784483 69.5414087,139.784483 C31.2179304,139.784483 0.150104348,108.764483 0.150104348,70.5 C0.150104348,32.2355172 31.2179304,1.21551724 69.5414087,1.21551724 C107.864887,1.21551724 138.932713,32.2355172 138.932713,70.5" id="Fill-1" fill="#4088B2"></path>
            <g id="Group-15" transform="translate(0.000000, 0.940810)">
                <g id="Group-5">
                    <mask id="mask-2" fill="white">
                        <use xlink:href="#path-1"></use>
                    </mask>
                    <g id="Clip-4"></g>
                    <path d="M185.361217,32.353544 C183.969739,26.2091043 178.472,21.6180957 171.893217,21.6180957 C170.94,21.6180957 170.01113,21.7141216 169.113913,21.8964491 C167.702957,22.1833112 166.305391,21.5293629 165.505565,20.333294 C161.955652,15.0166216 155.891826,11.5037767 149.014783,11.5037767 C142.518783,11.5037767 136.74713,14.6385957 133.136348,19.4678457 C132.27687,20.617725 130.741739,21.0711129 129.379478,20.615294 C128.000174,20.1533974 126.521043,19.9017853 124.989565,19.9017853 C118.544696,19.9017853 113.15287,24.2958802 111.628696,30.2506991 C111.317043,31.4698629 110.265217,32.353544 109.005217,32.353544 L106.459652,32.353544 C105.091304,32.353544 103.999304,31.2133888 104.058957,29.8471474 C104.373043,22.7716216 99.5095652,16.2479405 92.4998261,15.1576216 C83.8916522,13.8181216 76.468,20.4329664 76.468,28.7750612 C76.468,30.0173198 76.6323478,31.2097422 76.9269565,32.353544 L65.7987826,32.353544 C64.3610435,32.353544 63.196,33.516794 63.196,34.9511043 C63.196,36.3866302 64.3610435,37.5498802 65.7987826,37.5498802 L79.625913,37.5498802 L100.933913,37.5498802 L111.751652,37.5498802 L130.228,37.5498802 L138.246957,37.5498802 L158.245043,37.5498802 L167.801565,37.5498802 L185.540174,37.5498802 L198.053739,37.5498802 C199.490261,37.5498802 200.655304,36.3866302 200.655304,34.9511043 C200.655304,33.516794 199.490261,32.353544 198.053739,32.353544 L185.361217,32.353544 Z" id="Fill-3" fill="#FFFFFF" mask="url(#mask-2)"></path>
                </g>
                <g id="Group-8">
                    <mask id="mask-4" fill="white">
                        <use xlink:href="#path-3"></use>
                    </mask>
                    <g id="Clip-7"></g>
                    <path d="M108.380209,67.6706405 C109.772904,61.5274164 115.270643,56.9351922 121.848209,56.9351922 C122.801426,56.9351922 123.730296,57.0312181 124.62873,57.2135457 C126.03847,57.5004078 127.436035,56.8464595 128.235861,55.6503905 C131.786991,50.3337181 137.850817,46.8208733 144.726643,46.8208733 C151.222643,46.8208733 156.994296,49.9556922 160.605078,54.7849422 C161.464557,55.9348216 163.000904,56.3882095 164.363165,55.9323905 C165.741252,55.470494 167.220383,55.2200974 168.751861,55.2200974 C175.197948,55.2200974 180.588557,59.6141922 182.11273,65.5677957 C182.4256,66.7869595 183.476209,67.6706405 184.737426,67.6706405 L187.281774,67.6706405 C188.651339,67.6706405 189.743339,66.5304853 189.68247,65.164244 C189.3696,58.0887181 194.231861,51.5650371 201.2416,50.4747181 C209.849774,49.1352181 217.273426,55.7512784 217.273426,64.0921578 C217.273426,65.3344164 217.109078,66.5268388 216.81447,67.6706405 L227.943861,67.6706405 C229.3816,67.6706405 230.545426,68.8338905 230.545426,70.2682009 C230.545426,71.7037267 229.3816,72.8669767 227.943861,72.8669767 L214.115513,72.8669767 L192.80873,72.8669767 L181.990991,72.8669767 L163.514643,72.8669767 L155.495687,72.8669767 L135.496383,72.8669767 L125.941078,72.8669767 L108.201252,72.8669767 L95.687687,72.8669767 C94.2511652,72.8669767 93.0861217,71.7037267 93.0861217,70.2682009 C93.0861217,68.8338905 94.2511652,67.6706405 95.687687,67.6706405 L108.380209,67.6706405 Z" id="Fill-6" fill="#FFFFFF" mask="url(#mask-4)"></path>
                </g>
                <g id="Group-11">
                    <mask id="mask-6" fill="white">
                        <use xlink:href="#path-5"></use>
                    </mask>
                    <g id="Clip-10"></g>
                    <path d="M60.0780174,70.9984836 C58.6865391,64.8552595 53.1888,60.2630353 46.6100174,60.2630353 C45.6568,60.2630353 44.7279304,60.3602767 43.830713,60.5413888 C42.4197565,60.8294664 41.0221913,60.1743026 40.2223652,58.9782336 C36.6712348,53.6615612 30.6086261,50.1499319 23.7315826,50.1499319 C17.2355826,50.1499319 11.4639304,53.2847509 7.85314783,58.1127853 C6.99366957,59.2626647 5.45853913,59.7172681 4.09627826,59.2602336 C2.71697391,58.7983371 1.23784348,58.5479405 -0.293634783,58.5479405 C-6.73850435,58.5479405 -12.1303304,62.9420353 -13.6545043,68.8968543 C-13.9673739,70.1148026 -15.0179826,70.9984836 -16.2779826,70.9984836 L-18.8235478,70.9984836 C-20.193113,70.9984836 -21.285113,69.859544 -21.2242435,68.4933026 C-20.9113739,61.4165612 -25.7736348,54.8928802 -32.7833739,53.8025612 C-41.3915478,52.4630612 -48.8152,59.0791216 -48.8152,67.4200009 C-48.8152,68.6622595 -48.6508522,69.8546819 -48.3562435,70.9984836 L-59.4856348,70.9984836 C-60.9221565,70.9984836 -62.0872,72.1617336 -62.0872,73.5972595 C-62.0872,75.0315698 -60.9221565,76.1948198 -59.4856348,76.1948198 L-45.657287,76.1948198 L-24.349287,76.1948198 L-13.5327652,76.1948198 L4.9448,76.1948198 L12.9625391,76.1948198 L32.9618435,76.1948198 L42.5183652,76.1948198 L60.2569739,76.1948198 L72.7705391,76.1948198 C74.2070609,76.1948198 75.3721043,75.0315698 75.3721043,73.5972595 C75.3721043,72.1617336 74.2070609,70.9984836 72.7705391,70.9984836 L60.0780174,70.9984836 Z" id="Fill-9" fill="#FFFFFF" mask="url(#mask-6)"></path>
                </g>
                <g id="Group-14">
                    <mask id="mask-8" fill="white">
                        <use xlink:href="#path-7"></use>
                    </mask>
                    <g id="Clip-13"></g>
                    <path d="M85.6873043,166.525741 L-38.7556522,166.525741 L20.3012174,74.6533009 C21.7073043,72.2125422 25.2353043,72.2125422 26.6426087,74.6533009 L85.6873043,166.525741 Z" id="Fill-12" fill="#75ABBC" mask="url(#mask-8)"></path>
                </g>
            </g>
            <g id="Group-18" transform="translate(4.869565, 73.656328)">
                <mask id="mask-10" fill="white">
                    <use xlink:href="#path-9"></use>
                </mask>
                <g id="Clip-17"></g>
                <path d="M-0.126973913,17.9389741 C3.38763478,17.9389741 3.38763478,21.3083879 6.90224348,21.3083879 C10.4168522,21.3083879 10.4168522,17.9389741 13.9326783,17.9389741 C17.4460696,17.9389741 17.4460696,21.3083879 20.9582435,21.3083879 C24.475287,21.3083879 24.475287,17.9389741 27.9923304,17.9389741 C31.5105913,17.9389741 31.5105913,21.3083879 35.0288522,21.3083879 C38.5483304,21.3083879 38.5483304,17.9389741 42.0665913,17.9389741 L42.0665913,-9.32507759 L-2.14297391,-9.32507759 L-0.126973913,17.9389741 Z" id="Fill-16" fill="#E2EFF3" mask="url(#mask-10)"></path>
            </g>
            <g id="Group-25" transform="translate(0.000000, 0.940810)">
                <g id="Group-21">
                    <mask id="mask-12" fill="white">
                        <use xlink:href="#path-11"></use>
                    </mask>
                    <g id="Clip-20"></g>
                    <path d="M85.6873043,166.525741 L-38.7556522,166.525741 L20.3012174,74.6533009 C21.7073043,72.2125422 25.2353043,72.2125422 26.6426087,74.6533009 L85.6873043,166.525741 Z" id="Stroke-19" stroke="#2F3061" stroke-width="2" mask="url(#mask-12)"></path>
                </g>
                <g id="Group-24">
                    <mask id="mask-14" fill="white">
                        <use xlink:href="#path-13"></use>
                    </mask>
                    <g id="Clip-23"></g>
                    <path d="M175.403322,184.758499 L50.9603652,184.758499 L110.017235,92.8860595 C111.424539,90.4453009 114.952539,90.4453009 116.358626,92.8860595 L175.403322,184.758499 Z" id="Fill-22" fill="#75ABBC" mask="url(#mask-14)"></path>
                </g>
            </g>
            <g id="Group-28" transform="translate(80.347826, 91.889086)">
                <mask id="mask-16" fill="white">
                    <use xlink:href="#path-15"></use>
                </mask>
                <g id="Clip-27"></g>
                <path d="M15.699113,19.1544914 C19.2137217,19.1544914 19.2137217,22.5239052 22.7283304,22.5239052 C26.2429391,22.5239052 26.2429391,19.1544914 29.7587652,19.1544914 C33.2721565,19.1544914 33.2721565,22.5239052 36.7843304,22.5239052 C40.3013739,22.5239052 40.3013739,19.1544914 43.8184174,19.1544914 C47.3366783,19.1544914 47.3366783,22.5239052 50.8549391,22.5239052 C54.3744174,22.5239052 54.3744174,19.1544914 57.8926783,19.1544914 L57.8926783,-8.10956034 L13.683113,-8.10956034 L15.699113,19.1544914 Z" id="Fill-26" fill="#E2EFF3" mask="url(#mask-16)"></path>
            </g>
            <g id="Group-35" transform="translate(0.000000, 0.940810)">
                <g id="Group-31">
                    <mask id="mask-18" fill="white">
                        <use xlink:href="#path-17"></use>
                    </mask>
                    <g id="Clip-30"></g>
                    <path d="M175.403322,184.758499 L50.9603652,184.758499 L110.017235,92.8860595 C111.424539,90.4453009 114.952539,90.4453009 116.358626,92.8860595 L175.403322,184.758499 Z" id="Stroke-29" stroke="#2F3061" stroke-width="2" mask="url(#mask-18)"></path>
                </g>
                <g id="Group-34">
                    <mask id="mask-20" fill="white">
                        <use xlink:href="#path-19"></use>
                    </mask>
                    <g id="Clip-33"></g>
                    <path d="M30.9711652,111.791364 L65.1591652,52.376881 C66.5652522,49.6492603 70.0944696,49.6504759 71.5005565,52.376881 L130.545252,155.009079 L6.10229565,155.009079 L30.9711652,111.791364" id="Fill-32" fill="#A5D9E4" mask="url(#mask-20)"></path>
                </g>
            </g>
            <g id="Group-38" transform="translate(24.347826, 50.777017)">
                <mask id="mask-22" fill="white">
                    <use xlink:href="#path-21"></use>
                </mask>
                <g id="Clip-37"></g>
                <path d="M65.0819826,-5.07344741 L65.0819826,31.9512078 C61.5637217,31.9512078 61.5637217,35.4397422 58.033287,35.4397422 C54.5150261,35.4397422 54.5150261,31.9512078 50.9979826,31.9512078 C47.4906783,31.9512078 47.4906783,35.4397422 43.9724174,35.4397422 C40.4553739,35.4397422 40.4553739,31.9512078 36.9480696,31.9512078 C31.5586783,31.9512078 21.901113,42.7498629 22.137287,55.973475 C22.3588522,68.4361733 18.0358957,76.0100612 14.2266783,78.5991129 C10.4272,81.1881647 6.81763478,83.6106905 2.6298087,82.2493112 C-1.5568,80.8757767 -6.96323478,70.7748284 -6.96323478,70.7748284 L11.6141565,38.2597422 L16.9341565,25.2658629 L22.8385043,26.1288802 L22.5706783,-5.07344741 L65.0819826,-5.07344741 Z" id="Fill-36" fill="#E2EFF3" mask="url(#mask-22)"></path>
            </g>
            <g id="Group-51" transform="translate(0.000000, 0.940810)">
                <g id="Group-41">
                    <mask id="mask-24" fill="white">
                        <use xlink:href="#path-23"></use>
                    </mask>
                    <g id="Clip-40"></g>
                    <path d="M30.9711652,111.791364 L65.1591652,52.376881 C66.5652522,49.6492603 70.0944696,49.6504759 71.5005565,52.376881 L130.545252,155.009079 L6.10229565,155.009079 L30.9711652,111.791364" id="Stroke-39" stroke="#2F3061" stroke-width="2" stroke-linecap="round" stroke-linejoin="round" mask="url(#mask-24)"></path>
                </g>
                <g id="Group-44">
                    <mask id="mask-26" fill="white">
                        <use xlink:href="#path-25"></use>
                    </mask>
                    <g id="Clip-43"></g>
                    <path d="M82.6438261,34.6908621 L67.6796522,41.2984138 C67.0453913,41.5791983 66.3015652,41.2923362 66.0203478,40.6578362 L63.441913,34.8355086 L79.6246957,27.6882672 C80.0532174,27.4986466 80.5036522,27.9094914 80.353913,28.3531552 L79.1815652,31.8161638 C79.0890435,32.0896552 79.2290435,32.3862414 79.498087,32.4907759 L82.6194783,33.696569 C83.0686957,33.8691724 83.082087,34.4963793 82.6438261,34.6908621" id="Fill-42" fill="#CC3E3E" mask="url(#mask-26)"></path>
                </g>
                <g id="Group-47">
                    <mask id="mask-28" fill="white">
                        <use xlink:href="#path-27"></use>
                    </mask>
                    <g id="Clip-46"></g>
                    <path d="M75.6770609,33.7798319 L61.7111478,39.9461509 L58.6238435,32.9751595 L71.212887,27.4153836 C71.9725391,27.0799009 72.8612348,27.4238922 73.1972348,28.182375 L75.6770609,33.7798319 Z" id="Fill-45" fill="#FF6B6B" mask="url(#mask-28)"></path>
                </g>
                <g id="Group-50">
                    <mask id="mask-30" fill="white">
                        <use xlink:href="#path-29"></use>
                    </mask>
                    <g id="Clip-49"></g>
                    <path d="M58.624087,32.9750379 L66.5687826,50.9124259" id="Stroke-48" stroke="#2F3061" stroke-width="2" stroke-linecap="round" stroke-linejoin="round" mask="url(#mask-30)"></path>
                </g>
            </g>
        </g>
    </g>
</svg>