<?xml version="1.0" encoding="UTF-8"?>
<svg width="162px" height="110px" viewBox="0 0 162 110" version="1.1" xmlns="http://www.w3.org/2000/svg" xmlns:xlink="http://www.w3.org/1999/xlink">
    <!-- Generator: Sketch 50.2 (55047) - http://www.bohemiancoding.com/sketch -->
    <title>Artboard</title>
    <desc>Created with Sketch.</desc>
    <defs>
        <polygon id="path-1" points="0 128 130.42 128 130.42 0.809 0 0.809"></polygon>
    </defs>
    <g id="Artboard" stroke="none" stroke-width="1" fill="none" fill-rule="evenodd">
        <g id="Page-1" transform="translate(86.500000, 57.500000) rotate(9.000000) translate(-86.500000, -57.500000) translate(21.000000, -7.000000)">
            <polygon id="Fill-1" fill="#D37B6E" points="113.7464 97.5765 114.7834 94.3305 117.3284 96.5965 116.2914 99.8425"></polygon>
            <g id="Group-149" transform="translate(0.000000, 0.191000)">
                <path d="M3.0003,79.8913 C3.0003,80.7193 2.3283,81.3913 1.5003,81.3913 C0.6713,81.3913 0.0003,80.7193 0.0003,79.8913 C0.0003,79.0633 0.6713,78.3913 1.5003,78.3913 C2.3283,78.3913 3.0003,79.0633 3.0003,79.8913" id="Fill-2" fill="#D37B6E"></path>
                <path d="M61.1497,54.7751 C60.8677,56.3721 58.9787,56.0391 58.6967,57.6351 C58.4147,59.2351 60.3027,59.5691 60.0207,61.1691 C59.7387,62.7681 57.8487,62.4341 57.5667,64.0351" id="Stroke-4" stroke="#D37B6E" stroke-width="2" stroke-linecap="round"></path>
                <path d="M101.2367,18.7595 L96.6827,17.0305" id="Stroke-6" stroke="#D37B6E" stroke-width="2" stroke-linecap="round"></path>
                <path d="M99.8236,15.6179 L98.0946,20.1719" id="Stroke-8" stroke="#D37B6E" stroke-width="2" stroke-linecap="round"></path>
                <path d="M13.8753,28.5945 L10.0313,31.5865" id="Stroke-10" stroke="#D37B6E" stroke-width="2" stroke-linecap="round"></path>
                <path d="M10.4574,28.1687 L13.4494,32.0127" id="Stroke-12" stroke="#D37B6E" stroke-width="2" stroke-linecap="round"></path>
                <polygon id="Fill-14" fill="#E6D3A3" points="84.4417 39.6941 86.6117 37.0661 88.1307 40.1161 85.9627 42.7431"></polygon>
                <polygon id="Fill-16" fill="#E6D3A3" points="29.6741 27.6794 32.2171 25.4124 33.2561 28.6574 30.7131 30.9244"></polygon>
                <polygon id="Fill-18" fill="#E6D3A3" points="104.5081 79.0505 106.8581 76.5825 108.1581 79.7325 105.8091 82.1995"></polygon>
                <path d="M75.7074,15.4831 C75.4804,17.0891 73.5704,16.8201 73.3444,18.4261 C73.1174,20.0351 75.0274,20.3041 74.8014,21.9131 C74.5744,23.5211 72.6644,23.2521 72.4364,24.8601" id="Stroke-20" stroke="#E6D3A3" stroke-width="2" stroke-linecap="round" stroke-linejoin="round"></path>
                <path d="M7.8695,44.9157 C8.8055,46.2397 7.5065,47.1587 8.4425,48.4827 C9.3815,49.8097 10.6805,48.8907 11.6175,50.2177 C12.5565,51.5437 11.2565,52.4617 12.1945,53.7887" id="Stroke-22" stroke="#E6D3A3" stroke-width="2" stroke-linecap="round" stroke-linejoin="round"></path>
                <path d="M130.0941,81.3913 C130.0941,82.2193 129.4231,82.8913 128.5941,82.8913 C127.7661,82.8913 127.0941,82.2193 127.0941,81.3913 C127.0941,80.5633 127.7661,79.8913 128.5941,79.8913 C129.4231,79.8913 130.0941,80.5633 130.0941,81.3913" id="Fill-24" fill="#2F3061"></path>
                <path d="M37.9652,60.905 C37.9652,61.733 37.2932,62.405 36.4652,62.405 C35.6372,62.405 34.9652,61.733 34.9652,60.905 C34.9652,60.076 35.6372,59.405 36.4652,59.405 C37.2932,59.405 37.9652,60.076 37.9652,60.905" id="Fill-26" fill="#2F3061"></path>
                <path d="M129.4193,45.2204 C128.7853,46.7124 127.1353,46.0114 126.5003,47.5034 C125.8653,48.9984 127.5153,49.6994 126.8803,51.1954 C126.2443,52.6904 124.5943,51.9894 123.9593,53.4844" id="Stroke-30" stroke="#2F3061" stroke-width="2" stroke-linecap="round" stroke-linejoin="round"></path>
                <path d="M12.4437,67.0632 L7.6207,67.7462" id="Stroke-32" stroke="#2F3061" stroke-width="2" stroke-linecap="round" stroke-linejoin="round"></path>
                <path d="M9.6908,64.9929 L10.3738,69.8159" id="Stroke-34" stroke="#2F3061" stroke-width="2" stroke-linecap="round" stroke-linejoin="round"></path>
                <path d="M103.9134,51.6208 C108.2994,52.5788 112.8704,50.1118 114.0914,45.7908 C114.1544,45.5668 114.2074,45.3438 114.2524,45.1208 C115.3894,39.3688 109.5224,34.6848 104.0114,36.6828 L78.2694,46.0168 L103.9134,51.6208 Z" id="Stroke-36" stroke="#2F3061" stroke-width="4" stroke-linecap="round" stroke-linejoin="round"></path>
                <path d="M53.0882,40.5124 C48.7012,39.5544 45.5762,35.4054 46.2702,30.9684 C46.3062,30.7394 46.3512,30.5144 46.4032,30.2924 C47.7702,24.5914 55.0552,22.7814 59.2312,26.8974 L78.7312,46.1164 L53.0882,40.5124 Z" id="Stroke-38" stroke="#2F3061" stroke-width="4" stroke-linecap="round" stroke-linejoin="round"></path>
                <path d="M114.8744,69.2712 L35.7634,51.9812 C34.1444,51.6272 33.1204,50.0302 33.4744,48.4122 L35.1614,40.6882 C35.5154,39.0702 37.1134,38.0452 38.7314,38.3992 L117.8434,55.6882 C119.4604,56.0422 120.4854,57.6402 120.1324,59.2582 L118.4434,66.9822 C118.0904,68.5992 116.4924,69.6252 114.8744,69.2712" id="Fill-40" fill="#E6D3A3"></path>
                <path d="M114.8744,69.2712 L35.7634,51.9812 C34.1444,51.6272 33.1204,50.0302 33.4744,48.4122 L35.1614,40.6882 C35.5154,39.0702 37.1134,38.0452 38.7314,38.3992 L117.8434,55.6882 C119.4604,56.0422 120.4854,57.6402 120.1324,59.2582 L118.4434,66.9822 C118.0904,68.5992 116.4924,69.6252 114.8744,69.2712 Z" id="Stroke-42" stroke="#2F3061" stroke-width="2" stroke-linecap="round" stroke-linejoin="round"></path>
                <polygon id="Fill-44" fill="#D37B6E" points="86.7601 63.1267 64.3381 58.2267 67.3071 44.6447 89.7291 49.5437"></polygon>
                <polygon id="Stroke-46" stroke="#2F3061" stroke-width="2" stroke-linecap="round" stroke-linejoin="round" points="86.7601 63.1267 64.3381 58.2267 67.3071 44.6447 89.7291 49.5437"></polygon>
                <path d="M92.7523,126.9997 L18.7493,126.9997 C17.0943,126.9997 15.7513,125.6567 15.7513,124.0017 L15.7513,74.3907 C15.7513,72.7337 17.0943,71.3917 18.7503,71.3917 L92.7523,71.3917 C94.4083,71.3917 95.7513,72.7337 95.7513,74.3907 L95.7513,124.0017 C95.7513,125.6567 94.4083,126.9997 92.7523,126.9997" id="Fill-48" fill="#E8A499"></path>
                <path d="M92.7523,126.9997 L18.7493,126.9997 C17.0943,126.9997 15.7513,125.6567 15.7513,124.0017 L15.7513,74.3907 C15.7513,72.7337 17.0943,71.3917 18.7503,71.3917 L92.7523,71.3917 C94.4083,71.3917 95.7513,72.7337 95.7513,74.3907 L95.7513,124.0017 C95.7513,125.6567 94.4083,126.9997 92.7523,126.9997 Z" id="Stroke-50" stroke="#2F3061" stroke-width="2" stroke-linecap="round" stroke-linejoin="round"></path>
                <path d="M23.0013,78.6413 C23.0013,79.3313 22.4413,79.8913 21.7513,79.8913 C21.0613,79.8913 20.5013,79.3313 20.5013,78.6413 C20.5013,77.9513 21.0613,77.3913 21.7513,77.3913 C22.4413,77.3913 23.0013,77.9513 23.0013,78.6413" id="Fill-52" fill="#D37B6E"></path>
                <path d="M91.0013,78.6413 C91.0013,79.3313 90.4413,79.8913 89.7513,79.8913 C89.0613,79.8913 88.5013,79.3313 88.5013,78.6413 C88.5013,77.9513 89.0613,77.3913 89.7513,77.3913 C90.4413,77.3913 91.0013,77.9513 91.0013,78.6413" id="Fill-54" fill="#D37B6E"></path>
                <path d="M81.2865,78.6413 C81.2865,79.3313 80.7265,79.8913 80.0365,79.8913 C79.3465,79.8913 78.7865,79.3313 78.7865,78.6413 C78.7865,77.9513 79.3465,77.3913 80.0365,77.3913 C80.7265,77.3913 81.2865,77.9513 81.2865,78.6413" id="Fill-56" fill="#D37B6E"></path>
                <path d="M71.5726,78.6413 C71.5726,79.3313 71.0126,79.8913 70.3226,79.8913 C69.6326,79.8913 69.0726,79.3313 69.0726,78.6413 C69.0726,77.9513 69.6326,77.3913 70.3226,77.3913 C71.0126,77.3913 71.5726,77.9513 71.5726,78.6413" id="Fill-58" fill="#D37B6E"></path>
                <path d="M61.8577,78.6413 C61.8577,79.3313 61.2977,79.8913 60.6077,79.8913 C59.9187,79.8913 59.3577,79.3313 59.3577,78.6413 C59.3577,77.9513 59.9187,77.3913 60.6077,77.3913 C61.2977,77.3913 61.8577,77.9513 61.8577,78.6413" id="Fill-60" fill="#D37B6E"></path>
                <path d="M52.1439,78.6413 C52.1439,79.3313 51.5839,79.8913 50.8939,79.8913 C50.2039,79.8913 49.6439,79.3313 49.6439,78.6413 C49.6439,77.9513 50.2039,77.3913 50.8939,77.3913 C51.5839,77.3913 52.1439,77.9513 52.1439,78.6413" id="Fill-62" fill="#D37B6E"></path>
                <path d="M42.43,78.6413 C42.43,79.3313 41.87,79.8913 41.18,79.8913 C40.49,79.8913 39.93,79.3313 39.93,78.6413 C39.93,77.9513 40.49,77.3913 41.18,77.3913 C41.87,77.3913 42.43,77.9513 42.43,78.6413" id="Fill-64" fill="#D37B6E"></path>
                <path d="M32.7152,78.6413 C32.7152,79.3313 32.1552,79.8913 31.4652,79.8913 C30.7752,79.8913 30.2152,79.3313 30.2152,78.6413 C30.2152,77.9513 30.7752,77.3913 31.4652,77.3913 C32.1552,77.3913 32.7152,77.9513 32.7152,78.6413" id="Fill-66" fill="#D37B6E"></path>
                <path d="M28.0013,85.7243 C28.0013,86.4143 27.4413,86.9743 26.7513,86.9743 C26.0613,86.9743 25.5013,86.4143 25.5013,85.7243 C25.5013,85.0343 26.0613,84.4743 26.7513,84.4743 C27.4413,84.4743 28.0013,85.0343 28.0013,85.7243" id="Fill-68" fill="#D37B6E"></path>
                <path d="M86.2865,85.7243 C86.2865,86.4143 85.7265,86.9743 85.0365,86.9743 C84.3465,86.9743 83.7865,86.4143 83.7865,85.7243 C83.7865,85.0343 84.3465,84.4743 85.0365,84.4743 C85.7265,84.4743 86.2865,85.0343 86.2865,85.7243" id="Fill-70" fill="#D37B6E"></path>
                <path d="M76.5726,85.7243 C76.5726,86.4143 76.0126,86.9743 75.3226,86.9743 C74.6326,86.9743 74.0726,86.4143 74.0726,85.7243 C74.0726,85.0343 74.6326,84.4743 75.3226,84.4743 C76.0126,84.4743 76.5726,85.0343 76.5726,85.7243" id="Fill-72" fill="#D37B6E"></path>
                <path d="M57.1439,85.7243 C57.1439,86.4143 56.5839,86.9743 55.8939,86.9743 C55.2039,86.9743 54.6439,86.4143 54.6439,85.7243 C54.6439,85.0343 55.2039,84.4743 55.8939,84.4743 C56.5839,84.4743 57.1439,85.0343 57.1439,85.7243" id="Fill-74" fill="#D37B6E"></path>
                <path d="M37.7152,85.7243 C37.7152,86.4143 37.1552,86.9743 36.4652,86.9743 C35.7752,86.9743 35.2152,86.4143 35.2152,85.7243 C35.2152,85.0343 35.7752,84.4743 36.4652,84.4743 C37.1552,84.4743 37.7152,85.0343 37.7152,85.7243" id="Fill-76" fill="#D37B6E"></path>
                <path d="M23.0013,92.6687 C23.0013,93.3587 22.4413,93.9187 21.7513,93.9187 C21.0613,93.9187 20.5013,93.3587 20.5013,92.6687 C20.5013,91.9787 21.0613,91.4187 21.7513,91.4187 C22.4413,91.4187 23.0013,91.9787 23.0013,92.6687" id="Fill-78" fill="#D37B6E"></path>
                <path d="M91.0013,92.6687 C91.0013,93.3587 90.4413,93.9187 89.7513,93.9187 C89.0613,93.9187 88.5013,93.3587 88.5013,92.6687 C88.5013,91.9787 89.0613,91.4187 89.7513,91.4187 C90.4413,91.4187 91.0013,91.9787 91.0013,92.6687" id="Fill-80" fill="#D37B6E"></path>
                <path d="M81.2865,92.6687 C81.2865,93.3587 80.7265,93.9187 80.0365,93.9187 C79.3465,93.9187 78.7865,93.3587 78.7865,92.6687 C78.7865,91.9787 79.3465,91.4187 80.0365,91.4187 C80.7265,91.4187 81.2865,91.9787 81.2865,92.6687" id="Fill-82" fill="#D37B6E"></path>
                <path d="M71.5726,92.6687 C71.5726,93.3587 71.0126,93.9187 70.3226,93.9187 C69.6326,93.9187 69.0726,93.3587 69.0726,92.6687 C69.0726,91.9787 69.6326,91.4187 70.3226,91.4187 C71.0126,91.4187 71.5726,91.9787 71.5726,92.6687" id="Fill-84" fill="#D37B6E"></path>
                <path d="M61.8577,92.6687 C61.8577,93.3587 61.2977,93.9187 60.6077,93.9187 C59.9187,93.9187 59.3577,93.3587 59.3577,92.6687 C59.3577,91.9787 59.9187,91.4187 60.6077,91.4187 C61.2977,91.4187 61.8577,91.9787 61.8577,92.6687" id="Fill-86" fill="#D37B6E"></path>
                <path d="M52.1439,92.6687 C52.1439,93.3587 51.5839,93.9187 50.8939,93.9187 C50.2039,93.9187 49.6439,93.3587 49.6439,92.6687 C49.6439,91.9787 50.2039,91.4187 50.8939,91.4187 C51.5839,91.4187 52.1439,91.9787 52.1439,92.6687" id="Fill-88" fill="#D37B6E"></path>
                <path d="M42.43,92.6687 C42.43,93.3587 41.87,93.9187 41.18,93.9187 C40.49,93.9187 39.93,93.3587 39.93,92.6687 C39.93,91.9787 40.49,91.4187 41.18,91.4187 C41.87,91.4187 42.43,91.9787 42.43,92.6687" id="Fill-90" fill="#D37B6E"></path>
                <path d="M32.7152,92.6687 C32.7152,93.3587 32.1552,93.9187 31.4652,93.9187 C30.7752,93.9187 30.2152,93.3587 30.2152,92.6687 C30.2152,91.9787 30.7752,91.4187 31.4652,91.4187 C32.1552,91.4187 32.7152,91.9787 32.7152,92.6687" id="Fill-92" fill="#D37B6E"></path>
                <path d="M28.0013,99.7517 C28.0013,100.4417 27.4413,101.0017 26.7513,101.0017 C26.0613,101.0017 25.5013,100.4417 25.5013,99.7517 C25.5013,99.0617 26.0613,98.5017 26.7513,98.5017 C27.4413,98.5017 28.0013,99.0617 28.0013,99.7517" id="Fill-94" fill="#D37B6E"></path>
                <path d="M86.2865,99.7517 C86.2865,100.4417 85.7265,101.0017 85.0365,101.0017 C84.3465,101.0017 83.7865,100.4417 83.7865,99.7517 C83.7865,99.0617 84.3465,98.5017 85.0365,98.5017 C85.7265,98.5017 86.2865,99.0617 86.2865,99.7517" id="Fill-96" fill="#D37B6E"></path>
                <path d="M76.5726,99.7517 C76.5726,100.4417 76.0126,101.0017 75.3226,101.0017 C74.6326,101.0017 74.0726,100.4417 74.0726,99.7517 C74.0726,99.0617 74.6326,98.5017 75.3226,98.5017 C76.0126,98.5017 76.5726,99.0617 76.5726,99.7517" id="Fill-98" fill="#D37B6E"></path>
                <path d="M57.1439,99.7517 C57.1439,100.4417 56.5839,101.0017 55.8939,101.0017 C55.2039,101.0017 54.6439,100.4417 54.6439,99.7517 C54.6439,99.0617 55.2039,98.5017 55.8939,98.5017 C56.5839,98.5017 57.1439,99.0617 57.1439,99.7517" id="Fill-100" fill="#D37B6E"></path>
                <path d="M37.7152,99.7517 C37.7152,100.4417 37.1552,101.0017 36.4652,101.0017 C35.7752,101.0017 35.2152,100.4417 35.2152,99.7517 C35.2152,99.0617 35.7752,98.5017 36.4652,98.5017 C37.1552,98.5017 37.7152,99.0617 37.7152,99.7517" id="Fill-102" fill="#D37B6E"></path>
                <path d="M23.0013,106.697 C23.0013,107.387 22.4413,107.947 21.7513,107.947 C21.0613,107.947 20.5013,107.387 20.5013,106.697 C20.5013,106.007 21.0613,105.447 21.7513,105.447 C22.4413,105.447 23.0013,106.007 23.0013,106.697" id="Fill-104" fill="#D37B6E"></path>
                <path d="M91.0013,106.697 C91.0013,107.387 90.4413,107.947 89.7513,107.947 C89.0613,107.947 88.5013,107.387 88.5013,106.697 C88.5013,106.007 89.0613,105.447 89.7513,105.447 C90.4413,105.447 91.0013,106.007 91.0013,106.697" id="Fill-106" fill="#D37B6E"></path>
                <path d="M81.2865,106.697 C81.2865,107.387 80.7265,107.947 80.0365,107.947 C79.3465,107.947 78.7865,107.387 78.7865,106.697 C78.7865,106.007 79.3465,105.447 80.0365,105.447 C80.7265,105.447 81.2865,106.007 81.2865,106.697" id="Fill-108" fill="#D37B6E"></path>
                <path d="M71.5726,106.697 C71.5726,107.387 71.0126,107.947 70.3226,107.947 C69.6326,107.947 69.0726,107.387 69.0726,106.697 C69.0726,106.007 69.6326,105.447 70.3226,105.447 C71.0126,105.447 71.5726,106.007 71.5726,106.697" id="Fill-110" fill="#D37B6E"></path>
                <path d="M61.8577,106.697 C61.8577,107.387 61.2977,107.947 60.6077,107.947 C59.9187,107.947 59.3577,107.387 59.3577,106.697 C59.3577,106.007 59.9187,105.447 60.6077,105.447 C61.2977,105.447 61.8577,106.007 61.8577,106.697" id="Fill-112" fill="#D37B6E"></path>
                <path d="M52.1439,106.697 C52.1439,107.387 51.5839,107.947 50.8939,107.947 C50.2039,107.947 49.6439,107.387 49.6439,106.697 C49.6439,106.007 50.2039,105.447 50.8939,105.447 C51.5839,105.447 52.1439,106.007 52.1439,106.697" id="Fill-114" fill="#D37B6E"></path>
                <path d="M42.43,106.697 C42.43,107.387 41.87,107.947 41.18,107.947 C40.49,107.947 39.93,107.387 39.93,106.697 C39.93,106.007 40.49,105.447 41.18,105.447 C41.87,105.447 42.43,106.007 42.43,106.697" id="Fill-116" fill="#D37B6E"></path>
                <path d="M32.7152,106.697 C32.7152,107.387 32.1552,107.947 31.4652,107.947 C30.7752,107.947 30.2152,107.387 30.2152,106.697 C30.2152,106.007 30.7752,105.447 31.4652,105.447 C32.1552,105.447 32.7152,106.007 32.7152,106.697" id="Fill-118" fill="#D37B6E"></path>
                <path d="M28.0013,113.78 C28.0013,114.47 27.4413,115.03 26.7513,115.03 C26.0613,115.03 25.5013,114.47 25.5013,113.78 C25.5013,113.09 26.0613,112.53 26.7513,112.53 C27.4413,112.53 28.0013,113.09 28.0013,113.78" id="Fill-120" fill="#D37B6E"></path>
                <path d="M86.2865,113.78 C86.2865,114.47 85.7265,115.03 85.0365,115.03 C84.3465,115.03 83.7865,114.47 83.7865,113.78 C83.7865,113.09 84.3465,112.53 85.0365,112.53 C85.7265,112.53 86.2865,113.09 86.2865,113.78" id="Fill-122" fill="#D37B6E"></path>
                <path d="M76.5726,113.78 C76.5726,114.47 76.0126,115.03 75.3226,115.03 C74.6326,115.03 74.0726,114.47 74.0726,113.78 C74.0726,113.09 74.6326,112.53 75.3226,112.53 C76.0126,112.53 76.5726,113.09 76.5726,113.78" id="Fill-124" fill="#D37B6E"></path>
                <path d="M57.1439,113.78 C57.1439,114.47 56.5839,115.03 55.8939,115.03 C55.2039,115.03 54.6439,114.47 54.6439,113.78 C54.6439,113.09 55.2039,112.53 55.8939,112.53 C56.5839,112.53 57.1439,113.09 57.1439,113.78" id="Fill-126" fill="#D37B6E"></path>
                <path d="M37.7152,113.78 C37.7152,114.47 37.1552,115.03 36.4652,115.03 C35.7752,115.03 35.2152,114.47 35.2152,113.78 C35.2152,113.09 35.7752,112.53 36.4652,112.53 C37.1552,112.53 37.7152,113.09 37.7152,113.78" id="Fill-128" fill="#D37B6E"></path>
                <path d="M23.0013,120.7243 C23.0013,121.4143 22.4413,121.9743 21.7513,121.9743 C21.0613,121.9743 20.5013,121.4143 20.5013,120.7243 C20.5013,120.0343 21.0613,119.4743 21.7513,119.4743 C22.4413,119.4743 23.0013,120.0343 23.0013,120.7243" id="Fill-130" fill="#D37B6E"></path>
                <path d="M52.1439,120.7243 C52.1439,121.4143 51.5839,121.9743 50.8939,121.9743 C50.2039,121.9743 49.6439,121.4143 49.6439,120.7243 C49.6439,120.0343 50.2039,119.4743 50.8939,119.4743 C51.5839,119.4743 52.1439,120.0343 52.1439,120.7243" id="Fill-140" fill="#D37B6E"></path>
                <path d="M42.43,120.7243 C42.43,121.4143 41.87,121.9743 41.18,121.9743 C40.49,121.9743 39.93,121.4143 39.93,120.7243 C39.93,120.0343 40.49,119.4743 41.18,119.4743 C41.87,119.4743 42.43,120.0343 42.43,120.7243" id="Fill-142" fill="#D37B6E"></path>
                <path d="M32.7152,120.7243 C32.7152,121.4143 32.1552,121.9743 31.4652,121.9743 C30.7752,121.9743 30.2152,121.4143 30.2152,120.7243 C30.2152,120.0343 30.7752,119.4743 31.4652,119.4743 C32.1552,119.4743 32.7152,120.0343 32.7152,120.7243" id="Fill-144" fill="#D37B6E"></path>
                <mask id="mask-2" fill="white">
                    <use xlink:href="#path-1"></use>
                </mask>
                <g id="Clip-147"></g>
                <polygon id="Fill-146" fill="#D37B6E" mask="url(#mask-2)" points="47.774 127 64.201 127 64.201 71.392 47.774 71.392"></polygon>
                <polygon id="Stroke-148" stroke="#2F3061" stroke-width="2" stroke-linecap="round" stroke-linejoin="round" mask="url(#mask-2)" points="47.774 127 64.201 127 64.201 71.392 47.774 71.392"></polygon>
            </g>
        </g>
    </g>
</svg>