<?xml version="1.0" encoding="UTF-8"?>
<svg width="140px" height="140px" viewBox="0 0 140 140" version="1.1" xmlns="http://www.w3.org/2000/svg" xmlns:xlink="http://www.w3.org/1999/xlink">
    <!-- Generator: Sketch 50.2 (55047) - http://www.bohemiancoding.com/sketch -->
    <title>Page 1</title>
    <desc>Created with Sketch.</desc>
    <defs></defs>
    <g id="smileys" stroke="none" stroke-width="1" fill="none" fill-rule="evenodd">
        <g id="Artboard">
            <g id="Page-1">
                <path d="M140,70 C140,108.66 108.66,140 70,140 C31.34,140 0,108.66 0,70 C0,31.34 31.34,0 70,0 C108.66,0 140,31.34 140,70" id="Fill-1" fill="#FFD478"></path>
                <path d="M77.4395,119.8599 C75.2595,120.3199 73.0095,120.5799 70.7105,120.6199 C68.0005,120.6699 65.3595,120.4199 62.8105,119.8799" id="Stroke-3" stroke="#2F3061" stroke-width="4" stroke-linecap="round" stroke-linejoin="round"></path>
                <path d="M87.5322,49.8306 C87.5322,44.6486 91.7332,40.4476 96.9152,40.4476 C102.0972,40.4476 106.2982,44.6486 106.2982,49.8306" id="Stroke-5" stroke="#2F3061" stroke-width="4" stroke-linecap="round" stroke-linejoin="round"></path>
                <path d="M33.9141,49.8306 C33.9141,44.6486 38.1141,40.4476 43.2961,40.4476 C48.4781,40.4476 52.6791,44.6486 52.6791,49.8306" id="Stroke-7" stroke="#2F3061" stroke-width="4" stroke-linecap="round" stroke-linejoin="round"></path>
                <path d="M96.79,100.8198 C90.3,107.9198 81.03,112.4198 70.71,112.6198 C59.9,112.8298 50.13,108.1098 43.34,100.5898 C47.76,92.8298 58.03,87.3798 70,87.3798 C82.09,87.3798 92.439,92.9298 96.79,100.8198" id="Fill-9" fill="#E897A3"></path>
                <path d="M96.79,100.8198 C90.3,107.9198 81.03,112.4198 70.71,112.6198 C59.9,112.8298 50.13,108.1098 43.34,100.5898 C47.76,92.8298 58.03,87.3798 70,87.3798 C82.09,87.3798 92.439,92.9298 96.79,100.8198 Z" id="Stroke-11" stroke="#2F3061" stroke-width="4" stroke-linecap="round" stroke-linejoin="round"></path>
                <path d="M106.2998,72.7998 L106.2998,76.3298 C106.2998,85.7798 102.6898,94.3698 96.7898,100.8198 C92.4398,92.9298 82.0898,87.3798 69.9998,87.3798 C58.0298,87.3798 47.7598,92.8298 43.3398,100.5898 C37.3598,93.9598 33.6998,85.1498 33.6998,75.6098 L33.6998,72.7998 C33.6998,68.9198 36.8498,65.7698 40.7308,65.7698 L99.2698,65.7698 C103.1508,65.7698 106.2998,68.9198 106.2998,72.7998 Z" id="Stroke-13" stroke="#2F3061" stroke-width="4" stroke-linecap="round" stroke-linejoin="round"></path>
                <path d="M93.6328,77.1299 L46.6218,77.1299 C44.8098,77.1299 43.3398,75.6599 43.3398,73.8469 L43.3398,65.7699 L96.9148,65.7699 L96.9148,73.8469 C96.9148,75.6599 95.4448,77.1299 93.6328,77.1299" id="Fill-15" fill="#E2EFF3"></path>
                <path d="M93.6328,77.1299 L46.6218,77.1299 C44.8098,77.1299 43.3398,75.6599 43.3398,73.8469 L43.3398,65.7699 L96.9148,65.7699 L96.9148,73.8469 C96.9148,75.6599 95.4448,77.1299 93.6328,77.1299 Z" id="Stroke-17" stroke="#2F3061" stroke-width="4" stroke-linecap="round" stroke-linejoin="round"></path>
                <path d="M130,68.4497 C130,71.5717 127.47,74.1027 124.348,74.1027 C121.226,74.1027 118.695,71.5717 118.695,68.4497 C118.695,65.3277 121.226,62.7977 124.348,62.7977 C127.47,62.7977 130,65.3277 130,68.4497" id="Fill-19" fill="#DBAD4A"></path>
                <path d="M21.3047,68.4497 C21.3047,71.5717 18.7747,74.1027 15.6527,74.1027 C12.5307,74.1027 9.9997,71.5717 9.9997,68.4497 C9.9997,65.3277 12.5307,62.7977 15.6527,62.7977 C18.7747,62.7977 21.3047,65.3277 21.3047,68.4497" id="Fill-21" fill="#DBAD4A"></path>
                <path d="M59.5605,8.25 C62.9505,7.68 66.4395,7.38 69.9995,7.38 C73.5605,7.38 77.0495,7.68 80.4395,8.25" id="Stroke-23" stroke="#DBAD4A" stroke-width="4" stroke-linecap="round" stroke-linejoin="round"></path>
            </g>
        </g>
    </g>
</svg>