<?xml version="1.0" encoding="UTF-8"?>
<svg width="140px" height="140px" viewBox="0 0 140 140" version="1.1" xmlns="http://www.w3.org/2000/svg" xmlns:xlink="http://www.w3.org/1999/xlink">
    <!-- Generator: Sketch 50.2 (55047) - http://www.bohemiancoding.com/sketch -->
    <title>Page 1</title>
    <desc>Created with Sketch.</desc>
    <defs>
        <polygon id="path-1" points="0 0 140 0 140 139.9998 0 139.9998"></polygon>
    </defs>
    <g id="smileys" stroke="none" stroke-width="1" fill="none" fill-rule="evenodd">
        <g id="Artboard">
            <g id="Page-1">
                <g id="Group-3">
                    <mask id="mask-2" fill="white">
                        <use xlink:href="#path-1"></use>
                    </mask>
                    <g id="Clip-2"></g>
                    <path d="M140,69.9998 C140,87.2698 133.75,103.0798 123.37,115.2898 C120.95,118.1498 118.3,120.8098 115.44,123.2498 C113.32,125.0598 111.101,126.7398 108.771,128.2898 C108.761,128.2898 108.761,128.2998 108.761,128.2998 C102.92,132.1798 96.479,135.2198 89.58,137.2198 C83.37,139.0298 76.8,139.9998 70,139.9998 C63.29,139.9998 56.81,139.0598 50.67,137.2898 C43.88,135.3498 37.521,132.3998 31.75,128.6298 C29.31,127.0298 26.97,125.2898 24.75,123.3998 C21.9,120.9898 19.24,118.3398 16.82,115.4998 C6.33,103.2698 0,87.3698 0,69.9998 C0,31.3398 31.34,-0.0002 70,-0.0002 C108.66,-0.0002 140,31.3398 140,69.9998" id="Fill-1" fill="#FFD478" mask="url(#mask-2)"></path>
                </g>
                <path d="M62.8076,121.6219 C64.9886,121.1619 67.2386,120.9019 69.5376,120.8619 C72.2476,120.8119 74.8876,121.0619 77.4376,121.6019" id="Stroke-4" stroke="#2F3061" stroke-width="4" stroke-linecap="round" stroke-linejoin="round"></path>
                <path d="M59.5576,8.2459 C62.9486,7.6759 66.4376,7.3759 69.9976,7.3759 C73.5576,7.3759 77.0476,7.6759 80.4376,8.2459" id="Stroke-6" stroke="#DBAD4A" stroke-width="4" stroke-linecap="round" stroke-linejoin="round"></path>
                <path d="M129.998,68.4456 C129.998,71.5676 127.467,74.0976 124.346,74.0976 C121.224,74.0976 118.693,71.5676 118.693,68.4456 C118.693,65.3236 121.224,62.7936 124.346,62.7936 C127.467,62.7936 129.998,65.3236 129.998,68.4456" id="Fill-8" fill="#DBAD4A"></path>
                <path d="M21.3027,68.4456 C21.3027,71.5676 18.7727,74.0976 15.6507,74.0976 C12.5287,74.0976 9.9977,71.5676 9.9977,68.4456 C9.9977,65.3236 12.5287,62.7936 15.6507,62.7936 C18.7727,62.7936 21.3027,65.3236 21.3027,68.4456" id="Fill-10" fill="#DBAD4A"></path>
                <path d="M95.4434,73.9578 C94.9224,74.3078 94.2934,74.5078 93.6234,74.5078 L46.6134,74.5078 C45.8634,74.5078 45.1634,74.2478 44.6034,73.8178 C51.0034,67.4878 59.7534,63.5278 69.4134,63.3378 C79.5334,63.1378 88.7434,67.2678 95.4434,73.9578" id="Fill-12" fill="#E2EFF3"></path>
                <path d="M95.4434,73.9578 C94.9224,74.3078 94.2934,74.5078 93.6234,74.5078 L46.6134,74.5078 C45.8634,74.5078 45.1634,74.2478 44.6034,73.8178 C51.0034,67.4878 59.7534,63.5278 69.4134,63.3378 C79.5334,63.1378 88.7434,67.2678 95.4434,73.9578 Z" id="Stroke-14" stroke="#2F3061" stroke-width="4" stroke-linecap="round" stroke-linejoin="round"></path>
                <path d="M106.4229,100.348 L106.4229,103.158 C106.4229,107.038 103.2739,110.188 99.3939,110.188 L96.3729,110.188 L43.7429,110.188 L40.8539,110.188 C36.9739,110.188 33.8229,107.038 33.8229,103.158 L33.8229,99.628 C33.8229,90.178 37.4339,81.588 43.3329,75.138 C43.7429,74.688 44.1629,74.248 44.6039,73.818 C45.1629,74.248 45.8629,74.508 46.6129,74.508 L93.6229,74.508 C94.2929,74.508 94.9229,74.308 95.4439,73.958 C95.9029,74.418 96.3539,74.888 96.7829,75.368 C102.7639,81.998 106.4229,90.808 106.4229,100.348" id="Fill-16" fill="#DBAD4A"></path>
                <path d="M106.4229,100.348 L106.4229,103.158 C106.4229,107.038 103.2739,110.188 99.3939,110.188 L96.3729,110.188 L43.7429,110.188 L40.8539,110.188 C36.9739,110.188 33.8229,107.038 33.8229,103.158 L33.8229,99.628 C33.8229,90.178 37.4339,81.588 43.3329,75.138 C43.7429,74.688 44.1629,74.248 44.6039,73.818 C45.1629,74.248 45.8629,74.508 46.6129,74.508 L93.6229,74.508 C94.2929,74.508 94.9229,74.308 95.4439,73.958 C95.9029,74.418 96.3539,74.888 96.7829,75.368 C102.7639,81.998 106.4229,90.808 106.4229,100.348 Z" id="Stroke-18" stroke="#2F3061" stroke-width="4" stroke-linecap="round" stroke-linejoin="round"></path>
                <path d="M42.8467,110.1878 C43.8807,108.5108 46.7977,108.2768 48.3417,106.8628 C49.7877,105.5378 50.2077,102.6518 52.0277,101.6148 C53.7367,100.6408 56.4547,101.7158 58.4317,101.0418 C60.3007,100.4048 61.7707,97.8768 63.8257,97.5478 C65.7807,97.2348 67.9747,98.1628 70.0537,98.1628 C72.1327,98.1628 74.3257,97.2348 76.2817,97.5468 C78.3377,97.8748 79.8087,100.4028 81.6777,101.0398 C83.6557,101.7118 86.3737,100.6368 88.0837,101.6108 C89.9057,102.6488 90.3257,105.5348 91.7737,106.8608 C93.3167,108.2748 96.2347,108.5088 97.2697,110.1878 L42.8467,110.1878 Z" id="Fill-20" fill="#E897A3"></path>
                <path d="M42.8467,110.1878 C43.8807,108.5108 46.7977,108.2768 48.3417,106.8628 C49.7877,105.5378 50.2077,102.6518 52.0277,101.6148 C53.7367,100.6408 56.4547,101.7158 58.4317,101.0418 C60.3007,100.4048 61.7707,97.8768 63.8257,97.5478 C65.7807,97.2348 67.9747,98.1628 70.0537,98.1628 C72.1327,98.1628 74.3257,97.2348 76.2817,97.5468 C78.3377,97.8748 79.8087,100.4028 81.6777,101.0398 C83.6557,101.7118 86.3737,100.6368 88.0837,101.6108 C89.9057,102.6488 90.3257,105.5348 91.7737,106.8608 C93.3167,108.2748 96.2347,108.5088 97.2697,110.1878 L42.8467,110.1878 Z" id="Stroke-22" stroke="#2F3061" stroke-width="4" stroke-linecap="round" stroke-linejoin="round"></path>
                <path d="M123.3701,115.2899 C120.9501,118.1499 118.3001,120.8099 115.4401,123.2499 L115.4401,119.5499 C115.4401,79.8199 95.6811,65.7599 95.4791,65.6299 C94.3901,64.8799 93.7501,63.6499 93.7501,62.3299 L93.7501,48.7499 L101.7501,48.7499 L101.7501,58.6299 C101.7501,59.7399 102.2001,60.7899 103.0111,61.5499 C109.0801,67.2899 122.2801,83.3699 123.3701,115.2899" id="Fill-24" fill="#A5D9E4"></path>
                <path d="M46.4404,48.7498 L46.4404,62.3298 C46.4404,63.6498 45.7904,64.8798 44.7104,65.6298 C44.5104,65.7598 24.7504,79.8198 24.7504,119.5498 L24.7504,123.3998 C21.9004,120.9898 19.2404,118.3398 16.8204,115.4998 C17.8604,83.4398 31.0894,67.2998 37.1804,61.5498 C37.9794,60.7898 38.4404,59.7398 38.4404,58.6298 L38.4404,48.7498 L46.4404,48.7498 Z" id="Fill-26" fill="#A5D9E4"></path>
                <path d="M33.915,39.6751 C36.996,41.2581 40.716,41.5671 44.199,40.2141 C47.43,38.9601 49.847,36.5151 51.142,33.5751" id="Stroke-28" stroke="#2F3061" stroke-width="4" stroke-linecap="round" stroke-linejoin="round"></path>
                <path d="M106.2949,39.6751 C103.2139,41.2581 99.4939,41.5671 96.0109,40.2141 C92.7799,38.9601 90.3629,36.5151 89.0679,33.5751" id="Stroke-30" stroke="#2F3061" stroke-width="4" stroke-linecap="round" stroke-linejoin="round"></path>
                <path d="M106.4229,48.2191 L89.0689,48.2191" id="Stroke-32" stroke="#2F3061" stroke-width="4" stroke-linecap="round" stroke-linejoin="round"></path>
                <path d="M51.2061,48.2191 L33.8521,48.2191" id="Stroke-34" stroke="#2F3061" stroke-width="4" stroke-linecap="round" stroke-linejoin="round"></path>
            </g>
        </g>
    </g>
</svg>