<?xml version="1.0" encoding="UTF-8"?>
<svg width="185px" height="85px" viewBox="0 0 185 85" version="1.1" xmlns="http://www.w3.org/2000/svg" xmlns:xlink="http://www.w3.org/1999/xlink">
    <!-- Generator: Sketch 50.2 (55047) - http://www.bohemiancoding.com/sketch -->
    <title>Artboard</title>
    <desc>Created with Sketch.</desc>
    <defs></defs>
    <g id="Artboard" stroke="none" stroke-width="1" fill="none" fill-rule="evenodd">
        <g id="Page-1" transform="translate(20.000000, 1.000000)">
            <path d="M164.5671,31.3342 C164.4861,32.4772 163.4481,33.3182 162.3031,33.3182 L88.2641,33.3182 C87.1041,33.3182 86.1631,32.3782 86.1631,31.2172 C86.1631,30.0832 87.0621,29.1662 88.1961,29.1192 C89.6831,29.0572 91.4431,28.6922 91.4431,27.3182 C91.4431,22.2622 97.1231,18.7982 102.4131,18.7982 C103.6731,18.7982 104.8931,19.0092 106.0231,19.3892 C107.1431,19.7592 108.4031,19.3892 109.1031,18.4382 C112.0731,14.4692 116.8131,11.8892 122.1531,11.8892 C127.8031,11.8892 132.7831,14.7782 135.6931,19.1582 C136.3531,20.1392 137.5041,20.6792 138.6631,20.4382 C139.3931,20.2882 140.1631,20.2082 140.9431,20.2082 C146.3431,20.2082 150.8631,23.9882 152.0041,29.0482 L162.4331,29.0482 C163.0231,29.0482 163.5531,29.2882 163.9431,29.6682 C164.3671,30.0932 164.6141,30.6822 164.5671,31.3342" id="Fill-1" fill="#DFE4E6"></path>
            <path d="M78.404,52.258 C78.323,53.4 77.285,54.241 76.14,54.241 L2.101,54.241 C0.941,54.241 0,53.301 0,52.141 C0,51.006 0.899,50.09 2.033,50.042 C3.52,49.98 5.28,49.615 5.28,48.241 C5.28,43.185 10.96,39.722 16.25,39.722 C17.51,39.722 18.73,39.932 19.86,40.312 C20.98,40.682 22.24,40.312 22.94,39.362 C25.91,35.392 30.65,32.812 35.99,32.812 C41.64,32.812 46.62,35.701 49.53,40.081 C50.19,41.062 51.341,41.602 52.5,41.362 C53.23,41.211 54,41.132 54.78,41.132 C60.18,41.132 64.7,44.911 65.841,49.972 L76.27,49.972 C76.86,49.972 77.39,50.211 77.78,50.592 C78.204,51.016 78.451,51.606 78.404,52.258" id="Fill-3" fill="#DFE4E6"></path>
            <path d="M39.9079,4.468 C40.6409,2.912 41.4839,1.42 42.4269,-1.42108547e-14" id="Stroke-5" stroke="#2F3061" stroke-width="2" stroke-linecap="round" stroke-linejoin="round"></path>
            <path d="M36.5466,19.5305 C36.5466,17.3035 36.7526,15.1255 37.1476,13.0115" id="Stroke-7" stroke="#2F3061" stroke-width="2" stroke-linecap="round" stroke-linejoin="round"></path>
            <path d="M60.5778,69.6154 C59.5648,70.5014 58.7758,71.5064 58.4028,72.6304" id="Stroke-9" stroke="#2F3061" stroke-width="2" stroke-linecap="round" stroke-linejoin="round"></path>
            <path d="M71.4967,64.6037 C71.4967,64.6037 69.7267,65.0167 67.4777,65.8497" id="Stroke-11" stroke="#2F3061" stroke-width="2" stroke-linecap="round" stroke-linejoin="round"></path>
            <path d="M113.7966,40.4797 C112.2866,41.4907 110.8666,44.0807 109.8266,47.4597 C109.1366,49.7097 107.9066,51.7807 106.1476,53.3397 L106.1166,53.3707 C96.9066,61.6797 83.7166,64.7407 71.4966,60.7507 C71.4966,60.7507 54.7666,64.6607 52.1166,72.6297 C52.1166,72.6297 39.8566,68.7807 39.4966,52.2907 C39.4966,52.2907 48.2366,56.0807 56.9966,51.6797 C55.4066,50.0407 53.9966,48.2597 52.7756,46.3707 C52.7666,46.3597 52.7666,46.3497 52.7566,46.3397 C52.5366,46.1397 52.3266,45.9297 52.1166,45.7297 C45.5866,39.3307 41.5466,30.3997 41.5466,20.5307 C41.5466,13.3097 43.7166,6.5897 47.4266,1.0007 C53.2366,9.7407 62.8036,15.9237 73.8466,16.6897 C83.2246,17.3397 90.5966,20.9597 95.8076,30.4697 C97.9666,27.3497 101.5866,25.3207 105.6766,25.3207 C111.2566,25.3207 115.9566,29.1207 117.3176,34.2697 C117.3176,34.2697 112.1566,34.2297 113.7966,40.4797" id="Fill-13" fill="#25AEF2"></path>
            <path d="M113.7966,40.4797 C112.2866,41.4907 110.8666,44.0807 109.8266,47.4597 C109.1366,49.7097 107.9066,51.7807 106.1476,53.3397 L106.1166,53.3707 C96.9066,61.6797 83.7166,64.7407 71.4966,60.7507 C71.4966,60.7507 54.7666,64.6607 52.1166,72.6297 C52.1166,72.6297 39.8566,68.7807 39.4966,52.2907 C39.4966,52.2907 48.2366,56.0807 56.9966,51.6797 C55.4066,50.0407 53.9966,48.2597 52.7756,46.3707 C52.7666,46.3597 52.7666,46.3497 52.7566,46.3397 C52.5366,46.1397 52.3266,45.9297 52.1166,45.7297 C45.5866,39.3307 41.5466,30.3997 41.5466,20.5307 C41.5466,13.3097 43.7166,6.5897 47.4266,1.0007 C53.2366,9.7407 62.8036,15.9237 73.8466,16.6897 C83.2246,17.3397 90.5966,20.9597 95.8076,30.4697 C97.9666,27.3497 101.5866,25.3207 105.6766,25.3207 C111.2566,25.3207 115.9566,29.1207 117.3176,34.2697 C117.3176,34.2697 112.1566,34.2297 113.7966,40.4797 Z" id="Stroke-15" stroke="#2F3061" stroke-width="2" stroke-linecap="round" stroke-linejoin="round"></path>
            <path d="M90.5964,47.1945 C90.5964,47.1945 87.6584,51.5485 81.2384,51.5485" id="Stroke-17" stroke="#2F3061" stroke-width="2" stroke-linecap="round" stroke-linejoin="round"></path>
            <path d="M71.4987,60.7531 C70.1437,60.3101 68.7987,59.7801 67.4737,59.1611" id="Stroke-19" stroke="#2F3061" stroke-width="2" stroke-linecap="round" stroke-linejoin="round"></path>
            <path d="M66.3942,54.2941 C60.8612,52.5731 55.9092,49.5291 51.9112,45.5321" id="Stroke-21" stroke="#2F3061" stroke-width="2" stroke-linecap="round" stroke-linejoin="round"></path>
            <path d="M95.8503,30.5588 C96.7063,32.5358 97.4913,34.7888 98.1703,37.3598" id="Stroke-23" stroke="#2F3061" stroke-width="2" stroke-linecap="round" stroke-linejoin="round"></path>
            <path d="M47.5876,0.757 C47.5376,0.837 47.4786,0.917 47.4286,0.997" id="Stroke-25" stroke="#2F3061" stroke-width="2" stroke-linecap="round" stroke-linejoin="round"></path>
            <path d="M98.1676,37.3566 C97.4786,34.7476 96.6786,32.4666 95.8086,30.4666" id="Stroke-27" stroke="#2F3061" stroke-width="2" stroke-linecap="round" stroke-linejoin="round"></path>
            <path d="M125.3678,41.3127 C125.3678,41.3127 114.7368,39.8497 113.7968,40.4797 C112.1568,34.2297 117.3168,34.2697 117.3168,34.2697 L125.3678,41.3127 Z" id="Fill-29" fill="#E2C650"></path>
            <path d="M125.3678,41.3127 C125.3678,41.3127 114.7368,39.8497 113.7968,40.4797 C112.1568,34.2297 117.3168,34.2697 117.3168,34.2697 L125.3678,41.3127 Z" id="Stroke-31" stroke="#2F3061" stroke-width="2" stroke-linecap="round" stroke-linejoin="round"></path>
            <path d="M108.8903,33.9123 C108.8903,34.9093 108.0813,35.7183 107.0843,35.7183 C106.0873,35.7183 105.2793,34.9093 105.2793,33.9123 C105.2793,32.9143 106.0873,32.1063 107.0843,32.1063 C108.0813,32.1063 108.8903,32.9143 108.8903,33.9123" id="Fill-33" fill="#2F3061"></path>
            <path d="M45.0788,5.1681 C46.7258,7.6461 48.6758,9.9031 50.8758,11.8891" id="Stroke-35" stroke="#2F3061" stroke-width="2" stroke-linecap="round" stroke-linejoin="round"></path>
            <path d="M42.4909,13.3937 C45.0359,16.3947 48.0629,18.9537 51.4369,20.9597" id="Stroke-37" stroke="#2F3061" stroke-width="2" stroke-linecap="round" stroke-linejoin="round"></path>
            <path d="M41.7145,22.8967 C45.1475,25.8927 49.1295,28.2047 53.4285,29.6987" id="Stroke-39" stroke="#2F3061" stroke-width="2" stroke-linecap="round" stroke-linejoin="round"></path>
            <path d="M45.0788,35.7228 C48.4558,36.5788 51.9378,36.9338 55.4058,36.7808" id="Stroke-41" stroke="#2F3061" stroke-width="2" stroke-linecap="round" stroke-linejoin="round"></path>
            <path d="M51.9108,45.5324 C53.5228,45.5664 55.1338,45.4894 56.7298,45.3054" id="Stroke-43" stroke="#2F3061" stroke-width="2" stroke-linecap="round" stroke-linejoin="round"></path>
            <path d="M83.0231,23.7746 C85.6711,24.8966 88.7861,27.3846 91.1401,32.7786" id="Stroke-45" stroke="#40C9FF" stroke-width="2" stroke-linecap="round" stroke-linejoin="round"></path>
            <path d="M106.8268,44.4601 C106.1368,46.7101 104.9068,48.7801 103.1468,50.3401" id="Stroke-47" stroke="#40C9FF" stroke-width="2" stroke-linecap="round" stroke-linejoin="round"></path>
            <path d="M85.9176,58.0158 C82.2266,58.7588 78.3216,58.5818 74.5616,57.3548" id="Stroke-49" stroke="#40C9FF" stroke-width="2" stroke-linecap="round" stroke-linejoin="round"></path>
        </g>
    </g>
</svg>